<?xml version="1.0" encoding="UTF-8"?>
<svg id="Layer_2" data-name="Layer 2" xmlns="http://www.w3.org/2000/svg" viewBox="0 0 179.82 180.92">
  <defs>
    <style>
      .cls-1 {
        fill: #fff;
      }

      .cls-2 {
        fill: #818285;
      }

      .cls-3 {
        fill: #231f20;
      }

      .cls-4 {
        fill: #595a5c;
      }

      .cls-5 {
        fill: none;
        stroke: #818285;
        stroke-miterlimit: 10;
        stroke-width: 2px;
      }
    </style>
  </defs>
  <g id="faces-cansado">
    <g>
      <g>
        <circle class="cls-4" cx="89.91" cy="89.91" r="89.91"/>
        <path class="cls-2" d="M60.58,174.93s29.33,13.48,58.66,0c0,0-29.33,10.94-58.66,0Z"/>
      </g>
      <path class="cls-5" d="M77.18,150.93c1.01-.92,3.57-2.98,7.32-3.36,7.17-.71,11.88,5.4,12.17,5.79"/>
      <ellipse class="cls-1" cx="61.43" cy="98.94" rx="11.78" ry="18.42"/>
      <ellipse class="cls-1" cx="118.89" cy="98.94" rx="11.78" ry="18.42"/>
      <ellipse class="cls-3" cx="61.68" cy="102.63" rx="9.24" ry="14.73"/>
      <ellipse class="cls-1" cx="54.55" cy="96.16" rx="2.34" ry="3.66"/>
      <ellipse class="cls-3" cx="118.82" cy="102.63" rx="9.37" ry="14.73"/>
      <ellipse class="cls-1" cx="112.34" cy="96.16" rx="2.34" ry="3.66"/>
      <path class="cls-2" d="M49.62,96.15c7.81,0,15.62,0,23.44-.01-.19-2.78-.85-4.94-1.39-6.36-.86-2.23-2.23-5.79-5.74-7.88-.8-.48-2.35-1.37-4.49-1.39-2.27-.02-3.91,.97-4.74,1.47-5.57,3.36-6.99,13.54-7.07,14.16Z"/>
      <path class="cls-2" d="M130.63,96.16c-7.81,0-15.62,0-23.44-.01,.19-2.78,.85-4.94,1.39-6.36,.86-2.23,2.23-5.79,5.74-7.88,.8-.48,2.35-1.37,4.49-1.39,2.27-.02,3.91,.97,4.74,1.47,5.57,3.36,6.99,13.54,7.07,14.16Z"/>
    </g>
  </g>
</svg>