<?xml version="1.0" encoding="UTF-8"?>
<svg id="Layer_2" data-name="Layer 2" xmlns="http://www.w3.org/2000/svg" viewBox="0 0 179.61 180.71">
  <defs>
    <style>
      .cls-1 {
        fill: #fff;
      }

      .cls-2 {
        fill: #e72b5c;
      }

      .cls-3 {
        fill: #818285;
      }

      .cls-4 {
        fill: #231f20;
      }

      .cls-5 {
        fill: #595a5c;
      }

      .cls-6 {
        fill: #60c8d4;
      }

      .cls-7 {
        fill: none;
        stroke: #818285;
        stroke-miterlimit: 10;
        stroke-width: 2px;
      }

      .cls-8 {
        fill: #f7b1c4;
        opacity: .57;
      }
    </style>
  </defs>
  <g id="faces-cariñoso">
    <g>
      <g>
        <circle class="cls-5" cx="89.8" cy="89.8" r="89.8"/>
        <path class="cls-3" d="M60.51,174.72s29.3,13.47,58.59,0c0,0-29.29,10.93-58.59,0Z"/>
      </g>
      <g>
        <path class="cls-7" d="M97.03,135.7c-.62,3.59-1.86,4.77-2.87,5.2-2.7,1.12-6.03-2.25-8.06-.72-.69,.52-.9,1.37-1.07,2.06-.52,2.12,.51,3.93,.99,4.75,1.73,3.02,4.88,4.03,5.82,4.3"/>
        <path class="cls-7" d="M88.7,149.94c-1.63,1.66-2.23,3.75-1.52,5.28,.58,1.26,1.88,1.81,2.33,1.97,2.46,.89,4.01-.99,6.45-.27,.78,.23,1.74,.75,2.69,1.97"/>
      </g>
      <g>
        <path class="cls-2" d="M77.66,146.76c-.22,2.43-.43,4.86-.65,7.29-1.51-1.18-3.02-2.36-4.53-3.54-2.38-2.18-2.43-5-.96-6.22,.9-.75,2.6-1.1,4.07-.47,1.25,.54,2.05,1.68,2.07,2.94Z"/>
        <path class="cls-2" d="M76.35,146.76c.22,2.43,.43,4.86,.65,7.29,1.51-1.18,3.02-2.36,4.53-3.54,2.38-2.18,2.43-5,.96-6.22-.9-.75-2.6-1.1-4.07-.47-1.25,.54-2.05,1.68-2.07,2.94Z"/>
      </g>
      <g>
        <path class="cls-6" d="M53.89,116.71s3.06-.54,6.39,0l-1.88-1.55s-3.96,.46-4.52,1.55Z"/>
        <path class="cls-6" d="M38.06,81.54s.88,3.96,10.55,7.59c0,0,5.94,2.75,8.35-9.45,0,0-8.9,.66-18.47-9.01,0,0-.27,7.09,12.92,12.53,0,0,.77,.66-.05,1.15,0,0-7.59,1.04-13.3-2.8Z"/>
        <ellipse class="cls-1" cx="60.62" cy="97.62" rx="12.2" ry="19.09"/>
        <path class="cls-6" d="M142.74,81.54s-.88,3.96-10.55,7.59c0,0-5.94,2.75-8.35-9.45,0,0,8.9,.66,18.47-9.01,0,0,.27,7.09-12.92,12.53,0,0-.77,.66,.05,1.15,0,0,7.59,1.04,13.3-2.8Z"/>
        <path class="cls-6" d="M127.42,116.71s-3.06-.54-6.39,0l1.88-1.55s3.96,.46,4.52,1.55Z"/>
        <ellipse class="cls-1" cx="120.17" cy="97.62" rx="12.2" ry="19.09"/>
        <ellipse class="cls-4" cx="60.88" cy="101.45" rx="9.57" ry="15.27"/>
        <ellipse class="cls-1" cx="55.12" cy="89.97" rx="2.42" ry="3.79"/>
        <ellipse class="cls-4" cx="120.1" cy="101.45" rx="9.71" ry="15.27"/>
        <ellipse class="cls-1" cx="115.02" cy="89.97" rx="2.42" ry="3.79"/>
        <ellipse class="cls-8" cx="49.34" cy="128.9" rx="11.28" ry="2.97"/>
        <ellipse class="cls-8" cx="134.28" cy="128.9" rx="11.28" ry="2.97"/>
      </g>
    </g>
  </g>
</svg>