<?xml version="1.0" encoding="UTF-8"?>
<svg id="Layer_2" data-name="Layer 2" xmlns="http://www.w3.org/2000/svg" viewBox="0 0 179.1 180.2">
  <defs>
    <style>
      .cls-1 {
        fill: none;
        stroke: #818285;
        stroke-miterlimit: 10;
        stroke-width: 3px;
      }

      .cls-2 {
        fill: #fff;
      }

      .cls-3 {
        fill: #818285;
      }

      .cls-4 {
        fill: #231f20;
      }

      .cls-5 {
        fill: #595a5c;
      }
    </style>
  </defs>
  <g id="faces-suspicaz">
    <g>
      <g>
        <circle class="cls-5" cx="89.55" cy="89.55" r="89.55"/>
        <path class="cls-3" d="M60.34,174.23s29.21,13.43,58.42,0c0,0-29.21,10.89-58.42,0Z"/>
      </g>
      <ellipse class="cls-2" cx="59.1" cy="97.99" rx="10.11" ry="15.81"/>
      <ellipse class="cls-4" cx="59.1" cy="97.99" rx="6.28" ry="9.82"/>
      <ellipse class="cls-2" cx="54.83" cy="91.3" rx="2.01" ry="3.14"/>
      <ellipse class="cls-2" cx="119.13" cy="94.15" rx="12.23" ry="19.13"/>
      <ellipse class="cls-4" cx="119.47" cy="94.15" rx="7.6" ry="11.89"/>
      <ellipse class="cls-2" cx="114.3" cy="86.07" rx="2.43" ry="3.8"/>
      <path class="cls-2" d="M57.65,135.93s23.47,3.9,59.7,0c0,0-13.79,10.62-29.85,10.43,0,0-17.61,.24-29.85-10.43Z"/>
      <path class="cls-1" d="M46.44,78.01c3.68-4.63,6.78-5.66,8.95-5.73,4.09-.12,6.13,3.13,12.53,5.01,3.49,1.02,6.55,1.14,8.59,1.07"/>
      <path class="cls-1" d="M101.91,65.84c2.86-1.47,6.93-3.78,11.45-7.16,5.48-4.1,7.41-6.63,10.38-6.44,2.23,.14,5.43,1.85,8.95,9.66"/>
    </g>
  </g>
</svg>