<?xml version="1.0" encoding="UTF-8"?>
<svg id="Layer_2" data-name="Layer 2" xmlns="http://www.w3.org/2000/svg" viewBox="0 0 179.61 180.71">
  <defs>
    <style>
      .cls-1 {
        fill: #fff;
      }

      .cls-2 {
        fill: #818285;
      }

      .cls-3 {
        fill: #231f20;
      }

      .cls-4 {
        fill: #595a5c;
      }

      .cls-5 {
        fill: #60c8d4;
      }

      .cls-6 {
        fill: #f7b1c4;
        opacity: .57;
      }
    </style>
  </defs>
  <g id="faces-dubitativo">
    <g>
      <g>
        <circle class="cls-4" cx="89.8" cy="89.8" r="89.8"/>
        <path class="cls-2" d="M60.51,174.72s29.3,13.47,58.59,0c0,0-29.29,10.93-58.59,0Z"/>
      </g>
      <ellipse class="cls-2" cx="95.14" cy="144.96" rx="4.69" ry="6.76"/>
      <path class="cls-5" d="M53.47,116.28s3.06-.54,6.39,0l-1.88-1.55s-3.96,.46-4.52,1.55Z"/>
      <path class="cls-5" d="M37.64,81.11s.88,3.96,10.55,7.59c0,0,5.94,2.75,8.35-9.45,0,0-8.9,.66-18.47-9.01,0,0-.27,7.09,12.92,12.53,0,0,.77,.66-.05,1.15,0,0-7.59,1.04-13.3-2.8Z"/>
      <ellipse class="cls-1" cx="60.2" cy="97.19" rx="12.2" ry="19.09"/>
      <path class="cls-5" d="M142.32,81.11s-.88,3.96-10.55,7.59c0,0-5.94,2.75-8.35-9.45,0,0,8.9,.66,18.47-9.01,0,0,.27,7.09-12.92,12.53,0,0-.77,.66,.05,1.15,0,0,7.59,1.04,13.3-2.8Z"/>
      <path class="cls-5" d="M127,116.28s-3.06-.54-6.39,0l1.88-1.55s3.96,.46,4.52,1.55Z"/>
      <ellipse class="cls-1" cx="119.75" cy="97.19" rx="12.2" ry="19.09"/>
      <ellipse class="cls-3" cx="63.04" cy="94.86" rx="9.57" ry="15.27"/>
      <ellipse class="cls-1" cx="57.44" cy="85.01" rx="2.42" ry="3.79"/>
      <ellipse class="cls-3" cx="122.27" cy="94.86" rx="9.71" ry="15.27"/>
      <ellipse class="cls-1" cx="117.33" cy="85.01" rx="2.42" ry="3.79"/>
      <ellipse class="cls-6" cx="48.92" cy="128.47" rx="11.28" ry="2.97"/>
      <ellipse class="cls-6" cx="133.86" cy="128.47" rx="11.28" ry="2.97"/>
    </g>
  </g>
</svg>