<?xml version="1.0" encoding="UTF-8"?>
<svg id="Layer_2" data-name="Layer 2" xmlns="http://www.w3.org/2000/svg" viewBox="0 0 179.82 180.92">
  <defs>
    <style>
      .cls-1 {
        fill: #fff;
      }

      .cls-2 {
        fill: #818285;
      }

      .cls-3 {
        fill: #231f20;
      }

      .cls-4 {
        fill: #595a5c;
      }
    </style>
  </defs>
  <g id="faces-asombrado">
    <g>
      <g>
        <circle class="cls-4" cx="89.91" cy="89.91" r="89.91"/>
        <path class="cls-2" d="M60.58,174.93s29.33,13.48,58.66,0c0,0-29.33,10.94-58.66,0Z"/>
      </g>
      <g>
        <path class="cls-2" d="M76.69,139.39c-2.95,12.16,.95,22.62,7.88,25.67,4.52,1.99,9.02,.24,9.63,0,7.33-2.97,11.8-13.1,9.92-25.09-2.57-7.84-10.14-12.29-16.88-10.88-4.91,1.03-8.93,5.06-10.54,10.3Z"/>
        <path class="cls-4" d="M89.23,153.16c-3.64,.02-8.25,2.09-8.35,4.81-.09,2.4,3.31,5.33,8.5,5.95,5.1-.37,8.6-3.13,8.64-5.52,.05-2.86-4.83-5.26-8.78-5.24Z"/>
      </g>
      <g>
        <ellipse class="cls-1" cx="60.42" cy="97.41" rx="12.2" ry="19.09"/>
        <ellipse class="cls-1" cx="119.97" cy="97.41" rx="12.2" ry="19.09"/>
        <ellipse class="cls-3" cx="60.68" cy="101.24" rx="9.57" ry="15.27"/>
        <ellipse class="cls-1" cx="54.92" cy="89.76" rx="2.42" ry="3.79"/>
        <ellipse class="cls-3" cx="119.9" cy="101.24" rx="9.71" ry="15.27"/>
        <ellipse class="cls-1" cx="114.81" cy="89.76" rx="2.42" ry="3.79"/>
      </g>
    </g>
  </g>
</svg>