<?xml version="1.0" encoding="UTF-8"?>
<svg id="Layer_2" data-name="Layer 2" xmlns="http://www.w3.org/2000/svg" viewBox="0 0 180.84 189.97">
  <defs>
    <style>
      .cls-1, .cls-2 {
        fill: #fff;
      }

      .cls-3 {
        fill: #818285;
      }

      .cls-4 {
        fill: #231f20;
      }

      .cls-5 {
        fill: #595a5c;
      }

      .cls-2 {
        stroke: #818285;
        stroke-miterlimit: 10;
      }
    </style>
  </defs>
  <g id="faces-furioso">
    <g>
      <g>
        <circle class="cls-5" cx="90.42" cy="90.42" r="90.42"/>
        <path class="cls-3" d="M60.92,175.92s29.5,13.56,58.99,0c0,0-29.5,11-58.99,0Z"/>
      </g>
      <path class="cls-3" d="M120.46,161.09c-2.44-2.17-14.4-12.35-32.23-11.53-15.22,.7-25.2,8.98-28.05,11.53,1.58-3.37,6.34-12.35,16.78-17.67,5.18-2.64,10.03-3.49,13.35-3.78,3.24,.15,9.49,.89,15.99,4.8,9.16,5.5,12.95,13.72,14.14,16.65Z"/>
      <path class="cls-2" d="M78.75,144.42c-1.21,3.54-2.94,7.66-5.42,12.08-2.32,4.12-4.79,7.6-7.08,10.43-1.57-1.87-4.06-2.84-6.48-2.47-2.66,.4-4.1,2.24-4.37,2.61-4.26-2.81-9.62-1.79-11.6,1.1-1.38,2.01-1.1,4.9,.6,7.28-2.52,3.76-.86,8.27,2.41,9.61,2.45,1.01,5.79,.23,7.98-2.06-.06,3.5,3.2,6.26,6.78,6.04,3.37-.21,6.12-3.02,5.88-6.32,3.83,1.07,7.68,0,9.19-2.2,2-2.91,.3-8.35-5.27-10.43,1.98-2.6,4.74-6.92,6.33-12.77,1.44-5.32,1.37-9.88,1.05-12.91Z"/>
      <ellipse class="cls-1" cx="60.45" cy="96.72" rx="12.35" ry="19.32"/>
      <ellipse class="cls-4" cx="60.45" cy="103.35" rx="7.67" ry="12"/>
      <ellipse class="cls-1" cx="55.22" cy="95.18" rx="2.45" ry="3.84"/>
      <ellipse class="cls-1" cx="120.72" cy="96.72" rx="12.35" ry="19.32"/>
      <ellipse class="cls-4" cx="121.07" cy="104.01" rx="7.67" ry="12"/>
      <ellipse class="cls-1" cx="115.85" cy="95.85" rx="2.45" ry="3.84"/>
      <rect class="cls-5" x="47.92" y="70.14" width="37.82" height="20.57" transform="translate(29.77 -17.36) rotate(18.97)"/>
      <rect class="cls-5" x="92.67" y="71.97" width="37.82" height="20.57" transform="translate(-26.72 72.84) rotate(-32.5)"/>
      <path class="cls-2" d="M101.7,144.83c1.21,3.54,2.94,7.66,5.42,12.08,2.32,4.12,4.79,7.6,7.08,10.43,1.57-1.87,4.06-2.84,6.48-2.47,2.66,.4,4.1,2.24,4.37,2.61,4.26-2.81,9.62-1.79,11.6,1.1,1.38,2.01,1.1,4.9-.6,7.28,2.52,3.76,.86,8.27-2.41,9.61-2.45,1.01-5.79,.23-7.98-2.06,.06,3.5-3.2,6.26-6.78,6.04-3.37-.21-6.12-3.02-5.88-6.32-3.83,1.07-7.68,0-9.19-2.2-2-2.91-.3-8.35,5.27-10.43-1.98-2.6-4.74-6.92-6.33-12.77-1.44-5.32-1.37-9.88-1.05-12.91Z"/>
    </g>
  </g>
</svg>