<?xml version="1.0" encoding="UTF-8"?>
<svg id="Layer_2" data-name="Layer 2" xmlns="http://www.w3.org/2000/svg" viewBox="0 0 180.84 181.95">
  <defs>
    <style>
      .cls-1 {
        fill: #fff;
      }

      .cls-2 {
        fill: #818285;
      }

      .cls-3 {
        fill: #231f20;
      }

      .cls-4 {
        fill: #595a5c;
      }

      .cls-5 {
        fill: #60c8d4;
      }

      .cls-6 {
        fill: none;
        stroke: #818285;
        stroke-miterlimit: 10;
        stroke-width: 2px;
      }

      .cls-7 {
        fill: #f7b1c4;
        opacity: .57;
      }
    </style>
  </defs>
  <g id="faces-picaro">
    <g>
      <circle class="cls-4" cx="90.42" cy="90.42" r="90.42"/>
      <path class="cls-2" d="M60.92,175.92s29.5,13.56,58.99,0c0,0-29.5,11-58.99,0Z"/>
      <path class="cls-1" d="M60.4,136.8s23.7,8.03,60.28,0c0,0-13.92,21.84-30.14,21.45,0,0-17.79,.49-30.14-21.45Z"/>
      <path class="cls-5" d="M129.8,77.12s1.69,1.29,1.3,6.69c0,0,0,3.43-6.33,1.91,0,0,2.27-4.1-.24-10.77,0,0,3.44,1.42,3.14,8.9,0,0,.15,.51,.56,.23,0,0,2.16-3.38,1.58-6.95Z"/>
      <path class="cls-6" d="M131.17,84.81c-3.54,.26-8.87,1.07-14.8,3.67-5.54,2.43-9.54,5.52-12.09,7.82,4.25-.96,9.98-1.78,16.71-1.42,4.53,.24,8.49,.96,11.73,1.78"/>
      <path class="cls-5" d="M54.89,116.64s3.06-.54,6.39,0l-1.88-1.55s-3.96,.46-4.52,1.55Z"/>
      <path class="cls-5" d="M39.05,81.47s.88,3.96,10.55,7.59c0,0,5.94,2.75,8.35-9.45,0,0-8.9,.66-18.47-9.01,0,0-.27,7.09,12.92,12.53,0,0,.77,.66-.05,1.15,0,0-7.59,1.04-13.3-2.8Z"/>
      <ellipse class="cls-1" cx="61.62" cy="97.55" rx="12.2" ry="19.09"/>
      <ellipse class="cls-3" cx="61.88" cy="101.37" rx="9.57" ry="15.27"/>
      <ellipse class="cls-1" cx="56.12" cy="89.9" rx="2.42" ry="3.79"/>
      <ellipse class="cls-7" cx="50.34" cy="128.83" rx="11.28" ry="2.97"/>
      <ellipse class="cls-7" cx="135.27" cy="128.83" rx="11.28" ry="2.97"/>
    </g>
  </g>
</svg>