<?xml version="1.0" encoding="UTF-8"?>
<svg id="Layer_2" data-name="Layer 2" xmlns="http://www.w3.org/2000/svg" viewBox="0 0 179.61 180.71">
  <defs>
    <style>
      .cls-1 {
        fill: #fff;
      }

      .cls-2 {
        fill: #818285;
      }

      .cls-3 {
        fill: #231f20;
      }

      .cls-4, .cls-5 {
        fill: #595a5c;
      }

      .cls-6 {
        fill: #60c8d4;
      }

      .cls-5, .cls-7 {
        stroke: #818285;
        stroke-miterlimit: 10;
      }

      .cls-7 {
        fill: none;
      }

      .cls-8 {
        fill: #f7b1c4;
        opacity: .57;
      }
    </style>
  </defs>
  <g id="faces-loco">
    <g>
      <circle class="cls-4" cx="89.8" cy="89.8" r="89.8"/>
      <path class="cls-2" d="M60.51,174.72s29.3,13.47,58.59,0c0,0-29.29,10.93-58.59,0Z"/>
    </g>
    <path class="cls-2" d="M60.83,134.43l73.4-26.62c4.9,18.84-3.43,38.1-18.8,46.21-18.43,9.72-43.94,1.81-54.6-19.58Z"/>
    <polygon class="cls-1" points="66.17 135.22 130.51 111.33 132.4 116.36 68.48 139.2 66.17 135.22"/>
    <path class="cls-5" d="M74.48,138.56c9.77-3.59,19.55-7.17,29.32-10.76,.5,12.08,1.01,24.17,1.51,36.25-3.35,10.64-13.41,15.82-20.71,13.38-7.26-2.42-9.38-11.56-9.49-12.08l-.63-26.79Z"/>
    <line class="cls-7" x1="89.52" y1="135.4" x2="90.38" y2="156.1"/>
    <path class="cls-6" d="M54.74,91.06s2.45-.43,5.11,0l-1.5-1.24s-3.17,.36-3.61,1.24Z"/>
    <path class="cls-6" d="M42.08,62.93s.7,3.16,8.44,6.07c0,0,4.75,2.2,6.68-7.56,0,0-7.12,.53-14.77-7.21,0,0-.22,5.67,10.33,10.02,0,0,.62,.53-.04,.92,0,0-6.07,.84-10.64-2.24Z"/>
    <ellipse class="cls-1" cx="60.13" cy="75.79" rx="9.76" ry="15.26"/>
    <path class="cls-6" d="M144.46,49.82s-1.01,4.54-12.1,8.7c0,0-6.81,3.15-9.58-10.84,0,0,10.21,.76,21.18-10.34,0,0,.32,8.13-14.81,14.37,0,0-.88,.76,.06,1.32,0,0,8.7,1.2,15.26-3.22Z"/>
    <path class="cls-6" d="M126.89,90.15s-3.51-.62-7.33,0l2.15-1.78s4.54,.52,5.18,1.78Z"/>
    <ellipse class="cls-1" cx="118.58" cy="68.26" rx="14" ry="21.89"/>
    <ellipse class="cls-3" cx="60.34" cy="78.85" rx="7.66" ry="12.21"/>
    <ellipse class="cls-1" cx="55.73" cy="69.67" rx="1.94" ry="3.03"/>
    <ellipse class="cls-3" cx="118.5" cy="72.64" rx="11.14" ry="17.51"/>
    <ellipse class="cls-1" cx="112.66" cy="59.48" rx="2.78" ry="4.35"/>
    <ellipse class="cls-8" cx="54.99" cy="102.38" rx="9.79" ry="2.58"/>
    <ellipse class="cls-8" cx="128.72" cy="102.38" rx="9.79" ry="2.58"/>
  </g>
</svg>