<?xml version="1.0" encoding="UTF-8"?>
<svg id="Layer_2" data-name="Layer 2" xmlns="http://www.w3.org/2000/svg" viewBox="0 0 180.86 181.97">
  <defs>
    <style>
      .cls-1 {
        fill: #fff;
      }

      .cls-2 {
        fill: #818285;
      }

      .cls-3 {
        fill: #231f20;
      }

      .cls-4 {
        fill: #595a5c;
      }

      .cls-5 {
        fill: #60c8d4;
      }

      .cls-6 {
        fill: none;
        stroke: #818285;
        stroke-miterlimit: 10;
        stroke-width: 2px;
      }

      .cls-7 {
        fill: #f7b1c4;
        opacity: .57;
      }
    </style>
  </defs>
  <g id="faces-decepcionado">
    <g>
      <g>
        <circle class="cls-4" cx="90.43" cy="90.43" r="90.43"/>
        <path class="cls-2" d="M60.93,175.94s29.5,13.56,59,0c0,0-29.5,11-59,0Z"/>
      </g>
      <path class="cls-6" d="M67.7,153.42c4.27-8.55,11.93-16.89,19.48-16.9,11.24-.02,25.71,5.26,23.67,24.58"/>
      <g>
        <path class="cls-5" d="M53.58,116.42s3.06-.54,6.39,0l-1.88-1.55s-3.96,.46-4.52,1.55Z"/>
        <path class="cls-5" d="M37.75,81.25s.88,3.96,10.55,7.59c0,0,5.94,2.75,8.35-9.45,0,0-8.9,.66-18.47-9.01,0,0-.27,7.09,12.92,12.53,0,0,.77,.66-.05,1.15,0,0-7.59,1.04-13.3-2.8Z"/>
        <ellipse class="cls-1" cx="60.32" cy="97.33" rx="12.2" ry="19.09"/>
        <path class="cls-5" d="M142.43,81.25s-.88,3.96-10.55,7.59c0,0-5.94,2.75-8.35-9.45,0,0,8.9,.66,18.47-9.01,0,0,.27,7.09-12.92,12.53,0,0-.77,.66,.05,1.15,0,0,7.59,1.04,13.3-2.8Z"/>
        <path class="cls-5" d="M127.11,116.42s-3.06-.54-6.39,0l1.88-1.55s3.96,.46,4.52,1.55Z"/>
        <ellipse class="cls-1" cx="119.87" cy="97.33" rx="12.2" ry="19.09"/>
        <ellipse class="cls-3" cx="60.57" cy="101.15" rx="9.57" ry="15.27"/>
        <ellipse class="cls-1" cx="54.82" cy="89.68" rx="2.42" ry="3.79"/>
        <ellipse class="cls-3" cx="119.8" cy="101.15" rx="9.71" ry="15.27"/>
        <ellipse class="cls-1" cx="114.71" cy="89.68" rx="2.42" ry="3.79"/>
        <ellipse class="cls-7" cx="49.03" cy="128.61" rx="11.28" ry="2.97"/>
        <ellipse class="cls-7" cx="133.97" cy="128.61" rx="11.28" ry="2.97"/>
      </g>
    </g>
  </g>
</svg>