<?xml version="1.0" encoding="UTF-8"?>
<svg id="Layer_2" data-name="Layer 2" xmlns="http://www.w3.org/2000/svg" viewBox="0 0 179.61 180.71">
  <defs>
    <style>
      .cls-1 {
        fill: #fff;
      }

      .cls-2 {
        fill: #818285;
      }

      .cls-3 {
        fill: #595a5c;
      }

      .cls-4 {
        fill: #60c8d4;
      }

      .cls-5 {
        fill: #f7b1c4;
        opacity: .57;
      }
    </style>
  </defs>
  <g id="faces-encantado">
    <g>
      <g>
        <circle class="cls-3" cx="89.8" cy="89.8" r="89.8"/>
        <path class="cls-2" d="M60.51,174.72s29.3,13.47,58.59,0c0,0-29.29,10.93-58.59,0Z"/>
      </g>
      <path class="cls-1" d="M59.96,136.41s23.54,7.97,59.87,0c0,0-13.83,21.69-29.93,21.3,0,0-17.66,.49-29.93-21.3Z"/>
      <path class="cls-4" d="M36.27,84.54s.88,3.96,10.55,7.59c0,0,5.94,2.75,8.35-9.45,0,0-8.9,.66-18.47-9.01,0,0-.27,7.09,12.92,12.53,0,0,.77,.66-.05,1.15,0,0-7.59,1.04-13.3-2.8Z"/>
      <path class="cls-4" d="M141.95,85.54s-.88,3.96-10.55,7.59c0,0-5.94,2.75-8.35-9.45,0,0,8.9,.66,18.47-9.01,0,0,.27,7.09-12.92,12.53,0,0-.77,.66,.05,1.15,0,0,7.59,1.04,13.3-2.8Z"/>
      <ellipse class="cls-5" cx="47.14" cy="130.1" rx="11.28" ry="2.97"/>
      <ellipse class="cls-5" cx="132.08" cy="130.1" rx="11.28" ry="2.97"/>
      <polygon class="cls-2" points="59.85 73.09 66.9 87.38 82.68 89.67 71.26 100.8 73.96 116.51 59.85 109.09 45.74 116.51 48.43 100.8 37.02 89.67 52.79 87.38 59.85 73.09"/>
      <polygon class="cls-2" points="119.32 74.66 126.37 88.95 142.14 91.24 130.73 102.37 133.42 118.08 119.32 110.66 105.21 118.08 107.9 102.37 96.49 91.24 112.26 88.95 119.32 74.66"/>
    </g>
  </g>
</svg>