<?xml version="1.0" encoding="UTF-8"?>
<svg id="Layer_2" data-name="Layer 2" xmlns="http://www.w3.org/2000/svg" viewBox="0 0 179.83 180.93">
  <defs>
    <style>
      .cls-1 {
        fill: #fff;
      }

      .cls-2 {
        fill: #818285;
      }

      .cls-3 {
        fill: #231f20;
      }

      .cls-4 {
        fill: #595a5c;
      }

      .cls-5 {
        fill: #60c8d4;
      }

      .cls-6 {
        fill: #f7b1c4;
        opacity: .57;
      }
    </style>
  </defs>
  <g id="faces-confundio">
    <g>
      <g>
        <circle class="cls-4" cx="89.91" cy="89.91" r="89.91"/>
        <path class="cls-2" d="M60.72,174.93s29.33,13.48,58.66,0c0,0-29.33,10.94-58.66,0Z"/>
      </g>
      <path class="cls-2" d="M76.38,146.53c1-.64,3.67-2.17,7.62-2.44,5.12-.35,8.77,1.66,9.67,2.19,.28,.38,1.04,1.51,.71,2.9-.41,1.66-2.22,3.02-4.62,3.45-.41,.05-1.99,.22-3.58-.54-1.69-.81-2.19-2.09-2.3-2.37-.09,.25-.72,1.89-2.89,2.7-1.84,.69-3.56,.32-3.96,.22-1.61-.65-2.62-1.93-2.58-3.29,.05-1.7,1.72-2.69,1.93-2.8Z"/>
      <g>
        <path class="cls-5" d="M53.63,115.79s3.06-.54,6.39,0l-1.88-1.55s-3.96,.46-4.52,1.55Z"/>
        <path class="cls-5" d="M37.79,80.62s.88,3.96,10.55,7.59c0,0,5.94,2.75,8.35-9.45,0,0-8.9,.66-18.47-9.01,0,0-.27,7.09,12.92,12.53,0,0,.77,.66-.05,1.15,0,0-7.59,1.04-13.3-2.8Z"/>
        <ellipse class="cls-1" cx="60.36" cy="96.7" rx="12.2" ry="19.09"/>
        <path class="cls-5" d="M142.48,80.62s-.88,3.96-10.55,7.59c0,0-5.94,2.75-8.35-9.45,0,0,8.9,.66,18.47-9.01,0,0,.27,7.09-12.92,12.53,0,0-.77,.66,.05,1.15,0,0,7.59,1.04,13.3-2.8Z"/>
        <path class="cls-5" d="M127.15,115.79s-3.06-.54-6.39,0l1.88-1.55s3.96,.46,4.52,1.55Z"/>
        <ellipse class="cls-1" cx="119.91" cy="96.7" rx="12.2" ry="19.09"/>
        <ellipse class="cls-3" cx="60.62" cy="100.53" rx="9.57" ry="15.27"/>
        <ellipse class="cls-1" cx="54.86" cy="89.05" rx="2.42" ry="3.79"/>
        <ellipse class="cls-3" cx="119.84" cy="100.53" rx="9.71" ry="15.27"/>
        <ellipse class="cls-1" cx="114.75" cy="89.05" rx="2.42" ry="3.79"/>
        <ellipse class="cls-6" cx="49.08" cy="127.98" rx="11.28" ry="2.97"/>
        <ellipse class="cls-6" cx="134.01" cy="127.98" rx="11.28" ry="2.97"/>
      </g>
    </g>
  </g>
</svg>