<?xml version="1.0" encoding="UTF-8"?>
<svg id="Layer_2" data-name="Layer 2" xmlns="http://www.w3.org/2000/svg" viewBox="0 0 179.61 180.71">
  <defs>
    <style>
      .cls-1 {
        fill: #fff;
      }

      .cls-2 {
        fill: #818285;
      }

      .cls-3 {
        fill: #3ea7b5;
      }

      .cls-4 {
        fill: #595a5c;
      }
    </style>
  </defs>
  <g id="faces-desconsolado">
    <g>
      <g>
        <circle class="cls-4" cx="89.8" cy="89.8" r="89.8"/>
        <path class="cls-2" d="M60.51,174.72s29.3,13.47,58.59,0c0,0-29.29,10.93-58.59,0Z"/>
      </g>
      <path class="cls-2" d="M74.88,139.46c2.37-5.22,8.62-8.66,15.41-8.52,6.35,.13,12.06,3.36,14.43,8.18,.05,4.56,.09,9.11,.14,13.67-1.9,5.71-8.48,9.62-15.69,9.41-6.82-.19-12.78-4.02-14.57-9.41,.09-4.45,.19-8.89,.28-13.34Z"/>
      <path class="cls-1" d="M89.83,133.6c-5.1,.03-9.72,2.49-11.73,6.25,2.59,.74,6.71,1.64,11.86,1.61,5.09-.03,9.16-.95,11.72-1.7-2.05-3.76-6.73-6.19-11.85-6.16Z"/>
      <path class="cls-3" d="M136.38,166.6c-2.55,1.54-5.45,3.13-8.7,4.65-3.17,1.48-6.18,2.67-8.94,3.63-.01-24.71-.03-49.42-.04-74.12h18.05c-.12,21.95-.25,43.89-.37,65.84Z"/>
      <path class="cls-2" d="M136.79,107.8c-.17-.25-3.43-4.8-13.53-5.77-.77-.07-4.52-.41-8.99,.15-9.74,1.22-12.73,5.41-13.02,5.83-4.09-9.88,.87-17.46,11.37-19,4.29-.63,8.44-.09,9.79,.11,11.45,1.72,17.38,9.24,14.37,18.68Z"/>
      <path class="cls-3" d="M47.22,168.89c2.38,1.48,5.27,3.05,8.64,4.49,3.31,1.41,6.38,2.38,9.06,3.07,.01-25.23,.03-50.45,.04-75.68h-18.05c.1,22.71,.2,45.42,.3,68.13Z"/>
      <path class="cls-2" d="M46.69,107.9c.17-.25,3.43-4.8,13.53-5.77,.77-.07,4.52-.41,8.99,.15,9.74,1.22,12.73,5.41,13.02,5.83,4.09-9.88-.87-17.46-11.37-19-4.29-.63-8.44-.09-9.79,.11-11.45,1.72-17.38,9.24-14.37,18.68Z"/>
    </g>
  </g>
</svg>