<?xml version="1.0" encoding="UTF-8"?>
<svg id="Layer_2" data-name="Layer 2" xmlns="http://www.w3.org/2000/svg" viewBox="0 0 179.82 180.92">
  <defs>
    <style>
      .cls-1 {
        fill: #fff;
      }

      .cls-2 {
        fill: #818285;
      }

      .cls-3 {
        fill: #231f20;
      }

      .cls-4 {
        fill: #595a5c;
      }

      .cls-5 {
        fill: #60c8d4;
      }

      .cls-6 {
        fill: #f7b1c4;
        opacity: .57;
      }
    </style>
  </defs>
  <g id="faces-asustado">
    <g>
      <g>
        <circle class="cls-4" cx="89.91" cy="89.91" r="89.91"/>
        <path class="cls-2" d="M60.58,174.93s29.33,13.48,58.66,0c0,0-29.33,10.94-58.66,0Z"/>
      </g>
      <g>
        <path class="cls-5" d="M53.79,116.06s3.06-.54,6.39,0l-1.88-1.55s-3.96,.46-4.52,1.55Z"/>
        <path class="cls-5" d="M37.96,80.89s.88,3.96,10.55,7.59c0,0,5.94,2.75,8.35-9.45,0,0-8.9,.66-18.47-9.01,0,0-.27,7.09,12.92,12.53,0,0,.77,.66-.05,1.15,0,0-7.59,1.04-13.3-2.8Z"/>
        <ellipse class="cls-1" cx="60.52" cy="96.97" rx="12.2" ry="19.09"/>
        <path class="cls-5" d="M142.64,80.89s-.88,3.96-10.55,7.59c0,0-5.94,2.75-8.35-9.45,0,0,8.9,.66,18.47-9.01,0,0,.27,7.09-12.92,12.53,0,0-.77,.66,.05,1.15,0,0,7.59,1.04,13.3-2.8Z"/>
        <path class="cls-5" d="M127.32,116.06s-3.06-.54-6.39,0l1.88-1.55s3.96,.46,4.52,1.55Z"/>
        <ellipse class="cls-1" cx="120.07" cy="96.97" rx="12.2" ry="19.09"/>
        <ellipse class="cls-3" cx="60.78" cy="100.79" rx="9.57" ry="15.27"/>
        <ellipse class="cls-1" cx="55.02" cy="89.32" rx="2.42" ry="3.79"/>
        <ellipse class="cls-3" cx="120" cy="100.79" rx="9.71" ry="15.27"/>
        <ellipse class="cls-1" cx="114.92" cy="89.32" rx="2.42" ry="3.79"/>
        <ellipse class="cls-6" cx="49.24" cy="128.25" rx="11.28" ry="2.97"/>
        <ellipse class="cls-6" cx="134.18" cy="128.25" rx="11.28" ry="2.97"/>
      </g>
      <path class="cls-1" d="M64.56,156c-1.39-2,3.14-7.5,6.68-10.5,7.85-6.66,17.49-6.67,20.76-6.53,3.55,.16,12.45,1.04,19.57,7.7,.8,.75,6.26,5.85,5.01,7.93-1.59,2.64-11.4-3.98-25.77-3.73-14.98,.25-24.41,7.78-26.25,5.13Z"/>
    </g>
  </g>
</svg>