<?xml version="1.0" encoding="UTF-8"?>
<svg id="Layer_2" data-name="Layer 2" xmlns="http://www.w3.org/2000/svg" viewBox="0 0 179.64 180.74">
  <defs>
    <style>
      .cls-1 {
        stroke: #818285;
        stroke-miterlimit: 10;
        stroke-width: 5px;
      }

      .cls-1, .cls-2 {
        fill: #818285;
      }

      .cls-3 {
        fill: #fff;
      }

      .cls-4 {
        fill: #231f20;
      }

      .cls-5 {
        fill: #595a5c;
      }

      .cls-6 {
        fill: #60c8d4;
      }

      .cls-7 {
        fill: #f7b1c4;
        opacity: .57;
      }
    </style>
  </defs>
  <g id="faces-sorprendido">
    <g>
      <g>
        <circle class="cls-5" cx="89.82" cy="89.82" r="89.82"/>
        <path class="cls-2" d="M60.52,174.76s29.3,13.47,58.6,0c0,0-29.3,10.93-58.6,0Z"/>
      </g>
      <ellipse class="cls-1" cx="91.9" cy="144.74" rx="9.54" ry="14.94"/>
    </g>
    <g>
      <path class="cls-6" d="M51.9,118.48s3.06-.54,6.39,0l-1.88-1.55s-3.96,.46-4.52,1.55Z"/>
      <path class="cls-6" d="M36.07,83.31s.88,3.96,10.55,7.59c0,0,5.94,2.75,8.35-9.45,0,0-8.9,.66-18.47-9.01,0,0-.27,7.09,12.92,12.53,0,0,.77,.66-.05,1.15,0,0-7.59,1.04-13.3-2.8Z"/>
      <ellipse class="cls-3" cx="58.64" cy="99.39" rx="12.2" ry="19.09"/>
      <path class="cls-6" d="M140.75,83.31s-.88,3.96-10.55,7.59c0,0-5.94,2.75-8.35-9.45,0,0,8.9,.66,18.47-9.01,0,0,.27,7.09-12.92,12.53,0,0-.77,.66,.05,1.15,0,0,7.59,1.04,13.3-2.8Z"/>
      <path class="cls-6" d="M125.43,118.48s-3.06-.54-6.39,0l1.88-1.55s3.96,.46,4.52,1.55Z"/>
      <ellipse class="cls-3" cx="118.19" cy="99.39" rx="12.2" ry="19.09"/>
      <ellipse class="cls-4" cx="58.89" cy="103.21" rx="9.57" ry="15.27"/>
      <ellipse class="cls-3" cx="53.14" cy="91.73" rx="2.42" ry="3.79"/>
      <ellipse class="cls-4" cx="118.12" cy="103.21" rx="9.71" ry="15.27"/>
      <ellipse class="cls-3" cx="113.03" cy="91.73" rx="2.42" ry="3.79"/>
      <ellipse class="cls-7" cx="47.35" cy="130.67" rx="11.28" ry="2.97"/>
      <ellipse class="cls-7" cx="132.29" cy="130.67" rx="11.28" ry="2.97"/>
    </g>
  </g>
</svg>