<?xml version="1.0" encoding="UTF-8"?>
<svg id="Layer_2" data-name="Layer 2" xmlns="http://www.w3.org/2000/svg" viewBox="0 0 179.01 208.88">
  <defs>
    <style>
      .cls-1 {
        fill: #fff;
      }

      .cls-2 {
        fill: #818285;
      }

      .cls-3 {
        fill: #231f20;
      }

      .cls-4 {
        fill: #595a5c;
      }

      .cls-5 {
        fill: #60c8d4;
      }

      .cls-6 {
        fill: #f7b1c4;
        opacity: .57;
      }
    </style>
  </defs>
  <g id="faces-malvado">
    <g>
      <path class="cls-2" d="M7.89,82.84c-2.23-8.45-4.75-22.3-2.65-39.17C7.71,23.71,15.46,9.09,20.38,1.27c-.17,1.32-2.67,24.36,14.32,37.41,8.71,6.69,18.24,7.46,22.3,7.53-16.37,12.21-32.74,24.42-49.11,36.62Z"/>
      <path class="cls-2" d="M169.88,81.57c2.23-8.45,4.75-22.3,2.65-39.17-2.48-19.96-10.22-34.58-15.14-42.4,.17,1.32,2.67,24.36-14.32,37.41-8.71,6.69-18.24,7.46-22.3,7.53,16.37,12.21,32.74,24.42,49.11,36.62Z"/>
      <g>
        <circle class="cls-4" cx="89.51" cy="118.28" r="89.51"/>
        <path class="cls-2" d="M60.31,202.91s29.2,13.42,58.4,0c0,0-29.2,10.89-58.4,0Z"/>
      </g>
      <path class="cls-1" d="M59.2,163.6s23.46,7.95,59.67,0c0,0-13.78,21.62-29.83,21.23,0,0-17.61,.49-29.83-21.23Z"/>
      <g>
        <path class="cls-5" d="M53.33,143.25s3.06-.54,6.39,0l-1.88-1.55s-3.96,.46-4.52,1.55Z"/>
        <path class="cls-5" d="M37.5,108.08s.88,3.96,10.55,7.59c0,0,5.94,2.75,8.35-9.45,0,0-8.9,.66-18.47-9.01,0,0-.27,7.09,12.92,12.53,0,0,.77,.66-.05,1.15,0,0-7.59,1.04-13.3-2.8Z"/>
        <ellipse class="cls-1" cx="60.07" cy="124.16" rx="12.2" ry="19.09"/>
        <path class="cls-5" d="M142.19,108.08s-.88,3.96-10.55,7.59c0,0-5.94,2.75-8.35-9.45,0,0,8.9,.66,18.47-9.01,0,0,.27,7.09-12.92,12.53,0,0-.77,.66,.05,1.15,0,0,7.59,1.04,13.3-2.8Z"/>
        <path class="cls-5" d="M126.86,143.25s-3.06-.54-6.39,0l1.88-1.55s3.96,.46,4.52,1.55Z"/>
        <ellipse class="cls-1" cx="119.62" cy="124.16" rx="12.2" ry="19.09"/>
        <ellipse class="cls-3" cx="60.33" cy="127.98" rx="9.57" ry="15.27"/>
        <ellipse class="cls-1" cx="54.57" cy="116.51" rx="2.42" ry="3.79"/>
        <ellipse class="cls-3" cx="119.55" cy="127.98" rx="9.71" ry="15.27"/>
        <ellipse class="cls-1" cx="114.46" cy="116.51" rx="2.42" ry="3.79"/>
        <ellipse class="cls-6" cx="48.78" cy="155.44" rx="11.28" ry="2.97"/>
        <ellipse class="cls-6" cx="133.72" cy="155.44" rx="11.28" ry="2.97"/>
      </g>
      <rect class="cls-4" x="91.85" y="92.8" width="37.43" height="20.36" transform="translate(-38.02 75.55) rotate(-32.5)"/>
      <rect class="cls-4" x="46.15" y="92.8" width="37.43" height="20.36" transform="translate(64.24 224.68) rotate(-147.5)"/>
    </g>
  </g>
</svg>