<svg width="410" height="321" viewBox="0 0 410 321" fill="none" xmlns="http://www.w3.org/2000/svg">
<circle cx="160.324" cy="160.324" r="160.324" fill="#47D8E0"/>
<path d="M118.205 161.692C118.256 147.423 118.309 133.154 118.354 118.885C118.387 108.727 122.733 104.362 132.815 104.35C140.806 104.342 148.797 104.313 157.587 104.289C193.27 104.307 228.155 104.33 263.04 104.352C272.452 104.358 276.99 108.978 277.022 118.58C277.066 131.875 277.12 145.171 277.102 158.864C277.067 171.109 277.1 182.956 277.004 195.088C276.846 196.857 276.818 198.341 276.72 200.213C276.711 208.55 276.771 216.499 276.741 224.823C276.723 226.478 276.793 227.757 276.765 229.418C276.757 240.632 276.848 251.465 276.81 262.687C276.814 274.03 276.946 284.984 277.08 296.311C277.089 298.43 277.099 300.176 277.108 301.922C276.598 304.86 276.087 307.797 275.206 311.18C271.351 315.478 267.109 316.631 261.869 316.607C219.453 316.416 177.036 316.427 134.621 316.586C128.908 316.607 123.843 315.983 120.016 311.32C119.417 304.839 118.636 298.369 118.274 291.875C117.981 286.606 118.19 281.309 118.193 275.261C118.438 273.24 118.864 271.982 118.862 270.725C118.844 256.136 118.76 241.546 118.78 226.579C118.89 220.414 119.018 214.625 118.872 208.843C118.832 207.269 117.97 205.715 117.485 204.151C117.773 199.529 118.061 194.907 118.368 189.489C118.327 179.693 118.266 170.692 118.205 161.692ZM129.482 256.805C129.482 264.248 129.474 271.691 129.484 279.134C129.496 287.694 133.12 291.298 141.819 291.302C179.029 291.316 216.238 291.316 253.448 291.302C262.467 291.298 265.917 287.835 265.918 278.878C265.921 230.356 265.92 181.833 265.918 133.31C265.918 124.082 262.528 120.73 253.178 120.729C216.255 120.725 179.332 120.726 142.409 120.728C132.818 120.729 129.484 124.039 129.483 133.565C129.48 174.359 129.482 215.152 129.482 256.805ZM198.345 312.19C202.392 311.744 204.906 309.458 205.705 305.551C206.613 301.103 203.534 296.719 199.24 295.966C194.608 295.154 190.122 298.323 189.539 302.82C188.883 307.879 191.962 311.437 198.345 312.19ZM201.072 105.201C196.081 105.205 191.081 105.059 186.103 105.326C184.948 105.388 183.868 106.857 182.754 107.679C183.802 108.567 184.829 110.194 185.901 110.224C193.738 110.443 201.588 110.443 209.426 110.222C210.492 110.192 211.514 108.555 212.556 107.662C211.436 106.846 210.397 105.517 209.177 105.322C206.812 104.945 204.346 105.205 201.072 105.201Z" fill="#2F2F2F"/>
<path d="M118.695 226.957C118.761 241.546 118.844 256.136 118.863 270.725C118.865 271.982 118.439 273.24 118.166 274.855C111.547 281.381 105.632 288.383 96.4634 292.174C84.9119 296.85 73.5614 299.16 61.7163 296.673C56.4635 295.571 51.3443 293.831 46.1645 292.381C37.6319 287.011 29.4507 281.307 23.7116 272.68C16.235 261.44 12.7216 249.188 13.4718 235.018C14.3186 232.832 15.1008 231.333 15.9298 229.859C18.3859 225.494 20.7143 221.115 18.3944 215.652C20.5745 212.145 22.6088 208.92 24.7009 206.035C24.4739 207.471 23.8966 208.58 23.9509 209.657C24.365 217.875 24.7836 226.097 25.486 234.293C25.6579 236.3 27.0098 238.179 27.5983 240.182C28.8498 244.441 33.4051 243.573 36.0328 245.761C40.3926 249.392 44.3612 254.772 51.3305 250.457C52.2703 249.875 53.8529 250.322 55.138 250.309C58.9892 250.269 62.8405 250.237 66.9953 250.091C70.8965 248.54 70.7315 251.068 71.2339 253.412C71.8115 256.107 72.986 258.669 73.7919 261.322C73.9656 261.894 73.6725 262.608 73.4962 263.31C73.4462 263.313 73.4944 263.262 73.8996 263.244C75.7725 263.564 77.2814 264.048 78.8058 264.103C87.06 264.4 86.9407 264.682 90.0714 272.315C91.7071 276.302 94.8457 279.674 97.4322 283.424C97.6899 283.516 97.8209 283.508 97.952 283.499C97.888 283.288 97.824 283.076 97.7322 282.525C94.8758 274.182 100.333 267.66 103.299 261.719C105.87 256.57 106.737 251.494 108.027 246.305C108.205 245.593 106.486 243.616 105.576 243.569C102.36 243.404 99.1128 243.822 97.0828 243.946C94.9353 242.494 93.7004 241.046 92.2688 240.814C89.0639 240.296 85.6333 239.753 82.5312 240.384C78.8208 241.139 75.2331 242.869 71.834 244.64C69.8513 245.673 68.3411 247.614 66.2942 249.181C64.2342 248.22 62.4984 247.225 59.9741 245.778C59.7117 245.836 58.2716 246.151 56.7277 246.49C56.4467 244.829 56.234 243.573 55.814 241.091C54.5242 243.589 54.0659 245.169 53.0549 246.216C52.2405 247.059 50.6218 247.86 49.5979 247.628C46.5909 246.947 44.668 242.437 45.8548 239.616C48.0022 234.512 54.9519 231.924 58.9948 234.283C58.7174 223.842 60.9668 214.35 68.8323 208.845C68.5083 208.011 67.6695 206.827 67.7322 205.693C67.779 204.844 68.9683 204.042 69.6846 203.252C70.9764 201.826 72.295 200.425 73.9312 198.919C78.7784 197.637 83.4062 196.753 87.7874 195.181C93.2015 193.239 94.2235 191.114 93.5657 185.53C98.8638 188.75 104.162 191.97 109.532 195.611C110.01 197.718 109.918 199.924 110.972 200.937C111.896 201.825 114.106 201.374 115.748 201.515C115.975 201.872 116.201 202.229 116.156 202.926C115.404 204.054 114.612 204.804 114.515 205.636C114.354 207.017 115.036 208.562 114.672 209.842C112.82 216.349 115.198 221.762 118.695 226.957ZM76.8143 215.401C77.2467 216.207 77.5281 217.173 78.1597 217.766C78.6593 218.235 79.6881 218.564 80.2993 218.372C80.9043 218.183 81.5005 217.328 81.7005 216.647C81.9404 215.83 81.7572 214.889 81.7572 213.544C81.0274 213.152 79.4841 212.23 77.8637 211.472C73.7412 209.546 69.3787 211.307 69.8163 213.827C72.1142 214.302 74.1171 214.716 75.6026 215.312C75.0841 215.98 74.5655 216.647 74.0469 217.314C74.3873 217.501 74.7276 217.688 75.068 217.874C75.4525 216.987 75.8371 216.1 76.8143 215.401Z" fill="#4B86E7"/>
<path d="M310.621 194.73C332.281 194.699 353.941 194.584 375.601 194.68C383.321 194.715 387.224 198.519 387.955 206.235C387.4 213.246 389.14 220.232 384.973 226.85C381.319 227.791 378.003 228.749 374.67 228.814C363.318 229.034 351.96 228.94 340.206 228.938C329.767 228.866 319.726 228.82 309.753 228.449C310.358 224.351 311.322 220.582 311.342 216.808C311.382 209.45 310.892 202.09 310.621 194.73ZM320.037 203.249C319.94 202.734 319.843 202.219 319.746 201.705C319.649 201.721 319.552 201.737 319.455 201.753C319.455 208.911 319.455 216.07 319.455 223.229C319.661 223.227 319.867 223.226 320.073 223.224C320.073 216.782 320.073 210.339 320.037 203.249ZM373.788 219.142C373.788 213.38 373.788 207.619 373.788 201.857C373.384 201.863 372.981 201.869 372.577 201.875C372.577 208.759 372.577 215.642 372.577 222.525C372.705 222.541 372.834 222.558 372.962 222.574C373.166 221.65 373.371 220.726 373.788 219.142Z" fill="#FFA3A3"/>
<path d="M16.7972 164.66C27.2177 160.476 37.3972 156.423 47.6799 152.652C50.5489 151.6 53.7469 150.764 56.7532 150.881C73.1331 151.516 89.503 152.434 105.866 153.423C107.107 153.498 108.268 154.88 109.466 155.655C108.586 156.779 107.94 158.368 106.787 158.946C101.691 161.497 96.4505 163.757 90.6574 166.254C82.1083 169.963 74.0904 173.388 66.2449 177.171C60.5699 179.907 55.024 181.178 48.5387 180.256C39.5358 178.975 30.3589 178.919 20.9013 178.307C18.7224 177.966 16.8987 177.656 15.2793 177.106C28.458 172.514 41.4403 168.185 54.3953 163.775C55.8014 163.297 57.0494 162.353 58.3707 161.626C58.2161 161.187 58.0616 160.747 57.907 160.308C56.4724 160.442 54.9444 160.302 53.6177 160.753C40.3891 165.252 27.1787 169.807 14.0095 174.477C12.5167 175.006 11.3086 176.339 9.96846 177.299C7.71922 177.025 5.3918 177.015 3.25002 176.379C1.96352 175.997 0.529938 174.825 0.0265712 173.641C-0.2195 173.062 1.29666 171.173 2.37879 170.687C7.0442 168.594 11.8442 166.801 16.7972 164.66Z" fill="#788F9B"/>
<path d="M393.734 266.753C393.203 269.621 392.894 272.553 392.094 275.345C390.533 280.801 392.275 285.791 393.387 291.2C372.916 291.565 352.883 291.536 332.85 291.638C330.14 291.651 328.851 291.049 328.281 288.08C327.102 281.942 327.063 275.956 328.354 269.835C328.889 267.299 329.94 266.632 332.348 266.643C352.81 266.736 373.272 266.73 393.734 266.753Z" fill="white"/>
<path d="M409.175 233.273C406.513 241.302 405.475 249.33 408.795 257.701C388.227 258.064 368.062 258.038 347.897 258.145C345.31 258.159 343.548 257.415 343.477 254.79C343.313 248.717 343.3 242.632 343.462 236.559C343.53 234.014 345.174 233.113 347.824 233.13C368.274 233.258 388.725 233.243 409.175 233.273ZM356.957 255.204C360.228 252.408 363.59 251.978 367.039 255.687C367.039 251.477 367.039 248.146 367.039 244.841C363.224 244.841 359.768 244.841 356.3 244.841C356.3 248.482 356.3 251.743 356.957 255.204Z" fill="#FFFEFE"/>
<path d="M277.509 301.913C277.099 300.176 277.089 298.43 277.482 296.292C293.643 295.855 309.401 295.81 325.56 295.817C347.306 295.873 368.651 295.857 389.996 295.909C392.502 295.915 394.622 295.772 394.554 292.504C397.639 293.338 400.723 294.172 403.808 295.005C403.827 295.653 403.846 296.301 403.865 296.949C399.579 297.738 395.32 299.002 391.004 299.236C371.68 300.287 352.344 301.127 333.006 301.878C321.472 302.327 309.928 302.627 298.387 302.694C291.563 302.733 284.735 302.187 277.509 301.913Z" fill="#434343"/>
<path d="M409.238 232.906C388.725 233.243 368.274 233.258 347.824 233.13C345.174 233.113 343.53 234.014 343.462 236.559C343.3 242.632 343.313 248.716 343.477 254.79C343.548 257.415 345.31 258.159 347.897 258.145C368.062 258.038 388.227 258.064 408.784 258.027C409.963 261.509 408.381 262.615 405.04 262.43C401.627 262.242 398.196 262.398 393.97 262.411C375.641 262.382 358.113 262.344 340.597 261.952C340.045 255.23 339.128 248.866 339.041 242.492C338.979 237.991 340.043 233.475 340.604 228.965C351.96 228.94 363.318 229.034 374.67 228.814C378.003 228.749 381.318 227.791 384.971 227.174C388.064 227.422 390.82 227.899 393.591 228.013C397.426 228.17 401.281 228.219 405.11 228.003C408.581 227.807 409.809 229.264 409.238 232.906Z" fill="#E6D8AF"/>
<path d="M340.586 262.306C358.113 262.344 375.641 262.382 393.576 262.44C393.986 263.712 393.988 264.964 393.862 266.485C373.272 266.73 352.81 266.736 332.348 266.643C329.94 266.632 328.889 267.299 328.354 269.836C327.063 275.956 327.102 281.942 328.28 288.081C328.85 291.049 330.14 291.652 332.85 291.638C352.883 291.536 372.916 291.566 393.342 291.535C393.877 291.775 394.019 292.035 394.358 292.399C394.623 295.773 392.502 295.915 389.996 295.909C368.651 295.858 347.306 295.873 325.568 295.45C324.891 287.005 324.504 278.981 324.377 270.954C324.333 268.143 324.931 265.321 325.633 262.472C330.882 262.395 335.734 262.351 340.586 262.306Z" fill="#E6B08D"/>
<path d="M45.813 292.414C51.3435 293.831 56.4627 295.571 61.7155 296.673C73.5606 299.16 84.9111 296.85 96.2696 292.406C100.921 293.115 105.301 293.692 109.577 294.706C111.038 295.053 112.238 296.497 113.558 297.44C112.339 298.452 111.257 300.054 109.878 300.373C104.356 301.653 98.7818 303 93.1553 303.476C75.5199 304.969 57.8891 304.8 40.3755 301.851C38.2834 301.499 36.2088 300.828 34.2459 300.016C33.3048 299.627 31.8948 298.395 32.0183 297.837C32.245 296.815 33.2969 295.503 34.2763 295.205C37.9455 294.09 41.7246 293.336 45.813 292.414Z" fill="#434343"/>
<path d="M119.657 311.332C123.843 315.983 128.908 316.607 134.621 316.586C177.037 316.427 219.454 316.416 261.869 316.607C267.11 316.631 271.351 315.478 275.085 311.483C277.775 311.863 280.217 312.384 282.658 312.905C282.726 313.372 282.793 313.838 282.86 314.305C281.17 315.029 279.531 316.203 277.782 316.399C268.607 317.427 259.419 318.655 250.206 318.985C226.836 319.822 203.436 320.971 180.073 320.565C159.058 320.2 138.073 317.967 117.083 316.452C115.233 316.319 113.441 315.403 111.621 314.85C111.591 314.298 111.561 313.745 111.531 313.192C114.12 312.576 116.709 311.96 119.657 311.332Z" fill="#434343"/>
<path d="M9.98369 177.706C11.3088 176.339 12.5169 175.006 14.0097 174.477C27.1789 169.807 40.3893 165.252 53.6179 160.753C54.9447 160.302 56.4726 160.442 57.9072 160.308C58.0618 160.747 58.2164 161.187 58.3709 161.626C57.0496 162.354 55.8016 163.297 54.3956 163.775C41.4406 168.185 28.4582 172.514 14.9656 177.222C14.1291 178.177 13.5377 178.776 13.5336 179.378C13.4725 188.527 13.459 197.677 13.5322 206.825C13.5394 207.726 14.0997 208.671 14.5584 209.51C15.7419 211.676 17.0124 213.795 18.2482 215.933C20.7139 221.115 18.3855 225.494 15.9294 229.859C15.1003 231.333 14.3182 232.833 13.4341 234.62C8.61411 232.104 3.93361 222.341 6.2526 218.019C10.5484 210.011 10.0461 201.578 10.0189 193.081C10.0029 188.092 10.0048 183.103 9.98369 177.706Z" fill="#394951"/>
<path d="M21.2568 178.338C30.3593 178.919 39.5362 178.975 48.5391 180.256C55.0243 181.178 60.5703 179.907 66.2453 177.171C74.0908 173.388 82.1087 169.963 90.348 166.325C91.5537 172.42 92.4642 178.575 93.47 185.13C94.2232 191.114 93.2012 193.24 87.7871 195.181C83.4059 196.753 78.7781 197.637 73.5811 198.912C67.2576 200.089 61.6127 201.18 55.5622 202.239C51.8844 202.758 48.6121 203.309 44.9493 203.851C38.788 204.026 32.9367 206.048 27.1922 202.921C26.8837 202.539 26.6454 202.475 26.2479 202.249C25.6198 200.179 24.9671 198.456 24.6224 196.674C23.4422 190.573 22.3701 184.452 21.2568 178.338Z" fill="#384850"/>
<path d="M118.78 226.579C115.197 221.762 112.82 216.349 114.672 209.842C115.036 208.562 114.354 207.016 114.514 205.636C114.611 204.804 115.404 204.054 116.191 203.242C116.711 203.433 116.923 203.648 117.31 204.007C117.97 205.715 118.832 207.269 118.872 208.843C119.018 214.625 118.891 220.414 118.78 226.579Z" fill="#9BCFA4"/>
<path d="M115.66 201.288C114.106 201.374 111.896 201.825 110.971 200.937C109.918 199.924 110.01 197.718 109.792 195.783C111.844 197.377 113.708 199.219 115.66 201.288Z" fill="#99D0B3"/>
<path d="M129.482 256.375C129.482 215.152 129.481 174.359 129.483 133.565C129.484 124.039 132.818 120.729 142.409 120.728C179.332 120.726 216.255 120.725 253.178 120.729C262.528 120.73 265.918 124.082 265.918 133.31C265.92 181.833 265.921 230.356 265.918 278.879C265.917 287.835 262.468 291.299 253.448 291.302C216.238 291.316 179.029 291.316 141.82 291.302C133.12 291.298 129.497 287.694 129.484 279.134C129.474 271.691 129.482 264.248 129.482 256.375ZM167.302 195.19C159.315 211.296 164.488 229.701 179.988 239.272C192.259 246.849 204.7 246.586 216.621 238.501C228.675 230.326 233.791 218.556 231.212 204.357C228.705 190.551 219.915 181.399 206.43 177.511C191.881 173.316 175.694 179.742 167.302 195.19Z" fill="#FEFEFE"/>
<path d="M340.597 261.952C335.734 262.351 330.882 262.395 325.226 262.435C308.594 262.386 292.767 262.342 276.94 262.299C276.849 251.465 276.758 240.632 277.122 229.373C288.28 228.891 298.983 228.832 309.685 228.774C319.726 228.82 329.766 228.866 340.206 228.938C340.043 233.475 338.979 237.991 339.041 242.492C339.128 248.866 340.046 255.23 340.597 261.952ZM331.196 237.826C331.148 237.275 331.099 236.724 331.05 236.174C330.771 236.178 330.493 236.182 330.214 236.186C330.214 242.755 330.214 249.323 330.214 255.892C330.542 255.892 330.87 255.893 331.198 255.894C331.198 250.101 331.198 244.308 331.196 237.826Z" fill="#FFF0C2"/>
<path d="M276.811 262.687C292.767 262.342 308.594 262.386 324.829 262.467C324.931 265.321 324.333 268.142 324.378 270.953C324.504 278.981 324.891 287.005 325.168 295.397C309.401 295.81 293.643 295.855 277.482 295.919C276.947 284.984 276.814 274.03 276.811 262.687ZM316.59 287.962C316.59 281.321 316.59 274.679 316.59 268.038C314.686 275.494 314.037 282.923 316.48 290.312C316.516 289.752 316.552 289.192 316.59 287.962Z" fill="#FBC19A"/>
<path d="M276.831 224.447C276.771 216.499 276.711 208.55 277.079 200.144C285.921 199.655 294.338 199.704 302.751 199.543C305.329 199.493 307.055 200.248 307.084 202.91C307.154 209.264 307.153 215.628 306.79 221.965C306.736 222.902 304.569 224.447 303.355 224.47C294.517 224.641 285.673 224.494 276.831 224.447Z" fill="white"/>
<path d="M276.742 224.823C285.673 224.494 294.517 224.641 303.355 224.47C304.569 224.447 306.736 222.902 306.79 221.965C307.153 215.628 307.154 209.264 307.084 202.91C307.055 200.248 305.328 199.493 302.751 199.542C294.338 199.704 285.921 199.654 277.147 199.756C276.818 198.341 276.847 196.857 277.005 195.088C280.523 194.72 283.913 194.637 287.674 194.493C295.303 194.494 302.56 194.558 310.219 194.676C310.892 202.09 311.381 209.45 311.342 216.808C311.322 220.582 310.358 224.351 309.753 228.448C298.983 228.832 288.281 228.89 277.221 228.993C276.794 227.757 276.723 226.477 276.742 224.823Z" fill="#DE9796"/>
<path d="M198 312.194C191.962 311.437 188.883 307.879 189.539 302.821C190.122 298.323 194.608 295.154 199.241 295.966C203.534 296.719 206.613 301.103 205.705 305.551C204.907 309.458 202.392 311.744 198 312.194Z" fill="#181818"/>
<path d="M201.497 105.201C204.346 105.205 206.813 104.945 209.178 105.322C210.397 105.517 211.436 106.845 212.556 107.662C211.514 108.555 210.493 110.192 209.426 110.222C201.589 110.443 193.739 110.443 185.901 110.224C184.829 110.194 183.802 108.567 182.754 107.679C183.869 106.857 184.949 105.388 186.104 105.326C191.081 105.059 196.081 105.205 201.497 105.201Z" fill="#181818"/>
<path d="M55.9676 202.272C61.6125 201.18 67.2574 200.089 73.252 199.005C72.2944 200.425 70.9759 201.826 69.684 203.252C68.9678 204.042 67.7785 204.844 67.7316 205.693C67.669 206.827 68.5078 208.011 68.8318 208.845C60.9662 214.35 58.7169 223.842 58.9943 234.283C54.9514 231.924 48.0016 234.512 45.8543 239.616C44.6675 242.437 46.5903 246.947 49.5974 247.628C50.6212 247.86 52.24 247.059 53.0544 246.216C54.0653 245.169 54.5237 243.589 55.8134 241.091C56.2335 243.573 56.4462 244.829 56.7272 246.49C58.2711 246.151 59.7112 245.836 59.9735 245.778C62.4979 247.225 64.2337 248.22 66.3134 249.446C66.6686 249.852 66.68 250.027 66.6913 250.202C62.84 250.237 58.9887 250.269 55.1374 250.309C53.8523 250.322 52.2698 249.875 51.33 250.457C44.3607 254.772 40.3921 249.392 36.0323 245.761C33.4046 243.573 28.8493 244.441 27.5978 240.182C27.0092 238.179 25.6574 236.3 25.4854 234.293C24.7831 226.097 24.3644 217.875 23.9504 209.657C23.8961 208.58 24.4733 207.471 24.6823 206.039C24.6065 205.701 24.62 205.737 24.9048 205.653C25.2984 205.039 25.4073 204.51 25.4928 203.979C25.4694 203.978 25.4807 204.023 25.7593 204.112C26.4601 203.827 26.8824 203.454 27.3046 203.081C32.9364 206.048 38.7878 204.026 45.231 204.018C48.8189 204.993 51.7342 205.791 54.6833 206.73C54.8143 206.909 54.9115 206.947 55.0086 206.986C54.9048 206.837 54.801 206.689 54.7203 206.222C55.1515 204.692 55.5595 203.482 55.9676 202.272Z" fill="#A6DDA9"/>
<path d="M66.9949 250.091C66.6801 250.027 66.6688 249.852 66.6377 249.411C68.3407 247.614 69.8509 245.673 71.8336 244.64C75.2327 242.869 78.8204 241.139 82.5307 240.384C85.6329 239.753 89.0635 240.296 92.2684 240.814C93.7 241.046 94.9348 242.494 97.0824 243.946C99.1124 243.822 102.359 243.404 105.576 243.569C106.486 243.616 108.204 245.593 108.027 246.305C106.737 251.494 105.869 256.57 103.299 261.719C100.333 267.66 94.8753 274.182 97.6169 282.638C97.5299 283.092 97.3051 283.323 97.3051 283.323C94.8453 279.674 91.7067 276.302 90.071 272.315C86.9403 264.682 87.0596 264.4 78.8054 264.103C77.281 264.048 75.7721 263.564 73.9105 263.258C73.5649 263.237 73.594 263.256 73.594 263.256C73.6721 262.608 73.9652 261.894 73.7914 261.322C72.9856 258.669 71.811 256.107 71.2335 253.412C70.7311 251.068 70.8961 248.54 66.9949 250.091Z" fill="#A6DDAA"/>
<path d="M76.1197 215.131C74.1168 214.716 72.1139 214.302 69.8161 213.827C69.3785 211.307 73.7409 209.546 77.8634 211.472C79.4838 212.23 81.0272 213.152 81.7569 213.544C81.7569 214.889 81.9402 215.83 81.7002 216.647C81.5002 217.328 80.9041 218.183 80.2991 218.372C79.6879 218.564 78.659 218.236 78.1594 217.766C77.5278 217.173 77.2465 216.207 76.4922 215.287C76.1703 215.172 76.1197 215.131 76.1197 215.131Z" fill="#99D1B2"/>
<path d="M76.1956 215.193C75.8365 216.1 75.452 216.987 75.0674 217.875C74.7271 217.688 74.3867 217.501 74.0464 217.314C74.565 216.647 75.0835 215.98 75.8608 215.222C76.1195 215.131 76.17 215.172 76.1956 215.193Z" fill="#99D1B2"/>
<path d="M73.5537 263.224C73.4941 263.262 73.4459 263.313 73.4959 263.31C73.5941 263.256 73.5651 263.237 73.5537 263.224Z" fill="#A6DDAA"/>
<path d="M97.6445 282.978C97.8234 283.076 97.8874 283.288 97.9514 283.499C97.8203 283.508 97.6893 283.516 97.4316 283.424C97.305 283.323 97.5297 283.092 97.6445 282.978Z" fill="#A6DDAA"/>
<path d="M320.055 203.573C320.073 210.339 320.073 216.782 320.073 223.224C319.867 223.226 319.661 223.227 319.456 223.229C319.456 216.07 319.456 208.911 319.456 201.753C319.552 201.737 319.649 201.721 319.746 201.705C319.843 202.219 319.94 202.734 320.055 203.573Z" fill="#E79494"/>
<path d="M373.681 219.472C373.37 220.726 373.166 221.65 372.962 222.574C372.833 222.558 372.705 222.541 372.576 222.525C372.576 215.641 372.576 208.758 372.576 201.875C372.98 201.869 373.384 201.863 373.788 201.857C373.788 207.619 373.788 213.38 373.681 219.472Z" fill="#E89494"/>
<path d="M356.628 255.104C356.3 251.743 356.3 248.482 356.3 244.841C359.768 244.841 363.224 244.841 367.04 244.841C367.04 248.146 367.04 251.476 367.04 255.687C363.59 251.978 360.228 252.408 356.628 255.104Z" fill="#FF7878"/>
<path d="M54.6497 206.589C51.7345 205.791 48.8193 204.993 45.6221 204.028C48.6123 203.309 51.8845 202.758 55.5623 202.239C55.5599 203.482 55.1519 204.692 54.7081 206.233C54.6723 206.564 54.6497 206.589 54.6497 206.589Z" fill="#528AD7"/>
<path d="M25.7592 204.112C25.7028 203.663 25.9249 203.302 26.2556 202.755C26.645 202.475 26.8834 202.539 27.1918 202.921C26.8823 203.454 26.4601 203.827 25.7592 204.112Z" fill="#4B86E7"/>
<path d="M167.464 194.914C175.695 179.742 191.881 173.316 206.431 177.511C219.915 181.399 228.706 190.551 231.213 204.357C233.791 218.556 228.675 230.326 216.622 238.501C204.701 246.586 192.259 246.849 179.989 239.272C164.488 229.701 159.315 211.296 167.464 194.914ZM189.53 222.74C190.409 223.209 191.689 224.315 192.107 224.052C198.824 219.822 205.432 215.418 212.801 210.568C205.014 204.964 197.812 200.314 189.501 195.125C189.501 205.187 189.501 213.589 189.53 222.74Z" fill="#FF7373"/>
<path d="M331.198 238.17C331.199 244.308 331.199 250.101 331.199 255.894C330.871 255.893 330.542 255.892 330.214 255.891C330.214 249.323 330.214 242.755 330.214 236.186C330.493 236.182 330.772 236.178 331.051 236.173C331.099 236.724 331.148 237.275 331.198 238.17Z" fill="#E8DBB1"/>
<path d="M316.589 288.297C316.552 289.192 316.516 289.752 316.48 290.312C314.037 282.923 314.686 275.494 316.59 268.038C316.59 274.679 316.59 281.321 316.589 288.297Z" fill="#E9B28D"/>
<path d="M24.905 205.653C24.754 205.225 24.8878 204.713 25.2689 204.091C25.4075 204.51 25.2986 205.039 24.905 205.653Z" fill="#4B86E7"/>
<path d="M54.6846 206.552C54.8011 206.689 54.9049 206.838 55.0087 206.986C54.9116 206.947 54.8144 206.909 54.6834 206.73C54.6495 206.589 54.672 206.564 54.6846 206.552Z" fill="#528AD7"/>
<path d="M189.515 222.365C189.5 213.589 189.5 205.187 189.5 195.125C197.811 200.314 205.013 204.964 212.8 210.568C205.431 215.418 198.823 219.822 192.106 224.052C191.688 224.315 190.408 223.209 189.515 222.365Z" fill="#FFFDFD"/>
</svg>
