<svg width="410" height="217" viewBox="0 0 410 217" fill="none" xmlns="http://www.w3.org/2000/svg">
<path d="M118.205 57.6921C118.256 43.4231 118.309 29.1541 118.354 14.885C118.387 4.72735 122.733 0.361616 132.815 0.350479C140.806 0.341656 148.797 0.313378 157.587 0.288818C193.27 0.306809 228.155 0.330477 263.04 0.35214C272.452 0.357986 276.99 4.97787 277.022 14.5796C277.066 27.8754 277.12 41.1712 277.102 54.8644C277.067 67.109 277.1 78.9561 277.004 91.0878C276.846 92.8568 276.818 94.3412 276.72 96.2133C276.711 104.55 276.771 112.499 276.741 120.823C276.723 122.478 276.793 123.757 276.765 125.418C276.757 136.632 276.848 147.465 276.81 158.687C276.814 170.03 276.946 180.984 277.08 192.311C277.089 194.43 277.099 196.176 277.108 197.922C276.598 200.86 276.087 203.797 275.206 207.18C271.351 211.478 267.109 212.631 261.869 212.607C219.453 212.416 177.036 212.427 134.621 212.586C128.908 212.607 123.843 211.983 120.016 207.32C119.417 200.839 118.636 194.369 118.274 187.875C117.981 182.606 118.19 177.309 118.193 171.261C118.438 169.24 118.864 167.982 118.862 166.725C118.844 152.136 118.76 137.546 118.78 122.579C118.89 116.414 119.018 110.625 118.872 104.843C118.832 103.269 117.97 101.715 117.485 100.151C117.773 95.5289 118.061 90.9065 118.368 85.4886C118.327 75.6927 118.266 66.6924 118.205 57.6921ZM129.482 152.805C129.482 160.248 129.474 167.691 129.484 175.134C129.496 183.694 133.12 187.298 141.819 187.302C179.029 187.316 216.238 187.316 253.448 187.302C262.467 187.298 265.917 183.835 265.918 174.878C265.921 126.356 265.92 77.8328 265.918 29.3099C265.918 20.0818 262.528 16.7301 253.178 16.7291C216.255 16.7253 179.332 16.7263 142.409 16.7284C132.818 16.729 129.484 20.0386 129.483 29.5651C129.48 70.3586 129.482 111.152 129.482 152.805ZM198.345 208.19C202.392 207.744 204.906 205.458 205.705 201.551C206.613 197.103 203.534 192.719 199.24 191.966C194.608 191.154 190.122 194.323 189.539 198.82C188.883 203.879 191.962 207.437 198.345 208.19ZM201.072 1.20105C196.081 1.20521 191.081 1.05906 186.103 1.32573C184.948 1.38762 183.868 2.85708 182.754 3.67886C183.802 4.56668 184.829 6.19414 185.901 6.22409C193.738 6.44316 201.588 6.44299 209.426 6.22248C210.492 6.19247 211.514 4.55489 212.556 3.66164C211.436 2.84552 210.397 1.51711 209.177 1.32247C206.812 0.945022 204.346 1.2051 201.072 1.20105Z" fill="#2F2F2F"/>
<path d="M118.695 122.957C118.761 137.546 118.844 152.136 118.863 166.725C118.865 167.982 118.439 169.24 118.166 170.855C111.547 177.381 105.632 184.383 96.4634 188.174C84.9119 192.85 73.5614 195.16 61.7163 192.673C56.4635 191.571 51.3443 189.831 46.1645 188.381C37.6319 183.011 29.4507 177.307 23.7116 168.68C16.235 157.44 12.7216 145.188 13.4718 131.018C14.3186 128.832 15.1008 127.333 15.9298 125.859C18.3859 121.494 20.7143 117.115 18.3944 111.652C20.5745 108.145 22.6088 104.92 24.7009 102.035C24.4739 103.471 23.8966 104.58 23.9509 105.657C24.365 113.875 24.7836 122.097 25.486 130.293C25.6579 132.3 27.0098 134.179 27.5983 136.182C28.8498 140.441 33.4051 139.573 36.0328 141.761C40.3926 145.392 44.3612 150.772 51.3305 146.457C52.2703 145.875 53.8529 146.322 55.138 146.309C58.9892 146.269 62.8405 146.237 66.9953 146.091C70.8965 144.54 70.7315 147.068 71.2339 149.412C71.8115 152.107 72.986 154.669 73.7919 157.322C73.9656 157.894 73.6725 158.608 73.4962 159.31C73.4462 159.313 73.4944 159.262 73.8996 159.244C75.7725 159.564 77.2814 160.048 78.8058 160.103C87.06 160.4 86.9407 160.682 90.0714 168.315C91.7071 172.302 94.8457 175.674 97.4322 179.424C97.6899 179.516 97.8209 179.508 97.952 179.499C97.888 179.288 97.824 179.076 97.7322 178.525C94.8758 170.182 100.333 163.66 103.299 157.719C105.87 152.57 106.737 147.494 108.027 142.305C108.205 141.593 106.486 139.616 105.576 139.569C102.36 139.404 99.1128 139.822 97.0828 139.946C94.9353 138.494 93.7004 137.046 92.2688 136.814C89.0639 136.296 85.6333 135.753 82.5312 136.384C78.8208 137.139 75.2331 138.869 71.834 140.64C69.8513 141.673 68.3411 143.614 66.2942 145.181C64.2342 144.22 62.4984 143.225 59.9741 141.778C59.7117 141.836 58.2716 142.151 56.7277 142.49C56.4467 140.829 56.234 139.573 55.814 137.091C54.5242 139.589 54.0659 141.169 53.0549 142.216C52.2405 143.059 50.6218 143.86 49.5979 143.628C46.5909 142.947 44.668 138.437 45.8548 135.616C48.0022 130.512 54.9519 127.924 58.9948 130.283C58.7174 119.842 60.9668 110.35 68.8323 104.845C68.5083 104.011 67.6695 102.827 67.7322 101.693C67.779 100.844 68.9683 100.042 69.6846 99.2517C70.9764 97.826 72.295 96.4245 73.9312 94.9192C78.7784 93.6365 83.4062 92.7527 87.7874 91.1813C93.2015 89.2394 94.2235 87.1139 93.5657 81.53C98.8638 84.7502 104.162 87.9703 109.532 91.6107C110.01 93.7183 109.918 95.924 110.972 96.9367C111.896 97.8248 114.106 97.3742 115.748 97.5149C115.975 97.8719 116.201 98.2288 116.156 98.9263C115.404 100.054 114.612 100.804 114.515 101.636C114.354 103.017 115.036 104.562 114.672 105.842C112.82 112.349 115.198 117.762 118.695 122.957ZM76.8143 111.401C77.2467 112.207 77.5281 113.173 78.1597 113.766C78.6593 114.235 79.6881 114.564 80.2993 114.372C80.9043 114.183 81.5005 113.328 81.7005 112.647C81.9404 111.83 81.7572 110.889 81.7572 109.544C81.0274 109.152 79.4841 108.23 77.8637 107.472C73.7412 105.546 69.3787 107.307 69.8163 109.827C72.1142 110.302 74.1171 110.716 75.6026 111.312C75.0841 111.98 74.5655 112.647 74.0469 113.314C74.3873 113.501 74.7276 113.688 75.068 113.874C75.4525 112.987 75.8371 112.1 76.8143 111.401Z" fill="#4B86E7"/>
<path d="M310.621 90.7304C332.281 90.6988 353.941 90.584 375.601 90.6803C383.321 90.7146 387.224 94.5194 387.955 102.235C387.4 109.246 389.14 116.232 384.973 122.85C381.319 123.791 378.003 124.749 374.67 124.814C363.318 125.034 351.96 124.94 340.206 124.938C329.767 124.866 319.726 124.82 309.753 124.449C310.358 120.351 311.322 116.582 311.342 112.808C311.382 105.45 310.892 98.0897 310.621 90.7304ZM320.037 99.2487C319.94 98.734 319.843 98.2193 319.746 97.7047C319.649 97.7206 319.552 97.7366 319.455 97.7526C319.455 104.911 319.455 112.07 319.455 119.229C319.661 119.227 319.867 119.226 320.073 119.224C320.073 112.782 320.073 106.339 320.037 99.2487ZM373.788 115.142C373.788 109.38 373.788 103.619 373.788 97.8571C373.384 97.8632 372.981 97.8693 372.577 97.8754C372.577 104.759 372.577 111.642 372.577 118.525C372.705 118.541 372.834 118.558 372.962 118.574C373.166 117.65 373.371 116.726 373.788 115.142Z" fill="#FFA3A3"/>
<path d="M16.7972 60.6602C27.2177 56.4758 37.3972 52.4229 47.6799 48.6517C50.5489 47.5995 53.7469 46.7639 56.7532 46.8805C73.1331 47.5161 89.503 48.4341 105.866 49.4232C107.107 49.4982 108.268 50.8803 109.466 51.6549C108.586 52.7786 107.94 54.3683 106.787 54.9458C101.691 57.4972 96.4505 59.7572 90.6574 62.2539C82.1083 65.9633 74.0904 69.3884 66.2449 73.1711C60.5699 75.9074 55.024 77.1782 48.5387 76.2558C39.5358 74.9753 30.3589 74.9188 20.9013 74.3067C18.7224 73.9656 16.8987 73.6559 15.2793 73.1065C28.458 68.5142 41.4403 64.1849 54.3953 59.7753C55.8014 59.2967 57.0494 58.3535 58.3707 57.6258C58.2161 57.1866 58.0616 56.7475 57.907 56.3083C56.4724 56.4424 54.9444 56.3018 53.6177 56.753C40.3891 61.2523 27.1787 65.807 14.0095 70.4769C12.5167 71.0063 11.3086 72.339 9.96846 73.2991C7.71922 73.0253 5.3918 73.0148 3.25002 72.3789C1.96352 71.9969 0.529938 70.825 0.0265712 69.6407C-0.2195 69.0618 1.29666 67.1726 2.37879 66.6871C7.0442 64.5938 11.8442 62.8007 16.7972 60.6602Z" fill="#788F9B"/>
<path d="M393.734 162.753C393.203 165.621 392.894 168.553 392.094 171.345C390.533 176.801 392.275 181.791 393.387 187.2C372.916 187.565 352.883 187.536 332.85 187.638C330.14 187.651 328.851 187.049 328.281 184.08C327.102 177.942 327.063 171.956 328.354 165.835C328.889 163.299 329.94 162.632 332.348 162.643C352.81 162.736 373.272 162.73 393.734 162.753Z" fill="white"/>
<path d="M409.175 129.273C406.513 137.302 405.475 145.33 408.795 153.701C388.227 154.064 368.062 154.038 347.897 154.145C345.31 154.159 343.548 153.415 343.477 150.79C343.313 144.717 343.3 138.632 343.462 132.559C343.53 130.014 345.174 129.113 347.824 129.13C368.274 129.258 388.725 129.243 409.175 129.273ZM356.957 151.204C360.228 148.408 363.59 147.978 367.039 151.687C367.039 147.477 367.039 144.146 367.039 140.841C363.224 140.841 359.768 140.841 356.3 140.841C356.3 144.482 356.3 147.743 356.957 151.204Z" fill="#FFFEFE"/>
<path d="M277.509 197.913C277.099 196.176 277.089 194.43 277.482 192.292C293.643 191.855 309.401 191.81 325.56 191.817C347.306 191.873 368.651 191.857 389.996 191.909C392.502 191.915 394.622 191.772 394.554 188.504C397.639 189.338 400.723 190.172 403.808 191.005C403.827 191.653 403.846 192.301 403.865 192.949C399.579 193.738 395.32 195.002 391.004 195.236C371.68 196.287 352.344 197.127 333.006 197.878C321.472 198.327 309.928 198.627 298.387 198.694C291.563 198.733 284.735 198.187 277.509 197.913Z" fill="#434343"/>
<path d="M409.238 128.906C388.725 129.243 368.274 129.258 347.824 129.13C345.174 129.113 343.53 130.014 343.462 132.559C343.3 138.632 343.313 144.716 343.477 150.79C343.548 153.415 345.31 154.159 347.897 154.145C368.062 154.038 388.227 154.064 408.784 154.027C409.963 157.509 408.381 158.615 405.04 158.43C401.627 158.242 398.196 158.398 393.97 158.411C375.641 158.382 358.113 158.344 340.597 157.952C340.045 151.23 339.128 144.866 339.041 138.492C338.979 133.991 340.043 129.475 340.604 124.965C351.96 124.94 363.318 125.034 374.67 124.814C378.003 124.749 381.318 123.791 384.971 123.174C388.064 123.422 390.82 123.899 393.591 124.013C397.426 124.17 401.281 124.219 405.11 124.003C408.581 123.807 409.809 125.264 409.238 128.906Z" fill="#E6D8AF"/>
<path d="M340.586 158.306C358.113 158.344 375.641 158.382 393.576 158.44C393.986 159.712 393.988 160.964 393.862 162.485C373.272 162.73 352.81 162.736 332.348 162.643C329.94 162.632 328.889 163.299 328.354 165.836C327.063 171.956 327.102 177.942 328.28 184.081C328.85 187.049 330.14 187.652 332.85 187.638C352.883 187.536 372.916 187.566 393.342 187.535C393.877 187.775 394.019 188.035 394.358 188.399C394.623 191.773 392.502 191.915 389.996 191.909C368.651 191.858 347.306 191.873 325.568 191.45C324.891 183.005 324.504 174.981 324.377 166.954C324.333 164.143 324.931 161.321 325.633 158.472C330.882 158.395 335.734 158.351 340.586 158.306Z" fill="#E6B08D"/>
<path d="M45.813 188.414C51.3435 189.831 56.4627 191.571 61.7155 192.673C73.5606 195.16 84.9111 192.85 96.2696 188.406C100.921 189.115 105.301 189.692 109.577 190.706C111.038 191.053 112.238 192.497 113.558 193.44C112.339 194.452 111.257 196.054 109.878 196.373C104.356 197.653 98.7818 199 93.1553 199.476C75.5199 200.969 57.8891 200.8 40.3755 197.851C38.2834 197.499 36.2088 196.828 34.2459 196.016C33.3048 195.627 31.8948 194.395 32.0183 193.837C32.245 192.815 33.2969 191.503 34.2763 191.205C37.9455 190.09 41.7246 189.336 45.813 188.414Z" fill="#434343"/>
<path d="M119.657 207.332C123.843 211.983 128.908 212.607 134.621 212.586C177.037 212.427 219.454 212.416 261.869 212.607C267.11 212.631 271.351 211.478 275.085 207.483C277.775 207.863 280.217 208.384 282.658 208.905C282.726 209.372 282.793 209.838 282.86 210.305C281.17 211.029 279.531 212.203 277.782 212.399C268.607 213.427 259.419 214.655 250.206 214.985C226.836 215.822 203.436 216.971 180.073 216.565C159.058 216.2 138.073 213.967 117.083 212.452C115.233 212.319 113.441 211.403 111.621 210.85C111.591 210.298 111.561 209.745 111.531 209.192C114.12 208.576 116.709 207.96 119.657 207.332Z" fill="#434343"/>
<path d="M9.98369 73.7061C11.3088 72.339 12.5169 71.0063 14.0097 70.4769C27.1789 65.807 40.3893 61.2523 53.6179 56.753C54.9447 56.3018 56.4726 56.4424 57.9072 56.3083C58.0618 56.7475 58.2164 57.1866 58.3709 57.6258C57.0496 58.3535 55.8016 59.2967 54.3956 59.7753C41.4406 64.185 28.4582 68.5142 14.9656 73.2218C14.1291 74.1772 13.5377 74.7759 13.5336 75.3784C13.4725 84.5272 13.459 93.6768 13.5322 102.825C13.5394 103.726 14.0997 104.671 14.5584 105.51C15.7419 107.676 17.0124 109.795 18.2482 111.933C20.7139 117.115 18.3855 121.494 15.9294 125.859C15.1003 127.333 14.3182 128.833 13.4341 130.62C8.61411 128.104 3.93361 118.341 6.2526 114.019C10.5484 106.011 10.0461 97.5782 10.0189 89.0814C10.0029 84.092 10.0048 79.1025 9.98369 73.7061Z" fill="#394951"/>
<path d="M21.2568 74.3382C30.3593 74.9187 39.5362 74.9753 48.5391 76.2558C55.0243 77.1782 60.5703 75.9074 66.2453 73.1711C74.0908 69.3884 82.1087 65.9633 90.348 62.325C91.5537 68.42 92.4642 74.5751 93.47 81.1302C94.2232 87.114 93.2012 89.2395 87.7871 91.1814C83.4059 92.7528 78.7781 93.6366 73.5811 94.9117C67.2576 96.0892 61.6127 97.1805 55.5622 98.2387C51.8844 98.7576 48.6121 99.3095 44.9493 99.8509C38.788 100.026 32.9367 102.048 27.1922 98.9214C26.8837 98.5393 26.6454 98.4751 26.2479 98.2491C25.6198 96.1789 24.9671 94.4561 24.6224 92.6738C23.4422 86.5732 22.3701 80.4517 21.2568 74.3382Z" fill="#384850"/>
<path d="M118.78 122.579C115.197 117.762 112.82 112.349 114.672 105.842C115.036 104.562 114.354 103.016 114.514 101.636C114.611 100.804 115.404 100.054 116.191 99.2424C116.711 99.433 116.923 99.648 117.31 100.007C117.97 101.715 118.832 103.269 118.872 104.843C119.018 110.625 118.891 116.414 118.78 122.579Z" fill="#9BCFA4"/>
<path d="M115.66 97.2877C114.106 97.3741 111.896 97.8247 110.971 96.9366C109.918 95.924 110.01 93.7182 109.792 91.7827C111.844 93.3765 113.708 95.2186 115.66 97.2877Z" fill="#99D0B3"/>
<path d="M129.482 152.375C129.482 111.152 129.481 70.3586 129.483 29.5651C129.484 20.0387 132.818 16.729 142.409 16.7285C179.332 16.7263 216.255 16.7254 253.178 16.7291C262.528 16.7301 265.918 20.0819 265.918 29.3099C265.92 77.8328 265.921 126.356 265.918 174.879C265.917 183.835 262.468 187.299 253.448 187.302C216.238 187.316 179.029 187.316 141.82 187.302C133.12 187.298 129.497 183.694 129.484 175.134C129.474 167.691 129.482 160.248 129.482 152.375ZM167.302 91.19C159.315 107.296 164.488 125.701 179.988 135.272C192.259 142.849 204.7 142.586 216.621 134.501C228.675 126.326 233.791 114.556 231.212 100.357C228.705 86.551 219.915 77.399 206.43 73.5112C191.881 69.3163 175.694 75.7422 167.302 91.19Z" fill="#FEFEFE"/>
<path d="M340.597 157.952C335.734 158.351 330.882 158.395 325.226 158.435C308.594 158.386 292.767 158.342 276.94 158.299C276.849 147.465 276.758 136.632 277.122 125.373C288.28 124.891 298.983 124.832 309.685 124.774C319.726 124.82 329.766 124.866 340.206 124.938C340.043 129.475 338.979 133.991 339.041 138.492C339.128 144.866 340.046 151.23 340.597 157.952ZM331.196 133.826C331.148 133.275 331.099 132.724 331.05 132.174C330.771 132.178 330.493 132.182 330.214 132.186C330.214 138.755 330.214 145.323 330.214 151.892C330.542 151.892 330.87 151.893 331.198 151.894C331.198 146.101 331.198 140.308 331.196 133.826Z" fill="#FFF0C2"/>
<path d="M276.811 158.687C292.767 158.342 308.594 158.386 324.829 158.467C324.931 161.321 324.333 164.142 324.378 166.953C324.504 174.981 324.891 183.005 325.168 191.397C309.401 191.81 293.643 191.855 277.482 191.919C276.947 180.984 276.814 170.03 276.811 158.687ZM316.59 183.962C316.59 177.321 316.59 170.679 316.59 164.038C314.686 171.494 314.037 178.923 316.48 186.312C316.516 185.752 316.552 185.192 316.59 183.962Z" fill="#FBC19A"/>
<path d="M276.831 120.447C276.771 112.499 276.711 104.55 277.079 96.1436C285.921 95.6545 294.338 95.7036 302.751 95.5425C305.329 95.4932 307.055 96.2478 307.084 98.9104C307.154 105.264 307.153 111.628 306.79 117.965C306.736 118.902 304.569 120.447 303.355 120.47C294.517 120.641 285.673 120.494 276.831 120.447Z" fill="white"/>
<path d="M276.742 120.823C285.673 120.494 294.517 120.641 303.355 120.47C304.569 120.447 306.736 118.902 306.79 117.965C307.153 111.628 307.154 105.264 307.084 98.9102C307.055 96.2476 305.328 95.493 302.751 95.5424C294.338 95.7035 285.921 95.6544 277.147 95.7559C276.818 94.3412 276.847 92.8567 277.005 91.0877C280.523 90.7202 283.913 90.6373 287.674 90.4927C295.303 90.4945 302.56 90.5579 310.219 90.6759C310.892 98.0896 311.381 105.45 311.342 112.808C311.322 116.582 310.358 120.351 309.753 124.448C298.983 124.832 288.281 124.89 277.221 124.993C276.794 123.757 276.723 122.477 276.742 120.823Z" fill="#DE9796"/>
<path d="M198 208.194C191.962 207.437 188.883 203.879 189.539 198.821C190.122 194.323 194.608 191.154 199.241 191.966C203.534 192.719 206.613 197.103 205.705 201.551C204.907 205.458 202.392 207.744 198 208.194Z" fill="#181818"/>
<path d="M201.497 1.20101C204.346 1.20507 206.813 0.944994 209.178 1.32244C210.397 1.51708 211.436 2.84549 212.556 3.66161C211.514 4.55487 210.493 6.19244 209.426 6.22245C201.589 6.44297 193.739 6.44313 185.901 6.22406C184.829 6.19411 183.802 4.56665 182.754 3.67883C183.869 2.85705 184.949 1.38759 186.104 1.3257C191.081 1.05903 196.081 1.20518 201.497 1.20101Z" fill="#181818"/>
<path d="M55.9676 98.2716C61.6125 97.1803 67.2574 96.0891 73.252 95.0054C72.2944 96.4245 70.9759 97.826 69.684 99.2517C68.9678 100.042 67.7785 100.844 67.7316 101.693C67.669 102.827 68.5078 104.011 68.8318 104.845C60.9662 110.35 58.7169 119.842 58.9943 130.283C54.9514 127.924 48.0016 130.512 45.8543 135.616C44.6675 138.437 46.5903 142.947 49.5974 143.628C50.6212 143.86 52.24 143.059 53.0544 142.216C54.0653 141.169 54.5237 139.589 55.8134 137.091C56.2335 139.573 56.4462 140.829 56.7272 142.49C58.2711 142.151 59.7112 141.836 59.9735 141.778C62.4979 143.225 64.2337 144.22 66.3134 145.446C66.6686 145.852 66.68 146.027 66.6913 146.202C62.84 146.237 58.9887 146.269 55.1374 146.309C53.8523 146.322 52.2698 145.875 51.33 146.457C44.3607 150.772 40.3921 145.392 36.0323 141.761C33.4046 139.573 28.8493 140.441 27.5978 136.182C27.0092 134.179 25.6574 132.3 25.4854 130.293C24.7831 122.097 24.3644 113.875 23.9504 105.657C23.8961 104.58 24.4733 103.471 24.6823 102.039C24.6065 101.701 24.62 101.737 24.9048 101.653C25.2984 101.039 25.4073 100.51 25.4928 99.9793C25.4694 99.9778 25.4807 100.023 25.7593 100.112C26.4601 99.8269 26.8824 99.4538 27.3046 99.0808C32.9364 102.048 38.7878 100.026 45.231 100.018C48.8189 100.993 51.7342 101.791 54.6833 102.73C54.8143 102.909 54.9115 102.947 55.0086 102.986C54.9048 102.837 54.801 102.689 54.7203 102.222C55.1515 100.692 55.5595 99.4818 55.9676 98.2716Z" fill="#A6DDA9"/>
<path d="M66.9949 146.091C66.6801 146.027 66.6688 145.852 66.6377 145.411C68.3407 143.614 69.8509 141.673 71.8336 140.64C75.2327 138.869 78.8204 137.139 82.5307 136.384C85.6329 135.753 89.0635 136.296 92.2684 136.814C93.7 137.046 94.9348 138.494 97.0824 139.946C99.1124 139.822 102.359 139.404 105.576 139.569C106.486 139.616 108.204 141.593 108.027 142.305C106.737 147.494 105.869 152.57 103.299 157.719C100.333 163.66 94.8753 170.182 97.6169 178.638C97.5299 179.092 97.3051 179.323 97.3051 179.323C94.8453 175.674 91.7067 172.302 90.071 168.315C86.9403 160.682 87.0596 160.4 78.8054 160.103C77.281 160.048 75.7721 159.564 73.9105 159.258C73.5649 159.237 73.594 159.256 73.594 159.256C73.6721 158.608 73.9652 157.894 73.7914 157.322C72.9856 154.669 71.811 152.107 71.2335 149.412C70.7311 147.068 70.8961 144.54 66.9949 146.091Z" fill="#A6DDAA"/>
<path d="M76.1197 111.131C74.1168 110.716 72.1139 110.302 69.8161 109.827C69.3785 107.307 73.7409 105.546 77.8634 107.472C79.4838 108.23 81.0272 109.152 81.7569 109.544C81.7569 110.889 81.9402 111.83 81.7002 112.647C81.5002 113.328 80.9041 114.183 80.2991 114.372C79.6879 114.564 78.659 114.236 78.1594 113.766C77.5278 113.173 77.2465 112.207 76.4922 111.287C76.1703 111.172 76.1197 111.131 76.1197 111.131Z" fill="#99D1B2"/>
<path d="M76.1956 111.193C75.8365 112.1 75.452 112.987 75.0674 113.875C74.7271 113.688 74.3867 113.501 74.0464 113.314C74.565 112.647 75.0835 111.98 75.8608 111.222C76.1195 111.131 76.17 111.172 76.1956 111.193Z" fill="#99D1B2"/>
<path d="M73.5537 159.224C73.4941 159.262 73.4459 159.313 73.4959 159.31C73.5941 159.256 73.5651 159.237 73.5537 159.224Z" fill="#A6DDAA"/>
<path d="M97.6445 178.978C97.8234 179.076 97.8874 179.288 97.9514 179.499C97.8203 179.508 97.6893 179.516 97.4316 179.424C97.305 179.323 97.5297 179.092 97.6445 178.978Z" fill="#A6DDAA"/>
<path d="M320.055 99.5727C320.073 106.339 320.073 112.782 320.073 119.224C319.867 119.226 319.661 119.227 319.456 119.229C319.456 112.07 319.456 104.911 319.456 97.7525C319.552 97.7365 319.649 97.7206 319.746 97.7046C319.843 98.2193 319.94 98.734 320.055 99.5727Z" fill="#E79494"/>
<path d="M373.681 115.472C373.37 116.726 373.166 117.65 372.962 118.574C372.833 118.558 372.705 118.541 372.576 118.525C372.576 111.641 372.576 104.758 372.576 97.8752C372.98 97.8691 373.384 97.863 373.788 97.8569C373.788 103.619 373.788 109.38 373.681 115.472Z" fill="#E89494"/>
<path d="M356.628 151.104C356.3 147.743 356.3 144.482 356.3 140.841C359.768 140.841 363.224 140.841 367.04 140.841C367.04 144.146 367.04 147.476 367.04 151.687C363.59 147.978 360.228 148.408 356.628 151.104Z" fill="#FF7878"/>
<path d="M54.6497 102.589C51.7345 101.791 48.8193 100.993 45.6221 100.028C48.6123 99.3095 51.8845 98.7576 55.5623 98.2388C55.5599 99.4819 55.1519 100.692 54.7081 102.233C54.6723 102.564 54.6497 102.589 54.6497 102.589Z" fill="#528AD7"/>
<path d="M25.7592 100.112C25.7028 99.6626 25.9249 99.3018 26.2556 98.7551C26.645 98.4752 26.8834 98.5394 27.1918 98.9214C26.8823 99.454 26.4601 99.8271 25.7592 100.112Z" fill="#4B86E7"/>
<path d="M167.464 90.9141C175.695 75.7421 191.881 69.3162 206.431 73.5111C219.915 77.3989 228.706 86.5509 231.213 100.357C233.791 114.556 228.675 126.326 216.622 134.501C204.701 142.586 192.259 142.849 179.989 135.272C164.488 125.701 159.315 107.296 167.464 90.9141ZM189.53 118.74C190.409 119.209 191.689 120.315 192.107 120.052C198.824 115.822 205.432 111.418 212.801 106.568C205.014 100.964 197.812 96.3136 189.501 91.1251C189.501 101.187 189.501 109.589 189.53 118.74Z" fill="#FF7373"/>
<path d="M331.198 134.17C331.199 140.308 331.199 146.101 331.199 151.894C330.871 151.893 330.542 151.892 330.214 151.891C330.214 145.323 330.214 138.755 330.214 132.186C330.493 132.182 330.772 132.178 331.051 132.173C331.099 132.724 331.148 133.275 331.198 134.17Z" fill="#E8DBB1"/>
<path d="M316.589 184.297C316.552 185.192 316.516 185.752 316.48 186.312C314.037 178.923 314.686 171.494 316.59 164.038C316.59 170.679 316.59 177.321 316.589 184.297Z" fill="#E9B28D"/>
<path d="M24.905 101.653C24.754 101.225 24.8878 100.713 25.2689 100.091C25.4075 100.51 25.2986 101.039 24.905 101.653Z" fill="#4B86E7"/>
<path d="M54.6846 102.552C54.8011 102.689 54.9049 102.838 55.0087 102.986C54.9116 102.947 54.8144 102.909 54.6834 102.73C54.6495 102.589 54.672 102.564 54.6846 102.552Z" fill="#528AD7"/>
<path d="M189.515 118.365C189.5 109.589 189.5 101.187 189.5 91.125C197.811 96.3135 205.013 100.964 212.8 106.568C205.431 111.418 198.823 115.822 192.106 120.052C191.688 120.315 190.408 119.209 189.515 118.365Z" fill="#FFFDFD"/>
</svg>
