<svg width="354" height="321" viewBox="0 0 354 321" fill="none" xmlns="http://www.w3.org/2000/svg">
<circle cx="160.324" cy="160.324" r="160.324" fill="#6DEEBB"/>
<path d="M114.996 171.878C112.894 150.891 117.441 131.857 131.368 115.66C156.689 86.2107 202.868 85.0056 229.688 113.082C230.863 114.312 231.706 115.865 232.926 117.578C234.836 115.767 235.906 114.786 236.939 113.767C256.208 94.7662 279.016 88.0913 304.882 95.6805C329.441 102.886 345.334 119.981 351.155 144.948C356.443 167.63 351.985 189.442 339.216 209.651C327.533 209.748 316.717 209.772 305.901 209.701C298.609 209.652 290.461 211.988 286.821 202.216C283.337 204.915 280.543 207.079 277.563 209.387C273.833 203.868 270.466 198.885 266.506 193.025C262.698 203.597 259.242 213.191 255.358 223.971C251.063 198.696 246.984 174.687 242.904 150.678C236.439 168.858 230.914 186.901 225.723 205.042C224.684 208.669 223.159 209.929 219.48 209.797C212.088 209.532 204.676 209.862 197.284 209.612C195.526 209.553 193.015 208.663 192.212 207.322C188.081 200.426 182.102 198.106 174.438 198.317C164.643 198.586 154.835 198.382 144.579 198.382C144.579 191.038 144.418 184.361 144.636 177.697C144.776 173.398 143.005 171.936 138.895 172.006C130.932 172.142 122.963 171.94 114.996 171.878Z" fill="#FF5E5E"/>
<path d="M114.46 171.884C122.963 171.94 130.932 172.142 138.895 172.006C143.005 171.936 144.776 173.398 144.636 177.697C144.419 184.361 144.579 191.038 144.579 198.382C154.835 198.382 164.643 198.586 174.438 198.317C182.103 198.106 188.081 200.425 192.213 207.322C193.016 208.663 195.527 209.553 197.284 209.612C204.677 209.862 212.089 209.532 219.48 209.797C223.159 209.929 224.685 208.669 225.723 205.042C230.914 186.901 236.439 168.858 242.904 150.678C246.984 174.687 251.064 198.696 255.359 223.971C259.242 213.191 262.698 203.597 266.506 193.025C270.466 198.885 273.833 203.868 277.563 209.387C280.543 207.079 283.337 204.915 286.821 202.216C290.461 211.988 298.609 209.652 305.901 209.7C316.717 209.772 327.534 209.748 338.879 209.853C339.394 210.155 339.381 210.369 338.817 210.898C324.221 211.211 310.175 211.317 296.133 211.124C292.944 211.08 289.769 209.998 285.408 209.17C283.532 210.959 280.577 213.778 277.467 216.744C274.205 212.989 271.349 209.701 268.204 206.081C263.583 220.708 259.098 234.902 254.613 249.096C254.133 249.068 253.653 249.039 253.173 249.01C249.203 226.209 245.234 203.407 241.264 180.606C237.636 187.748 235.136 195.057 232.676 202.38C229.712 211.201 229.727 211.206 220.328 211.206C211.486 211.206 202.644 211.206 193.651 211.206C193.651 233.173 193.651 254.258 193.651 275.343C193.624 278.22 193.574 281.097 193.572 283.975C193.563 298.59 187.835 304.291 173.13 304.291C140.475 304.292 107.821 304.291 75.166 304.291C67.382 304.291 59.5979 304.328 51.8142 304.282C42.3156 304.226 35.2379 297.192 35.2192 287.666C35.1718 263.494 35.5293 239.314 35.0251 215.153C34.8508 206.802 43.4598 197.562 52.0315 198.219C61.0922 198.914 70.2487 198.233 79.357 198.442C83.0869 198.527 84.4309 197.244 84.2533 193.478C84.0097 188.31 84.3846 183.113 84.1361 177.945C83.9239 173.533 85.4478 171.68 90.004 171.826C97.9696 172.082 105.949 171.893 114.46 171.884ZM116.031 179.937C111.68 179.943 107.328 179.89 102.978 179.967C88.0729 180.229 89.9163 176.997 90.0621 194.663C90.0723 195.906 92.3447 198.173 93.5984 198.197C102.853 198.375 112.116 198.103 122.295 198.283C127.729 198.283 133.163 198.283 139.049 198.283C139.049 193.875 138.822 190.061 139.107 186.286C139.46 181.619 137.859 179.592 133.008 179.88C127.716 180.194 122.39 179.931 116.031 179.937ZM131.625 239.984C129.639 239.881 127.653 239.777 125.38 239.659C125.38 233.045 125.201 227.109 125.444 221.191C125.604 217.311 124.474 215.48 120.35 215.752C116.381 216.014 112.363 216.045 108.398 215.743C104.262 215.428 103.155 217.186 103.323 221.092C103.583 227.168 103.392 233.264 103.392 239.984C96.9453 239.984 91.1032 240.216 85.2893 239.907C80.9975 239.678 78.8772 240.723 79.3863 245.575C79.7844 249.37 79.6904 253.257 79.4065 257.073C79.0907 261.317 80.5927 262.961 84.8931 262.755C90.8807 262.468 96.8919 262.683 103.392 262.683C103.392 269.553 103.606 275.664 103.318 281.75C103.123 285.873 104.663 287.196 108.586 286.92C112.554 286.642 116.564 286.692 120.54 286.906C124.316 287.108 125.554 285.495 125.435 281.811C125.233 275.557 125.379 269.291 125.379 262.683C128.289 262.683 130.361 262.685 132.432 262.683C150.073 262.671 150.073 262.671 149.306 244.475C149.298 244.284 149.285 244.09 149.304 243.9C149.615 240.839 148.112 239.856 145.253 239.952C141.081 240.091 136.901 239.985 131.625 239.984Z" fill="#FFFEFE"/>
<path d="M194.008 275.504C193.651 254.258 193.651 233.173 193.651 211.206C202.644 211.206 211.486 211.207 220.328 211.206C229.726 211.206 229.712 211.202 232.676 202.38C235.136 195.057 237.635 187.748 241.263 180.606C245.233 203.407 249.203 226.209 253.173 249.01C253.653 249.039 254.133 249.068 254.613 249.096C259.098 234.902 263.582 220.709 268.204 206.081C271.349 209.701 274.205 212.989 277.467 216.744C280.577 213.778 283.532 210.96 285.408 209.17C289.768 209.998 292.944 211.08 296.133 211.124C310.175 211.317 324.22 211.211 338.793 211.218C327.133 232.564 309.803 249.068 290.395 263.425C272.801 276.44 254.754 288.828 237.003 301.629C234.57 303.383 233.006 303.321 230.593 301.558C218.606 292.802 206.456 284.274 194.008 275.504Z" fill="#FF5E5E"/>
<path d="M132.175 239.984C136.902 239.985 141.082 240.091 145.254 239.952C148.112 239.856 149.615 240.839 149.305 243.9C149.286 244.09 149.298 244.284 149.306 244.475C150.074 262.671 150.074 262.671 132.433 262.683C130.361 262.685 128.289 262.683 125.38 262.683C125.38 269.291 125.233 275.557 125.435 281.811C125.554 285.495 124.317 287.108 120.541 286.905C116.565 286.692 112.555 286.642 108.587 286.92C104.663 287.196 103.123 285.873 103.318 281.75C103.606 275.664 103.393 269.553 103.393 262.683C96.8924 262.683 90.8812 262.468 84.8936 262.755C80.5932 262.961 79.0912 261.317 79.407 257.073C79.6909 253.257 79.7849 249.369 79.3868 245.575C78.8778 240.723 80.9981 239.678 85.2899 239.907C91.1037 240.216 96.9458 239.984 103.392 239.984C103.392 233.264 103.584 227.168 103.323 221.092C103.156 217.186 104.262 215.427 108.399 215.743C112.363 216.045 116.381 216.014 120.351 215.752C124.474 215.48 125.604 217.311 125.445 221.191C125.201 227.109 125.381 233.045 125.381 239.659C127.653 239.777 129.639 239.881 132.175 239.984Z" fill="#FF5F5F"/>
<path d="M121.376 197.973C112.116 198.103 102.853 198.375 93.5981 198.197C92.3444 198.173 90.0721 195.906 90.0618 194.662C89.9161 176.997 88.0726 180.229 102.978 179.967C107.328 179.89 111.68 179.943 116.456 180.412C118.38 186.583 119.878 192.278 121.376 197.973Z" fill="#EFF3FC"/>
<path d="M121.836 198.128C119.878 192.278 118.38 186.583 116.98 180.403C122.39 179.931 127.716 180.194 133.008 179.88C137.859 179.592 139.459 181.619 139.107 186.286C138.822 190.061 139.049 193.875 139.049 198.283C133.163 198.283 127.729 198.283 121.836 198.128Z" fill="#FF5F5F"/>
</svg>
