<svg width="319" height="213" viewBox="0 0 319 213" fill="none" xmlns="http://www.w3.org/2000/svg">
<path d="M79.9961 79.8784C77.8936 58.8909 82.4408 39.8575 96.3676 23.6602C121.689 -5.78927 167.868 -6.99439 194.688 21.0819C195.863 22.3119 196.706 23.865 197.926 25.5784C199.836 23.7669 200.906 22.7862 201.939 21.7673C221.208 2.76616 244.016 -3.90871 269.882 3.68053C294.441 10.8862 310.334 27.9805 316.155 52.9476C321.443 75.6305 316.985 97.442 304.216 117.651C292.533 117.748 281.717 117.772 270.901 117.701C263.609 117.652 255.461 119.988 251.821 110.216C248.337 112.915 245.543 115.079 242.563 117.387C238.833 111.868 235.466 106.885 231.506 101.025C227.698 111.597 224.242 121.191 220.358 131.971C216.063 106.696 211.984 82.6872 207.904 58.6785C201.439 76.8583 195.914 94.9013 190.723 113.042C189.684 116.669 188.159 117.929 184.48 117.797C177.088 117.532 169.676 117.862 162.284 117.612C160.526 117.553 158.015 116.663 157.212 115.322C153.081 108.425 147.102 106.106 139.438 106.317C129.643 106.586 119.835 106.382 109.579 106.382C109.579 99.0383 109.418 92.3613 109.636 85.6968C109.776 81.3983 108.005 79.9355 103.895 80.0059C95.9318 80.1423 87.9627 79.9402 79.9961 79.8784Z" fill="#FF5E5E"/>
<path d="M79.4596 79.8842C87.9629 79.9402 95.9319 80.1423 103.895 80.0059C108.005 79.9355 109.776 81.3982 109.636 85.6968C109.419 92.3613 109.579 99.0383 109.579 106.382C119.835 106.382 129.643 106.586 139.438 106.317C147.103 106.106 153.081 108.425 157.213 115.322C158.016 116.663 160.527 117.553 162.284 117.612C169.677 117.862 177.089 117.532 184.48 117.797C188.159 117.929 189.685 116.669 190.723 113.042C195.914 94.9013 201.439 76.8583 207.904 58.6784C211.984 82.6871 216.064 106.696 220.359 131.971C224.242 121.191 227.698 111.597 231.506 101.025C235.466 106.885 238.833 111.868 242.563 117.387C245.543 115.079 248.337 112.915 251.821 110.216C255.461 119.988 263.609 117.652 270.901 117.7C281.717 117.772 292.534 117.748 303.879 117.853C304.394 118.155 304.381 118.369 303.817 118.898C289.221 119.211 275.175 119.317 261.133 119.124C257.944 119.08 254.769 117.998 250.408 117.17C248.532 118.959 245.577 121.778 242.467 124.744C239.205 120.989 236.349 117.701 233.204 114.081C228.583 128.708 224.098 142.902 219.613 157.096C219.133 157.068 218.653 157.039 218.173 157.01C214.203 134.209 210.234 111.407 206.264 88.606C202.636 95.7479 200.136 103.057 197.676 110.38C194.712 119.201 194.727 119.206 185.328 119.206C176.486 119.206 167.644 119.206 158.651 119.206C158.651 141.173 158.651 162.258 158.651 183.343C158.624 186.22 158.574 189.097 158.572 191.975C158.563 206.59 152.835 212.291 138.13 212.291C105.475 212.292 72.8206 212.291 40.166 212.291C32.382 212.291 24.5979 212.328 16.8142 212.282C7.31564 212.226 0.23792 205.192 0.219214 195.666C0.171772 171.494 0.529285 147.314 0.0250632 123.153C-0.149217 114.802 8.45984 105.562 17.0315 106.219C26.0922 106.914 35.2487 106.233 44.357 106.442C48.0869 106.527 49.4309 105.244 49.2533 101.478C49.0097 96.3105 49.3846 91.1125 49.1361 85.945C48.9239 81.5326 50.4478 79.6799 55.004 79.8261C62.9696 80.0817 70.9492 79.8927 79.4596 79.8842ZM81.031 87.9365C76.6801 87.9431 72.3281 87.8905 67.9784 87.9669C53.0729 88.2288 54.9163 84.9975 55.0621 102.663C55.0723 103.906 57.3447 106.173 58.5984 106.197C67.8531 106.375 77.1162 106.103 87.2953 106.283C92.7292 106.283 98.1632 106.283 104.049 106.283C104.049 101.875 103.822 98.0608 104.107 94.286C104.46 89.619 102.859 87.5925 98.0085 87.8802C92.7162 88.1941 87.3904 87.9306 81.031 87.9365ZM96.6245 147.984C94.6386 147.881 92.6527 147.777 90.3803 147.659C90.3803 141.045 90.2007 135.109 90.444 129.191C90.6035 125.311 89.4736 123.48 85.3504 123.752C81.3805 124.014 77.3628 124.045 73.3985 123.743C69.2616 123.428 68.1555 125.186 68.3229 129.092C68.5833 135.168 68.3917 141.264 68.3917 147.984C61.9453 147.984 56.1032 148.216 50.2893 147.907C45.9976 147.678 43.8772 148.723 44.3863 153.575C44.7844 157.37 44.6904 161.257 44.4065 165.073C44.0907 169.317 45.5927 170.961 49.8931 170.755C55.8807 170.468 61.8919 170.683 68.3922 170.683C68.3922 177.553 68.6056 183.664 68.3178 189.75C68.1229 193.873 69.6629 195.196 73.5863 194.92C77.5541 194.642 81.5645 194.692 85.54 194.906C89.3162 195.108 90.5537 193.495 90.4346 189.811C90.2325 183.557 90.379 177.291 90.379 170.683C93.2888 170.683 95.3606 170.685 97.4325 170.683C115.073 170.671 115.073 170.671 114.306 152.475C114.298 152.284 114.285 152.09 114.304 151.9C114.615 148.839 113.112 147.856 110.253 147.952C106.081 148.091 101.901 147.985 96.6245 147.984Z" fill="#FFFEFE"/>
<path d="M159.008 183.504C158.651 162.258 158.651 141.173 158.651 119.206C167.644 119.206 176.486 119.207 185.328 119.206C194.726 119.206 194.712 119.202 197.676 110.38C200.136 103.057 202.635 95.748 206.263 88.6061C210.233 111.407 214.203 134.209 218.173 157.01C218.653 157.039 219.133 157.068 219.613 157.096C224.098 142.902 228.582 128.709 233.204 114.081C236.349 117.701 239.205 120.989 242.467 124.744C245.577 121.778 248.532 118.96 250.408 117.17C254.768 117.998 257.944 119.08 261.133 119.124C275.175 119.317 289.22 119.211 303.793 119.218C292.133 140.564 274.803 157.068 255.395 171.425C237.801 184.44 219.754 196.828 202.003 209.629C199.57 211.383 198.006 211.321 195.593 209.558C183.606 200.802 171.456 192.274 159.008 183.504Z" fill="#FF5E5E"/>
<path d="M97.1751 147.984C101.902 147.985 106.082 148.091 110.254 147.952C113.112 147.856 114.615 148.839 114.305 151.9C114.286 152.09 114.298 152.284 114.306 152.475C115.074 170.671 115.074 170.671 97.433 170.683C95.3612 170.685 93.2893 170.683 90.3796 170.683C90.3796 177.291 90.2331 183.557 90.4352 189.811C90.5542 193.495 89.3168 195.108 85.5406 194.905C81.565 194.692 77.5546 194.642 73.5868 194.92C69.6634 195.196 68.1234 193.873 68.3184 189.75C68.6062 183.664 68.3927 177.553 68.3927 170.683C61.8924 170.683 55.8812 170.468 49.8936 170.755C45.5932 170.961 44.0912 169.317 44.407 165.073C44.6909 161.257 44.7849 157.369 44.3868 153.575C43.8778 148.723 45.9981 147.678 50.2899 147.907C56.1037 148.216 61.9458 147.984 68.3923 147.984C68.3923 141.264 68.5838 135.168 68.3234 129.092C68.156 125.186 69.2621 123.427 73.399 123.743C77.3633 124.045 81.3811 124.014 85.3509 123.752C89.4742 123.48 90.604 125.311 90.4445 129.191C90.2012 135.109 90.3808 141.045 90.3808 147.659C92.6532 147.777 94.6391 147.881 97.1751 147.984Z" fill="#FF5F5F"/>
<path d="M86.3765 105.973C77.116 106.103 67.8528 106.375 58.5981 106.197C57.3444 106.173 55.0721 103.906 55.0618 102.662C54.9161 84.9974 53.0726 88.2287 67.9782 87.9669C72.3279 87.8905 76.6798 87.943 81.4565 88.4121C83.3803 94.5829 84.8784 100.278 86.3765 105.973Z" fill="#EFF3FC"/>
<path d="M86.8356 106.128C84.8783 100.278 83.3802 94.5829 81.9805 88.4032C87.39 87.9306 92.7158 88.194 98.0081 87.8801C102.859 87.5924 104.459 89.619 104.107 94.2859C103.822 98.0608 104.049 101.875 104.049 106.283C98.1628 106.283 92.7289 106.283 86.8356 106.128Z" fill="#FF5F5F"/>
</svg>
