<?xml version="1.0" encoding="UTF-8"?>
<svg id="Layer_2" data-name="Layer 2" xmlns="http://www.w3.org/2000/svg" viewBox="0 0 481.72 487.69">
  <defs>
    <style>
      .cls-1 {
        fill: #686896;
      }

      .cls-2 {
        fill: #86ccae;
      }

      .cls-3 {
        fill: #6ca38a;
      }

      .cls-4 {
        fill: #5fc8d4;
      }

      .cls-5 {
        fill: #817dbb;
      }

      .cls-6 {
        fill: #50abaf;
      }
    </style>
  </defs>
  <g id="icon-translation-text">
    <g>
      <path class="cls-1" d="M470.95,411.16c1.53,3.2,1.27,6.93-.72,9.65-2.47,3.38-7.23,4.67-11.45,2.93-38.4-16.09-76.8-32.18-115.2-48.27-8.92,1.36-96.46,13.36-147.09-44.72-7.08-8.13-28.92-33.17-30.24-70.45-1.46-41.02,22.87-69.98,28.27-76.41,50.53-60.14,167.48-68.99,234.77-14.46,10.17,8.25,60.32,48.89,51.36,104.24-6.95,42.94-44.91,66.54-52.61,71.12,14.3,22.12,28.61,44.24,42.91,66.36Z"/>
      <path class="cls-5" d="M459.22,411.16c1.53,3.2,1.27,6.93-.72,9.65-2.47,3.38-7.23,4.67-11.45,2.93-38.4-16.09-76.8-32.18-115.2-48.27-8.92,1.36-96.46,13.36-147.09-44.72-7.08-8.13-28.92-33.17-30.24-70.45-1.46-41.02,22.87-69.98,28.27-76.41,50.53-60.14,167.48-68.99,234.77-14.46,10.17,8.25,60.32,48.89,51.36,104.24-6.95,42.94-44.91,66.54-52.61,71.12,14.3,22.12,28.61,44.24,42.91,66.36Z"/>
      <path class="cls-3" d="M10.77,355.5c-1.53,3.2-1.27,6.93,.72,9.65,2.47,3.38,7.23,4.67,11.45,2.93,38.4-16.09,76.8-32.18,115.2-48.27,8.92,1.36,96.46,13.36,147.09-44.72,7.08-8.13,28.92-33.17,30.24-70.45,1.46-41.02-22.87-69.98-28.27-76.41-50.53-60.14-167.48-68.99-234.77-14.46C42.25,122.02-7.89,162.66,1.07,218.01c6.95,42.94,44.91,66.54,52.61,71.12-14.3,22.12-28.61,44.24-42.91,66.36Z"/>
      <path class="cls-2" d="M21.45,355.5c-1.53,3.2-1.27,6.93,.72,9.65,2.47,3.38,7.23,4.67,11.45,2.93,38.4-16.09,76.8-32.18,115.2-48.27,8.92,1.36,96.46,13.36,147.09-44.72,7.08-8.13,28.92-33.17,30.24-70.45,1.46-41.02-22.87-69.98-28.27-76.41-50.53-60.14-167.48-68.99-234.77-14.46-10.17,8.25-60.32,48.89-51.36,104.24,6.95,42.94,44.91,66.54,52.61,71.12-14.3,22.12-28.61,44.24-42.91,66.36Z"/>
      <g>
        <path class="cls-6" d="M310.49,447.77c2.34-4.18,2.62-9.01,.42-11.96-3.2-4.3-12.02-5.16-18.47,1.05-5.05,5.78-14.93,15.58-30.44,22.46-14.48,6.43-27.45,7.47-34.98,7.52-7.73-.02-29.73-1.07-51.03-16.54-24.4-17.72-31.52-42.45-33.27-49.4,2.52,2.1,5.05,4.21,7.57,6.31,4.98,2.85,11.26,1.53,14.52-2.84,2.96-3.99,2.81-9.69-.5-13.7-9.22-6.19-18.45-12.38-27.67-18.57-.53-.48-3.78-3.34-8.6-2.91-5.13,.45-7.89,4.27-8.27,4.81-7.01,7.45-14.02,14.91-21.04,22.36-3.51,4.11-3.53,10.22-.04,14.33,3.46,4.09,9.44,5.09,14.07,2.35,2.83-2.78,5.67-5.56,8.5-8.34,2.6,14.45,9.6,38.65,30.09,57.58,36.63,33.84,94.75,30.85,131.76,8.9,12.99-7.7,21.9-16.86,27.38-23.39Z"/>
        <path class="cls-4" d="M312.47,440.97c2.34-4.18,2.62-9.01,.42-11.96-3.2-4.3-12.02-5.16-18.47,1.05-5.05,5.78-14.93,15.58-30.44,22.46-14.48,6.43-27.45,7.47-34.98,7.52-7.73-.02-29.73-1.07-51.03-16.54-24.4-17.72-31.52-42.45-33.27-49.4,2.52,2.1,5.05,4.21,7.57,6.31,4.98,2.85,11.26,1.53,14.52-2.84,2.96-3.99,2.81-9.69-.5-13.7-9.22-6.19-18.45-12.38-27.67-18.57-.53-.48-3.78-3.34-8.6-2.91-5.13,.45-7.89,4.27-8.27,4.81-7.01,7.45-14.02,14.91-21.04,22.36-3.51,4.11-3.53,10.22-.04,14.33,3.46,4.09,9.44,5.09,14.07,2.35,2.83-2.78,5.67-5.56,8.5-8.34,2.6,14.45,9.6,38.65,30.09,57.58,36.63,33.84,94.75,30.85,131.76,8.9,12.99-7.7,21.9-16.86,27.38-23.39Z"/>
      </g>
      <g>
        <path class="cls-6" d="M199.09,39.92c-2.34,4.18-2.62,9.01-.42,11.96,3.2,4.3,12.02,5.16,18.47-1.05,5.05-5.78,14.93-15.58,30.44-22.46,14.48-6.43,27.45-7.47,34.98-7.52,7.73,.02,29.73,1.07,51.03,16.54,24.4,17.72,31.52,42.45,33.27,49.4-2.52-2.1-5.05-4.21-7.57-6.31-4.98-2.85-11.26-1.53-14.52,2.84-2.96,3.99-2.81,9.69,.5,13.7,9.22,6.19,18.45,12.38,27.67,18.57,.53,.48,3.78,3.34,8.6,2.91,5.13-.45,7.89-4.27,8.27-4.81,7.01-7.45,14.02-14.91,21.04-22.36,3.51-4.11,3.53-10.22,.04-14.33-3.46-4.09-9.44-5.09-14.07-2.35-2.83,2.78-5.67,5.56-8.5,8.34-2.6-14.45-9.6-38.65-30.09-57.58-36.63-33.84-94.75-30.85-131.76-8.9-12.99,7.7-21.9,16.86-27.38,23.39Z"/>
        <path class="cls-4" d="M197.1,46.71c-2.34,4.18-2.62,9.01-.42,11.96,3.2,4.3,12.02,5.16,18.47-1.05,5.05-5.78,14.93-15.58,30.44-22.46,14.48-6.43,27.45-7.47,34.98-7.52,7.73,.02,29.73,1.07,51.03,16.54,24.4,17.72,31.52,42.45,33.27,49.4-2.52-2.1-5.05-4.21-7.57-6.31-4.98-2.85-11.26-1.53-14.52,2.84-2.96,3.99-2.81,9.69,.5,13.7,9.22,6.19,18.45,12.38,27.67,18.57,.53,.48,3.78,3.34,8.6,2.91,5.13-.45,7.89-4.27,8.27-4.81,7.01-7.45,14.02-14.91,21.04-22.36,3.51-4.11,3.53-10.22,.04-14.33-3.46-4.09-9.44-5.09-14.07-2.35-2.83,2.78-5.67,5.56-8.5,8.34-2.6-14.45-9.6-38.65-30.09-57.58C319.61-1.62,261.5,1.38,224.48,23.32c-12.99,7.7-21.9,16.86-27.38,23.39Z"/>
      </g>
    </g>
  </g>
</svg>