<?xml version="1.0" encoding="UTF-8"?>
<svg id="Layer_2" data-name="Layer 2" xmlns="http://www.w3.org/2000/svg" viewBox="0 0 490.6 353.78">
  <defs>
    <style>
      .cls-1 {
        fill: #afafd8;
      }

      .cls-2 {
        fill: #817dbb;
      }
    </style>
  </defs>
  <g id="icon-hand-horizontal">
    <g>
      <g>
        <path class="cls-2" d="M226.36,3.02c-12.38,5.73-17.79,17.71-19.61,22.42-1.38,3.34-7.09,18.14-.82,35.46,6.14,16.94,19.53,24.63,22.79,26.38,8.73,4.86,13.7,14.4,12.57,24.02-1.57,13.37-14,19.06-14.54,19.29-30.93-2.59-64.28-4.17-99.77-4.16-26.26,.01-51.29,.89-74.98,2.4-12.01,1.29-21.7,9.02-23.9,18.46-3.01,12.95,8.04,29.34,26.49,31.29,38.89,.91,77.77,1.83,116.66,2.74,15.71-.33,18.31,.53,18.38,1.2,.07,.67-2.26,2.05-17.38,5-42.98,2.5-86.17,4.83-129.58,6.96-.05,0-1.18,.06-1.23,.06-11.01,.54-20,.97-26.7,1.29C6.34,199.57,.62,207.42,.05,216.17c-.7,10.74,6.47,21.1,17.57,24.64,74.99-2.91,163.24-5.73,175.88-3.39,1.94,.36,7.37,1.37,7.38,2.77,0,.65-1.16,1.68-7.84,3-33.55,6.63-98.4,8.34-98.4,8.34s-5.72,.15-31.68,3.59c-6.2,.82-8.92,1.34-12.31,3.05-10.27,5.19-16.27,16.14-14.55,26.02,1.9,10.92,13.15,20.17,26.86,19.92,24.55-.7,50.32-2.06,77.17-4.27,26.08-2.15,51.01-4.92,74.71-8.13,6.21-.36,15.44-.65,15.71,.93,.26,1.49-7.54,4.08-13.56,5.87-24.78,3.73-49.57,7.46-74.35,11.18-18.19,.89-29.54,15.37-27.69,26.82,1.26,7.81,8.73,14.55,18.25,17.26,34.57-2.11,63.9-4.57,86.3-6.66,108.27-10.12,132.69-19.05,152.54-37.65,3.6-3.38,20.95-20.09,30.33-47.78,15.28-45.11,3.38-101.56-28.68-137.01-34.99-38.69-97.27-56-107.25-82.29-3.81-10.04-10.24-18.9-14.54-28.74-2.28-5.22-4.32-10.36-9.43-12.6-6.08-2.67-12.77,.42-16.11,1.97Z"/>
        <path class="cls-2" d="M455.15,129.39l-97.04,7.63c-3.47,1.61-46.07,22.24-53.06,68.17-5.82,38.28,15.58,77.77,53.4,96.35,29.79,5.42,59.59,10.83,89.38,16.25,8.47-7.94,36.16-35.9,41.79-81.26,7.36-59.24-28.78-100.81-34.47-107.14Z"/>
      </g>
      <path class="cls-1" d="M392.11,272.58c-4.58,9.22-11.4,20.65-21.5,32.3-6.97,8.04-13.97,14.42-20.2,19.39,5.86-2.56,17.12-8.41,26.93-20.43,10.09-12.36,13.5-24.96,14.77-31.25Z"/>
      <path class="cls-1" d="M389.62,156.01c.63-.22-1.16-13.79-10.32-26.14-5.98-8.07-13.34-13.24-13.74-12.84-.37,.37,5.4,5.41,11.53,14.22,9.49,13.65,11.94,24.97,12.53,24.77Z"/>
    </g>
  </g>
</svg>