<?xml version="1.0" encoding="UTF-8"?>
<svg id="Layer_2" data-name="Layer 2" xmlns="http://www.w3.org/2000/svg" viewBox="0 0 499.04 499.04">
  <defs>
    <style>
      .cls-1 {
        fill: #42c2c9;
      }
    </style>
  </defs>
  <g id="icon-linkedin">
    <path class="cls-1" d="M249.52,0C111.83,0,0,111.84,0,249.52s111.83,249.52,249.52,249.52,249.52-111.83,249.52-249.52S387.2,0,249.52,0Zm-85.71,124.89c12.79,0,23.4,10.61,23.4,23.4s-10.61,23.4-23.4,23.4-23.4-10.61-23.4-23.4,10.61-23.4,23.4-23.4Zm23.67,217.96h-46.8V187.21h46.8v155.64Zm186.93-.27h-46.8v-84.9c0-17.41-5.17-34.83-25.58-34.83s-36.73,17.41-36.73,35.37v84.62h-46.8V186.66h46.8v21.77c14.42-18.5,34.83-26.67,57.41-26.67v-.27c22.58,0,51.7,11.16,51.7,72.65v88.43Z"/>
  </g>
</svg>