<?xml version="1.0" encoding="UTF-8"?>
<svg id="Layer_2" data-name="Layer 2" xmlns="http://www.w3.org/2000/svg" viewBox="0 0 452.02 493.96">
  <defs>
    <style>
      .cls-1 {
        fill: #5fc8d4;
      }

      .cls-2 {
        fill: #51abaf;
      }
    </style>
  </defs>
  <g id="icon-dice">
    <g>
      <path class="cls-2" d="M211.35,261.49c-1.18-1.83-2.45-3.44-3.75-4.87,3.88,9.25,3,17.69,2.62,20.35-.64,63.8-1.29,127.6-1.93,191.4,1.08,5.81-1.97,11.47-6.99,13.5-4.13,1.68-9.03,.68-12.5-2.52-55.41-32.22-110.82-64.45-166.23-96.67-2.51-1.12-7.86-3.85-12.78-9.28,.77,1.82,1.71,3.68,2.9,5.54,5.65,8.88,13.42,12.87,16.62,14.3,55.41,32.22,110.82,64.45,166.23,96.67,3.47,3.21,8.37,4.2,12.5,2.52,5.03-2.04,8.07-7.69,6.99-13.5,.64-63.8,1.29-127.6,1.93-191.4,.45-3.2,1.66-14.76-5.61-26.04Z"/>
      <path class="cls-2" d="M451.86,356.89l-.55-193.59c.39-5.06-2.18-9.9-6.55-12.37-1.53-.86-3.2-1.39-4.9-1.57,1.54,2.37,2.31,5.22,2.09,8.16,.18,64.53,.37,129.06,.55,193.59,.31,3.27,.89,13.89-5.94,24.41-5.73,8.83-13.54,12.76-16.74,14.16-55.68,31.74-111.37,63.49-167.05,95.23-2.44,2.22-5.57,3.35-8.64,3.25,1.25,2.2,3.14,3.97,5.49,4.95,4.12,1.71,9.03,.76,12.52-2.42,55.68-31.74,111.37-63.49,167.05-95.23,3.2-1.4,11.01-5.33,16.74-14.16,6.83-10.52,6.24-21.14,5.94-24.41Z"/>
      <path class="cls-2" d="M415.05,110.13c.9,1.92,1.28,4.06,1,6.19-.57,4.42-3.84,8.2-8.33,9.65-55.27,32.46-110.54,64.92-165.81,97.38-2.81,2.08-10.11,6.89-20.62,7.46-12.53,.68-21.44-5.12-24.13-7.02-55.6-32.17-111.21-64.34-166.81-96.5,1.28,2.52,3.38,4.62,6.04,5.89,55.85,32.31,111.71,64.63,167.56,96.94,2.68,1.9,11.6,7.69,24.13,7.02,10.51-.57,17.81-5.38,20.62-7.46,55.27-32.46,110.54-64.92,165.81-97.38,4.49-1.45,7.77-5.23,8.33-9.65,.67-5.2-2.53-10.45-7.8-12.51Z"/>
      <path class="cls-1" d="M442.87,351.28l-.55-193.59c.39-5.06-2.18-9.9-6.55-12.37-4.16-2.34-9.32-2.19-13.39,.4l-167.17,97.19c-3.28,1.51-10.51,5.38-15.92,13.62-7.37,11.22-6.25,22.79-5.83,25.99,.09,63.8,.19,127.61,.28,191.41-1.13,5.8,1.87,11.48,6.88,13.56,4.12,1.71,9.03,.76,12.52-2.42,55.68-31.74,111.37-63.49,167.05-95.23,3.2-1.4,11.01-5.33,16.74-14.16,6.83-10.52,6.24-21.14,5.94-24.41Zm-98.8,22.75c-5.31,0-9.61-4.3-9.61-9.61s4.3-9.61,9.61-9.61,9.61,4.3,9.61,9.61-4.3,9.61-9.61,9.61Zm16.25-48.75c-1.55,1.7-4.28,5.15-5.72,10.3-1.22,4.37-.99,8.11-.69,10.3-6.48-.15-12.97-.31-19.45-.46-.82-2.82-1.6-7.13-.69-12.13,2.43-13.3,14.7-19.7,16.48-20.6,10.22-4.78,14.38-16.29,10.53-24.72-3.86-8.44-14.35-10.77-21.51-9.38-1.72,.33-8.61,1.66-12.13,8.01-2.54,4.57-1.9,9.17-1.6,10.76-6.94,.15-13.88,.31-20.83,.46-.28-3.25-.57-11.82,4.58-20.6,3.59-6.12,8.27-9.68,10.99-11.44,2.63-1.97,11.51-8.13,24.26-7.78,11,.3,18.69,5.28,21.51,7.32,1.13,.64,16.32,9.49,17.39,26.55,.9,14.24-8.43,28.06-23.11,33.41Z"/>
      <path class="cls-1" d="M204.58,251.37c-5.33-8.28-12.53-12.22-15.8-13.75L22.46,138.99c-4.04-2.62-9.2-2.83-13.38-.52-4.4,2.43-7,7.24-6.66,12.31C1.67,215.31,.93,279.83,.19,344.35c-.34,3.27-1.01,13.88,5.73,24.46,5.65,8.88,13.42,12.87,16.62,14.3,55.41,32.22,110.82,64.45,166.23,96.67,3.47,3.21,8.37,4.2,12.5,2.52,5.03-2.04,8.07-7.69,6.99-13.5,.64-63.8,1.29-127.6,1.93-191.4,.45-3.2,1.66-14.76-5.61-26.04Zm-99.27,116.65c-5.31,0-9.61-4.3-9.61-9.61s4.3-9.61,9.61-9.61,9.61,4.3,9.61,9.61-4.3,9.61-9.61,9.61Zm16.25-48.75c-1.55,1.7-4.28,5.15-5.72,10.3-1.22,4.37-.99,8.11-.69,10.3-6.48-.15-12.97-.31-19.45-.46-.82-2.82-1.6-7.13-.69-12.13,2.43-13.3,14.7-19.7,16.48-20.6,10.22-4.78,14.38-16.29,10.53-24.72-3.86-8.44-14.35-10.77-21.51-9.38-1.72,.33-8.61,1.66-12.13,8.01-2.54,4.57-1.9,9.17-1.6,10.76-6.94,.15-13.88,.31-20.83,.46-.28-3.25-.57-11.82,4.58-20.6,3.59-6.12,8.27-9.68,10.99-11.44,2.63-1.97,11.51-8.13,24.26-7.78,11,.3,18.69,5.28,21.51,7.32,1.13,.64,16.32,9.49,17.39,26.55,.9,14.24-8.43,28.06-23.11,33.41Z"/>
      <path class="cls-1" d="M407.44,103.59c-55.27-31.88-110.54-63.75-165.81-95.63-2.57-1.96-12.04-8.69-25.44-7.9-9.84,.58-16.79,4.92-19.74,7.02L28.89,103.59c-4.27,2.24-6.98,6.63-7.02,11.4-.04,5.02,2.87,9.66,7.46,11.84,55.85,32.31,111.71,64.63,167.56,96.94,2.68,1.9,11.6,7.69,24.13,7.02,10.51-.57,17.81-5.38,20.62-7.46,55.27-32.46,110.54-64.92,165.81-97.38,4.49-1.45,7.77-5.23,8.33-9.65,.69-5.38-2.74-10.81-8.33-12.72Zm-174.46,29.54c-2.57-1.42-6.17-3.91-9.06-8.09-7.69-11.12-3.54-24.33-2.91-26.22,3.85-10.61-1.35-21.69-10.03-24.92-8.69-3.24-17.76,2.54-21.85,8.58-.98,1.45-4.91,7.26-2.91,14.24,1.44,5.03,5.14,7.83,6.47,8.74-4.8,5.02-9.6,10.03-14.4,15.05-2.5-2.1-8.76-7.95-11.33-17.8-1.79-6.87-1-12.69-.32-15.86,.46-3.25,2.39-13.89,11.65-22.66,7.99-7.57,16.95-9.48,20.39-10.03,1.25-.35,18.25-4.82,31.07,6.47,10.71,9.43,13.88,25.8,7.28,39.97,.1,2.3,.61,6.67,3.24,11.33,2.23,3.96,5.04,6.44,6.8,7.77-4.69,4.48-9.39,8.95-14.08,13.43Zm27.02,13.43c-3.75,3.75-9.84,3.75-13.59,0-3.75-3.75-3.75-9.84,0-13.59s9.84-3.75,13.59,0,3.75,9.84,0,13.59Z"/>
    </g>
  </g>
</svg>