<?xml version="1.0" encoding="UTF-8"?>
<svg id="Layer_2" data-name="Layer 2" xmlns="http://www.w3.org/2000/svg" viewBox="0 0 491.41 479.98">
  <defs>
    <style>
      .cls-1 {
        fill: #42c2c9;
        fill-rule: evenodd;
      }
    </style>
  </defs>
  <g id="icon-github">
    <path class="cls-1" d="M245.97,.27C110.25,.27,0,110.51,0,246.24c0,108.64,70.55,200.91,168.18,233.37,12.34,2.15,16.9-5.36,16.9-11.8,0-5.9,0-21.19-.27-41.84-68.4,14.75-82.88-32.99-82.88-32.99-11.27-28.43-27.36-35.94-27.36-35.94-22.26-15.29,1.61-15.02,1.61-15.02,24.68,1.61,37.55,25.21,37.55,25.21,22,37.55,57.67,26.82,71.62,20.39,2.15-15.83,8.58-26.82,15.56-32.99-54.72-6.17-112.12-27.36-112.12-121.51,0-26.82,9.66-48.82,25.21-65.99-2.41-6.17-11-31.12,2.41-65.18,0,0,20.65-6.71,67.6,25.21,19.58-5.36,40.77-8.32,61.69-8.32s41.84,2.95,61.69,8.32c46.94-31.92,67.6-25.21,67.6-25.21,13.41,33.8,5.1,58.74,2.41,65.18,15.83,17.17,25.21,39.16,25.21,65.99,0,94.42-57.4,115.34-112.39,121.24,8.85,7.51,16.63,22.53,16.63,45.6,0,32.99-.27,59.28-.27,67.6,0,6.71,4.56,14.22,16.9,11.8,97.64-32.46,167.92-124.73,167.92-233.37C491.41,110.24,381.16,0,245.44,0l.54,.27Z"/>
  </g>
</svg>