<?xml version="1.0" encoding="UTF-8"?>
<svg id="Layer_2" data-name="Layer 2" xmlns="http://www.w3.org/2000/svg" viewBox="0 0 478.88 483.88">
  <defs>
    <style>
      .cls-1 {
        fill: #fff;
      }

      .cls-2 {
        fill: #bdc1c0;
      }

      .cls-3 {
        fill: #5fc8d4;
      }

      .cls-4 {
        fill: #51abaf;
      }
    </style>
  </defs>
  <g id="icon-rotate-phone-vertical">
    <g>
      <g>
        <path class="cls-4" d="M237.31,5.14h222.49c1.47,.1,8.76,.76,14.15,6.96,4.23,4.87,4.82,10.3,4.94,12.13V459.79c-.27,1.89-1.42,8.16-6.92,13.28-4.8,4.47-10.16,5.52-12.16,5.8H237.31c-1.67-.17-8.34-1.02-13.61-6.75-4.52-4.92-5.3-10.48-5.48-12.33V24.23c-.03-1.15-.11-8.49,5.81-14.06,5.43-5.12,12-5.06,13.28-5.03Z"/>
        <path class="cls-3" d="M230.59,0h222.49c1.47,.1,8.76,.76,14.15,6.96,4.23,4.87,4.82,10.3,4.94,12.13V454.66c-.27,1.89-1.42,8.16-6.92,13.28-4.8,4.47-10.16,5.52-12.16,5.8H230.59c-1.67-.17-8.34-1.02-13.61-6.75-4.52-4.92-5.3-10.48-5.48-12.33V19.09c-.03-1.15-.11-8.49,5.81-14.06C222.74-.08,229.31-.03,230.59,0Z"/>
        <rect class="cls-1" x="227.73" y="51.86" width="228.21" height="366.3"/>
        <path class="cls-2" d="M316.71,440.03c0-.46,.06-3.11,2.23-5.14,1.96-1.85,4.31-1.92,4.83-1.92h36.11c.45,0,3.38,.11,5.41,2.54,1.54,1.84,1.64,3.9,1.65,4.52v14.3c0,.47-.05,2.97-2.07,4.99s-4.52,2.07-4.99,2.07h-36.11c-.51,0-2.91-.07-4.89-1.97-2.11-2.03-2.17-4.63-2.17-5.09v-14.3Z"/>
      </g>
      <g>
        <path class="cls-4" d="M5.14,458.08V235.59c.1-1.47,.76-8.76,6.96-14.15,4.87-4.23,10.3-4.82,12.13-4.94H459.79c1.89,.27,8.16,1.42,13.28,6.92,4.47,4.8,5.52,10.16,5.8,12.16v222.49c-.17,1.67-1.02,8.34-6.75,13.61-4.92,4.52-10.48,5.3-12.33,5.48H24.23c-1.15,.03-8.49,.11-14.06-5.81-5.12-5.43-5.06-12-5.03-13.28Z"/>
        <path class="cls-3" d="M0,464.79V242.3c.1-1.47,.76-8.76,6.96-14.15,4.87-4.23,10.3-4.82,12.13-4.94H454.66c1.89,.27,8.16,1.42,13.28,6.92,4.47,4.8,5.52,10.16,5.8,12.16v222.49c-.17,1.67-1.02,8.34-6.75,13.61-4.92,4.52-10.48,5.3-12.33,5.48H19.09c-1.15,.03-8.49,.11-14.06-5.81C-.08,472.64-.03,466.07,0,464.79Z"/>
        <rect class="cls-1" x="120.9" y="170.4" width="228.21" height="366.3" transform="translate(-118.54 588.55) rotate(-90)"/>
        <path class="cls-2" d="M440.03,378.67c-.46,0-3.11-.06-5.14-2.23-1.85-1.96-1.92-4.31-1.92-4.83v-36.11c0-.45,.11-3.38,2.54-5.41,1.84-1.54,3.9-1.64,4.52-1.65h14.3c.47,0,2.97,.05,4.99,2.07s2.07,4.52,2.07,4.99v36.11c0,.51-.07,2.91-1.97,4.89-2.03,2.11-4.63,2.17-5.09,2.17h-14.3Z"/>
      </g>
      <g>
        <path class="cls-4" d="M180.3,122.13c.48,.04,4.4,.26,7.22-2.84,3.19-3.5,2.04-8.02,1.96-8.33-1.24-10.19-2.47-20.39-3.71-30.58-1.24-3.81-4.83-6.36-8.75-6.25-4.13,.12-7.71,3.16-8.51,7.31-.1,2.52-.21,5.04-.31,7.57-1.83-2.03-21.91-23.59-51.86-19.84-22.65,2.84-41.93,19.03-49.36,41.46-.5,1.55-9.61,31.76,11.53,55.94,21.43,24.5,53.15,19.04,54.56,18.77,4.03-1.87,6.5-5.98,6.18-10.23-.36-4.8-4.21-8.85-9.24-9.53-17.07,1.32-32.83-6.73-40.09-20.38-7.26-13.64-3-27.16-2.26-29.38,4.83-14.52,19.28-27.78,36.84-26.94,18.15,.87,28.36,16.25,29.46,17.96-2.63,.68-5.26,1.36-7.88,2.04-.23,.12-4.9,2.64-5.2,7.64-.25,4.16,2.66,8.21,7.12,9.53,10.77-1.3,21.53-2.6,32.3-3.9Z"/>
        <path class="cls-3" d="M182.22,118.51c.48,.04,4.4,.26,7.22-2.84,3.19-3.5,2.04-8.02,1.96-8.33-1.24-10.19-2.47-20.39-3.71-30.58-1.24-3.81-4.83-6.36-8.75-6.25-4.13,.12-7.71,3.16-8.51,7.31-.1,2.52-.21,5.04-.31,7.57-1.83-2.03-21.91-23.59-51.86-19.84-22.65,2.84-41.93,19.03-49.36,41.46-.5,1.55-9.61,31.76,11.53,55.94,21.43,24.5,53.15,19.04,54.56,18.77,4.03-1.87,6.5-5.98,6.18-10.23-.36-4.8-4.21-8.85-9.24-9.53-17.07,1.32-32.83-6.73-40.09-20.38-7.26-13.64-3-27.16-2.26-29.38,4.83-14.52,19.28-27.78,36.84-26.94,18.15,.87,28.36,16.25,29.46,17.96-2.63,.68-5.26,1.36-7.88,2.04-.23,.12-4.9,2.64-5.2,7.64-.25,4.16,2.66,8.21,7.12,9.53,10.77-1.3,21.53-2.6,32.3-3.9Z"/>
      </g>
    </g>
  </g>
</svg>