<?xml version="1.0" encoding="UTF-8"?>
<svg id="Layer_2" data-name="Layer 2" xmlns="http://www.w3.org/2000/svg" viewBox="0 0 482.04 354.64">
  <defs>
    <style>
      .cls-1 {
        fill: #5fc8d4;
      }

      .cls-2 {
        fill: #51abaf;
      }
    </style>
  </defs>
  <g id="icon-back-space">
    <g>
      <g>
        <path class="cls-2" d="M469.83,34.35c-13.97-16.14-33.1-16.85-36.36-16.91H176.24c-6.06-.44-15.82-.32-26.19,4.13,0,0-7.7,3.3-14.66,9.45-12.49,11.03-55.42,60.47-111.5,129-2.41,2.76-9.69,11.84-10.39,25.55-.84,16.41,8.34,27.53,10.39,29.9,37.08,42.83,46.5,72.05,85.01,114.29,3.09,3.39,9,9.77,18.59,15.4,10.4,6.1,20.28,8.46,26.67,9.5H433.47c3.72-.17,20.89-1.39,34.54-15.97,12.23-13.06,13.75-28.42,14.03-32.68V64.97c-.26-4.5-1.63-18.38-12.21-30.61Zm-24.02,248.36c-.23,3.44-1.49,15.83-11.61,26.37-11.29,11.76-25.49,12.75-28.57,12.89H174.65c-5.39-.8-13.75-2.68-22.51-7.81-7.02-4.1-11.71-8.77-14.92-12.28-10.87-11.88-37.06-45.77-70.3-92.22-1.49-1.48-9.29-9.51-9.32-22.28-.04-12.89,7.86-21,9.32-22.46,21.14-20.97,56.54-73.68,92.22-104.08,1.96-1.67,6.22-5.24,12.74-7.87,8.45-3.4,16.26-3.45,21.04-3.09h212.73c2.7,.05,18.52,.62,30.07,13.65,8.75,9.87,9.88,21.07,10.1,24.7v194.47Z"/>
        <path class="cls-1" d="M456.38,17.08C442.42,.94,423.28,.23,420.02,.17H162.79c-6.06-.44-15.82-.32-26.19,4.13,0,0-7.7,3.3-14.66,9.45-12.49,11.03-55.42,60.47-111.5,129-2.41,2.76-9.69,11.84-10.39,25.55-.84,16.41,8.34,27.53,10.39,29.9,37.08,42.83,46.5,72.05,85.01,114.29,3.09,3.39,9,9.77,18.59,15.4,10.4,6.1,20.28,8.46,26.67,9.5H420.02c3.72-.17,20.89-1.39,34.54-15.97,12.23-13.06,13.75-28.42,14.03-32.68V47.69c-.26-4.5-1.63-18.38-12.21-30.61Zm-24.02,248.36c-.23,3.44-1.49,15.83-11.61,26.37-11.29,11.76-25.49,12.75-28.57,12.89H161.19c-5.39-.8-13.75-2.68-22.51-7.81-7.02-4.1-11.71-8.77-14.92-12.28-10.87-11.88-37.06-45.77-70.3-92.22-1.49-1.48-9.29-9.51-9.32-22.28-.04-12.89,7.86-21,9.32-22.46,21.14-20.97,56.54-73.68,92.22-104.08,1.96-1.67,6.22-5.24,12.74-7.87,8.45-3.4,16.26-3.45,21.04-3.09h212.73c2.7,.05,18.52,.62,30.07,13.65,8.75,9.87,9.88,21.07,10.1,24.7v194.47Z"/>
      </g>
      <g>
        <path class="cls-2" d="M282.37,149.55l-56.68-59.74c-7.21-6.18-17.66-5.34-23.02,.81-4.33,4.97-4.85,12.81-.97,19.1,19.23,19.87,38.47,39.73,57.7,59.6l-57.7,60.4c-5.24,6.49-4.81,15.96,.97,21.93,5.82,6,15.36,6.69,22,1.56,19.23-19.23,38.47-38.47,57.7-57.7l58.21,57.7c7.89,5.9,18.71,5.15,25.15-1.27,5.5-5.48,6.94-14.23,3.45-21.71-20.77-19.57-41.53-39.15-62.3-58.72l62.3-60.76c3.18-7.41,1.25-15.96-4.61-20.99-6.51-5.59-16.51-5.68-23.48,.06-19.57,19.91-39.15,39.83-58.72,59.74Z"/>
        <path class="cls-1" d="M267.01,144.18l-56.68-59.74c-7.21-6.18-17.66-5.34-23.02,.81-4.33,4.97-4.85,12.81-.97,19.1,19.23,19.87,38.47,39.73,57.7,59.6l-57.7,60.4c-5.24,6.49-4.81,15.96,.97,21.93,5.82,6,15.36,6.69,22,1.56,19.23-19.23,38.47-38.47,57.7-57.7l58.21,57.7c7.89,5.9,18.71,5.15,25.15-1.27,5.5-5.48,6.94-14.23,3.45-21.71-20.77-19.57-41.53-39.15-62.3-58.72l62.3-60.76c3.18-7.41,1.25-15.96-4.61-20.99-6.51-5.59-16.51-5.68-23.48,.06-19.57,19.91-39.15,39.83-58.72,59.74Z"/>
      </g>
    </g>
  </g>
</svg>