<?xml version="1.0" encoding="UTF-8"?>
<svg id="Layer_2" data-name="Layer 2" xmlns="http://www.w3.org/2000/svg" viewBox="0 0 483.88 478.88">
  <defs>
    <style>
      .cls-1 {
        fill: #fff;
      }

      .cls-2 {
        fill: #bdc1c0;
      }

      .cls-3 {
        fill: #5fc8d4;
      }

      .cls-4 {
        fill: #51abaf;
      }
    </style>
  </defs>
  <g id="icon-rotate-phone-horizontal">
    <g>
      <g>
        <path class="cls-4" d="M478.74,237.31v222.49c-.1,1.47-.76,8.76-6.96,14.15-4.87,4.23-10.3,4.82-12.13,4.94H24.09c-1.89-.27-8.16-1.42-13.28-6.92-4.47-4.8-5.52-10.16-5.8-12.16V237.31c.17-1.67,1.02-8.34,6.75-13.61,4.92-4.52,10.48-5.3,12.33-5.48H459.65c1.15-.03,8.49-.11,14.06,5.81,5.12,5.43,5.06,12,5.03,13.28Z"/>
        <path class="cls-3" d="M483.88,230.59v222.49c-.1,1.47-.76,8.76-6.96,14.15-4.87,4.23-10.3,4.82-12.13,4.94H29.23c-1.89-.27-8.16-1.42-13.28-6.92-4.47-4.8-5.52-10.16-5.8-12.16V230.59c.17-1.67,1.02-8.34,6.75-13.61,4.92-4.52,10.48-5.3,12.33-5.48H464.79c1.15-.03,8.49-.11,14.06,5.81,5.12,5.43,5.06,12,5.03,13.28Z"/>
        <rect class="cls-1" x="134.77" y="158.69" width="228.21" height="366.3" transform="translate(590.71 92.96) rotate(90)"/>
        <path class="cls-2" d="M43.86,316.71c.46,0,3.11,.06,5.14,2.23,1.85,1.96,1.92,4.31,1.92,4.83v36.11c0,.45-.11,3.38-2.54,5.41-1.84,1.54-3.9,1.64-4.52,1.65h-14.3c-.47,0-2.97-.05-4.99-2.07s-2.07-4.52-2.07-4.99v-36.11c0-.51,.07-2.91,1.97-4.89,2.03-2.11,4.63-2.17,5.09-2.17h14.3Z"/>
      </g>
      <g>
        <path class="cls-4" d="M25.81,5.14H248.29c1.47,.1,8.76,.76,14.15,6.96,4.23,4.87,4.82,10.3,4.94,12.13V459.79c-.27,1.89-1.42,8.16-6.92,13.28-4.8,4.47-10.16,5.52-12.16,5.8H25.81c-1.67-.17-8.34-1.02-13.61-6.75-4.52-4.92-5.3-10.48-5.48-12.33V24.23c-.03-1.15-.11-8.49,5.81-14.06,5.43-5.12,12-5.06,13.28-5.03Z"/>
        <path class="cls-3" d="M19.09,0H241.58c1.47,.1,8.76,.76,14.15,6.96,4.23,4.87,4.82,10.3,4.94,12.13V454.66c-.27,1.89-1.42,8.16-6.92,13.28-4.8,4.47-10.16,5.52-12.16,5.8H19.09c-1.67-.17-8.34-1.02-13.61-6.75C.97,462.07,.19,456.51,0,454.66V19.09c-.03-1.15-.11-8.49,5.81-14.06C11.24-.08,17.81-.03,19.09,0Z"/>
        <rect class="cls-1" x="16.23" y="51.86" width="228.21" height="366.3"/>
        <path class="cls-2" d="M105.21,440.03c0-.46,.06-3.11,2.23-5.14,1.96-1.85,4.31-1.92,4.83-1.92h36.11c.45,0,3.38,.11,5.41,2.54,1.54,1.84,1.64,3.9,1.65,4.52v14.3c0,.47-.05,2.97-2.07,4.99s-4.52,2.07-4.99,2.07h-36.11c-.51,0-2.91-.07-4.89-1.97-2.11-2.03-2.17-4.63-2.17-5.09v-14.3Z"/>
      </g>
      <g>
        <path class="cls-4" d="M361.75,180.3c-.04,.48-.26,4.4,2.84,7.22,3.5,3.19,8.02,2.04,8.33,1.96,10.19-1.24,20.39-2.47,30.58-3.71,3.81-1.24,6.36-4.83,6.25-8.75-.12-4.13-3.16-7.71-7.31-8.51-2.52-.1-5.04-.21-7.57-.31,2.03-1.83,23.59-21.91,19.84-51.86-2.84-22.65-19.03-41.93-41.46-49.36-1.55-.5-31.76-9.61-55.94,11.53-24.5,21.43-19.04,53.15-18.77,54.56,1.87,4.03,5.98,6.5,10.23,6.18,4.8-.36,8.85-4.21,9.53-9.24-1.32-17.07,6.73-32.83,20.38-40.09,13.64-7.26,27.16-3,29.38-2.26,14.52,4.83,27.78,19.28,26.94,36.84-.87,18.15-16.25,28.36-17.96,29.46-.68-2.63-1.36-5.26-2.04-7.88-.12-.23-2.64-4.9-7.64-5.2-4.16-.25-8.21,2.66-9.53,7.12,1.3,10.77,2.6,21.53,3.9,32.3Z"/>
        <path class="cls-3" d="M365.38,182.22c-.04,.48-.26,4.4,2.84,7.22,3.5,3.19,8.02,2.04,8.33,1.96,10.19-1.24,20.39-2.47,30.58-3.71,3.81-1.24,6.36-4.83,6.25-8.75-.12-4.13-3.16-7.71-7.31-8.51-2.52-.1-5.04-.21-7.57-.31,2.03-1.83,23.59-21.91,19.84-51.86-2.84-22.65-19.03-41.93-41.46-49.36-1.55-.5-31.76-9.61-55.94,11.53-24.5,21.43-19.04,53.15-18.77,54.56,1.87,4.03,5.98,6.5,10.23,6.18,4.8-.36,8.85-4.21,9.53-9.24-1.32-17.07,6.73-32.83,20.38-40.09,13.64-7.26,27.16-3,29.38-2.26,14.52,4.83,27.78,19.28,26.94,36.84-.87,18.15-16.25,28.36-17.96,29.46-.68-2.63-1.36-5.26-2.04-7.88-.12-.23-2.64-4.9-7.64-5.2-4.16-.25-8.21,2.66-9.53,7.12,1.3,10.77,2.6,21.53,3.9,32.3Z"/>
      </g>
    </g>
  </g>
</svg>