<svg width="321" height="329" viewBox="0 0 321 329" fill="none" xmlns="http://www.w3.org/2000/svg">
<circle cx="160.324" cy="160.324" r="160.324" fill="#47D8E0"/>
<g filter="url(#filter0_d_1_827)">
<path d="M229.281 23.2604C239.445 27.5561 248.998 32.0272 256.15 40.2499C270.044 56.2247 277.362 74.3441 274.262 95.8583C273.487 101.238 272.723 106.619 271.735 112.792C269.367 117.471 267.218 121.356 265.069 125.241C264.391 125.017 263.713 124.792 263.036 124.567C262.167 117.88 261.537 111.151 260.38 104.514C257.982 90.7604 254.64 77.2806 243.427 67.6637C241.411 65.9347 237.843 64.6024 235.355 65.0614C216.003 68.6332 196.865 66.4304 177.758 63.4835C173.621 62.8456 170.37 63.434 167.41 66.3361C157.599 75.9568 150.002 86.921 147.936 100.79C146.908 107.693 146.975 114.76 146.518 122.226C144.248 118.605 142.178 115.303 140.108 112.001C139.275 107.386 138.243 102.796 137.645 98.1509C135.562 81.9747 139.58 66.8804 146.52 52.0733C136.042 43.2453 128.292 32.8008 125.765 18.6258C125.848 18.068 126.215 17.7984 126.215 17.7984C135.487 26.0816 146.631 26.8258 158.121 25.3097C168.167 23.9842 178.137 22.0793 188.548 20.2105C197.072 20.0243 205.21 19.6976 213.294 20.2202C218.518 20.558 223.662 22.1394 229.281 23.2604Z" fill="#FEC670"/>
<path d="M260.235 257.96C269.795 257.579 279.362 256.802 288.913 256.968C294.435 257.064 299.169 260.013 301.174 265.567C303.206 271.193 301.194 276.412 296.889 279.855C290.611 284.878 283.699 289.131 276.905 293.475C273.741 295.498 270.22 296.963 266.546 298.928C262.329 300.619 258.426 302.064 253.674 303.594C249.781 304.65 246.756 305.684 243.689 306.576C235.606 308.927 227.505 311.216 219.283 313.15C217.899 309.437 216.422 306.167 215.445 302.753C214.451 299.279 212.578 298.778 209.584 300.128C208.398 300.663 207.105 300.96 205.5 301.263C202.872 300.888 200.605 300.616 197.854 300.229C190.341 299.248 183.286 298.552 176.292 297.465C169.388 296.393 163.283 297.514 158.245 302.652C146.75 297.05 135.182 291.589 123.813 285.742C121.056 284.323 118.765 281.807 116.592 279.484C112.919 275.556 110.869 270.87 112.829 265.505C114.768 260.199 119.279 257.176 124.562 257.041C133.908 256.803 143.28 257.575 153.446 258.083C155.761 259.245 157.273 260.248 158.861 261.781C159.378 269.858 159.924 277.402 160.218 284.955C160.386 289.25 162.39 290.988 166.611 290.978C193.474 290.919 220.338 290.907 247.201 290.995C251.768 291.009 253.643 289.036 253.809 284.563C254.11 276.444 254.705 268.336 255.532 260.214C257.336 259.456 258.786 258.708 260.235 257.96Z" fill="#99BB98"/>
<path d="M219.411 313.531C227.505 311.217 235.606 308.927 243.69 306.576C246.756 305.684 249.782 304.65 253.251 303.671C255.043 312.716 252.985 316.392 243.802 320.649C234.591 320.285 225.784 319.94 216.995 319.327C215.067 319.193 213.206 318.102 211.249 316.919C213.926 315.434 216.668 314.482 219.411 313.531Z" fill="#8C6C41"/>
<path d="M139.678 112.13C142.178 115.303 144.248 118.605 146.518 122.226C146.975 114.76 146.908 107.693 147.936 100.79C150.002 86.9209 157.599 75.9568 167.41 66.3361C170.37 63.434 173.621 62.8456 177.757 63.4835C196.865 66.4304 216.003 68.6332 235.355 65.0614C237.842 64.6023 241.411 65.9347 243.427 67.6637C254.64 77.2805 257.982 90.7604 260.38 104.514C261.537 111.151 262.167 117.88 263.036 124.567C263.713 124.792 264.391 125.017 265.069 125.241C267.218 121.356 269.367 117.471 271.751 113.223C277.667 118.024 276.537 127.637 269.304 133.079C266.809 134.957 263.673 135.975 260.864 137.451C259.063 138.397 256.944 139.107 255.619 140.53C245.365 151.543 232.762 158.161 217.15 161.18C209.294 161.233 202.416 161.252 195.538 161.271C180.075 157.779 166.639 150.734 155.838 138.911C155.051 138.05 153.243 137.842 151.901 137.815C143.481 137.648 135.001 130.039 134.102 121.715C133.633 117.366 134.596 113.813 139.678 112.13ZM188.939 111.447C188.995 111.328 189.052 111.21 189.108 111.091C188.972 111.148 188.836 111.205 188.873 110.433C182.035 104.864 174.555 105.181 171.322 110.118C176.735 110.429 182.766 110.776 188.939 111.447ZM237.341 107.192C232.398 106.059 227.898 106.343 223.743 110.76C230.03 110.321 235.262 109.955 241.397 109.526C239.95 108.566 239.094 107.999 237.341 107.192Z" fill="#FED9A0"/>
<path d="M217.062 165.631C232.218 167.509 243.22 176.487 251.755 188.018C258.617 197.289 263.554 207.985 269.714 218.69C265.803 220.817 263.069 222.304 259.603 223.929C258.413 224.14 257.955 224.213 257.236 223.866C255.433 222.902 253.893 221.89 252.35 221.885C222.147 221.791 191.943 221.761 161.741 221.952C160.006 221.963 158.285 223.972 156.209 224.988C155.161 224.815 154.461 224.706 153.762 224.597C143.98 219.341 143.714 219.224 148.157 209.145C155.478 192.539 165.837 178.336 182.38 169.761C186.14 167.812 190.521 167.062 195.507 165.926C203.285 165.938 210.174 165.784 217.062 165.631Z" fill="#FE847D"/>
<path d="M158.151 303.053C163.284 297.515 169.389 296.393 176.293 297.466C183.287 298.552 190.342 299.248 197.599 300.513C198.313 306.156 198.786 311.402 199.319 316.642C199.343 316.885 199.896 317.073 200.202 317.287C198.323 318.329 196.482 320.179 194.559 320.27C187.241 320.616 179.872 320.777 172.569 320.296C161.574 319.571 156.007 312.8 158.151 303.053Z" fill="#8C6C42"/>
<path d="M153.608 225.042C154.462 224.706 155.161 224.815 156.301 225.497C157.423 237.797 158.103 249.524 158.784 261.251C157.273 260.248 155.762 259.246 153.936 258.097C146.822 247.164 150.395 236.324 153.608 225.042Z" fill="#FAD79F"/>
<path d="M219.283 313.15C216.668 314.482 213.925 315.434 210.914 316.645C210.044 316.924 209.443 316.943 208.344 316.479C207.185 311.118 206.523 306.242 205.861 301.365C207.105 300.96 208.398 300.663 209.584 300.128C212.579 298.778 214.451 299.279 215.446 302.754C216.423 306.167 217.899 309.437 219.283 313.15Z" fill="#FCD8A0"/>
<path d="M205.499 301.263C206.523 306.242 207.185 311.119 207.895 316.43C205.685 316.969 203.427 317.072 200.685 317.231C199.895 317.073 199.343 316.885 199.318 316.642C198.786 311.402 198.312 306.156 198.083 300.627C200.605 300.616 202.872 300.889 205.499 301.263Z" fill="#FCF8F1"/>
<path d="M217.049 165.193C210.174 165.784 203.285 165.938 195.958 165.893C195.54 164.515 195.562 163.335 195.561 161.713C202.416 161.252 209.294 161.233 216.704 161.229C217.169 162.414 217.103 163.584 217.049 165.193Z" fill="#E5C290"/>
<path d="M125.658 18.1941C125.528 17.6614 125.588 17.0026 125.649 16.3438C125.813 16.6492 125.977 16.9547 126.179 17.5293C126.215 17.7983 125.847 18.068 125.658 18.1941Z" fill="#FEC670"/>
<path d="M257.498 224.287C257.956 224.213 258.414 224.14 259.219 224.043C260.992 232.569 262.739 241.085 263.634 249.69C263.877 252.028 261.549 254.634 260.319 257.539C258.786 258.708 257.337 259.457 255.603 259.737C256.045 247.609 256.771 235.948 257.498 224.287Z" fill="#FAD79F"/>
<path d="M257.236 223.866C256.771 235.948 256.044 247.609 255.247 259.747C254.705 268.336 254.11 276.444 253.809 284.563C253.643 289.036 251.768 291.01 247.201 290.995C220.338 290.908 193.474 290.919 166.611 290.979C162.39 290.988 160.386 289.25 160.218 284.955C159.924 277.402 159.378 269.858 158.861 261.781C158.103 249.524 157.422 237.797 156.649 225.561C158.285 223.972 160.007 221.963 161.741 221.952C191.943 221.761 222.147 221.791 252.35 221.885C253.893 221.89 255.433 222.902 257.236 223.866Z" fill="#8C8B8B"/>
<path d="M188.797 111.123C182.766 110.776 176.735 110.429 171.322 110.118C174.555 105.181 182.034 104.864 188.81 110.812C188.748 111.191 188.797 111.123 188.797 111.123Z" fill="#6C6459"/>
<path d="M237.79 107.312C239.094 107.999 239.949 108.566 241.397 109.526C235.262 109.955 230.029 110.321 223.742 110.76C227.898 106.343 232.398 106.059 237.79 107.312Z" fill="#676156"/>
<path d="M188.724 111.227C188.836 111.205 188.972 111.148 189.107 111.091C189.051 111.209 188.995 111.328 188.868 111.285C188.797 111.123 188.747 111.191 188.724 111.227Z" fill="#6C6459"/>
</g>
<defs>
<filter id="filter0_d_1_827" x="108.071" y="16.3438" width="197.899" height="312.305" filterUnits="userSpaceOnUse" color-interpolation-filters="sRGB">
<feFlood flood-opacity="0" result="BackgroundImageFix"/>
<feColorMatrix in="SourceAlpha" type="matrix" values="0 0 0 0 0 0 0 0 0 0 0 0 0 0 0 0 0 0 127 0" result="hardAlpha"/>
<feOffset dy="4"/>
<feGaussianBlur stdDeviation="2"/>
<feComposite in2="hardAlpha" operator="out"/>
<feColorMatrix type="matrix" values="0 0 0 0 0 0 0 0 0 0 0 0 0 0 0 0 0 0 0.25 0"/>
<feBlend mode="normal" in2="BackgroundImageFix" result="effect1_dropShadow_1_827"/>
<feBlend mode="normal" in="SourceGraphic" in2="effect1_dropShadow_1_827" result="shape"/>
</filter>
</defs>
</svg>
