<svg width="198" height="313" viewBox="0 0 198 313" fill="none" xmlns="http://www.w3.org/2000/svg">
<g filter="url(#filter0_d_1_829)">
<path d="M121.281 7.26038C131.445 11.5561 140.998 16.0272 148.15 24.2499C162.044 40.2247 169.362 58.3441 166.262 79.8583C165.487 85.2377 164.723 90.6189 163.735 96.7925C161.367 101.471 159.218 105.356 157.069 109.241C156.391 109.017 155.713 108.792 155.036 108.567C154.167 101.88 153.537 95.1512 152.38 88.5143C149.982 74.7604 146.64 61.2806 135.427 51.6637C133.411 49.9347 129.843 48.6024 127.355 49.0614C108.003 52.6332 88.8651 50.4304 69.7575 47.4835C65.6212 46.8456 62.3697 47.434 59.4102 50.3361C49.5994 59.9568 42.0022 70.921 39.9361 84.7899C38.9076 91.6934 38.9752 98.7602 38.5181 106.226C36.2479 102.605 34.1779 99.303 32.1079 96.0013C31.2749 91.386 30.243 86.7964 29.6449 82.1509C27.562 65.9747 31.5796 50.8804 38.5204 36.0733C28.0421 27.2453 20.2922 16.8008 17.7646 2.62579C17.8475 2.06804 18.2152 1.79837 18.2152 1.79837C27.4868 10.0816 38.6307 10.8258 50.1208 9.30974C60.1671 7.98422 70.1369 6.07925 80.5484 4.21055C89.0716 4.02429 97.2104 3.69758 105.294 4.22023C110.518 4.55799 115.662 6.13944 121.281 7.26038Z" fill="#FEC670"/>
<path d="M152.235 241.96C161.796 241.579 171.362 240.802 180.913 240.968C186.435 241.064 191.169 244.013 193.174 249.567C195.206 255.193 193.194 260.412 188.889 263.855C182.611 268.878 175.699 273.131 168.905 277.475C165.741 279.498 162.22 280.963 158.546 282.928C154.329 284.619 150.426 286.064 145.674 287.594C141.781 288.65 138.756 289.684 135.689 290.576C127.606 292.927 119.505 295.216 111.283 297.15C109.899 293.437 108.422 290.167 107.445 286.753C106.451 283.279 104.578 282.778 101.584 284.128C100.398 284.663 99.1048 284.96 97.4995 285.263C94.8718 284.888 92.6051 284.616 89.854 284.229C82.3413 283.248 75.2864 282.552 68.2923 281.465C61.3883 280.393 55.2832 281.514 50.2453 286.652C38.7504 281.05 27.1824 275.589 15.8133 269.742C13.0557 268.323 10.7647 265.807 8.59234 263.484C4.91947 259.556 2.8688 254.87 4.82928 249.505C6.76793 244.199 11.2793 241.176 16.562 241.041C25.908 240.803 35.2798 241.575 45.4455 242.083C47.7615 243.245 49.2727 244.248 50.8609 245.781C51.3783 253.858 51.9236 261.402 52.2183 268.955C52.3859 273.25 54.3899 274.988 58.611 274.978C85.4742 274.919 112.338 274.907 139.201 274.995C143.768 275.009 145.643 273.036 145.809 268.563C146.11 260.444 146.705 252.336 147.532 244.214C149.336 243.456 150.786 242.708 152.235 241.96Z" fill="#99BB98"/>
<path d="M111.411 297.531C119.505 295.217 127.606 292.927 135.69 290.576C138.756 289.684 141.782 288.65 145.251 287.671C147.043 296.716 144.985 300.392 135.802 304.649C126.591 304.285 117.784 303.94 108.995 303.327C107.067 303.193 105.206 302.102 103.249 300.919C105.926 299.434 108.668 298.482 111.411 297.531Z" fill="#8C6C41"/>
<path d="M31.6776 96.13C34.1779 99.3029 36.2479 102.605 38.518 106.226C38.9752 98.7602 38.9075 91.6934 39.936 84.7899C42.0022 70.9209 49.5993 59.9568 59.4101 50.3361C62.3696 47.434 65.6211 46.8456 69.7574 47.4835C88.8651 50.4304 108.003 52.6332 127.355 49.0614C129.842 48.6023 133.411 49.9347 135.427 51.6637C146.64 61.2805 149.982 74.7604 152.38 88.5143C153.537 95.1512 154.167 101.88 155.036 108.567C155.713 108.792 156.391 109.017 157.069 109.241C159.218 105.356 161.367 101.471 163.751 97.2227C169.667 102.024 168.537 111.637 161.304 117.079C158.809 118.957 155.673 119.975 152.864 121.451C151.063 122.397 148.944 123.107 147.619 124.53C137.365 135.543 124.762 142.161 109.15 145.18C101.294 145.233 94.4157 145.252 87.5376 145.271C72.075 141.779 58.6392 134.734 47.8377 122.911C47.0511 122.05 45.2433 121.842 43.9007 121.815C35.4813 121.648 27.0007 114.039 26.1023 105.715C25.6328 101.366 26.5959 97.8128 31.6776 96.13ZM80.9391 95.447C80.9954 95.3283 81.0517 95.2095 81.1079 95.0908C80.9722 95.1479 80.8364 95.205 80.8729 94.433C74.0345 88.8639 66.5548 89.1814 63.3219 94.1182C68.7354 94.4293 74.7664 94.776 80.9391 95.447ZM129.341 91.192C124.398 90.0589 119.898 90.3429 115.743 94.7603C122.03 94.3208 127.262 93.9551 133.397 93.5262C131.95 92.566 131.094 91.9989 129.341 91.192Z" fill="#FED9A0"/>
<path d="M109.062 149.631C124.218 151.509 135.22 160.487 143.755 172.018C150.617 181.289 155.554 191.985 161.714 202.69C157.803 204.817 155.069 206.304 151.603 207.929C150.413 208.14 149.955 208.213 149.236 207.866C147.433 206.902 145.893 205.89 144.35 205.885C114.147 205.791 83.9429 205.761 53.7406 205.952C52.0064 205.963 50.2849 207.972 48.209 208.988C47.161 208.815 46.4614 208.706 45.7618 208.597C35.9805 203.341 35.7141 203.224 40.1571 193.145C47.4781 176.539 57.8372 162.336 74.3797 153.761C78.1397 151.812 82.5214 151.062 87.5069 149.926C95.2852 149.938 102.174 149.784 109.062 149.631Z" fill="#FE847D"/>
<path d="M50.1505 287.053C55.2837 281.515 61.3887 280.393 68.2927 281.466C75.2869 282.552 82.3417 283.248 89.5992 284.513C90.313 290.156 90.7864 295.402 91.3187 300.642C91.3433 300.885 91.8955 301.073 92.202 301.287C90.3231 302.329 88.4825 304.179 86.5585 304.27C79.2412 304.616 71.8717 304.777 64.5686 304.296C53.5741 303.571 48.0069 296.8 50.1505 287.053Z" fill="#8C6C42"/>
<path d="M45.6082 209.042C46.4619 208.706 47.1614 208.815 48.3013 209.497C49.4225 221.797 50.1035 233.524 50.7844 245.251C49.2732 244.248 47.7619 243.246 45.9356 242.097C38.8225 231.164 42.3947 220.324 45.6082 209.042Z" fill="#FAD79F"/>
<path d="M111.283 297.15C108.668 298.482 105.925 299.434 102.914 300.645C102.044 300.924 101.443 300.943 100.344 300.479C99.1854 295.118 98.5231 290.242 97.8608 285.365C99.1051 284.96 100.398 284.663 101.584 284.128C104.579 282.778 106.451 283.279 107.446 286.754C108.423 290.167 109.899 293.437 111.283 297.15Z" fill="#FCD8A0"/>
<path d="M97.4994 285.263C98.5226 290.242 99.1849 295.119 99.8953 300.43C97.6853 300.969 95.4271 301.072 92.6852 301.231C91.895 301.073 91.3427 300.885 91.3181 300.642C90.7859 295.402 90.3125 290.156 90.083 284.627C92.6049 284.616 94.8717 284.889 97.4994 285.263Z" fill="#FCF8F1"/>
<path d="M109.049 149.193C102.174 149.784 95.2854 149.938 87.9576 149.893C87.5404 148.515 87.5625 147.335 87.561 145.713C94.4156 145.252 101.294 145.233 108.704 145.229C109.169 146.414 109.103 147.584 109.049 149.193Z" fill="#E5C290"/>
<path d="M17.6575 2.1941C17.5279 1.66138 17.5883 1.00257 17.6486 0.34375C17.813 0.649237 17.9775 0.954725 18.1785 1.52928C18.2152 1.79834 17.8475 2.06801 17.6575 2.1941Z" fill="#FEC670"/>
<path d="M149.498 208.287C149.956 208.213 150.414 208.14 151.219 208.043C152.992 216.569 154.739 225.085 155.634 233.69C155.877 236.028 153.549 238.634 152.319 241.539C150.786 242.708 149.337 243.457 147.603 243.737C148.045 231.609 148.771 219.948 149.498 208.287Z" fill="#FAD79F"/>
<path d="M149.236 207.866C148.771 219.948 148.044 231.609 147.247 243.747C146.705 252.336 146.11 260.444 145.809 268.563C145.643 273.036 143.768 275.01 139.201 274.995C112.338 274.908 85.4743 274.919 58.6111 274.979C54.39 274.988 52.386 273.25 52.2185 268.955C51.9238 261.402 51.3784 253.858 50.8611 245.781C50.1032 233.524 49.4222 221.797 48.6494 209.561C50.285 207.972 52.0066 205.963 53.7408 205.952C83.9431 205.761 114.147 205.791 144.35 205.885C145.893 205.89 147.433 206.902 149.236 207.866Z" fill="#8C8B8B"/>
<path d="M80.7974 95.1227C74.7663 94.776 68.7352 94.4293 63.3218 94.1182C66.5547 89.1815 74.0344 88.8639 80.8101 94.8122C80.7475 95.1913 80.7974 95.1227 80.7974 95.1227Z" fill="#6C6459"/>
<path d="M129.79 91.3119C131.094 91.9989 131.949 92.566 133.397 93.5262C127.262 93.9551 122.029 94.3208 115.742 94.7603C119.898 90.3429 124.398 90.0589 129.79 91.3119Z" fill="#676156"/>
<path d="M80.7236 95.2266C80.8359 95.2049 80.9717 95.1478 81.1074 95.0908C81.0511 95.2095 80.9948 95.3282 80.8678 95.2847C80.7969 95.1226 80.7471 95.1912 80.7236 95.2266Z" fill="#6C6459"/>
</g>
<defs>
<filter id="filter0_d_1_829" x="0.0712891" y="0.34375" width="197.899" height="312.305" filterUnits="userSpaceOnUse" color-interpolation-filters="sRGB">
<feFlood flood-opacity="0" result="BackgroundImageFix"/>
<feColorMatrix in="SourceAlpha" type="matrix" values="0 0 0 0 0 0 0 0 0 0 0 0 0 0 0 0 0 0 127 0" result="hardAlpha"/>
<feOffset dy="4"/>
<feGaussianBlur stdDeviation="2"/>
<feComposite in2="hardAlpha" operator="out"/>
<feColorMatrix type="matrix" values="0 0 0 0 0 0 0 0 0 0 0 0 0 0 0 0 0 0 0.25 0"/>
<feBlend mode="normal" in2="BackgroundImageFix" result="effect1_dropShadow_1_829"/>
<feBlend mode="normal" in="SourceGraphic" in2="effect1_dropShadow_1_829" result="shape"/>
</filter>
</defs>
</svg>
