<svg width="286" height="278" viewBox="0 0 286 278" fill="none" xmlns="http://www.w3.org/2000/svg">
<path d="M154.203 261.867C151.875 262.214 149.547 262.857 147.217 262.863C119.807 262.94 92.3972 262.921 64.4672 262.95C46.4854 262.94 29.0235 262.922 11.5619 262.855C9.53786 262.847 7.51491 262.562 4.93277 261.861C3.786 261.091 3.19796 260.865 2.60991 260.639C2.60991 260.639 2.58507 260.648 2.59614 260.12C2.23427 246.85 1.77172 234.109 1.55049 221.365C1.49428 218.127 2.20542 214.876 2.91517 211.819C24.3123 222.191 47.094 223.457 70.3328 224.882C76.9985 224.567 83.1679 224.294 89.8662 224.008C101.911 222.798 113.591 222.423 124.896 220.172C135.993 217.963 146.708 213.848 157.586 211.083C157.209 224.273 156.989 236.957 156.377 249.623C156.179 253.73 154.957 257.787 154.203 261.867Z" fill="#92614B"/>
<path d="M2.56222 211.63C2.20366 214.875 1.49252 218.127 1.54873 221.365C1.76995 234.109 2.2325 246.85 2.61027 260.107C1.84517 257.604 1.07527 254.585 0.28418 251.071C0.302183 237.581 0.341375 224.587 0.750746 211.128C1.60136 210.986 2.08178 211.308 2.56222 211.63Z" fill="#715548"/>
<path d="M2.80225 260.895C3.19693 260.865 3.78497 261.091 4.57129 261.569C4.17826 261.598 3.58694 261.374 2.80225 260.895Z" fill="#715548"/>
<path d="M168.549 181.62C165.583 183.491 162.616 185.362 159.217 186.806C158.754 178.963 158.604 171.546 158.739 164.133C158.829 159.21 156.776 157.009 151.773 157.091C142.677 157.241 133.577 157.132 124.478 157.132C114.083 157.131 114.083 157.131 113.977 146.982C113.901 139.777 112.354 138.232 105.074 138.202C88.736 138.133 72.398 138.084 56.0601 138.027C48.8729 127.766 40.5166 118.121 34.712 107.131C15.216 70.2208 38.4533 28.163 77.5365 21.3669C101.042 17.2795 119.967 25.8718 135.396 43.3221C135.999 44.0033 136.555 44.7256 137.686 46.1031C152.039 28.3356 170.339 19.2102 193.778 20.6732C194.292 22.6724 194.23 24.218 193.694 25.7584C189.283 25.4125 185.346 25.0717 181.41 24.731C181.329 25.0457 181.248 25.3605 181.167 25.6753C185.514 27.5362 189.861 29.3972 194.279 31.7785C194.3 49.9222 194.251 67.5456 193.716 85.1483C175.392 84.9882 168.277 92.0568 168.919 109.68C168.818 112.689 168.79 115.224 168.352 118.068C167.717 124.435 167.324 130.494 167.346 136.551C167.355 138.975 168.279 141.395 168.782 144.335C168.701 157.109 168.625 169.365 168.549 181.62Z" fill="#F06262"/>
<path d="M168.622 182.137C168.628 169.364 168.703 157.108 169.209 144.219C170.388 142.712 171.759 141.857 171.785 140.964C171.984 134.195 172.05 127.415 171.796 120.652C171.759 119.651 169.822 118.721 168.764 117.759C168.792 115.223 168.82 112.688 169.144 109.374C172.122 104.766 174.006 99.3518 177.686 97.505C182.452 95.1133 188.65 95.5667 194.481 95.2004C197.509 95.3715 200.288 95.1374 203.529 94.855C220 94.8433 236.009 94.8801 252.522 94.9283C255.353 94.8553 257.682 94.771 260.534 94.7013C272.917 93.3511 281.806 97.0039 285.631 109.213C285.693 152.423 285.826 195.632 285.748 238.842C285.735 246.112 281.462 251.183 274.546 254.914C269.982 255.528 266.201 255.983 262.466 256.434C260.863 246.89 260.863 246.89 251.318 246.89C235.182 246.889 219.047 246.89 202.912 246.89C193.563 246.89 193.563 246.89 191.754 256.348C188.215 256.002 184.604 255.65 180.992 255.297C172.64 252.029 168.693 245.889 168.718 236.963C168.769 218.86 168.707 200.757 168.622 182.137ZM228.402 115.952C220.235 115.952 212.065 116.091 203.902 115.895C199.74 115.795 197.708 117.063 197.814 121.561C198.016 130.081 197.979 138.611 197.827 147.134C197.754 151.189 199.366 152.732 203.441 152.697C219.217 152.563 234.995 152.564 250.771 152.698C254.714 152.731 256.63 151.494 256.563 147.317C256.423 138.609 256.454 129.896 256.55 121.187C256.592 117.44 255.08 115.821 251.233 115.907C243.997 116.069 236.756 115.952 228.402 115.952ZM196.614 208.906C196.616 195.005 196.662 181.104 196.57 167.205C196.556 165.098 195.901 162.995 195.543 160.891C194.865 160.884 194.187 160.876 193.508 160.869C193.064 162.447 192.238 164.024 192.232 165.603C192.147 187.473 192.134 209.343 192.248 231.213C192.258 233.106 193.291 234.994 193.849 236.885C194.644 236.808 195.438 236.731 196.232 236.655C197.074 227.823 196.401 218.892 196.614 208.906ZM237.878 168.005C237.878 175.799 237.879 183.593 237.879 191.386C237.879 198.995 237.636 206.613 237.948 214.208C238.253 221.652 236.52 229.319 240.018 236.618C241.363 233.698 242.242 230.732 242.261 227.761C242.387 208.463 242.388 189.163 242.26 169.865C242.24 166.921 241.342 163.983 240.851 161.042C240.208 161.054 239.565 161.067 238.922 161.079C238.574 163.048 238.226 165.016 237.878 168.005ZM261.35 163.057C261.35 187.518 261.35 211.979 261.35 236.44C262.065 236.522 262.78 236.604 263.495 236.686C263.879 234.778 264.583 232.872 264.595 230.962C264.689 216.518 264.647 202.073 264.646 187.629C264.645 180.222 264.705 172.814 264.608 165.408C264.564 162.054 264.421 162.056 261.35 163.057ZM218.922 198.884C218.711 186.263 219.355 173.599 217.826 161.046C214.541 166.261 215.024 232.614 218.922 235.622C218.922 223.747 218.922 211.872 218.922 198.884Z" fill="#73D4CA"/>
<path d="M55.5764 138.088C72.3989 138.083 88.7369 138.132 105.075 138.201C112.355 138.231 113.902 139.776 113.978 146.981C114.084 157.131 114.084 157.13 124.479 157.131C133.577 157.131 142.678 157.24 151.774 157.09C156.777 157.008 158.83 159.209 158.74 164.132C158.605 171.545 158.755 178.962 158.855 186.923C158.843 190.775 158.76 194.081 158.372 198.232C157.912 201.06 157.755 203.043 157.405 205.359C155.307 207.052 153.591 208.957 151.469 209.689C131.478 216.585 110.769 219.594 89.6383 220.104C89.5583 216.728 89.5583 213.852 89.5583 210.866C82.392 210.866 76.064 210.866 69.2749 210.866C69.2749 214.394 69.2749 217.504 68.7697 220.609C58.4891 219.846 48.6615 219.491 38.9511 218.234C25.6995 216.518 12.6283 213.815 0.914821 206.813C0.914821 206.813 1.12262 206.551 1.16564 206.341C0.970672 205.778 0.73265 205.425 0.494644 205.072C0.441107 190.844 0.481966 176.614 0.276787 162.388C0.21486 158.093 2.21381 157.037 6.05533 157.085C16.7904 157.22 27.5283 157.131 38.2651 157.13C40.2526 157.13 42.2401 157.13 44.9448 157.13C44.9448 153.823 44.9443 151.114 44.9449 148.404C44.9471 138.295 44.9473 138.295 55.5764 138.088ZM76.115 157.094C84.255 157.11 92.4022 156.928 100.532 157.222C104.812 157.377 106.471 156.145 106.295 151.648C106.115 147.018 104.466 144.733 99.6815 144.951C96.7276 145.085 93.7608 144.907 90.8027 144.983C81.789 145.215 72.7767 145.501 62.7884 145.816C52.5493 145.981 51.2951 147.456 53.6729 156.995C60.7443 156.995 67.9106 156.995 76.115 157.094Z" fill="#815542"/>
<path d="M203.067 94.9039C200.289 95.1379 197.51 95.372 194.548 94.7992C193.392 92.7769 192.42 91.5614 191.868 90.871C192.725 88.7799 193.465 86.9743 194.205 85.1686C194.254 67.5453 194.303 49.9219 194.355 31.3236C194.296 28.8202 194.234 27.2918 194.171 25.7633C194.233 24.2177 194.295 22.6721 194.285 20.6698C194.271 16.6917 194.363 13.1703 194.383 9.64857C194.422 2.85027 195.821 0.575259 202.443 0.430857C218.972 0.0704098 235.522 0.0371528 252.048 0.473094C258.849 0.652496 260.165 2.86589 260.171 9.71728C260.193 34.3927 260.197 59.0681 260.187 84.6908C260.114 88.6544 260.062 91.6708 260.01 94.6871C257.682 94.7715 255.353 94.8558 252.472 94.4971C250.566 93.2369 249.307 92.129 247.842 91.6611C244.451 90.5776 240.796 90.1938 237.543 88.8261C229.972 85.6424 222.616 85.7192 215.081 88.8408C212.131 90.0628 208.855 90.4997 205.9 91.7115C204.718 92.1963 203.998 93.8061 203.067 94.9039ZM202.805 37.6611C202.805 53.5829 202.805 69.5046 202.805 86.534C205.794 85.178 207.495 84.5809 209.021 83.6858C219.662 77.4428 230.399 77.6333 241.288 82.9907C243.393 84.0267 245.602 84.8546 248.524 86.0983C249.454 84.4504 251.179 82.8091 251.193 81.1537C251.373 59.2805 251.226 37.4047 251.379 15.531C251.413 10.6284 249.242 8.92056 244.691 8.95858C235.223 9.03768 225.753 8.9803 216.284 8.98004C202.952 8.97969 202.952 8.98009 202.964 23.1662C202.993 25.5189 203.022 27.8716 202.808 31.0193C202.92 32.9513 203.032 34.8834 202.805 37.6611Z" fill="#2D2D2D"/>
<path d="M180.995 255.72C184.606 255.65 188.217 256.002 191.756 256.348C193.564 246.89 193.564 246.89 202.913 246.89C219.049 246.89 235.184 246.889 251.319 246.89C260.864 246.89 260.864 246.89 262.468 256.434C266.203 255.983 269.983 255.528 274.229 255.114C275.184 256.622 275.303 258.397 276.225 259.505C281.108 265.369 281.551 270.68 277.247 275.163C274.319 278.213 267.783 278.718 264.15 276.175C259.502 272.922 258.72 267.391 262.423 260.593C263.35 259.686 263.878 259.341 264.406 258.996C264.285 258.746 264.164 258.496 264.042 258.245C263.093 258.646 262.144 259.047 261.194 259.448C238.821 259.448 216.448 259.448 195.615 259.448C195.615 263.698 196.051 267.538 195.51 271.235C194.763 276.332 190.117 278.267 186.14 277.967C183.058 277.735 179.555 274.906 177.425 272.275C174.579 268.761 176.031 264.696 178.443 261.092C179.469 259.559 180.155 257.799 180.995 255.72ZM265.497 265.383C266.224 267.696 266.496 270.361 267.891 272.157C268.486 272.923 272.153 272.534 273.116 271.48C274.311 270.171 275.102 267.167 274.393 265.706C272.433 261.669 269.168 261.741 265.497 265.383ZM181.48 269.518C183.369 270.626 185.677 272.986 187.044 272.531C188.845 271.932 190.862 269.172 190.969 267.241C191.047 265.826 188.357 263.217 186.626 262.956C182.874 262.39 181.026 264.893 181.48 269.518Z" fill="#323230"/>
<path d="M0.719365 207.147C12.6311 213.815 25.7024 216.518 38.9539 218.234C48.6643 219.492 58.4919 219.847 68.8511 221.037C69.569 222.621 69.7031 223.772 69.8372 224.924C47.0946 223.457 24.3129 222.191 2.91579 211.819C2.08416 211.308 1.60374 210.986 0.831408 210.611C0.533365 209.532 0.527205 208.507 0.719365 207.147Z" fill="#654C42"/>
<path d="M89.7184 220.605C110.769 219.595 131.478 216.586 151.469 209.689C153.591 208.957 155.307 207.053 157.632 205.36C158.051 205.028 158.505 205.033 158.505 205.033C158.538 206.567 158.571 208.101 158.32 210.096C158.035 210.557 157.589 210.57 157.589 210.57C146.706 213.848 135.991 217.963 124.894 220.172C113.589 222.423 101.909 222.799 89.8428 223.576C89.4346 222.306 89.5764 221.456 89.7184 220.605Z" fill="#654C42"/>
<path d="M260.532 94.7015C260.06 91.6705 260.111 88.6541 260.262 85.2094C266.004 85.8605 272.287 85.7329 277.142 88.2994C284.632 92.2589 286.602 99.9623 285.698 108.721C281.804 97.0041 272.915 93.3513 260.532 94.7015Z" fill="#6AC0B5"/>
<path d="M157.588 211.082C157.593 210.569 158.039 210.556 158.262 210.552C158.559 225.57 158.774 240.593 158.544 255.61C158.512 257.674 156.272 259.704 154.629 261.808C154.959 257.786 156.181 253.729 156.379 249.622C156.99 236.956 157.211 224.272 157.588 211.082Z" fill="#745647"/>
<path d="M158.581 204.562C158.505 205.032 158.052 205.027 157.825 205.028C157.755 203.044 157.912 201.06 158.306 198.734C158.581 200.292 158.619 202.192 158.581 204.562Z" fill="#745647"/>
<path d="M0.47998 205.444C0.733949 205.425 0.97197 205.778 1.30255 206.439C1.08474 206.437 0.774383 206.126 0.47998 205.444Z" fill="#654C42"/>
<path d="M89.6408 220.104C89.5788 221.455 89.4369 222.306 89.3163 223.588C83.1682 224.293 76.9988 224.567 70.3331 224.882C69.7027 223.773 69.5687 222.621 69.356 221.042C69.2773 217.504 69.2773 214.395 69.2773 210.866C76.0665 210.866 82.3945 210.866 89.5608 210.866C89.5608 213.852 89.5608 216.728 89.6408 220.104Z" fill="#F6F6F6"/>
<path d="M193.718 85.1479C193.464 86.9742 192.724 88.7798 191.868 90.871C192.42 91.5613 193.392 92.7768 194.297 94.394C188.649 95.5671 182.452 95.1138 177.686 97.5054C174.006 99.3523 172.122 104.767 169.217 108.901C168.279 92.0564 175.394 84.9878 193.718 85.1479Z" fill="#6EBCB3"/>
<path d="M168.353 118.067C169.82 118.721 171.757 119.651 171.794 120.651C172.048 127.415 171.982 134.195 171.783 140.963C171.756 141.857 170.386 142.712 169.212 143.7C168.28 141.394 167.356 138.974 167.347 136.55C167.324 130.493 167.717 124.434 168.353 118.067Z" fill="#343C3B"/>
<path d="M193.695 25.7576C194.232 27.2912 194.295 28.8197 194.284 30.8027C189.863 29.3963 185.516 27.5354 181.168 25.6744C181.249 25.3597 181.331 25.0449 181.412 24.7301C185.348 25.0709 189.284 25.4116 193.695 25.7576Z" fill="#FD6F6F"/>
<path d="M228.96 115.952C236.756 115.953 243.998 116.069 251.233 115.908C255.08 115.822 256.592 117.441 256.551 121.188C256.455 129.897 256.424 138.61 256.563 147.318C256.63 151.494 254.714 152.732 250.772 152.698C234.996 152.565 219.217 152.564 203.441 152.698C199.366 152.732 197.754 151.189 197.827 147.134C197.979 138.612 198.016 130.082 197.815 121.562C197.708 117.063 199.741 115.795 203.903 115.895C212.065 116.091 220.235 115.953 228.96 115.952ZM201.887 136.505C201.888 139.651 201.98 142.801 201.865 145.943C201.754 148.963 202.913 150.283 206.081 150.262C220.169 150.166 234.257 150.171 248.345 150.257C251.466 150.276 252.609 149.064 252.552 145.972C252.416 138.571 252.307 131.158 252.589 123.766C252.745 119.668 251.466 118.185 247.255 118.299C237.808 118.553 228.348 118.301 218.896 118.408C213.571 118.468 206.041 116.819 203.509 119.589C200.635 122.734 202.233 129.955 201.887 136.505Z" fill="#3D4746"/>
<path d="M196.613 209.462C196.4 218.892 197.073 227.823 196.231 236.655C195.437 236.731 194.643 236.808 193.848 236.885C193.29 234.994 192.257 233.106 192.247 231.213C192.133 209.343 192.146 187.473 192.231 165.603C192.237 164.023 193.063 162.447 193.507 160.869C194.186 160.876 194.864 160.884 195.542 160.891C195.9 162.995 196.555 165.098 196.569 167.205C196.661 181.104 196.615 195.005 196.613 209.462Z" fill="#6AC3BA"/>
<path d="M237.877 167.495C238.225 165.016 238.573 163.048 238.921 161.079C239.564 161.067 240.207 161.054 240.85 161.042C241.341 163.983 242.239 166.921 242.259 169.865C242.387 189.163 242.386 208.463 242.261 227.761C242.241 230.732 241.362 233.698 240.018 236.618C236.519 229.319 238.252 221.652 237.947 214.208C237.635 206.613 237.878 198.995 237.878 191.386C237.878 183.593 237.877 175.799 237.877 167.495Z" fill="#6AC3BA"/>
<path d="M203.53 94.8551C203.999 93.8058 204.719 92.196 205.901 91.7111C208.857 90.4993 212.132 90.0624 215.082 88.8404C222.617 85.7189 229.973 85.6421 237.544 88.8257C240.797 90.1935 244.452 90.5773 247.844 91.6608C249.308 92.1286 250.567 93.2366 251.97 94.4854C236.011 94.8802 220.001 94.8435 203.53 94.8551Z" fill="#66BAB1"/>
<path d="M261.435 162.623C264.42 162.056 264.563 162.054 264.607 165.408C264.704 172.814 264.644 180.222 264.645 187.629C264.646 202.074 264.688 216.518 264.595 230.962C264.582 232.872 263.878 234.778 263.494 236.686C262.779 236.604 262.064 236.522 261.349 236.44C261.349 211.979 261.349 187.518 261.435 162.623Z" fill="#68C1B8"/>
<path d="M218.92 199.441C218.92 211.872 218.92 223.747 218.92 235.622C215.021 232.614 214.539 166.261 217.823 161.046C219.353 173.599 218.709 186.263 218.92 199.441Z" fill="#68C0B7"/>
<path d="M63.7661 145.767C72.779 145.502 81.7913 145.216 90.805 144.984C93.7631 144.908 96.7299 145.085 99.6838 144.951C104.468 144.734 106.117 147.019 106.298 151.649C106.473 156.146 104.814 157.378 100.534 157.223C92.4045 156.928 84.2573 157.11 75.4227 156.724C71.0741 152.825 67.4201 149.296 63.7661 145.767Z" fill="#EC6261"/>
<path d="M203.048 30.2246C203.019 27.8719 202.991 25.5192 203.57 22.861C232.701 30.7821 249.902 56.9607 247.76 85.7788C245.599 84.8549 243.391 84.027 241.285 82.9911C230.397 77.6337 219.659 77.4431 209.018 83.6861C207.492 84.5812 205.791 85.1784 202.803 86.5344C202.803 69.5049 202.803 53.5832 203.367 37.313C218.518 44.9842 229.949 56.094 237.608 71.1403C236.629 66.7484 235.369 62.5378 233.385 58.7004C226.654 45.6825 217.366 35.2479 203.048 30.2246Z" fill="#EC6261"/>
<path d="M202.93 30.6219C217.369 35.2477 226.657 45.6823 233.388 58.7003C235.372 62.5376 236.632 66.7482 237.611 71.1401C229.952 56.0938 218.521 44.9841 203.539 36.89C203.032 34.8836 202.92 32.9515 202.93 30.6219Z" fill="#FE7070"/>
<path d="M265.697 264.992C269.167 261.741 272.431 261.668 274.391 265.705C275.1 267.167 274.309 270.17 273.114 271.479C272.151 272.534 268.484 272.923 267.889 272.157C266.494 270.361 266.222 267.696 265.697 264.992Z" fill="#F8F8F8"/>
<path d="M181.333 269.108C181.024 264.893 182.871 262.39 186.624 262.956C188.355 263.217 191.044 265.826 190.966 267.242C190.86 269.172 188.842 271.932 187.041 272.531C185.674 272.987 183.367 270.626 181.333 269.108Z" fill="#F8F8F8"/>
<path d="M261.45 259.697C262.142 259.047 263.091 258.646 264.04 258.246C264.162 258.496 264.283 258.746 264.404 258.996C263.876 259.341 263.348 259.686 262.539 260.217C262.075 260.249 261.891 260.098 261.45 259.697Z" fill="#FFBC4E"/>
<path d="M201.886 135.953C202.232 129.954 200.633 122.733 203.508 119.588C206.04 116.818 213.569 118.467 218.894 118.407C228.347 118.301 237.806 118.553 247.253 118.298C251.465 118.184 252.744 119.667 252.588 123.765C252.306 131.158 252.414 138.57 252.551 145.971C252.608 149.064 251.465 150.276 248.343 150.256C234.256 150.17 220.167 150.165 206.08 150.261C202.912 150.282 201.753 148.962 201.864 145.942C201.979 142.8 201.887 139.65 201.886 135.953ZM237.198 136.068C239.196 136.068 241.193 136.068 243.535 136.068C243.416 133.973 243.328 132.431 243.239 130.867C232.292 130.867 221.784 130.867 210.924 130.867C211.027 132.735 211.112 134.274 211.211 136.068C219.8 136.068 227.956 136.068 237.198 136.068ZM233.383 139.517C228.64 139.517 223.897 139.517 219.154 139.517C219.163 140.153 219.172 140.788 219.181 141.424C224.336 141.424 229.492 141.424 234.647 141.424C234.557 140.816 234.467 140.208 233.383 139.517Z" fill="#FAFAFA"/>
<path d="M236.654 136.069C227.955 136.069 219.8 136.069 211.21 136.069C211.111 134.275 211.026 132.735 210.923 130.868C221.783 130.868 232.292 130.868 243.238 130.868C243.327 132.432 243.415 133.974 243.535 136.069C241.193 136.069 239.195 136.069 236.654 136.069Z" fill="#383838"/>
<path d="M233.879 139.559C234.466 140.208 234.556 140.816 234.646 141.424C229.491 141.424 224.335 141.424 219.18 141.424C219.171 140.789 219.162 140.153 219.153 139.517C223.896 139.517 228.639 139.517 233.879 139.559Z" fill="#595959"/>
</svg>
