<svg width="321" height="662" viewBox="0 0 321 662" fill="none" xmlns="http://www.w3.org/2000/svg">
<path d="M17.7948 306.156C15.3348 328.146 25.7748 347.936 27.1348 347.466C28.0148 347.166 25.5848 338.086 26.7448 323.296C27.6548 311.796 30.2848 302.626 31.0348 302.786C31.8848 302.976 28.2348 314.606 31.7548 328.226C33.5948 335.336 36.0148 337.676 35.9948 344.506C35.9948 346.396 35.9648 353.996 32.1348 357.826C26.9948 362.956 18.7948 357.486 18.2548 359.306C17.6948 361.186 25.4748 370.066 31.7548 367.696C40.2248 364.486 41.2548 342.516 42.4548 342.836C43.3448 343.076 44.0948 355.596 38.6948 367.206C34.6048 376.006 30.8348 376.016 27.1248 382.496C17.2248 399.786 26.9648 429.526 27.8948 429.356C28.4348 429.256 25.9748 419.086 29.0548 405.186C29.9048 401.346 33.8948 384.906 40.6248 384.466C42.7548 384.326 45.3448 385.766 46.0648 388.196C47.4448 392.876 40.8948 398.116 37.1548 405.186C27.3148 423.786 37.6548 453.776 39.0848 453.526C40.5848 453.266 35.6848 418.906 42.5848 415.856C43.8448 415.296 45.6348 415.716 46.4848 417.026C48.3548 419.866 44.6348 425.156 43.9448 431.926C42.6848 444.346 52.2048 456.116 53.6048 455.226C54.8948 454.406 48.8148 442.916 52.7248 434.446C55.0848 429.326 60.6348 426.336 62.6048 428.266C65.7248 431.336 60.2148 447.216 57.3348 455.506C52.1748 470.386 47.5748 476.926 48.9948 478.806C50.5248 480.836 58.1348 476.346 63.9248 469.256C74.7548 455.986 71.6348 442.886 78.1148 434.726C78.9048 433.736 79.7448 432.956 80.6648 432.356C83.3448 430.606 87.9948 428.906 90.6348 431.076C93.8448 433.716 93.2148 441.306 91.2048 446.316C87.4548 455.696 78.1648 457.866 78.7248 459.846C79.1948 461.496 86.3648 462.406 91.8948 458.256C101.045 451.366 98.5448 435.946 103.765 434.826C107.765 433.966 113.825 442.006 112.685 447.116C111.585 452.056 104.165 452.476 104.365 454.276C104.665 456.886 120.675 460.156 126.545 451.886C129.585 447.596 128.745 441.836 129.935 441.756C131.795 441.616 131.165 456.006 139.025 465.426C144.945 472.516 153.815 474.526 154.965 472.586C156.105 470.676 148.965 466.236 148.725 458.256C148.485 450.166 155.425 441.366 159.815 442.336C163.895 443.236 162.565 451.856 168.825 462.236C176.495 474.956 189.755 480.716 191.005 478.956C191.665 478.016 188.605 475.446 185.455 468.606C184.085 465.616 176.855 449.896 182.685 440.746C185.085 436.986 188.755 435.796 190.775 435.136C197.165 433.066 205.205 434.816 209.025 439.946C217.005 450.666 204.975 473.996 206.945 474.976C208.595 475.796 220.255 461.006 219.425 443.136C218.885 431.686 215.655 421.346 216.315 421.106C216.955 420.876 218.595 431.346 226.185 438.326C230.615 442.406 235.525 443.866 235.785 443.346C236.055 442.796 231.005 440.616 227.975 434.706C227.495 433.766 223.065 424.866 227.025 419.736C229.635 416.356 235.115 415.596 237.585 418.176C241.405 422.156 237.145 433.166 238.095 433.496C238.925 433.786 243.945 425.866 244.575 415.186C244.965 408.556 243.565 402.536 246.235 400.716C247.405 399.916 248.785 400.216 251.355 398.606C252.835 397.676 253.625 397.116 253.805 396.336C254.605 392.906 241.945 390.186 238.775 381.646C234.545 370.246 248.705 352.566 250.565 353.576C251.555 354.116 248.945 359.906 251.785 364.226C253.035 366.126 254.415 366.346 255.785 367.356C262.445 372.296 259.935 389.746 259.915 389.736C259.895 389.736 263.645 375.336 258.285 358.616C253.975 345.176 245.945 335.976 246.365 335.586C247.405 334.636 263.875 353.396 264.535 352.646C264.785 352.366 262.315 349.986 262.825 347.356C263.325 344.736 266.255 344.486 266.785 342.076C267.355 339.486 264.645 336.656 263.845 335.776C256.645 327.856 250.085 309.166 253.375 304.926C255.565 302.096 262.735 304.926 266.855 308.326C273.275 313.636 275.635 323.156 274.455 330.066C273.895 333.326 272.525 336.126 272.775 336.266C273.075 336.426 275.645 332.836 276.725 328.336C278.475 320.996 277.155 314.176 275.085 307.566C269.485 289.746 263.875 290.816 262.955 281.116C261.755 268.396 270.225 261.876 267.145 252.986C265.395 247.936 260.835 246.576 259.165 245.936C241.485 239.086 232.055 189.156 217.975 164.806C198.415 130.976 161.205 131.506 142.285 131.776C142.285 131.776 87.4448 132.556 49.1348 189.686C44.0348 197.286 37.1948 207.736 34.6548 223.766C32.0148 240.366 36.8148 245.216 34.6548 261.636C31.6548 284.466 20.0748 285.636 17.7748 306.156H17.7948Z" fill="#3FBFB6" stroke="#1D733A" stroke-miterlimit="10"/>
<path d="M95.6249 170.276C91.1049 172.036 70.7249 180.576 59.7249 205.476C52.0949 222.726 52.9149 238.926 53.5949 245.706" fill="#3FBFB6"/>
<path d="M95.6249 170.276C91.1049 172.036 70.7249 180.576 59.7249 205.476C52.0949 222.726 52.9149 238.926 53.5949 245.706" stroke="#1D733A" stroke-miterlimit="10"/>
<path d="M37.0647 272.336C33.1647 277.136 26.3247 286.956 23.5247 301.506C22.2447 308.156 22.1347 314.066 22.3947 318.686" fill="#3FBFB6"/>
<path d="M37.0647 272.336C33.1647 277.136 26.3247 286.956 23.5247 301.506C22.2447 308.156 22.1347 314.066 22.3947 318.686" stroke="#1D733A" stroke-miterlimit="10"/>
<path d="M47.2247 286.926C45.3747 288.716 37.9247 296.326 36.5047 309.286C35.4347 318.986 38.3247 326.466 39.6047 329.376" fill="#3FBFB6"/>
<path d="M47.2247 286.926C45.3747 288.716 37.9247 296.326 36.5047 309.286C35.4347 318.986 38.3247 326.466 39.6047 329.376" stroke="#1D733A" stroke-miterlimit="10"/>
<path d="M49.7649 267.476C52.4849 275.646 56.3849 290.706 54.8449 309.606C53.7849 322.576 50.5349 332.876 47.7949 339.746" fill="#3FBFB6"/>
<path d="M49.7649 267.476C52.4849 275.646 56.3849 290.706 54.8449 309.606C53.7849 322.576 50.5349 332.876 47.7949 339.746" stroke="#1D733A" stroke-miterlimit="10"/>
<path d="M129.825 151.666C123.555 156.736 97.0647 179.346 89.8247 221.266C84.7947 250.406 91.6247 273.996 95.0747 283.906" fill="#3FBFB6"/>
<path d="M129.825 151.666C123.555 156.736 97.0647 179.346 89.8247 221.266C84.7947 250.406 91.6247 273.996 95.0747 283.906" stroke="#1D733A" stroke-miterlimit="10"/>
<path d="M70.8448 250.966C66.8548 264.046 61.4848 287.746 65.5948 316.386C67.3748 328.796 70.5148 339.256 73.6748 347.476" fill="#3FBFB6"/>
<path d="M70.8448 250.966C66.8548 264.046 61.4848 287.746 65.5948 316.386C67.3748 328.796 70.5148 339.256 73.6748 347.476" stroke="#1D733A" stroke-miterlimit="10"/>
<path d="M172.255 147.956C177.165 150.096 195.055 158.656 205.785 181.366C214.405 199.606 213.655 216.916 213.055 223.586" fill="#3FBFB6"/>
<path d="M172.255 147.956C177.165 150.096 195.055 158.656 205.785 181.366C214.405 199.606 213.655 216.916 213.055 223.586" stroke="#1D733A" stroke-miterlimit="10"/>
<path d="M152.455 155.846C157.825 164.416 178.075 198.846 173.065 245.396C169.895 274.776 158.125 295.456 151.655 305.256" fill="#3FBFB6"/>
<path d="M152.455 155.846C157.825 164.416 178.075 198.846 173.065 245.396C169.895 274.776 158.125 295.456 151.655 305.256" stroke="#1D733A" stroke-miterlimit="10"/>
<path d="M138.315 176.726C128.825 197.916 111.435 244.146 115.685 303.866C118.005 336.426 126.015 362.576 133.055 380.426" fill="#3FBFB6"/>
<path d="M138.315 176.726C128.825 197.916 111.435 244.146 115.685 303.866C118.005 336.426 126.015 362.576 133.055 380.426" stroke="#1D733A" stroke-miterlimit="10"/>
<path d="M238.915 238.436C240.675 243.226 243.785 249.306 249.415 252.356C254.215 254.956 258.185 253.916 259.515 256.996C260.745 259.846 258.415 263.236 255.075 270.456C252.715 275.546 250.525 281.096 248.615 287.156" fill="#3FBFB6"/>
<path d="M238.915 238.436C240.675 243.226 243.785 249.306 249.415 252.356C254.215 254.956 258.185 253.916 259.515 256.996C260.745 259.846 258.415 263.236 255.075 270.456C252.715 275.546 250.525 281.096 248.615 287.156" stroke="#1D733A" stroke-miterlimit="10"/>
<path d="M231.245 285.296C231.645 291.776 233.335 306.556 242.555 321.026C249.295 331.596 257.195 337.516 261.945 340.516" fill="#3FBFB6"/>
<path d="M231.245 285.296C231.645 291.776 233.335 306.556 242.555 321.026C249.295 331.596 257.195 337.516 261.945 340.516" stroke="#1D733A" stroke-miterlimit="10"/>
<path d="M184.775 295.506C188.955 305.626 194.075 321.206 195.685 340.976C197.965 369.016 192.035 391.296 188.005 403.156" fill="#3FBFB6"/>
<path d="M184.775 295.506C188.955 305.626 194.075 321.206 195.685 340.976C197.965 369.016 192.035 391.296 188.005 403.156" stroke="#1D733A" stroke-miterlimit="10"/>
<path d="M144.375 289.946C141.085 302.666 135.635 330.186 142.755 363.256C147.915 387.246 157.615 404.456 164.165 414.296" fill="#3FBFB6"/>
<path d="M144.375 289.946C141.085 302.666 135.635 330.186 142.755 363.256C147.915 387.246 157.615 404.456 164.165 414.296" stroke="#1D733A" stroke-miterlimit="10"/>
<path d="M164.985 322.886C168.065 337.036 170.805 353.036 172.665 370.676C175.255 395.346 175.505 417.606 174.685 436.566" fill="#3FBFB6"/>
<path d="M164.985 322.886C168.065 337.036 170.805 353.036 172.665 370.676C175.255 395.346 175.505 417.606 174.685 436.566" stroke="#1D733A" stroke-miterlimit="10"/>
<path d="M192.855 232.406C201.535 246.046 216.485 273.416 221.945 312.216C226.505 344.596 222.535 371.296 219.115 386.916" fill="#3FBFB6"/>
<path d="M192.855 232.406C201.535 246.046 216.485 273.416 221.945 312.216C226.505 344.596 222.535 371.296 219.115 386.916" stroke="#1D733A" stroke-miterlimit="10"/>
<path d="M60.5349 463.826C64.7649 456.036 70.0349 444.386 73.3849 429.276C76.2849 416.216 76.8249 404.766 76.6649 396.296" fill="#3FBFB6"/>
<path d="M60.5349 463.826C64.7649 456.036 70.0349 444.386 73.3849 429.276C76.2849 416.216 76.8249 404.766 76.6649 396.296" stroke="#1D733A" stroke-miterlimit="10"/>
<path d="M65.1848 386.866C62.5748 388.256 56.9848 391.766 52.8748 399.116C46.5548 410.436 48.5648 422.326 49.0448 424.876" fill="#3FBFB6"/>
<path d="M65.1848 386.866C62.5748 388.256 56.9848 391.766 52.8748 399.116C46.5548 410.436 48.5648 422.326 49.0448 424.876" stroke="#1D733A" stroke-miterlimit="10"/>
<path d="M57.5247 346.976C57.8147 348.526 59.5847 358.996 53.4247 368.336C46.7147 378.506 36.2847 378.706 35.0947 378.706" fill="#3FBFB6"/>
<path d="M57.5247 346.976C57.8147 348.526 59.5847 358.996 53.4247 368.336C46.7147 378.506 36.2847 378.706 35.0947 378.706" stroke="#1D733A" stroke-miterlimit="10"/>
<path d="M92.5349 315.256C96.5449 321.306 107.115 338.916 107.855 364.576C108.655 392.716 97.1049 412.406 93.3549 418.286" fill="#3FBFB6"/>
<path d="M92.5349 315.256C96.5449 321.306 107.115 338.916 107.855 364.576C108.655 392.716 97.1049 412.406 93.3549 418.286" stroke="#1D733A" stroke-miterlimit="10"/>
<path d="M117.705 400.066C118.325 401.346 127.595 421.066 125.365 434.936C124.375 441.106 121.805 445.306 121.805 445.306C119.565 448.966 116.895 451.106 115.245 452.216" fill="#3FBFB6"/>
<path d="M117.705 400.066C118.325 401.346 127.595 421.066 125.365 434.936C124.375 441.106 121.805 445.306 121.805 445.306C119.565 448.966 116.895 451.106 115.245 452.216" stroke="#1D733A" stroke-miterlimit="10"/>
<path d="M149.405 411.756C147.025 415.116 140.085 425.756 139.855 441.336C139.685 452.356 142.965 460.696 144.835 464.716" fill="#3FBFB6"/>
<path d="M149.405 411.756C147.025 415.116 140.085 425.756 139.855 441.336C139.685 452.356 142.965 460.696 144.835 464.716" stroke="#1D733A" stroke-miterlimit="10"/>
<path d="M196.935 410.796C198.115 410.766 203.645 410.796 207.995 415.656C212.015 420.146 213.485 427.046 211.895 433.586" fill="#3FBFB6"/>
<path d="M196.935 410.796C198.115 410.766 203.645 410.796 207.995 415.656C212.015 420.146 213.485 427.046 211.895 433.586" stroke="#1D733A" stroke-miterlimit="10"/>
<path d="M144.875 209.656C140.025 217.106 133.065 229.726 128.935 247.146C124.245 266.916 125.375 283.736 126.655 293.356" fill="#3FBFB6"/>
<path d="M144.875 209.656C140.025 217.106 133.065 229.726 128.935 247.146C124.245 266.916 125.375 283.736 126.655 293.356" stroke="#1D733A" stroke-miterlimit="10"/>
<path d="M175.245 173.036C181.855 174.916 186.695 180.896 187.395 187.856C188.095 194.866 184.315 199.996 183.595 200.936" fill="#3FBFB6"/>
<path d="M175.245 173.036C181.855 174.916 186.695 180.896 187.395 187.856C188.095 194.866 184.315 199.996 183.595 200.936" stroke="#1D733A" stroke-miterlimit="10"/>
<path d="M147.495 477.216C149.895 462.806 160.825 451.396 174.655 448.676C190.025 445.656 205.985 453.956 212.725 468.856C212.665 475.856 212.435 481.736 212.205 486.146C211.905 491.936 211.565 496.316 211.125 501.896C211.075 502.526 210.425 510.746 209.665 518.366C208.195 533.106 206.355 547.186 204.255 560.586C200.475 571.546 189.845 578.406 178.755 577.106C167.805 575.816 159.005 566.886 157.525 555.506C154.185 529.416 150.835 503.316 147.495 477.226V477.216Z" fill="#595A5C"/>
<path d="M173.195 657.076C173.635 658.496 174.745 659.556 176.075 659.796C177.785 660.106 179.605 658.986 180.275 657.076C187.065 637.606 193.525 615.486 198.685 590.896C201.615 576.936 203.835 563.596 205.505 550.976C205.965 534.466 192.415 521.906 178.765 523.266C166.645 524.476 156.335 536.466 156.925 550.976C162.345 586.336 167.775 621.706 173.195 657.066V657.076Z" fill="#595A5C"/>
<path d="M134.435 478.896C132.035 464.486 121.105 453.076 107.275 450.356C91.9048 447.336 75.9448 455.636 69.2048 470.536C69.2648 477.536 69.4948 483.416 69.7248 487.826C70.0248 493.616 70.3648 497.996 70.8048 503.576C70.8548 504.206 71.5048 512.426 72.2648 520.046C73.7348 534.786 75.5748 548.866 77.6748 562.266C81.4548 573.226 92.0848 580.086 103.175 578.786C114.125 577.496 122.925 568.566 124.405 557.186C127.745 531.096 131.095 504.996 134.435 478.906V478.896Z" fill="#595A5C"/>
<path d="M108.725 658.746C108.285 660.166 107.175 661.226 105.845 661.466C104.135 661.776 102.315 660.656 101.645 658.746C94.855 639.276 88.395 617.156 83.235 592.566C80.305 578.606 78.085 565.266 76.415 552.646C75.955 536.136 89.505 523.576 103.155 524.936C115.275 526.146 125.585 538.136 124.995 552.646C119.575 588.006 114.145 623.376 108.725 658.736V658.746Z" fill="#595A5C"/>
<path d="M99.2849 337.806C103.665 334.706 105.635 329.316 104.235 324.486C102.475 318.416 96.3449 316.486 95.9149 316.366C80.9149 323.216 65.1749 330.966 48.8949 339.736C32.7749 348.426 17.7949 357.216 3.9449 365.896C-0.385104 371.416 -1.2251 378.866 1.7949 384.996C5.1649 391.836 12.7549 395.826 20.5749 394.756C27.9649 390.166 82.3949 349.766 99.2849 337.806Z" fill="#595A5C"/>
<path d="M95.6549 316.376C97.4349 314.056 113.505 293.776 141.375 293.836C169.065 293.906 185.015 314.006 186.815 316.366C195.065 340.136 203.205 369.826 208.035 404.536C212.255 434.876 212.975 462.076 212.155 484.906C210.305 486.606 193.255 501.836 170.995 497.136C158.485 494.496 150.575 486.886 147.445 483.476C146.395 484.026 144.085 485.046 141.025 484.946C138.385 484.856 136.405 483.966 135.375 483.426C131.955 486.886 123.795 494.176 111.185 496.716C89.0549 501.176 72.1149 487.226 69.8049 485.266C68.8349 461.826 69.5049 433.146 74.3549 400.866C79.3649 367.456 87.5249 338.996 95.6549 316.386V316.376Z" fill="#595A5C"/>
<path d="M95.655 316.376C95.005 316.196 87.095 339.806 80.945 366.346C78.135 378.436 75.995 389.986 74.365 400.856C73.225 408.476 71.195 423.356 70.125 442.536C68.935 463.776 69.205 485.236 69.815 485.256C70.615 485.276 69.215 449.086 76.165 402.086C83.575 351.976 96.465 316.606 95.655 316.376Z" fill="#818285"/>
<path d="M187.015 316.896C187.665 316.716 194.925 339.436 201.085 365.986C203.895 378.076 206.035 389.626 207.665 400.496C208.805 408.116 210.835 422.996 211.905 442.176C213.095 463.416 212.825 484.876 212.215 484.896C211.415 484.916 212.815 448.726 205.865 401.726C198.455 351.616 186.215 317.126 187.015 316.906V316.896Z" fill="#818285"/>
<path d="M142.045 329.346C191.762 329.346 232.065 288.796 232.065 238.776C232.065 188.755 191.762 148.206 142.045 148.206C92.3282 148.206 52.0249 188.755 52.0249 238.776C52.0249 288.796 92.3282 329.346 142.045 329.346Z" fill="#595A5C"/>
<path d="M141.745 329.206C138.895 329.256 135.795 329.156 132.495 328.836C124.445 328.056 117.585 326.186 112.145 324.196C119.915 325.966 129.965 327.536 141.715 327.566C153.705 327.596 163.945 326.026 171.815 324.246C167.215 325.966 161.315 327.696 154.325 328.596C149.655 329.206 145.415 329.326 141.745 329.206Z" fill="#818285"/>
<path d="M3.67497 386.896C0.574974 380.086 2.12497 372.036 7.49497 366.896C12.975 361.656 21.305 360.536 28.025 364.166C43.875 377.576 59.725 390.976 75.585 404.386C75.945 405.116 79.735 413.156 75.245 421.276C71.155 428.666 63.495 430.176 62.485 430.356C54.315 426.376 45.175 421.246 35.635 414.596C22.195 405.236 11.665 395.446 3.68497 386.896H3.67497Z" fill="#595A5C"/>
<path d="M50.2849 411.766C52.4349 404.456 59.3349 399.756 66.3749 400.446C72.3549 401.026 77.5349 405.416 79.3649 411.496C78.3549 424.926 77.3349 438.346 76.3249 451.776C76.2649 452.546 75.9949 452.966 75.7549 453.206C74.5749 454.406 71.5249 453.866 68.2349 451.666C66.7649 450.646 65.3349 449.496 63.9549 448.196C51.7049 436.666 50.3349 419.746 50.2749 411.766H50.2849Z" fill="#595A5C"/>
<path d="M175.905 341.466C171.215 338.846 168.695 333.696 169.565 328.746C170.665 322.516 176.565 319.956 176.975 319.786C192.625 325.006 209.095 331.036 226.215 338.026C243.165 344.946 258.995 352.096 273.695 359.256C278.585 364.286 280.215 371.606 277.865 378.016C275.245 385.176 268.115 389.946 260.225 389.726C252.395 385.946 193.975 351.566 175.905 341.476V341.466Z" fill="#595A5C"/>
<path d="M212.645 459.136C165.145 458.816 117.645 458.496 70.145 458.176C70.585 436.496 72.665 410.906 78.025 382.606C82.855 357.146 89.345 334.786 96.005 315.896C96.665 317.056 111.525 342.036 140.855 342.436C159.895 342.696 177.665 332.506 187.145 315.896C194.115 336.066 200.925 360.246 205.765 387.936C210.395 414.436 212.235 438.486 212.635 459.126L212.645 459.136Z" fill="#E63E96"/>
<path d="M204.895 383.396C183.715 395.146 162.525 406.896 141.345 418.646C120.225 406.846 99.1049 395.036 77.9949 383.236C75.5049 396.896 71.5049 421.146 68.9849 451.646C67.0849 474.596 53.4749 639.356 99.2049 652.966C106.685 655.196 113.545 652.726 116.375 651.436C153.295 634.686 141.155 530.516 141.935 530.506C142.695 530.506 131.455 630.166 169.785 649.146C172.755 650.616 177.525 652.976 183.135 651.816C216.225 644.976 220.635 527.976 214.775 454.256C212.275 422.736 207.775 397.666 204.905 383.396H204.895Z" fill="#50BC81"/>
<path d="M79.4949 374.916C78.2549 381.776 77.0149 388.636 75.7749 395.496C97.8149 407.046 119.855 418.596 141.895 430.146C141.915 423.126 141.935 416.106 141.955 409.086C121.135 397.696 100.315 386.306 79.4949 374.916Z" fill="#595A5C"/>
<path d="M203.415 375.476C204.685 382.316 205.955 389.156 207.225 395.996C185.445 407.386 163.675 418.766 141.895 430.156C141.915 423.136 141.935 416.116 141.955 409.096C162.445 397.886 182.925 386.686 203.415 375.476Z" fill="#595A5C"/>
<path d="M287.488 537.789L292.49 533.716L193.481 412.103L188.479 416.175L287.488 537.789Z" fill="#7057A4"/>
<path d="M308.792 559.453C309.327 559.017 306.799 555.025 303.144 550.536C299.49 546.048 296.094 542.763 295.558 543.199C295.023 543.634 297.551 547.626 301.206 552.115C304.86 556.603 308.256 559.889 308.792 559.453Z" fill="#EADA1C"/>
<path d="M318.924 545.789C319.249 545.18 315.37 542.48 310.262 539.759C305.153 537.038 300.749 535.327 300.424 535.936C300.1 536.545 303.978 539.245 309.087 541.966C314.195 544.687 318.599 546.398 318.924 545.789Z" fill="#EADA1C"/>
<path d="M310.081 527.979C315.708 526.622 320.138 524.978 319.976 524.307C319.814 523.636 315.121 524.192 309.495 525.549C303.868 526.906 299.438 528.55 299.6 529.221C299.762 529.892 304.454 529.336 310.081 527.979Z" fill="#EADA1C"/>
<path d="M305.831 517.883C310.721 514.787 314.386 511.804 314.017 511.221C313.648 510.638 309.384 512.675 304.494 515.771C299.604 518.867 295.939 521.85 296.308 522.434C296.677 523.017 300.941 520.98 305.831 517.883Z" fill="#EADA1C"/>
<path d="M294.301 566.581C294.964 566.387 294.181 561.727 292.554 556.172C290.927 550.618 289.07 546.272 288.408 546.466C287.745 546.661 288.528 551.321 290.155 556.875C291.782 562.43 293.639 566.775 294.301 566.581Z" fill="#EADA1C"/>
<path d="M278.65 554.331C281.121 549.097 282.618 544.615 281.993 544.32C281.369 544.025 278.86 548.029 276.389 553.263C273.918 558.497 272.422 562.979 273.046 563.274C273.67 563.569 276.179 559.565 278.65 554.331Z" fill="#EADA1C"/>
<path d="M269.63 548.111C273.654 543.951 276.514 540.189 276.018 539.709C275.522 539.229 271.858 542.213 267.833 546.373C263.809 550.533 260.949 554.294 261.445 554.774C261.941 555.254 265.606 552.271 269.63 548.111Z" fill="#EADA1C"/>
<path d="M218.395 258.066C216.005 258.576 207.005 260.806 200.635 269.206C195.525 275.946 194.935 282.906 194.855 285.576C195.245 288.686 195.445 293.776 193.315 299.226C189.435 309.126 181.815 310.066 179.335 316.986C174.555 330.326 194.805 349.216 196.305 348.306C197.485 347.586 188.225 334.016 191.315 331.516C194.415 329.016 207.705 339.416 208.285 338.616C208.655 338.116 202.845 334.846 199.965 328.286C198.105 324.046 197.415 318.306 199.295 317.306C200.725 316.556 204.245 318.186 213.605 329.256C217.315 323.776 224.155 312.056 225.585 295.676C227.155 277.696 221.335 263.986 218.385 258.066H218.395Z" fill="#3FBFB6" stroke="#1D733A" stroke-miterlimit="10"/>
<path d="M231.445 184.806C235.995 189.176 249.085 201.756 247.415 217.776C246.285 228.626 239.195 233.156 233.965 252.756C233.395 254.886 231.945 260.686 235.225 266.546C235.655 267.306 239.165 273.596 244.045 273.606C249.295 273.626 252.145 266.376 253.715 266.876C255.565 267.466 254.725 278.566 248.675 280.336C241.235 282.506 231.225 268.996 225.985 271.256C223.405 272.366 222.975 276.886 224.725 280.006C227.905 285.686 238.025 286.236 237.755 287.406C237.485 288.576 226.775 290.106 218.425 286.056C206.385 280.216 205.555 265.846 205.395 263.186C204.355 245.256 218.765 242.156 221.365 221.476C222.195 214.836 223.925 201.136 213.805 191.206C204.265 181.836 189.245 180.796 189.855 176.406C190.265 173.436 197.535 171.256 203.305 171.026C216.555 170.496 226.475 180.026 231.465 184.816L231.445 184.806Z" fill="#3FBFB6" stroke="#1D733A" stroke-miterlimit="10"/>
<path d="M137.375 150.476C144.655 141.166 158.275 136.876 168.085 140.386C179.135 144.336 177.395 155.326 189.385 160.086C200.965 164.686 208.745 156.886 215.565 162.576C220.905 167.026 220.625 175.556 220.335 184.386C220.115 191.176 219.915 197.386 215.755 203.106C210.245 210.686 203.265 209.876 202.225 215.266C201.125 220.946 208.575 223.326 208.395 231.666C208.355 233.326 207.935 239.216 203.025 242.476C198.065 245.776 192.175 243.956 191.365 243.696C201.805 235.546 203.435 230.036 202.755 226.396C201.675 220.626 194.655 219.056 194.825 213.906C195.005 208.706 202.225 208.166 205.725 200.936C209.515 193.106 206.865 181.756 201.635 179.756C196.375 177.746 192.275 186.656 184.325 185.736C175.375 184.706 174.815 172.756 166.105 170.656C154.365 167.836 144.895 187.006 137.375 184.106C130.745 181.556 127.845 162.676 137.375 150.476Z" fill="#3FBFB6" stroke="#1D733A" stroke-miterlimit="10"/>
<path d="M95.8548 199.536C100.465 195.596 103.685 190.496 102.415 186.806C100.705 181.816 90.4548 178.336 77.8548 182.696C58.5248 191.126 51.9348 200.726 49.6348 208.216C46.6448 217.946 51.1648 223.266 46.5748 236.346C42.2548 248.676 35.8248 250.656 36.9848 257.406C38.6248 266.996 52.3348 267.306 57.2448 277.746C59.7648 283.096 60.5748 292.416 49.7648 309.156C66.3348 294.486 69.5148 283.796 68.1548 276.126C66.2948 265.676 55.7148 259.236 58.3548 254.386C61.2448 249.076 74.9748 254.906 80.3548 248.336C84.8548 242.846 79.4248 235.556 81.0048 224.116C82.4548 213.616 89.1448 205.446 95.8648 199.526L95.8548 199.536Z" fill="#3FBFB6" stroke="#1D733A" stroke-miterlimit="10"/>
<path d="M137.375 184.106C139.555 181.626 145.775 173.876 146.325 162.346C146.725 153.936 143.925 147.516 142.335 144.466C114.185 135.636 101.965 139.686 95.9948 144.946C89.0848 151.036 90.7948 158.536 80.0548 168.626C70.4148 177.686 63.7648 176.606 61.6148 183.126C58.5648 192.386 70.6248 198.736 70.0848 210.196C69.8048 216.076 66.1548 224.726 48.6548 234.846C70.2948 229.116 78.1548 221.006 80.5448 213.576C83.8048 203.446 77.4148 193.046 82.0348 189.896C87.1048 186.446 96.5848 197.706 104.455 194.246C112.525 190.696 109.305 175.896 116.415 172.976C119.625 171.656 125.535 172.516 137.355 184.106H137.375Z" fill="#3FBFB6" stroke="#1D733A" stroke-miterlimit="10"/>
<path d="M70.7948 303.116C68.0548 303.656 62.2048 305.186 56.7348 309.936C49.9748 315.816 48.0148 322.956 47.4448 325.516" fill="#3FBFB6"/>
<path d="M70.7948 303.116C68.0548 303.656 62.2048 305.186 56.7348 309.936C49.9748 315.816 48.0148 322.956 47.4448 325.516" stroke="#1D733A" stroke-miterlimit="10"/>
<path d="M77.0647 313.346C73.6747 314.116 65.9947 316.366 59.4947 323.086C49.0747 333.856 50.0047 347.526 50.2047 349.866" fill="#3FBFB6"/>
<path d="M77.0647 313.346C73.6747 314.116 65.9947 316.366 59.4947 323.086C49.0747 333.856 50.0047 347.526 50.2047 349.866" stroke="#1D733A" stroke-miterlimit="10"/>
<path d="M84.0949 318.456C74.2649 320.536 70.7449 324.316 69.2849 327.226C65.7549 334.276 71.9249 341.196 68.2849 349.386C66.0749 354.336 61.4549 357.136 58.2449 358.636" fill="#3FBFB6"/>
<path d="M84.0949 318.456C74.2649 320.536 70.7449 324.316 69.2849 327.226C65.7549 334.276 71.9249 341.196 68.2849 349.386C66.0749 354.336 61.4549 357.136 58.2449 358.636" stroke="#1D733A" stroke-miterlimit="10"/>
<path d="M204.385 281.296C206.355 283.286 211.715 289.226 213.075 298.586C214.305 306.996 211.625 313.516 210.405 316.096" fill="#3FBFB6"/>
<path d="M204.385 281.296C206.355 283.286 211.715 289.226 213.075 298.586C214.305 306.996 211.625 313.516 210.405 316.096" stroke="#1D733A" stroke-miterlimit="10"/>
<path d="M199.475 298.156C197.805 299.916 193.175 305.246 192.565 313.286C192.225 317.816 193.285 321.476 194.125 323.656" fill="#3FBFB6"/>
<path d="M199.475 298.156C197.805 299.916 193.175 305.246 192.565 313.286C192.225 317.816 193.285 321.476 194.125 323.656" stroke="#1D733A" stroke-miterlimit="10"/>
<path d="M184.105 318.686C183.595 320.146 182.755 323.246 183.435 327.116C184.125 331.016 186.015 333.686 186.995 334.896" fill="#3FBFB6"/>
<path d="M184.105 318.686C183.595 320.146 182.755 323.246 183.435 327.116C184.125 331.016 186.015 333.686 186.995 334.896" stroke="#1D733A" stroke-miterlimit="10"/>
<path d="M245.155 289.506C245.405 294.476 245.215 300.686 243.815 307.666C241.375 319.896 236.305 329.126 232.455 334.896" fill="#3FBFB6"/>
<path d="M245.155 289.506C245.405 294.476 245.215 300.686 243.815 307.666C241.375 319.896 236.305 329.126 232.455 334.896" stroke="#1D733A" stroke-miterlimit="10"/>
<path d="M231.115 309.606C228.065 313.226 224.005 318.916 221.085 326.676C217.445 336.366 217.235 344.896 217.525 350.016" fill="#3FBFB6"/>
<path d="M231.115 309.606C228.065 313.226 224.005 318.916 221.085 326.676C217.445 336.366 217.235 344.896 217.525 350.016" stroke="#1D733A" stroke-miterlimit="10"/>
<path d="M134.775 159.966C134.215 159.476 124.345 151.066 111.775 154.596C102.655 157.156 95.8747 164.946 94.5947 174.366" fill="#3FBFB6"/>
<path d="M134.775 159.966C134.215 159.476 124.345 151.066 111.775 154.596C102.655 157.156 95.8747 164.946 94.5947 174.366" stroke="#1D733A" stroke-miterlimit="10"/>
<path d="M82.0649 178.036C76.9249 178.096 72.4149 181.046 70.7049 185.376C68.7149 190.446 71.5149 194.996 71.8649 195.546" fill="#3FBFB6"/>
<path d="M82.0649 178.036C76.9249 178.096 72.4149 181.046 70.7049 185.376C68.7149 190.446 71.5149 194.996 71.8649 195.546" stroke="#1D733A" stroke-miterlimit="10"/>
<path d="M150.495 168.716C150.705 167.846 152.865 159.416 160.395 156.566C168.065 153.666 178.325 157.686 183.105 167.016" fill="#3FBFB6"/>
<path d="M150.495 168.716C150.705 167.846 152.865 159.416 160.395 156.566C168.065 153.666 178.325 157.686 183.105 167.016" stroke="#1D733A" stroke-miterlimit="10"/>
<path d="M189.225 178.606C189.285 177.386 189.685 171.196 193.885 168.716C198.975 165.706 208.795 168.656 214.555 178.316" fill="#3FBFB6"/>
<path d="M189.225 178.606C189.285 177.386 189.685 171.196 193.885 168.716C198.975 165.706 208.795 168.656 214.555 178.316" stroke="#1D733A" stroke-miterlimit="10"/>
<path d="M228.355 198.196C230.445 202.186 235.645 213.406 233.475 227.986C230.975 244.816 220.325 254.956 217.145 257.776" fill="#3FBFB6"/>
<path d="M228.355 198.196C230.445 202.186 235.645 213.406 233.475 227.986C230.975 244.816 220.325 254.956 217.145 257.776" stroke="#1D733A" stroke-miterlimit="10"/>
<path d="M68.3449 233.326C65.9949 233.976 59.2849 236.166 54.2749 242.646C50.7249 247.236 49.6649 251.876 49.3049 254.296" fill="#3FBFB6"/>
<path d="M68.3449 233.326C65.9949 233.976 59.2849 236.166 54.2749 242.646C50.7249 247.236 49.6649 251.876 49.3049 254.296" stroke="#1D733A" stroke-miterlimit="10"/>
<path d="M56.3347 265.446C56.7347 265.596 61.7247 267.546 62.8547 272.606C63.6347 276.096 62.0847 278.876 61.6547 279.596" fill="#3FBFB6"/>
<path d="M56.3347 265.446C56.7347 265.596 61.7247 267.546 62.8547 272.606C63.6347 276.096 62.0847 278.876 61.6547 279.596" stroke="#1D733A" stroke-miterlimit="10"/>
<path d="M40.8949 275.096C41.5549 275.576 46.9349 279.636 47.0749 286.746C47.2149 294.316 41.2849 298.666 40.7249 299.056" fill="#3FBFB6"/>
<path d="M40.8949 275.096C41.5549 275.576 46.9349 279.636 47.0749 286.746C47.2149 294.316 41.2849 298.666 40.7249 299.056" stroke="#1D733A" stroke-miterlimit="10"/>
<path d="M276.195 380.106C278.555 373.006 276.155 365.166 270.275 360.626C264.265 355.996 255.865 355.766 249.565 360.096C235.225 375.116 220.895 390.126 206.555 405.146C206.275 405.906 203.365 414.306 208.685 421.896C213.535 428.806 221.315 429.496 222.345 429.566C230.045 424.746 238.585 418.666 247.365 411.036C259.725 400.296 269.155 389.446 276.185 380.096L276.195 380.106Z" fill="#595A5C"/>
<path d="M232.495 409.786C229.585 402.746 222.225 398.806 215.295 400.236C209.405 401.456 204.725 406.366 203.555 412.606C205.995 425.846 208.425 439.096 210.865 452.336C211.005 453.096 211.315 453.486 211.585 453.706C212.885 454.776 215.855 453.916 218.905 451.376C220.255 450.206 221.555 448.906 222.785 447.476C233.745 434.706 233.305 417.736 232.505 409.796L232.495 409.786Z" fill="#595A5C"/>
<path d="M100.095 220.796C103.775 216.166 106.875 215.136 109.045 215.066C113.135 214.946 115.175 218.196 121.575 220.076C125.065 221.096 128.125 221.216 130.165 221.146" stroke="#818285" stroke-width="3" stroke-miterlimit="10"/>
<path d="M155.565 208.626C158.425 207.156 162.495 204.846 167.015 201.466C172.495 197.366 174.425 194.836 177.395 195.026C179.625 195.166 182.825 196.876 186.345 204.686" stroke="#818285" stroke-width="3" stroke-miterlimit="10"/>
<path d="M105.285 264.166C105.285 264.166 108.345 263.626 111.675 264.166L109.795 262.616C109.795 262.616 105.835 263.076 105.275 264.166H105.285Z" fill="#FFDE11"/>
<path d="M89.4548 228.996C89.4548 228.996 90.3348 232.956 100.005 236.586C100.005 236.586 105.945 239.336 108.355 227.136C108.355 227.136 99.4548 227.796 89.8848 218.126C89.8848 218.126 89.6148 225.216 102.805 230.656C102.805 230.656 103.575 231.316 102.755 231.806C102.755 231.806 95.1648 232.846 89.4548 229.006V228.996Z" fill="#FFDE11"/>
<path d="M112.015 264.166C118.753 264.166 124.215 255.619 124.215 245.076C124.215 234.533 118.753 225.986 112.015 225.986C105.277 225.986 99.8149 234.533 99.8149 245.076C99.8149 255.619 105.277 264.166 112.015 264.166Z" fill="white"/>
<path d="M194.135 228.996C194.135 228.996 193.255 232.956 183.585 236.586C183.585 236.586 177.645 239.336 175.235 227.136C175.235 227.136 184.135 227.796 193.705 218.126C193.705 218.126 193.975 225.216 180.785 230.656C180.785 230.656 180.015 231.316 180.835 231.806C180.835 231.806 188.425 232.846 194.135 229.006V228.996Z" fill="#FFDE11"/>
<path d="M178.815 264.166C178.815 264.166 175.755 263.626 172.425 264.166L174.305 262.616C174.305 262.616 178.265 263.076 178.825 264.166H178.815Z" fill="#FFDE11"/>
<path d="M171.575 264.166C178.313 264.166 183.775 255.619 183.775 245.076C183.775 234.533 178.313 225.986 171.575 225.986C164.837 225.986 159.375 234.533 159.375 245.076C159.375 255.619 164.837 264.166 171.575 264.166Z" fill="white"/>
<path d="M112.275 264.166C117.56 264.166 121.845 257.329 121.845 248.896C121.845 240.462 117.56 233.626 112.275 233.626C106.989 233.626 102.705 240.462 102.705 248.896C102.705 257.329 106.989 264.166 112.275 264.166Z" fill="#231F20"/>
<path d="M106.525 241.216C107.862 241.216 108.945 239.519 108.945 237.426C108.945 235.333 107.862 233.636 106.525 233.636C105.188 233.636 104.105 235.333 104.105 237.426C104.105 239.519 105.188 241.216 106.525 241.216Z" fill="white"/>
<path d="M171.505 264.166C176.868 264.166 181.215 257.329 181.215 248.896C181.215 240.462 176.868 233.626 171.505 233.626C166.142 233.626 161.795 240.462 161.795 248.896C161.795 257.329 166.142 264.166 171.505 264.166Z" fill="#231F20"/>
<path d="M166.415 241.216C167.751 241.216 168.835 239.519 168.835 237.426C168.835 235.333 167.751 233.636 166.415 233.636C165.078 233.636 163.995 235.333 163.995 237.426C163.995 239.519 165.078 241.216 166.415 241.216Z" fill="white"/>
<path opacity="0.57" d="M100.735 279.326C106.965 279.326 112.015 277.996 112.015 276.356C112.015 274.715 106.965 273.386 100.735 273.386C94.5051 273.386 89.4548 274.715 89.4548 276.356C89.4548 277.996 94.5051 279.326 100.735 279.326Z" fill="#F7B1C4"/>
<path opacity="0.57" d="M185.675 279.326C191.905 279.326 196.955 277.996 196.955 276.356C196.955 274.715 191.905 273.386 185.675 273.386C179.445 273.386 174.395 274.715 174.395 276.356C174.395 277.996 179.445 279.326 185.675 279.326Z" fill="#F7B1C4"/>
<path d="M127.425 286.726C131.455 288.826 139.845 292.416 150.235 291.106C153.425 290.706 156.215 289.906 158.535 289.036C159.275 289.946 160.965 292.276 161.305 295.716C161.735 300.166 159.605 303.386 159.005 304.246C158.135 303.276 155.925 301.076 152.325 300.096C149.635 299.366 147.355 299.626 146.105 299.866C143.745 300.556 140.525 301.776 137.115 304.016C134.135 305.966 131.945 308.076 130.435 309.776C129.945 309.526 123.615 306.116 122.835 298.716C122.095 291.726 126.945 287.186 127.445 286.736L127.425 286.726Z" fill="#818285"/>
<path d="M206.465 144.846C202.385 121.686 198.295 98.5157 194.215 75.3557C193.065 68.8457 191.925 62.1557 193.205 55.6657C194.485 49.1857 198.765 44.9157 205.145 41.1157C215.615 38.2657 222.115 49.0757 225.755 60.3957C225.925 71.2457 219.625 81.0157 213.575 90.0157C220.555 81.1457 227.595 72.1757 232.325 61.9357C237.065 51.6957 239.355 39.9157 236.385 29.0257C229.755 16.7457 218.005 5.78572 203.435 0.295718C189.155 -1.26428 176.205 3.45572 160.175 11.9057C149.525 20.0857 141.585 31.2357 134.315 42.5357C118.235 67.5157 104.275 98.0457 93.2649 125.896C129.925 138.266 167.775 144.706 206.465 144.846Z" fill="#50BC81"/>
<path d="M242.475 161.416C239.925 160.206 234.125 157.296 231.965 156.256C215.535 148.326 201.025 141.316 187.715 136.656C174.105 131.886 164.265 130.566 146.515 127.836C126.985 124.846 108.795 123.706 92.305 123.706C61.615 124.716 30.785 135.916 3.59497 156.006C47.975 154.536 87.405 187.926 131.075 195.536C158.885 200.376 187.445 194.616 215.695 193.686C243.955 192.766 273.765 197.556 295.205 220.106C283.795 193.156 264.815 172.046 242.465 161.416H242.475Z" fill="#50BC81"/>
</svg>
