<?xml version="1.0" encoding="UTF-8"?>
<svg id="Layer_2" data-name="Layer 2" xmlns="http://www.w3.org/2000/svg" viewBox="0 0 512 450.73">
  <defs>
    <style>
      .cls-1 {
        fill: #fff;
      }

      .cls-2 {
        fill: #818285;
      }

      .cls-3 {
        fill: #231f20;
      }

      .cls-4 {
        fill: #464646;
      }

      .cls-5 {
        fill: #60c8d4;
      }

      .cls-6 {
        fill: #f7b1c4;
        opacity: .57;
      }

      .cls-7 {
        fill: #5fc8d4;
        opacity: .5;
      }
    </style>
  </defs>
  <g id="animal-abeja">
    <g>
      <g>
        <g>
          <path class="cls-7" d="M251.07,264.41c-83.91-73.04-172.91-96.7-217.17-63.96C16.54,213.29-1.51,240.43,.1,270.78c1.95,36.65,31.78,63.11,52.08,73.45,51.4,26.19,133.4-4.17,198.89-79.82Z"/>
          <path class="cls-5" d="M251.07,264.41c-18.72,2.69-40.14,4.59-63.79,4.65-32.54,.09-61.2-3.32-84.91-7.74,17.13,5.31,40.14,10.57,67.63,11.81,33.64,1.51,61.6-3.57,81.07-8.72Z"/>
          <path class="cls-5" d="M251.07,264.41c-5.21-4.16-12.34-9.03-21.45-13.18-11.68-5.32-22.3-7.51-29.97-8.46,4.49,.21,9.54,.81,14.98,2.12,17.29,4.15,29.49,13.25,36.44,19.53Z"/>
          <path class="cls-5" d="M190.65,272.9c-9.48-10.31-29.43-28.93-61.55-38.89-22.64-7.02-42.87-7.12-56.03-6.12,13-.24,29.79,.86,48.32,5.91,34.35,9.37,57.13,27.55,69.25,39.09Z"/>
          <path class="cls-5" d="M172.68,267.75c-12.33,6.64-37.28,17.7-70.88,16.59-23.69-.78-42.83-7.31-54.94-12.56,12.2,4.48,28.43,8.94,47.59,10.24,35.52,2.4,63-7.33,78.23-14.27Z"/>
          <path class="cls-5" d="M58.26,301.95c6.64-.58,15.16-1.98,24.62-5.25,12.13-4.2,21.33-9.94,27.53-14.54-3.39,2.95-7.47,6-12.3,8.8-15.38,8.92-30.49,10.74-39.85,10.99Z"/>
        </g>
        <path class="cls-5" d="M125.47,192.16c-5.7-2.07-45.14-15.69-82.97,6.69-24.51,14.5-35.18,36.32-38.79,44.79,3-9.46,10.24-27.27,27.53-41.11,39.19-31.36,91.47-11.47,94.23-10.37Z"/>
        <path class="cls-5" d="M211.82,302.92c-13.64,10.08-31.07,21.23-52.34,31.24-17.47,8.22-33.78,13.91-47.92,17.9,14.03-2.9,32.15-8.04,51.94-17.58,21-10.12,37.04-21.9,48.32-31.56Z"/>
      </g>
      <g>
        <g>
          <path class="cls-7" d="M297.62,245.46c20.18-109.4,75.09-183.34,130.11-185.27,21.58-.76,52.6,9.23,70.24,33.99,21.3,29.89,14.42,69.17,4.98,89.9-23.91,52.5-106.98,79.8-205.33,61.38Z"/>
          <path class="cls-5" d="M297.62,245.46c16.32-9.55,34.26-21.4,52.81-36.08,25.51-20.19,45.82-40.71,61.63-58.93-10.1,14.82-24.83,33.27-45.57,51.35-25.38,22.13-50.42,35.56-68.87,43.65Z"/>
          <path class="cls-5" d="M297.62,245.46c1.49-6.5,4.04-14.75,8.58-23.67,5.82-11.44,12.78-19.77,18.18-25.28-3.38,2.96-6.96,6.58-10.4,10.98-10.94,14.01-14.82,28.73-16.35,37.97Z"/>
          <path class="cls-5" d="M350.19,214.48c1-13.97,5.01-40.96,23.94-68.75,13.34-19.59,29.11-32.26,40.03-39.67-10.32,7.91-22.78,19.22-34.13,34.71-21.04,28.72-27.55,57.13-29.85,73.71Z"/>
          <path class="cls-5" d="M361.05,199.27c13.78-2.48,40.19-9.36,65.8-31.15,18.05-15.36,28.96-32.39,35.17-44.04-6.76,11.1-16.68,24.7-30.87,37.65-26.3,23.99-53.86,33.49-70.1,37.55Z"/>
          <path class="cls-5" d="M471.87,154.78c-5.56,3.68-13.09,7.89-22.54,11.22-12.11,4.27-22.88,5.5-30.6,5.77,4.49,.19,9.58,.04,15.1-.78,17.59-2.6,30.55-10.58,38.03-16.21Z"/>
        </g>
        <path class="cls-5" d="M350.91,110.73c3.17-5.17,25.55-40.38,69.09-46.43,28.2-3.92,50.14,6.52,58.24,10.9-8.23-5.54-24.99-14.97-47.14-15.03-50.19-.14-78.71,47.98-80.19,50.56Z"/>
        <path class="cls-5" d="M352.32,251.15c16.95-.61,37.53-2.74,60.4-8.15,18.79-4.44,35.09-10.15,48.64-15.83-12.78,6.47-30.16,13.73-51.59,18.59-22.74,5.16-42.62,5.92-57.46,5.39Z"/>
      </g>
      <path class="cls-2" d="M204.74,91.89c0,.07-.18,1.7-1.58,2.36-1.12,.53-2.52,.22-3.4-.79-.18-3.2-1.37-18.75-14.46-30.82-11.95-11.02-25.88-11.81-29.44-11.91-6.49,9.99-17.73,12.28-23.09,8.43-6.88-4.93-5.34-20.83,2.45-24.74,6.35-3.19,17.78,1.13,22.43,12.72,4.82,.28,16.67,1.65,27.88,10.31,16.18,12.5,18.78,30.73,19.22,34.45Z"/>
      <path class="cls-2" d="M221.16,75.82c.03,.06,.68,1.56,2.22,1.78,1.23,.17,2.47-.55,3.01-1.78-.79-3.11-4.33-18.3,4.54-33.74,8.09-14.1,21.14-19.04,24.5-20.2,9.19,7.58,20.6,6.38,24.56,1.11,5.08-6.77-1.16-21.48-9.77-22.87-7.01-1.13-16.62,6.41-17.58,18.87-4.52,1.72-15.4,6.57-23.49,18.2-11.68,16.79-8.68,34.95-7.99,38.63Z"/>
      <g>
        <path class="cls-2" d="M294.71,423.63c-6.21-14.13-1.19-30.01,9.88-36.78,13.23-8.09,33.65-2.31,41.33,14.95-2.04,16.31-4.07,32.62-6.11,48.93l-45.1-27.1Z"/>
        <g>
          <path class="cls-4" d="M187,247.38c5.78-9.17,20.32-29.4,47.3-41.91,39.72-18.43,76.89-6.44,85.19-3.54,60.69,30.12,89.04,93.6,72.56,144.14-15.59,47.79-65.44,66.12-72.56,68.61-7.85,3.71-54.43,24.93-94.79,4.09-47.33-24.45-70.81-98.85-37.69-171.39Z"/>
          <path class="cls-2" d="M175.37,281.89c20.8,2.63,58.47,4.6,102.13-9.51,37.61-12.15,64.14-31.22,79.43-44.11,2.77,.83,12.18,4.03,18.47,13.66,4.46,6.83,5.19,13.57,5.32,16.75-19.43,14.31-50.25,33.45-91.85,46.03-49.17,14.86-91.62,13.98-117.36,11.44-1.09-1.47-5.92-8.36-4.78-18.03,1.12-9.49,7.22-15.02,8.64-16.24Z"/>
          <path class="cls-2" d="M180.85,367.29c25.94,1.73,71.74,1.34,123.62-18.57,42.03-16.13,71.81-38.83,89.76-54.92,1.29,1.31,6.19,6.57,6.78,15,.59,8.47-3.59,14.38-4.69,15.85-17.14,14.81-43.1,33.76-78.25,48.31-50.31,20.82-95.39,22.68-121.81,21.69-8.29-.4-15.28-5.53-17.5-12.63-2.29-7.31,1.43-13.66,2.08-14.73Z"/>
        </g>
      </g>
      <g>
        <path class="cls-4" d="M323.22,200.11c-10.53,10.12-28.88,25.19-55.55,35.67-33.26,13.07-62.68,12.42-78.19,10.97-9.17-2.3-43.34-12.01-58.98-42.52-21.8-42.53,6.88-97.28,42.09-121.39,56.45-38.65,152.55-14.21,169.83,39.09,10.69,32.96-11.78,67.61-19.2,78.19Z"/>
        <path class="cls-2" d="M222.79,246.63c-.05-.27,16.06-2.06,37.88-9.69,22.65-7.92,37.47-17.25,37.61-16.97,.14,.27-13.33,9.31-32.56,16.56-23.22,8.76-42.88,10.39-42.94,10.1Z"/>
      </g>
      <g>
        <path class="cls-5" d="M190.78,178.27s2.86-1.14,6.2-1.29l-2.13-1.12s-3.75,1.24-4.07,2.41Z"/>
        <path class="cls-5" d="M168.33,147.38s1.65,3.66,11.76,5.22c0,0,6.31,1.47,6.19-10.85,0,0-8.5,2.44-19.72-5.01,0,0,1.16,6.93,15.05,9.54,0,0,.88,.48,.18,1.13,0,0-7.14,2.54-13.46-.03Z"/>
        <ellipse class="cls-1" cx="193.45" cy="158.41" rx="12.08" ry="18.9" transform="translate(-28.23 42.77) rotate(-11.76)"/>
        <ellipse class="cls-3" cx="194.48" cy="162.06" rx="9.48" ry="15.12" transform="translate(-28.96 43.05) rotate(-11.76)"/>
        <ellipse class="cls-1" cx="186.58" cy="152.1" rx="2.4" ry="3.75" transform="translate(-27.09 41.23) rotate(-11.76)"/>
        <ellipse class="cls-6" cx="188.83" cy="191.01" rx="11.17" ry="2.95" transform="translate(-34.98 42.51) rotate(-11.76)"/>
      </g>
      <g>
        <path class="cls-5" d="M278.95,118.56s-.22,4.01-9.09,9.1c0,0-5.36,3.64-9.68-7.9,0,0,8.81-.78,16.6-11.77,0,0,1.41,6.88-10.61,14.32,0,0-.65,.77,.24,1.12,0,0,7.58-.2,12.55-4.87Z"/>
        <path class="cls-5" d="M269.62,155.38s-3.07-.03-6.25,1.03l1.59-1.81s3.94-.19,4.66,.79Z"/>
        <ellipse class="cls-1" cx="259.48" cy="137.89" rx="12.08" ry="18.9" transform="translate(-18.91 43.86) rotate(-9.32)"/>
        <ellipse class="cls-3" cx="260.02" cy="141.64" rx="9.62" ry="15.12" transform="translate(-19.51 44) rotate(-9.32)"/>
        <ellipse class="cls-1" cx="253.21" cy="131.24" rx="2.4" ry="3.75" transform="translate(-17.92 42.76) rotate(-9.32)"/>
        <ellipse class="cls-6" cx="278.28" cy="166.19" rx="11.17" ry="2.95" transform="translate(-23.25 47.28) rotate(-9.32)"/>
      </g>
      <path class="cls-2" d="M222.42,197l2.74-.86c2.76,6.58,13.61,7.96,20.02,5.8,6.33-2.13,13.01-9.3,10.25-15.67l3.12-.98c3.72,6.84-5.19,15.28-13.18,17.91-8.04,2.65-21.08,1.35-22.96-6.19Z"/>
    </g>
  </g>
</svg>