<?xml version="1.0" encoding="UTF-8"?>
<svg id="Layer_2" data-name="Layer 2" xmlns="http://www.w3.org/2000/svg" viewBox="0 0 270.3 498.95">
  <defs>
    <style>
      .cls-1 {
        fill: #fff;
      }

      .cls-2 {
        fill: #818285;
      }

      .cls-3 {
        fill: #231f20;
      }

      .cls-4 {
        fill: #464646;
      }

      .cls-5 {
        fill: #60c8d4;
      }

      .cls-6 {
        fill: #f7b1c4;
        opacity: .57;
      }
    </style>
  </defs>
  <g id="flamingo">
    <g>
      <g>
        <path class="cls-2" d="M93.96,274.39l-52.21,56.22c-.36,.41-1.8,2.1-1.81,4.7-.02,2.66,1.46,4.4,1.81,4.8,31.78,15.82,63.55,31.64,95.33,47.46-.13,3.24,.07,8.32,2.05,14.11,2.43,7.1,6.38,11.86,8.8,14.37,.46-.97,1.05-2.54,1.17-4.55,.17-2.8-.67-4.97-1.17-6.04,.33,1.33,1.14,3.79,3.19,6.18,2.34,2.74,5.06,3.93,6.36,4.4,.12-1.61,.12-3.98-.59-6.71-.86-3.33-2.38-5.75-3.43-7.16,.63,.73,1.97,2.1,4.15,2.97,2.33,.93,4.38,.8,5.34,.68-.18-2.11-1.11-9.92-7.65-16.27-5.17-5.02-11.03-6.39-13.36-6.8-30.84-16.28-61.68-32.56-92.52-48.84l55.13-59.51c-.51-.57-1.74-1.75-3.66-2.19-3.76-.85-6.69,1.96-6.93,2.19Z"/>
        <path class="cls-2" d="M121.71,277.82c-.46-3.21,1.93-5.76,4.16-5.78,2.25-.02,4.72,2.53,4.26,5.78v201.33c2.97-.94,7.21-1.93,12.36-2.01,5.81-.09,10.55,1.01,13.72,2.01-.54,.67-1.5,1.69-2.98,2.53-1.36,.77-2.61,1.08-3.44,1.22,1.32,.8,2.94,1.94,4.58,3.53,1.85,1.8,3.12,3.6,3.98,5.03-1.56,.39-3.62,.74-6.05,.76-2.55,.01-4.71-.36-6.32-.76,.68,.19,2.52,.8,3.94,2.61,1,1.27,1.34,2.57,1.47,3.27-1.36,.54-9.23,3.54-17.88-.38-8.2-3.71-11.23-10.97-11.81-12.46v-206.68Z"/>
        <path class="cls-4" d="M121.64,379.68c-.2-1.08-.37-2.4-.37-3.91,0-1.48,.13-2.78,.32-3.85,.02,2.59,.04,5.17,.06,7.76Z"/>
        <path class="cls-4" d="M130.07,384.04c.2-1.08,.37-2.4,.37-3.91,0-1.48-.13-2.78-.32-3.85-.02,2.59-.04,5.17-.06,7.76Z"/>
      </g>
      <g>
        <g>
          <g>
            <path class="cls-4" d="M168.95,114.76c28.9-1.4,50.76-20.54,53.02-41.34,1.69-15.53-7.17-35.31-20.63-42.78-4.35-2.42-8.82-3.35-14.58-8.6-7.59-6.92-6.65-11.54-12.74-16.44-10.27-8.25-25.24-5.06-25.28-4.62-.03,.36,10.21-.84,15.49,5.44,4.51,5.37,3.46,13.89,2.4,14.12-.89,.2-1.06-5.69-5.66-9.23-6.35-4.88-16.59-1.75-16.58-1.36,0,.24,3.72-.69,6.16,1.44,2.73,2.38,2.67,7.49,1.72,10.79-2.64,9.18-13.48,8.87-23.21,17.91-9.38,8.71-11.62,20.43-12.4,24.49-4.6,24.06,13.08,43.79,15.66,46.58,20.19,30.85,40.38,61.7,60.58,92.56-35.4-44.72-89.58-62.49-131.53-45.83C32,169.55-1.89,202.27,.08,239.78c.64,12.24,4.96,22.22,8.94,29.16-3.52-11.74-.66-23.15,6.82-28.46,1.63-1.15,5.06-3.15,10.58-3.29-9.13,3.72-14.96,12.65-14.58,22.11,.42,10.59,8.55,19.77,19.52,21.64-6.36-8.74-5.13-20.03,1.41-25.63,7.05-6.03,17.1-2.75,17.55-2.59-11.99-.57-20.18,8.96-19.2,16.7,.75,5.95,7.02,11.56,15.29,12.46-.56-.36-5.16-3.45-5.17-8.23-.02-5.02,5.03-8.86,8.94-9.64,8.72-1.75,17.52,10.56,21.4,14.82,28.23,30.91,141.61,13.85,166.58-43.63,2.03-4.68,7.39-17.01,4.94-31.9-3.12-19.02-16.68-28.3-55.18-68.38-8.18-8.51-14.75-15.57-18.96-20.14Z"/>
            <path class="cls-4" d="M260.27,153.09c-.14-1.92-2.73-30.09-27-42.78-15.47-8.09-30.58-5.09-35.06-4.03-12.54-7.78-17.29-23.71-11.28-36.67,5.66-12.21,19.54-18.93,33.04-15.72,2.38,.61,36.09,9.93,47.15,43.52,9.36,28.44-4.75,52.27-6.85,55.68Z"/>
            <path class="cls-2" d="M240.52,63.43c-1.79,.95-4.49,2.7-6.46,5.74-5.68,8.79,1.23,18.35-3.33,27.02-1.55,2.94-4.9,6.71-13.19,9.14-6.44,.31-12.88,.63-19.32,.94,4.53-4.27,12.81-13.22,17.54-27.23,3.63-10.72,3.73-20.11,3.33-25.88,3.92,1.31,8.3,3.06,12.93,5.4,3.14,1.59,5.97,3.24,8.5,4.86Z"/>
          </g>
          <g>
            <path class="cls-5" d="M170.39,80.7s3-.53,6.27,0l-1.84-1.52s-3.88,.45-4.43,1.52Z"/>
            <path class="cls-5" d="M154.87,46.22s.86,3.88,10.35,7.44c0,0,5.82,2.69,8.19-9.27,0,0-8.73,.65-18.1-8.84,0,0-.27,6.95,12.66,12.29,0,0,.75,.65-.05,1.13,0,0-7.44,1.02-13.04-2.75Z"/>
            <ellipse class="cls-1" cx="176.99" cy="61.98" rx="11.96" ry="18.71"/>
            <ellipse class="cls-3" cx="177.24" cy="65.73" rx="9.39" ry="14.97"/>
            <ellipse class="cls-1" cx="171.6" cy="54.48" rx="2.38" ry="3.72"/>
            <ellipse class="cls-6" cx="165.93" cy="92.65" rx="11.06" ry="2.92"/>
          </g>
        </g>
        <path class="cls-2" d="M174.58,243.71c-.77-2.63-17.19-55.84-63.21-65.97-5.43-1.19-40.36-9.32-60.13,12.93-10.26,11.55-11.62,25.85-11.79,32.39,2.75-11.65,10.08-19.41,17.42-19.52,1.52-.02,4.02,.27,7.04,2.23-2.27,.34-8.24,1.55-13.26,6.59-7.97,8.02-6.72,18.9-6.54,20.31,.79-2.18,3.2-7.82,8.93-10.71,5.18-2.61,10.76-1.78,15-1.19,2.25,.31,4.1,.8,5.4,1.21-8.45-.49-16.26,3.09-20.27,9.54-2.84,4.58-2.94,9.28-2.82,11.58,8.63-3.23,21.36-6.4,35.22-3.11,19.34,4.59,24.76,18.13,40.54,21.52,10.22,2.2,25.84,.65,48.47-17.81Z"/>
      </g>
    </g>
  </g>
</svg>