<?xml version="1.0" encoding="UTF-8"?>
<svg id="Layer_2" data-name="Layer 2" xmlns="http://www.w3.org/2000/svg" viewBox="0 0 421.87 494.21">
  <defs>
    <style>
      .cls-1, .cls-2 {
        fill: #f7b1c4;
      }

      .cls-3 {
        fill: #fff;
      }

      .cls-4 {
        fill: #818285;
      }

      .cls-5 {
        fill: #231f20;
      }

      .cls-6 {
        fill: #464646;
      }

      .cls-7 {
        fill: #60c8d4;
      }

      .cls-2 {
        opacity: .57;
      }
    </style>
  </defs>
  <g id="gato">
    <g>
      <g>
        <g>
          <g>
            <path class="cls-6" d="M250.78,60.31c2.52-3.85,5.29-6.77,7.01-8.57,16.81-17.66,31.83-16.29,53.77-28.26C335.64,10.35,336.23-1.5,345.82,.15c16.93,2.92,24.91,41.5,25.32,66.39,.27,16.36,.72,43.94-19.09,67-17.07,19.87-51.99,39.66-80.63,25.71-34.91-17-37.62-73-20.65-98.94Z"/>
            <path class="cls-2" d="M304.17,52.75c-13.42,7.79-27.14,9.68-37.05,9.98,1.43,1.97,3.65,4.53,6.93,6.7,7.37,4.86,15.48,4.65,15.43,5.36-.06,.96-14.75-1.63-16.86,2.75-2.17,4.5,11.41,11.22,25.82,32,6.92,9.98,11.09,15.99,13.15,25.51,1.34,6.22,.87,9.69,3,10.65,5.13,2.31,18.43-13.12,26.44-27.75,11.62-21.23,12.45-41.43,12.98-58.9,.34-11.32,1.43-47.33-7.89-49.46-8.53-1.95-14.3,27.12-41.96,43.16Z"/>
          </g>
          <g>
            <path class="cls-6" d="M120.43,60.31c-2.52-3.85-5.29-6.77-7.01-8.57-16.81-17.66-31.83-16.29-53.77-28.26C35.57,10.35,34.98-1.5,25.39,.15,8.46,3.07,.48,41.65,.07,66.54c-.27,16.36-.72,43.94,19.09,67,17.07,19.87,51.99,39.66,80.63,25.71,34.91-17,37.62-73,20.65-98.94Z"/>
            <path class="cls-2" d="M67.04,52.75c13.42,7.79,27.14,9.68,37.05,9.98-1.43,1.97-3.65,4.53-6.93,6.7-7.37,4.86-15.48,4.65-15.43,5.36,.06,.96,14.75-1.63,16.86,2.75,2.17,4.5-11.41,11.22-25.82,32-6.92,9.98-11.09,15.99-13.15,25.51-1.34,6.22-.87,9.69-3,10.65-5.13,2.31-18.43-13.12-26.44-27.75-11.62-21.23-12.45-41.43-12.98-58.9-.34-11.32-1.43-47.33,7.89-49.46,8.53-1.95,14.3,27.12,41.96,43.16Z"/>
          </g>
          <g>
            <g>
              <path class="cls-6" d="M325.58,423.78c-6.05,19.36-23.71,33.97-45.51,38,.6,.26,4.78,2.11,5.2,5.56,.36,2.95-2.25,5.34-3.48,6.47-6.22,5.7-24.51,9.14-38.65,2.65-21.36-9.79-31.61-41.46-26.4-66.76,6.29-30.55,37.71-64.35,70.87-55.64,26.91,7.07,47.23,40.09,37.97,69.72Z"/>
              <path class="cls-4" d="M294.05,457.5c-2.79,1.19-7.42,2.77-13.35,2.97-5.79,.2-10.42-1.01-13.26-1.98,2.16,1.15,5.64,2.63,10.12,3.02,8.11,.7,14.22-2.62,16.49-4.01Z"/>
              <path class="cls-4" d="M281.4,473.39c.07-.24,.69-2.39-.08-4.72-1.07-3.22-4.01-4.72-4.65-5.03,.6,.51,4.42,3.84,4.08,8.54-.09,1.21-.43,2.24-.82,3.06,.12-.02,.31-.05,.51-.17,.34-.19,.5-.47,.56-.59,.12-.26,.28-.64,.41-1.1Z"/>
              <path class="cls-4" d="M276.46,476.99c.22-.53,1.24-3.09,.1-6.02-1.28-3.28-4.26-4.42-4.72-4.59,.24,.22,5.53,5.19,3.96,9.6-.18,.51-.48,1.08-.97,1.66,.18,0,.49,0,.83-.13,.4-.15,.67-.39,.8-.53Z"/>
              <path class="cls-4" d="M271.35,478.68c.14-.28,1.6-3.23,.03-6.21-1.22-2.31-3.42-3.06-3.89-3.21,2.48,1.74,3.86,4.4,3.48,6.92-.19,1.28-.8,2.26-1.3,2.88,.19,.03,.54,.07,.96-.04,.33-.09,.57-.24,.72-.34Z"/>
            </g>
            <g>
              <path class="cls-6" d="M59.88,423.78c6.05,19.36,23.71,33.97,45.51,38-.6,.26-4.78,2.11-5.2,5.56-.36,2.95,2.25,5.34,3.48,6.47,6.22,5.7,24.51,9.14,38.65,2.65,21.36-9.79,31.61-41.46,26.4-66.76-6.29-30.55-37.71-64.35-70.87-55.64-26.91,7.07-47.23,40.09-37.97,69.72Z"/>
              <path class="cls-4" d="M91.41,457.5c2.79,1.19,7.42,2.77,13.35,2.97,5.79,.2,10.42-1.01,13.26-1.98-2.16,1.15-5.64,2.63-10.12,3.02-8.11,.7-14.22-2.62-16.49-4.01Z"/>
              <path class="cls-4" d="M104.07,473.39c-.07-.24-.69-2.39,.08-4.72,1.07-3.22,4.01-4.72,4.65-5.03-.6,.51-4.42,3.84-4.08,8.54,.09,1.21,.43,2.24,.82,3.06-.12-.02-.31-.05-.51-.17-.34-.19-.5-.47-.56-.59-.12-.26-.28-.64-.41-1.1Z"/>
              <path class="cls-4" d="M109,476.99c-.22-.53-1.24-3.09-.1-6.02,1.28-3.28,4.26-4.42,4.72-4.59-.24,.22-5.53,5.19-3.96,9.6,.18,.51,.48,1.08,.97,1.66-.18,0-.49,0-.83-.13-.4-.15-.67-.39-.8-.53Z"/>
              <path class="cls-4" d="M114.11,478.68c-.14-.28-1.6-3.23-.03-6.21,1.22-2.31,3.42-3.06,3.89-3.21-2.48,1.74-3.86,4.4-3.48,6.92,.19,1.28,.8,2.26,1.3,2.88-.19,.03-.54,.07-.96-.04-.33-.09-.57-.24-.72-.34Z"/>
            </g>
            <g>
              <g>
                <g>
                  <path class="cls-6" d="M180.37,240.45c51.59-4.08,93.57,42.55,105.72,86.74,13.37,48.62-7,102.9-51.5,135.54,5.79,.23,10.87,3.44,13.12,8.3,3.47,7.51-1.8,14.67-2.36,15.41-4.75,6.23-12.73,6.71-20.95,7.2-14.9,.9-32.54-3.45-34.44-11.25-.09-.37-.23-1.67-.49-4.26-.46-4.66-.72-8.49-.87-11.1-.3,2.23-.69,5.61-.97,9.77-.31,4.55-.17,4.77-.36,5.64-1.56,7.02-15.55,10.33-23.44,11.2-6.55,.72-19.49,2.14-29.14-6.22-2.55-2.21-8.37-7.26-7.53-14.07,.68-5.47,5.43-10.24,12.01-12.28-42.23-35.96-60.41-89.89-46.62-137.68,9.91-34.35,40.28-79.18,87.83-82.95Z"/>
                  <path class="cls-4" d="M187.19,482.89c2.23-16.72,5.15-57.52-19.85-92.95-4.93-6.99-10.3-12.85-15.65-17.75,9.67,11.45,25.59,33.57,32.61,65.49,3.94,17.9,3.9,33.6,2.89,45.21Z"/>
                  <path class="cls-4" d="M190.03,482.89c-2.23-16.72-5.15-57.52,19.85-92.95,4.93-6.99,10.3-12.85,15.65-17.75-9.67,11.45-25.59,33.57-32.61,65.49-3.94,17.9-3.9,33.6-2.89,45.21Z"/>
                </g>
                <path class="cls-4" d="M131.31,484.21c-.35-.99-1.3-4.09-.05-7.64,1.8-5.11,6.65-6.87,7.3-7.1-1.32,1.35-5.85,6.31-5.5,13.11,.08,1.59,.42,2.99,.84,4.18-.4-.14-1.21-.49-1.88-1.3-.38-.46-.59-.92-.71-1.25Z"/>
                <path class="cls-4" d="M138.27,490.03c-.35-.89-1.66-4.53-.09-8.68,1.92-5.08,6.6-6.85,7.3-7.1-1.3,1.32-5.92,6.32-5.5,13.11,.1,1.52,.43,2.87,.84,4.02-.47-.15-1.03-.37-1.63-.72-.36-.21-.66-.42-.93-.63Z"/>
                <path class="cls-4" d="M147.15,493.42c-.33-.75-2.12-4.97-.2-9.78,2.02-5.05,6.57-6.83,7.3-7.1-1.32,1.35-5.85,6.31-5.5,13.11,.08,1.59,.42,2.99,.84,4.18-.36,0-.8-.02-1.29-.11-.45-.08-.83-.19-1.15-.3Z"/>
                <path class="cls-4" d="M246.18,485.2c.26-.79,1-3.89-.13-7.29-1.65-4.98-6.2-7.29-7.19-7.77,1.64,1.86,5.28,6.54,5.5,13.11,.06,1.82-.15,3.45-.46,4.82,.41-.24,1.03-.68,1.56-1.41,0,0,.46-.63,.73-1.47Z"/>
                <path class="cls-4" d="M237.6,491.76c.34-.81,1.91-4.78,.15-9.3-1.98-5.06-6.58-6.84-7.3-7.1,1.32,1.34,5.92,6.34,5.5,13.11-.09,1.48-.41,2.8-.81,3.94,.36,.01,.89-.01,1.49-.2,.4-.13,.73-.3,.97-.45Z"/>
                <path class="cls-4" d="M228,493.4c.33-.72,2.24-5.07,.23-10.02-2.04-5.05-6.56-6.82-7.3-7.1,1.32,1.35,5.85,6.31,5.5,13.11-.08,1.59-.42,2.99-.84,4.18,.27,.08,.73,.19,1.3,.14,.49-.05,.87-.19,1.11-.31Z"/>
              </g>
              <path class="cls-4" d="M288.41,377.61c-2.78,10.89-7.38,24.57-15.25,39.31-6.15,11.52-12.81,20.91-18.82,28.28,6.3-6.46,14.31-16.06,21.2-29.13,7.93-15.04,11.31-28.88,12.87-38.45Z"/>
              <path class="cls-4" d="M88.97,371.24c3.3,12.98,8.52,28.68,17.02,45.53,5.66,11.22,11.72,20.85,17.48,28.92-6.66-7.22-15.31-18.17-22.45-33.13-7.79-16.31-10.8-31.13-12.06-41.32Z"/>
            </g>
          </g>
          <g>
            <path class="cls-6" d="M21.96,214.01c3.19-2.17,7.78-4.47,12.52-3.39,4.2,.96,5.58,3.92,8.95,4.03,2.59,.08,6.33-1.53,11.07-9.52-1.45,.71-8.65,4.04-17.09,1.16-10.35-3.53-13.72-13.4-14.09-14.53,1.02,.76,8.4,6.05,17.61,3.67,5.96-1.55,9.47-5.48,10.7-7.01-3.68,.3-9,.28-15.1-1.36-3.75-1.01-6.86-2.37-9.29-3.66,3.27-.43,7.41-1.57,10.17-4.85,2.98-3.55,3-8.02,3.04-9.46,.25-9.33,5.26-45.74,22.62-65.12,10.98-12.25,24.41-14.91,24.42-25.29,0-1.3-.21-5.93-3.37-8.63-5.19-4.42-14.3-.23-14.57-1.18-.31-1.06,10.35-8.12,20.46-5.15,4.47,1.31,5.04,3.47,8.96,4.2,8.08,1.5,15.65-5.79,17.57-7.48,20.23-17.73,104.38-18.1,141.87-2.63,12.79,5.28,27.19,5.18,40.68,8.23,1.36,.31,4.81,1.11,7.99-.54,2.71-1.41,3.52-3.72,3.98-3.49,.92,.45-.34,10.46-6.58,13.91-5.15,2.84-11.4-.04-11.97,1.5-.53,1.45,4.76,4.6,5.14,4.83,13.19,7.88,36.82,32.42,38.16,57.83,.37,6.99-1.3,7.39-.36,14.46,1.79,13.4,9.34,23.5,15.54,29.99-1.51,1.37-4.39,3.59-8.61,4.76-6.55,1.82-12.03-.11-13.9-.86,2.23,2.9,6.48,7.64,13.29,11.3,5.72,3.07,11,4.17,14.42,4.6-1.9,2.01-6.4,6.21-13.5,7.98-11.27,2.81-20.35-2.68-22.1-3.79,3.59,2.78,8.29,5.92,14.12,8.7,4.48,2.13,8.66,3.59,12.27,4.6-10.88,13.04-29.18,31.68-56.45,46.32-67.12,36.05-133.9,18.5-164.96,10.34-69.93-18.38-94.11-54.87-93.77-60.48,.02-.4,.33-3.16-1.3-4.57-2-1.74-5.86-.53-8.54,.59Z"/>
            <path class="cls-4" d="M152.66,284.91c13.71,1.83,29.47,3.1,46.93,3.07,17.97-.04,34.16-1.45,48.17-3.43-12.41,2.77-28.2,5.18-46.56,5.33-19.22,.16-35.72-2.21-48.53-4.96Z"/>
          </g>
        </g>
        <g>
          <path class="cls-6" d="M288.24,380.06c10.87-19.21,66.34,10.33,90.32-13.82,10.02-10.09,12.56-27.57,8.26-39.86-8.05-23.01-37.08-19.26-43.47-39.43-6.56-20.7,5.09-55.05,29.39-60.64,22.96-5.28,50.23,16.91,49.11,31.51-.41,5.35-4.75,11.08-8.76,11.12-7.5,.07-7.98-19.87-21.23-24.6-7.2-2.57-15.35,.35-20.22,4.38-8.81,7.3-9.61,20.5-6.64,29.28,4.88,14.42,19.42,13.28,29.9,26.18,14.61,17.98,15.71,48.52,4.42,69.2-23.24,42.57-98.22,41.99-110.44,21.6-2.34-3.9-3.33-10.11-.62-14.92Z"/>
          <path class="cls-4" d="M317.83,376.69c1.84,4.46,3.67,9.24,5.41,14.32,1.74,5.08,3.24,9.98,4.52,14.63-.37-4.32-1.31-10.05-3.65-16.43-1.9-5.16-4.21-9.34-6.27-12.52Z"/>
        </g>
      </g>
      <g>
        <path class="cls-7" d="M135.6,162.49s3.51-.62,7.34,0l-2.15-1.78s-4.55,.52-5.18,1.78Z"/>
        <path class="cls-7" d="M117.44,122.13s1.01,4.54,12.11,8.7c0,0,6.81,3.15,9.59-10.85,0,0-10.22,.76-21.19-10.34,0,0-.32,8.14,14.82,14.38,0,0,.88,.76-.06,1.32,0,0-8.7,1.2-15.26-3.22Z"/>
        <ellipse class="cls-3" cx="143.33" cy="140.58" rx="14" ry="21.9"/>
        <ellipse class="cls-5" cx="143.63" cy="144.97" rx="10.99" ry="17.52"/>
        <ellipse class="cls-3" cx="137.02" cy="131.8" rx="2.78" ry="4.35"/>
        <ellipse class="cls-2" cx="130.38" cy="176.48" rx="12.95" ry="3.41"/>
      </g>
      <g>
        <path class="cls-7" d="M258.38,122.13s-1.01,4.54-12.11,8.7c0,0-6.81,3.15-9.59-10.85,0,0,10.22,.76,21.19-10.34,0,0,.32,8.14-14.82,14.38,0,0-.88,.76,.06,1.32,0,0,8.7,1.2,15.26-3.22Z"/>
        <path class="cls-7" d="M240.79,162.49s-3.51-.62-7.34,0l2.15-1.78s4.55,.52,5.18,1.78Z"/>
        <ellipse class="cls-3" cx="232.48" cy="140.58" rx="14" ry="21.9"/>
        <ellipse class="cls-5" cx="232.4" cy="144.97" rx="11.14" ry="17.52"/>
        <ellipse class="cls-3" cx="226.56" cy="131.8" rx="2.78" ry="4.35"/>
        <ellipse class="cls-2" cx="248.66" cy="176.48" rx="12.95" ry="3.41"/>
      </g>
      <g>
        <path class="cls-4" d="M152.47,189.83c4.9-2.82,11.44-5.94,19.51-8.18,5.12-1.42,9.82-2.19,13.89-2.6v21.56c-5.51,8.47-14.72,12.72-22.81,10.78-5.7-1.36-9.19-5.4-10.59-7.25-.05,.83-.19,4.62,2.6,7.99,2.89,3.5,6.83,4,7.62,4.09-1.85,24.31,12.66,41.61,23.97,42,11.55,.4,27.72-16.55,26.58-41.81,.34,.03,5.68,.49,8.92-3.72,2.51-3.26,1.96-6.97,1.86-7.62-2.4,3.41-4.99,4.96-6.71,5.71-8.02,3.51-19.21-.46-27.67-10.17,.12-7.19,.25-14.37,.37-21.56,4.1,.32,8.97,1.06,14.31,2.6,9.36,2.7,16.52,6.84,21.37,10.22-2.07-2.29-16.22-17.41-38.83-16.86-19.38,.47-31.71,12.15-34.4,14.81Z"/>
        <path class="cls-1" d="M185.96,169.49c7.6-.54,18.11,2.45,18.96,8.04,.74,4.87-5.87,11.65-16.8,14.43-11.43-2.9-18.31-9.42-17.62-14.22,.72-5.02,9.65-7.83,15.46-8.24Z"/>
        <path class="cls-2" d="M172.14,237.03c.24-.23,3.9-3.62,8.72-2.41,3.82,.96,5.58,4.1,5.87,4.63,1.87-3.56,5.46-5.79,9.25-5.71,4.21,.08,6.85,2.97,7.31,3.49,.85,9.44-6.5,17.47-15.14,17.7-8.94,.24-16.88-7.92-16.01-17.7Z"/>
      </g>
      <path class="cls-4" d="M248.58,187.18c12.97,.56,23.73,1.3,31.37,1.89,44.81,3.47,56.88,7.73,65.11,13.86,3.46,2.58,5.68,5.06,6.89,6.55-.26-1.31-.74-2.52-1.4-3.66-12.22-20.93-89.58-19.02-101.97-18.64Z"/>
      <path class="cls-4" d="M244.83,198.22c12.73,2.52,23.26,4.88,30.72,6.62,43.77,10.23,55.04,16.27,62.26,23.58,3.03,3.07,4.85,5.86,5.82,7.52-.06-1.33-.35-2.61-.83-3.83-8.9-22.54-85.66-32.38-97.96-33.89Z"/>
      <path class="cls-4" d="M240.34,207.03c11.91,5.16,21.69,9.7,28.62,12.99,40.6,19.28,50.34,27.58,55.84,36.25,2.31,3.65,3.49,6.76,4.09,8.58,.22-1.31,.21-2.62,0-3.92-3.92-23.92-76.84-49.82-88.54-53.9Z"/>
      <path class="cls-4" d="M127.19,186.78c-12.97,.56-23.73,1.3-31.37,1.89-44.81,3.47-56.88,7.73-65.11,13.86-3.46,2.58-5.68,5.06-6.89,6.55,.26-1.31,.74-2.52,1.4-3.66,12.22-20.93,89.58-19.02,101.97-18.64Z"/>
      <path class="cls-4" d="M130.93,197.83c-12.73,2.52-23.26,4.88-30.72,6.62-43.77,10.23-55.04,16.27-62.26,23.58-3.03,3.07-4.85,5.86-5.82,7.52,.06-1.33,.35-2.61,.83-3.83,8.9-22.54,85.66-32.38,97.96-33.89Z"/>
      <path class="cls-4" d="M135.43,206.63c-11.91,5.16-21.69,9.7-28.62,12.99-40.6,19.28-50.34,27.58-55.84,36.25-2.31,3.65-3.49,6.76-4.09,8.58-.22-1.31-.21-2.62,0-3.92,3.92-23.92,76.84-49.82,88.54-53.9Z"/>
    </g>
  </g>
</svg>