<?xml version="1.0" encoding="UTF-8"?>
<svg id="Layer_2" data-name="Layer 2" xmlns="http://www.w3.org/2000/svg" viewBox="0 0 509.42 434.67">
  <defs>
    <style>
      .cls-1 {
        fill: #fff;
      }

      .cls-2 {
        fill: #818285;
      }

      .cls-3 {
        fill: #231f20;
      }

      .cls-4 {
        fill: #595a5c;
      }

      .cls-5 {
        fill: #f7b1c4;
        opacity: .57;
      }
    </style>
  </defs>
  <g id="iguana">
    <g>
      <g>
        <path class="cls-4" d="M52.86,149.75c15.93-18.97,33.16-29.01,37.7-31.56,30.91-17.37,50.07-11.56,101.69-21.04,55.08-10.12,49.8-19.78,77.15-19.29,41.35,.74,82.42,23.33,106.95,56.98,4.42,6.06,41.5,56.93,21.04,93.8-6.37,11.48-18.51,21.96-32.44,26.3-15.29,4.77-25.18-.22-42.96-1.75-26.35-2.27-44.08,5.31-62.24,10.52-14.2,4.08-201.24,57.76-238.45,4.38-20.33-29.15,5.82-87.69,31.56-118.35Z"/>
        <path class="cls-2" d="M87.92,111.58c4.2,1.35,7.57,2.7,9.8,3.64-7.16,4.5-14.32,9-21.48,13.49-.44-2.45-1.35-6.08-3.47-9.96-3.76-6.89-8.28-9.02-7.54-10.61,1.27-2.73,15.7,1.18,22.7,3.43Z"/>
        <path class="cls-2" d="M121.22,83.25c7.51,3.87,12.87,8.31,15.28,10.4,4.07,3.54,7.12,6.92,9.26,9.52-10.1,1.53-20.2,3.07-30.3,4.6,1.29-2.58,3.06-7.18,1.38-11.58-.85-2.23-2.44-3.36-3.75-4.92-7.2-8.58-13.54-11.73-13.41-13.41,.16-2.18,10.94-.08,21.55,5.4Z"/>
        <path class="cls-2" d="M182.58,71.37c10.03,8.48,16.45,17.62,20.41,24.38-11.67,1.85-23.34,3.71-35,5.56,.21-9.01-.97-20.94-7.39-32.66-3.87-7.06-8.06-11.17-6.89-12.61,1.95-2.4,17.19,5.45,28.86,15.32Z"/>
        <path class="cls-2" d="M227.66,41.48c5.39,2.77,8.89,6.13,11.28,8.58,5.38,5.5,13.17,14.56,20.97,28.16-11.44,4.06-22.88,8.12-34.32,12.17,.49-16.41-3.52-27.63-7.85-35.24-4.96-8.72-11.13-14.05-9.32-16.81,2.02-3.06,12.26-.44,19.23,3.13Z"/>
        <path class="cls-2" d="M10.54,228.26c2.28-1.4,4.25-2.41,5.57-3.06-.59,5.33-1.18,10.66-1.77,15.99-1.36-.85-3.48-1.99-6.19-2.66-4.81-1.2-7.6,.02-8.09-1.02-.84-1.78,6.66-6.91,10.47-9.25Z"/>
        <path class="cls-2" d="M17.41,196.39c3.26-.57,5.99-.79,7.81-.87-2.68,7.49-5.35,14.99-8.03,22.48-1.32-2.15-3.44-5.22-6.44-7.99-5.32-4.92-9.11-4.95-9.31-6.8-.35-3.18,10.54-5.86,15.97-6.81Z"/>
        <path class="cls-2" d="M31.24,166.53c4.33-.83,7.94-1.27,10.35-1.51-4.12,7.38-8.25,14.77-12.37,22.15-1.56-1.94-4.1-4.68-7.83-7.07-6.61-4.24-11.59-3.94-11.71-5.69-.2-3,14.34-6.5,21.56-7.88Z"/>
        <path class="cls-2" d="M50.67,136.14c5.61,.98,10.19,1.93,13.22,2.6-5.28,5.68-10.56,11.35-15.84,17.03-.84-2.38-2.35-5.96-4.99-9.81-4.69-6.83-9.34-9.2-8.62-10.82,.31-.69,1.7-1.52,16.23,1Z"/>
      </g>
      <g>
        <path class="cls-4" d="M504.23,130.91c-7.67-10.7-19.29-6.84-35.76-21.64-14.67-13.19-14-23.93-24.47-37.64-5.47-7.16-12.07-12.64-18.96-16.86-15.76-9.66-32.97-12.72-41.27-14.2-46.76-8.31-115.79,13.88-130.81,67.76-13.54,48.59,24.49,95.57,56.46,116.69,64.86,42.85,146.39,8.71,170.86-14.26,5.22-4.9,9.82-11.14,9.82-11.14,13.11-17.78,27.15-50.52,14.12-68.7Z"/>
        <g>
          <ellipse class="cls-1" cx="383.69" cy="114.81" rx="19.98" ry="31.25"/>
          <ellipse class="cls-3" cx="383.69" cy="114.81" rx="12.41" ry="19.42"/>
          <ellipse class="cls-1" cx="392.14" cy="101.61" rx="3.97" ry="6.21"/>
        </g>
        <path class="cls-2" d="M491.01,154.98c.61-3.44-.4-8.82-4.52-10.51-3.27-1.34-7.1,.22-9.14,2.48-2.03,2.25-2.02,4.98-1.99,10.45,.03,5.4,.05,9.49,2.13,10.38,2.49,1.06,6.44-3.06,8.82-5.55,2.49-2.6,4.18-4.37,4.69-7.25Z"/>
        <ellipse class="cls-5" cx="336.81" cy="186.11" rx="22.32" ry="21.57"/>
        <ellipse class="cls-5" cx="307.83" cy="161.64" rx="9.28" ry="8.97"/>
        <rect class="cls-4" x="354.51" y="69.15" width="70.15" height="26.06" transform="translate(713.89 313.18) rotate(-156.45)"/>
        <path class="cls-1" d="M470,192.13s-28.2,9.9-71.72,0c0,0,16.57,26.92,35.86,26.44,0,0,21.16,.61,35.86-26.44Z"/>
      </g>
      <path class="cls-2" d="M441.7,47.36c4.14,9.76,3.26,19.05,2.3,24.27-6.32-5.62-12.64-11.24-18.96-16.86,.88-1.74,2.07-4.45,2.84-7.91,1.86-8.39-.45-13.53,1.17-14.32,2.09-1.01,8.95,6.1,12.65,14.82Z"/>
      <path class="cls-2" d="M403.56,21.91c5.1,6.74,8.02,13.05,9.29,15.98,2.14,4.95,3.43,9.32,4.24,12.59-9.77-2.98-19.54-5.96-29.31-8.94,2.28-1.77,5.86-5.15,6.24-9.85,.19-2.38-.75-4.08-1.26-6.06-2.79-10.85-7.14-16.42-6.3-17.89,1.09-1.89,9.9,4.66,17.1,14.18Z"/>
      <path class="cls-2" d="M359.98,15.76c10.03,8.48,16.45,17.62,20.41,24.38-11.24,0-22.48,0-33.72,0-.91-7.27-3.08-17-8.67-27.1-4.14-7.47-7.99-11.25-6.89-12.61,1.95-2.4,17.19,5.45,28.86,15.32Z"/>
      <path class="cls-2" d="M287.21,14.08c4.86,2.49,8.11,5.45,11.28,8.58,5.27,5.22,12.48,13.1,20.1,24.09-11.15,5.41-22.3,10.83-33.45,16.24,.49-16.41-3.52-27.63-7.85-35.24-4.96-8.72-11.13-14.05-9.32-16.81,2.02-3.06,12.26-.44,19.23,3.13Z"/>
      <path class="cls-2" d="M224.87,230.35c1.17-21.01,17.14-42.5,38.64-44.16,13.19-1.02,28.15,5.45,34.5,17.02,14.63,26.66-18.86,76.1-43.7,73.59-15.82-1.6-30.66-24.52-29.44-46.46Z"/>
      <path class="cls-2" d="M161.99,226.14c4.24,1.88,35.63,16.37,36.2,43.36,.4,18.99-14.72,32.03-17.44,34.29-24.79,20.55-75.34,19.8-92.35-10.95-9.95-17.99-7.71-44.97,9.2-61.17,23.79-22.79,59.39-7.74,64.39-5.52Z"/>
      <path class="cls-2" d="M313.54,320.01c-19.67,8.16-44.35,0-52.65-14.25-3.45-5.93-1.06-7.73-4.96-16.72-7.68-17.72-20.55-18.91-21.06-27.25-.87-14.27,35.26-35.94,55.13-26.01,9.57,4.78,6.71,12.57,21.68,29.73,14.64,16.79,24.5,17.5,25.4,26.94,1.09,11.56-12.51,22.99-23.54,27.56Z"/>
      <path class="cls-2" d="M177.58,363.32c-18.01,11.36-43.71,7.5-54.3-5.15-3.22-3.84-2.99-6.04-4.71-10.14-1.12-2.67-2.22-4.28-2.99-5.51-13.55-21.55-39.7-63.14-30.84-73.95,6.96-8.5,37.95-.92,55.42,15.7,6.99,6.64,7.93,11.04,17.28,17.45,10.67,7.33,17.14,6.89,27.34,15.7,5.6,4.84,10.04,8.68,11.36,14.75,2.63,12.07-8.81,25-18.54,31.14Z"/>
      <path class="cls-4" d="M319.15,434.13c-4.81,4.84-30.16-24.3-75.6-41.74-47.54-18.24-61.83-2.48-114.18-16.54-29.28-7.86-81.18-21.8-103.95-65.36-26.58-50.87-3.08-122.36,17.28-124.56,21.53-2.33,15.85,75.4,78.79,122.98,56.31,42.57,110.25,17.69,166.15,74.02,20.91,21.07,35.65,47,31.5,51.18Z"/>
    </g>
  </g>
</svg>