<?xml version="1.0" encoding="UTF-8"?>
<svg id="Layer_2" data-name="Layer 2" xmlns="http://www.w3.org/2000/svg" viewBox="0 0 230.24 512">
  <defs>
    <style>
      .cls-1 {
        fill: #fff;
      }

      .cls-2 {
        fill: #818285;
      }

      .cls-3 {
        fill: #231f20;
      }

      .cls-4 {
        fill: #464646;
      }

      .cls-5 {
        fill: #60c8d4;
      }

      .cls-6 {
        fill: #f7b1c4;
        opacity: .57;
      }
    </style>
  </defs>
  <g id="jirafa">
    <g>
      <path class="cls-2" d="M60.18,1.7c3.68,3.12,.35,8.73,.32,19.86-.08,22.25,13.07,37.17,7.75,41.5-.93,.76-2.34,1.12-3.55,.85-6.76-1.51-1.32-21.41-11.81-41.09-5.12-9.6-10.75-12.99-8.97-17.34,2.02-4.95,12.07-7.33,16.26-3.78Z"/>
      <path class="cls-2" d="M128.41,13.01c1.82,4.47-3.71,7.91-8.87,17.77-10.32,19.71-5.52,39.01-12.24,40.4-1.18,.24-2.59-.09-3.54-.88-5.3-4.45,8.69-19.61,8.45-41.91-.12-10.88-3.55-16.48,.03-19.52,4.07-3.46,14.09-.95,16.17,4.14Z"/>
      <g>
        <path class="cls-4" d="M49.06,53.51C40.7,32.09,12.1,19.22,3.45,26.26c-7.88,6.41-1.49,31.21,12.48,45.46,7.23,7.38,21.95,17.5,30.31,12.27,7.66-4.79,6.73-20.44,2.81-30.47Z"/>
        <path class="cls-6" d="M1.99,27.89c5.61,2.1,21.09,8.77,32.05,25.51,8.36,12.78,10.05,25.28,10.47,31.42-1.39,.32-3.5,.65-6.02,.41-3.51-.33-6.19-1.62-8.98-3.26-3.41-2.01-8.76-5.15-14.45-11.32-2.03-2.19-6.73-7.62-10.42-15.75,0,0-2.57-5.67-4.01-12.63-.19-.92-.68-3.44-.63-6.68,.04-2.39,.36-3.79,.69-4.81,.4-1.25,.91-2.23,1.3-2.9Z"/>
      </g>
      <g>
        <path class="cls-4" d="M172.42,57.1c-22.97,1.12-44.26,24.15-40.33,34.58,3.58,9.51,29.12,11.33,47.07,2.61,9.29-4.51,23.56-15.26,21.27-24.85-2.11-8.79-17.24-12.87-28-12.35Z"/>
        <path class="cls-6" d="M133.44,93.75c3.66-4.59,14.76-17.31,34.1-22.44,14.81-3.93,27.24-1.5,33.12,.05-.03,.91-.17,2.22-.62,3.72-.72,2.38-1.94,4.23-3.89,6.46-3.59,4.12-7.14,6.68-8,7.29-2.46,1.75-7.21,5.09-14.34,7.67,0,0-9.15,3.31-20.4,3.4-3.99,.03-7.04-.46-7.93-.61-.74-.13-2.5-.44-4.69-1.12-4.1-1.26-5.57-2.47-6.34-3.24-.47-.47-.81-.9-1.01-1.19Z"/>
      </g>
      <g>
        <path class="cls-4" d="M219.73,395.45c3.83,8.29,6.57,20.82,2.29,23.62-.3,.19-1.15,.75-2.04,.5-3.59-1.02,1.02-12.96-4.18-23.09-4.75-9.25-15.43-12.6-14.19-15.54,.46-1.09,2.21-1.3,2.66-1.35,7.56-.89,14.81,14.47,15.45,15.87Z"/>
        <g>
          <path class="cls-4" d="M150.66,500.49c9.18-6.5,2.72-21.19,4.99-47.15,2.79-31.92,15.51-43.43,7.79-53.12-6-7.52-20.84-9.58-28.57-3.73-10.75,8.14,1.37,24.66-1.98,67.73-1.45,18.66-4.98,31.69,2.16,36.79,4.17,2.98,11.14,2.64,15.62-.53Z"/>
          <path class="cls-4" d="M50.31,503.16c9.18-6.5,2.72-21.19,4.99-47.15,2.79-31.92,15.51-43.43,7.79-53.12-6-7.52-20.84-9.58-28.57-3.73-10.75,8.14,1.37,24.66-1.98,67.73-1.45,18.66-4.98,31.69,2.16,36.79,4.17,2.98,11.14,2.64,15.62-.53Z"/>
          <path class="cls-4" d="M70.5,433.95c-5.68-.25-15.57-1.53-25.35-7.75-14.06-8.94-19.33-22.65-22.03-29.95-10.42-28.27-3.13-56.83,2.17-76.55,12.18-45.39,22.49-83.53,33.24-122.39,7.21-13.34,22.51-19.31,35.21-14.79,10.03,3.57,17.23,13.25,18.42,24.65-16.01,80.48-5.74,109.53,9.76,119.02,16.45,10.07,36.82-3.12,60.81,12.64,22.15,14.55,27.57,40.18,28.13,42.98,1.15,5.77,3.55,21.71-3.59,38.43-4.34,10.17-7.45,9.48-12.87,19.1-14.49,25.72-11.12,63.38-16.7,67-4.53,2.94-8.56,2.35-8.56,2.35-2.38-.03-5.72-.47-8.21-2.75-6.95-6.34-1.43-21.49,1.57-36.64,2.2-11.07,4.04-27.15,1.81-47.79-3.98,3.86-12.28,10.86-24.92,14.44-17.07,4.84-31.34,.42-36.47-1.44-4.1,14.85-4.94,26.96-4.95,35.25-.04,18.67,4.07,32.91-3.49,38.39-3.79,2.75-9.98,2.9-10.69,2.91-1.06,.02-7.74,.12-11.41-2.91-7.05-5.84,.18-20.71,1.29-42.01,.44-8.49-.02-19.37-3.17-32.21Z"/>
          <path class="cls-2" d="M32.83,414.87c2.59,3.39,7.01,8.25,13.77,12.23,4.09,2.41,7.95,3.85,11.06,4.74-2.93-.38-7.7-1.38-12.75-4.4-6.95-4.15-10.56-9.8-12.08-12.57Z"/>
          <path class="cls-2" d="M136.45,436.72c3.86-1.31,8.14-3.01,12.68-5.23,3.96-1.94,7.49-3.97,10.56-5.93-2.47,2.08-5.82,4.51-10.1,6.65-5.03,2.52-9.65,3.81-13.14,4.51Z"/>
          <path class="cls-2" d="M30.96,497.72c.97,.94,4.76,4.4,10.68,4.7,7.38,.37,12.16-4.48,12.87-5.22-.43,1.42-1.36,3.66-3.42,5.55-4.27,3.9-11.75,4.7-16.38,.95-2.28-1.85-3.28-4.31-3.74-5.98Z"/>
          <path class="cls-2" d="M69.4,501.67c.64,.85,5.33,6.92,13.67,7.38,9.07,.5,14.62-6.07,15.19-6.76-.33,1.42-1,3.37-2.52,5.1-6.17,7.03-21.95,5.58-25.54-1.32-.78-1.51-.89-3.09-.79-4.4Z"/>
          <path class="cls-2" d="M130.91,492.78c.39,.55,4.68,6.32,12.27,6.27,7.48-.05,11.67-5.69,12.09-6.27-.29,1.35-1.27,5.04-4.61,7.7-4.2,3.34-11.08,4.23-15.62,.53-3.43-2.8-4.01-6.98-4.13-8.24Z"/>
          <path class="cls-2" d="M157.74,499.17c3.01,4.79,8.21,7.51,13.39,6.97,5-.52,8.08-3.89,8.87-4.81-.15,1.28-.57,3.03-1.8,4.56-3.66,4.57-12.7,4.98-17.34,.36-2.36-2.35-2.96-5.38-3.12-7.09Z"/>
        </g>
        <path class="cls-2" d="M219.04,438.57c1.87-1.67,2.46-3.19,2.62-4.34,.18-1.24-.09-2.38,.1-2.42,.2-.04,.71,1.15,.91,2.42,.11,.72,.33,2.27-.47,3.96-.51,1.07-1.22,1.77-1.75,2.2,6.9-2.71,10.71-9.21,9.59-14.94-1.03-5.26-6.41-10.75-11.41-9.49-5.37,1.35-7.74,10.52-5.25,13.73,1.25,1.61,3.39,1.31,4.85,3.53,1.13,1.73,1.07,3.8,.81,5.35Z"/>
      </g>
      <g>
        <path class="cls-4" d="M37.98,201.79c-34.86-30.6-31.42-97.19,.13-130.81,4.04-4.3,24.27-25.86,51.35-23.29,19.74,1.87,32.6,15.58,38.36,21.7,29.56,31.48,41.83,93.27,10.8,127.07-18.72,20.39-45.65,22.37-48.83,22.56-2.64,.15-30.59,1.39-51.81-17.23Z"/>
        <path class="cls-2" d="M40.9,131.93c8.89-2.31,21.13-4.49,35.72-4.17,18.06,.4,32.64,4.48,42.31,8.04-7.56-3.64-20.09-8.53-36.3-9.71-18.65-1.36-33.46,2.82-41.73,5.84Z"/>
        <g>
          <path class="cls-5" d="M48.92,118.51s2.9-.36,6.01,.3l-1.69-1.54s-3.74,.24-4.32,1.24Z"/>
          <path class="cls-5" d="M35.7,84.72s.64,3.76,9.56,7.62c0,0,5.45,2.86,8.29-8.49,0,0-8.4,.2-16.93-9.34,0,0-.59,6.65,11.55,12.38,0,0,.69,.66-.11,1.08,0,0-7.18,.62-12.37-3.26Z"/>
          <ellipse class="cls-1" cx="56.15" cy="100.89" rx="17.96" ry="11.48" transform="translate(-47.43 151.92) rotate(-87.13)"/>
          <path class="cls-5" d="M134.06,89.65s-1.01,3.68-10.27,6.63c0,0-5.71,2.3-7.4-9.28,0,0,8.34,1.04,17.78-7.6,0,0-.08,6.67-12.73,11.17,0,0-.75,.58,0,1.09,0,0,7.08,1.34,12.63-2.01Z"/>
          <path class="cls-5" d="M118.01,121.97s-2.85-.65-6.01-.3l1.84-1.37s3.7,.61,4.17,1.67Z"/>
          <ellipse class="cls-1" cx="112.1" cy="103.7" rx="17.96" ry="11.48" transform="translate(2.93 210.47) rotate(-87.13)"/>
          <ellipse class="cls-3" cx="56.21" cy="104.5" rx="14.36" ry="9.01" transform="translate(-50.97 155.41) rotate(-87.13)"/>
          <ellipse class="cls-1" cx="51.34" cy="93.44" rx="3.57" ry="2.28" transform="translate(-44.55 140.04) rotate(-87.13)"/>
          <ellipse class="cls-3" cx="111.86" cy="107.28" rx="14.36" ry="9.14" transform="translate(-.89 213.63) rotate(-87.13)"/>
          <ellipse class="cls-1" cx="107.61" cy="96.26" rx="3.57" ry="2.28" transform="translate(6.09 198.92) rotate(-87.13)"/>
        </g>
        <ellipse class="cls-6" cx="63.14" cy="165.77" rx="6.99" ry="3.69"/>
        <ellipse class="cls-6" cx="104.13" cy="165.77" rx="6.99" ry="3.69"/>
        <path class="cls-2" d="M68.19,216.87c6.06,.56,13,.84,20.65,.52,7.21-.3,13.75-1.08,19.48-2.05-4.55,1.58-10.87,3.24-18.54,3.69-9.03,.53-16.51-.82-21.59-2.16Z"/>
      </g>
      <path class="cls-6" d="M130.32,329.5c1.6,.3,4.03,.69,7.02,.87,2.14,.12,3.17,.06,6.89,.01,4.82-.06,7.68-.1,10.66,.04,2.09,.1,5.17,.32,8.93,.92,4.88,7.39,6.02,16.18,2.28,22.07-6.14,9.66-24.2,9.66-32.7,.12-5.39-6.04-6.49-15.4-3.09-24.03Z"/>
      <path class="cls-6" d="M76.42,352.39c6.66,.84,13.25,6.64,12.34,10.32-1,4.02-11.24,6.74-17.54,2.67-3.13-2.02-6.4-6.42-5.01-9.69,1.46-3.44,7.26-3.68,10.21-3.31Z"/>
      <path class="cls-6" d="M33.48,288.78l-4.05,14.68c.15,.53,.75,2.32,3.16,3.31,3.47,1.42,8.69,.35,11.23-1.85,1.12-.96,2.68-2.86,1.76-4.09-.85-1.14-3.21-.92-4.01-2.39-.4-.74-.16-1.45-.09-1.63,.63-1.74,3.25-2.07,4.35-3.33,2.22-2.53-2.09-8.43-6.87-8.02-2.75,.23-4.77,2.47-5.48,3.32Z"/>
      <path class="cls-6" d="M110.74,214.52c-1.12,.41-2.29,.8-3.5,1.19-1.56,.5-3.08,.93-4.54,1.32-.16,.3-1.3,2.6-.22,4.91,1.03,2.21,3.66,3.5,6.42,3.02,.61-3.48,1.23-6.95,1.84-10.43Z"/>
      <path class="cls-6" d="M31.19,366.99c3.14-5.79,12.55-7.88,19.41-5.38,7.39,2.69,12.41,10.91,12.11,17.49-.14,3.02-1.39,5.57,.19,7.49,1.83,2.22,4.98,.62,7.3,2.69,2.83,2.52,2.92,9.15,0,11.72-3.75,3.31-11.88-.59-18.26-3.65-3.82-1.83-7.42-3.56-11.15-7.11-1.18-1.13-14.55-14.15-9.61-23.25Z"/>
      <path class="cls-6" d="M30.01,333.43c5.62-3.67,14.4-3.53,16.09-.13,1.85,3.71-4.2,12.41-11.63,13.4-3.69,.49-9.03-.75-10.09-4.14-1.11-3.56,3.14-7.5,5.64-9.13Z"/>
      <path class="cls-6" d="M128.16,416.21c6.63-1.05,14.58,2.66,14.74,6.46,.17,4.14-8.9,9.61-16.09,7.47-3.57-1.06-7.94-4.37-7.52-7.9,.44-3.71,5.94-5.56,8.88-6.03Z"/>
      <path class="cls-6" d="M188.9,389.34c6.63-1.05,14.58,2.66,14.74,6.46,.17,4.14-8.9,9.61-16.09,7.47-3.57-1.06-7.94-4.37-7.52-7.9,.44-3.71,5.94-5.56,8.88-6.03Z"/>
      <path class="cls-6" d="M81.86,288.9c4.42-4.74,13.07-3.86,17.99,0,7.67,6.01,7.43,20.18,1.16,24.09-4.7,2.93-12.38-.18-16.54-4.64-4.56-4.89-7.5-14.19-2.61-19.44Z"/>
      <path class="cls-6" d="M59.24,236.49c2.95-5.77,11.52-7.28,17.31-4.92,9.02,3.69,12.66,17.38,7.7,22.85-3.72,4.1-11.96,3.21-17.18,.05-5.72-3.46-11.09-11.61-7.82-17.99Z"/>
      <path class="cls-6" d="M97.56,381.91c2.91-5.79,11.47-7.37,17.27-5.05,9.05,3.62,12.8,17.28,7.88,22.79-3.69,4.13-11.93,3.31-17.18,.19-5.75-3.41-11.18-11.52-7.97-17.93Z"/>
      <path class="cls-6" d="M147.86,492.77c-1.89,.16-3.67-1.65-3.95-3.57-.3-2.07,1.12-4.43,2.83-5.35,.79-.42,1.6-.52,1.88-1.17,.32-.74-.5-1.22-.29-2.05,.26-1.01,1.93-2.03,2.97-1.76,1.34,.35,1.43,2.77,1.5,4.66,.04,1.13,.08,2.21-.32,3.58-.13,.44-1.65,5.4-4.62,5.65Z"/>
      <path class="cls-6" d="M90.71,444.26c.09,1.89-1.78,3.6-3.71,3.81-2.08,.22-4.38-1.28-5.24-3.03-.39-.8-.46-1.62-1.09-1.92-.73-.35-1.23,.46-2.06,.21-1-.3-1.95-2.01-1.64-3.04,.4-1.32,2.82-1.33,4.71-1.33,1.13,0,2.21,0,3.56,.46,.43,.15,5.33,1.86,5.47,4.83Z"/>
      <path class="cls-6" d="M40.54,429.95c2.41,.13,6.11,4.78,6.79,8.22,.74,3.76-1.9,7.21-5.05,4.11-1.56-1.54-3.8-5.23-4.22-8.34-.43-3.27,1.4-4.04,2.47-3.99Z"/>
      <path class="cls-6" d="M176.15,461.65c2.41,.13,6.11,4.78,6.79,8.22,.74,3.76-1.9,7.21-5.05,4.11-1.56-1.54-3.8-5.23-4.22-8.34-.43-3.27,1.4-4.04,2.47-3.99Z"/>
      <path class="cls-6" d="M98.32,478.66c-.05,.53-.09,1.34-.05,2.33,.03,.71,.08,1.04,.21,2.26,.17,1.58,.27,2.52,.32,3.5,.04,.69,.06,1.71,0,2.96-2.19,1.83-4.94,2.47-6.93,1.42-3.26-1.72-3.82-7.65-1.07-10.73,1.75-1.95,4.68-2.6,7.52-1.74Z"/>
    </g>
  </g>
</svg>