<svg width="93" height="93" viewBox="0 0 93 93" fill="none" xmlns="http://www.w3.org/2000/svg">
<path d="M46.4247 92.8493C72.0643 92.8493 92.8493 72.0643 92.8493 46.4247C92.8493 20.785 72.0643 0 46.4247 0C20.785 0 0 20.785 0 46.4247C0 72.0643 20.785 92.8493 46.4247 92.8493Z" fill="white"/>
<path fill-rule="evenodd" clip-rule="evenodd" d="M66.5591 11C66.4744 14.7655 64.9848 18.3654 62.3794 21.1007C59.774 23.836 56.2388 25.5116 52.4601 25.802V26.062C52.4589 28.6299 51.8027 31.1556 50.5527 33.4031C49.3028 35.6506 47.5 37.5465 45.3126 38.9137C43.1253 40.2808 40.6249 41.0745 38.0452 41.2207C35.4654 41.3669 32.8905 40.8607 30.5609 39.7495C29.1557 41.7535 27.2847 43.3909 25.1068 44.5229C22.9289 45.6549 20.5083 46.248 18.0505 46.2518C15.5927 46.2557 13.1702 45.6702 10.9887 44.545C8.80722 43.4198 6.93106 41.7882 5.5195 39.7887C4.33397 47.1193 5.18651 54.6325 7.985 61.5167C10.7835 68.4009 15.4216 74.3943 21.3982 78.8495C27.3748 83.3046 34.4627 86.0522 41.8962 86.7954C49.3298 87.5385 56.8263 86.249 63.5761 83.0661C70.3259 79.8833 76.0722 74.928 80.1944 68.7357C84.3166 62.5434 86.6578 55.3495 86.9653 47.9311C87.2727 40.5126 85.5347 33.1517 81.9389 26.6435C78.3431 20.1353 73.0262 14.7273 66.5627 11.0036L66.5591 11ZM46.0036 78.8109C29.5219 78.8109 17.913 69.5316 16.1645 55.3527C16.1645 54.9183 21.8973 54.9183 21.8973 55.3527C24.4054 65.6789 32.7 73.0496 46.0071 73.0496C59.3143 73.0496 70.117 62.1893 70.117 48.808C70.117 48.3736 75.8497 48.3736 75.8497 48.808C75.8426 65.3655 62.4709 78.8109 46.0036 78.8109Z" fill="#464646"/>
</svg>
