<svg width="19" height="32" viewBox="0 0 19 32" fill="none" xmlns="http://www.w3.org/2000/svg">
<path d="M0.404454 3.37647C-0.0636442 2.67545 -0.132282 1.79788 0.234405 1.19645C0.745789 0.356396 2.0901 0.0763769 3.12771 0.884747C7.5527 5.49763 11.9777 10.1105 16.4027 14.7234C16.4793 14.7919 17.0668 15.339 17.0408 16.236C17.0148 17.1323 16.3983 17.6406 16.3173 17.7047C11.9492 22.3027 7.58052 26.9007 3.21243 31.4987C2.30158 32.2799 1.00797 32.104 0.404454 31.2762C-0.082195 30.6088 -0.0673544 29.589 0.489788 28.8291C4.51779 24.5868 8.54578 20.3451 12.5732 16.1028L0.404454 3.37647Z" fill="#50ABAF"/>
<path d="M2.36271 2.97422C1.89461 2.27256 1.82597 1.39564 2.19266 0.793561C2.70404 -0.0464968 4.04836 -0.326516 5.08596 0.481854C9.51095 5.09474 13.9359 9.70762 18.3609 14.3205C18.4376 14.3891 19.025 14.9362 18.9991 15.8331C18.9731 16.7294 18.3566 17.2377 18.2756 17.3018C13.9075 21.8998 9.53878 26.4978 5.17068 31.0958C4.25984 31.877 2.96623 31.7011 2.36271 30.8733C1.87606 30.2059 1.8909 29.1861 2.44804 28.4262C6.47604 24.1839 10.504 19.9422 14.5314 15.6999L2.36271 2.97422Z" fill="#47D8E0"/>
</svg>
