<svg width="19" height="32" viewBox="0 0 19 32" fill="none" xmlns="http://www.w3.org/2000/svg">
<path d="M18.5956 3.37644C19.0637 2.67478 19.1323 1.79786 18.7656 1.19578C18.2542 0.355725 16.9099 0.0757055 15.8723 0.884076C11.4479 5.4976 7.02295 10.1105 2.59797 14.7234C2.52129 14.7919 1.93385 15.339 1.95982 16.236C1.98579 17.1323 2.6023 17.6406 2.6833 17.7046C7.0514 22.3026 11.4201 26.9007 15.7882 31.4987C16.6991 32.2799 17.9927 32.104 18.5962 31.2762C19.0828 30.6088 19.068 29.589 18.5109 28.8291C14.4829 24.5868 10.4549 20.3451 6.42747 16.1028L18.5956 3.37644Z" fill="#50ABAF"/>
<path d="M16.6372 2.97422C17.1053 2.27256 17.1739 1.39564 16.8072 0.793561C16.2959 -0.0464968 14.9515 -0.326516 13.9139 0.481854C9.48896 5.09474 5.06397 9.70762 0.638983 14.3205C0.562307 14.3891 -0.0251355 14.9362 0.000835676 15.8331C0.0268068 16.7294 0.643312 17.2377 0.724317 17.3018C5.09241 21.8998 9.46113 26.4978 13.8292 31.0958C14.7401 31.877 16.0337 31.7011 16.6372 30.8733C17.1238 30.2059 17.109 29.1861 16.5519 28.4262C12.5239 24.1839 8.49587 19.9422 4.46849 15.6999L16.6372 2.97422Z" fill="#47D8E0"/>
</svg>
