<svg width="231" height="350" viewBox="0 0 231 350" fill="none" xmlns="http://www.w3.org/2000/svg">
<rect width="231" height="86" fill="#FFD600"/>
<ellipse cx="118" cy="287" rx="113" ry="63" fill="#DB4D89"/>
<path d="M94.9637 182.242C96.9921 184.86 97.1844 188.396 95.491 190.995C93.3634 194.264 89.3997 194.295 89.1268 194.288C81.5034 187.552 73.6133 180.152 65.5867 172.051C57.6408 164.031 50.3772 156.153 43.7649 148.542C42.2018 144.51 43.0454 139.957 45.9235 136.887C49.1366 133.456 54.3347 132.47 58.7573 134.499C62.293 138.53 87.1419 172.15 94.9637 182.242Z" fill="#595A5C"/>
<path d="M44.1434 148.994C47.7163 151.91 52.7655 152.257 56.6733 149.863C60.6618 147.419 62.6405 142.624 61.5302 138.046C56.0282 126.484 50.5262 114.922 45.0243 103.359C44.6459 103.031 40.4465 99.5073 34.9011 100.909C29.8519 102.181 27.7491 106.517 27.4824 107.093C28.5679 112.589 30.1931 118.848 32.6556 125.584C36.1231 135.069 40.3038 142.89 44.1496 148.994H44.1434Z" fill="#595A5C"/>
<path d="M28.4739 110.22C31.2838 113.991 36.2834 115.226 40.2036 113.315C43.5346 111.696 45.594 108.049 45.3458 104.141C41.8784 96.5984 38.411 89.0495 34.9436 81.5068C34.7451 81.0725 34.4969 80.8865 34.3109 80.7996C33.3742 80.3592 31.7242 81.3207 30.2914 83.3056C29.6649 84.2112 29.0818 85.1851 28.5608 86.2272C23.952 95.5191 26.7867 105.599 28.4677 110.226L28.4739 110.22Z" fill="#595A5C"/>
<path d="M138.681 181.553C136.652 184.165 136.454 187.7 138.141 190.299C140.263 193.568 144.232 193.606 144.505 193.606C152.135 186.875 160.037 179.488 168.07 171.393C176.029 163.385 183.292 155.507 189.917 147.909C191.48 143.877 190.643 139.33 187.771 136.254C184.558 132.817 179.366 131.825 174.937 133.853C171.401 137.885 146.509 171.474 138.681 181.553Z" fill="#595A5C"/>
<path d="M189.533 148.361C185.954 151.277 180.911 151.618 177.003 149.217C173.015 146.767 171.048 141.972 172.159 137.395C177.673 125.839 183.187 114.283 188.708 102.727C189.086 102.398 193.292 98.8808 198.837 100.283C203.886 101.56 205.983 105.896 206.25 106.473C205.158 111.969 203.527 118.228 201.052 124.958C197.572 134.442 193.379 142.252 189.533 148.355V148.361Z" fill="#595A5C"/>
<path d="M205.25 109.612C202.434 113.377 197.435 114.605 193.514 112.695C190.183 111.07 188.13 107.422 188.384 103.514C191.858 95.9717 195.338 88.429 198.812 80.8862C199.01 80.452 199.258 80.2659 199.45 80.1791C200.387 79.7387 202.037 80.7063 203.464 82.6851C204.09 83.5907 204.673 84.5646 205.188 85.6066C209.791 94.9048 206.937 104.985 205.25 109.606V109.612Z" fill="#595A5C"/>
<path d="M88.8832 189.139C89.9811 187.706 99.8934 175.201 117.082 175.238C134.164 175.282 143.996 187.681 145.106 189.133C150.193 203.79 155.217 222.108 158.188 243.508C160.787 262.216 161.234 278.994 160.732 293.075C159.59 294.123 149.076 303.515 135.349 300.618C127.633 298.986 122.757 294.291 120.822 292.194C120.171 292.535 118.75 293.162 116.858 293.1C115.227 293.044 114.005 292.498 113.378 292.157C111.27 294.291 106.233 298.782 98.4605 300.351C84.8141 303.105 74.3684 294.502 72.9417 293.286C72.3462 278.833 72.7618 261.142 75.7454 241.231C78.8345 220.625 83.8712 203.071 88.8832 189.127V189.139Z" fill="#595A5C"/>
<path d="M88.8832 189.139C88.48 189.028 83.6045 203.586 79.8084 219.962C78.0778 227.417 76.7565 234.538 75.7455 241.244C75.0383 245.939 73.7915 255.12 73.1278 266.955C72.3959 280.055 72.5572 293.292 72.9355 293.299C73.4256 293.311 72.5696 270.993 76.8558 242.001C81.4211 211.098 89.3733 189.282 88.877 189.139H88.8832Z" fill="#818285"/>
<path d="M145.236 189.462C145.639 189.35 150.118 203.362 153.914 219.738C155.644 227.194 156.966 234.315 157.977 241.02C158.684 245.716 159.931 254.896 160.594 266.731C161.326 279.832 161.165 293.069 160.787 293.075C160.296 293.087 161.152 270.769 156.866 241.777C152.301 210.874 144.746 189.604 145.242 189.462H145.236Z" fill="#818285"/>
<path d="M117.126 197.135C147.79 197.135 172.648 172.127 172.648 141.278C172.648 110.429 147.79 85.4209 117.126 85.4209C86.4617 85.4209 61.6035 110.429 61.6035 141.278C61.6035 172.127 86.4617 197.135 117.126 197.135Z" fill="#595A5C"/>
<path d="M167.711 166.117C168.498 164.541 169.265 162.79 169.963 160.868C171.664 156.182 172.448 151.861 172.791 148.307C171.71 153.104 169.914 159.113 166.809 165.659C163.641 172.34 160.047 177.621 156.963 181.531C159.145 179.424 161.674 176.604 164.035 172.954C165.611 170.517 166.805 168.187 167.719 166.114L167.711 166.117Z" fill="#818285"/>
<path d="M65.5107 163.832C64.79 162.224 64.0963 160.443 63.4794 158.494C61.9745 153.74 61.3707 149.391 61.1758 145.825C62.0559 150.663 63.601 156.742 66.4307 163.411C69.3189 170.218 72.6899 175.644 75.608 179.679C73.5163 177.484 71.1069 174.56 68.8996 170.815C67.4264 168.315 66.3294 165.937 65.5026 163.828L65.5107 163.832Z" fill="#818285"/>
<path d="M116.941 197.055C115.179 197.086 113.269 197.024 111.234 196.825C106.272 196.342 102.035 195.188 98.6797 193.966C103.475 195.058 109.671 196.025 116.916 196.044C124.31 196.062 130.625 195.095 135.482 193.997C132.641 195.058 129.006 196.124 124.695 196.683C121.817 197.055 119.199 197.129 116.935 197.061L116.941 197.055Z" fill="#818285"/>
<path d="M74.357 253.215C66.3366 249.103 56.6725 250.312 50.2401 256.162C43.0881 262.662 41.3265 273.61 46.2206 282.425C49.7066 284.968 52.7026 287.021 54.9729 288.528C57.9441 290.513 60.2453 291.952 63.1669 293.789C63.5019 293.999 67.8067 296.698 71.8572 299.123C79.6915 303.819 87.3459 308.086 94.7459 311.975C101.563 314.134 108.87 311.399 112.306 305.431C115.693 299.539 114.508 291.897 109.422 286.978C97.7357 275.726 86.0494 264.467 74.3632 253.215H74.357Z" fill="#595A5C"/>
<path d="M153.42 331.726C153.953 332.464 154.071 333.4 153.699 334.145C153.221 335.106 152.006 335.596 150.815 335.23C138.75 331.484 125.513 326.602 111.538 320.188C103.604 316.547 96.229 312.77 89.4183 308.992C81.1374 303.192 79.9526 291.897 85.6469 285.638C90.696 280.08 100.385 279.354 107.295 284.943C122.672 300.537 138.043 316.132 153.42 331.732V331.726Z" fill="#595A5C"/>
<path d="M83.7734 262.284C92.2466 270.243 100.8 278.474 109.416 286.978C120.172 297.591 130.494 308.124 140.406 318.526C128.683 307.603 116.804 296.115 104.839 284.044C97.5997 276.743 90.5842 269.486 83.7796 262.284H83.7734Z" fill="#818285"/>
<path d="M158.537 246.82C166.427 242.459 176.122 243.377 182.734 249.022C190.079 255.299 192.181 266.186 187.56 275.155C184.155 277.804 181.221 279.944 179 281.525C176.091 283.597 173.839 285.111 170.974 287.034C170.645 287.251 166.427 290.085 162.457 292.635C154.772 297.566 147.254 302.069 139.978 306.182C133.235 308.551 125.841 306.045 122.225 300.177C118.658 294.39 119.607 286.717 124.539 281.643C135.871 270.038 147.21 258.426 158.543 246.82H158.537Z" fill="#595A5C"/>
<path d="M81.4288 328.122C80.9139 328.878 80.8209 329.821 81.2117 330.553C81.7203 331.502 82.9547 331.955 84.1333 331.539C96.1483 327.365 109.317 322.018 123.174 315.096C131.046 311.169 138.347 307.131 145.083 303.112C153.246 297.014 154.127 285.65 148.24 279.572C143.017 274.175 133.273 273.784 126.481 279.621C111.463 295.786 96.4398 311.951 81.4226 328.115L81.4288 328.122Z" fill="#595A5C"/>
<path d="M153.65 251.826C147.751 258.01 141.852 264.195 135.953 270.379C124.738 282.14 113.523 293.894 102.309 305.655C112.444 293.193 124.037 280.242 137.262 267.216C142.77 261.788 148.247 256.664 153.65 251.826Z" fill="#818285"/>
<g clip-path="url(#clip0_1189_10814)">
<path d="M116.999 197.143C147.8 197.143 172.769 172.174 172.769 141.373C172.769 110.572 147.8 85.6025 116.999 85.6025C86.1978 85.6025 61.2285 110.572 61.2285 141.373C61.2285 172.174 86.1978 197.143 116.999 197.143Z" fill="#595A5C"/>
<path d="M98.8926 194.11C98.8926 194.11 117.086 202.472 135.279 194.11C135.279 194.11 117.086 200.896 98.8926 194.11Z" fill="#818285"/>
<path d="M108.606 176.494C109.226 176.097 110.883 175.148 113.333 174.98C116.509 174.763 118.773 176.01 119.331 176.339C119.505 176.574 119.976 177.275 119.771 178.138C119.517 179.167 118.394 180.011 116.906 180.278C116.651 180.309 115.671 180.414 114.685 179.943C113.637 179.44 113.326 178.646 113.258 178.473C113.202 178.628 112.812 179.645 111.466 180.147C110.324 180.575 109.257 180.346 109.009 180.284C108.011 179.881 107.384 179.087 107.409 178.243C107.44 177.189 108.476 176.574 108.606 176.506V176.494Z" fill="#818285"/>
<path d="M94.4945 157.426C94.4945 157.426 96.3926 157.091 98.4581 157.426L97.292 156.465C97.292 156.465 94.8356 156.75 94.4883 157.426H94.4945Z" fill="#60C8D4"/>
<path d="M84.6699 135.611C84.6699 135.611 85.2158 138.067 91.214 140.319C91.214 140.319 94.8985 142.025 96.3934 134.457C96.3934 134.457 90.8728 134.866 84.9366 128.868C84.9366 128.868 84.7692 133.266 92.9508 136.64C92.9508 136.64 93.4284 137.05 92.9198 137.354C92.9198 137.354 88.2118 137.999 84.6699 135.617V135.611Z" fill="#60C8D4"/>
<path d="M98.6691 157.426C102.849 157.426 106.237 152.124 106.237 145.585C106.237 139.045 102.849 133.743 98.6691 133.743C94.4897 133.743 91.1016 139.045 91.1016 145.585C91.1016 152.124 94.4897 157.426 98.6691 157.426Z" fill="white"/>
<path d="M149.608 135.611C149.608 135.611 149.062 138.067 143.064 140.319C143.064 140.319 139.38 142.025 137.885 134.457C137.885 134.457 143.405 134.866 149.342 128.868C149.342 128.868 149.509 133.266 141.327 136.64C141.327 136.64 140.85 137.05 141.358 137.354C141.358 137.354 146.066 137.999 149.608 135.617V135.611Z" fill="#60C8D4"/>
<path d="M140.098 157.426C140.098 157.426 138.2 157.091 136.135 157.426L137.301 156.465C137.301 156.465 139.757 156.75 140.105 157.426H140.098Z" fill="#60C8D4"/>
<path d="M135.609 157.426C139.788 157.426 143.176 152.124 143.176 145.585C143.176 139.045 139.788 133.743 135.609 133.743C131.429 133.743 128.041 139.045 128.041 145.585C128.041 152.124 131.429 157.426 135.609 157.426Z" fill="white"/>
<path d="M98.8307 157.433C102.109 157.433 104.767 153.192 104.767 147.961C104.767 142.73 102.109 138.489 98.8307 138.489C95.5523 138.489 92.8945 142.73 92.8945 147.961C92.8945 153.192 95.5523 157.433 98.8307 157.433Z" fill="#231F20"/>
<path d="M95.2589 143.191C96.088 143.191 96.76 142.139 96.76 140.84C96.76 139.542 96.088 138.489 95.2589 138.489C94.4299 138.489 93.7578 139.542 93.7578 140.84C93.7578 142.139 94.4299 143.191 95.2589 143.191Z" fill="white"/>
<path d="M135.564 157.433C138.89 157.433 141.587 153.192 141.587 147.961C141.587 142.73 138.89 138.489 135.564 138.489C132.238 138.489 129.541 142.73 129.541 147.961C129.541 153.192 132.238 157.433 135.564 157.433Z" fill="#231F20"/>
<path d="M132.407 143.191C133.236 143.191 133.908 142.139 133.908 140.84C133.908 139.542 133.236 138.489 132.407 138.489C131.578 138.489 130.906 139.542 130.906 140.84C130.906 142.139 131.578 143.191 132.407 143.191Z" fill="white"/>
<path opacity="0.57" d="M91.6727 166.83C95.5369 166.83 98.6695 166.005 98.6695 164.988C98.6695 163.97 95.5369 163.146 91.6727 163.146C87.8084 163.146 84.6758 163.97 84.6758 164.988C84.6758 166.005 87.8084 166.83 91.6727 166.83Z" fill="#F7B1C4"/>
<path opacity="0.57" d="M144.354 166.83C148.219 166.83 151.351 166.005 151.351 164.988C151.351 163.97 148.219 163.146 144.354 163.146C140.49 163.146 137.357 163.97 137.357 164.988C137.357 166.005 140.49 166.83 144.354 166.83Z" fill="#F7B1C4"/>
</g>
<defs>
<clipPath id="clip0_1189_10814">
<rect width="111.547" height="112.229" fill="white" transform="translate(61.2285 85.6025)"/>
</clipPath>
</defs>
</svg>
