<svg width="231" height="350" viewBox="0 0 231 350" fill="none" xmlns="http://www.w3.org/2000/svg">
<rect width="231" height="86" fill="#47D8E0"/>
<ellipse cx="118" cy="287" rx="113" ry="63" fill="#FFD600"/>
<path d="M117.141 196.396C147.913 196.396 172.86 171.45 172.86 140.677C172.86 109.904 147.913 84.958 117.141 84.958C86.3681 84.958 61.4219 109.904 61.4219 140.677C61.4219 171.45 86.3681 196.396 117.141 196.396Z" fill="#595A5C"/>
<path d="M98.9648 193.365C98.9648 193.365 117.141 201.719 135.318 193.365C135.318 193.365 117.141 200.145 98.9648 193.365Z" fill="#818285"/>
<path d="M94.7734 157.056C94.7734 157.056 96.6574 156.727 98.7148 157.056L97.556 156.102C97.556 156.102 95.1143 156.38 94.7734 157.056Z" fill="#60C8D4"/>
<path d="M85.0195 135.384C85.0195 135.384 85.5587 137.82 91.5204 140.057C91.5204 140.057 95.1767 141.749 96.6702 134.231C96.6702 134.231 91.1857 134.64 85.2922 128.679C85.2922 128.679 85.1249 133.048 93.2494 136.4C93.2494 136.4 93.7266 136.809 93.2184 137.113C93.2184 137.113 88.5457 137.758 85.0257 135.384H85.0195Z" fill="#60C8D4"/>
<path d="M98.9195 157.056C103.071 157.056 106.437 151.79 106.437 145.294C106.437 138.797 103.071 133.531 98.9195 133.531C94.7679 133.531 91.4023 138.797 91.4023 145.294C91.4023 151.79 94.7679 157.056 98.9195 157.056Z" fill="white"/>
<path d="M149.52 135.384C149.52 135.384 148.981 137.82 143.019 140.057C143.019 140.057 139.363 141.749 137.869 134.231C137.869 134.231 143.354 134.64 149.247 128.679C149.247 128.679 149.414 133.048 141.29 136.4C141.29 136.4 140.813 136.809 141.321 137.113C141.321 137.113 145.994 137.758 149.514 135.384H149.52Z" fill="#60C8D4"/>
<path d="M140.076 157.056C140.076 157.056 138.192 156.727 136.135 157.056L137.294 156.102C137.294 156.102 139.735 156.38 140.076 157.056Z" fill="#60C8D4"/>
<path d="M135.613 157.056C139.765 157.056 143.13 151.79 143.13 145.294C143.13 138.797 139.765 133.531 135.613 133.531C131.461 133.531 128.096 138.797 128.096 145.294C128.096 151.79 131.461 157.056 135.613 157.056Z" fill="white"/>
<path d="M99.0814 157.056C102.34 157.056 104.981 152.844 104.981 147.649C104.981 142.453 102.34 138.241 99.0814 138.241C95.823 138.241 93.1816 142.453 93.1816 147.649C93.1816 152.844 95.823 157.056 99.0814 157.056Z" fill="#231F20"/>
<path d="M95.5365 142.914C96.3613 142.914 97.03 141.868 97.03 140.578C97.03 139.287 96.3613 138.241 95.5365 138.241C94.7116 138.241 94.043 139.287 94.043 140.578C94.043 141.868 94.7116 142.914 95.5365 142.914Z" fill="white"/>
<path d="M135.57 157.056C138.877 157.056 141.557 152.844 141.557 147.649C141.557 142.453 138.877 138.241 135.57 138.241C132.264 138.241 129.584 142.453 129.584 147.649C129.584 152.844 132.264 157.056 135.57 157.056Z" fill="#231F20"/>
<path d="M132.435 142.914C133.26 142.914 133.928 141.868 133.928 140.578C133.928 139.287 133.26 138.241 132.435 138.241C131.61 138.241 130.941 139.287 130.941 140.578C130.941 141.868 131.61 142.914 132.435 142.914Z" fill="white"/>
<path opacity="0.57" d="M91.9669 166.401C95.8071 166.401 98.9202 165.58 98.9202 164.567C98.9202 163.554 95.8071 162.732 91.9669 162.732C88.1267 162.732 85.0137 163.554 85.0137 164.567C85.0137 165.58 88.1267 166.401 91.9669 166.401Z" fill="#F7B1C4"/>
<path opacity="0.57" d="M144.303 166.401C148.143 166.401 151.256 165.58 151.256 164.567C151.256 163.554 148.143 162.732 144.303 162.732C140.463 162.732 137.35 163.554 137.35 164.567C137.35 165.58 140.463 166.401 144.303 166.401Z" fill="#F7B1C4"/>
<path d="M109.901 170.417C109.857 178.039 114.313 183.065 117.418 182.966C120.516 182.867 124.631 177.605 124.154 170.045" stroke="#818285" stroke-width="2" stroke-miterlimit="10"/>
<path d="M95.3826 182.13C97.409 184.745 97.6012 188.278 95.9093 190.874C93.7837 194.14 89.8237 194.171 89.551 194.165C81.9347 187.435 74.0519 180.041 66.0327 171.948C58.0941 163.935 50.8372 156.065 44.231 148.461C42.6693 144.432 43.5121 139.884 46.3876 136.816C49.5978 133.389 54.791 132.404 59.2096 134.43C62.742 138.458 87.5679 172.047 95.3826 182.13Z" fill="#595A5C"/>
<path d="M44.6085 148.913C48.1781 151.826 53.2226 152.173 57.1268 149.781C61.1116 147.339 63.0885 142.549 61.9792 137.975C56.4823 126.424 50.9854 114.872 45.4885 103.321C45.1105 102.992 40.915 99.4722 35.3747 100.873C30.3302 102.143 28.2294 106.475 27.9629 107.051C29.0474 112.542 30.6711 118.795 33.1313 125.525C36.5956 135.001 40.7725 142.815 44.6147 148.913H44.6085Z" fill="#595A5C"/>
<path d="M28.9541 110.175C31.7614 113.943 36.7564 115.176 40.673 113.268C44.0009 111.65 46.0583 108.006 45.8105 104.102C42.3462 96.5662 38.882 89.0242 35.4178 81.4884C35.2195 81.0546 34.9716 80.8687 34.7857 80.7819C33.8499 80.3419 32.2014 81.3025 30.7699 83.2856C30.144 84.1904 29.5614 85.1634 29.0409 86.2045C24.4364 95.4879 27.2685 105.558 28.9479 110.181L28.9541 110.175Z" fill="#595A5C"/>
<path d="M139.06 181.442C137.034 184.051 136.835 187.583 138.521 190.18C140.64 193.446 144.607 193.483 144.879 193.483C152.502 186.759 160.397 179.378 168.422 171.291C176.373 163.29 183.63 155.42 190.249 147.828C191.811 143.8 190.974 139.258 188.105 136.184C184.894 132.751 179.707 131.759 175.283 133.786C171.75 137.814 146.881 171.372 139.06 181.442Z" fill="#595A5C"/>
<path d="M189.864 148.281C186.289 151.193 181.25 151.534 177.346 149.136C173.361 146.688 171.397 141.898 172.506 137.324C178.015 125.779 183.525 114.233 189.04 102.688C189.418 102.359 193.62 98.8457 199.16 100.246C204.205 101.523 206.299 105.855 206.566 106.431C205.475 111.922 203.845 118.175 201.372 124.899C197.896 134.374 193.707 142.176 189.864 148.274V148.281Z" fill="#595A5C"/>
<path d="M205.569 109.567C202.755 113.329 197.76 114.556 193.844 112.647C190.516 111.023 188.464 107.379 188.718 103.475C192.189 95.9395 195.665 88.4037 199.136 80.8679C199.334 80.4341 199.582 80.2482 199.774 80.1614C200.71 79.7214 202.358 80.6882 203.784 82.6651C204.41 83.5699 204.992 84.5428 205.507 85.584C210.105 94.8735 207.254 104.944 205.569 109.561V109.567Z" fill="#595A5C"/>
<path d="M89.3077 189.021C90.4046 187.589 100.308 175.096 117.48 175.133C134.547 175.176 144.37 187.564 145.479 189.015C150.561 203.659 155.58 221.959 158.549 243.339C161.146 262.03 161.592 278.793 161.09 292.861C159.949 293.908 149.445 303.291 135.731 300.397C128.022 298.767 123.151 294.075 121.217 291.981C120.566 292.322 119.147 292.948 117.257 292.886C115.627 292.83 114.406 292.285 113.78 291.944C111.673 294.075 106.641 298.562 98.8762 300.13C85.2424 302.882 74.8063 294.286 73.381 293.072C72.786 278.632 73.2012 260.958 76.1821 241.065C79.2683 220.478 84.3004 202.94 89.3077 189.008V189.021Z" fill="#595A5C"/>
<path d="M89.3077 189.021C88.9048 188.91 84.0339 203.454 80.2412 219.815C78.5122 227.264 77.1922 234.378 76.182 241.077C75.4755 245.769 74.2299 254.941 73.5668 266.765C72.8355 279.853 72.9967 293.078 73.3747 293.084C73.8643 293.097 73.0091 270.799 77.2913 241.834C81.8524 210.959 89.7972 189.164 89.3015 189.021H89.3077Z" fill="#818285"/>
<path d="M145.609 189.343C146.012 189.232 150.486 203.231 154.279 219.592C156.008 227.041 157.328 234.155 158.338 240.854C159.044 245.546 160.29 254.718 160.953 266.542C161.684 279.63 161.523 292.855 161.145 292.861C160.656 292.874 161.511 270.576 157.229 241.61C152.667 210.736 145.119 189.486 145.615 189.343H145.609Z" fill="#818285"/>
<path d="M117.524 197.01C148.16 197.01 172.995 172.025 172.995 141.204C172.995 110.383 148.16 85.3984 117.524 85.3984C86.888 85.3984 62.0527 110.383 62.0527 141.204C62.0527 172.025 86.888 197.01 117.524 197.01Z" fill="#595A5C"/>
<path d="M168.061 166.02C168.848 164.445 169.614 162.696 170.311 160.776C172.011 156.093 172.794 151.777 173.137 148.226C172.057 153.019 170.262 159.022 167.161 165.562C163.995 172.236 160.404 177.513 157.324 181.419C159.503 179.315 162.029 176.497 164.388 172.85C165.963 170.415 167.157 168.087 168.07 166.017L168.061 166.02Z" fill="#818285"/>
<path d="M65.9559 163.737C65.2359 162.131 64.5429 160.351 63.9265 158.404C62.4229 153.655 61.8197 149.31 61.625 145.747C62.5043 150.581 64.048 156.654 66.8751 163.317C69.7606 170.117 73.1285 175.539 76.0439 179.57C73.9541 177.376 71.547 174.456 69.3417 170.714C67.8699 168.216 66.7739 165.84 65.9478 163.734L65.9559 163.737Z" fill="#818285"/>
<path d="M117.338 196.929C115.578 196.96 113.67 196.898 111.637 196.7C106.679 196.216 102.446 195.064 99.0938 193.843C103.884 194.933 110.075 195.9 117.313 195.919C124.701 195.937 131.009 194.971 135.862 193.874C133.023 194.933 129.392 195.999 125.085 196.557C122.209 196.929 119.594 197.003 117.332 196.935L117.338 196.929Z" fill="#818285"/>
<path d="M74.7952 253.038C66.7823 248.93 57.1271 250.138 50.7006 255.982C43.5552 262.477 41.7952 273.415 46.6848 282.221C50.1676 284.762 53.1609 286.813 55.429 288.319C58.3975 290.302 60.6966 291.74 63.6155 293.574C63.9502 293.785 68.251 296.481 72.2978 298.904C80.1248 303.595 87.7721 307.859 95.1654 311.744C101.976 313.901 109.276 311.168 112.71 305.206C116.093 299.319 114.91 291.684 109.828 286.77C98.1524 275.528 86.4769 264.28 74.8014 253.038H74.7952Z" fill="#595A5C"/>
<path d="M153.784 331.476C154.317 332.213 154.434 333.149 154.063 333.893C153.585 334.853 152.371 335.343 151.181 334.977C139.127 331.234 125.903 326.357 111.94 319.949C104.014 316.311 96.6457 312.537 89.8412 308.763C81.568 302.969 80.3843 291.684 86.0733 285.431C91.1178 279.878 100.798 279.153 107.701 284.737C123.064 300.316 138.421 315.896 153.784 331.482V331.476Z" fill="#595A5C"/>
<path d="M84.2031 262.099C92.6685 270.05 101.214 278.273 109.822 286.77C120.568 297.373 130.88 307.896 140.783 318.289C129.071 307.375 117.203 295.898 105.249 283.838C98.0166 276.544 91.0076 269.294 84.2093 262.099H84.2031Z" fill="#818285"/>
<path d="M158.898 246.649C166.781 242.292 176.467 243.209 183.073 248.849C190.411 255.12 192.511 265.996 187.894 274.957C184.492 277.604 181.561 279.742 179.342 281.322C176.436 283.392 174.186 284.904 171.323 286.825C170.995 287.042 166.781 289.874 162.814 292.421C155.136 297.348 147.625 301.847 140.356 305.956C133.62 308.323 126.232 305.819 122.62 299.957C119.056 294.175 120.004 286.509 124.931 281.44C136.253 269.845 147.582 258.244 158.904 246.649H158.898Z" fill="#595A5C"/>
<path d="M81.86 327.875C81.3456 328.631 81.2527 329.573 81.6431 330.304C82.1513 331.252 83.3845 331.705 84.562 331.289C96.5659 327.119 109.723 321.777 123.567 314.861C131.431 310.938 138.725 306.904 145.456 302.888C153.611 296.796 154.491 285.443 148.61 279.369C143.392 273.978 133.656 273.587 126.87 279.419C111.867 295.569 96.8572 311.719 81.8538 327.869L81.86 327.875Z" fill="#595A5C"/>
<path d="M154.015 251.649C148.121 257.828 142.228 264.007 136.334 270.185C125.13 281.935 113.925 293.679 102.721 305.429C112.847 292.978 124.429 280.039 137.642 267.025C143.145 261.602 148.617 256.483 154.015 251.649Z" fill="#818285"/>
<g clip-path="url(#clip0_1194_11693)">
<path d="M117.894 196.464C148.842 196.464 173.929 171.377 173.929 140.429C173.929 109.482 148.842 84.3945 117.894 84.3945C86.9471 84.3945 61.8594 109.482 61.8594 140.429C61.8594 171.377 86.9471 196.464 117.894 196.464Z" fill="#595A5C"/>
<path d="M99.6133 193.415C99.6133 193.415 117.895 201.818 136.17 193.415C136.17 193.415 117.889 200.232 99.6133 193.415Z" fill="#818285"/>
<path d="M94.3008 167.245C96.8478 169.216 105.214 175.171 117.478 175.246C130.021 175.32 138.598 169.191 141.114 167.245" stroke="#818285" stroke-width="2" stroke-miterlimit="10"/>
<path d="M121.507 174.936C120.1 182.069 123.695 188.241 128.603 189.604C131.54 190.416 135.073 189.536 137.211 187.299C140.7 183.643 140.508 176.342 135.327 170.901C130.716 172.246 126.112 173.591 121.501 174.936H121.507Z" fill="#818285"/>
<path d="M95.7953 156.189C95.7953 156.189 97.6916 155.854 99.7553 156.189L98.5902 155.229C98.5902 155.229 96.1361 155.514 95.7891 156.189H95.7953Z" fill="#60C8D4"/>
<path d="M85.9844 134.394C85.9844 134.394 86.5297 136.848 92.5224 139.097C92.5224 139.097 96.2035 140.801 97.6971 133.241C97.6971 133.241 92.1816 133.65 86.2509 127.657C86.2509 127.657 86.0835 132.051 94.2576 135.422C94.2576 135.422 94.7348 135.831 94.2266 136.135C94.2266 136.135 89.523 136.779 85.9844 134.4V134.394Z" fill="#60C8D4"/>
<path d="M99.9707 156.189C104.146 156.189 107.531 150.893 107.531 144.359C107.531 137.825 104.146 132.528 99.9707 132.528C95.7951 132.528 92.4102 137.825 92.4102 144.359C92.4102 150.893 95.7951 156.189 99.9707 156.189Z" fill="white"/>
<path d="M150.863 134.394C150.863 134.394 150.318 136.848 144.325 139.097C144.325 139.097 140.644 140.801 139.15 133.241C139.15 133.241 144.666 133.65 150.597 127.657C150.597 127.657 150.764 132.051 142.59 135.422C142.59 135.422 142.113 135.831 142.621 136.135C142.621 136.135 147.324 136.779 150.863 134.4V134.394Z" fill="#60C8D4"/>
<path d="M141.362 156.189C141.362 156.189 139.466 155.854 137.402 156.189L138.567 155.229C138.567 155.229 141.021 155.514 141.369 156.189H141.362Z" fill="#60C8D4"/>
<path d="M136.875 156.189C141.051 156.189 144.436 150.893 144.436 144.359C144.436 137.825 141.051 132.528 136.875 132.528C132.699 132.528 129.314 137.825 129.314 144.359C129.314 150.893 132.699 156.189 136.875 156.189Z" fill="white"/>
<path d="M100.132 156.189C103.407 156.189 106.063 151.952 106.063 146.726C106.063 141.499 103.407 137.263 100.132 137.263C96.8564 137.263 94.2012 141.499 94.2012 146.726C94.2012 151.952 96.8564 156.189 100.132 156.189Z" fill="#231F20"/>
<path d="M96.5622 141.967C97.3905 141.967 98.0619 140.915 98.0619 139.618C98.0619 138.321 97.3905 137.27 96.5622 137.27C95.7339 137.27 95.0625 138.321 95.0625 139.618C95.0625 140.915 95.7339 141.967 96.5622 141.967Z" fill="white"/>
<path d="M136.832 156.189C140.155 156.189 142.849 151.952 142.849 146.726C142.849 141.499 140.155 137.263 136.832 137.263C133.509 137.263 130.814 141.499 130.814 146.726C130.814 151.952 133.509 156.189 136.832 156.189Z" fill="#231F20"/>
<path d="M133.677 141.967C134.506 141.967 135.177 140.915 135.177 139.618C135.177 138.321 134.506 137.27 133.677 137.27C132.849 137.27 132.178 138.321 132.178 139.618C132.178 140.915 132.849 141.967 133.677 141.967Z" fill="white"/>
<path opacity="0.57" d="M92.9748 165.584C96.8355 165.584 99.9652 164.76 99.9652 163.744C99.9652 162.727 96.8355 161.903 92.9748 161.903C89.1141 161.903 85.9844 162.727 85.9844 163.744C85.9844 164.76 89.1141 165.584 92.9748 165.584Z" fill="#F7B1C4"/>
<path opacity="0.57" d="M145.613 165.584C149.474 165.584 152.604 164.76 152.604 163.744C152.604 162.727 149.474 161.903 145.613 161.903C141.753 161.903 138.623 162.727 138.623 163.744C138.623 164.76 141.753 165.584 145.613 165.584Z" fill="#F7B1C4"/>
</g>
<defs>
<clipPath id="clip0_1194_11693">
<rect width="112.07" height="112.758" fill="white" transform="translate(61.8594 84.3945)"/>
</clipPath>
</defs>
</svg>
