<svg width="231" height="350" viewBox="0 0 231 350" fill="none" xmlns="http://www.w3.org/2000/svg">
<rect width="231" height="86" fill="#6DEEBB"/>
<ellipse cx="118" cy="287" rx="113" ry="63" fill="#7F7DCF"/>
<path d="M94.9451 182.073C96.9715 184.689 97.1637 188.221 95.4718 190.818C93.3462 194.083 89.3862 194.114 89.1135 194.108C81.4972 187.378 73.6144 179.985 65.5952 171.891C57.6566 163.878 50.3997 156.008 43.7935 148.404C42.2318 144.376 43.0746 139.827 45.9501 136.759C49.1603 133.332 54.3535 132.347 58.7721 134.374C62.3045 138.402 87.1304 171.99 94.9451 182.073Z" fill="#595A5C"/>
<path d="M44.171 148.857C47.7406 151.769 52.7851 152.116 56.6893 149.724C60.6741 147.283 62.651 142.492 61.5417 137.919C56.0448 126.367 50.5479 114.816 45.051 103.264C44.673 102.936 40.4775 99.4156 34.9372 100.816C29.8927 102.087 27.7919 106.418 27.5254 106.995C28.6099 112.485 30.2336 118.738 32.6938 125.469C36.1581 134.944 40.335 142.759 44.1772 148.857H44.171Z" fill="#595A5C"/>
<path d="M28.5166 110.119C31.3239 113.886 36.3189 115.12 40.2355 113.211C43.5634 111.593 45.6208 107.95 45.373 104.045C41.9087 96.5095 38.4445 88.9676 34.9803 81.4318C34.782 80.998 34.5341 80.8121 34.3482 80.7253C33.4124 80.2853 31.7639 81.2459 30.3324 83.229C29.7065 84.1338 29.1239 85.1067 28.6034 86.1478C23.9989 95.4312 26.831 105.502 28.5104 110.125L28.5166 110.119Z" fill="#595A5C"/>
<path d="M138.623 181.385C136.596 183.994 136.398 187.527 138.083 190.123C140.203 193.389 144.169 193.426 144.442 193.426C152.064 186.703 159.96 179.322 167.985 171.234C175.936 163.234 183.193 155.363 189.811 147.772C191.373 143.744 190.536 139.201 187.667 136.127C184.457 132.694 179.27 131.703 174.845 133.729C171.313 137.757 146.443 171.315 138.623 181.385Z" fill="#595A5C"/>
<path d="M189.427 148.224C185.851 151.137 180.813 151.478 176.908 149.079C172.924 146.631 170.959 141.841 172.068 137.267C177.578 125.722 183.087 114.177 188.603 102.631C188.981 102.303 193.182 98.789 198.723 100.19C203.767 101.466 205.862 105.798 206.128 106.374C205.037 111.865 203.408 118.118 200.935 124.842C197.458 134.318 193.269 142.12 189.427 148.218V148.224Z" fill="#595A5C"/>
<path d="M205.131 109.51C202.318 113.272 197.323 114.499 193.406 112.59C190.078 110.967 188.027 107.323 188.281 103.419C191.751 95.8828 195.228 88.347 198.698 80.8113C198.897 80.3775 199.145 80.1915 199.337 80.1048C200.272 79.6648 201.921 80.6315 203.346 82.6084C203.972 83.5132 204.555 84.4862 205.069 85.5273C209.667 94.8169 206.817 104.887 205.131 109.504V109.51Z" fill="#595A5C"/>
<path d="M88.8702 188.964C89.9671 187.533 99.8702 175.039 117.043 175.076C134.11 175.12 143.932 187.508 145.042 188.958C150.123 203.602 155.143 221.902 158.111 243.282C160.708 261.973 161.154 278.737 160.652 292.804C159.512 293.852 149.008 303.234 135.293 300.34C127.584 298.71 122.713 294.019 120.78 291.924C120.129 292.265 118.71 292.891 116.82 292.829C115.19 292.773 113.969 292.228 113.343 291.887C111.236 294.019 106.204 298.506 98.4387 300.073C84.8049 302.825 74.3688 294.23 72.9435 293.015C72.3485 278.575 72.7637 260.901 75.7446 241.008C78.8308 220.421 83.8629 202.883 88.8702 188.952V188.964Z" fill="#595A5C"/>
<path d="M88.8702 188.965C88.4673 188.853 83.5964 203.398 79.8037 219.758C78.0747 227.207 76.7547 234.322 75.7445 241.021C75.038 245.712 73.7924 254.884 73.1293 266.708C72.398 279.797 72.5592 293.021 72.9372 293.028C73.4268 293.04 72.5716 270.743 76.8538 241.777C81.4149 210.903 89.3597 189.107 88.864 188.965H88.8702Z" fill="#818285"/>
<path d="M145.171 189.287C145.574 189.175 150.049 203.175 153.841 219.535C155.57 226.984 156.89 234.099 157.9 240.798C158.607 245.489 159.852 254.661 160.516 266.485C161.247 279.574 161.086 292.798 160.708 292.805C160.218 292.817 161.073 270.52 156.791 241.554C152.23 210.679 144.682 189.429 145.178 189.287H145.171Z" fill="#818285"/>
<path d="M117.086 196.953C147.722 196.953 172.557 171.968 172.557 141.147C172.557 110.327 147.722 85.3418 117.086 85.3418C86.4505 85.3418 61.6152 110.327 61.6152 141.147C61.6152 171.968 86.4505 196.953 117.086 196.953Z" fill="#595A5C"/>
<path d="M167.624 165.963C168.41 164.388 169.177 162.639 169.873 160.719C171.573 156.037 172.356 151.72 172.699 148.169C171.62 152.962 169.825 158.965 166.723 165.505C163.557 172.18 159.967 177.456 156.886 181.363C159.065 179.258 161.592 176.44 163.951 172.793C165.525 170.359 166.719 168.031 167.632 165.96L167.624 165.963Z" fill="#818285"/>
<path d="M65.5184 163.68C64.7984 162.074 64.1054 160.294 63.489 158.347C61.9854 153.598 61.3822 149.253 61.1875 145.69C62.0668 150.524 63.6105 156.597 66.4376 163.26C69.3231 170.061 72.691 175.482 75.6064 179.513C73.5166 177.32 71.1095 174.399 68.9042 170.657C67.4324 168.159 66.3364 165.784 65.5103 163.677L65.5184 163.68Z" fill="#818285"/>
<path d="M116.901 196.872C115.141 196.903 113.232 196.841 111.199 196.643C106.242 196.16 102.009 195.007 98.6562 193.786C103.447 194.877 109.638 195.844 116.876 195.862C124.263 195.881 130.572 194.914 135.424 193.817C132.586 194.877 128.954 195.943 124.647 196.501C121.772 196.872 119.157 196.947 116.895 196.879L116.901 196.872Z" fill="#818285"/>
<path d="M74.3577 252.982C66.3448 248.873 56.6896 250.081 50.2631 255.925C43.1177 262.42 41.3577 273.358 46.2473 282.164C49.7301 284.705 52.7234 286.756 54.9915 288.262C57.96 290.245 60.2591 291.683 63.178 293.517C63.5127 293.728 67.8135 296.424 71.8603 298.847C79.6873 303.538 87.3346 307.802 94.7279 311.688C101.539 313.844 108.839 311.111 112.272 305.15C115.656 299.262 114.472 291.627 109.39 286.713C97.7149 275.471 86.0394 264.223 74.3639 252.982H74.3577Z" fill="#595A5C"/>
<path d="M153.346 331.419C153.879 332.157 153.997 333.092 153.625 333.836C153.148 334.797 151.933 335.286 150.743 334.921C138.69 331.177 125.465 326.3 111.503 319.892C103.577 316.255 96.2082 312.481 89.4037 308.706C81.1305 302.912 79.9468 291.627 85.6358 285.374C90.6803 279.821 100.36 279.096 107.264 284.68C122.627 300.26 137.983 315.839 153.346 331.425V331.419Z" fill="#595A5C"/>
<path d="M83.7656 262.042C92.231 269.993 100.777 278.217 109.385 286.713C120.131 297.316 130.443 307.839 140.346 318.232C128.633 307.319 116.766 295.841 104.811 283.782C97.5791 276.488 90.5701 269.237 83.7718 262.042H83.7656Z" fill="#818285"/>
<path d="M158.46 246.592C166.343 242.235 176.029 243.152 182.636 248.792C189.973 255.063 192.074 265.94 187.457 274.901C184.055 277.547 181.123 279.685 178.905 281.265C175.998 283.335 173.749 284.847 170.886 286.768C170.557 286.985 166.343 289.817 162.377 292.364C154.699 297.291 147.188 301.79 139.918 305.899C133.182 308.266 125.795 305.763 122.182 299.9C118.619 294.118 119.567 286.452 124.494 281.383C135.816 269.788 147.144 258.187 158.467 246.592H158.46Z" fill="#595A5C"/>
<path d="M81.4225 327.818C80.9081 328.574 80.8152 329.516 81.2056 330.247C81.7138 331.196 82.947 331.648 84.1245 331.233C96.1284 327.062 109.285 321.72 123.13 314.804C130.994 310.881 138.288 306.847 145.018 302.831C153.174 296.739 154.054 285.386 148.172 279.313C142.954 273.921 133.219 273.531 126.433 279.362C111.429 295.512 96.4197 311.662 81.4163 327.812L81.4225 327.818Z" fill="#595A5C"/>
<path d="M153.577 251.593C147.684 257.771 141.79 263.95 135.897 270.129C124.692 281.878 113.488 293.622 102.283 305.372C112.409 292.922 123.992 279.982 137.204 266.968C142.707 261.545 148.18 256.427 153.577 251.593Z" fill="#818285"/>
<path d="M117.141 196.396C147.913 196.396 172.86 171.45 172.86 140.677C172.86 109.904 147.913 84.958 117.141 84.958C86.3681 84.958 61.4219 109.904 61.4219 140.677C61.4219 171.45 86.3681 196.396 117.141 196.396Z" fill="#595A5C"/>
<path d="M98.9648 193.365C98.9648 193.365 117.141 201.719 135.318 193.365C135.318 193.365 117.141 200.145 98.9648 193.365Z" fill="#818285"/>
<path d="M94.7734 157.056C94.7734 157.056 96.6574 156.727 98.7148 157.056L97.556 156.102C97.556 156.102 95.1143 156.38 94.7734 157.056Z" fill="#60C8D4"/>
<path d="M85.0195 135.384C85.0195 135.384 85.5587 137.82 91.5204 140.057C91.5204 140.057 95.1767 141.749 96.6702 134.231C96.6702 134.231 91.1857 134.64 85.2922 128.679C85.2922 128.679 85.1249 133.048 93.2494 136.4C93.2494 136.4 93.7266 136.809 93.2184 137.113C93.2184 137.113 88.5457 137.758 85.0257 135.384H85.0195Z" fill="#60C8D4"/>
<path d="M98.9195 157.056C103.071 157.056 106.437 151.79 106.437 145.294C106.437 138.797 103.071 133.531 98.9195 133.531C94.7679 133.531 91.4023 138.797 91.4023 145.294C91.4023 151.79 94.7679 157.056 98.9195 157.056Z" fill="white"/>
<path d="M149.52 135.384C149.52 135.384 148.981 137.82 143.019 140.057C143.019 140.057 139.363 141.749 137.869 134.231C137.869 134.231 143.354 134.64 149.247 128.679C149.247 128.679 149.414 133.048 141.29 136.4C141.29 136.4 140.813 136.809 141.321 137.113C141.321 137.113 145.994 137.758 149.514 135.384H149.52Z" fill="#60C8D4"/>
<path d="M140.076 157.056C140.076 157.056 138.192 156.727 136.135 157.056L137.294 156.102C137.294 156.102 139.735 156.38 140.076 157.056Z" fill="#60C8D4"/>
<path d="M135.613 157.056C139.765 157.056 143.13 151.79 143.13 145.294C143.13 138.797 139.765 133.531 135.613 133.531C131.461 133.531 128.096 138.797 128.096 145.294C128.096 151.79 131.461 157.056 135.613 157.056Z" fill="white"/>
<path d="M99.0814 157.056C102.34 157.056 104.981 152.844 104.981 147.649C104.981 142.453 102.34 138.241 99.0814 138.241C95.823 138.241 93.1816 142.453 93.1816 147.649C93.1816 152.844 95.823 157.056 99.0814 157.056Z" fill="#231F20"/>
<path d="M95.5365 142.914C96.3613 142.914 97.03 141.868 97.03 140.578C97.03 139.287 96.3613 138.241 95.5365 138.241C94.7116 138.241 94.043 139.287 94.043 140.578C94.043 141.868 94.7116 142.914 95.5365 142.914Z" fill="white"/>
<path d="M135.57 157.056C138.877 157.056 141.557 152.844 141.557 147.649C141.557 142.453 138.877 138.241 135.57 138.241C132.264 138.241 129.584 142.453 129.584 147.649C129.584 152.844 132.264 157.056 135.57 157.056Z" fill="#231F20"/>
<path d="M132.435 142.914C133.26 142.914 133.928 141.868 133.928 140.578C133.928 139.287 133.26 138.241 132.435 138.241C131.61 138.241 130.941 139.287 130.941 140.578C130.941 141.868 131.61 142.914 132.435 142.914Z" fill="white"/>
<path opacity="0.57" d="M91.9669 166.401C95.8071 166.401 98.9202 165.58 98.9202 164.567C98.9202 163.554 95.8071 162.732 91.9669 162.732C88.1267 162.732 85.0137 163.554 85.0137 164.567C85.0137 165.58 88.1267 166.401 91.9669 166.401Z" fill="#F7B1C4"/>
<path opacity="0.57" d="M144.303 166.401C148.143 166.401 151.256 165.58 151.256 164.567C151.256 163.554 148.143 162.732 144.303 162.732C140.463 162.732 137.35 163.554 137.35 164.567C137.35 165.58 140.463 166.401 144.303 166.401Z" fill="#F7B1C4"/>
<path d="M109.901 170.417C109.857 178.039 114.313 183.065 117.418 182.966C120.516 182.867 124.631 177.605 124.154 170.045" stroke="#818285" stroke-width="2" stroke-miterlimit="10"/>
</svg>
