<?xml version="1.0" encoding="UTF-8"?>
<svg id="Layer_2" data-name="Layer 2" xmlns="http://www.w3.org/2000/svg" viewBox="0 0 193.34 510">
  <defs>
    <style>
      .cls-1 {
        fill: #818285;
      }

      .cls-2 {
        fill: #595a5c;
      }
    </style>
  </defs>
  <g id="body">
    <path class="cls-2" d="M134.61,507.34s-3.69,5.99-6.68,0c0,0-25.4-158.16-25.4-173.1,0,0-.46,.09-1.2,.28,0,0-.05-.05-.09,0-1.11,.18-2.81,.46-4.56,.51-1.75-.05-3.46-.32-4.56-.51h-.09c-.74-.18-1.2-.28-1.2-.28,0,14.94-25.4,173.1-25.4,173.1-2.95,5.99-6.68,0-6.68,0-67.16-189.51-7.47-340.99-7.47-340.99h90.81s59.7,151.48-7.47,340.99Z"/>
    <g>
      <path class="cls-2" d="M48,175.83s-83.45,162.36-30.28,199.54c.31,.13,7.74,4.76,8.17,0l27.65-191.71-5.53-7.83Z"/>
      <path class="cls-2" d="M145.34,175.83s83.45,162.36,30.28,199.54c-.31,.13-7.74,4.76-8.17,0l-27.65-191.71,5.53-7.83Z"/>
      <path class="cls-1" d="M28.6,356.55s-15.36-71.03,22.69-190.23c0,0-38.11,147.09-22.69,190.23Z"/>
      <path class="cls-1" d="M164.89,356.55s15.36-71.03-22.69-190.23c0,0,38.11,147.09,22.69,190.23Z"/>
    </g>
    <g>
      <circle class="cls-2" cx="96.67" cy="89.91" r="89.91"/>
      <path class="cls-1" d="M67.47,174.93s29.33,13.48,58.66,0c0,0-29.33,10.94-58.66,0Z"/>
    </g>
  </g>
</svg>