<?xml version="1.0" encoding="UTF-8"?>
<svg id="Layer_2" data-name="Layer 2" xmlns="http://www.w3.org/2000/svg" viewBox="0 0 204.52 180.92">
  <defs>
    <style>
      .cls-1 {
        fill: #fff;
      }

      .cls-2 {
        fill: #818285;
      }

      .cls-3 {
        fill: #231f20;
      }

      .cls-4 {
        fill: #595a5c;
      }

      .cls-5 {
        fill: #4dc6de;
      }
    </style>
  </defs>
  <g id="faces-angelical">
    <g>
      <g>
        <circle class="cls-4" cx="104.76" cy="89.91" r="89.91"/>
        <path class="cls-2" d="M75.43,174.93s29.33,13.48,58.66,0c0,0-29.33,10.94-58.66,0Z"/>
      </g>
      <g>
        <path class="cls-1" d="M71.51,135.14s26.19,8.87,66.6,0c0,0-15.38,24.13-33.3,23.7,0,0-19.65,.54-33.3-23.7Z"/>
        <path class="cls-5" d="M90.05,1.52C89.84,.36,.31,10.65,0,27.11c-.24,12.98,55.08,27.75,105.06,27.45,46.89-.29,99.62-13.92,99.46-26.43-.22-16.4-91.38-26.65-91.39-26.6,0,.04,71.72,8.59,71.78,21.52,.05,10.13-43.86,20.04-80.78,20.84-38.73,.84-83.83-8.05-84.05-18.3C19.81,12.74,90.25,2.55,90.05,1.52Z"/>
        <g>
          <ellipse class="cls-1" cx="75.12" cy="97.51" rx="12.23" ry="19.13"/>
          <ellipse class="cls-3" cx="75.12" cy="97.51" rx="7.6" ry="11.88"/>
          <ellipse class="cls-1" cx="69.95" cy="89.43" rx="2.43" ry="3.8"/>
          <ellipse class="cls-1" cx="134.79" cy="97.51" rx="12.23" ry="19.13"/>
          <ellipse class="cls-3" cx="135.13" cy="97.51" rx="7.6" ry="11.88"/>
          <ellipse class="cls-1" cx="129.96" cy="89.43" rx="2.43" ry="3.8"/>
        </g>
      </g>
    </g>
  </g>
</svg>