<?xml version="1.0" encoding="UTF-8"?>
<svg id="Layer_2" data-name="Layer 2" xmlns="http://www.w3.org/2000/svg" viewBox="0 0 179.78 180.88">
  <defs>
    <style>
      .cls-1 {
        stroke: #818285;
        stroke-miterlimit: 10;
        stroke-width: 5px;
      }

      .cls-1, .cls-2 {
        fill: #818285;
      }

      .cls-3 {
        fill: #fff;
      }

      .cls-4 {
        fill: #231f20;
      }

      .cls-5 {
        fill: #595a5c;
      }

      .cls-6 {
        fill: #60c8d4;
      }

      .cls-7 {
        fill: #f7b1c4;
        opacity: .57;
      }
    </style>
  </defs>
  <g id="faces-impresionado">
    <g>
      <g>
        <circle class="cls-5" cx="89.89" cy="89.89" r="89.89"/>
        <path class="cls-2" d="M60.57,174.89s29.32,13.48,58.65,0c0,0-29.32,10.94-58.65,0Z"/>
      </g>
      <ellipse class="cls-1" cx="97" cy="147.89" rx="4.7" ry="6.77"/>
      <g>
        <path class="cls-6" d="M53.53,116.33s3.06-.54,6.39,0l-1.88-1.55s-3.96,.46-4.52,1.55Z"/>
        <path class="cls-6" d="M37.7,81.16s.88,3.96,10.55,7.59c0,0,5.94,2.75,8.35-9.45,0,0-8.9,.66-18.47-9.01,0,0-.27,7.09,12.92,12.53,0,0,.77,.66-.05,1.15,0,0-7.59,1.04-13.3-2.8Z"/>
        <ellipse class="cls-3" cx="60.26" cy="97.25" rx="12.2" ry="19.09"/>
        <path class="cls-6" d="M142.38,81.16s-.88,3.96-10.55,7.59c0,0-5.94,2.75-8.35-9.45,0,0,8.9,.66,18.47-9.01,0,0,.27,7.09-12.92,12.53,0,0-.77,.66,.05,1.15,0,0,7.59,1.04,13.3-2.8Z"/>
        <path class="cls-6" d="M127.06,116.33s-3.06-.54-6.39,0l1.88-1.55s3.96,.46,4.52,1.55Z"/>
        <ellipse class="cls-3" cx="119.81" cy="97.25" rx="12.2" ry="19.09"/>
        <ellipse class="cls-4" cx="60.52" cy="101.07" rx="9.57" ry="15.27"/>
        <ellipse class="cls-3" cx="54.76" cy="89.59" rx="2.42" ry="3.79"/>
        <ellipse class="cls-4" cx="119.74" cy="101.07" rx="9.71" ry="15.27"/>
        <ellipse class="cls-3" cx="114.65" cy="89.59" rx="2.42" ry="3.79"/>
        <ellipse class="cls-7" cx="48.98" cy="128.53" rx="11.28" ry="2.97"/>
        <ellipse class="cls-7" cx="133.92" cy="128.53" rx="11.28" ry="2.97"/>
      </g>
    </g>
  </g>
</svg>