<?xml version="1.0" encoding="UTF-8"?>
<svg id="Layer_2" data-name="Layer 2" xmlns="http://www.w3.org/2000/svg" viewBox="0 0 180.11 181.21">
  <defs>
    <style>
      .cls-1 {
        fill: #fff;
      }

      .cls-2 {
        fill: #818285;
      }

      .cls-3 {
        fill: #231f20;
      }

      .cls-4 {
        fill: #595a5c;
      }
    </style>
  </defs>
  <g id="faces-somnoliento">
    <g>
      <g>
        <circle class="cls-4" cx="90.06" cy="90.06" r="90.06"/>
        <path class="cls-2" d="M60.68,175.21s29.38,13.51,58.75,0c0,0-29.38,10.96-58.75,0Z"/>
      </g>
      <ellipse class="cls-2" cx="90.26" cy="120.31" rx="45.9" ry="43.01"/>
      <path class="cls-4" d="M44.85,166.96c-13.46-11.13-10.19-32.08-9.96-33.41,3.89-10.02,7.77-20.03,11.66-30.05v-.42s.19-17.31,.19-17.31l.03-2.93c.3-.61,1.66-3.22,4.18-3.75,4.21-.89,8.09,6.41,8.56,7.27,5.98,11-.91,22.07,2.05,23.87,5.66,3.46,31.87-36.55,43.42-31.55,.35,.15,2.09,.9,2.68,2.56,2.82,7.94-25.7,22.93-23.05,28.52,.29,.61,.85,.89,1.16,1.05,3.67,1.82,9.51-5.05,21.65-15.25,11.04-9.27,15.58-11.46,18.51-10.01,.34,.17,1.2,.59,1.63,1.51,2.03,4.32-8.22,13.09-13.74,17.81-11.75,10.06-21.12,14.64-20.02,17.81,.3,.86,1.24,1.24,1.63,1.4,3.56,1.43,7.59-3.82,15.37-9.55,3.57-2.63,14.93-10.99,19.32-7.8,1.2,.87,1.45,2.29,1.47,2.39,.51,3.2-3.66,6.33-16.83,14.95-9.72,6.36-14.91,9.54-14.32,12.46,.14,.68,.6,1.41,1.28,1.75,2.03,1.01,4.8-2.09,9.31-5.12,1.53-1.03,11.41-7.65,15.25-4.77,1.37,1.03,1.5,2.91,1.51,3.14,.21,3.8-4.67,6.59-11.06,10.94-3.61,2.46-8.67,6.07-14.6,10.9-2.37,3.01-6.1,7.04-11.51,10.53-10.13,6.53-31.67,14.73-45.78,3.05Z"/>
      <path class="cls-1" d="M72.29,50.34c0,10.15-5.26,18.37-11.75,18.37s-11.75-8.23-11.75-18.37,5.26-18.37,11.75-18.37,11.75,8.23,11.75,18.37Z"/>
      <ellipse class="cls-3" cx="60.54" cy="56.2" rx="7.3" ry="11.42"/>
      <ellipse class="cls-1" cx="55.57" cy="48.44" rx="2.33" ry="3.65"/>
      <ellipse class="cls-1" cx="117.86" cy="50.34" rx="11.75" ry="18.37"/>
      <ellipse class="cls-3" cx="118.19" cy="56.2" rx="7.3" ry="11.42"/>
      <ellipse class="cls-1" cx="113.23" cy="48.44" rx="2.33" ry="3.65"/>
      <path class="cls-2" d="M48.91,49.1c-1.13-9.79,5.82-17.1,11.63-17.14,5.9-.04,13.06,7.4,11.78,17.38-7.8-.08-15.6-.16-23.41-.24Z"/>
      <path class="cls-2" d="M106.17,48.94c-1.13-9.79,5.82-17.1,11.63-17.14,5.9-.04,13.06,7.4,11.78,17.38-7.8-.08-15.6-.16-23.41-.24Z"/>
      <path class="cls-2" d="M46.77,82.85c.64-1.38,1.43-1.95,1.98-2.21,2.69-1.28,7.29,1.07,11.02,6.26-.35-.74-3.5-7.14-7.37-7.82-.95-.17-1.78,.02-1.78,.02-2.46,.56-3.61,3.18-3.85,3.75Z"/>
      <path class="cls-2" d="M62.55,172.88c4.27-.97,8.85-2.19,13.69-3.75,5.61-1.81,10.71-3.8,15.25-5.8-3.4,2.31-8.42,5.18-14.97,7.18-5.44,1.66-10.28,2.22-13.97,2.37Z"/>
      <path class="cls-2" d="M122.15,85.47c1.91-.45,3.81,.24,4.73,1.66,.82,1.27,.57,2.67,.49,3.03,.13-.27,.83-1.74,.2-3.09-.74-1.59-3.07-2.47-5.42-1.6Z"/>
      <path class="cls-2" d="M46.77,82.85c-.2,4.02-.28,8.26-.21,12.7,.04,2.74,.15,5.4,.3,7.97-1.11,2.61-2.74,6.52-4.65,11.28-5.94,14.83-6.51,17.87-6.79,19.77-1.28,8.77,.37,15.46,.74,16.89,1.68,6.48,4.65,11.2,6.71,13.97-1.89-1.97-4.64-5.28-6.71-9.99-4.26-9.69-2.73-18.64-2.14-21.83,.62-3.35,2.54-7.66,6.12-16.23,2.52-6.04,4.81-10.95,6.41-14.29-.36-2.36-.62-4.99-.7-7.87-.12-4.73,.31-8.91,.91-12.36Z"/>
    </g>
  </g>
</svg>