<?xml version="1.0" encoding="UTF-8"?>
<svg id="Layer_2" data-name="Layer 2" xmlns="http://www.w3.org/2000/svg" viewBox="0 0 179.82 180.92">
  <defs>
    <style>
      .cls-1 {
        fill: #fff;
      }

      .cls-2 {
        fill: #818285;
      }

      .cls-3 {
        fill: #231f20;
      }

      .cls-4 {
        fill: #595a5c;
      }
    </style>
  </defs>
  <g id="faces-asustado">
    <g>
      <g>
        <circle class="cls-4" cx="89.91" cy="89.91" r="89.91"/>
        <path class="cls-2" d="M60.58,174.93s29.33,13.48,58.66,0c0,0-29.33,10.94-58.66,0Z"/>
      </g>
      <path class="cls-1" d="M64.03,156.59c-1.39-2,3.14-7.5,6.68-10.5,7.85-6.66,17.49-6.67,20.76-6.53,3.55,.16,12.45,1.04,19.57,7.7,.8,.75,6.26,5.85,5.01,7.93-1.59,2.64-11.4-3.98-25.77-3.73-14.98,.25-24.41,7.78-26.25,5.13Z"/>
      <g>
        <ellipse class="cls-1" cx="60.3" cy="97.13" rx="12.2" ry="19.09"/>
        <ellipse class="cls-1" cx="119.85" cy="97.13" rx="12.2" ry="19.09"/>
        <ellipse class="cls-3" cx="60.56" cy="100.95" rx="9.57" ry="15.27"/>
        <ellipse class="cls-1" cx="54.8" cy="89.47" rx="2.42" ry="3.79"/>
        <ellipse class="cls-3" cx="119.78" cy="100.95" rx="9.71" ry="15.27"/>
        <ellipse class="cls-1" cx="114.69" cy="89.47" rx="2.42" ry="3.79"/>
      </g>
    </g>
  </g>
</svg>