<?xml version="1.0" encoding="UTF-8"?>
<svg id="Layer_2" data-name="Layer 2" xmlns="http://www.w3.org/2000/svg" viewBox="0 0 176.69 186.12">
  <defs>
    <style>
      .cls-1 {
        fill: none;
        stroke-width: 3px;
      }

      .cls-1, .cls-2 {
        stroke: #818285;
        stroke-miterlimit: 10;
      }

      .cls-3 {
        fill: #fff;
      }

      .cls-4 {
        fill: #818285;
      }

      .cls-5 {
        fill: #231f20;
      }

      .cls-6, .cls-2 {
        fill: #595a5c;
      }

      .cls-2 {
        stroke-width: 2px;
      }
    </style>
  </defs>
  <g id="faces-timido">
    <g>
      <g>
        <circle class="cls-6" cx="88.35" cy="88.35" r="88.35"/>
        <path class="cls-4" d="M59.53,171.89s28.82,13.25,57.64,0c0,0-28.82,10.75-57.64,0Z"/>
      </g>
      <ellipse class="cls-3" cx="58.64" cy="92.89" rx="12.07" ry="18.88"/>
      <ellipse class="cls-5" cx="58.64" cy="92.89" rx="7.5" ry="11.73"/>
      <ellipse class="cls-3" cx="53.54" cy="84.91" rx="2.4" ry="3.75"/>
      <ellipse class="cls-3" cx="117.53" cy="92.89" rx="12.07" ry="18.88"/>
      <ellipse class="cls-5" cx="117.87" cy="92.89" rx="7.5" ry="11.73"/>
      <ellipse class="cls-3" cx="112.77" cy="84.91" rx="2.4" ry="3.75"/>
      <path class="cls-1" d="M58.52,138.32c.97,1.68,8.8,14.8,24.43,16.99,13.21,1.85,26.65-4.84,33.99-16.99"/>
      <path class="cls-2" d="M40.21,181.16c-9.32-7.49-7.06-21.59-6.9-22.49,2.69-6.74,5.38-13.48,8.08-20.22v-.28s.13-11.65,.13-11.65l.02-1.97c.21-.41,1.15-2.17,2.9-2.53,2.91-.6,5.61,4.32,5.93,4.89,4.14,7.4-.63,14.85,1.42,16.07,3.92,2.33,22.07-24.6,30.07-21.23,.24,.1,1.45,.61,1.85,1.72,1.95,5.35-17.8,15.43-15.96,19.2,.2,.41,.59,.6,.81,.71,2.54,1.23,6.59-3.4,15-10.26,7.64-6.24,10.79-7.72,12.82-6.74,.24,.11,.83,.4,1.13,1.02,1.41,2.91-5.7,8.81-9.51,11.99-8.14,6.77-14.63,9.85-13.87,11.99,.21,.58,.86,.84,1.13,.94,2.46,.96,5.25-2.57,10.64-6.43,2.47-1.77,10.34-7.4,13.38-5.25,.83,.59,1,1.54,1.02,1.61,.35,2.15-2.53,4.26-11.66,10.07-6.74,4.28-10.33,6.42-9.92,8.38,.1,.46,.42,.95,.89,1.18,1.41,.68,3.32-1.41,6.45-3.45,1.06-.69,7.9-5.15,10.56-3.21,.95,.69,1.04,1.96,1.05,2.12,.15,2.56-3.24,4.44-7.66,7.37-2.5,1.66-6,4.09-10.11,7.34-1.64,2.03-4.22,4.74-7.97,7.09-7.02,4.4-21.93,9.91-31.71,2.05Z"/>
    </g>
  </g>
</svg>