<?xml version="1.0" encoding="UTF-8"?>
<svg id="Layer_2" data-name="Layer 2" xmlns="http://www.w3.org/2000/svg" viewBox="0 0 180.21 181.32">
  <defs>
    <style>
      .cls-1 {
        fill: #fff;
      }

      .cls-2, .cls-3 {
        fill: #818285;
      }

      .cls-4 {
        fill: #231f20;
      }

      .cls-5 {
        fill: #595a5c;
      }

      .cls-6 {
        fill: #60c8d4;
      }

      .cls-3, .cls-7 {
        stroke: #818285;
        stroke-miterlimit: 10;
      }

      .cls-7 {
        fill: none;
      }

      .cls-8 {
        fill: #f7b1c4;
        opacity: .57;
      }
    </style>
  </defs>
  <g id="faces-mudo">
    <g>
      <g>
        <circle class="cls-5" cx="90.11" cy="90.11" r="90.11"/>
        <path class="cls-2" d="M60.71,175.31s29.39,13.51,58.79,0c0,0-29.39,10.96-58.79,0Z"/>
      </g>
      <line class="cls-7" x1="51.52" y1="143.6" x2="122.54" y2="143.6"/>
      <rect class="cls-3" x="57.32" y="144.39" width="7.73" height="4.8"/>
      <rect class="cls-3" x="66" y="138.12" width="7.73" height="4.73"/>
      <rect class="cls-3" x="74.31" y="144.42" width="7.73" height="4.8"/>
      <rect class="cls-3" x="82.9" y="138.22" width="7.73" height="4.73"/>
      <rect class="cls-3" x="90.99" y="144.35" width="7.73" height="4.8"/>
      <rect class="cls-3" x="99.68" y="138.08" width="7.73" height="4.73"/>
      <rect class="cls-3" x="107.99" y="144.37" width="7.73" height="4.8"/>
      <path class="cls-3" d="M124.54,141.41c-2.14-.66-4.36,0-5.5,1.57-1.06,1.46-.8,3.16-.73,3.54,.77,2.08,1.82,4.47,3.26,7.02,1.44,2.54,2.94,4.67,4.32,6.4,3.21,1.36,6.91,.61,9.21-1.85,2.04-2.18,2.68-5.37,1.68-8.26-1.69-1.58-3.78-3.31-6.29-5-2.11-1.42-4.13-2.54-5.95-3.43Z"/>
      <ellipse class="cls-5" cx="123.49" cy="146.18" rx="3.86" ry="3.77" transform="translate(-67.19 130.14) rotate(-45)"/>
      <ellipse class="cls-5" cx="130.22" cy="153.18" rx="5.5" ry="4.86" transform="translate(-70.17 136.95) rotate(-45)"/>
      <g>
        <path class="cls-6" d="M53.07,116.33s3.06-.54,6.39,0l-1.88-1.55s-3.96,.46-4.52,1.55Z"/>
        <path class="cls-6" d="M37.24,81.16s.88,3.96,10.55,7.59c0,0,5.94,2.75,8.35-9.45,0,0-8.9,.66-18.47-9.01,0,0-.27,7.09,12.92,12.53,0,0,.77,.66-.05,1.15,0,0-7.59,1.04-13.3-2.8Z"/>
        <ellipse class="cls-1" cx="59.81" cy="97.24" rx="12.2" ry="19.09"/>
        <path class="cls-6" d="M141.93,81.16s-.88,3.96-10.55,7.59c0,0-5.94,2.75-8.35-9.45,0,0,8.9,.66,18.47-9.01,0,0,.27,7.09-12.92,12.53,0,0-.77,.66,.05,1.15,0,0,7.59,1.04,13.3-2.8Z"/>
        <path class="cls-6" d="M126.6,116.33s-3.06-.54-6.39,0l1.88-1.55s3.96,.46,4.52,1.55Z"/>
        <ellipse class="cls-1" cx="119.36" cy="97.24" rx="12.2" ry="19.09"/>
        <ellipse class="cls-4" cx="60.07" cy="101.07" rx="9.57" ry="15.27"/>
        <ellipse class="cls-1" cx="54.31" cy="89.59" rx="2.42" ry="3.79"/>
        <ellipse class="cls-4" cx="119.29" cy="101.07" rx="9.71" ry="15.27"/>
        <ellipse class="cls-1" cx="114.2" cy="89.59" rx="2.42" ry="3.79"/>
        <ellipse class="cls-8" cx="48.52" cy="128.52" rx="11.28" ry="2.97"/>
        <ellipse class="cls-8" cx="133.46" cy="128.52" rx="11.28" ry="2.97"/>
      </g>
    </g>
  </g>
</svg>