<?xml version="1.0" encoding="UTF-8"?>
<svg id="Layer_2" data-name="Layer 2" xmlns="http://www.w3.org/2000/svg" viewBox="0 0 179.82 180.92">
  <defs>
    <style>
      .cls-1 {
        fill: #fff;
      }

      .cls-2 {
        fill: #818285;
      }

      .cls-3 {
        fill: #231f20;
      }

      .cls-4 {
        fill: #595a5c;
      }

      .cls-5 {
        fill: #60c8d4;
      }

      .cls-6 {
        fill: none;
        stroke: #818285;
        stroke-miterlimit: 10;
        stroke-width: 2px;
      }

      .cls-7 {
        fill: #f7b1c4;
        opacity: .57;
      }
    </style>
  </defs>
  <g id="faces-adorable">
    <g>
      <g>
        <circle class="cls-4" cx="89.91" cy="89.91" r="89.91"/>
        <path class="cls-2" d="M60.58,174.93s29.33,13.48,58.66,0c0,0-29.33,10.94-58.66,0Z"/>
      </g>
      <g>
        <g>
          <path class="cls-5" d="M53.82,116.34s3.04-.53,6.36,0l-1.87-1.54s-3.94,.45-4.49,1.54Z"/>
          <path class="cls-5" d="M38.08,81.37s.87,3.93,10.49,7.54c0,0,5.9,2.73,8.31-9.4,0,0-8.85,.66-18.36-8.96,0,0-.27,7.05,12.84,12.46,0,0,.77,.66-.05,1.15,0,0-7.54,1.04-13.22-2.79Z"/>
          <ellipse class="cls-1" cx="60.51" cy="97.36" rx="12.13" ry="18.98"/>
          <path class="cls-5" d="M142.16,81.37s-.87,3.93-10.49,7.54c0,0-5.9,2.73-8.31-9.4,0,0,8.85,.66,18.36-8.96,0,0,.27,7.05-12.84,12.46,0,0-.77,.66,.05,1.15,0,0,7.54,1.04,13.22-2.79Z"/>
          <path class="cls-5" d="M126.92,116.34s-3.04-.53-6.36,0l1.87-1.54s3.94,.45,4.49,1.54Z"/>
          <ellipse class="cls-1" cx="119.72" cy="97.36" rx="12.13" ry="18.98"/>
          <ellipse class="cls-3" cx="60.77" cy="101.16" rx="9.52" ry="15.18"/>
          <ellipse class="cls-1" cx="55.05" cy="89.75" rx="2.41" ry="3.77"/>
          <ellipse class="cls-3" cx="119.65" cy="101.16" rx="9.66" ry="15.18"/>
          <ellipse class="cls-1" cx="114.59" cy="89.75" rx="2.41" ry="3.77"/>
          <ellipse class="cls-7" cx="49.29" cy="128.46" rx="11.22" ry="2.96"/>
          <ellipse class="cls-7" cx="133.74" cy="128.46" rx="11.22" ry="2.96"/>
        </g>
        <path class="cls-6" d="M78.23,137.9c-.07,12.3,7.12,20.41,12.13,20.25,5-.16,11.64-8.65,10.87-20.85"/>
      </g>
    </g>
  </g>
</svg>