<?xml version="1.0" encoding="UTF-8"?>
<svg id="Layer_2" data-name="Layer 2" xmlns="http://www.w3.org/2000/svg" viewBox="0 0 179.61 180.71">
  <defs>
    <style>
      .cls-1, .cls-2 {
        fill: #818285;
      }

      .cls-3, .cls-4 {
        fill: #595a5c;
      }

      .cls-2, .cls-4, .cls-5 {
        stroke: #818285;
        stroke-miterlimit: 10;
      }

      .cls-5 {
        fill: none;
      }
    </style>
  </defs>
  <g id="faces-insolente">
    <g>
      <g>
        <circle class="cls-3" cx="89.8" cy="89.8" r="89.8"/>
        <path class="cls-1" d="M60.51,174.72s29.3,13.47,58.59,0c0,0-29.29,10.93-58.59,0Z"/>
      </g>
      <path class="cls-2" d="M130.64,77.41c-7.16,2.64-15.36,6.42-23.84,11.92-3.19,2.07-6.12,4.18-8.78,6.27,1.81,2.42,4.13,5.08,7.06,7.69,7.23,6.44,14.81,9.56,19.92,11.14-3.14-2.49-6.94-6.1-10.35-11.14-1.48-2.19-2.66-4.31-3.61-6.27,.81-1.48,1.74-3.01,2.82-4.55,5.23-7.46,11.67-12.16,16.78-15.06Z"/>
      <path class="cls-2" d="M47.66,77.41c7.16,2.64,15.36,6.42,23.84,11.92,3.19,2.07,6.12,4.18,8.78,6.27-1.81,2.42-4.13,5.08-7.06,7.69-7.23,6.44-14.81,9.56-19.92,11.14,3.14-2.49,6.94-6.1,10.35-11.14,1.48-2.19,2.66-4.31,3.61-6.27-.81-1.48-1.74-3.01-2.82-4.55-5.23-7.46-11.67-12.16-16.78-15.06Z"/>
      <path class="cls-2" d="M50.06,138.93H124.62c-7.75,14.1-22.7,22.72-38.6,22.23-23.7-.73-35.44-21.28-35.96-22.23Z"/>
      <path class="cls-4" d="M74.52,142.07h28.74c1.2,15.87-3.2,27.95-8.3,30.05-2.94,1.21-6.22,1.21-6.22,1.21,0,0-3.63,0-6.93-1.51-5.14-2.35-9.3-14.39-7.29-29.75Z"/>
      <line class="cls-5" x1="89.6" y1="143.91" x2="89.6" y2="159.74"/>
    </g>
  </g>
</svg>