<?xml version="1.0" encoding="UTF-8"?>
<svg id="Layer_2" data-name="Layer 2" xmlns="http://www.w3.org/2000/svg" viewBox="0 0 179.61 180.71">
  <defs>
    <style>
      .cls-1 {
        fill: #fff;
      }

      .cls-2 {
        fill: #818285;
      }

      .cls-3 {
        fill: #231f20;
      }

      .cls-4 {
        fill: #595a5c;
      }

      .cls-5 {
        fill: #60c8d4;
      }

      .cls-6 {
        fill: none;
        stroke: #818285;
        stroke-miterlimit: 10;
        stroke-width: 2px;
      }

      .cls-7 {
        fill: #f7b1c4;
        opacity: .57;
      }
    </style>
  </defs>
  <g id="faces-olivio">
    <g>
      <g>
        <circle class="cls-4" cx="89.8" cy="89.8" r="89.8"/>
        <path class="cls-2" d="M60.51,174.72s29.3,13.47,58.59,0c0,0-29.29,10.93-58.59,0Z"/>
      </g>
      <path class="cls-6" d="M65.56,138.93c.85,8.19,4.75,11.79,5.98,12.81,7.7,6.39,22.83,4.66,35.01-6.83"/>
      <g>
        <path class="cls-5" d="M53.11,116.18s3.06-.54,6.39,0l-1.88-1.55s-3.96,.46-4.52,1.55Z"/>
        <path class="cls-5" d="M37.27,81.01s.88,3.96,10.55,7.59c0,0,5.94,2.75,8.35-9.45,0,0-8.9,.66-18.47-9.01,0,0-.27,7.09,12.92,12.53,0,0,.77,.66-.05,1.15,0,0-7.59,1.04-13.3-2.8Z"/>
        <ellipse class="cls-1" cx="59.84" cy="97.09" rx="12.2" ry="19.09"/>
        <path class="cls-5" d="M141.96,81.01s-.88,3.96-10.55,7.59c0,0-5.94,2.75-8.35-9.45,0,0,8.9,.66,18.47-9.01,0,0,.27,7.09-12.92,12.53,0,0-.77,.66,.05,1.15,0,0,7.59,1.04,13.3-2.8Z"/>
        <path class="cls-5" d="M126.63,116.18s-3.06-.54-6.39,0l1.88-1.55s3.96,.46,4.52,1.55Z"/>
        <ellipse class="cls-1" cx="119.39" cy="97.09" rx="12.2" ry="19.09"/>
        <ellipse class="cls-3" cx="60.1" cy="100.91" rx="9.57" ry="15.27"/>
        <ellipse class="cls-1" cx="54.34" cy="89.44" rx="2.42" ry="3.79"/>
        <ellipse class="cls-3" cx="119.32" cy="100.91" rx="9.71" ry="15.27"/>
        <ellipse class="cls-1" cx="114.23" cy="89.44" rx="2.42" ry="3.79"/>
        <ellipse class="cls-7" cx="48.56" cy="128.37" rx="11.28" ry="2.97"/>
        <ellipse class="cls-7" cx="133.5" cy="128.37" rx="11.28" ry="2.97"/>
      </g>
    </g>
  </g>
</svg>