<?xml version="1.0" encoding="UTF-8"?>
<svg id="Layer_2" data-name="Layer 2" xmlns="http://www.w3.org/2000/svg" viewBox="0 0 179.82 180.92">
  <defs>
    <style>
      .cls-1 {
        fill: #fff;
      }

      .cls-2 {
        fill: #818285;
      }

      .cls-3 {
        fill: #231f20;
      }

      .cls-4 {
        fill: #595a5c;
      }
    </style>
  </defs>
  <g id="faces-burlon">
    <g>
      <g>
        <circle class="cls-4" cx="89.91" cy="89.91" r="89.91"/>
        <path class="cls-2" d="M60.58,174.93s29.33,13.48,58.66,0c0,0-29.33,10.94-58.66,0Z"/>
      </g>
      <path class="cls-1" d="M97.01,149.18c6.72-1.36,14.1-2.94,20.24-8.92,7.5-7.31,8.64-16.82,9.95-16.46,1.14,.31,1.36,7.87-2.06,14.75-4.29,8.65-12.42,12.39-15.44,13.72-5.01,2.22-9.29,2.51-17.84,3.09-13.04,.88-20.28-1.22-24.08-2.61-1.05-.39-6.57-2.41-6.34-3.39,.38-1.66,16.31,3.71,35.56-.17Z"/>
      <ellipse class="cls-1" cx="58.67" cy="98.11" rx="12.2" ry="19.09"/>
      <ellipse class="cls-1" cx="118.22" cy="98.11" rx="12.2" ry="19.09"/>
      <ellipse class="cls-3" cx="58.93" cy="101.94" rx="9.57" ry="15.27"/>
      <ellipse class="cls-1" cx="53.17" cy="90.46" rx="2.42" ry="3.79"/>
      <ellipse class="cls-3" cx="118.15" cy="101.94" rx="9.71" ry="15.27"/>
      <ellipse class="cls-1" cx="113.06" cy="90.46" rx="2.42" ry="3.79"/>
      <rect class="cls-4" x="51.44" y="61.05" width="74.02" height="21.67"/>
    </g>
  </g>
</svg>