<?xml version="1.0" encoding="UTF-8"?>
<svg id="Layer_2" data-name="Layer 2" xmlns="http://www.w3.org/2000/svg" viewBox="0 0 180.84 181.95">
  <defs>
    <style>
      .cls-1 {
        fill: #fff;
      }

      .cls-2 {
        fill: #818285;
      }

      .cls-3 {
        fill: #231f20;
      }

      .cls-4 {
        fill: #595a5c;
      }

      .cls-5 {
        fill: #60c8d4;
      }

      .cls-6 {
        fill: none;
        stroke: #818285;
        stroke-miterlimit: 10;
        stroke-width: 2px;
      }

      .cls-7 {
        fill: #f7b1c4;
        opacity: .57;
      }
    </style>
  </defs>
  <g id="faces-travieso">
    <g>
      <g>
        <circle class="cls-4" cx="90.42" cy="90.42" r="90.42"/>
        <path class="cls-2" d="M60.92,175.92s29.5,13.56,58.99,0c0,0-29.5,11-58.99,0Z"/>
      </g>
      <path class="cls-6" d="M52.35,133.69c4.11,3.18,17.61,12.79,37.4,12.91,20.24,.12,34.08-9.77,38.14-12.91"/>
      <path class="cls-2" d="M96.25,146.1c-2.27,11.51,3.53,21.47,11.45,23.67,4.74,1.31,10.44-.11,13.89-3.72,5.63-5.9,5.32-17.68-3.04-26.46-7.44,2.17-14.87,4.34-22.31,6.51Z"/>
    </g>
    <g>
      <path class="cls-5" d="M54.76,115.85s3.06-.54,6.39,0l-1.88-1.55s-3.96,.46-4.52,1.55Z"/>
      <path class="cls-5" d="M38.93,80.68s.88,3.96,10.55,7.59c0,0,5.94,2.75,8.35-9.45,0,0-8.9,.66-18.47-9.01,0,0-.27,7.09,12.92,12.53,0,0,.77,.66-.05,1.15,0,0-7.59,1.04-13.3-2.8Z"/>
      <ellipse class="cls-1" cx="61.5" cy="96.76" rx="12.2" ry="19.09"/>
      <path class="cls-5" d="M143.62,80.68s-.88,3.96-10.55,7.59c0,0-5.94,2.75-8.35-9.45,0,0,8.9,.66,18.47-9.01,0,0,.27,7.09-12.92,12.53,0,0-.77,.66,.05,1.15,0,0,7.59,1.04,13.3-2.8Z"/>
      <path class="cls-5" d="M128.29,115.85s-3.06-.54-6.39,0l1.88-1.55s3.96,.46,4.52,1.55Z"/>
      <ellipse class="cls-1" cx="121.05" cy="96.76" rx="12.2" ry="19.09"/>
      <ellipse class="cls-3" cx="61.76" cy="100.58" rx="9.57" ry="15.27"/>
      <ellipse class="cls-1" cx="56" cy="89.11" rx="2.42" ry="3.79"/>
      <ellipse class="cls-3" cx="120.98" cy="100.58" rx="9.71" ry="15.27"/>
      <ellipse class="cls-1" cx="115.89" cy="89.11" rx="2.42" ry="3.79"/>
      <ellipse class="cls-7" cx="50.21" cy="128.04" rx="11.28" ry="2.97"/>
      <ellipse class="cls-7" cx="135.15" cy="128.04" rx="11.28" ry="2.97"/>
    </g>
  </g>
</svg>