<?xml version="1.0" encoding="UTF-8"?>
<svg id="Layer_2" data-name="Layer 2" xmlns="http://www.w3.org/2000/svg" viewBox="0 0 179.82 180.92">
  <defs>
    <style>
      .cls-1 {
        fill: #fff;
      }

      .cls-2 {
        fill: #818285;
      }

      .cls-3 {
        fill: #231f20;
      }

      .cls-4 {
        fill: #595a5c;
      }

      .cls-5 {
        fill: #60c8d4;
      }

      .cls-6 {
        fill: #f7b1c4;
        opacity: .57;
      }
    </style>
  </defs>
  <g id="faces-asombrado">
    <g>
      <g>
        <circle class="cls-4" cx="89.91" cy="89.91" r="89.91"/>
        <path class="cls-2" d="M60.58,174.93s29.33,13.48,58.66,0c0,0-29.33,10.94-58.66,0Z"/>
      </g>
      <g>
        <path class="cls-2" d="M77.42,139.12c-2.95,12.16,.95,22.62,7.88,25.67,4.52,1.99,9.02,.24,9.63,0,7.33-2.97,11.8-13.1,9.92-25.09-2.57-7.84-10.14-12.29-16.88-10.88-4.91,1.03-8.93,5.06-10.54,10.3Z"/>
        <path class="cls-4" d="M89.97,152.9c-3.64,.02-8.25,2.09-8.35,4.81-.09,2.4,3.31,5.33,8.5,5.95,5.1-.37,8.6-3.13,8.64-5.52,.05-2.86-4.83-5.26-8.78-5.24Z"/>
      </g>
      <g>
        <path class="cls-5" d="M54.42,116.24s3.06-.54,6.39,0l-1.88-1.55s-3.96,.46-4.52,1.55Z"/>
        <path class="cls-5" d="M38.59,81.07s.88,3.96,10.55,7.59c0,0,5.94,2.75,8.35-9.45,0,0-8.9,.66-18.47-9.01,0,0-.27,7.09,12.92,12.53,0,0,.77,.66-.05,1.15,0,0-7.59,1.04-13.3-2.8Z"/>
        <ellipse class="cls-1" cx="61.15" cy="97.15" rx="12.2" ry="19.09"/>
        <path class="cls-5" d="M143.27,81.07s-.88,3.96-10.55,7.59c0,0-5.94,2.75-8.35-9.45,0,0,8.9,.66,18.47-9.01,0,0,.27,7.09-12.92,12.53,0,0-.77,.66,.05,1.15,0,0,7.59,1.04,13.3-2.8Z"/>
        <path class="cls-5" d="M127.95,116.24s-3.06-.54-6.39,0l1.88-1.55s3.96,.46,4.52,1.55Z"/>
        <ellipse class="cls-1" cx="120.71" cy="97.15" rx="12.2" ry="19.09"/>
        <ellipse class="cls-3" cx="61.41" cy="100.97" rx="9.57" ry="15.27"/>
        <ellipse class="cls-1" cx="55.66" cy="89.5" rx="2.42" ry="3.79"/>
        <ellipse class="cls-3" cx="120.64" cy="100.97" rx="9.71" ry="15.27"/>
        <ellipse class="cls-1" cx="115.55" cy="89.5" rx="2.42" ry="3.79"/>
        <ellipse class="cls-6" cx="49.87" cy="128.43" rx="11.28" ry="2.97"/>
        <ellipse class="cls-6" cx="134.81" cy="128.43" rx="11.28" ry="2.97"/>
      </g>
    </g>
  </g>
</svg>