<?xml version="1.0" encoding="UTF-8"?>
<svg id="Layer_2" data-name="Layer 2" xmlns="http://www.w3.org/2000/svg" viewBox="0 0 180.84 181.95">
  <defs>
    <style>
      .cls-1 {
        fill: #fff;
      }

      .cls-2 {
        fill: #e72b5c;
      }

      .cls-3 {
        fill: #818285;
      }

      .cls-4 {
        fill: #595a5c;
      }
    </style>
  </defs>
  <g id="faces-enamorado">
    <g>
      <g>
        <circle class="cls-4" cx="90.42" cy="90.42" r="90.42"/>
        <path class="cls-3" d="M60.92,175.92s29.5,13.56,58.99,0c0,0-29.5,11-58.99,0Z"/>
      </g>
      <path class="cls-1" d="M60.4,136.26s23.7,8.03,60.28,0c0,0-13.92,21.84-30.14,21.45,0,0-17.79,.49-30.14-21.45Z"/>
      <g>
        <path class="cls-2" d="M59.71,91.76c-.7,7.82-1.4,15.65-2.1,23.47-4.86-3.8-9.72-7.61-14.57-11.41-7.68-7.02-7.81-16.09-3.09-20.02,2.89-2.41,8.38-3.54,13.09-1.51,4.02,1.74,6.6,5.4,6.67,9.47Z"/>
        <path class="cls-2" d="M55.51,91.76c.7,7.82,1.4,15.65,2.1,23.47,4.86-3.8,9.72-7.61,14.57-11.41,7.68-7.02,7.81-16.09,3.09-20.02-2.89-2.41-8.38-3.54-13.09-1.51-4.02,1.74-6.6,5.4-6.67,9.47Z"/>
      </g>
      <g>
        <path class="cls-2" d="M124.99,91.73c-.7,7.82-1.4,15.65-2.1,23.47-4.86-3.8-9.72-7.61-14.57-11.41-7.68-7.02-7.81-16.09-3.09-20.02,2.89-2.41,8.38-3.54,13.09-1.51,4.02,1.74,6.6,5.4,6.67,9.47Z"/>
        <path class="cls-2" d="M120.79,91.73c.7,7.82,1.4,15.65,2.1,23.47,4.86-3.8,9.72-7.61,14.57-11.41,7.68-7.02,7.81-16.09,3.09-20.02-2.89-2.41-8.38-3.54-13.09-1.51-4.02,1.74-6.6,5.4-6.67,9.47Z"/>
      </g>
    </g>
  </g>
</svg>