<?xml version="1.0" encoding="UTF-8"?>
<svg id="Layer_2" data-name="Layer 2" xmlns="http://www.w3.org/2000/svg" viewBox="0 0 180.84 181.95">
  <defs>
    <style>
      .cls-1 {
        fill: #fff;
      }

      .cls-2 {
        fill: #818285;
      }

      .cls-3 {
        fill: #231f20;
      }

      .cls-4 {
        fill: #595a5c;
      }

      .cls-5 {
        fill: none;
        stroke: #818285;
        stroke-miterlimit: 10;
        stroke-width: 2px;
      }
    </style>
  </defs>
  <g id="faces-travieso">
    <g>
      <g>
        <circle class="cls-4" cx="90.42" cy="90.42" r="90.42"/>
        <path class="cls-2" d="M60.92,175.92s29.5,13.56,58.99,0c0,0-29.5,11-58.99,0Z"/>
      </g>
      <ellipse class="cls-1" cx="60.01" cy="95.07" rx="12.35" ry="19.32"/>
      <ellipse class="cls-3" cx="60.01" cy="95.07" rx="7.67" ry="12"/>
      <ellipse class="cls-1" cx="54.79" cy="86.9" rx="2.45" ry="3.84"/>
      <ellipse class="cls-1" cx="120.29" cy="95.07" rx="12.35" ry="19.32"/>
      <ellipse class="cls-3" cx="120.63" cy="95.07" rx="7.67" ry="12"/>
      <ellipse class="cls-1" cx="115.41" cy="86.9" rx="2.45" ry="3.84"/>
      <path class="cls-5" d="M52.35,133.69c4.11,3.18,17.61,12.79,37.4,12.91,20.24,.12,34.08-9.77,38.14-12.91"/>
      <path class="cls-2" d="M96.25,146.1c-2.27,11.51,3.53,21.47,11.45,23.67,4.74,1.31,10.44-.11,13.89-3.72,5.63-5.9,5.32-17.68-3.04-26.46-7.44,2.17-14.87,4.34-22.31,6.51Z"/>
    </g>
  </g>
</svg>