<?xml version="1.0" encoding="UTF-8"?>
<svg id="Layer_2" data-name="Layer 2" xmlns="http://www.w3.org/2000/svg" viewBox="0 0 397.76 251.28">
  <defs>
    <style>
      .cls-1 {
        fill: #fff;
      }

      .cls-2 {
        fill: #818285;
      }

      .cls-3 {
        fill: #d1d3d8;
      }

      .cls-4 {
        fill: #231f20;
      }

      .cls-5 {
        fill: #595a5c;
      }

      .cls-6 {
        fill: #60c8d4;
      }

      .cls-7 {
        fill: none;
        stroke: #78797b;
        stroke-miterlimit: 10;
      }

      .cls-8 {
        fill: #f7b1c4;
        opacity: .57;
      }
    </style>
  </defs>
  <g id="faces-enfadado">
    <g>
      <path class="cls-3" d="M131.32,172.93l-46.77-10.98c-.55-4.89-4.02-8.9-8.59-10.02-3.92-.96-8.11,.34-10.98,3.34,2.53-8.66-.24-12.86-.95-13.84-5.62-7.7-22.11-5.63-31.5,1.91-3.37,2.71-5.44,5.81-6.68,8.11-3.42-2.55-7.6-3.83-10.5-2.39-4.26,2.13-6.41,10.47-1.43,18.61-7.17,1.38-13.13,5.13-13.84,9.55-.92,5.77,6.84,14.43,20.52,15.75-1.35,4.98-.1,10.2,3.34,13.36,4.71,4.32,12.94,4.28,18.61-.95,1.98,2.03,5.88,5.34,11.45,6.2,9.24,1.44,19.27-4.41,24.82-14.8,4.11,.8,8.33-.66,10.98-3.82,2.88-3.43,3.44-8.31,1.43-12.41,13.36-2.55,26.73-5.09,40.09-7.64Z"/>
      <path class="cls-1" d="M14.61,170.04c-4,1.62-6.81,5.07-7,8.76-.27,5.21,4.71,10.63,11.68,10.75-11.02-.59-17.62-6.95-17.17-11.32,.37-3.61,5.68-7.09,12.49-8.2Z"/>
      <path class="cls-1" d="M124.37,172.74c-8.4,1.07-17.05,2.36-25.92,3.88-4.59,.79-9.1,1.62-13.52,2.48,4.65-2.07,11.01-4.36,18.81-5.67,8.27-1.39,15.39-1.21,20.63-.69Z"/>
      <path class="cls-1" d="M28.65,149.51c13.65-10.85,26.86-12.93,31.63-7.98,.73,.76,3.28,3.77,1.71,11.68-.11-1.38-.56-4.72-3.13-7.41,0,0-1.74-1.82-4.56-2.85-5.03-1.83-14.82,.51-25.65,6.55Z"/>
    </g>
    <g>
      <path class="cls-3" d="M272.78,174.63l50.58-10.52c-.01-.29-.08-3.66,2.5-5.51,2.39-1.71,6.02-1.39,8.51,1-.68-1.99-1.87-6.49,0-11.02,3.59-8.67,16.53-12.92,24.54-8.01,4.22,2.58,5.89,6.98,6.51,9.02,15.94-5.86,30.01,1.75,32.05,10.52,1.44,6.19-2.9,13.83-10.02,19.03,4.08,6.91,3.84,15.33-.5,21.04-5.64,7.41-17.48,9.31-26.54,3.01-2.32,6.39-9.3,9.27-14.52,7.01-4.22-1.82-6.86-6.8-6.01-12.02-6.1,1.95-12.52,.62-16.53-3.51-3.25-3.34-3.86-7.43-4.01-9.02-15.53-3.67-31.05-7.35-46.58-11.02Z"/>
      <path class="cls-1" d="M282.16,174.53c8.38-1.24,17-2.7,25.84-4.4,4.57-.88,9.06-1.8,13.47-2.75-4.6,2.16-10.92,4.58-18.69,6.05-8.24,1.55-15.37,1.52-20.62,1.1Z"/>
      <path class="cls-1" d="M342.7,198.47c.55,2.91,2.74,5.45,5.58,6.38,4.02,1.31,9.14-.67,10.48-5.09-2.43,6.89-8.57,9.7-11.9,8.46-2.75-1.03-4.52-5.17-4.16-9.75Z"/>
      <path class="cls-1" d="M365.98,150.93c15.24-4.39,27.64,1.88,29.51,9.42,1.62,6.54-4.84,13.33-5.88,14.39,.42-.68,.98-1.66,1.52-2.9,2.04-4.73,2.24-9.75,1.66-12.03-1.49-5.88-12.62-10.91-26.81-8.88Z"/>
    </g>
    <g>
      <g>
        <circle class="cls-5" cx="203.86" cy="160.77" r="89.41"/>
        <path class="cls-2" d="M174.7,245.32s29.17,13.41,58.33,0c0,0-29.17,10.88-58.33,0Z"/>
      </g>
      <path class="cls-2" d="M190.24,205.29c4.03,2.1,12.42,5.69,22.81,4.38,3.19-.4,5.98-1.2,8.3-2.07,.74,.91,2.43,3.24,2.77,6.68,.43,4.45-1.7,7.67-2.3,8.53-.87-.97-3.08-3.17-6.68-4.15-2.69-.73-4.97-.47-6.22-.23-2.36,.69-5.58,1.91-8.99,4.15-2.98,1.95-5.17,4.06-6.68,5.76-.49-.25-6.82-3.66-7.6-11.06-.74-6.99,4.11-11.53,4.61-11.98Z"/>
      <g>
        <path class="cls-6" d="M168.16,186.98s3.01-.53,6.28,0l-1.84-1.52s-3.89,.45-4.44,1.52Z"/>
        <path class="cls-6" d="M152.6,152.41s.86,3.89,10.37,7.46c0,0,5.83,2.7,8.21-9.29,0,0-8.75,.65-18.15-8.86,0,0-.27,6.97,12.7,12.32,0,0,.76,.65-.05,1.13,0,0-7.46,1.03-13.07-2.76Z"/>
        <ellipse class="cls-1" cx="174.78" cy="168.21" rx="11.99" ry="18.76"/>
        <path class="cls-6" d="M255.49,152.41s-.86,3.89-10.37,7.46c0,0-5.83,2.7-8.21-9.29,0,0,8.75,.65,18.15-8.86,0,0,.27,6.97-12.7,12.32,0,0-.76,.65,.05,1.13,0,0,7.46,1.03,13.07-2.76Z"/>
        <path class="cls-6" d="M240.43,186.98s-3.01-.53-6.28,0l1.84-1.52s3.89,.45,4.44,1.52Z"/>
        <ellipse class="cls-1" cx="233.31" cy="168.21" rx="11.99" ry="18.76"/>
        <ellipse class="cls-4" cx="175.03" cy="171.97" rx="9.41" ry="15"/>
        <ellipse class="cls-1" cx="169.37" cy="160.69" rx="2.38" ry="3.73"/>
        <ellipse class="cls-4" cx="233.24" cy="171.97" rx="9.54" ry="15"/>
        <ellipse class="cls-1" cx="228.24" cy="160.69" rx="2.38" ry="3.73"/>
        <ellipse class="cls-8" cx="163.69" cy="198.96" rx="11.09" ry="2.92"/>
        <ellipse class="cls-8" cx="247.17" cy="198.96" rx="11.09" ry="2.92"/>
      </g>
      <rect class="cls-5" x="206.88" y="138.37" width="37.4" height="20.34" transform="translate(-44.48 144.48) rotate(-32.5)"/>
      <rect class="cls-5" x="162.85" y="136.64" width="37.4" height="20.34" transform="translate(255.76 368.18) rotate(-147.5)"/>
    </g>
    <path class="cls-7" d="M319.58,38.41c-3.03,.85-17.3,5.19-21.69,17.49-.49,1.38-3.86,10.94,.94,15.18,3.56,3.15,7.73,4.14,10.87,.58,.29-.32,1.13-1.43,1.38-2.97,.51-3.15-1.73-6.5-4.59-7.74-1.01-.44-2.24-.68-3.94-.51-4.26,.43-12.29,3.52-13.96,11.4-1.08,5.1,.85,10.49,4.94,14.06"/>
    <path class="cls-7" d="M115.12,92.4c.41-3.12,2.06-17.94-7.5-26.84-1.07-1-8.53-7.87-14.32-5.13-4.3,2.03-6.86,5.46-4.83,9.76,.18,.39,.86,1.6,2.19,2.44,2.69,1.72,6.66,.97,8.92-1.16,.81-.76,1.51-1.79,2.02-3.42,1.29-4.09,1.62-12.68-4.96-17.33-4.26-3.01-9.97-3.36-14.87-1.01"/>
    <path class="cls-7" d="M151.06,.18c-1.11,2.95-6.06,17.01,1.25,27.84,.82,1.22,6.53,9.59,12.79,8.23,4.64-1.01,7.91-3.77,6.91-8.42-.09-.42-.48-1.75-1.58-2.87-2.23-2.28-6.27-2.45-8.95-.89-.96,.56-1.87,1.41-2.74,2.87-2.18,3.69-4.44,11.98,.92,18,3.47,3.89,8.96,5.53,14.26,4.34"/>
    <path class="cls-7" d="M237.8,56.08c2.57-1.82,14.55-10.7,14.56-23.76,0-1.47-.04-11.6-5.99-13.98-4.41-1.77-8.67-1.31-10.44,3.1-.16,.4-.58,1.72-.3,3.26,.57,3.14,3.82,5.54,6.92,5.75,1.1,.08,2.34-.11,3.88-.84,3.87-1.84,10.39-7.44,9.32-15.43-.69-5.17-4.33-9.59-9.38-11.59"/>
  </g>
</svg>