<?xml version="1.0" encoding="UTF-8"?>
<svg id="Layer_2" data-name="Layer 2" xmlns="http://www.w3.org/2000/svg" viewBox="0 0 179.1 180.2">
  <defs>
    <style>
      .cls-1 {
        fill: none;
        stroke: #818285;
        stroke-miterlimit: 10;
        stroke-width: 3px;
      }

      .cls-2 {
        fill: #fff;
      }

      .cls-3 {
        fill: #818285;
      }

      .cls-4 {
        fill: #231f20;
      }

      .cls-5 {
        fill: #595a5c;
      }

      .cls-6 {
        fill: #60c8d4;
      }

      .cls-7 {
        fill: #f7b1c4;
        opacity: .57;
      }
    </style>
  </defs>
  <g id="faces-suspicaz">
    <g>
      <g>
        <circle class="cls-5" cx="89.55" cy="89.55" r="89.55"/>
        <path class="cls-3" d="M60.34,174.23s29.21,13.43,58.42,0c0,0-29.21,10.89-58.42,0Z"/>
      </g>
      <path class="cls-2" d="M57.65,145.1s23.47,3.9,59.7,0c0,0-13.79,10.62-29.85,10.43,0,0-17.61,.24-29.85-10.43Z"/>
      <path class="cls-1" d="M46.44,78.01c3.68-4.63,6.78-5.66,8.95-5.73,4.09-.12,6.13,3.13,12.53,5.01,3.49,1.02,6.55,1.14,8.59,1.07"/>
      <path class="cls-1" d="M101.91,65.84c2.86-1.47,6.93-3.78,11.45-7.16,5.48-4.1,7.41-6.63,10.38-6.44,2.23,.14,5.43,1.85,8.95,9.66"/>
    </g>
    <g>
      <path class="cls-6" d="M51.63,121.38s3.06-.54,6.39,0l-1.88-1.55s-3.96,.46-4.52,1.55Z"/>
      <path class="cls-6" d="M35.8,86.21s.88,3.96,10.55,7.59c0,0,5.94,2.75,8.35-9.45,0,0-8.9,.66-18.47-9.01,0,0-.27,7.09,12.92,12.53,0,0,.77,.66-.05,1.15,0,0-7.59,1.04-13.3-2.8Z"/>
      <ellipse class="cls-2" cx="58.37" cy="102.29" rx="12.2" ry="19.09"/>
      <path class="cls-6" d="M140.48,86.21s-.88,3.96-10.55,7.59c0,0-5.94,2.75-8.35-9.45,0,0,8.9,.66,18.47-9.01,0,0,.27,7.09-12.92,12.53,0,0-.77,.66,.05,1.15,0,0,7.59,1.04,13.3-2.8Z"/>
      <path class="cls-6" d="M125.16,121.38s-3.06-.54-6.39,0l1.88-1.55s3.96,.46,4.52,1.55Z"/>
      <ellipse class="cls-2" cx="117.92" cy="102.29" rx="12.2" ry="19.09"/>
      <ellipse class="cls-4" cx="58.62" cy="106.12" rx="9.57" ry="15.27"/>
      <ellipse class="cls-2" cx="52.87" cy="94.64" rx="2.42" ry="3.79"/>
      <ellipse class="cls-4" cx="117.85" cy="106.12" rx="9.71" ry="15.27"/>
      <ellipse class="cls-2" cx="112.76" cy="94.64" rx="2.42" ry="3.79"/>
      <ellipse class="cls-7" cx="47.08" cy="133.57" rx="11.28" ry="2.97"/>
      <ellipse class="cls-7" cx="132.02" cy="133.57" rx="11.28" ry="2.97"/>
    </g>
  </g>
</svg>