<?xml version="1.0" encoding="UTF-8"?>
<svg id="Layer_2" data-name="Layer 2" xmlns="http://www.w3.org/2000/svg" viewBox="0 0 177.19 186.4">
  <defs>
    <style>
      .cls-1 {
        fill: none;
      }

      .cls-1, .cls-2 {
        stroke: #818285;
        stroke-miterlimit: 10;
        stroke-width: 3px;
      }

      .cls-3 {
        fill: #fff;
      }

      .cls-4 {
        fill: #818285;
      }

      .cls-5 {
        fill: #231f20;
      }

      .cls-6, .cls-2 {
        fill: #595a5c;
      }
    </style>
  </defs>
  <g id="faces-pensativo">
    <g>
      <g>
        <circle class="cls-6" cx="88.59" cy="88.59" r="88.59"/>
        <path class="cls-4" d="M59.69,172.37s28.9,13.29,57.8,0c0,0-28.9,10.78-57.8,0Z"/>
      </g>
      <ellipse class="cls-3" cx="56.26" cy="64.65" rx="12.1" ry="18.93"/>
      <ellipse class="cls-5" cx="56.26" cy="64.65" rx="7.52" ry="11.76"/>
      <ellipse class="cls-3" cx="51.14" cy="56.65" rx="2.4" ry="3.76"/>
      <ellipse class="cls-3" cx="115.32" cy="64.65" rx="12.1" ry="18.93"/>
      <ellipse class="cls-5" cx="115.65" cy="64.65" rx="7.52" ry="11.76"/>
      <ellipse class="cls-3" cx="110.54" cy="56.65" rx="2.4" ry="3.76"/>
      <path class="cls-2" d="M30.44,133.17c-2.43,11.78-5.88,12.71-6.01,21.84-.05,3.08-.19,12.85,5.54,20.1,13.56,17.16,50.31,7.86,51.3,1.38,.25-1.63-1.77-2.97-1.13-5.65,.83-3.52,4.97-3.97,5.06-6.65,.09-2.56-3.66-3.21-3.8-6.17-.13-2.76,3.06-3.63,3.01-6.49-.05-2.99-3.57-3.76-3.48-5.54,.25-4.87,26.93-4.01,29.44-12.98,.41-1.47,.32-3.71-.95-5.22-5.58-6.64-30.46,5.16-55.23,6.49-2.37,.13-4.42,.14-6.33-1.11-6.97-4.55-.17-19.46-8.23-26.27-.74-.63-3.27-2.76-5.33-2-4.14,1.52-.59,12.52-3.85,28.28Z"/>
      <path class="cls-1" d="M64.61,112.11c7.06-.21,15.11,0,23.92,1.02,12.73,1.47,23.7,4.23,32.57,7.12"/>
    </g>
  </g>
</svg>