<?xml version="1.0" encoding="UTF-8"?>
<svg id="Layer_2" data-name="Layer 2" xmlns="http://www.w3.org/2000/svg" viewBox="0 0 179.59 180.69">
  <defs>
    <style>
      .cls-1 {
        fill: #fff;
      }

      .cls-2 {
        fill: #818285;
      }

      .cls-3 {
        fill: #595a5c;
      }

      .cls-4 {
        fill: #4dc6de;
      }
    </style>
  </defs>
  <g id="faces-incomodo">
    <g>
      <g>
        <circle class="cls-3" cx="89.79" cy="89.79" r="89.79"/>
        <path class="cls-2" d="M60.5,174.7s29.29,13.47,58.58,0c0,0-29.29,10.92-58.58,0Z"/>
      </g>
      <path class="cls-1" d="M59.58,143.59s23.54,5.13,59.86,0c0,0-13.83,13.95-29.93,13.7,0,0-17.66,.31-29.93-13.7Z"/>
      <path class="cls-4" d="M136.74,22.34l-9.49,31.9c-.83,7.7,4.9,13.86,10.63,14.05,6.06,.2,12.46-6.26,11.39-14.43-4.18-10.51-8.36-21.01-12.53-31.52Z"/>
      <path class="cls-2" d="M48.43,116.08c.1-.51,2.1-10.02,8.27-12.05,.47-.16,2.76-.86,5.49,.31,5.95,2.55,7.79,11.31,7.96,12.19,2.5-20.65-.53-36.49-6.95-39.71-2.62-1.31-5.16-.2-5.99,.23-7,3.6-10.63,19.31-8.79,39.04Z"/>
      <path class="cls-2" d="M108.38,116.87c.1-.51,2.1-10.02,8.27-12.05,.47-.16,2.76-.86,5.49,.31,5.95,2.55,7.79,11.31,7.96,12.19,2.5-20.65-.53-36.49-6.95-39.71-2.62-1.31-5.16-.2-5.99,.23-7,3.6-10.63,19.31-8.79,39.04Z"/>
    </g>
  </g>
</svg>