<?xml version="1.0" encoding="UTF-8"?>
<svg id="Layer_2" data-name="Layer 2" xmlns="http://www.w3.org/2000/svg" viewBox="0 0 180.65 181.75">
  <defs>
    <style>
      .cls-1 {
        fill: #fff;
      }

      .cls-2 {
        fill: #818285;
      }

      .cls-3 {
        fill: #231f20;
      }

      .cls-4 {
        fill: #595a5c;
      }
    </style>
  </defs>
  <g id="faces-frustrado">
    <g>
      <g>
        <circle class="cls-4" cx="90.32" cy="90.32" r="90.32"/>
        <path class="cls-2" d="M60.86,175.73s29.47,13.55,58.93,0c0,0-29.46,10.99-58.93,0Z"/>
      </g>
      <ellipse class="cls-1" cx="59.95" cy="97.36" rx="12.34" ry="19.3"/>
      <ellipse class="cls-3" cx="59.37" cy="89.86" rx="7.67" ry="11.99"/>
      <ellipse class="cls-1" cx="55.8" cy="83.89" rx="2.45" ry="3.83"/>
      <ellipse class="cls-1" cx="120.16" cy="97.36" rx="12.34" ry="19.3"/>
      <ellipse class="cls-3" cx="119.93" cy="90.15" rx="7.67" ry="11.99"/>
      <ellipse class="cls-1" cx="116.35" cy="84.1" rx="2.45" ry="3.83"/>
      <path class="cls-2" d="M79.34,145.62c5.26-.05,11.23,.04,17.76,.39,6.02,.32,11.46,.8,16.26,1.34-4.36,.84-9.87,1.7-16.38,2.29-6.52,.59-12.32,.75-17.03,.74-5.15-.12-8.17-1.81-7.81-2.9,.31-.95,3.31-1.89,7.2-1.87Z"/>
    </g>
  </g>
</svg>