<?xml version="1.0" encoding="UTF-8"?>
<svg id="Layer_2" data-name="Layer 2" xmlns="http://www.w3.org/2000/svg" viewBox="0 0 180.84 181.95">
  <defs>
    <style>
      .cls-1 {
        fill: #fff;
      }

      .cls-2 {
        fill: #818285;
      }

      .cls-3 {
        fill: #231f20;
      }

      .cls-4 {
        fill: #595a5c;
      }

      .cls-5 {
        fill: #60c8d4;
      }

      .cls-6 {
        fill: #4dc6de;
      }

      .cls-7 {
        fill: #f7b1c4;
        opacity: .57;
      }
    </style>
  </defs>
  <g id="faces-muy-frustrado">
    <g>
      <g>
        <circle class="cls-4" cx="90.42" cy="90.42" r="90.42"/>
        <path class="cls-2" d="M60.92,175.92s29.5,13.56,58.99,0c0,0-29.5,11-58.99,0Z"/>
      </g>
      <path class="cls-2" d="M79.42,145.77c5.27-.05,11.24,.04,17.78,.39,6.02,.32,11.48,.8,16.28,1.34-4.37,.84-9.88,1.7-16.4,2.29-6.53,.59-12.33,.75-17.05,.74-5.15-.12-8.18-1.81-7.82-2.9,.31-.95,3.31-1.89,7.21-1.87Z"/>
      <path class="cls-6" d="M144.46,19.45l-9.56,32.12c-.83,7.75,4.94,13.96,10.71,14.15,6.1,.2,12.54-6.3,11.47-14.53-4.21-10.58-8.41-21.16-12.62-31.74Z"/>
      <path class="cls-5" d="M53.45,116.26s3.06-.54,6.39,0l-1.88-1.55s-3.96,.46-4.52,1.55Z"/>
      <path class="cls-5" d="M37.62,81.1s.88,3.96,10.55,7.59c0,0,5.94,2.75,8.35-9.45,0,0-8.9,.66-18.47-9.01,0,0-.27,7.09,12.92,12.53,0,0,.77,.66-.05,1.15,0,0-7.59,1.04-13.3-2.8Z"/>
      <ellipse class="cls-1" cx="60.19" cy="97.18" rx="12.2" ry="19.09"/>
      <path class="cls-5" d="M142.3,81.1s-.88,3.96-10.55,7.59c0,0-5.94,2.75-8.35-9.45,0,0,8.9,.66,18.47-9.01,0,0,.27,7.09-12.92,12.53,0,0-.77,.66,.05,1.15,0,0,7.59,1.04,13.3-2.8Z"/>
      <path class="cls-5" d="M126.98,116.26s-3.06-.54-6.39,0l1.88-1.55s3.96,.46,4.52,1.55Z"/>
      <ellipse class="cls-1" cx="119.74" cy="97.18" rx="12.2" ry="19.09"/>
      <ellipse class="cls-3" cx="59.44" cy="93.4" rx="9.57" ry="15.27"/>
      <ellipse class="cls-1" cx="55.88" cy="83.81" rx="2.42" ry="3.79"/>
      <ellipse class="cls-3" cx="118.67" cy="93.4" rx="9.71" ry="15.27"/>
      <ellipse class="cls-1" cx="115.19" cy="83.81" rx="2.42" ry="3.79"/>
      <ellipse class="cls-7" cx="48.9" cy="128.46" rx="11.28" ry="2.97"/>
      <ellipse class="cls-7" cx="133.84" cy="128.46" rx="11.28" ry="2.97"/>
    </g>
  </g>
</svg>