<?xml version="1.0" encoding="UTF-8"?>
<svg id="Layer_2" data-name="Layer 2" xmlns="http://www.w3.org/2000/svg" viewBox="0 0 204.52 180.92">
  <defs>
    <style>
      .cls-1 {
        fill: #fff;
      }

      .cls-2 {
        fill: #818285;
      }

      .cls-3 {
        fill: #231f20;
      }

      .cls-4 {
        fill: #595a5c;
      }

      .cls-5 {
        fill: #60c8d4;
      }

      .cls-6 {
        fill: #4dc6de;
      }

      .cls-7 {
        fill: #f7b1c4;
        opacity: .57;
      }
    </style>
  </defs>
  <g id="faces-angelical">
    <g>
      <g>
        <circle class="cls-4" cx="104.6" cy="89.91" r="89.91"/>
        <path class="cls-2" d="M75.27,174.93s29.33,13.48,58.66,0c0,0-29.33,10.94-58.66,0Z"/>
      </g>
      <path class="cls-1" d="M71.51,133.77s26.19,8.87,66.6,0c0,0-15.38,24.13-33.3,23.7,0,0-19.65,.54-33.3-23.7Z"/>
      <path class="cls-6" d="M90.05,.15C89.84-1.01,.31,9.28,0,25.73c-.24,12.98,55.08,27.75,105.06,27.45,46.89-.29,99.62-13.92,99.46-26.43C204.3,10.35,113.13,.1,113.13,.15c0,.04,71.72,8.59,71.78,21.52,.05,10.13-43.86,20.04-80.78,20.84-38.73,.84-83.83-8.05-84.05-18.3C19.81,11.36,90.25,1.18,90.05,.15Z"/>
      <g>
        <path class="cls-5" d="M68.29,115.19s3.06-.54,6.39,0l-1.88-1.55s-3.96,.46-4.52,1.55Z"/>
        <path class="cls-5" d="M52.46,80.02s.88,3.96,10.55,7.59c0,0,5.94,2.75,8.35-9.45,0,0-8.9,.66-18.47-9.01,0,0-.27,7.09,12.92,12.53,0,0,.77,.66-.05,1.15,0,0-7.59,1.04-13.3-2.8Z"/>
        <ellipse class="cls-1" cx="75.02" cy="96.1" rx="12.2" ry="19.09"/>
        <path class="cls-5" d="M157.14,80.02s-.88,3.96-10.55,7.59c0,0-5.94,2.75-8.35-9.45,0,0,8.9,.66,18.47-9.01,0,0,.27,7.09-12.92,12.53,0,0-.77,.66,.05,1.15,0,0,7.59,1.04,13.3-2.8Z"/>
        <path class="cls-5" d="M141.82,115.19s-3.06-.54-6.39,0l1.88-1.55s3.96,.46,4.52,1.55Z"/>
        <ellipse class="cls-1" cx="134.58" cy="96.1" rx="12.2" ry="19.09"/>
        <ellipse class="cls-3" cx="75.28" cy="99.92" rx="9.57" ry="15.27"/>
        <ellipse class="cls-1" cx="69.53" cy="88.45" rx="2.42" ry="3.79"/>
        <ellipse class="cls-3" cx="134.51" cy="99.92" rx="9.71" ry="15.27"/>
        <ellipse class="cls-1" cx="129.42" cy="88.45" rx="2.42" ry="3.79"/>
        <ellipse class="cls-7" cx="63.74" cy="127.38" rx="11.28" ry="2.97"/>
        <ellipse class="cls-7" cx="148.68" cy="127.38" rx="11.28" ry="2.97"/>
      </g>
    </g>
  </g>
</svg>