<?xml version="1.0" encoding="UTF-8"?>
<svg id="Layer_2" data-name="Layer 2" xmlns="http://www.w3.org/2000/svg" viewBox="0 0 180.19 181.29">
  <defs>
    <style>
      .cls-1 {
        fill: #fff;
      }

      .cls-2 {
        fill: #818285;
      }

      .cls-3 {
        fill: #231f20;
      }

      .cls-4, .cls-5 {
        fill: #595a5c;
      }

      .cls-5 {
        stroke: #818285;
        stroke-miterlimit: 10;
        stroke-width: 3px;
      }
    </style>
  </defs>
  <g id="faces-curioso">
    <g>
      <g>
        <circle class="cls-4" cx="90.09" cy="90.09" r="90.09"/>
        <path class="cls-2" d="M60.7,175.28s29.39,13.51,58.78,0c0,0-29.39,10.96-58.78,0Z"/>
      </g>
      <ellipse class="cls-1" cx="60.06" cy="96.76" rx="12.31" ry="19.25"/>
      <ellipse class="cls-3" cx="60.06" cy="96.76" rx="7.65" ry="11.96"/>
      <ellipse class="cls-1" cx="54.86" cy="88.63" rx="2.44" ry="3.82"/>
      <ellipse class="cls-1" cx="120.12" cy="96.76" rx="12.31" ry="19.25"/>
      <ellipse class="cls-3" cx="120.46" cy="96.76" rx="7.65" ry="11.96"/>
      <ellipse class="cls-1" cx="115.26" cy="88.63" rx="2.44" ry="3.82"/>
      <path class="cls-5" d="M62.36,176.2c-12.78,3.2-23.65-8.17-24.33-8.9-4.13-6.85-8.26-13.7-12.38-20.54l-.25-.19-10.14-7.86-1.72-1.33c-.22-.46-1.14-2.45-.29-4.22,1.41-2.95,7.52-2.05,8.24-1.95,9.25,1.29,12.62,10.43,15.05,9.44,4.65-1.89-6.92-35.74,1.36-40.53,.25-.14,1.5-.86,2.75-.48,5.99,1.84,1.71,25.89,6.23,26.78,.5,.1,.92-.12,1.16-.24,2.77-1.41,1.4-8.05,.96-19.99-.39-10.86,.41-14.61,2.61-15.74,.26-.13,.9-.46,1.65-.31,3.49,.7,3.95,10.86,4.2,16.33,.53,11.65-1.08,19.4,1.3,20.15,.65,.2,1.31-.2,1.58-.37,2.48-1.52,1.24-6.32,1.44-13.62,.09-3.35,.38-14,4.29-15.24,1.07-.34,2.02,.15,2.09,.18,2.12,1.12,2.06,5.06,1.08,16.93-.72,8.76-1.24,13.34,.76,14.28,.46,.22,1.11,.26,1.62,0,1.54-.78,.97-3.85,1.26-7.96,.1-1.39,.73-10.36,4.21-11.41,1.24-.37,2.41,.39,2.55,.49,2.34,1.57,1.74,5.79,1.37,11.62-.21,3.3-.41,7.99-.28,13.76,.69,2.79,1.35,6.86,.92,11.71-.81,9.08-5.89,25.85-19.29,29.2Z"/>
      <path class="cls-5" d="M101.14,177.4c12.78,3.2,23.65-8.17,24.33-8.9,4.13-6.85,8.26-13.7,12.38-20.54l.25-.19,10.14-7.86,1.72-1.33c.22-.46,1.14-2.45,.29-4.22-1.41-2.95-7.52-2.05-8.24-1.95-9.25,1.29-12.62,10.43-15.05,9.44-4.65-1.89,17.43-32.24,9.15-37.02-.25-.14-.85-.56-2.1-.18-5.99,1.84-12.86,22.08-17.39,22.97-.5,.1-.92-.12-1.16-.24-2.77-1.41-1.4-8.05-.96-19.99,.39-10.86-.41-14.61-2.61-15.74-.26-.13-.9-.46-1.65-.31-3.49,.7-3.95,10.86-4.2,16.33-.53,11.65,1.08,19.4-1.3,20.15-.65,.2-1.31-.2-1.58-.37-2.48-1.52-1.24-6.32-1.44-13.62-.09-3.35-.38-14-4.29-15.24-1.07-.34-2.02,.15-2.09,.18-2.12,1.12-2.06,5.06-1.08,16.93,.72,8.76,1.24,13.34-.76,14.28-.46,.22-1.11,.26-1.62,0-1.54-.78-.97-3.85-1.26-7.96-.1-1.39-.73-10.36-4.21-11.41-1.24-.37-2.41,.39-2.55,.49-2.34,1.57-1.74,5.79-1.37,11.62,.21,3.3,.41,7.99,.28,13.76-.69,2.79-1.35,6.86-.92,11.71,.81,9.08,5.89,25.85,19.29,29.2Z"/>
    </g>
  </g>
</svg>