<?xml version="1.0" encoding="UTF-8"?>
<svg id="Layer_2" data-name="Layer 2" xmlns="http://www.w3.org/2000/svg" viewBox="0 0 494.51 318.05">
  <defs>
    <style>
      .cls-1 {
        fill: #fff;
      }

      .cls-2 {
        fill: #818285;
      }

      .cls-3 {
        fill: #231f20;
      }

      .cls-4 {
        fill: #5a5b5c;
      }

      .cls-5 {
        fill: #60c8d4;
      }

      .cls-6 {
        fill: #f7b1c4;
        opacity: .57;
      }
    </style>
  </defs>
  <g id="ballena">
    <g>
      <path class="cls-4" d="M104.15,272.02c-26.37,8.82-49.68-1.88-60.17-6.7C17.12,252.98-3.57,228.85,.52,221.64c2.87-5.05,15.49,2.51,32.28-4.24,11.98-4.81,14.9-12.43,25.43-23.04,5.91-5.96,34.07-34.35,59.79-28.58,18.59,4.17,32.81,25.49,34.23,45.47,2.15,30.31-25.45,53.18-48.09,60.76Z"/>
      <path class="cls-4" d="M372.35,158.41c-6.48,5.91-17.12,13.82-28.09,11.76-26.44-4.96-22.12-61.56-51.61-104.54C261.43,20.17,189.92-13.62,122.46,5.41,50.18,25.81,6.57,100.08,9.29,163.21c.42,9.73,1.6,31.58,14.44,54.22,49.42,87.17,231.39,115.23,332.59,34.8,31.24-24.83,49.26-55.61,59.88-80.11,23.39,5.82,47.79-1.32,63.12-18.61,18.61-21,15.14-47.16,14.57-50.98-6.62,3.09-16.36,6.34-27.51,4.86-15.66-2.09-22.05-11.91-33.99-10.52-5.62,.66-13.39,3.91-21.85,16.03,.1-7.32-.98-17.79-8.14-25.03-6.97-7.06-14.74-6.01-25.1-11.39-6.96-3.62-16.29-10.77-24.21-26.54-17.35,20.05-23.14,47.04-14.71,70.6,8.61,24.07,28.7,35.18,33.97,37.89Z"/>
      <path class="cls-2" d="M23.74,217.43c22.11-6.91,55.56-14.65,95.85-12.73,89.47,4.28,128.17,52.21,195.48,41.37,22.62-3.64,54.27-14.86,89.23-50.21-5.42,9.51-13.78,22.36-26.1,35.66-53.25,57.5-126.66,64.93-153.02,67.6-33.97,3.45-111.37,11.31-168.08-39.36-16.75-14.96-27.15-30.97-33.35-42.35Z"/>
      <g>
        <path class="cls-5" d="M41.77,114.64s3.96-.41,8.19,.57l-2.26-2.15s-5.11,.23-5.92,1.58Z"/>
        <path class="cls-5" d="M24.64,68.19s.77,5.15,12.83,10.66c0,0,7.35,4.05,11.54-11.36,0,0-11.46,.05-22.84-13.2,0,0-.99,9.05,15.42,17.2,0,0,.93,.91-.17,1.47,0,0-9.81,.66-16.78-4.78Z"/>
        <ellipse class="cls-1" cx="52.1" cy="90.8" rx="24.5" ry="15.66" transform="translate(-42.12 136.44) rotate(-86)"/>
        <ellipse class="cls-3" cx="52.09" cy="95.72" rx="19.6" ry="12.29" transform="translate(-47.03 141) rotate(-86)"/>
        <ellipse class="cls-1" cx="45.74" cy="80.51" rx="4.87" ry="3.11" transform="translate(-37.76 120.52) rotate(-86)"/>
        <ellipse class="cls-6" cx="34.85" cy="129.84" rx="3.82" ry="14.48" transform="translate(-97.11 155.55) rotate(-86)"/>
      </g>
      <g>
        <path class="cls-5" d="M213.33,82.89s-1.48,4.99-14.19,8.77c0,0-7.85,2.99-9.85-12.85,0,0,11.34,1.64,24.45-9.89,0,0-.28,9.1-17.66,14.89,0,0-1.04,.78-.03,1.48,0,0,9.62,2.02,17.28-2.4Z"/>
        <path class="cls-5" d="M190.56,126.55s-3.87-.96-8.19-.57l2.54-1.81s5.03,.94,5.65,2.39Z"/>
        <ellipse class="cls-1" cx="182.99" cy="101.46" rx="24.5" ry="15.66" transform="translate(69.02 276.92) rotate(-86)"/>
        <ellipse class="cls-3" cx="182.56" cy="106.34" rx="19.6" ry="12.47" transform="translate(63.74 281.04) rotate(-86)"/>
        <ellipse class="cls-1" cx="177.07" cy="91.19" rx="4.87" ry="3.11" transform="translate(73.75 261.47) rotate(-86)"/>
        <ellipse class="cls-6" cx="198.25" cy="142.77" rx="3.82" ry="14.48" transform="translate(41.99 330.58) rotate(-86)"/>
      </g>
      <path class="cls-2" d="M61.25,146.74c.3-.59,18.21,14.03,44.36,15.21,26.92,1.22,46.52-12.52,46.75-11.96,.24,.59-20.67,16.45-47.79,14.91-25.52-1.45-43.63-17.57-43.32-18.17Z"/>
      <path class="cls-4" d="M225.17,299.13c20.32,18.99,45.97,18.94,57.51,18.92,29.56-.05,58.41-13.4,57.69-21.65-.51-5.79-15.13-4.16-27.59-17.27-8.89-9.36-8.39-17.5-13.55-31.53-2.9-7.88-16.7-45.41-42.5-50.85-18.64-3.94-40.44,9.54-50.04,27.13-14.56,26.67,1.03,58.95,18.48,75.25Z"/>
      <ellipse class="cls-2" cx="167.38" cy="3.6" rx="7.51" ry="1.57"/>
    </g>
  </g>
</svg>