<?xml version="1.0" encoding="UTF-8"?>
<svg id="Layer_2" data-name="Layer 2" xmlns="http://www.w3.org/2000/svg" viewBox="0 0 375.23 476.52">
  <defs>
    <style>
      .cls-1 {
        fill: #fff;
      }

      .cls-2 {
        fill: #818285;
      }

      .cls-3 {
        fill: #231f20;
      }

      .cls-4 {
        fill: #5a5b5c;
      }

      .cls-5 {
        fill: #60c8d4;
      }

      .cls-6 {
        fill: #f7b1c4;
        opacity: .57;
      }
    </style>
  </defs>
  <g id="conejo">
    <g>
      <g>
        <path class="cls-4" d="M193.74,395.15c-6.32,24.57,17.35,61.05,61.56,68.73,.55,.52,14.12,12.9,31.08,7.77,12.75-3.86,18.23-14.85,19.13-16.73,5.18-10.76,10.36-21.52,15.54-32.27,3.01-.71,16.13-4.13,21.39-15.58,1.27-2.77,4.5-9.78,.79-14.83-3.48-4.74-10.57-4.32-11.43-4.26,2.45-5.19,2.31-11.08-.68-14.99-4.37-5.7-14.64-6.94-22.35-.62-3.5-6.01-10.56-8.78-16.77-6.83-5.28,1.66-9.15,6.5-9.8,12.28-3.38-7.27-7.66-11.34-11.36-13.75-22.77-14.82-69.93,3.2-77.1,31.08Z"/>
        <path class="cls-6" d="M293,452.55c-2.17,3.48-6.05,6.41-9.57,5.55-5.19-1.26-7.33-10.07-7.75-11.79-4.67-19.25,10.18-50.66,22.66-50.16,5.87,.23,12.14,7.55,12.72,15.51,.55,7.56-4.11,14.32-5.02,15.64-3.78,5.48-5.99,3.95-8.68,8.81-3.49,6.31-.82,10.76-4.37,16.43Z"/>
        <path class="cls-2" d="M255.6,448.35c.1-6.98,.96-16.28,4.09-26.77,4.24-14.21,10.87-24.68,15.8-31.23-4.39,4.76-11.11,13.26-15.59,25.6-4.99,13.72-4.86,25.72-4.3,32.39Z"/>
        <path class="cls-2" d="M308.76,372.36c7.57-5.78,17.4-4.56,21.81,1.05,3.01,3.82,3.33,9.48,1.23,14.56,2.61-5.52,2.08-11.82-1.37-15.79-4.76-5.48-14.74-6.14-21.67,.18Z"/>
        <path class="cls-2" d="M282.19,377.81c1.04-5.32,4.72-9.7,9.66-11.35,6.03-2.02,12.98,.33,16.91,5.91-3.5-6.01-10.56-8.78-16.77-6.83-5.28,1.66-9.15,6.5-9.8,12.28Z"/>
        <path class="cls-2" d="M336.2,388.24c3.68,1.09,5.4,3.02,6.13,4.02,3.66,5.03,2.25,13.89-4.32,21.23,7.27-7.23,8.84-16.35,5.21-21.26-.64-.87-2.55-3.1-7.02-3.99Z"/>
      </g>
      <g>
        <path class="cls-4" d="M158.1,398.68c6.32,24.57-17.35,61.05-61.56,68.73-.55,.52-14.12,12.9-31.08,7.77-12.75-3.86-18.23-14.85-19.13-16.73-5.18-10.76-10.36-21.52-15.54-32.27-3.01-.71-16.13-4.13-21.39-15.58-1.27-2.77-4.5-9.78-.79-14.83,3.48-4.74,10.57-4.32,11.43-4.26-2.45-5.19-2.31-11.08,.68-14.99,4.37-5.7,14.64-6.94,22.35-.62,3.5-6.01,10.56-8.78,16.77-6.83,5.28,1.66,9.15,6.5,9.8,12.28,3.38-7.27,7.66-11.34,11.36-13.75,22.77-14.82,69.93,3.2,77.1,31.08Z"/>
        <path class="cls-6" d="M58.84,456.08c2.17,3.48,6.05,6.41,9.57,5.55,5.19-1.26,7.33-10.07,7.75-11.79,4.67-19.25-10.18-50.66-22.66-50.16-5.87,.23-12.14,7.55-12.72,15.51-.55,7.56,4.11,14.32,5.02,15.64,3.78,5.48,5.99,3.95,8.68,8.81,3.49,6.31,.82,10.76,4.37,16.43Z"/>
        <path class="cls-2" d="M96.24,451.88c-.1-6.98-.96-16.28-4.09-26.77-4.24-14.21-10.87-24.68-15.8-31.23,4.39,4.76,11.11,13.26,15.59,25.6,4.99,13.72,4.86,25.72,4.3,32.39Z"/>
        <path class="cls-2" d="M43.08,375.9c-7.57-5.78-17.4-4.56-21.81,1.05-3.01,3.82-3.33,9.48-1.23,14.56-2.61-5.52-2.08-11.82,1.37-15.79,4.76-5.48,14.74-6.14,21.67,.18Z"/>
        <path class="cls-2" d="M69.65,381.35c-1.04-5.32-4.72-9.7-9.66-11.35-6.03-2.02-12.98,.33-16.91,5.91,3.5-6.01,10.56-8.78,16.77-6.83,5.28,1.66,9.15,6.5,9.8,12.28Z"/>
        <path class="cls-2" d="M15.64,391.77c-3.68,1.09-5.4,3.02-6.13,4.02-3.66,5.03-2.25,13.89,4.32,21.23-7.27-7.23-8.84-16.35-5.21-21.26,.64-.87,2.55-3.1,7.02-3.99Z"/>
      </g>
      <path class="cls-4" d="M229.92,309.35c27.51,17.87,29.53,46.62,30.54,61.11,.99,14.13,3.51,50.01-28.3,71.65-33.4,22.72-89.08,19.18-119.63-5.51-26.55-21.45-25.17-51.65-24.67-62.41,.49-10.77,1.84-40.28,29.96-60.39,30.02-21.47,80.46-25.02,112.1-4.47Z"/>
      <g>
        <g>
          <path class="cls-4" d="M232.21,99.64c-9.56-3.14-59.14-6.64-71.89,21.92-6.66,14.91-.22,32.02,.31,33.36,14.35,36.69,71.7,43.1,100.29,46.3,15.3,1.71,30.99,1.72,62.36,1.72,18.31,0,33.51-.42,44.08-.8,.95,.08,4.01,.21,6.02-2.01,2.71-3,2.6-9.3-1.29-14.42-17.31-16.94-41.06-37.03-71.59-55.04-25.34-14.95-48.86-24.63-68.29-31.02Z"/>
          <path class="cls-6" d="M181.98,134.75c7.16-14.14,33.79-12.33,47.54-11.4,8.4,.57,25.68,1.3,43.55,12.07,16.57,9.98,20.48,19.21,43.94,35.8,10,7.07,18.48,11.89,24.14,14.89-1.24,1.29-3.17,3.03-5.75,4.36-11.47,5.93-23.33-2.69-32.56-8.34-19.3-11.8-32.24-17.11-47.02-18.4-13.39-1.17-17.01,2.97-48.34,3.17-7.43,.05-13.45-.15-18.62-4.26-7.81-6.2-11.2-19.34-6.88-27.88Z"/>
        </g>
        <g>
          <path class="cls-4" d="M109.63,125.82c4.11,8.9,14.12,57.03-9.33,74-12.24,8.85-28.25,5.19-29.51,4.89-34.41-8.39-48.07-63.69-54.89-91.27-3.65-14.76-5.85-30.16-10.22-60.96C3.14,34.5,1.38,19.51,.25,9.07c-.21-.92-.75-3.91,.94-6.22C3.46-.28,9.03-1.16,14.1,1.87c17.38,14.36,38.44,34.55,58.6,61.73,16.74,22.56,28.57,44.14,36.93,62.23Z"/>
          <path class="cls-6" d="M26.72,32.93c-4.23,.67-6.11,17.76-4.99,34.09,1.21,17.65,5.6,29.86,13.44,50.76,21.13,56.34,24.09,60.67,30.11,62.22,15.94,4.12,38.92-14.98,37.42-27.64-.71-5.96-6.41-6.92-16.72-16.53-4.51-4.2-20.44-20.03-26.86-41.35-5.2-17.27-.21-28.43-9.8-39.59-1.48-1.73-2.96-3.04-6.29-6.37-3.44-3.45-5.05-5.32-7.94-8.22-4.97-5.01-7.48-7.51-8.38-7.37Z"/>
        </g>
        <path class="cls-4" d="M16.6,285.78c5.18,3.52,11.94,7.29,15.12,4.96,2.7-1.99,1.18-7.18,.79-14.02-.67-12,2.81-21.05,7.26-33.3,4.73-13.02,7.31-12.76,10.87-23.09,4.27-12.36,4.32-23.53,3.73-30.9,.79-5.32,3.21-16.76,11.97-28.05,8.87-11.42,19.51-16.61,24.48-18.67,11.01-6.59,30.76-16.43,57.28-19.38,19.54-2.17,35.9,.16,46.95,2.67,4.91,.76,16.13,3.18,26.82,12.16,9.76,8.2,14.11,17.7,15.89,22.33,3.88,15.85,10.58,25.07,16.12,30.6,5.86,5.85,11.55,8.71,13.6,16.42,1.97,7.41-1.94,9.9,.11,17.82,2.49,9.59,9.06,9.2,10.78,17.3,1.95,9.19-5.73,13.4-5.86,24.6-.1,8.2,3.91,14.97,7.44,19.51-8,1.13-10.91-.35-12.02-2.05-2.12-3.26,1.7-8.29-1.13-14.55-.85-1.87-2.01-3.24-2.24-3.5-1.96-2.26-4.21-3.41-5.58-3.98,1.58,2.53,4.97,8.72,5,17.29,.03,7.81-2.75,13.59-4.21,16.19-1.51-4.62-4.18-10.93-9.03-17.4-2.95-3.94-6.02-7.01-8.7-9.33,8.28,7.81,11.23,19.04,7.54,28.15-2.98,7.36-9.32,10.9-11.55,12.01,4.77-9.25,6.2-16.83,3.41-19-2.23-1.73-7.45-.2-10.06,2.97-2.14,2.59-2,5.62-1.81,9.66,.19,4.09,.33,7.11,2.32,8.67,4.27,3.34,13.25-3.01,14.23-1.43,.66,1.06-2.86,4.89-6.91,7.27-2.15,1.27-7.25,4.27-12.27,2.89-6.5-1.79-5.91-8.67-10.89-10.75-8.28-3.46-16.35,13.11-37.34,21.61-12.57,5.09-23.85,4.88-30.92,4.75-16.06-.3-28.57-4.76-35.8-7.97-1.45,1.08-3.66,2.96-5.62,5.84-2.09,3.06-4.24,6.22-3.22,9.47,1.24,3.94,6.28,5.28,6.97,5.45-1.26,.06-6.23,.13-10.36-3.51-.49-.43-5.43-4.9-4.62-10.15,.43-2.81,2.14-3.46,3.53-6.26,1.29-2.62,2.18-6.9-.25-13.9-.81,.37-1.98,1.04-2.92,2.25-2.06,2.65-1.05,5.35-2.27,9.27-.86,2.77-2.34,4.55-3.54,5.99-3.49,4.21-7.94,6.08-10.62,6.91,5.49-5.33,7.79-13.01,5.9-20.05-2.09-7.84-8.48-11.59-9.79-12.33,1.39,1.63,6.16,7.64,5.29,15.25-1.09,9.63-10.77,18.14-23.69,18.97,3.48-3.4,7.76-8.65,6.85-14.13-.98-5.93-7.2-7.01-8.12-12.99-1.28-8.32,7.85-17.06,7.97-16.98,.12,.08-4.13,10.52-12.09,13.59-6.83,2.64-14.64-.82-20.51-4.49,1.24,0,6.63-.12,10.91-4.29,6.26-6.1,4.14-15.02,4.04-15.41-1.7,8.78-9.94,14.25-17.49,12.79-6.13-1.18-11.07-6.78-11.76-13.75Z"/>
        <g>
          <path class="cls-5" d="M102.19,243.04s3.02-1.04,6.49-1.04l-2.16-1.27s-3.95,1.11-4.33,2.31Z"/>
          <path class="cls-5" d="M80.39,209.92s1.54,3.87,11.95,5.98c0,0,6.47,1.82,6.94-10.96,0,0-8.93,2.12-20.21-6.15,0,0,.87,7.24,15.15,10.62,0,0,.89,.54,.13,1.18,0,0-7.53,2.29-13.96-.68Z"/>
          <ellipse class="cls-1" cx="105.92" cy="222.57" rx="12.55" ry="19.63" transform="translate(-33.89 19.57) rotate(-9.11)"/>
          <path class="cls-5" d="M208.87,189.51s-.25,4.16-9.48,9.42c0,0-5.58,3.76-10.02-8.24,0,0,9.15-.78,17.28-12.16,0,0,1.43,7.15-11.07,14.82,0,0-.67,.79,.24,1.16,0,0,7.87-.17,13.05-5.01Z"/>
          <path class="cls-5" d="M199.04,227.7s-3.19-.05-6.49,1.04l1.65-1.88s4.1-.18,4.84,.84Z"/>
          <ellipse class="cls-1" cx="188.58" cy="209.51" rx="12.55" ry="19.63" transform="translate(-30.78 32.48) rotate(-9.11)"/>
          <ellipse class="cls-3" cx="106.8" cy="226.41" rx="9.84" ry="15.7" transform="translate(-34.49 19.76) rotate(-9.11)"/>
          <ellipse class="cls-1" cx="99.09" cy="215.7" rx="2.49" ry="3.9" transform="translate(-32.89 18.4) rotate(-9.11)"/>
          <ellipse class="cls-3" cx="189.13" cy="213.4" rx="9.98" ry="15.7" transform="translate(-31.39 32.62) rotate(-9.11)"/>
          <ellipse class="cls-1" cx="182.1" cy="202.57" rx="2.49" ry="3.9" transform="translate(-29.76 31.37) rotate(-9.11)"/>
          <ellipse class="cls-6" cx="99.55" cy="256.16" rx="11.6" ry="3.06" transform="translate(-39.29 18.98) rotate(-9.11)"/>
          <ellipse class="cls-6" cx="207.99" cy="238.96" rx="11.6" ry="3.06" transform="translate(-35.2 35.93) rotate(-9.11)"/>
        </g>
        <g>
          <path class="cls-2" d="M155.85,256.16c1.08-.17,7.85-1.21,10,2.49,1.71,2.93-.57,6.98-1.28,8.23-1.79,3.17-4.46,4.76-5.75,5.41-1.75-.18-5.35-.81-8.67-3.49-1.67-1.35-4.28-3.46-4.12-6.03,.23-3.72,6.08-6.04,9.8-6.61Z"/>
          <path class="cls-2" d="M134.82,290.51c.41,.01,9.44,.16,16.48-3.38,5.32-2.67,5.68-5.53,5.72-6.02-.54-3.35-1.07-6.7-1.61-10.04,.06-.05,.85-.76,2.49-1.02,1.65-.27,2.63,.16,2.7,.19,.36,3.34,.72,6.68,1.07,10.02,.55,2.45,4.24,4.14,9.52,4.35,7.4,.28,13.78-2.51,14.23-2.72-.83,.5-4.85,2.84-11.03,3.69-6.14,.85-11.96-.1-14.76-2.42-.25,.31-4,4.78-13.29,6.74-5.6,1.18-10.07,.78-11.53,.62Z"/>
        </g>
        <path class="cls-2" d="M140.82,335.82c7.35,.16,16.64-.34,27.1-2.6,7.47-1.61,13.94-3.79,19.31-5.97-4.62,2.86-12.52,6.95-23.14,8.78-9.86,1.7-18.1,.78-23.28-.21Z"/>
        <path class="cls-2" d="M110.12,349.01c-.72-.29-1.75-.76-2.89-1.5-1.99-1.29-3.48-2.25-4.08-3.95-.84-2.36,.47-4.89,1.36-6.61,.46-.88,.93-1.57,1.3-2.05-2.91,1.37-4.62,4.37-4.26,7.36,.45,3.77,3.95,5.49,4.16,5.59-1.19-.4-4.71-1.74-7.31-5.41-2.71-3.82-2.72-7.74-2.67-8.98-.36,.77-.8,2-.83,3.52-.11,5.38,5.12,8.97,6.4,9.77,3.49,2.2,7.05,2.33,8.82,2.26Z"/>
        <path class="cls-2" d="M79.07,339.6c1.74-.51,4.31-1.5,6.96-3.47,2.18-1.62,3.68-3.35,4.65-4.67-1.19,1.34-2.89,2.98-5.22,4.45-1.32,.83-2.57,1.44-3.69,1.9,.84-.72,3.94-3.52,4.38-8.06,.2-2-.19-3.66-.55-4.75,0,1.35-.15,2.94-.59,4.68-1.27,5.03-4.26,8.33-5.96,9.93Z"/>
        <path class="cls-2" d="M56.78,341.44c1.38-1.09,5.72-4.77,6.56-10.81,.26-1.87,.13-3.54-.11-4.86,.48,.83,1.78,3.37,1.34,6.71-.55,4.21-3.46,6.6-4.08,7.08,2.34-.47,5.67-1.43,9.22-3.53,5.18-3.07,8.21-7.03,9.72-9.36-1,2.19-3.14,6.07-7.34,9.37-6.22,4.89-12.94,5.35-15.31,5.39Z"/>
        <path class="cls-2" d="M246.12,310.45c.56,.78-2.03,3.77-4.33,5.67-1.94,1.6-5.37,3.82-10.85,4.78,3.23-1.15,7.46-3.18,11.45-6.84,1.11-1.02,2.08-2.05,2.93-3.05-.56,.25-1.41,.64-2.46,1.08-2.85,1.21-4.3,1.82-5.28,1.91-.93,.09-2.98,.05-5.68-2.12,2.01,.92,3.58,.99,4.61,.9,1.79-.15,2.59-.84,5.99-1.79,2.23-.63,3.35-.93,3.62-.54Z"/>
        <path class="cls-2" d="M238.03,309.58c.88-1.88,1.77-3.95,2.6-6.22,.81-2.21,1.47-4.3,2-6.26,.15,1.14,.24,2.93-.25,5.03-.6,2.55-1.8,4.36-2.55,5.33,1.82-1.3,4.09-3.2,6.31-5.84,1.95-2.33,3.31-4.58,4.25-6.42-.48,1.69-1.3,3.81-2.72,6.02-3.14,4.88-7.41,7.3-9.63,8.36Z"/>
        <path class="cls-2" d="M259.77,296.14c-1.05-2.64-2.29-5.45-3.75-8.38-1.23-2.46-2.48-4.74-3.72-6.84,1.48,1.7,3.18,3.96,4.72,6.81,1.23,2.27,2.08,4.4,2.68,6.23,1.06-2.03,2.23-4.74,3.02-8.06,1.08-4.53,1.06-8.45,.82-11.18,.44,2.73,.8,7.03-.27,12.1-.84,4.01-2.29,7.16-3.5,9.31Z"/>
        <path class="cls-2" d="M279.94,286.75c-1.46,.42-3.53,.79-5.97,.53-.82-.09-1.56-.23-2.23-.41,1.58,.1,3.43,.03,5.43-.42,.39-.09,.77-.19,1.13-.29-.25-.22-.58-.58-.84-1.08-.32-.63-.35-1.14-.46-1.69-.11-.59-.34-1.41-.86-2.39,1.26,1.92,2.53,3.83,3.79,5.75Z"/>
        <path class="cls-2" d="M30.89,306.44c1.73-.07,4.97-.46,8.31-2.5,1.85-1.13,3.17-2.42,4.05-3.45-.15,.94-.54,2.48-1.7,3.94-2.71,3.44-7.2,3.33-7.78,3.31,1.52,1.03,4.01,2.45,7.37,3.27,3.53,.87,6.53,.71,8.39,.48-1.11,.35-2.35,.62-3.7,.73-7.4,.58-13.07-4.08-14.96-5.78Z"/>
        <path class="cls-2" d="M16.6,285.78c0,1.21,.18,4.41,2.35,7.62,2.15,3.2,5.03,4.57,6.15,5.03-1.47-1.1-3.64-3.03-5.35-6.03-.92-1.62-1.48-3.14-1.83-4.39,.86,.69,2.03,1.48,3.51,2.13,2.89,1.26,5.52,1.35,7.07,1.28-1.2-.33-2.48-.75-3.81-1.28-3.28-1.29-5.97-2.88-8.08-4.36Z"/>
        <path class="cls-2" d="M242.67,174.78c1.37,3.24,3.56,7.47,7.03,11.85,3.03,3.83,6.16,6.64,8.72,8.63-2.93-1.7-8.03-5.21-11.91-11.51-2.05-3.33-3.19-6.5-3.84-8.97Z"/>
      </g>
      <g>
        <g>
          <g>
            <path class="cls-4" d="M255.87,405.4c-2.05,7.12-5.96,13.4-5.96,13.4-5.04,8.11-11.03,12.88-13.98,15,3.98,7.07,7.11,15.32,4.76,21.82-6.72,18.61-56.84,18.81-66.5-2.43-2.54-5.58-3.7-15.62,.95-22.22,4.35-6.17,11.02-6.73,12.61-6.82-1.04-11.52-.69-27.72,5.91-44.95,5.6-14.63,12.79-22.37,14.57-24.23,6.84-7.14,13.28-13.87,20.78-13.53,18.04,.82,33.14,42.12,26.85,63.95Z"/>
            <path class="cls-2" d="M210.21,441.97c-.62,.34-6.61,3.81-7.71,11.98-1.01,7.46,2.84,12.94,3.4,13.71-4.17-3.81-6.05-10.04-4.76-15.67,1.14-5.01,4.63-8.84,9.08-10.01Z"/>
            <path class="cls-2" d="M200.27,435.98c-.73,.42-7.81,4.64-9.2,14.39-1.27,8.9,3.2,15.37,3.85,16.27-4.86-4.48-7.01-11.87-5.43-18.6,1.4-5.99,5.55-10.6,10.79-12.07Z"/>
            <path class="cls-2" d="M188.16,436.23c-.62,.34-6.61,3.81-7.71,11.98-1.01,7.46,2.84,12.94,3.4,13.71-4.17-3.81-6.05-10.04-4.76-15.67,1.14-5.01,4.63-8.84,9.08-10.01Z"/>
          </g>
          <path class="cls-2" d="M187.75,424.16c-1-10.25-.31-18.72,.53-24.56,1.89-13.12,5.85-22.08,8.43-27.78,0,0,4.84-9.61,11.53-16.85,1.57-1.7,3.58-3.69,3.58-3.69,1.34-1.33,2.49-2.42,3.32-3.19-1.53,1.93-3.7,4.73-6.16,8.2-6.4,9.02-11.06,15.58-14.5,24.04,0,0-5.83,14.34-6.62,41.83,0,.12-.09,2.06-.1,1.99Z"/>
        </g>
        <g>
          <g>
            <path class="cls-4" d="M77.57,402.95c4.79,21.32,18.65,34.58,24.81,39.81-3.81,7.71-6.43,16.53-2.7,22.92,10.66,18.27,70.96,12.55,79.62-10.35,2.28-6.02,2.29-16.44-4.22-22.65-6.09-5.8-14.18-5.6-16.1-5.5-.28-9.87-2.22-27.68-13.34-45.35-11.65-18.5-37.04-42.66-54.2-35.46-15.67,6.58-18.32,36.73-13.87,56.57Z"/>
            <path class="cls-2" d="M133.55,445.01c.79,.28,8.47,3.12,10.93,11.36,2.25,7.52-1.62,13.59-2.19,14.44,4.48-4.4,5.88-11,3.56-16.62-2.07-5-6.8-8.51-12.31-9.18Z"/>
            <path class="cls-2" d="M144.67,437.71c.94,.34,10.04,3.83,13.06,13.65,2.76,8.96-1.72,16.12-2.37,17.12,5.22-5.16,6.78-12.98,3.95-19.69-2.51-5.97-8.14-10.21-14.64-11.09Z"/>
            <path class="cls-2" d="M159.26,436.54c.79,.28,8.47,3.12,10.93,11.36,2.25,7.52-1.62,13.59-2.19,14.44,4.48-4.4,5.88-11,3.56-16.62-2.07-5-6.8-8.51-12.31-9.18Z"/>
          </g>
          <path class="cls-2" d="M158.98,427.18c.98-.12,1.32-12.24-2.31-24.6-1.29-4.41-2.76-7.74-3.73-9.91-3.51-7.86-7.44-13.54-10.26-17.54-4.64-6.61-9.76-10.46-16.2-15.89-.94-.79-6.25-5.46-6.49-5.21-.41,.43,16.71,12.19,27.36,31.16,11.98,21.34,10.35,42.16,11.63,42Z"/>
        </g>
      </g>
      <path class="cls-2" d="M87.68,381.35c-.39,4.88-.42,12.55,2.1,21.46,2.63,9.33,6.95,16.09,9.95,20.08-2.88-3.01-8.07-9.24-10.95-18.71-3.08-10.12-1.93-18.7-1.1-22.83Z"/>
      <path class="cls-2" d="M256.31,384.76c.39,4.88,.42,12.55-2.1,21.46-2.63,9.33-6.95,16.09-9.95,20.08,2.88-3.01,8.07-9.24,10.95-18.71,3.08-10.12,1.93-18.7,1.1-22.83Z"/>
    </g>
  </g>
</svg>