<?xml version="1.0" encoding="UTF-8"?>
<svg id="Layer_2" data-name="Layer 2" xmlns="http://www.w3.org/2000/svg" viewBox="0 0 509.66 484.75">
  <defs>
    <style>
      .cls-1 {
        fill: #fff;
      }

      .cls-2 {
        fill: #818385;
      }

      .cls-3 {
        fill: #231f20;
      }

      .cls-4, .cls-5 {
        fill: #5a5b5d;
      }

      .cls-6 {
        fill: #60c8d4;
      }

      .cls-5 {
        stroke: #818385;
        stroke-miterlimit: 10;
      }

      .cls-7 {
        fill: #f7b1c4;
        opacity: .57;
      }
    </style>
  </defs>
  <g id="dinosaurio">
    <path class="cls-5" d="M175.02,341.29c11.74,10.08,19.47,22.19,22.19,34.76,6.53,33.78-31.6,52.63-34.25,53.9,9.45,16.71,5.13,21.91,2.7,23.73-12.65,9.26-66.26-7.36-68.77-23.54-1.59-10.31,18.06-17.55,23.01-19.28-4.9-4.87-17.03-18.12-17.55-35.06-.95-30.32,36.2-43.78,38.63-44.64"/>
    <path class="cls-5" d="M215.86,269.39c-7.64,12.81-19.4,22.53-33.48,27.67-39.95,14.9-82.93-10.33-85.85-12.08-16.65,12.35-25.46,10.37-28.92,8.92-18.1-7.49-23.45-55.22-4.01-61.85,12.39-4.2,31.34,9.52,36.04,12.95,8.66-12.1,21.36-20.62,36-24.15,38.27-9.4,73.89,16.53,76.19,18.26"/>
    <path class="cls-4" d="M146.08,193.33c-8.14,13.07-2.86,20.29-15.55,46.23-12.81,26.19-23.65,30-32.65,50.17-9.84,22.04-10.61,47.51-6.03,62.2,22.54,72.28,198.65,82.23,295.24,58.33,11.23-2.78,35.77-9.71,61.48-27.77,39.93-28.06,68.11-72.73,59.55-82.98-11.44-13.69-74.8,50.48-132.76,28.31-30.88-11.81-48.06-43.89-54.67-56.13-24.05-44.6-6.08-66.86-26.3-89.61-32.87-36.98-124.25-27.38-148.31,11.26Z"/>
    <path class="cls-5" d="M277.36,251.33c-.64,10.67-5.58,20.89-14.18,29.31-23.62,22.43-64.15,18.23-66.92,17.91-7.6,13.58-14.74,14.91-17.77,14.96-16,.35-37.27-30.83-25.6-41.33,7.47-6.67,26.33-3.08,30.99-2.1,.81-4.81,3.8-17.44,17.45-27.59,24.43-18.15,59.86-11.2,62.17-10.72"/>
    <path class="cls-5" d="M279.68,357.93c11.74,10.08,19.47,22.19,22.19,34.76,6.53,33.78-31.6,52.63-34.25,53.9,9.45,16.71,5.13,21.91,2.7,23.73-12.65,9.26-66.26-7.36-68.77-23.54-1.59-10.31,18.06-17.55,23.01-19.28-4.9-4.87-17.03-18.12-17.55-35.06-.95-30.32,36.2-43.78,38.63-44.64"/>
    <path class="cls-4" d="M.39,121.56c-2.69,23.38,9.27,41.01,13.22,46.84,6.55,9.66,26.01,33.61,98.6,45.33,34.59,5.59,90.21,9.84,159.69-5.77,51.81-13.32,85.07-49.67,83.59-82.63-.07-1.57-1.81-31.28-22.67-46.47-13.23-9.63-20.63-3.57-32.6-14.02-14.34-12.51-8.61-25.48-25.25-42.02-3.93-3.91-11.82-11.75-23.37-14.23-25.06-5.37-46.96,18.92-49.13,21.39C187.63,10.62,166.23-.49,146.66,3.27c-16.83,3.23-28.02,16.62-32.66,22.18-15.01,17.97-8.51,27.19-19.55,37.94-19.06,18.56-45.64-1.93-71.4,16.62C3.95,93.77,.82,117.83,.39,121.56Z"/>
    <path class="cls-2" d="M173.47,218.81c18.55-1.26,38.01-3.09,58.28-5.65,16.15-2.04,31.68-4.4,46.54-6.98-14,3.4-29.57,6.46-46.55,8.72-21.31,2.84-40.91,3.88-58.27,3.92Z"/>
    <path class="cls-2" d="M133.68,232.66c-2.98,7.27-6.08,12.84-8.38,16.63-3.73,6.13-7.57,11.15-14.73,20.51-2.17,2.84-3.98,5.15-5.19,6.68,4.83-5.06,8.58-9.51,11.21-12.79,5.43-6.76,8.92-11.15,12.14-17.66,2.68-5.41,4.13-10.18,4.94-13.37Z"/>
    <path class="cls-2" d="M113.43,381.89c8.06,5.25,17.71,10.81,28.95,15.98,10.86,5,21.01,8.64,29.98,11.32-10.48-2.25-23.88-6.31-38.23-13.93-8.14-4.33-15.02-8.97-20.71-13.36Z"/>
    <path class="cls-2" d="M101.23,113.12c3.45-.4,8.74,.93,10.18,5.12,.89,3.31-.28,6.83-2.98,8.95-2.36,1.9-5.09,1.72-10.52,1.36s-9.43-.6-10.23-2.72c-.79-2.12,3.42-6.24,6.03-8.46,2-2.17,4.63-3.66,7.52-4.25Z"/>
    <path class="cls-2" d="M35.54,94.17c-3-1.76-8.37-2.68-11.38,.57-2.15,2.67-2.5,6.37-.89,9.39,1.39,2.69,3.96,3.62,9.08,5.5,5.12,1.87,8.87,3.26,10.46,1.64s-.61-7.09-2.1-10.18c-.95-2.79-2.76-5.21-5.16-6.92Z"/>
    <g>
      <path class="cls-6" d="M127.47,62.62s4.06-.08,8.27,1.28l-2.12-2.38s-5.21-.2-6.15,1.1Z"/>
      <path class="cls-6" d="M114.04,13.98s.34,5.29,12.13,11.92c0,0,7.12,4.74,12.69-10.55,0,0-11.64-.93-22.07-15.35,0,0-1.77,9.11,14.19,18.79,0,0,.86,1.01-.3,1.48,0,0-10.02-.17-16.64-6.29Z"/>
      <ellipse class="cls-1" cx="140" cy="39.29" rx="24.97" ry="15.97" transform="translate(79.75 171.62) rotate(-81.2)"/>
      <path class="cls-6" d="M271.16,28.63s-1.93,4.94-15.16,7.69c0,0-8.22,2.36-8.91-13.89,0,0,11.38,2.64,25.68-7.96,0,0-1.06,9.22-19.21,13.62,0,0-1.13,.7-.16,1.5,0,0,9.6,2.87,17.76-.96Z"/>
      <path class="cls-6" d="M244.31,71.03s-3.85-1.31-8.27-1.28l2.74-1.63s5.03,1.38,5.53,2.91Z"/>
      <ellipse class="cls-1" cx="238.77" cy="44.9" rx="24.97" ry="15.97" transform="translate(157.86 273.99) rotate(-81.2)"/>
      <ellipse class="cls-3" cx="139.56" cy="44.28" rx="19.97" ry="12.53" transform="translate(74.45 175.43) rotate(-81.2)"/>
      <ellipse class="cls-1" cx="134.42" cy="28.29" rx="4.96" ry="3.17" transform="translate(85.89 156.8) rotate(-81.2)"/>
      <ellipse class="cls-3" cx="237.91" cy="49.83" rx="19.97" ry="12.7" transform="translate(152.27 277.31) rotate(-81.2)"/>
      <ellipse class="cls-1" cx="233.63" cy="33.97" rx="4.96" ry="3.17" transform="translate(164.31 259.65) rotate(-81.2)"/>
      <ellipse class="cls-7" cx="284.29" cy="132.31" rx="15.41" ry="25.06" transform="translate(110.04 393) rotate(-81.2)"/>
    </g>
    <path class="cls-2" d="M40.39,231.86c4.19,4.18,8.38,8.37,12.58,12.55,3.13,.87,6.07,.04,7.2-2.01,1.19-2.16,.11-5.18-2.62-7.24-5.72-1.1-11.44-2.19-17.16-3.29Z"/>
    <path class="cls-2" d="M34.46,253.1c5.28,2.67,10.57,5.35,15.85,8.02,3.25-.14,5.78-1.85,6.22-4.15,.46-2.42-1.51-4.96-4.74-6.07-5.78,.73-11.55,1.47-17.33,2.2Z"/>
    <path class="cls-2" d="M36.85,274.37c5.88,.67,11.77,1.34,17.65,2.01,2.99-1.26,4.78-3.74,4.39-6.05-.41-2.43-3.14-4.12-6.55-4.05-5.16,2.7-10.32,5.39-15.48,8.09Z"/>
    <path class="cls-2" d="M44.06,295.08c5.75-1.4,11.51-2.79,17.26-4.19,2.38-2.22,3.2-5.16,2.04-7.19-1.22-2.14-4.36-2.79-7.55-1.54-3.92,4.31-7.84,8.62-11.75,12.93Z"/>
    <polygon class="cls-1" points="119.53 203.33 129.09 200.42 129.09 211.98 119.53 203.33"/>
    <polygon class="cls-1" points="132.26 199.75 141.7 196.45 142.16 208.01 132.26 199.75"/>
    <polygon class="cls-1" points="107.34 205.52 116.78 202.23 117.24 213.79 107.34 205.52"/>
    <polygon class="cls-1" points="145.42 193.97 154.86 190.68 155.32 202.23 145.42 193.97"/>
    <polygon class="cls-1" points="157.2 190.33 165.71 185.08 168.64 196.27 157.2 190.33"/>
    <polygon class="cls-1" points="169.94 183.06 178.45 177.82 181.39 189 169.94 183.06"/>
    <polygon class="cls-1" points="181.39 175.15 189.9 169.9 192.83 181.09 181.39 175.15"/>
    <path class="cls-2" d="M45.53,194.27c27.22,7.39,66.09,12.95,104.4-2.97,35.57-14.79,61.58-44.31,62.7-43.05,.77,.87-11.3,14.76-26.67,26.67-13.79,10.68-44.24,30.6-93.89,35.26-9.2-1.99-19.46-4.85-30.37-8.99-5.81-2.2-11.2-4.54-16.17-6.92Z"/>
    <path class="cls-2" d="M137.21,277.71c5.21,1.47,10.42,2.94,15.63,4.41,2.89-.7,4.86-2.67,4.85-4.81-.01-2.25-2.22-4.18-5.32-4.62-5.05,1.67-10.11,3.35-15.16,5.02Z"/>
    <path class="cls-2" d="M141.93,297.3c5.41-.22,10.82-.44,16.23-.66,2.53-1.56,3.79-4.05,3.12-6.08-.71-2.13-3.41-3.29-6.49-2.74-4.28,3.16-8.57,6.32-12.85,9.48Z"/>
    <path class="cls-2" d="M153.32,313.22c4.99-2.09,9.99-4.18,14.98-6.26,1.83-2.34,2.15-5.12,.81-6.79-1.41-1.75-4.34-1.89-7.03-.31-2.92,4.45-5.84,8.91-8.75,13.36Z"/>
    <path class="cls-2" d="M168.3,326.54c3.97-3.68,7.94-7.36,11.91-11.04,.91-2.83,.25-5.54-1.58-6.65-1.93-1.16-4.73-.28-6.71,2.13-1.21,5.19-2.41,10.37-3.62,15.56Z"/>
    <path class="cls-2" d="M89.15,441.74c5.25-1.32,10.5-2.63,15.75-3.95,2.16-2.04,2.89-4.74,1.81-6.59-1.13-1.94-4.01-2.52-6.91-1.36-3.55,3.97-7.1,7.93-10.66,11.9Z"/>
    <path class="cls-2" d="M106.07,453.31c4.58-2.88,9.16-5.77,13.75-8.65,1.42-2.61,1.27-5.4-.32-6.83-1.68-1.5-4.59-1.15-6.99,.85-2.14,4.87-4.29,9.75-6.43,14.62Z"/>
    <path class="cls-2" d="M128.61,464.53c3.29-4.3,6.59-8.59,9.88-12.89,.42-2.94-.68-5.51-2.68-6.29-2.09-.82-4.71,.52-6.26,3.23-.32,5.31-.63,10.63-.95,15.94Z"/>
    <path class="cls-2" d="M149.76,468.63c1.61-5.17,3.23-10.33,4.84-15.5-.62-2.91-2.54-4.94-4.68-4.98-2.25-.05-4.24,2.11-4.76,5.19,1.53,5.1,3.07,10.2,4.6,15.3Z"/>
    <path class="cls-2" d="M197.82,461.43c5.25-1.32,10.5-2.63,15.75-3.95,2.16-2.04,2.89-4.74,1.81-6.59-1.13-1.94-4.01-2.52-6.91-1.36-3.55,3.97-7.1,7.93-10.66,11.9Z"/>
    <path class="cls-2" d="M215.86,472.72c4.58-2.88,9.16-5.77,13.75-8.65,1.42-2.61,1.27-5.4-.32-6.83-1.68-1.5-4.59-1.15-6.99,.85-2.14,4.87-4.29,9.75-6.43,14.62Z"/>
    <path class="cls-2" d="M234.45,482.68c3.29-4.3,6.59-8.59,9.88-12.89,.42-2.94-.68-5.51-2.68-6.29-2.09-.82-4.71,.52-6.26,3.23-.32,5.31-.63,10.63-.95,15.94Z"/>
    <path class="cls-2" d="M261.83,484.75c1.61-5.17,3.23-10.33,4.84-15.5-.62-2.91-2.54-4.94-4.68-4.98-2.25-.05-4.24,2.11-4.76,5.19,1.53,5.1,3.07,10.2,4.6,15.3Z"/>
  </g>
</svg>