<?xml version="1.0" encoding="UTF-8"?>
<svg id="Layer_2" data-name="Layer 2" xmlns="http://www.w3.org/2000/svg" viewBox="0 0 502.68 446.09">
  <defs>
    <style>
      .cls-1 {
        fill: #fff;
      }

      .cls-2 {
        fill: #818285;
      }

      .cls-3 {
        fill: #231f20;
      }

      .cls-4 {
        fill: #464646;
      }

      .cls-5 {
        fill: #60c8d4;
      }

      .cls-6 {
        fill: #f7b1c4;
        opacity: .57;
      }
    </style>
  </defs>
  <g id="elefante">
    <g>
      <g>
        <path class="cls-4" d="M365.45,53.42c13.11-8.3,51.48-32.6,87.55-17.42,49.1,20.66,62.42,101.19,37.23,131.15-15.44,18.37-37.69,8.63-55.08,31.41-17.58,23.03-2.84,43.44-20.57,61.94-16.22,16.93-45.6,17.6-65.76,11.03-24.65-8.03-37.14-27.4-40.72-33.13-23.85-38.18-8.1-84.3-1.21-104.48,5.64-16.5,18.92-55.4,58.57-80.51Z"/>
        <path class="cls-6" d="M472.96,92.42c15.92,13.82,22.55,36.32,19.92,54.77-.74,5.22-1.37,9.57-4.34,14.43-9.15,14.92-25.04,9.23-43.42,22.48-2.28,1.64-24.14,17.84-25.28,40.07-.38,7.34,1.64,12.68-1.59,21.23-3.36,8.88-9.71,14.12-13.16,16.91-20.72,16.71-47.58,11.47-50.17,10.93-11.34-2.39-19.43-7.55-22.89-9.81,0,0-10.09-6.57-16.65-14.93-19.98-25.49,32.09-164.31,110.11-169.95,5.31-.38,29.08-2.1,47.48,13.87Z"/>
      </g>
      <g>
        <path class="cls-4" d="M151.87,37.16C140.9,26.19,108.79-5.94,70.27,.96,17.84,10.35-12.82,85.99,5.18,120.76c11.04,21.31,34.88,16.69,46.85,42.73,12.1,26.32-6.76,43.01,6.48,64.94,12.11,20.08,40.63,27.17,61.74,25.19,25.81-2.43,42.25-18.58,47-23.39,31.64-32.02,26.39-80.47,24.1-101.67-1.88-17.34-6.31-58.2-39.49-91.4Z"/>
        <path class="cls-6" d="M38.42,51.63c-18.57,9.99-29.97,30.49-31.45,49.07-.42,5.26-.77,9.64,1.07,15.03,5.66,16.57,22.41,14.49,37.43,31.46,1.86,2.1,19.64,22.7,15.87,44.64-1.24,7.24-4.38,12.01-3.1,21.07,1.33,9.4,6.37,15.91,9.13,19.39,16.55,20.85,43.91,21.63,46.55,21.66,11.59,.15,20.61-3.11,24.48-4.55,0,0,11.29-4.19,19.52-10.92,25.08-20.48,4.73-167.35-70.16-189.96-5.09-1.54-27.91-8.43-49.36,3.12Z"/>
      </g>
      <g>
        <g>
          <g>
            <g>
              <path class="cls-4" d="M235.08,238.97c32.68-.58,86.3,11.19,103.19,51.6,5.97,14.29,5.67,28.14,4.42,37.65,3.69,6.43,12.03,23.01,10.39,45.11-2.19,29.51-20.61,47.75-25.23,52.07-20.07-5.77-45.21-11.02-74.39-12.74-47.83-2.82-87.56,4.97-114.79,12.74-5.17-6.62-19.69-27-19.56-56.16,.08-18.47,6-32.64,9.92-40.28,.21-10.56,2.13-27.93,12.56-45.03,26.7-43.77,84.15-44.79,93.48-44.95Z"/>
              <g>
                <path class="cls-4" d="M329.44,427.74c-10.28-9.71-7.07-29.56-.65-69.26,3.39-20.97,6.38-27.48,12.32-31.87,10.39-7.69,24.82-4.34,33.73-2.27,9.09,2.11,23.35,5.42,29.51,16.96,1.67,3.12,4.63,10.31-3.57,36.44-9.93,31.64-14.89,47.46-30.09,54.38-12.43,5.66-30.86,5.44-41.25-4.37Z"/>
                <path class="cls-2" d="M388.86,411.59c-.12-.04,3.82-10.37,8.78-25.78,4.9-15.2,7.3-24.5,7.41-24.47,.13,.04-3.2,14.01-8.97,31-3.6,10.58-7.11,19.29-7.22,19.25Z"/>
                <path class="cls-2" d="M323.94,389.27c1.4-11.85,3.45-24.44,6.37-37.62,1.03-4.65,2.12-9.18,3.27-13.58-.39,1.08-.98,2.78-1.63,4.88-2.74,8.81-3.74,15.57-6.26,33.73-.78,5.61-1.4,10.08-1.74,12.59Z"/>
                <path class="cls-2" d="M381.97,326.56c-1.04-1.06-3.06-2.81-6.06-3.66-3.53-.99-6.55-.21-7.98,.27-2.36,6.97,.72,13.33,4.34,14.11,3.55,.76,8.83-3.6,9.7-10.72Z"/>
                <path class="cls-2" d="M400.4,336.17c-.67-1.29-2.06-3.51-4.64-5.27-3.02-2.07-6.07-2.41-7.56-2.47-4.2,5.32-3.13,11.96,.05,13.87,3.11,1.87,9.3-.16,12.14-6.13Z"/>
                <path class="cls-2" d="M361.12,322.16c-1.33-.6-3.81-1.48-6.93-1.24-3.65,.28-6.24,1.96-7.43,2.86,.09,6.92,5.1,11.53,8.78,11.02,3.6-.5,7.12-6.07,5.58-12.64Z"/>
              </g>
              <g>
                <path class="cls-4" d="M141.67,427.74c10.28-9.71,7.07-29.56,.65-69.26-3.39-20.97-6.38-27.48-12.32-31.87-10.39-7.69-24.82-4.34-33.73-2.27-9.09,2.11-23.35,5.42-29.51,16.96-1.67,3.12-4.63,10.31,3.57,36.44,9.93,31.64,14.89,47.46,30.09,54.38,12.43,5.66,30.86,5.44,41.25-4.37Z"/>
                <path class="cls-2" d="M82.25,411.59c.12-.04-3.82-10.37-8.78-25.78-4.9-15.2-7.3-24.5-7.41-24.47-.13,.04,3.2,14.01,8.97,31,3.6,10.58,7.11,19.29,7.22,19.25Z"/>
                <path class="cls-2" d="M147.17,389.27c-1.4-11.85-3.45-24.44-6.37-37.62-1.03-4.65-2.12-9.18-3.27-13.58,.39,1.08,.98,2.78,1.63,4.88,2.74,8.81,3.74,15.57,6.26,33.73,.78,5.61,1.4,10.08,1.74,12.59Z"/>
                <path class="cls-2" d="M89.15,326.56c1.04-1.06,3.06-2.81,6.06-3.66,3.53-.99,6.55-.21,7.98,.27,2.36,6.97-.72,13.33-4.34,14.11-3.55,.76-8.83-3.6-9.7-10.72Z"/>
                <path class="cls-2" d="M70.72,336.17c.67-1.29,2.06-3.51,4.64-5.27,3.02-2.07,6.07-2.41,7.56-2.47,4.2,5.32,3.13,11.96-.05,13.87-3.11,1.87-9.3-.16-12.14-6.13Z"/>
                <path class="cls-2" d="M110,322.16c1.33-.6,3.81-1.48,6.93-1.24,3.65,.28,6.24,1.96,7.43,2.86-.09,6.92-5.1,11.53-8.78,11.02-3.6-.5-7.12-6.07-5.58-12.64Z"/>
              </g>
            </g>
            <g>
              <path class="cls-4" d="M168.13,344.19c1.25-1.75,9.39-12.71,23.7-13.95,12.87-1.11,25.57,6.09,32.2,18.3,2.43,20.8,3.3,38.17,3.6,50.91,.51,21.69-.64,28.32-5.44,33.74-8.57,9.68-23.38,9.39-32.53,9.22-9.33-.18-23.96-.46-32.38-10.47-7.22-8.58-6.05-19.78-4.07-36.39,1.43-12.01,4.99-30.2,14.91-51.36Z"/>
              <path class="cls-2" d="M161.49,360.38c-2.71,8.61-5.26,18.52-7.14,29.58-1.34,7.92-2.16,15.36-2.62,22.2,.17-9.08,1.16-19.99,3.9-32.07,1.67-7.33,3.72-13.92,5.86-19.71Z"/>
              <path class="cls-2" d="M225.99,368.32c1.09,11.89,1.69,24.63,1.57,38.13-.04,4.76-.17,9.42-.38,13.96,.15-1.14,.38-2.92,.58-5.11,.85-9.19,.43-16.01-.87-34.3-.4-5.65-.73-10.15-.91-12.68Z"/>
              <path class="cls-2" d="M182.24,442.14c1.24,.67,3.57,1.73,6.69,1.9,3.66,.2,6.45-.94,7.75-1.57,.86-5.98-3.47-10.55-7.18-10.56-3.63,0-7.89,4.38-7.26,10.23Z"/>
              <path class="cls-2" d="M162.14,436.36c.95,1.04,2.82,2.8,5.71,3.97,3.4,1.38,6.4,1.21,7.84,1.03,2.76-5.37,.15-11.11-3.35-12.32-3.44-1.19-8.88,1.57-10.19,7.31Z"/>
              <path class="cls-2" d="M203.64,441.96c1.39,.21,3.95,.42,6.94-.49,3.51-1.06,5.74-3.08,6.75-4.12-1.22-5.92-6.85-8.75-10.34-7.49-3.42,1.23-5.93,6.8-3.35,12.09Z"/>
            </g>
            <g>
              <path class="cls-4" d="M301.29,346.23c-1.25-1.75-9.39-12.71-23.7-13.95-12.87-1.11-25.57,6.09-32.2,18.3-2.43,20.8-3.3,38.17-3.6,50.91-.51,21.69,.64,28.32,5.44,33.74,8.57,9.68,23.38,9.39,32.53,9.22,9.33-.18,23.96-.46,32.38-10.47,7.22-8.58,6.05-19.78,4.07-36.39-1.43-12.01-4.99-30.2-14.91-51.36Z"/>
              <path class="cls-2" d="M307.93,362.41c2.71,8.61,5.26,18.52,7.14,29.58,1.34,7.92,2.16,15.36,2.62,22.2-.17-9.08-1.16-19.99-3.9-32.07-1.67-7.33-3.72-13.92-5.86-19.71Z"/>
              <path class="cls-2" d="M243.43,370.36c-1.09,11.89-1.69,24.63-1.57,38.13,.04,4.76,.17,9.42,.38,13.96-.15-1.14-.38-2.92-.58-5.11-.85-9.19-.43-16.01,.87-34.3,.4-5.65,.73-10.15,.91-12.68Z"/>
              <path class="cls-2" d="M287.18,444.17c-1.24,.67-3.57,1.73-6.69,1.9-3.66,.2-6.45-.94-7.75-1.57-.86-5.98,3.47-10.55,7.18-10.56,3.63,0,7.89,4.38,7.26,10.23Z"/>
              <path class="cls-2" d="M307.28,438.39c-.95,1.04-2.82,2.8-5.71,3.97-3.4,1.38-6.4,1.21-7.84,1.03-2.76-5.37-.15-11.11,3.35-12.32,3.44-1.19,8.88,1.57,10.19,7.31Z"/>
              <path class="cls-2" d="M265.77,443.99c-1.39,.21-3.95,.42-6.94-.49-3.51-1.06-5.74-3.08-6.75-4.12,1.22-5.92,6.85-8.75,10.34-7.49,3.42,1.23,5.93,6.8,3.35,12.09Z"/>
            </g>
          </g>
          <g>
            <g>
              <path class="cls-4" d="M233.6,45.26c-11.78,1.15-58.9,7-93.39,43.36-3.14,3.31-52.35,57.05-25.83,120.18,27.92,66.46,111.72,76.53,117.47,77.13,11.27,1.18,75.45,6.67,117.67-36.76,38.3-39.41,29.4-89.13,27.86-97.69-8.6-47.98-48.4-85.3-65.84-92.16-2.79-1.1-12.14-4.22-19.09-12.42-5.06-5.97-4.78-9.84-8.25-14.51-4.06-5.46-12.69-11.28-32.86-12.67,.82,.21,14.12,3.8,16.54,13.63,1.59,6.45-1.82,14.31-5.55,14.64-3.13,.27-7.03-4.73-8.14-9.34-1.23-5.11,1.28-8.46,.11-9.24-1.29-.86-6.17,1.91-20.7,15.85Z"/>
              <path class="cls-2" d="M196.91,277.94c11.91,3.03,26.29,5.74,42.7,6.94,13.27,.97,25.29,.76,35.73,0-11.02,1.78-25.99,3.03-43.48,1.05-13.98-1.58-25.79-4.78-34.94-7.99Z"/>
            </g>
            <path class="cls-2" d="M340.16,81.31c3.52,4.04,7.13,8.46,10.77,13.27,3.99,5.28,7.54,10.41,10.69,15.31-2.33-4.74-5.58-10.35-10.09-16.21-3.9-5.07-7.85-9.15-11.37-12.36Z"/>
            <path class="cls-2" d="M141.44,87.35c3.21-2.98,6.7-6.03,10.47-9.1,4.92-4,9.72-7.54,14.3-10.67-4.13,2.27-8.92,5.3-13.89,9.34-4.42,3.59-8.01,7.19-10.88,10.42Z"/>
          </g>
        </g>
        <g>
          <path class="cls-5" d="M190.58,169.28s4.31-.26,8.84,1.01l-2.35-2.44s-5.55,0-6.49,1.43Z"/>
          <path class="cls-5" d="M174.25,118.15s.59,5.61,13.39,12.16c0,0,7.77,4.74,13.05-11.75,0,0-12.42-.5-24.11-15.38,0,0-1.5,9.76,15.88,19.37,0,0,.96,1.03-.26,1.59,0,0-10.65,.24-17.95-5.98Z"/>
          <ellipse class="cls-1" cx="202.91" cy="143.96" rx="26.56" ry="16.98" transform="translate(36.83 329.19) rotate(-83.48)"/>
          <path class="cls-5" d="M318.99,134.71s-1.84,5.33-15.79,8.82c0,0-8.64,2.86-10.06-14.39,0,0,12.21,2.32,26.96-9.54,0,0-.74,9.85-19.84,15.28,0,0-1.17,.79-.11,1.6,0,0,10.32,2.64,18.83-1.77Z"/>
          <path class="cls-5" d="M292.24,180.91s-4.14-1.23-8.84-1.01l2.84-1.84s5.41,1.26,6,2.85Z"/>
          <ellipse class="cls-1" cx="285.24" cy="153.37" rx="26.56" ry="16.98" transform="translate(100.45 419.34) rotate(-83.48)"/>
          <ellipse class="cls-3" cx="202.66" cy="149.28" rx="21.25" ry="13.32" transform="translate(31.32 333.66) rotate(-83.48)"/>
          <ellipse class="cls-1" cx="196.52" cy="132.5" rx="5.28" ry="3.37" transform="translate(42.54 312.69) rotate(-83.48)"/>
          <ellipse class="cls-3" cx="284.54" cy="158.65" rx="21.25" ry="13.51" transform="translate(94.59 423.32) rotate(-83.48)"/>
          <ellipse class="cls-1" cx="279.32" cy="141.98" rx="5.28" ry="3.37" transform="translate(106.53 403.36) rotate(-83.48)"/>
          <ellipse class="cls-6" cx="182.36" cy="185.42" rx="4.14" ry="15.7" transform="translate(-22.58 345.53) rotate(-83.48)"/>
          <ellipse class="cls-6" cx="299.8" cy="198.85" rx="4.14" ry="15.7" transform="translate(68.17 474.11) rotate(-83.48)"/>
        </g>
        <g>
          <path class="cls-4" d="M201.93,197.86c2.74-1.89,19.98-13.37,42.09-8.07,26.05,6.25,35.85,30.29,36.71,32.49-12.02,22.54-12.55,40.42-11.98,49.51,.79,12.55,4.16,16.24,6.31,17.86,6.33,4.76,12.61-.48,24.52,2.75,1.87,.51,13.84,3.95,20.99,15.25,1.71,2.7,9.72,15.36,3.48,28.2-4.49,9.23-14.7,15.17-24.6,14.36-1.22-.1-11.28-1.06-16.09-8.91-3.36-5.48-3.66-13.48-1.1-14.92,.9-.51,2.33-.3,3.28,.16,2.14,1.04,2.02,3.51,3.42,3.64,1.46,.14,1.96-2.28,4.29-2.58,1.51-.19,2.73,.65,2.96,.8,2.19,1.5,1.9,4.42,2.59,4.45,.85,.04,2.92-4.24,1.48-7.69-1.29-3.09-5.18-4.99-9.75-4.78-34.01,8.38-69.55-5.41-88.32-34.02-17.37-26.47-17.49-61.21-.27-88.52Z"/>
          <path class="cls-2" d="M209.54,222.87c7.23,.19,16.27,1.07,26.38,3.64,7.79,1.98,14.48,4.52,19.96,7.01-3.15-3.01-9.16-7.93-18.09-10.75-12.96-4.09-24.03-1.23-28.25,.11Z"/>
          <path class="cls-2" d="M209.12,243.19c6.29-.85,14.23-1.26,23.29-.16,6.99,.85,13.08,2.41,18.13,4.09-3.08-2.53-8.87-6.54-16.95-8.06-11.71-2.2-20.97,2.21-24.47,4.13Z"/>
          <path class="cls-2" d="M212.91,264.49c5.32-1.75,12.14-3.31,20.17-3.53,6.19-.18,11.72,.48,16.36,1.41-3.07-2.05-8.72-5.17-15.97-5.5-10.5-.47-17.83,5.23-20.57,7.63Z"/>
          <path class="cls-2" d="M207.9,294.02c4.52,4.4,10.34,9.38,17.57,14.2,6.98,4.65,13.59,8.03,19.24,10.48-5.38-1.67-12.82-4.62-20.68-9.97-7.4-5.04-12.65-10.5-16.13-14.71Z"/>
          <path class="cls-2" d="M270.73,283.16c.47,1.32,1.38,3.32,3.18,5.23,.93,.99,1.87,1.71,2.68,2.23-.86-.35-4.57-1.97-5.59-5.59-.15-.52-.26-1.14-.26-1.87Z"/>
          <path class="cls-2" d="M277.4,229.04c-2.17,4.62-4.45,10.49-6.16,17.48-1.81,7.43-2.47,14.07-2.62,19.39-.69-4.2-1.34-11.55,.9-20.22,2-7.73,5.47-13.34,7.88-16.64Z"/>
          <path class="cls-2" d="M280.83,328.78c.09-.23,.63-1.57,2.08-2.12,1.27-.48,2.75-.17,3.81,.8-1.23-1.47-3.16-1.84-4.45-1.06-1.19,.72-1.4,2.15-1.43,2.38Z"/>
          <path class="cls-2" d="M290.89,328.96c.22-.17,1.69-1.31,3.67-.94,2.38,.44,3.31,2.65,3.38,2.8-.53-1.8-2.04-3.07-3.74-3.2-1.85-.14-3.11,1.14-3.3,1.33Z"/>
          <path class="cls-2" d="M284.65,343.12c1.75,1.61,4.65,3.87,8.76,5.45,2.87,1.1,5.46,1.55,7.42,1.72-2.25-.01-6.58-.36-11.06-2.99-2.3-1.35-3.98-2.91-5.12-4.19Z"/>
          <path class="cls-2" d="M307.13,295.46c2.14,1.58,4.42,3.4,6.76,5.51,2.55,2.3,4.77,4.56,6.68,6.69-1.34-1.99-3.28-4.48-6.02-6.95-2.7-2.44-5.33-4.12-7.42-5.25Z"/>
          <path class="cls-2" d="M194.37,213.12c-2.07,7.92-4.08,19.13-3.58,32.59,.42,11.32,2.5,20.82,4.61,27.91-2.65-5.76-6.07-15.11-6.77-27.06-.88-15.2,3.09-27.1,5.73-33.44Z"/>
          <path class="cls-2" d="M326.29,323.33c.19,2.26,.3,7.16-2.24,12.53-3.08,6.52-8.17,9.75-10.1,10.84,1.9-.91,6.13-3.26,9.23-8.19,4.15-6.62,3.39-13.32,3.11-15.19Z"/>
          <path class="cls-2" d="M262.63,322.45c4.6-.05,9.48-.24,14.61-.63,4.67-.36,9.1-.84,13.28-1.42-3.67,.95-8.1,1.8-13.14,2.22-5.65,.47-10.65,.26-14.75-.17Z"/>
        </g>
      </g>
    </g>
  </g>
</svg>