<?xml version="1.0" encoding="UTF-8"?>
<svg id="Layer_2" data-name="Layer 2" xmlns="http://www.w3.org/2000/svg" viewBox="0 0 442.46 496.31">
  <defs>
    <style>
      .cls-1 {
        fill: #fff;
      }

      .cls-2 {
        fill: #818285;
      }

      .cls-3 {
        fill: #231f20;
      }

      .cls-4 {
        fill: #464647;
      }

      .cls-5 {
        fill: #464646;
      }

      .cls-6 {
        fill: #60c8d4;
      }

      .cls-7 {
        fill: #f7b1c4;
        opacity: .57;
      }
    </style>
  </defs>
  <g id="hipopotamo">
    <g>
      <g>
        <path class="cls-4" d="M158.11,285.77c-12.7-23.42-49.87-21.92-81.49-20.65-29.64,1.19-49.44,1.99-62.43,17.95-12.84,15.78-15.5,42.04-3.55,58.15,9.2,12.4,23.84,14.45,42.31,16.75,21.49,2.68,78.94,9.84,100.93-24.86,8.23-12.99,12.11-32.81,4.23-47.35Z"/>
        <path class="cls-1" d="M5.65,299.09c-.85,.63-4.48,3.46-5.43,8.65-1.11,6.06,2.31,10.52,2.85,11.2,6.57-.18,11.3-5.58,10.9-10.89-.31-4.1-3.66-7.83-8.31-8.96Z"/>
        <path class="cls-1" d="M3.42,321.79c-.49,1.26-1.91,5.34-.44,10.21,1.82,5.99,6.68,8.71,7.65,9.22,6.12-3.73,7.58-11.28,4.44-15.77-2.31-3.3-7.02-4.82-11.66-3.66Z"/>
        <path class="cls-1" d="M18.82,278.17c-1.31,.36-5.41,1.64-8.48,5.7-3.54,4.68-3.22,9.75-3.11,10.96,6.57,3.12,13.72,0,15.55-5.1,1.34-3.75-.21-8.5-3.95-11.56Z"/>
      </g>
      <g>
        <path class="cls-4" d="M309.14,353.31c21.83,15.27,54.41-2.66,82.13-17.92,25.99-14.31,43.35-23.86,47.84-43.95,4.44-19.85-4.91-44.54-22.8-53.61-13.77-6.98-27.78-2.28-45.34,3.91-20.43,7.2-75.02,26.45-79.2,67.33-1.56,15.3,3.82,34.77,17.37,44.25Z"/>
        <path class="cls-1" d="M439.59,273.29c.48-.94,2.46-5.1,1-10.17-1.71-5.92-6.77-8.38-7.55-8.74-5.79,3.1-7.62,10.04-4.89,14.61,2.11,3.53,6.78,5.37,11.44,4.3Z"/>
        <path class="cls-1" d="M431.44,251.98c-.12-1.35-.67-5.63-4.17-9.33-4.31-4.55-9.86-4.81-10.97-4.83-3.81,6.07-1.75,13.48,3.07,16.09,3.54,1.92,8.43,1.17,12.07-1.93Z"/>
        <path class="cls-1" d="M437.15,297.89c1.02-.91,4.11-3.89,5.04-8.88,1.08-5.76-1.47-10.16-2.11-11.2-7.27,.14-12.28,6.13-11.64,11.5,.47,3.95,3.98,7.51,8.7,8.58Z"/>
      </g>
      <path class="cls-5" d="M215.8,207.84c101.15-3.8,190.3,145.79,149.07,211.79-43.1,69.01-241.38,67.01-283.43-13.4-36.13-69.1,43.68-194.99,134.36-198.39Z"/>
      <g>
        <g>
          <path class="cls-5" d="M287.39,11.98c8.38-12.92,25.95-15.64,37.11-6.94,10.31,8.04,12.66,23.89,4.3,35.33-13.99,20.42-37.03,23.45-45.97,15.74-8.25-7.12-9.04-27.36,4.56-44.13Z"/>
          <path class="cls-7" d="M293.62,18.23c5.47-8.44,16.95-10.21,24.23-4.53,6.73,5.25,8.27,15.6,2.81,23.07-9.14,13.33-24.18,15.31-30.02,10.28-5.39-4.65-5.9-17.87,2.98-28.82Z"/>
        </g>
        <g>
          <path class="cls-5" d="M159.43,11.98c-8.38-12.92-25.95-15.64-37.11-6.94-10.31,8.04-12.66,23.89-4.3,35.33,13.99,20.42,37.03,23.45,45.97,15.74,8.25-7.12,9.04-27.36-4.56-44.13Z"/>
          <path class="cls-7" d="M153.2,18.23c-5.47-8.44-16.95-10.21-24.23-4.53-6.73,5.25-8.27,15.6-2.81,23.07,9.14,13.33,24.18,15.31,30.02,10.28,5.39-4.65,5.9-17.87-2.98-28.82Z"/>
        </g>
        <g>
          <path class="cls-1" d="M287.72,265.65c1.17-1.44,6.83-8.1,16.48-9.11,13.1-1.37,21.54,8.92,22.12,9.65,.77,11.51-5.05,21.42-13.65,24.46-7.1,2.52-13.51-.57-14.19-.92-7.84-3.93-12.35-13.59-10.76-24.09Z"/>
          <path class="cls-1" d="M116.83,263.27c1.17-1.44,6.83-8.1,16.48-9.11,13.1-1.37,21.54,8.92,22.12,9.65,.77,11.51-5.05,21.42-13.65,24.46-7.1,2.52-13.51-.57-14.19-.92-7.84-3.93-12.35-13.59-10.76-24.09Z"/>
          <path class="cls-5" d="M103.52,132.53C99.04,62.62,152.32,3.89,215.53,.19c67.8-3.97,130.53,56.31,126.54,131.6,4.32,1.86,33,14.74,41.55,45.35,8.81,31.51-8.92,63.12-32.72,78.79-33.89,22.32-71.73,6.85-74.86,5.51-5.63,28.92-31.68,48.89-59.36,46.98-24.75-1.71-46.1-20.6-51.29-46.22-2.77,1.04-39.42,14.14-70.8-8.95-23.58-17.35-35.56-48.79-27.22-77.52,7.99-27.55,31.15-40.54,36.15-43.2Z"/>
          <g>
            <path class="cls-2" d="M176.66,270.27c.56-16.64,27.01-30.27,48.96-28.67,18.98,1.38,41.08,14.62,40.96,29.96-.13,16.65-26.41,31.33-48.76,29.77-19.53-1.36-41.68-15.52-41.16-31.05Z"/>
            <path class="cls-7" d="M195.32,286.44c-.87-4.89,4.9-12.59,11.78-11.64,5.87,.8,9.11,7.41,9.36,7.93,1.33-1.39,5.17-5.01,10.93-5.11,7.98-.14,16.41,6.52,16.17,11.02-.31,5.7-14.57,8.76-25.44,7.98-7.18-.52-21.59-3.34-22.8-10.17Z"/>
          </g>
          <path class="cls-2" d="M111.47,197.07c6.27,10.29,19.72,18.55,26.05,14.55,5.85-3.7,4.59-17.26,.17-26.14-6.09-12.25-21.1-21.46-27.6-17.39-6.04,3.78-4.7,18.99,1.39,28.98Z"/>
          <path class="cls-2" d="M338.67,197.07c-6.27,10.29-19.72,18.55-26.05,14.55-5.85-3.7-4.59-17.26-.17-26.14,6.09-12.25,21.1-21.46,27.6-17.39,6.04,3.78,4.7,18.99-1.39,28.98Z"/>
          <g>
            <path class="cls-6" d="M164.97,124.31s4.83-.85,10.1,0l-2.97-2.45s-6.26,.72-7.14,2.45Z"/>
            <path class="cls-6" d="M139.95,68.74s1.39,6.25,16.67,11.99c0,0,9.38,4.34,13.2-14.94,0,0-14.07,1.04-29.18-14.24,0,0-.43,11.2,20.41,19.8,0,0,1.22,1.04-.09,1.82,0,0-11.99,1.65-21.02-4.43Z"/>
            <ellipse class="cls-1" cx="175.61" cy="94.15" rx="19.28" ry="30.16"/>
            <ellipse class="cls-3" cx="176.01" cy="100.19" rx="15.13" ry="24.12"/>
            <ellipse class="cls-1" cx="166.92" cy="82.05" rx="3.83" ry="5.99"/>
          </g>
          <g>
            <path class="cls-6" d="M305.36,68.74s-1.39,6.25-16.67,11.99c0,0-9.38,4.34-13.2-14.94,0,0,14.07,1.04,29.18-14.24,0,0,.43,11.2-20.41,19.8,0,0-1.22,1.04,.09,1.82,0,0,11.99,1.65,21.02-4.43Z"/>
            <path class="cls-6" d="M281.15,124.31s-4.83-.85-10.1,0l2.97-2.45s6.26,.72,7.14,2.45Z"/>
            <ellipse class="cls-1" cx="269.7" cy="94.15" rx="19.28" ry="30.16"/>
            <ellipse class="cls-3" cx="269.59" cy="100.19" rx="15.34" ry="24.12"/>
            <ellipse class="cls-1" cx="261.55" cy="82.05" rx="3.83" ry="5.99"/>
          </g>
          <path class="cls-2" d="M191.14,139.8c6.36-2.64,17.37-6.27,31.46-6.28,14.19-.02,25.27,3.64,31.64,6.28-2.66-2.44-13.69-12-30.69-12.32-18.1-.33-29.94,10.05-32.42,12.32Z"/>
          <path class="cls-2" d="M103.91,132.37c3.8-.58,8.41-.96,13.63-.7,8.14,.4,14.86,2.19,19.71,3.91-3.87-1.82-10.25-4.22-18.44-4.67-6.14-.33-11.28,.54-14.89,1.46Z"/>
          <path class="cls-2" d="M342.99,131.98c-3.8-.58-8.41-.96-13.63-.7-8.14,.4-14.86,2.19-19.71,3.91,3.87-1.82,10.25-4.22,18.44-4.67,6.14-.33,11.28,.54,14.89,1.46Z"/>
        </g>
      </g>
      <path class="cls-2" d="M191.19,299.95c5.57,2.66,16.1,6.78,29.84,6.75,11.62-.03,20.76-3.02,26.18-5.26-4.27,2.43-13.99,7.2-27.17,7.11-14.4-.1-24.73-5.95-28.85-8.59Z"/>
      <g>
        <path class="cls-5" d="M275.4,383.89c15.53-29.57,56.99-42.61,93-21.32,33.74,19.17,46.27,63.22,31.45,95.21-15.84,34.18-56.37,40.51-83.57,28.76-35.64-15.4-59.74-66.74-40.89-102.65Z"/>
        <g>
          <path class="cls-5" d="M352.52,363.83c32.05,.61,55.68,34.85,56.16,66.05,.45,28.73-18.63,62.1-48.97,66.05-33.01,4.29-63.45-28.29-65.6-62-2.19-34.33,24.9-70.73,58.41-70.09Z"/>
          <path class="cls-1" d="M342.69,364.71c1.99-1.04,9.28-4.56,18.5-2.51,7.58,1.69,12.23,6.21,13.91,8.02-.98,10.44-10.88,17.42-20.07,15.43-8.69-1.88-14.77-11.35-12.34-20.94Z"/>
          <path class="cls-1" d="M307.28,389.66c.42-2.1,2.33-10.35,10.14-16.2,6.23-4.67,12.72-5.2,15.16-5.27,7.18,7.54,6.05,19.53-1.46,25.27-7.04,5.38-18,4-23.84-3.8Z"/>
          <path class="cls-1" d="M382.91,375.8c1.92,.46,9.99,2.61,15.38,10.57,4.67,6.89,4.49,13.92,4.34,16.13-7.65,6.45-19.2,4.85-24.66-2.9-5.3-7.52-3.24-18.56,4.93-23.8Z"/>
          <path class="cls-2" d="M299.19,404.14c-2.15,7.13-5.32,21.14-2.12,38.3,2.58,13.81,8.23,23.97,12.12,29.83-3.61-3.87-13.02-14.98-15.61-32.39-2.61-17.55,3.28-31,5.61-35.74Z"/>
        </g>
      </g>
      <g>
        <path class="cls-5" d="M147.95,380.75c-15.53-29.57-56.99-42.61-93-21.32-33.74,19.17-46.27,63.22-31.45,95.21,15.84,34.18,56.37,40.51,83.57,28.76,35.64-15.4,59.74-66.74,40.89-102.65Z"/>
        <g>
          <path class="cls-5" d="M70.83,360.69c-32.05,.61-55.68,34.85-56.16,66.05-.45,28.73,18.63,62.1,48.97,66.05,33.01,4.29,63.45-28.29,65.6-62,2.19-34.33-24.9-70.73-58.41-70.09Z"/>
          <path class="cls-1" d="M80.67,361.57c-1.99-1.04-9.28-4.56-18.5-2.51-7.58,1.69-12.23,6.21-13.91,8.02,.98,10.44,10.88,17.42,20.07,15.43,8.69-1.88,14.77-11.35,12.34-20.94Z"/>
          <path class="cls-1" d="M116.07,386.51c-.42-2.1-2.33-10.35-10.14-16.2-6.23-4.67-12.72-5.2-15.16-5.27-7.18,7.54-6.05,19.53,1.46,25.27,7.04,5.38,18,4,23.84-3.8Z"/>
          <path class="cls-1" d="M40.44,372.66c-1.92,.46-9.99,2.61-15.38,10.57-4.67,6.89-4.49,13.92-4.34,16.13,7.65,6.45,19.2,4.85,24.66-2.9,5.3-7.52,3.24-18.56-4.93-23.8Z"/>
          <path class="cls-2" d="M124.17,400.99c2.15,7.13,5.32,21.14,2.12,38.3-2.58,13.81-8.23,23.97-12.12,29.83,3.61-3.87,13.02-14.98,15.61-32.39,2.61-17.55-3.28-31-5.61-35.74Z"/>
        </g>
      </g>
      <path class="cls-2" d="M102.94,279.63c-5.63,5.75-13.9,15.62-19.98,29.94-5.48,12.88-7.09,24.43-7.56,32.11,1.79-9.87,5.19-22.77,11.95-36.8,4.99-10.34,10.57-18.74,15.59-25.25Z"/>
      <path class="cls-2" d="M338.6,280.13c4.75,6.09,9.83,13.45,14.65,22.13,6.56,11.83,10.86,22.92,13.74,32.19-4.48-9.76-9.45-19.88-14.95-30.28-4.45-8.42-8.95-16.43-13.43-24.04Z"/>
      <path class="cls-2" d="M7.21,292.31c.08-1.4,.43-4.25,2.26-7.22,1.6-2.59,3.59-4.1,4.74-4.84-1.08,.53-3.16,1.75-4.81,4.14-2.3,3.33-2.26,6.78-2.19,7.92Z"/>
      <path class="cls-2" d="M2.27,315.5c-.5-1.31-1.33-4.06-.85-7.52,.41-3.02,1.63-5.2,2.38-6.35-.77,.92-2.18,2.87-2.72,5.73-.75,3.98,.67,7.11,1.2,8.13Z"/>
      <path class="cls-2" d="M7.14,338.95c-1.01-.97-2.94-3.1-4-6.42-.92-2.9-.76-5.4-.57-6.76-.3,1.16-.74,3.53,0,6.35,1.03,3.91,3.66,6.13,4.57,6.83Z"/>
      <path class="cls-2" d="M23.33,393.54c.04-1.88,.42-5.71,3.08-9.8,2.32-3.57,5.31-5.71,7.04-6.79-1.63,.78-4.77,2.54-7.18,5.85-3.35,4.6-3.1,9.21-2.94,10.74Z"/>
      <path class="cls-2" d="M383.26,376.03c2.36,.7,7.08,2.41,11.46,6.53,3.81,3.59,5.63,7.38,6.46,9.51-.5-1.93-1.78-5.72-5.24-9.32-4.81-5-10.7-6.35-12.68-6.72Z"/>
      <path class="cls-2" d="M436.45,256.02c.95,1.04,2.74,3.27,3.59,6.66,.74,2.95,.42,5.44,.15,6.78,.37-1.14,.96-3.48,.4-6.33-.78-3.97-3.27-6.35-4.13-7.11Z"/>
      <path class="cls-2" d="M420.34,237.95c1.38,.25,4.16,.95,6.88,3.13,2.37,1.91,3.62,4.07,4.22,5.31-.39-1.13-1.34-3.35-3.51-5.28-3.02-2.69-6.44-3.08-7.59-3.16Z"/>
      <path class="cls-2" d="M440.96,281.76c.4,1.35,1.03,4.14,.31,7.56-.63,2.98-2,5.07-2.83,6.16,.83-.86,2.38-2.71,3.13-5.52,1.04-3.91-.16-7.14-.61-8.2Z"/>
    </g>
  </g>
</svg>