<?xml version="1.0" encoding="UTF-8"?>
<svg id="Layer_2" data-name="Layer 2" xmlns="http://www.w3.org/2000/svg" viewBox="0 0 509.42 434.67">
  <defs>
    <style>
      .cls-1 {
        fill: #fff;
      }

      .cls-2 {
        fill: #818385;
      }

      .cls-3 {
        fill: #818285;
      }

      .cls-4 {
        fill: #231f20;
      }

      .cls-5 {
        fill: #595a5c;
      }

      .cls-6 {
        fill: #60c8d4;
      }

      .cls-7 {
        fill: #f7b1c4;
        opacity: .57;
      }
    </style>
  </defs>
  <g id="iguana">
    <g>
      <g>
        <path class="cls-5" d="M52.86,149.75c15.93-18.97,33.16-29.01,37.7-31.56,30.91-17.37,50.07-11.56,101.69-21.04,18.45-3.39,30.13-6.73,38.53-9.65,7.93-2.76,11.08-3.96,23.44-8.4,24.29-8.74,36.44-13.11,39.16-13.2,31.96-1.11,62.33,40.59,82.98,68.95,.54,.74,.8,1.1,1.2,1.67,7.66,10.75,39.01,57.59,19.84,92.14-6.37,11.48-18.51,21.96-32.44,26.3-15.29,4.77-25.18-.22-42.96-1.75-26.35-2.27-44.08,5.31-62.24,10.52-14.2,4.08-201.24,57.76-238.45,4.38-20.33-29.15,5.82-87.69,31.56-118.35Z"/>
        <path class="cls-3" d="M87.92,111.58c4.2,1.35,7.57,2.7,9.8,3.64-7.16,4.5-14.32,9-21.48,13.49-.44-2.45-1.35-6.08-3.47-9.96-3.76-6.89-8.28-9.02-7.54-10.61,1.27-2.73,15.7,1.18,22.7,3.43Z"/>
        <path class="cls-3" d="M121.22,83.25c7.51,3.87,12.87,8.31,15.28,10.4,4.07,3.54,7.12,6.92,9.26,9.52-10.1,1.53-20.2,3.07-30.3,4.6,1.29-2.58,3.06-7.18,1.38-11.58-.85-2.23-2.44-3.36-3.75-4.92-7.2-8.58-13.54-11.73-13.41-13.41,.16-2.18,10.94-.08,21.55,5.4Z"/>
        <path class="cls-3" d="M182.58,71.37c10.03,8.48,16.45,17.62,20.41,24.38-11.67,1.85-23.34,3.71-35,5.56,.21-9.01-.97-20.94-7.39-32.66-3.87-7.06-8.06-11.17-6.89-12.61,1.95-2.4,17.19,5.45,28.86,15.32Z"/>
        <path class="cls-3" d="M227.66,41.48c5.39,2.77,8.89,6.13,11.28,8.58,5.38,5.5,13.17,14.56,20.97,28.16-11.44,4.06-22.88,8.12-34.32,12.17,.49-16.41-3.52-27.63-7.85-35.24-4.96-8.72-11.13-14.05-9.32-16.81,2.02-3.06,12.26-.44,19.23,3.13Z"/>
        <path class="cls-3" d="M10.54,228.26c2.28-1.4,4.25-2.41,5.57-3.06-.59,5.33-1.18,10.66-1.77,15.99-1.36-.85-3.48-1.99-6.19-2.66-4.81-1.2-7.6,.02-8.09-1.02-.84-1.78,6.66-6.91,10.47-9.25Z"/>
        <path class="cls-3" d="M17.41,196.39c3.26-.57,5.99-.79,7.81-.87-2.68,7.49-5.35,14.99-8.03,22.48-1.32-2.15-3.44-5.22-6.44-7.99-5.32-4.92-9.11-4.95-9.31-6.8-.35-3.18,10.54-5.86,15.97-6.81Z"/>
        <path class="cls-3" d="M31.24,166.53c4.33-.83,7.94-1.27,10.35-1.51-4.12,7.38-8.25,14.77-12.37,22.15-1.56-1.94-4.1-4.68-7.83-7.07-6.61-4.24-11.59-3.94-11.71-5.69-.2-3,14.34-6.5,21.56-7.88Z"/>
        <path class="cls-3" d="M50.67,136.14c5.61,.98,10.19,1.93,13.22,2.6-5.28,5.68-10.56,11.35-15.84,17.03-.84-2.38-2.35-5.96-4.99-9.81-4.69-6.83-9.34-9.2-8.62-10.82,.31-.69,1.7-1.52,16.23,1Z"/>
      </g>
      <path class="cls-5" d="M504.23,130.91c-7.67-10.7-19.29-6.84-35.76-21.64-14.67-13.19-14-23.93-24.47-37.64-5.47-7.16-12.07-12.64-18.96-16.86-15.76-9.66-32.97-12.72-41.27-14.2-46.76-8.31-115.79,13.88-130.81,67.76-13.54,48.59,24.49,95.57,56.46,116.69,64.86,42.85,146.39,8.71,170.86-14.26,5.22-4.9,9.82-11.14,9.82-11.14,13.11-17.78,27.15-50.52,14.12-68.7Z"/>
      <path class="cls-3" d="M491.01,154.98c.61-3.44-.4-8.82-4.52-10.51-3.27-1.34-7.1,.22-9.14,2.48-2.03,2.25-2.02,4.98-1.99,10.45,.03,5.4,.05,9.49,2.13,10.38,2.49,1.06,6.44-3.06,8.82-5.55,2.49-2.6,4.18-4.37,4.69-7.25Z"/>
      <ellipse class="cls-7" cx="336.81" cy="186.11" rx="22.32" ry="21.57"/>
      <ellipse class="cls-7" cx="307.83" cy="161.64" rx="9.28" ry="8.97"/>
      <path class="cls-1" d="M470,192.13s-28.2,9.9-71.72,0c0,0,16.57,26.92,35.86,26.44,0,0,21.16,.61,35.86-26.44Z"/>
      <path class="cls-3" d="M441.7,47.36c4.14,9.76,3.26,19.05,2.3,24.27-6.32-5.62-12.64-11.24-18.96-16.86,.88-1.74,2.07-4.45,2.84-7.91,1.86-8.39-.45-13.53,1.17-14.32,2.09-1.01,8.95,6.1,12.65,14.82Z"/>
      <path class="cls-3" d="M403.56,21.91c5.1,6.74,8.02,13.05,9.29,15.98,2.14,4.95,3.43,9.32,4.24,12.59-9.77-2.98-19.54-5.96-29.31-8.94,2.28-1.77,5.86-5.15,6.24-9.85,.19-2.38-.75-4.08-1.26-6.06-2.79-10.85-7.14-16.42-6.3-17.89,1.09-1.89,9.9,4.66,17.1,14.18Z"/>
      <path class="cls-3" d="M359.98,15.76c10.03,8.48,16.45,17.62,20.41,24.38-11.24,0-22.48,0-33.72,0-.91-7.27-3.08-17-8.67-27.1-4.14-7.47-7.99-11.25-6.89-12.61,1.95-2.4,17.19,5.45,28.86,15.32Z"/>
      <path class="cls-3" d="M287.21,14.08c4.86,2.49,8.11,5.45,11.28,8.58,5.27,5.22,12.48,13.1,20.1,24.09-11.15,5.41-22.3,10.83-33.45,16.24,.49-16.41-3.52-27.63-7.85-35.24-4.96-8.72-11.13-14.05-9.32-16.81,2.02-3.06,12.26-.44,19.23,3.13Z"/>
      <path class="cls-5" d="M161.99,226.14c4.24,1.88,35.63,16.37,36.2,43.36,.4,18.99-14.72,32.03-17.44,34.29-24.79,20.55-75.34,19.8-92.35-10.95-9.95-17.99-7.71-44.97,9.2-61.17,23.79-22.79,59.39-7.74,64.39-5.52Z"/>
      <path class="cls-5" d="M177.58,363.32c-18.01,11.36-43.71,7.5-54.3-5.15-3.22-3.84-2.99-6.04-4.71-10.14-1.12-2.67-2.22-4.28-2.99-5.51-13.55-21.55-39.7-63.14-30.84-73.95,6.96-8.5,37.95-.92,55.42,15.7,6.99,6.64,7.93,11.04,17.28,17.45,10.67,7.33,17.14,6.89,27.34,15.7,5.6,4.84,10.04,8.68,11.36,14.75,2.63,12.07-8.81,25-18.54,31.14Z"/>
      <path class="cls-5" d="M319.15,434.13c-4.81,4.84-30.16-24.3-75.6-41.74-47.54-18.24-61.83-2.48-114.18-16.54-29.28-7.86-81.18-21.8-103.95-65.36-26.58-50.87-3.08-122.36,17.28-124.56,21.53-2.33,15.85,75.4,78.79,122.98,56.31,42.57,110.25,17.69,166.15,74.02,20.91,21.07,35.65,47,31.5,51.18Z"/>
      <path class="cls-3" d="M90.51,276.67c7.52,8.56,17.16,18.27,29.21,27.92,11.79,9.44,23.11,16.61,32.92,22.03-9.57-3.44-23.96-9.93-38.34-22.29-11.39-9.78-18.97-19.97-23.8-27.66Z"/>
      <g>
        <path class="cls-5" d="M224.87,230.35c1.17-21.01,17.14-42.5,38.64-44.16,13.19-1.02,28.15,5.45,34.5,17.02,14.63,26.66-18.86,76.1-43.7,73.59-15.82-1.6-30.66-24.52-29.44-46.46Z"/>
        <g>
          <path class="cls-5" d="M313.54,320.01c-19.67,8.16-44.35,0-52.65-14.25-3.45-5.93-1.06-7.73-4.96-16.72-7.68-17.72-20.55-18.91-21.06-27.25-.87-14.27,35.26-35.94,55.13-26.01,9.57,4.78,6.71,12.57,21.68,29.73,14.64,16.79,24.5,17.5,25.4,26.94,1.09,11.56-12.51,22.99-23.54,27.56Z"/>
          <path class="cls-2" d="M274.17,332.87c3.41-4.2,6.83-8.4,10.24-12.61,.5-2.93-.53-5.53-2.5-6.36-2.07-.88-4.72,.38-6.34,3.05-.46,5.3-.93,10.61-1.39,15.91Z"/>
          <path class="cls-2" d="M343.1,314.15c-2.53-4.78-5.07-9.57-7.6-14.35-2.5-1.61-5.29-1.67-6.83-.18-1.62,1.56-1.49,4.5,.33,7.03,4.7,2.5,9.4,5,14.1,7.5Z"/>
          <path class="cls-2" d="M297.24,337.11c2.18-4.95,4.36-9.91,6.54-14.86-.29-2.96-1.97-5.19-4.09-5.47-2.23-.3-4.45,1.62-5.31,4.62,.95,5.24,1.91,10.48,2.86,15.71Z"/>
          <path class="cls-2" d="M325.52,328.37c-.87-5.34-1.75-10.69-2.62-16.03-1.86-2.32-4.48-3.28-6.41-2.36-2.03,.96-2.85,3.78-1.93,6.77,3.65,3.87,7.31,7.74,10.97,11.61Z"/>
        </g>
      </g>
      <path class="cls-3" d="M238.95,268.51c-3.25-3.48-8.72-10.27-11.78-20.37-3.97-13.1-1.61-24.22-.32-28.92-1.39,3.72-4.87,14.54-1.28,27.66,3.22,11.77,10.35,18.91,13.38,21.63Z"/>
      <path class="cls-3" d="M296.16,241.19l3.79-10.8c-.05,1.45-.22,3.16-.62,5.04-.49,2.32-1.19,4.27-1.87,5.81,.87,1.92,1.73,3.87,2.59,5.85,.9,2.06,1.78,4.11,2.63,6.14-2.18-4.02-4.35-8.03-6.53-12.05Z"/>
      <path class="cls-2" d="M208.77,333.33c-5.13-1.73-10.26-3.45-15.39-5.18-2.92,.56-4.99,2.43-5.08,4.57-.1,2.25,2.01,4.29,5.08,4.87,5.13-1.42,10.26-2.84,15.39-4.26Z"/>
      <path class="cls-3" d="M187.61,296.9c2.51-3.15,7.04-9.72,8.77-19.26,2.17-11.93-1.34-21.4-2.94-25.08,1.48,2.58,7.27,13.35,4.1,26.82-2.16,9.17-7.41,15.04-9.93,17.52Z"/>
      <g>
        <path class="cls-6" d="M383.74,148.23s5.09-.89,10.64,0l-3.12-2.58s-6.59,.76-7.52,2.58Z"/>
        <path class="cls-6" d="M357.4,89.73s1.46,6.58,17.56,12.62c0,0,9.87,4.57,13.9-15.73,0,0-14.81,1.1-30.72-15,0,0-.46,11.8,21.49,20.85,0,0,1.28,1.1-.09,1.92,0,0-12.62,1.74-22.13-4.66Z"/>
        <path class="cls-1" d="M415.24,116.48c0,17.54-9.09,31.75-20.3,31.75s-19.72-17.66-20.3-31.75c-.6-14.33,7.26-29.52,14.28-29.85,1.49-.07,1.67,.59,9.9,4.19,7.85,3.43,8.52,3.18,10.17,4.37,7.36,5.26,6.25,18.49,6.25,21.3Z"/>
        <ellipse class="cls-4" cx="395.37" cy="122.84" rx="15.93" ry="25.4"/>
        <ellipse class="cls-1" cx="385.79" cy="103.75" rx="4.03" ry="6.31"/>
      </g>
    </g>
  </g>
</svg>