<?xml version="1.0" encoding="UTF-8"?>
<svg id="Layer_2" data-name="Layer 2" xmlns="http://www.w3.org/2000/svg" viewBox="0 0 408.76 452.66">
  <defs>
    <style>
      .cls-1 {
        fill: #fff;
      }

      .cls-2 {
        fill: #818285;
      }

      .cls-3 {
        fill: #db4e89;
      }

      .cls-4 {
        fill: #a92f62;
      }

      .cls-5 {
        fill: #231f20;
      }

      .cls-6 {
        fill: #5a5b5c;
      }

      .cls-7 {
        fill: #60c8d4;
      }

      .cls-8 {
        fill: #5fc8d4;
      }

      .cls-9 {
        fill: #817dbb;
      }

      .cls-10 {
        fill: #f7b1c4;
        opacity: .57;
      }
    </style>
  </defs>
  <g id="animal.unicorn">
    <g>
      <path class="cls-8" d="M170.93,348.45c-33.85-24.57-47.39-49.35-53.62-66.63-16.42-45.59-2.82-97.19-26.78-108.25-6.91-3.19-18.43-2.08-26.79-11.81-3.99-4.65-4.78-8.79-10.48-12.59-7.83-5.22-17.6-4.91-18.17-3.16-.74,2.29,14.74,5.26,16.37,14.3,1.31,7.27-7.66,11.04-9.33,19.36-1.46,7.27,2.71,17.92,23.73,33.68-6.17-2.34-14.58-6.59-21.68-14.68-4.39-5-5.19-7.95-8.93-10.61-4.94-3.51-13.88-5.72-31.45,.95,10.92,3.7,22.94,9.52,24.06,18.28,1.24,9.65-11.93,13.5-17.46,28.6-5.83,15.9-1.01,38.4,11.75,50.63,15.78,15.12,37.34,8.43,44.81,24.27,2.97,6.3,.77,9.93,2.14,14.87,3.34,11.97,25.37,23.12,101.81,22.81Z"/>
      <path class="cls-4" d="M170.91,348.49c-25.52-11.98-36.22-27.28-40.98-36.11-8.97-16.66-8.92-35.68-8.81-73.73,.08-28.1,6.97-37.64-.35-53.54-5.38-11.69-15.33-21.84-11.73-27.1,2.62-3.83,9.71-1.1,16.58-6.67,4.04-3.28,5.86-7.69,6.73-10.56-1.85,1.03-4.86,2.38-8.62,2.49-7.92,.22-11.1-5.31-17.61-5.35-6.59-.04-12.22,5.57-14.46,9.09-6.17,9.71-1.57,27.11,13.45,40.81,1.32-7.94,1.7-18.89-4.14-28.53-3.53-5.82-6.91-7.19-9.31-12.29-2.82-5.98-3.72-15.9,5.69-32.97-5.57,1.21-18.28,4.83-27.56,16.24-12.82,15.76-13.79,39.86-2.3,60.78,14.39,26.22,19.12,32.44,16.57,48.26-3.5,21.74-26.87,28.35-23.7,41.4,2.28,9.38,14.65,7.14,30.27,21.72,14.75,13.77,12.59,24.06,23.36,34.46,8.28,8,24,15.87,56.91,11.59Z"/>
      <path class="cls-9" d="M171.57,346.13c-18.5-18.33-36.32-26.6-51.92-29.86-23.4-4.9-38.63,6.88-53.88-3.7-10.71-7.43-9.83-17.1-23.59-23.36-9.24-4.2-13.85-1.77-22.3-5.84-11.04-5.32-16.64-15.97-19.6-23.73-.48,5.52-2.97,40.58,22.68,62.92,16.23,14.13,38,18.16,50.51,20.53,11.82,2.23,21.86,2.52,28.93,2.34-3.62-.5-13.61-1.44-24.03,3.59-8.99,4.34-13.56,10.84-15.36,13.79,4.31-2.28,11.94-5.51,21-4.33,18.16,2.37,23.87,20.79,37.51,23.29,10.06,1.84,26-2.68,50.04-35.64Z"/>
      <path class="cls-8" d="M143.46,283.53c-12.69-15.51-14.3-27.11-13.23-35,2.02-14.88,13.82-18.55,15.85-35.76,1.44-12.23-4.17-13.33-5.5-30.51-1.27-16.49,1.95-40.68,14.04-45.25,7.08-2.68,10.53,3.9,17.97,1.74,15.13-4.41,8.72-33.91,25.01-43.45,13.79-8.07,25.6,8.84,53.02,1.93,13.51-3.41,14.23-8.42,24.25-7.97,15.49,.7,20.43,14.48,36.7,15.24,10.96,.52,20.15-2.76,26.35-5.71-2.66,9.44-7.91,21.94-19.11,27.28-18.35,8.74-33.73-12.92-62.21-14.03-30.95-1.21-66.99,21.81-77.28,50.4-11.13,30.9,13.02,53.87-3.62,74.03-9.72,11.77-25.78,13.42-31.22,30.12-2.21,6.78-1.69,13.03-1.02,16.96Z"/>
      <g>
        <g>
          <g>
            <path class="cls-6" d="M313.77,327.43c-22.83-4.94-44.87,.28-52.73,13.14-10.48,17.14,1.01,53.12,38.65,70.43,23.96,4.7,47.92,9.39,71.87,14.09,17.31,1.73,33-9.69,36.48-25.64,3.1-14.22-4.07-29.37-17.7-36.48-25.52-11.85-51.05-23.69-76.57-35.54Z"/>
            <path class="cls-2" d="M390.44,366.61c-13.8-.44-26.12,8.7-29.63,21.79-3.65,13.63,3.13,28.25,16.15,34.38-18.07-6.59-25.89-26.31-19.4-40.49,5.1-11.15,18.67-18.04,32.88-15.67Z"/>
          </g>
          <path class="cls-2" d="M313.77,327.43c7.79,3.7,15.64,7.4,23.56,11.09,10.57,4.92,21.07,9.74,31.51,14.47-5.36-3.41-11.23-6.83-17.6-10.13-13.42-6.96-26.15-11.89-37.47-15.43Z"/>
        </g>
        <g>
          <path class="cls-6" d="M370.96,354.72c9.46,.62,18.43-4.12,23-12.16,5.06-8.89,3.87-20.27-3.03-28.23-7.55-6.72-16.54-13.94-27.04-21.07-10.82-7.34-21.14-13.15-30.41-17.75-7.41-3.72-12.31-2.6-14.13-2.02-10.32,3.28-17.42,19.5-13.55,39.77,4.12,6.81,13.29,19.88,29.99,29.79,14.17,8.41,27.51,10.85,35.16,11.67Z"/>
          <path class="cls-2" d="M385.87,311.96c-9.57-2.78-19.97,2.08-24.98,11.55-5.21,9.86-3.3,22.31,4.61,29.34-11.36-8.27-13-24.85-5.7-34.63,5.74-7.69,16.57-10.6,26.06-6.27Z"/>
          <path class="cls-2" d="M333.48,275.51c6.22,3.09,12.82,6.67,19.65,10.83,8.41,5.12,15.9,10.34,22.5,15.37-9.28-5.51-18.66-11.25-28.13-17.23-4.74-2.99-9.41-5.98-14.02-8.98Z"/>
        </g>
        <path class="cls-6" d="M144.4,349.79c-1.21,4.91-5.73,25.62,5.91,47.2,10.42,19.32,27.26,27.2,32.37,29.36,12.11,6.2,36.81,16.76,68.86,15.51,17.93-.7,54.97-2.15,79.69-31.59,27.67-32.94,18.6-75.55,16.87-82.92-6.57-28.03-23.55-44.14-47.03-66.41-26.12-24.78-42.82-40.62-65.82-39.41-29.28,1.54-49.84,29.7-59.82,43.36-12.98,17.78-18.99,36.25-22.62,47.38-4.87,14.97-7.21,28.03-8.43,37.52Z"/>
        <g>
          <g>
            <g>
              <path class="cls-2" d="M220.83,46.86c-.15,1.14-.31,2.29-.46,3.43,1.47-.79,2.68-1.74,3.66-2.53,12.29-9.87,13.43-11.16,16.2-11.82,.69-.16,1.51-.3,2.45-.33-.62-3.38-1.23-6.51-1.83-9.41-6.34,3.43-11.36,10.54-19.31,13.18-.24,2.38-.48,4.86-.71,7.46Z"/>
              <path class="cls-2" d="M221.67,38.11c2.06-.84,3.72-2.01,5.01-2.94,7.84-5.67,11.59-8.51,13.94-10.02-.88-4.17-1.74-7.83-2.59-10.97-4.74,3.56-8.91,9.19-14.95,11.7-.49,3.68-.96,7.76-1.42,12.23Z"/>
              <path class="cls-2" d="M216.58,78.55c-.67,4.99-1.34,9.98-2.01,14.98,3.73-.93,6.56-2.93,8.63-4.43,16.67-12.06,18.21-13.63,21.96-14.43,1.17-.25,2.6-.43,4.3-.4-.92-4.87-1.84-9.75-2.76-14.62-11.6,.3-17.56,15.3-30.13,18.9Z"/>
              <path class="cls-2" d="M220.18,51.67c-.55,4.11-1.1,8.21-1.65,12.32,2.1-.85,3.79-2.03,5.09-2.98,13.64-9.87,14.91-11.16,17.98-11.82,.91-.2,2.03-.35,3.35-.33-.69-4.27-1.37-8.26-2.05-11.97-8.89,.2-13.74,10.94-22.73,14.77Z"/>
              <path class="cls-2" d="M214.39,94.95l-1.21,9.05c3.66-.77,6.45-2.39,8.49-3.61,16.41-9.87,17.93-11.16,21.63-11.82,2.09-.37,5.07-.57,8.92,.2-.81-4.31-1.63-8.61-2.44-12.92-.29-.01-.57-.02-.83-.01-13.28,.17-19.9,15.95-34.55,19.12Z"/>
              <path class="cls-2" d="M218.36,65.29l-1.58,11.78c2.94-1.01,5.21-2.8,6.92-4.16,15.01-12.06,16.4-13.63,19.78-14.43,.83-.2,1.81-.36,2.93-.4-.02-.11-.04-.21-.06-.32-.4-2.62-.8-5.15-1.19-7.59-.16,0-.33,0-.47,0-10.26,.13-15.67,11.66-26.33,15.13Z"/>
              <path class="cls-2" d="M220.93,127.46c3.37,1.92,7.59,3.44,12.64,3.59,15.22,.45,23.73-11.91,24.23-12.67-.4-2.12-.8-4.24-1.2-6.36-12.22,2.65-19.7,14.14-35.67,15.44Z"/>
              <path class="cls-2" d="M219.19,126.39c.35,0,.71,0,1.08-.02,5.9-.23,10.15-2.47,13.03-4.04,16.73-9.07,19.52-10.89,23.04-11.64-.46-2.43-.92-4.86-1.38-7.29-2.32-.52-4.27-.65-5.72-.63-14.59,.14-21.83,13.19-38.01,15.7-.01,.08-.02,.15-.03,.23,.43,.64,3.14,4.46,7.99,7.69Z"/>
              <path class="cls-2" d="M245.13,101.82c2.26-.36,5.45-.56,9.57,.14-.74-3.91-1.48-7.82-2.21-11.72-2.24-.6-4.11-.73-5.49-.72-13.06,.14-19.58,13.03-33.98,15.65-.54,4.05-1.08,8.09-1.63,12.14,4.21-.74,7.42-2.41,9.73-3.66,18.22-9.87,19.9-11.16,24.01-11.82Z"/>
              <path class="cls-2" d="M223.28,24.51c1.53-.8,2.79-1.79,3.81-2.6,5.31-4.26,8.53-6.92,10.71-8.62-.66-2.39-1.31-4.46-1.95-6.2-3.42,3.14-6.82,6.77-11.21,8.78-.46,2.57-.92,5.45-1.36,8.65Z"/>
              <path class="cls-2" d="M228.03,12.15c3.14-2.52,5.55-4.48,7.45-6.02C233.88,2,232.35-.05,230.9,0c-2.17,.08-4.17,4.88-5.99,14.37,1.23-.72,2.27-1.53,3.12-2.22Z"/>
            </g>
            <g>
              <g>
                <path class="cls-6" d="M176.79,159.01c1.92-.19,13.31-1.53,20.71-11.56,5.15-6.98,5.54-14.33,5.55-17.05-3.04-4.66-8.26-11.26-16.72-16.39-1.53-.93-3.14-1.79-6.37-3.29-5.99-2.77-14.79-6.44-26.44-9.93-4.35-.65-8.21,.51-9.41,2.88-.79,1.55-.7,4.17-.69,4.47,.05,1.22,.28,2.22,.48,2.91,2.61,7.88,7.25,18.81,15.71,30.06,5.88,7.81,12.01,13.67,17.18,17.91Z"/>
                <path class="cls-2" d="M158.27,113.2c1.66,5.61,4.97,14.15,11.82,22.77,4.74,5.96,9.73,10.14,13.68,12.95-3.2-1.15-11.61-4.63-18.1-13.5-6.8-9.3-7.36-18.86-7.4-22.22Z"/>
              </g>
              <g>
                <path class="cls-6" d="M262.54,124.81c1.61,1.07,11.28,7.23,23.35,4.14,8.4-2.15,13.35-7.6,15.08-9.7,.59-5.53,.71-13.95-2.59-23.27-.6-1.68-1.3-3.37-2.86-6.58-2.89-5.93-7.39-14.34-14.21-24.41-2.96-3.25-6.68-4.8-9.11-3.72-1.59,.71-3.18,2.79-3.36,3.03-.73,.98-1.19,1.9-1.47,2.55-2.96,7.75-6.28,19.16-6.83,33.22-.38,9.77,.67,18.18,1.99,24.74Z"/>
                <path class="cls-2" d="M277.15,77.61c-2.26,5.39-5.09,14.11-5.24,25.11-.1,7.62,1.12,14.01,2.41,18.68-1.76-2.91-6.07-10.92-5.49-21.9,.61-11.5,6.22-19.27,8.31-21.89Z"/>
              </g>
              <g>
                <g>
                  <path class="cls-6" d="M287.93,301.52c17.36-.73,59.07-2.49,83.3-33.48,13.79-17.64,15.68-36.78,16.03-41.27,2.48-31.78-16-54.19-20.15-58.98-3.85-5.13-50.8-65.69-121.25-59.42-11.06,.98-64.5,6.43-86.98,51.04-20.91,41.49,1.59,83.95,3.64,87.67,32.12,58.33,112.3,54.98,125.4,54.43Z"/>
                  <path class="cls-2" d="M243.43,212.8c6.3-12.2,13.88-20.25,20.12-25.51,41.49-34.95,103.69-13.31,109.49-11.2-41.61-19.91-85.43-17.81-110.74,5.81-5.66,5.28-13.81,14.83-18.87,30.9Z"/>
                </g>
                <path class="cls-7" d="M255.19,182.08s2.36-1.23,5.22-1.65l-1.93-.78s-3.11,1.39-3.29,2.43Z"/>
                <path class="cls-7" d="M233.21,157.46s1.74,3,10.57,3.47c0,0,5.55,.71,4.38-9.87,0,0-7.09,2.83-17.39-2.59,0,0,1.6,5.86,13.77,6.9,0,0,.8,.34,.25,.96,0,0-5.92,2.81-11.57,1.14Z"/>
                <ellipse class="cls-1" cx="255.77" cy="164.77" rx="10.44" ry="16.33" transform="translate(-37.75 84.71) rotate(-17.53)"/>
                <path class="cls-7" d="M336.49,124.99s.3,3.46-6.65,8.91c0,0-4.13,3.77-9.25-5.56,0,0,7.43-1.76,12.74-12.11,0,0,2.05,5.71-7.31,13.55,0,0-.46,.74,.34,.93,0,0,6.46-1.1,10.13-5.72Z"/>
                <path class="cls-7" d="M333.05,157.64s-2.63,.35-5.22,1.65l1.13-1.75s3.35-.65,4.08,.1Z"/>
                <ellipse class="cls-1" cx="322.22" cy="143.93" rx="10.44" ry="16.33" transform="translate(-28.39 103.76) rotate(-17.53)"/>
                <ellipse class="cls-5" cx="256.96" cy="167.82" rx="8.19" ry="13.06" transform="translate(-38.62 85.21) rotate(-17.53)"/>
                <ellipse class="cls-1" cx="249.31" cy="159.94" rx="2.07" ry="3.24" transform="translate(-36.6 82.54) rotate(-17.53)"/>
                <ellipse class="cls-5" cx="323.15" cy="147.07" rx="8.31" ry="13.06" transform="translate(-29.29 104.18) rotate(-17.53)"/>
                <ellipse class="cls-1" cx="316.04" cy="139.01" rx="2.07" ry="3.24" transform="translate(-27.2 101.67) rotate(-17.53)"/>
                <circle class="cls-10" cx="305.86" cy="226.79" r="5.48"/>
                <circle class="cls-10" cx="348.24" cy="212.8" r="5.48"/>
              </g>
            </g>
          </g>
          <path class="cls-2" d="M183.76,272.87c15.69,9.55,45.79,24.89,86.18,27.38,43.79,2.7,75.41-11.21,75.41-11.2,0,0-50.03,22.46-105.92,8.92-24.67-5.98-43.4-16.6-55.67-25.11Z"/>
        </g>
        <g>
          <g>
            <path class="cls-6" d="M230.03,354.83c-22.83-4.94-44.87,.28-52.73,13.14-10.48,17.14,1.01,53.12,38.65,70.43,23.96,4.7,47.92,9.39,71.87,14.09,17.31,1.73,33-9.69,36.48-25.64,3.1-14.22-4.07-29.37-17.7-36.48-25.52-11.85-51.05-23.69-76.57-35.54Z"/>
            <path class="cls-2" d="M306.7,394.01c-13.8-.44-26.12,8.7-29.63,21.79-3.65,13.63,3.13,28.25,16.15,34.38-18.07-6.59-25.89-26.31-19.4-40.49,5.1-11.15,18.67-18.04,32.88-15.67Z"/>
          </g>
          <path class="cls-2" d="M230.03,354.83c7.79,3.7,15.64,7.4,23.56,11.09,10.57,4.92,21.07,9.74,31.51,14.47-5.36-3.41-11.23-6.83-17.6-10.13-13.42-6.96-26.15-11.89-37.47-15.43Z"/>
        </g>
        <g>
          <path class="cls-6" d="M238.59,372.61c9.46,.62,18.43-4.12,23-12.16,5.06-8.89,3.87-20.27-3.03-28.23-7.55-6.72-16.54-13.94-27.04-21.07-10.82-7.34-21.14-13.15-30.41-17.75-7.41-3.72-12.31-2.6-14.13-2.02-10.32,3.28-17.42,19.5-13.55,39.77,4.12,6.81,13.29,19.88,29.99,29.79,14.17,8.41,27.51,10.85,35.16,11.67Z"/>
          <path class="cls-2" d="M253.5,329.86c-9.57-2.78-19.97,2.08-24.98,11.55-5.21,9.86-3.3,22.31,4.61,29.34-11.36-8.27-13-24.85-5.7-34.63,5.74-7.69,16.57-10.6,26.06-6.27Z"/>
          <path class="cls-2" d="M201.11,293.41c6.22,3.09,12.82,6.67,19.65,10.83,8.41,5.12,15.9,10.34,22.5,15.37-9.28-5.51-18.66-11.25-28.13-17.23-4.74-2.99-9.41-5.98-14.02-8.98Z"/>
        </g>
      </g>
      <path class="cls-4" d="M196.54,122.2c1.98,11.46,27.19,18.38,46.27,18.16,3.34-.04,6.55-.53,10.13-.98,3.76-.47,18.86-2.49,32.52-7.16,24.41-8.36,41.03-24.13,40.35-25.25-.43-.7-7.44,4.59-18.95,4.98-3.4,.11-6.32-.23-9.25-.79-22.38-4.23-34.01-18.35-55.44-18.93-5.26-.14-9.25,.56-10.75,.88-18.55,4.03-36.72,18.46-34.89,29.09Z"/>
      <path class="cls-3" d="M196.54,122.2c3.9,12.63,10.79,18.37,14.08,20.66,16.71,11.63,45.09,6.92,67.93-14.19-10.79,3.07-24.35,4.8-34.52-2.25-4.49-3.11-5.47-5.96-9.74-8.53-6.35-3.82-17.35-5.44-37.75,4.31Z"/>
      <path class="cls-9" d="M165.12,149.07c-21.26,28.32-22.21,45.2-18.84,55.49,1.66,5.07,5.19,11.06,8.59,23.77,2.31,8.65,4.04,18.47,4.25,24.56,.86,25.24-22.27,46.99-29.18,53.1,11.45-3.54,32.74-12.18,47.11-32.86,22.98-33.06,18.85-83.3-11.93-124.07Z"/>
      <path class="cls-3" d="M165.12,149.07c-2.6,3.95-6.14,10.27-8.14,18.58-4.13,17.22,2.4,26.24,3.11,42.71,1.11,25.57-13.47,30.99-12.51,49.65,.66,12.77,8.51,30.39,41.46,50.6-6.64-10.31-10.76-19.88-13.38-27.45-3.52-10.15-6.48-18.7-5.74-29.48,.79-11.62,5.02-13.26,9.82-28.61,2.75-8.79,7.65-24.62,4.3-41.92-3.01-15.56-11.95-26.96-18.91-34.08Z"/>
    </g>
  </g>
</svg>