<svg width="245" height="231" viewBox="0 0 245 231" fill="none" xmlns="http://www.w3.org/2000/svg">
<path d="M4.82629 91.7305C4.29337 94.1973 3.85936 96.455 3.40954 98.7951C1.71018 99.4339 1.16851 98.5156 1.575 97.0312C1.86656 95.9665 2.81727 95.0883 3.14424 94.0253C3.32059 93.452 2.53228 92.6147 2.64944 91.9839C3.05294 89.8117 3.53695 87.6338 4.26235 85.5531C4.52479 84.8003 5.55433 84.3153 6.23384 83.7081C6.50955 83.9266 6.78526 84.1451 7.06097 84.3635C6.39771 85.9832 5.73444 87.6028 4.9252 89.5789C4.9252 89.8315 4.9252 90.6765 4.82629 91.7305Z" fill="white"/>
<path d="M7.65529 146.166C6.36686 146.644 5.57204 146.483 5.1946 144.888C4.6982 142.791 3.46526 140.792 3.34439 138.705C3.2376 136.861 2.55851 135.341 2.11911 133.671C1.82601 132.557 1.61076 130.933 4.1206 131.639C3.76655 134.818 6.0408 137.866 5.57242 140.845C6.22624 142.633 6.81153 144.233 7.51679 146.009C7.63677 146.185 7.65529 146.166 7.65529 146.166Z" fill="white"/>
<path d="M10.4009 156.7C12.7184 156.708 14.0506 158.796 13.1237 161.348C13.0139 161.555 13.0484 161.525 13.0579 161.513C12.1909 159.988 11.3143 158.476 10.4412 156.812C10.4446 156.661 10.4009 156.7 10.4009 156.7Z" fill="white"/>
<path d="M9.97565 73.8218C8.7006 72.5402 9.6919 69.9595 12.0062 69.1012C12.2159 69.121 12.1755 69.0824 12.1537 69.0642C13.0615 71.2414 11.7198 72.5695 10.1147 73.8217C9.93524 73.7779 9.97565 73.8218 9.97565 73.8218Z" fill="white"/>
<path d="M9.91392 73.7576C11.2882 75.5659 9.34233 76.7935 8.9794 78.2952C8.94209 78.4496 7.71493 78.3159 7.03989 78.3159C6.9029 78.094 6.7659 77.8721 6.62891 77.6502C7.61527 76.3921 8.60164 75.1341 9.78213 73.8488C9.97625 73.8217 9.93584 73.7778 9.91392 73.7576Z" fill="white"/>
<path d="M5.26465 82.95C5.66555 81.4294 6.08049 80.1325 6.77252 77.9694C7.45685 79.1977 8.3704 80.129 8.17603 80.6292C7.70308 81.8463 8.0135 84.4178 5.26465 82.95Z" fill="white"/>
<path d="M6.70672 113.355C7.13252 113.962 7.31276 114.558 7.55222 115.349C5.7992 115.349 4.34728 115.349 2.69001 115.349C2.66363 114.751 2.63626 114.131 2.60156 113.344C4.03994 113.344 5.25055 113.344 6.70672 113.355Z" fill="white"/>
<path d="M2.40586 109.381C0.994334 109.81 0.243667 109.532 0.429895 108.004C0.544586 107.063 0.451131 106.096 0.451131 104.948C1.1543 104.906 1.77479 104.869 2.55834 104.822C2.55834 106.417 2.55834 107.801 2.40586 109.381Z" fill="white"/>
<path d="M2.92762 126.338C3.31086 127.858 3.53361 129.211 3.78933 130.765C2.9923 130.826 2.35566 130.874 1.73404 130.921C1.47875 129.314 1.25191 127.886 0.999512 126.297C1.59766 126.254 2.1824 126.213 2.92762 126.338Z" fill="white"/>
<path d="M2.49917 125.594C0.0996155 125.063 0.717225 123.165 0.537443 121.754C0.494603 121.417 1.51301 120.945 2.04329 120.536C2.27331 120.667 2.50333 120.798 2.73335 120.929C2.73335 122.48 2.73335 124.031 2.49917 125.594Z" fill="white"/>
<path d="M0.451334 118.143C0.451329 117.128 0.451329 116.355 0.451329 115.381C3.90248 115.841 1.97561 118.401 2.70872 119.909C0.864064 120.783 0.270599 120.141 0.451334 118.143Z" fill="white"/>
<path d="M7.63111 146.185C8.21167 147.545 8.83802 148.891 9.34244 150.282C9.42018 150.496 8.93762 150.914 8.6701 151.401C8.626 151.564 8.66301 151.532 8.66301 151.532C6.31749 151.922 7.51738 149.403 6.4394 148.681C6.33509 148.611 7.05444 147.31 7.52346 146.374C7.65548 146.166 7.63696 146.185 7.63111 146.185Z" fill="white"/>
<path d="M10.4648 156.639C8.82192 155.477 8.08861 153.935 8.55917 151.725C8.6634 151.532 8.6264 151.564 8.61603 151.578C9.58722 152.78 10.5942 153.95 11.4992 155.195C11.5671 155.288 10.9076 155.911 10.4938 156.494C10.4014 156.7 10.4451 156.661 10.4648 156.639Z" fill="white"/>
<path d="M3.11548 101.119C3.01005 102.637 3.65379 104.395 0.994129 104.233C0.994129 103.046 0.858752 101.831 1.06066 100.675C1.14159 100.212 1.96451 99.8784 2.4497 99.4858C2.67161 99.9514 2.89353 100.417 3.11548 101.119Z" fill="white"/>
<path d="M11.8957 113.33C12.1446 113.89 12.1576 114.462 12.1349 115.247C10.7868 115.461 9.47434 115.461 8.03906 115.461C8.03906 114.755 8.03906 114.181 8.03906 113.341C9.23751 113.341 10.4486 113.341 11.8957 113.33Z" fill="white"/>
<path d="M0.960654 110.164C1.4621 110.149 1.80728 110.046 1.97027 110.174C2.97104 110.963 2.13864 114.341 0.413086 115.09C0.52343 113.327 0.6218 111.754 0.960654 110.164Z" fill="white"/>
<path d="M168.924 60.6158C174.865 67.0477 179.052 74.7583 181.97 83.0298C184.161 89.2423 185.358 95.8059 187.016 102.436C186.256 101.843 185.479 101.026 184.532 100.03C182.863 100.896 181.054 101.962 179.137 102.768C178.34 103.103 176.839 103.29 176.459 102.851C172.794 98.6138 167.69 95.2262 167.708 88.6771C167.711 87.8447 167.387 86.8528 166.875 86.2037C163.962 82.5143 164.121 78.3419 165.521 74.3672C166.527 71.5109 166.551 68.9623 165.761 66.189C165.403 64.9336 165.321 63.5997 165.196 62.8223C166.607 62.0574 167.74 61.4429 168.924 60.6158Z" fill="#C6F2F5"/>
<path d="M183.685 139.574C182.103 144.155 180.349 148.818 178.499 153.634C178.32 153.32 178.032 152.772 178.183 152.402C179.921 148.138 181.725 143.902 183.685 139.574Z" fill="#A4E1E5"/>
<path d="M165.747 181.2C165.927 180.922 166.085 180.719 166.197 180.742C167.995 181.113 169.788 181.512 171.842 181.963C171.227 182.542 170.084 184.219 169.508 184.042C168.1 183.611 166.955 182.322 165.747 181.2Z" fill="#B1B1B1"/>
<path d="M197.187 116.855C196.404 115.806 195.67 114.962 194.514 113.633C195.941 113.509 197.375 113.385 198.855 113.257C198.965 116.794 198.773 117.201 197.187 116.855Z" fill="#B0B0B0"/>
<path d="M169.05 42.1449C169.482 43.0571 169.755 43.8338 170.098 44.8081C168.497 44.8081 167.276 44.8081 165.545 44.8081C166.298 43.23 166.327 41.3533 169.05 42.1449Z" fill="#B1B1B1"/>
<path d="M175.257 176.811C175.945 175.538 176.599 174.243 177.36 173.015C177.473 172.834 178.147 172.86 178.468 173.002C178.661 173.087 178.849 173.756 178.741 173.865C177.742 174.866 176.679 175.802 175.442 176.781C175.251 176.805 175.257 176.811 175.257 176.811Z" fill="#AEAEAE"/>
<path d="M194.175 143.477C193.69 143.183 193.007 142.659 193.095 142.361C193.402 141.312 193.974 140.34 194.446 139.338C194.809 139.499 195.171 139.659 195.534 139.82C195.132 140.997 194.731 142.174 194.175 143.477Z" fill="#AFAFAF"/>
<path d="M193.785 145.415C193.419 146.675 193.014 147.742 192.609 148.808C192.332 148.827 192.055 148.846 191.778 148.865C191.746 148.088 191.573 147.283 191.716 146.54C191.913 145.518 192.18 144.274 193.785 145.415Z" fill="#AEAEAE"/>
<path d="M164.666 187.023C165.653 186.057 166.606 185.284 167.559 184.511C167.135 187.498 166.148 188.134 164.666 187.023Z" fill="#AFAFAF"/>
<path d="M175.248 176.802C175.443 178.855 174.483 180.021 172.272 180.6C172.086 178.401 173.556 177.671 175.069 176.827C175.257 176.811 175.251 176.805 175.248 176.802Z" fill="#AEAEAE"/>
<path d="M196.82 133.266C195.082 132.446 195.15 131.29 197.585 129.497C197.379 130.706 197.173 131.915 196.82 133.266Z" fill="#AFAFAF"/>
<path d="M198.075 100.059C198.046 101.405 197.48 102.231 196.669 100.98C196.088 100.082 196.314 98.6615 196.18 97.4742C196.505 97.4265 196.829 97.3788 197.154 97.3312C197.448 98.1718 197.743 99.0124 198.075 100.059Z" fill="#AEAEAE"/>
<path d="M170.866 47.2844C170.228 45.6662 170.733 45.3241 172.052 45.9734C172.988 46.4338 173.895 46.9528 174.814 47.4457C174.416 47.9439 174.017 48.4422 173.618 48.9405C172.743 48.44 171.867 47.9395 170.866 47.2844Z" fill="#AEAEAE"/>
<path d="M188.367 70.7921C186.365 70.2366 185.876 68.9103 186.073 67.2763C186.423 67.1267 186.774 66.9772 187.124 66.8276C187.578 68.1 188.033 69.3724 188.367 70.7921Z" fill="#AEAEAE"/>
<path d="M198.631 104.483C198.541 105.438 198.421 106.18 198.301 106.922C198.013 106.919 197.724 106.916 197.436 106.913C197.124 105.617 196.812 104.322 196.5 103.026C196.764 102.889 197.028 102.752 197.291 102.616C197.728 103.167 198.165 103.718 198.631 104.483Z" fill="#AEAEAE"/>
<path d="M182.642 61.6069C181.738 60.5824 181.025 59.5586 180.312 58.5349C180.617 58.3515 180.923 58.1682 181.228 57.9849C182.048 59.0422 184.135 59.4291 182.642 61.6069Z" fill="#AEAEAE"/>
<path d="M197.09 95.1308C196.729 95.5987 196.374 95.8551 196.018 96.1115C195.685 94.8216 195.351 93.5316 195.018 92.2417C195.392 92.1459 195.765 92.0502 196.139 91.9545C196.457 92.9427 196.776 93.9309 197.09 95.1308Z" fill="#B1B1B1"/>
<path d="M192.476 83.7468C192.559 83.0337 192.716 82.5132 192.873 81.9927C193.254 82.3562 193.822 82.6548 193.975 83.0971C194.264 83.9367 194.315 84.8585 194.465 85.7462C194.221 85.8455 193.978 85.9447 193.734 86.044C193.339 85.3425 192.944 84.6409 192.476 83.7468Z" fill="#AFAFAF"/>
<path d="M194.075 89.1105C194.002 88.2612 194.002 87.6096 194.002 86.958C194.304 86.892 194.605 86.826 194.907 86.76C195.3 88.0489 195.694 89.3377 196.088 90.6266C195.765 90.7627 195.442 90.8989 195.119 91.0351C194.795 90.4595 194.471 89.8838 194.075 89.1105Z" fill="#B0B0B0"/>
<path d="M187.368 156.861C187.865 155.947 188.279 155.207 188.693 154.468C189.002 154.572 189.311 154.676 189.621 154.78C189.257 156.042 188.893 157.305 188.529 158.567C188.239 158.574 187.949 158.58 187.66 158.586C187.535 158.069 187.41 157.552 187.368 156.861Z" fill="#AFAFAF"/>
<path d="M181.75 169.653C181.017 170.608 180.36 171.399 179.703 172.19C179.4 171.97 179.097 171.751 178.793 171.532C179.471 170.509 180.149 169.487 180.826 168.465C181.16 168.806 181.493 169.147 181.75 169.653Z" fill="#AFAFAF"/>
<path d="M39.3193 177.397C38.8752 176.98 37.5188 178.509 37.8775 176.46C37.1264 175.341 36.2435 174.422 35.3606 173.502C35.3606 173.502 35.3004 173.407 35.3529 173.197C35.2255 172.966 35.0455 172.945 34.8655 172.924C34.8655 172.924 34.7749 172.867 34.8209 172.651C33.2527 170.653 31.6385 168.872 30.0243 167.092C30.0243 167.092 29.928 167.011 30.0125 166.788C29.184 165.496 28.271 164.426 27.358 163.355C27.358 163.355 27.2641 163.275 27.3492 163.05C25.2785 158.598 22.975 154.439 20.998 150.129C16.9099 141.217 14.2897 131.883 13.8051 122.044C13.6796 119.496 14.0508 116.927 14.0524 114.367C14.0539 111.972 13.5697 109.544 13.8188 107.186C14.6832 99.003 15.1298 90.6975 20.0374 83.5288C21.113 81.9577 21.5668 79.9604 22.3189 77.978C22.3261 77.5554 22.3213 77.3142 22.3071 77.0739C22.2976 77.0747 22.3013 77.0931 22.473 77.0308C23.9528 75.1088 25.2608 73.2491 26.7689 71.1049C27.5319 73.0729 28.8632 74.7759 28.6546 76.2624C27.6461 83.4478 30.3363 90.456 29.3128 97.6436C28.8295 101.037 29.2027 104.56 29.26 108.022C29.3284 112.16 30.1889 115.955 33.4089 118.988C35.9186 121.353 38.1424 124.022 40.4863 126.562C40.9648 127.081 41.5223 127.567 41.8554 128.172C43.2086 130.629 45.9286 131.538 47.7695 133.447C48.0774 133.766 48.9993 133.492 50.0319 133.492C46.7725 129.604 41.8982 127.857 40.2604 123.018C41.8132 123.653 43.1739 124.524 44.3399 125.605C46.7244 127.816 48.6814 130.576 52.2617 131.108C52.6508 131.166 52.919 132.038 53.0322 132.531C50.1632 134.089 52.5499 135.311 52.5802 136.691C52.955 136.667 53.3297 136.643 53.7045 136.619C53.5416 135.249 53.3788 133.879 53.4077 132.525C54.9556 135.305 56.8425 137.319 60.2425 136.769C61.6184 136.547 63.0148 136.139 64.2696 135.539C67.5392 133.976 70.8888 133.335 74.5375 133.572C80.0006 133.928 85.4835 133.997 90.9597 134.107C91.7707 134.124 92.8328 133.947 93.3641 133.432C95.5344 131.327 97.896 131.891 99.0233 134.758C99.9782 137.186 99.1622 139.518 98.7886 141.801C98.3387 144.55 99.8612 148.907 102.753 149.843C104.231 150.321 105.569 151.235 106.881 151.907C106.354 153.058 105.917 154.014 105.287 154.985C103.987 155.625 102.881 156.25 101.451 157.058C106.03 158.615 106.16 158.566 106.731 155.486C108.646 155.032 110.379 154.258 112.093 154.3C114.258 154.354 116.403 155.094 118.564 155.497C121.189 155.986 124.156 155.896 124.925 159.39C124.335 159.697 123.81 159.969 123.968 159.888C125.08 161.388 126.282 162.628 127.014 164.102C127.75 165.587 127.75 167.451 128.54 168.892C131.199 173.743 134.067 178.479 136.875 183.38C136.894 183.499 136.955 183.734 136.79 183.837C136.162 185.194 135.7 186.448 135.237 187.702C135.535 187.834 135.834 187.966 136.132 188.097C136.928 186.959 137.724 185.821 138.732 184.719C139.478 184.595 140.012 184.435 140.546 184.275C139.919 182.444 139.291 180.614 138.661 178.606C140.202 177.542 141.183 176.36 140.835 173.942C140.127 174.832 139.69 175.381 139.253 175.93C138.987 175.827 138.721 175.723 138.454 175.62C139.002 174.071 139.549 172.521 140.247 171.089C140.642 171.844 140.887 172.482 141.132 173.119C141.359 173.074 141.586 173.03 141.812 172.985C141.925 171.599 144.368 170.209 141.499 168.645C141.562 168.217 141.596 167.973 141.829 167.746C143.545 168.327 145.062 168.89 146.725 169.507C145.551 167.335 144.652 165.67 143.778 163.809C144.711 160.62 145.987 157.678 146.41 154.618C146.755 152.122 147.602 150.408 149.535 148.841C150.899 147.736 152.376 146.159 152.747 144.548C154.097 138.698 155.017 132.748 156.066 126.83C156.431 124.773 155.539 123.421 153.431 123.419C149.668 123.415 145.898 123.557 142.142 123.801C140.277 123.922 138.436 124.406 136.532 124.734C136.27 120.094 136.092 119.722 131.747 119.073C128.347 118.564 124.884 118.464 121.445 118.24C118.053 118.018 114.717 118.021 111.769 120.214C111.141 120.681 110.003 120.936 109.277 120.712C106.447 119.836 104.91 121.114 103.875 123.526C103.796 123.711 103.657 123.872 103.535 124.062C103.325 123.285 103.139 122.599 102.954 121.913C102.694 121.777 102.435 121.64 102.175 121.504C101.727 122.352 101.279 123.201 100.759 124.186C100.191 123.171 99.8975 122.646 99.6035 122.12C99.1213 123.1 99.0417 123.963 99.1352 124.807C99.5229 128.306 98.797 129.503 95.4996 130.565C93.8997 131.081 92.2628 131.49 90.6856 132.065C88.2993 132.936 87.0464 131.976 86.2627 129.734C84.7893 125.517 84.7395 125.534 80.62 127.408C80.3777 127.518 80.1417 127.642 79.8956 127.743C77.5362 128.706 76.6991 128.265 76.7104 125.736C76.7176 124.131 77.1786 122.529 77.4361 120.925C77.2563 120.769 77.0765 120.613 76.8967 120.457C75.956 121.233 74.8124 121.863 74.1274 122.822C73.3194 123.953 72.8638 125.35 72.3331 126.663C70.4231 131.389 67.862 131.926 64.1561 128.308C63.2717 127.445 62.1354 126.594 61.7541 125.512C60.9841 123.327 60.2497 120.989 60.2393 118.711C60.2254 115.665 62.4848 114.468 66.0784 114.732C65.0014 113.744 64.5668 113.345 63.7071 112.557C66.9527 110.75 69.8844 108.956 72.9568 107.45C76.7491 105.59 76.567 104.737 79.2228 108.869C79.504 109.306 79.8442 109.862 80.2776 110.011C81.0399 110.272 81.8954 110.261 82.7118 110.363C82.6711 109.616 82.7694 108.824 82.552 108.132C82.3191 107.39 81.8735 106.672 81.3746 106.063C78.5943 102.673 78.8706 99.3001 81.1724 95.7823C82.2345 94.1591 83.2428 92.4342 83.8878 90.6176C85.4251 86.2874 86.6709 81.8545 88.1532 77.5036C89.127 74.6451 91.0479 72.5494 93.884 71.0868C94.181 71.9325 94.3967 72.5464 94.69 73.3812C96.269 72.0292 97.6507 70.8461 99.028 69.8792C99.1692 70.8231 99.3147 71.5509 99.4603 72.2787C99.8215 72.2527 100.183 72.2266 100.544 72.2006C100.544 70.8037 100.544 69.4067 100.623 67.832C100.429 66.2463 100.155 64.8385 99.8816 63.4307C98.5834 67.9955 98.5834 67.9955 95.1401 68.0028C94.5548 67.8007 94.1341 67.6393 93.7131 67.2484C92.9292 63.7927 95.0925 62.149 97.5037 61.7323C100.131 61.2783 100.923 59.2323 102.401 57.79C103.603 56.6168 103.819 55.3534 101.758 54.5636C100.933 54.2476 100.277 53.4928 99.7356 53.083C98.7701 53.2352 97.8654 53.5514 96.9916 53.4814C94.7502 53.3017 93.4197 51.9061 92.3843 49.96C91.1381 47.6176 90.1645 47.6282 88.6252 49.8169C87.9679 50.7515 87.4689 51.7977 86.898 52.7932C86.5527 52.616 86.2074 52.4389 85.8621 52.2618C84.1528 49.1184 81.4288 48.1929 78.2062 48.2715C76.184 48.3209 75.2815 49.528 75.242 51.3105C75.2111 52.705 75.2472 54.2929 75.8652 55.4742C77.7989 59.1701 75.8709 61.6635 73.4663 64.4924C70.9694 63.6748 68.4654 62.8548 65.7173 61.9549C65.836 62.6681 65.9222 63.1864 66.1106 64.3185C63.9407 63.7246 62.004 63.1945 60.0805 62.4649C60.0783 61.8652 60.0628 61.465 60.2525 61.0821C61.6997 61.43 62.9415 61.7605 64.1833 62.091C64.2714 61.7919 64.3596 61.4928 64.4477 61.1937C62.8299 60.2665 61.2121 59.3392 59.62 58.2264C62.0715 55.4562 64.4973 52.8715 66.9231 50.2869C66.9888 50.4651 67.0545 50.6433 67.1202 50.8214C68.8848 49.9498 70.6494 49.0782 73.0747 47.8803C71.2504 47.3023 70.3111 47.0047 69.2801 46.678C72.5169 42.3973 72.5169 42.3973 70.9912 39.84C70.2786 40.5315 69.7464 41.4154 69.2637 42.3256C68.3729 44.0053 67.4971 43.6819 66.5848 42.1488C66.7788 40.776 66.9903 39.5956 67.2017 38.4153C66.951 38.3649 66.7002 38.3145 66.4495 38.2641C65.9455 38.9343 65.4415 39.6045 64.9153 40.0623C64.579 38.1043 65.5107 37.2964 67.1576 37.1036C67.408 37.2898 67.6836 37.4039 67.7103 37.3614C68.9193 35.4389 69.7269 33.1183 72.4325 32.7186C72.2194 32.2189 72.0063 31.7193 71.8711 31.0481C72.6242 30.6168 73.2994 30.357 74.1885 30.1685C77.9958 29.5207 81.5892 28.8017 85.2205 28.2626C87.2994 29.4177 88.9892 31.0465 91.6107 30.916C92.4669 30.8733 93.5012 32.5839 94.2953 33.6151C95.1615 34.7399 95.7366 36.0933 96.6271 37.1944C98.7363 39.8025 101.878 40.2743 104.902 40.8961C106.227 41.1686 107.59 41.2538 108.936 41.424C109.174 41.1867 109.413 40.9493 109.651 40.712C108.723 38.4826 107.794 36.2533 106.839 33.9594C108.108 33.1282 111.453 33.2821 109.207 30.8034C110.038 29.7056 110.704 28.8263 111.597 27.9595C114.328 28.3535 116.833 28.7351 119.224 29.2721C118.508 29.6245 117.905 29.8216 117.302 30.0186C117.283 30.2758 117.265 30.5331 117.247 30.7903C119.296 31.2937 121.328 31.9202 123.407 32.2105C123.903 32.2797 124.555 31.226 125.331 30.7355C131.454 33.2382 137.381 35.694 143.235 38.3094C142.66 40.3431 143.967 41.0328 145.26 41.8091C145.914 42.2019 146.432 42.8227 147.011 43.3405C147.334 42.5265 147.657 41.7125 148.156 40.9434C151.141 43.1997 153.968 45.3886 156.751 47.6328C158.018 48.6554 159.198 49.7872 160.299 51.053C158.609 51.5563 157.037 51.8761 155.632 52.162C157.051 54.2779 158.199 56.627 159.946 58.3787C161.168 59.6049 163.164 60.2076 164.923 60.6142C165.244 60.6882 166.092 58.4734 166.858 57.3927C167.67 58.448 168.322 59.4257 168.923 60.616C167.739 61.443 166.606 62.0575 165.195 62.8224C165.32 63.5998 165.402 64.9337 165.76 66.1891C166.55 68.9624 166.526 71.511 165.52 74.3674C164.12 78.342 163.961 82.5144 166.874 86.2038C167.386 86.853 167.71 87.8448 167.707 88.6772C167.689 95.2263 172.793 98.6139 176.458 102.851C176.838 103.29 178.339 103.103 179.136 102.768C181.053 101.962 182.862 100.896 184.531 100.03C185.478 101.026 186.255 101.843 187.171 102.828C187.36 110.518 187.849 118.071 187.302 125.549C186.957 130.255 185.058 134.848 183.684 139.574C181.724 143.902 179.92 148.138 178.182 152.402C178.031 152.772 178.319 153.321 178.408 153.982C173.509 163.9 167.023 172.37 158.907 179.669C150.312 187.4 140.611 193.221 129.75 196.998C124.618 198.783 119.233 199.842 113.728 201.259C107.002 201.799 100.507 202.952 93.9958 201.874C87.6512 200.823 81.3539 199.487 74.963 198.128C74.2373 197.853 73.5845 197.727 72.8275 197.453C71.9115 196.724 71.1434 196.06 70.2692 195.596C69.8348 195.365 69.2058 195.501 68.4697 195.451C62.8821 192.59 57.4989 189.733 52.0859 186.933C51.3964 186.576 50.5516 186.52 49.7788 186.325C49.7788 186.325 49.669 186.248 49.7163 186.019C48.3478 184.903 46.932 184.015 45.5161 183.128C45.5161 183.128 45.3994 183.051 45.4497 182.822C44.2542 181.698 43.0084 180.801 41.7625 179.904C41.7625 179.904 41.6676 179.81 41.7236 179.609C41.6132 179.393 41.4469 179.379 41.2806 179.365C41.2806 179.365 41.1424 179.309 41.1896 179.097C40.5976 178.389 39.9585 177.893 39.3193 177.397ZM101.046 89.3246C103.618 88.7437 106.119 85.8122 108.757 89.1348C106.59 91.0629 104.747 93.2042 105.066 96.1914C106.913 95.4185 108.42 94.4491 110.035 94.2074C111.671 93.9626 113.415 94.4376 115.735 94.6559C114.93 93.6668 114.6 93.2617 114.263 92.8472C115.436 92.7481 116.473 92.6606 117.51 92.573C117.513 92.3169 117.516 92.0608 117.519 91.8047C116.318 91.2219 115.118 90.639 113.917 90.0561C115.595 89.2292 118.08 90.7404 118.118 87.4794C115.824 86.496 112.741 87.4879 111.239 84.6525C111.092 84.3754 110.428 84.264 110.003 84.2604C106.426 84.2303 102.848 84.2433 98.7186 84.2433C99.1464 86.4692 99.42 87.8934 99.3295 89.5793C99.3295 90.8959 99.3295 92.2126 99.3295 93.5293C99.7699 93.5289 100.21 93.5285 100.651 93.5282C100.651 92.1369 100.651 90.7456 101.046 89.3246ZM145.5 58.3766C145.916 57.9083 146.332 57.4401 146.748 56.9717C146.06 56.9502 145.284 56.7115 144.699 56.947C142.744 57.7329 140.844 58.6603 138.958 59.6035C138.587 59.7891 138.372 60.2865 137.676 61.1429C139.295 60.9866 140.298 60.8896 141.03 60.8189C141.808 61.541 142.465 62.151 143.121 62.761C143.226 60.7716 142.668 58.9866 145.5 58.3766ZM111.568 106.995C110.001 106.343 108.434 105.69 106.6 104.926C106.151 106.387 105.711 107.821 105.215 109.435C107.669 109.088 109.64 108.847 111.586 108.475C111.785 108.437 111.834 107.608 111.568 106.995ZM97.3998 157.543C98.5866 157.465 99.7735 157.387 100.96 157.309C100.746 155.992 100.531 154.674 100.356 153.599C98.9241 154.667 97.829 155.437 96.8121 156.3C96.6803 156.411 96.9528 157 97.3998 157.543ZM150.61 111.676C149.235 112.445 147.859 113.215 146.484 113.984C146.491 114.227 146.498 114.469 146.505 114.712C147.858 114.881 149.211 115.049 150.565 115.217C150.617 114.169 150.67 113.12 150.61 111.676ZM98.612 114.157C100.018 115.624 101.34 114.988 102.701 114.492C101.571 113.033 100.713 111.925 99.5656 110.444C99.2143 111.69 98.9278 112.707 98.612 114.157ZM57.3937 165.676C56.7619 166.208 56.1301 166.74 55.4983 167.271C55.5368 167.518 55.5754 167.764 55.6139 168.011C56.9058 167.869 58.1978 167.728 59.8871 167.542C59.4715 166.01 59.1497 164.823 58.8279 163.636C58.5994 163.618 58.3709 163.6 58.1425 163.582C57.9168 164.15 57.6912 164.718 57.3937 165.676ZM148.779 101.009C149.005 102.273 149.231 103.537 149.457 104.801C151.22 101.983 150.976 101.093 148.779 101.009ZM110.82 67.4932C110.04 67.501 109.228 67.3818 108.489 67.5623C108.016 67.6778 107.651 68.2356 107.238 68.5951C107.694 68.8462 108.139 69.2759 108.61 69.3076C109.369 69.3588 110.195 69.2683 110.891 68.9854C111.154 68.8785 111.132 68.0711 110.82 67.4932ZM52.7742 137.863C52.7742 139.25 52.7742 140.636 52.7742 142.704C54.7407 140.386 54.6575 138.959 52.7742 137.863ZM114.599 157.1C113.871 157.233 113.144 157.366 112.416 157.499C112.449 157.739 112.482 157.979 112.514 158.219C113.969 158.693 115.419 159.871 117.46 158.088C116.298 157.645 115.659 157.401 114.599 157.1ZM112.501 67.7739C113.751 67.9745 114.996 68.2241 116.254 68.327C116.461 68.3439 116.722 67.7184 116.958 67.3898C116.574 67.1303 116.162 66.6178 115.813 66.6582C114.726 66.7839 113.663 67.119 112.501 67.7739ZM54.8949 144.833C54.6954 144.125 54.4959 143.416 54.2963 142.708C53.9264 142.788 53.5565 142.868 53.1866 142.948C53.3892 144.411 53.5918 145.873 53.7944 147.336C54.1686 147.311 54.5427 147.285 54.9169 147.26C54.9531 146.582 54.9894 145.904 54.8949 144.833ZM105.013 69.6018C105.446 69.3976 105.879 69.1934 106.312 68.9892C106.092 68.6798 105.89 68.1199 105.651 68.103C104.381 68.0138 103.102 68.0611 101.826 68.0611C101.812 68.4544 101.797 68.8476 101.783 69.2409C102.708 69.3633 103.633 69.4858 105.013 69.6018ZM91.8056 157.795C93.0924 157.894 94.3792 157.994 95.9749 158.117C94.8281 155.862 93.6777 155.82 91.8056 157.795ZM57.0204 156.038C56.6273 155.113 56.2342 154.189 55.8411 153.264C55.5092 153.395 55.1772 153.525 54.8453 153.655C55.081 154.713 55.2317 155.802 55.6005 156.811C55.7221 157.144 56.4073 157.27 56.8347 157.491C56.9384 157.132 57.0421 156.774 57.0204 156.038ZM56.7585 158.737C55.8047 160.54 56.4003 161.831 57.6653 162.9C57.9917 162.789 58.3182 162.677 58.6447 162.566C58.1452 161.313 57.6457 160.06 56.7585 158.737ZM63.4352 179.117C63.1101 179.694 62.4066 180.385 62.539 180.824C62.8111 181.724 63.5307 182.489 64.0661 183.31C64.3338 183.136 64.6015 182.963 64.8692 182.789C64.4864 181.658 64.1035 180.526 63.4352 179.117ZM140.484 51.3004C139.939 50.2734 139.395 49.2464 138.85 48.2194C138.532 48.3807 138.213 48.542 137.895 48.7033C138.239 49.7312 138.507 50.7973 138.989 51.7548C139.086 51.9464 140.002 51.7241 140.484 51.3004ZM148.862 86.6642C148.613 85.9457 148.365 85.2272 148.116 84.5087C147.805 84.5455 147.495 84.5824 147.185 84.6192C147.185 85.5626 147.06 86.53 147.235 87.4397C147.328 87.9186 147.944 88.2965 148.323 88.7201C148.552 88.1674 148.781 87.6147 148.862 86.6642ZM148.639 95.3275C148.692 96.6905 148.745 98.0534 148.798 99.4164C149.144 99.3825 149.49 99.3487 149.836 99.3148C150.028 97.9115 151.244 96.4076 148.639 95.3275ZM149.559 93.5764C149.596 92.1344 150.176 90.4025 148.412 89.922C148.018 90.1328 147.624 90.3437 147.23 90.5546C147.92 91.6726 148.609 92.7907 149.559 93.5764ZM67.4204 193.083C69.1114 191.893 68.741 190.395 65.8866 188.928C66.4037 190.494 66.7853 191.649 67.4204 193.083ZM70.914 162.153C72.5073 162.219 74.0449 162.199 74.4767 160.459C74.2765 160.151 74.0764 159.843 73.8763 159.535C72.7981 160.318 71.7199 161.1 70.914 162.153ZM89.7227 158.463C89.668 157.882 89.6133 157.302 89.5586 156.721C88.4503 156.966 87.3419 157.21 86.2335 157.455C86.2506 157.76 86.2678 158.064 86.2849 158.369C87.3002 158.446 88.3155 158.523 89.7227 158.463ZM138.707 46.0759C138.326 45.0673 137.945 44.0586 137.564 43.0499C137.218 43.1398 136.873 43.2296 136.528 43.3194C136.794 44.4693 137.044 45.6239 137.388 46.7501C137.4 46.7901 138.331 46.5498 138.707 46.0759ZM149.9 54.1696C149.138 54.6702 148.376 55.1707 147.615 55.6713C147.667 55.9022 147.719 56.133 147.772 56.3639C148.447 56.309 149.221 56.4418 149.773 56.1522C150.481 55.7814 151.01 55.0703 151.617 54.5059C151.145 54.3215 150.674 54.1371 149.9 54.1696ZM55.8703 150.023C55.5128 149.415 55.1553 148.808 54.7978 148.2C54.531 148.391 54.0169 148.615 54.0369 148.769C54.1907 149.951 54.4483 151.119 54.6736 152.292C54.9502 152.281 55.2268 152.27 55.5034 152.259C55.6293 151.659 55.7551 151.058 55.8703 150.023ZM142.852 65.4837C143.169 66.3249 143.487 67.1662 143.804 68.0075C144.138 67.9448 144.471 67.882 144.804 67.8193C144.586 66.6001 144.368 65.3809 144.15 64.1617C143.692 64.4644 143.233 64.7671 142.852 65.4837ZM124.38 66.4079C125.364 66.0685 126.349 65.729 127.334 65.3896C127.246 65.0198 127.157 64.65 127.068 64.2801C125.838 64.5537 124.609 64.8273 123.379 65.1008C123.572 65.5333 123.765 65.9657 124.38 66.4079ZM121.838 66.5985C121.005 65.2342 119.482 65.4639 118.048 67.8706C119.242 67.5591 120.437 67.2476 121.838 66.5985ZM148.058 82.5278C147.744 81.4008 147.43 80.2737 147.116 79.1467C146.751 79.2453 146.386 79.344 146.021 79.4427C146.244 80.6438 146.446 81.8501 146.743 83.0328C146.76 83.1004 147.543 82.9759 148.058 82.5278ZM44.4754 174.787C45.0182 174.549 45.5611 174.311 46.1039 174.072C45.795 173.677 45.4861 173.281 45.1772 172.885C43.9496 173.546 42.7221 174.206 41.4946 174.866C41.6365 175.175 41.7783 175.485 41.9202 175.794C42.664 175.531 43.4078 175.267 44.4754 174.787ZM148.483 169.337C148.359 169.76 148.082 170.532 148.134 170.556C149.197 171.025 150.299 171.408 151.393 171.808C151.525 171.471 151.658 171.134 151.79 170.797C150.815 170.315 149.839 169.832 148.483 169.337ZM141.126 53.9368C140.662 54.0456 140.199 54.1544 139.736 54.2632C140.23 55.3309 140.725 56.3986 141.219 57.4662C141.548 57.3229 141.878 57.1796 142.207 57.0362C141.934 56.1033 141.66 55.1703 141.126 53.9368ZM52.5164 168.36C52.0251 168.852 51.5338 169.345 51.0425 169.837C51.2007 170.057 51.3589 170.278 51.5171 170.498C52.2706 170.2 53.0829 169.996 53.7559 169.572C54.1738 169.308 54.3805 168.709 54.682 168.26C54.0819 168.239 53.4819 168.218 52.5164 168.36Z" fill="#59CCD2"/>
<path d="M85.1842 28.0825C81.5908 28.8015 77.9973 29.5206 74.1966 29.9283C73.9876 27.9999 73.9859 26.383 73.9875 24.5869C73.8208 23.997 73.6508 23.5861 73.4807 23.1753C73.4807 23.1753 73.4804 23.2302 73.6405 23.1967C74.5613 21.5861 75.3219 20.0089 76.1027 18.39C75.4073 18.1979 74.6916 18.0003 73.976 17.8026C73.9802 13.8164 73.9253 9.82294 76.234 6.28426C78.8665 2.24918 82.6427 0.298622 87.3921 0.294238C112.97 0.270625 138.547 0.283051 164.125 0.283063C186.327 0.283073 208.53 0.281373 230.733 0.284109C238.2 0.285028 243.992 6.06534 243.993 13.587C244.002 80.7754 243.996 147.964 244.002 215.152C244.002 220.16 241.662 223.914 237.209 227.202C239.701 227.422 241.614 227.592 243.527 227.761C243.534 228.046 243.542 228.331 243.549 228.616C240.408 228.944 237.272 229.502 234.127 229.56C219.678 229.827 205.227 230 190.776 230.123C165.138 230.342 139.499 230.579 113.859 230.647C102.519 230.677 91.1761 230.398 79.8386 230.098C72.6031 229.906 65.3745 229.433 58.1453 229.041C57.3771 229 56.6251 228.66 55.8656 228.458C55.8557 228.181 55.8458 227.904 55.8359 227.626C63.6688 227.217 71.5016 226.807 79.8321 226.371C74.0876 222.071 73.7529 216.295 74.0073 209.863C74.0135 208.848 74.0039 208.295 73.9943 207.742C73.811 206.637 73.6276 205.532 73.4618 203.987C73.2948 201.942 73.1103 200.337 73.1407 198.703C73.9163 198.541 74.4768 198.409 75.0373 198.276C81.3554 199.487 87.6528 200.823 93.9973 201.874C100.508 202.952 107.004 201.799 113.977 201.29C118.365 201.273 122.275 201.172 126.179 201.285C127.404 201.32 128.613 201.931 130.084 202.351C131.983 200.481 141.291 200.598 142.684 202.155C146.902 201.817 150.525 201.288 154.151 201.275C175.82 201.196 197.49 201.24 219.159 201.234C228.201 201.232 232.238 197.224 232.238 188.28C232.239 135.579 232.189 82.8772 232.301 30.176C232.315 23.5397 227.838 18.1433 220.468 18.2066C191.074 18.4588 161.676 18.3084 132.28 18.3184C131.311 18.3188 130.341 18.4413 129.14 18.4772C127.653 18.4304 126.399 18.4134 124.959 18.3722C123.116 18.2361 121.6 16.1951 119.646 17.8623C118.165 16.9763 116.842 16.2124 114.914 15.0988C114.914 16.8625 114.914 17.6066 114.672 18.3334C110.701 18.3142 106.971 18.3754 103.246 18.2638C102.368 18.2374 101.508 17.6285 100.64 17.2875C101.387 16.8768 102.141 16.4763 102.877 16.0458C103.005 15.9708 103.059 15.7696 103.576 14.935C101.85 14.8522 100.498 14.7873 99.1178 14.7212C99.0005 16.1077 98.9202 17.0577 98.8133 18.3223C97.7559 18.3223 96.805 18.3215 95.8541 18.3225C92.5819 18.326 89.9457 19.7732 88.1571 22.3694C87.0319 24.0027 86.5001 26.0455 85.5724 27.9483C85.3565 28.0223 85.2704 28.0524 85.1842 28.0825ZM160.839 206.146C159.952 206.143 159.063 206.096 158.179 206.144C154.322 206.351 150.765 209.654 150.23 213.49C149.679 217.436 152.547 222.079 156.196 223.151C160.577 224.438 164.705 222.863 166.619 219.174C169.437 213.742 167.41 208.811 160.839 206.146ZM129.134 208.801C130.098 208.392 131.063 207.983 132.027 207.575C131.96 207.299 131.893 207.023 131.826 206.747C130.722 206.795 129.619 206.844 128.808 206.879C128.729 205.767 128.653 204.7 128.577 203.632C127.739 204.638 126.901 205.644 125.89 206.858C127.065 207.68 127.897 208.261 129.134 208.801ZM109.256 212.935C109.945 212.634 110.634 212.333 111.323 212.032C111.231 211.683 111.139 211.335 111.047 210.986C109.609 211.165 108.171 211.344 106.733 211.523C106.713 211.835 106.694 212.147 106.674 212.459C107.397 212.637 108.12 212.814 109.256 212.935ZM107.093 14.7567C106.165 14.8693 105.236 14.9818 104.307 15.0943C104.322 15.4348 104.338 15.7753 104.353 16.1158C105.239 16.3224 106.119 16.6369 107.014 16.6926C107.503 16.7231 108.019 16.3151 108.522 16.1049C108.19 15.6734 107.858 15.242 107.093 14.7567ZM84.6809 17.4271C86.9524 17.2117 86.9524 17.2117 86.9731 15.5162C85.9343 15.6256 84.8857 15.6487 83.8897 15.8895C83.5507 15.9714 83.344 16.6013 83.0768 16.9808C83.4775 17.1618 83.8781 17.3428 84.6809 17.4271ZM113.937 210.45C113.271 210.713 112.606 210.975 111.94 211.238C112.006 211.585 112.072 211.932 112.138 212.278C113.594 212.139 115.049 211.999 116.505 211.859C116.521 211.512 116.536 211.164 116.552 210.817C115.824 210.683 115.095 210.55 113.937 210.45ZM83.7876 210.377C82.6902 210.216 81.5928 210.055 80.4954 209.893C80.4203 210.305 80.3452 210.717 80.2701 211.129C81.4852 211.395 82.7002 211.661 83.9152 211.927C84.0046 211.455 84.094 210.983 83.7876 210.377ZM78.4779 209.318C77.3921 209.147 76.3064 208.975 75.2206 208.803C75.1436 209.216 75.0667 209.629 74.9897 210.042C76.2104 210.315 77.431 210.589 78.6517 210.863C78.7279 210.391 78.8041 209.92 78.4779 209.318ZM95.139 212.264C93.7102 210.726 92.2577 211.406 90.8087 211.762C90.8103 212.145 90.8118 212.528 90.8133 212.911C92.222 212.834 93.6307 212.757 95.139 212.264ZM111.476 15.2432C110.856 15.4703 110.235 15.6975 109.615 15.9246C109.675 16.1904 109.735 16.4563 109.795 16.7222C111.122 16.8933 112.448 17.0645 113.775 17.2357C113.861 16.8921 113.947 16.5485 114.033 16.2049C113.326 15.8956 112.619 15.5863 111.476 15.2432ZM77.9107 18.0926C79.5639 18.6974 80.9853 18.5922 81.9771 17.1709C81.8551 16.8188 81.733 16.4667 81.611 16.1146C80.339 16.6383 79.0671 17.162 77.9107 18.0926ZM87.5769 210.906C86.9363 211.03 86.2956 211.154 85.655 211.279C85.6867 211.575 85.7185 211.871 85.7502 212.167C87.1006 212.167 88.4511 212.167 89.8015 212.167C89.8478 211.92 89.8942 211.673 89.9405 211.426C89.3057 211.256 88.6709 211.086 87.5769 210.906Z" fill="#2F2F2F"/>
<path d="M66.6027 42.3413C67.4976 43.6818 68.3734 44.0052 69.2642 42.3255C69.7469 41.4153 70.2791 40.5314 70.9917 39.8399C72.5174 42.3972 72.5174 42.3972 69.2806 46.6779C70.3116 47.0046 71.2509 47.3022 73.0752 47.8802C70.6499 49.0781 68.8853 49.9498 67.1207 50.8214C67.055 50.6432 66.9893 50.465 66.9236 50.2868C64.4978 52.8714 62.072 55.4561 59.4934 58.2261C59.3406 58.4114 59.0862 58.4147 58.8946 58.3952C57.8523 58.0768 57.0016 57.7781 56.1508 57.4794C55.7555 57.9441 55.3601 58.4089 54.9647 58.8737C55.7784 59.1531 56.6732 59.3057 57.3775 59.7562C57.8537 60.0608 58.4292 60.8718 58.3267 61.3066C57.8704 63.2418 59.288 62.4926 60.0677 62.6643C62.0045 63.1944 63.9412 63.7245 66.1111 64.3185C65.9227 63.1863 65.8365 62.668 65.7178 61.9549C68.4659 62.8548 70.9699 63.6747 73.4668 64.4924C75.8714 61.6634 77.7994 59.17 75.8657 55.4742C75.2476 54.2928 75.2116 52.7049 75.2425 51.3104C75.282 49.5279 76.1845 48.3208 78.2067 48.2714C81.4293 48.1928 84.1533 49.1183 85.8626 52.2617C86.2079 52.4388 86.5532 52.616 86.8985 52.7931C87.4694 51.7976 87.9684 50.7514 88.6257 49.8168C90.165 47.6282 91.1386 47.6175 92.3848 49.9599C93.4202 51.906 94.7507 53.3017 96.9921 53.4813C97.8659 53.5513 98.7705 53.2351 99.7361 53.0829C100.277 53.4927 100.934 54.2475 101.758 54.5635C103.819 55.3533 103.603 56.6167 102.401 57.7899C100.923 59.2322 100.131 61.2782 97.5042 61.7322C95.093 62.1489 92.9297 63.7926 93.5033 67.2497C92.7709 67.6744 92.217 67.8182 91.7559 68.1092C91.6747 68.1605 91.8729 68.9375 92.1285 69.1909C93.1219 70.1753 94.7747 69.5538 95.3051 68.0434C98.5839 67.9954 98.5839 67.9954 99.8821 63.4306C100.156 64.8384 100.43 66.2462 100.486 67.9127C99.8573 68.6686 99.4451 69.1658 99.0328 69.663C97.6511 70.846 96.2695 72.0291 94.6905 73.3811C94.3972 72.5463 94.1815 71.9324 93.8845 71.0868C91.0484 72.5493 89.1275 74.645 88.1537 77.5035C86.6714 81.8544 85.4256 86.2873 83.8883 90.6175C83.2433 92.4341 82.235 94.1591 81.1729 95.7822C78.871 99.3 78.5948 102.673 81.3751 106.063C81.874 106.672 82.3196 107.39 82.5525 108.132C82.7699 108.824 82.6716 109.616 82.7123 110.363C81.8959 110.261 81.0404 110.272 80.2781 110.011C79.8447 109.862 79.5045 109.306 79.2233 108.869C76.5674 104.737 76.7495 105.59 72.9573 107.45C69.8849 108.956 66.9531 110.75 63.7076 112.557C64.5673 113.345 65.0019 113.744 66.0789 114.732C62.4853 114.467 60.2259 115.665 60.2398 118.711C60.2502 120.989 60.9846 123.327 61.7546 125.512C62.1359 126.594 63.2722 127.445 64.1566 128.308C67.8625 131.926 70.4236 131.389 72.3336 126.663C72.8643 125.35 73.3199 123.953 74.1279 122.822C74.8129 121.863 75.9565 121.233 76.8972 120.457C77.077 120.613 77.2568 120.769 77.4366 120.925C77.1791 122.529 76.7181 124.131 76.7109 125.736C76.6996 128.265 77.5367 128.706 79.8961 127.743C80.1422 127.642 80.3782 127.518 80.6205 127.407C84.74 125.534 84.7898 125.517 86.2632 129.734C87.0469 131.976 88.2998 132.936 90.6861 132.065C92.2633 131.49 93.9002 131.081 95.5001 130.565C98.7975 129.503 99.5234 128.306 99.1357 124.807C99.0422 123.963 99.1218 123.1 99.604 122.12C99.898 122.646 100.192 123.171 100.759 124.185C101.279 123.201 101.727 122.352 102.176 121.504C102.435 121.64 102.695 121.777 102.954 121.913C103.14 122.599 103.325 123.285 103.535 124.062C103.658 123.872 103.796 123.711 103.876 123.526C104.91 121.114 106.447 119.836 109.278 120.711C110.003 120.936 111.142 120.681 111.769 120.214C114.717 118.021 118.053 118.018 121.445 118.24C124.884 118.464 128.348 118.564 131.748 119.073C136.093 119.722 136.271 120.093 136.533 124.734C138.436 124.406 140.278 123.922 142.143 123.801C145.899 123.556 149.668 123.415 153.432 123.419C155.539 123.421 156.431 124.773 156.066 126.83C155.017 132.748 154.097 138.698 152.748 144.548C152.376 146.158 150.899 147.736 149.536 148.841C147.603 150.408 146.756 152.121 146.411 154.618C145.988 157.678 144.711 160.62 143.614 163.884C142.413 164.634 141.402 165.114 140.376 165.6C140.851 166.406 141.241 167.067 141.63 167.728C141.596 167.973 141.563 168.217 141.374 168.729C140.844 169.655 140.47 170.314 140.097 170.972C139.549 172.521 139.002 174.071 138.455 175.62C138.721 175.723 138.987 175.826 139.254 175.93C139.69 175.381 140.127 174.832 140.836 173.942C141.184 176.36 140.202 177.541 138.492 178.733C137.835 180.445 137.345 181.852 136.856 183.26C134.068 178.479 131.2 173.742 128.54 168.891C127.75 167.451 127.75 165.587 127.014 164.102C126.283 162.628 125.08 161.388 123.968 159.887C123.81 159.969 124.336 159.697 124.925 159.39C124.156 155.896 121.189 155.986 118.564 155.496C116.403 155.094 114.258 154.354 112.093 154.3C110.38 154.258 108.647 155.032 106.573 155.458C105.976 155.305 105.728 155.137 105.48 154.969C105.917 154.014 106.355 153.058 106.882 151.907C105.569 151.235 104.232 150.321 102.754 149.843C99.8616 148.907 98.3392 144.55 98.7891 141.801C99.1627 139.518 99.9787 137.186 99.0238 134.757C97.8965 131.891 95.5348 131.327 93.3645 133.432C92.8333 133.947 91.7712 134.124 90.9602 134.107C85.484 133.997 80.001 133.928 74.538 133.572C70.8893 133.335 67.5397 133.975 64.2701 135.539C63.0153 136.139 61.6189 136.547 60.243 136.769C56.843 137.319 54.9561 135.305 53.4054 132.542C53.2107 132.542 53.2437 132.533 53.2437 132.533C52.9195 132.038 52.6513 131.166 52.2622 131.108C48.6819 130.576 46.7249 127.816 44.3404 125.605C43.1744 124.524 41.8137 123.653 40.2609 123.018C41.8987 127.857 46.773 129.604 50.0323 133.492C48.9998 133.492 48.0779 133.766 47.77 133.447C45.9291 131.538 43.2091 130.629 41.8559 128.172C41.5228 127.567 40.9653 127.081 40.4868 126.562C38.1428 124.022 35.9191 121.353 33.4094 118.988C30.1894 115.954 29.3288 112.16 29.2604 108.022C29.2032 104.559 28.83 101.037 29.3133 97.6436C30.3368 90.4559 27.6466 83.4477 28.6551 76.2624C28.8637 74.7758 27.5324 73.0728 26.7694 71.1048C25.2613 73.249 23.9533 75.1087 22.4683 76.8224C22.6478 75.1909 23.0043 73.7054 23.3609 72.2199C23.3609 72.2199 23.3993 71.9979 23.5757 71.8617C23.8301 71.3746 23.9082 71.0236 23.9863 70.6726C26.1398 67.3334 28.2932 63.9941 30.7896 60.5621C31.3799 60.126 31.6274 59.7828 31.8749 59.4395C31.8749 59.4395 31.8838 59.4763 32.0202 59.4051C32.2521 59.0299 32.3476 58.726 32.4431 58.422C32.4431 58.422 32.4269 58.4118 32.5773 58.3984C32.8087 58.2206 32.8897 58.056 32.9706 57.8914C32.9706 57.8914 32.959 57.8788 33.1096 57.8645C33.3404 57.6841 33.4206 57.518 33.5009 57.3518C33.5009 57.3518 33.4921 57.3458 33.6398 57.3272C33.8677 57.1408 33.948 56.9731 34.0283 56.8053C34.0283 56.8053 34.027 56.8163 34.1612 56.781C34.3817 56.5812 34.4681 56.4168 34.5544 56.2524C34.5544 56.2524 34.5598 56.2813 34.6826 56.2377C34.8985 56.0336 34.9915 55.873 35.0845 55.7125C35.0845 55.7125 35.0891 55.7464 35.2257 55.6765C35.4569 55.3023 35.5515 54.998 35.6461 54.6936C35.6461 54.6936 35.6243 54.6786 35.777 54.6657C36.0093 54.4885 36.0889 54.3242 36.1685 54.1599C36.1685 54.1599 36.1566 54.1457 36.3077 54.1326C36.5396 53.955 36.6204 53.7904 36.7013 53.6258C36.7013 53.6258 36.6895 53.6124 36.8401 53.599C37.0718 53.421 37.1528 53.2564 37.2338 53.0918C37.2338 53.0918 37.2224 53.0791 37.373 53.0658C37.6045 52.8878 37.6853 52.7229 37.7662 52.558C37.7662 52.558 37.7553 52.5458 37.906 52.5322C38.1371 52.3532 38.2176 52.1879 38.298 52.0225C38.298 52.0225 38.2883 52.0125 38.438 51.9983C38.6686 51.8186 38.7493 51.653 38.83 51.4874C38.83 51.4874 38.8212 51.4792 38.9703 51.4652C39.2007 51.2857 39.282 51.1201 39.3632 50.9545C39.3632 50.9545 39.354 50.9465 39.5256 50.9692C39.9407 50.7845 40.1842 50.5772 40.4778 50.2332C40.8158 49.8466 41.1037 49.5966 41.5852 49.3549C42.0366 49.3574 42.2943 49.3517 42.5934 49.4578C42.7947 49.5033 42.9547 49.437 43.1041 49.3578C43.0935 49.345 43.0913 49.3782 43.2652 49.3796C43.7285 49.1993 44.0177 49.0177 44.3943 48.8071C44.5949 48.7154 44.6719 48.6227 44.9017 48.4018C46.6421 48.4376 48.784 47.988 49.6166 48.832C51.1466 50.3828 52.2392 50.6872 53.9919 49.5382C56.7023 47.7614 59.1662 45.4031 62.7709 45.7213C63.1384 46.3213 63.4846 46.7141 63.8309 47.107C64.3444 46.2503 64.9227 45.4203 65.2987 44.5069C65.3525 44.3764 64.4277 43.8425 63.8416 43.3322C63.2657 42.233 62.804 41.2969 62.2762 40.2268C61.829 40.0851 61.0617 39.842 60.3303 39.6103C60.8993 38.6353 61.3411 37.8781 61.9754 37.0814C63.799 36.5118 65.4301 35.9817 67.0633 35.6412C67.0659 36.2067 67.0665 36.5826 67.0671 36.9585C65.5112 37.2963 64.5795 38.1042 64.9123 40.273C65.4883 41.2445 66.0455 41.7929 66.6027 42.3413ZM50.6646 114.502C52.2206 116.375 53.414 114.841 53.6876 115.062C52.8867 113.98 52.0858 112.898 51.1795 111.674C51.621 111.417 51.3837 111.472 51.345 111.591C51.0771 112.416 50.8507 113.255 50.6646 114.502ZM52.8376 100.774C50.8294 101.543 50.551 102.643 52.3222 105.462C52.6534 103.587 52.8731 102.343 52.8376 100.774ZM148.622 128.749C148.757 129.643 148.893 130.537 149.029 131.431C149.317 131.42 149.605 131.409 149.893 131.398C150.147 130.084 150.4 128.771 150.654 127.457C150.444 127.337 150.234 127.217 150.024 127.096C149.577 127.504 149.129 127.912 148.622 128.749ZM63.7156 48.7518C60.8662 48.6564 61.954 50.9248 61.3443 52.174C61.6289 52.3386 61.9136 52.5032 62.1983 52.6678C62.7308 51.4903 63.2633 50.3129 63.7156 48.7518ZM53.2983 97.2967C53.2932 96.6599 53.288 96.0231 53.2829 95.3862C52.8828 95.4764 52.1615 95.509 52.1335 95.6658C51.9176 96.872 51.8363 98.1024 51.7132 99.3252C52.057 99.372 52.4009 99.4187 52.7448 99.4655C52.9076 98.8828 53.0703 98.3001 53.2983 97.2967ZM135.105 162.826C134.545 162.796 133.985 162.766 133.426 162.737C133.418 163.052 133.315 163.607 133.416 163.648C134.59 164.116 135.795 164.507 136.992 164.919C137.117 164.576 137.242 164.234 137.367 163.891C136.741 163.569 136.115 163.247 135.105 162.826ZM53.7117 93.2202C53.8327 92.1675 53.9537 91.1147 54.0747 90.0619C53.7407 89.9734 53.4068 89.8848 53.0728 89.7962C52.7725 90.9062 52.4438 92.0109 52.2361 93.1379C52.2223 93.2126 53.129 93.4572 53.7117 93.2202ZM87.1285 68.5539C88.2045 68.6408 89.2805 68.7276 90.3564 68.8145C90.3822 68.4952 90.408 68.1759 90.4338 67.8566C89.4631 67.5665 88.5036 67.1931 87.5118 67.0586C87.3196 67.0325 87.0011 67.9387 87.1285 68.5539ZM149.591 138.771C149.156 138.589 148.397 138.174 148.334 138.262C147.434 139.506 147.02 140.801 148.605 142.42C148.976 141.111 149.249 140.145 149.591 138.771ZM148.199 136.267C148.632 136.29 149.426 136.399 149.443 136.324C149.723 135.142 149.902 133.937 150.105 132.737C149.708 132.657 149.312 132.577 148.915 132.497C148.644 133.619 148.373 134.741 148.199 136.267ZM54.1255 83.2437C54.777 82.0692 55.4284 80.8947 56.0798 79.7203C55.7795 79.5789 55.4792 79.4375 55.1789 79.296C53.4033 79.927 53.7319 81.4649 54.1255 83.2437Z" fill="#C7F3F6"/>
<path d="M23.1829 72.2925C23.0046 73.7054 22.6481 75.1909 22.2968 76.8847C22.3021 77.0929 22.2984 77.0746 22.1717 77.141C22.1326 77.5247 22.2202 77.8419 22.3078 78.1592C21.5676 79.9602 21.1138 81.9576 20.0382 83.5287C15.1306 90.6974 14.684 99.0029 13.8196 107.186C13.5705 109.544 14.0547 111.972 14.0532 114.367C14.0516 116.927 13.6804 119.495 13.8059 122.044C14.2905 131.883 16.9107 141.217 20.9988 150.129C22.9758 154.439 25.2793 158.598 27.3121 163.001C17.3432 148.972 12.7707 133.091 12.1774 115.487C12.1572 114.462 12.1443 113.89 12.1313 113.319C12.5456 99.2679 15.7576 85.9297 22.2847 73.4384C22.483 73.0588 22.7628 72.7219 23.1829 72.2925Z" fill="#79D7DC"/>
<path d="M41.3919 49.3467C41.104 49.5966 40.8161 49.8466 40.3407 50.2469C40.0624 50.3825 39.9716 50.3676 39.8809 50.3527C37.2193 48.4481 34.5578 46.5435 31.618 44.4398C29.6558 46.4711 27.2401 48.972 24.6354 51.4664C24.4465 51.46 24.48 51.4906 24.4237 51.3168C24.0185 51.0651 23.6698 50.9873 23.3408 50.9272C23.3607 50.9448 23.3988 50.9818 23.3988 50.9818C24.2398 49.4009 24.6059 47.6496 26.8903 47.0232C27.9839 46.7233 28.5254 44.6617 29.4817 43.5384C30.5761 42.2528 31.7466 40.9863 33.0709 39.9508C37.4236 36.5469 41.8547 33.2428 46.283 29.9371C46.5222 29.7585 47.0104 29.9139 47.5418 29.9371C47.7009 29.9604 47.6692 29.9243 47.6692 29.9243C47.3913 30.7062 47.3438 31.8918 46.7978 32.2037C43.4775 34.1006 40.6453 36.6089 37.6236 38.8914C35.8873 40.2031 34.5006 41.7041 33.1408 43.1297C35.8077 45.0031 38.4648 46.8697 41.2845 48.9317C41.4471 49.1271 41.3919 49.3467 41.3919 49.3467Z" fill="white"/>
<path d="M32.2763 181.442C32.1757 186.891 37.1479 188.27 40.2202 191.052C42.803 193.39 45.9917 195.051 48.8529 197.094C49.3833 197.473 49.6317 198.248 50.0121 199.023C50.0139 199.207 50.0527 199.167 50.0527 199.167C49.5229 199.18 48.846 199.413 48.4872 199.172C45.9386 197.46 43.44 195.671 40.9565 193.864C39.3036 192.661 37.6393 191.461 36.0916 190.13C33.6445 188.025 31.2854 185.818 28.9169 183.624C28.8195 183.534 29.0037 183.139 28.8808 182.766C28.7048 182.645 28.6483 182.683 28.8008 182.841C29.238 182.7 29.5227 182.401 29.7895 182.12C29.7717 182.138 29.7403 182.178 29.7403 182.178C30.4826 181.985 31.2249 181.792 32.1419 181.542C32.3166 181.486 32.2763 181.442 32.2763 181.442Z" fill="white"/>
<path d="M28.7286 182.622C27.1489 181.276 25.208 180.205 24.0033 178.586C20.1042 173.345 16.4722 167.905 12.7633 162.523C12.6829 162.406 12.9134 162.075 13.0235 161.684C13.0482 161.524 13.0137 161.555 13.0137 161.555C14.9192 160.579 15.2389 162.474 15.8397 163.336C19.2561 168.237 22.4568 173.29 25.8945 178.175C26.8837 179.581 28.4147 180.605 29.7187 181.991C29.7401 182.178 29.7715 182.138 29.6071 182.137C29.1779 182.319 28.913 182.501 28.6481 182.683C28.6481 182.683 28.7046 182.645 28.7286 182.622Z" fill="white"/>
<path d="M41.586 49.3549C41.3924 49.3466 41.4476 49.1271 41.4562 49.0142C48.1128 42.866 55.53 38.0028 63.7017 34.2898C64.7148 33.8295 65.7325 33.3793 66.9224 33.142C67.0852 34.0568 67.0736 34.7542 67.062 35.4516C65.4308 35.9817 63.7997 36.5118 61.8653 36.9645C59.3421 38.0777 57.2129 39.5102 54.8758 40.3891C52.6664 41.2199 52.0461 43.8674 49.2516 44.279C47.5684 44.5269 46.2151 47.0172 44.7135 48.4999C44.6726 48.6227 44.5956 48.7154 44.2124 48.8038C43.6589 49.0124 43.3755 49.1953 43.0921 49.3782C43.0921 49.3782 43.0942 49.345 42.9644 49.3472C42.7406 49.3482 42.6467 49.3471 42.5528 49.3459C42.2951 49.3517 42.0374 49.3574 41.586 49.3549Z" fill="#7FDADF"/>
<path d="M62.2534 23.7908C59.4582 25.193 56.6553 26.5801 53.8711 28.0038C52.4405 28.7353 51.0699 29.59 49.6139 30.2625C49.2049 30.4514 48.5891 30.1918 47.8688 30.0311C47.6694 29.9243 47.7011 29.9603 47.7142 29.9703C48.2736 29.3279 48.6917 28.4367 49.3874 28.0629C53.272 25.9759 57.2237 24.0142 61.3716 21.8978C61.6015 22.631 61.7656 23.1542 62.1121 23.744C62.2945 23.8106 62.2534 23.7908 62.2534 23.7908Z" fill="white"/>
<path d="M21.1806 55.684C19.4991 58.376 17.8483 61.0886 16.09 63.7295C15.9074 64.0038 15.0865 63.8527 14.4165 64.0746C14.2713 64.2502 14.319 64.2971 14.319 64.2971C15.1015 60.6374 17.3164 57.8442 19.9837 55.2145C20.1626 55.2125 20.1241 55.1758 20.1923 55.3801C20.6014 55.642 20.9423 55.6994 21.256 55.7408C21.2288 55.7247 21.1806 55.684 21.1806 55.684Z" fill="white"/>
<path d="M49.8799 186.458C50.5531 186.52 51.3979 186.576 52.0874 186.933C57.5003 189.733 62.8835 192.59 68.471 195.45C68.666 195.471 68.6658 195.47 68.5714 195.606C68.1663 195.838 67.8557 195.934 67.545 196.031C61.6898 192.884 55.8347 189.737 49.8799 186.458Z" fill="#70D4DA"/>
<path d="M67.0635 35.6411C67.073 34.7541 67.0846 34.0568 67.121 33.1505C67.1458 32.9417 67.3452 32.8552 67.6365 32.8493C68.35 32.6642 68.7723 32.4851 69.2979 32.1724C69.8672 31.747 70.3333 31.455 70.9607 31.2131C71.346 31.2487 71.57 31.2341 71.7939 31.2194C72.007 31.7191 72.2201 32.2187 72.4332 32.7184C69.7276 33.1181 68.92 35.4387 67.711 37.3612C67.6842 37.4037 67.4087 37.2896 67.1583 37.1035C67.0667 36.5825 67.0661 36.2066 67.0635 35.6411Z" fill="#B2EAED"/>
<path d="M73.771 17.8318C74.6909 18.0003 75.4065 18.198 76.1019 18.39C75.3211 20.0089 74.5605 21.5861 73.6126 23.2004C72.4583 20.6278 72.5069 18.7822 73.771 17.8318Z" fill="#EDEDED"/>
<path d="M72.9249 198.733C73.1095 200.337 73.294 201.942 73.4696 203.773C72.255 202.515 71.0494 201.031 69.8438 199.548C70.3002 199.207 70.7567 198.866 71.3833 198.353C71.6452 198.184 71.7369 198.189 71.9081 198.329C72.2872 198.542 72.5868 198.619 72.8944 198.707C72.9024 198.718 72.9249 198.733 72.9249 198.733Z" fill="white"/>
<path d="M24.4408 51.438C23.4748 52.8403 22.5146 54.2645 21.3672 55.6864C21.1801 55.6841 21.2283 55.7248 21.1991 55.5672C20.8212 55.3317 20.4724 55.2538 20.1235 55.1759C20.1235 55.1759 20.1621 55.2126 20.1803 55.232C21.1335 53.8177 22.0684 52.3839 23.2011 50.9659C23.3989 50.9818 23.3607 50.9448 23.4092 51.1315C23.7985 51.3757 24.1393 51.4332 24.4801 51.4906C24.4801 51.4906 24.4466 51.46 24.4408 51.438Z" fill="white"/>
<path d="M12.2156 69.1209C10.808 66.809 12.743 65.6787 14.1209 64.2895C14.318 64.2971 14.2703 64.2502 14.2442 64.2275C15.6437 65.5244 15.1004 67.0897 12.3515 69.0782C12.1751 69.0822 12.2156 69.1209 12.2156 69.1209Z" fill="white"/>
<path d="M54.7616 201.393C52.416 202.766 51.3021 200.942 50.0345 199.365C50.0521 199.167 50.0134 199.207 49.9951 199.229C51.1739 198.094 53.4031 198.94 54.7579 201.258C54.7183 201.434 54.7616 201.393 54.7616 201.393Z" fill="white"/>
<path d="M59.5776 203.494C61.6048 203.438 63.6185 203.41 64.3389 206.074C64.2877 206.263 64.3316 206.223 64.3316 206.223C62.3865 206.677 60.1396 205.539 59.6129 203.642C59.6165 203.453 59.5776 203.494 59.5776 203.494Z" fill="white"/>
<path d="M64.2681 206.285C64.9317 206.047 65.6539 205.501 66.2909 205.587C67.6619 205.773 69.2969 205.934 69.1387 208.73C67.3916 207.945 65.8985 207.274 64.3687 206.413C64.332 206.223 64.288 206.263 64.2681 206.285Z" fill="white"/>
<path d="M62.2989 23.8329C62.3037 23.2364 62.3037 22.6175 62.3037 21.4556C63.7044 21.2763 65.1573 21.0904 66.782 20.9312C66.9538 20.9579 66.9138 20.9139 66.9138 20.9139C66.642 23.8492 64.1638 22.9045 62.3842 23.6048C62.253 23.7907 62.2941 23.8106 62.2989 23.8329Z" fill="white"/>
<path d="M32.3389 181.506C33.4303 180.489 34.4546 179.395 35.6246 178.488C35.7763 178.37 36.6796 179.224 37.1413 179.902C35.305 179.9 35.0007 183.359 32.4803 181.528C32.2767 181.442 32.317 181.486 32.3389 181.506Z" fill="white"/>
<path d="M73.2685 23.1932C73.65 23.586 73.8201 23.9969 73.8033 24.6624C72.8398 25.9371 72.0631 26.9572 71.306 27.9952C71.3258 28.0131 71.3641 28.0501 71.3641 28.0501C70.1305 26.7026 71.0327 24.1238 73.2685 23.1932Z" fill="white"/>
<path d="M54.6992 201.456C56.3199 202.014 57.9609 202.551 59.59 203.291C59.5781 203.494 59.6169 203.453 59.6356 203.431C58.3854 204.787 55.794 203.918 54.7856 201.589C54.7627 201.393 54.7195 201.434 54.6992 201.456Z" fill="white"/>
<path d="M66.9766 20.9779C68.3312 20.1703 69.6525 19.3226 71.0213 18.5602C71.1137 18.5088 71.7741 19.0852 71.7984 19.3985C71.8332 19.8465 71.5876 20.6835 71.3524 20.7244C70.0334 20.9538 68.6816 20.9938 67.1278 21.0062C66.9146 20.9139 66.9546 20.9579 66.9766 20.9779Z" fill="white"/>
<path d="M73.7805 207.739C74.0039 208.295 74.0134 208.848 74.0037 209.612C72.4597 209.035 69.2297 210.467 69.838 206.697C71.1668 207.068 72.3668 207.402 73.7805 207.739Z" fill="white"/>
<path d="M70.7989 31.163C70.3328 31.455 69.8668 31.747 69.1229 32.1561C68.6124 32.2523 68.3797 32.2313 68.147 32.2104C68.5041 31.2878 68.744 30.2921 69.2575 29.467C69.6312 28.8667 70.3664 28.4919 71.152 28.0333C71.3636 28.0501 71.3253 28.0132 71.3542 28.1769C71.1884 29.2814 70.9936 30.2222 70.7989 31.163Z" fill="white"/>
<path d="M30.1191 167.233C31.64 168.872 33.2542 170.653 34.7809 172.617C33.1997 170.991 31.7061 169.183 30.1191 167.233Z" fill="#79D7DC"/>
<path d="M71.8291 198.194C71.7374 198.189 71.6456 198.185 71.4166 198.171C70.5834 197.769 69.8875 197.375 69.1786 196.625C68.9989 196.002 68.8322 195.736 68.6655 195.47C68.6655 195.47 68.6658 195.471 68.6659 195.471C69.2071 195.501 69.8361 195.365 70.2704 195.596C71.1446 196.06 71.9127 196.725 72.8267 197.455C72.9288 197.605 72.9256 197.608 72.7601 197.621C72.3395 197.821 72.0843 198.008 71.8291 198.194Z" fill="#70D4DA"/>
<path d="M45.6152 183.258C46.9324 184.015 48.3483 184.903 49.6751 185.966C48.2953 185.225 47.0046 184.307 45.6152 183.258Z" fill="#70D4DA"/>
<path d="M41.8618 180.034C43.0094 180.801 44.2552 181.697 45.4081 182.767C44.1968 182.014 43.0785 181.089 41.8618 180.034Z" fill="#70D4DA"/>
<path d="M35.4521 173.636C36.2448 174.422 37.1277 175.341 37.8544 176.276C36.9797 175.45 36.261 174.61 35.4521 173.636Z" fill="#79D7DC"/>
<path d="M27.4521 163.496C28.2723 164.425 29.1852 165.496 29.9758 166.738C29.0839 165.819 28.3145 164.728 27.4521 163.496Z" fill="#79D7DC"/>
<path d="M39.3359 177.577C39.9597 177.893 40.5988 178.389 41.1412 179.041C40.48 178.717 39.9157 178.237 39.3359 177.577Z" fill="#70D4DA"/>
<path d="M68.5716 195.606C68.8327 195.736 68.9994 196.002 69.1681 196.433C68.6878 196.518 68.2056 196.437 67.6343 196.193C67.8559 195.934 68.1665 195.838 68.5716 195.606Z" fill="#59CCD2"/>
<path d="M23.9188 70.8223C23.9094 71.0235 23.8313 71.3745 23.6078 71.7534C23.5916 71.5116 23.7208 71.2418 23.9188 70.8223Z" fill="#79D7DC"/>
<path d="M31.7203 59.4792C31.6279 59.7829 31.3804 60.1261 30.9575 60.4806C31.0431 60.1675 31.3042 59.8432 31.7203 59.4792Z" fill="#70D4DA"/>
<path d="M68.009 32.2684C68.3804 32.2314 68.6132 32.2523 69.0204 32.2896C68.7726 32.4851 68.3503 32.6643 67.7442 32.8334C67.6637 32.6577 67.767 32.4921 68.009 32.2684Z" fill="#7FDADF"/>
<path d="M35.4824 54.7383C35.5511 54.9979 35.4565 55.3022 35.2083 55.6746C35.1429 55.4227 35.231 55.1028 35.4824 54.7383Z" fill="#70D4DA"/>
<path d="M32.2795 58.4641C32.3481 58.7259 32.2526 59.0298 32.0026 59.3995C31.9372 59.1455 32.0264 58.8259 32.2795 58.4641Z" fill="#70D4DA"/>
<path d="M39.7447 50.405C39.9723 50.3676 40.063 50.3825 40.2912 50.3836C40.1851 50.5772 39.9416 50.7845 39.5297 50.9748C39.4435 50.7909 39.5258 50.6242 39.7447 50.405Z" fill="#70D4DA"/>
<path d="M36.0245 54.179C36.0894 54.3243 36.0098 54.4885 35.7873 54.6741C35.723 54.5296 35.8015 54.3638 36.0245 54.179Z" fill="#70D4DA"/>
<path d="M36.5576 53.6447C36.6208 53.7902 36.54 53.9548 36.3152 54.1384C36.2521 53.9928 36.3329 53.8282 36.5576 53.6447Z" fill="#70D4DA"/>
<path d="M37.0898 53.1112C37.1527 53.2566 37.0717 53.4211 36.8468 53.605C36.7839 53.4596 36.8648 53.295 37.0898 53.1112Z" fill="#70D4DA"/>
<path d="M37.6229 52.5771C37.686 52.7227 37.6052 52.8876 37.3801 53.0713C37.317 52.9256 37.398 52.761 37.6229 52.5771Z" fill="#70D4DA"/>
<path d="M38.1552 52.0426C38.2184 52.1878 38.138 52.3531 37.913 52.5375C37.8495 52.3919 37.9305 52.2273 38.1552 52.0426Z" fill="#70D4DA"/>
<path d="M41.3188 179.435C41.4477 179.379 41.614 179.393 41.6966 179.548C41.5091 179.654 41.4236 179.593 41.3188 179.435Z" fill="#70D4DA"/>
<path d="M38.687 51.5072C38.7505 51.6529 38.6698 51.8185 38.4443 52.003C38.3807 51.857 38.4618 51.6921 38.687 51.5072Z" fill="#70D4DA"/>
<path d="M32.8273 57.9109C32.8904 58.0562 32.8095 58.2207 32.5847 58.4051C32.5216 58.2599 32.6024 58.0951 32.8273 57.9109Z" fill="#70D4DA"/>
<path d="M34.9067 173.013C35.0461 172.945 35.2261 172.966 35.3376 173.143C35.1308 173.284 35.0236 173.218 34.9067 173.013Z" fill="#79D7DC"/>
<path d="M39.2188 50.9742C39.2817 51.1202 39.2005 51.2858 38.9743 51.4697C38.9111 51.3233 38.9929 51.1586 39.2188 50.9742Z" fill="#70D4DA"/>
<path d="M33.3581 57.3741C33.4213 57.518 33.3411 57.6842 33.1167 57.8704C33.0532 57.7257 33.1339 57.561 33.3581 57.3741Z" fill="#70D4DA"/>
<path d="M33.887 56.8345C33.948 56.9728 33.8678 57.1406 33.6426 57.3316C33.5804 57.1911 33.6631 57.0275 33.887 56.8345Z" fill="#70D4DA"/>
<path d="M34.4124 56.2867C34.4682 56.4169 34.3819 56.5813 34.1559 56.7823C34.1009 56.6529 34.1855 56.487 34.4124 56.2867Z" fill="#70D4DA"/>
<path d="M34.9418 55.7466C34.9918 55.873 34.8988 56.0335 34.6684 56.2359C34.6202 56.1121 34.7095 55.9464 34.9418 55.7466Z" fill="#70D4DA"/>
<path d="M85.7017 27.9044C86.4997 26.0454 87.0315 24.0026 88.1567 22.3693C89.9453 19.7731 92.5816 18.3259 95.8538 18.3224C96.8047 18.3214 97.7555 18.3223 98.8129 18.3223C98.9198 17.0576 99.0001 16.1076 99.1174 14.7211C100.497 14.7872 101.85 14.8521 103.576 14.9349C103.059 15.7695 103.005 15.9707 102.876 16.0457C102.14 16.4762 101.387 16.8767 100.639 17.2874C101.507 17.6284 102.368 18.2374 103.245 18.2637C106.97 18.3753 110.701 18.3141 114.915 18.3611C116.869 18.2656 118.336 18.125 119.803 17.9844C121.599 16.195 123.116 18.236 124.971 18.5692C126.075 20.17 126.983 21.5495 127.89 22.9291C128.096 22.7996 128.302 22.6701 128.507 22.5406C128.795 21.196 129.083 19.8514 129.371 18.5068C130.341 18.4413 131.31 18.3187 132.28 18.3183C161.676 18.3083 191.073 18.4587 220.467 18.2065C227.838 18.1432 232.315 23.5396 232.301 30.1759C232.188 82.8771 232.238 135.579 232.238 188.28C232.238 197.224 228.2 201.232 219.159 201.234C197.489 201.239 175.82 201.196 154.15 201.275C150.525 201.288 146.901 201.817 142.683 202.155C141.291 200.598 131.982 200.481 130.084 202.351C128.613 201.931 127.404 201.32 126.178 201.285C122.275 201.172 118.365 201.273 114.211 201.26C119.234 199.841 124.619 198.783 129.751 196.998C140.612 193.221 150.313 187.4 158.909 179.669C167.024 172.369 173.51 163.899 178.504 153.83C180.349 148.818 182.103 144.155 183.858 139.491C185.059 134.847 186.958 130.255 187.303 125.549C187.85 118.071 187.361 110.518 187.154 102.605C185.359 95.8058 184.161 89.2422 181.97 83.0297C179.052 74.7581 174.866 67.0475 168.974 60.4032C168.323 59.4255 167.671 58.4477 166.764 57.2497C164.478 54.976 162.448 52.9227 160.419 50.8693C159.199 49.787 158.019 48.6551 156.752 47.6325C153.969 45.3883 151.142 43.1994 148.061 40.9033C147.789 40.8186 147.587 40.7627 147.482 40.7321C147.377 40.7015 147.158 40.6871 147.144 40.7027C147.131 40.7182 147.117 40.679 147.086 40.5345C146.842 40.2093 146.627 40.0287 146.256 39.7602C145.17 39.1647 144.24 38.6572 143.309 38.1496C137.382 35.6938 131.455 33.2379 125.156 30.6481C122.968 30.0483 121.153 29.5823 119.338 29.1163C116.834 28.7348 114.33 28.3533 111.463 27.7995C107.218 27.1282 103.326 26.1732 99.4544 26.2482C94.8612 26.3371 90.2852 27.313 85.7017 27.9044ZM175.634 176.757C176.679 175.802 177.743 174.866 178.741 173.864C178.849 173.756 178.661 173.087 178.468 173.002C178.147 172.86 177.473 172.834 177.361 173.015C176.599 174.243 175.946 175.538 174.881 176.843C173.556 177.671 172.086 178.401 172.272 180.6C174.483 180.021 175.443 178.854 175.634 176.757ZM165.704 181.379C166.955 182.322 168.1 183.611 169.508 184.042C170.084 184.219 171.227 182.542 171.842 181.962C169.787 181.512 167.995 181.113 166.197 180.742C166.085 180.719 165.927 180.922 165.704 181.379ZM197.235 117.06C198.773 117.201 198.966 116.794 198.855 113.257C197.375 113.385 195.941 113.509 194.514 113.633C195.67 114.962 196.404 115.806 197.235 117.06ZM168.893 42.0092C166.327 41.3532 166.298 43.2298 165.545 44.808C167.276 44.808 168.498 44.808 170.098 44.808C169.755 43.8337 169.482 43.057 168.893 42.0092ZM194.329 143.351C194.731 142.173 195.132 140.996 195.534 139.819C195.171 139.659 194.809 139.498 194.446 139.338C193.974 140.339 193.402 141.311 193.094 142.361C193.007 142.659 193.69 143.183 194.329 143.351ZM193.747 145.22C192.18 144.274 191.913 145.518 191.716 146.54C191.573 147.283 191.746 148.088 191.778 148.865C192.055 148.846 192.332 148.827 192.609 148.808C193.014 147.742 193.419 146.675 193.747 145.22ZM164.632 187.215C166.149 188.134 167.135 187.498 167.559 184.511C166.606 185.284 165.654 186.057 164.632 187.215ZM196.967 133.123C197.173 131.915 197.379 130.706 197.585 129.497C195.15 131.29 195.082 132.446 196.967 133.123ZM198.038 99.8529C197.743 99.0122 197.449 98.1716 197.154 97.331C196.83 97.3787 196.505 97.4263 196.181 97.474C196.315 98.6613 196.088 100.082 196.669 100.979C197.48 102.231 198.046 101.405 198.038 99.8529ZM132.916 22.1252C133.473 22.018 134.031 21.9109 134.588 21.8037C134.598 21.5699 134.608 21.336 134.619 21.1022C133.393 20.5892 132.168 20.0762 130.943 19.5632C130.745 19.8238 130.548 20.0844 130.35 20.345C131.071 20.9099 131.792 21.4748 132.916 22.1252ZM137.164 23.7593C137.894 23.8755 138.625 23.9917 139.356 24.1079C139.451 23.7678 139.547 23.4277 139.642 23.0876C138.323 22.5591 137.004 22.0306 135.684 21.502C135.518 21.8053 135.351 22.1086 135.185 22.4119C135.714 22.8248 136.243 23.2378 137.164 23.7593ZM170.992 47.4389C171.868 47.9394 172.743 48.4399 173.618 48.9405C174.017 48.4422 174.416 47.9439 174.815 47.4456C173.895 46.9528 172.988 46.4337 172.052 45.9733C170.733 45.3241 170.229 45.6661 170.992 47.4389ZM188.487 70.6446C188.033 69.3722 187.578 68.0998 187.124 66.8274C186.774 66.977 186.423 67.1265 186.073 67.2761C185.876 68.9101 186.365 70.2364 188.487 70.6446ZM198.601 104.269C198.165 103.718 197.728 103.167 197.291 102.616C197.028 102.752 196.764 102.889 196.5 103.026C196.812 104.321 197.124 105.617 197.436 106.913C197.724 106.916 198.013 106.919 198.301 106.922C198.421 106.18 198.541 105.438 198.601 104.269ZM148.604 200.282C149.539 199.692 150.475 199.102 151.41 198.512C151.223 198.166 151.035 197.82 150.848 197.474C149.723 198.017 148.598 198.56 147.473 199.104C147.744 199.543 148.014 199.983 148.604 200.282ZM148.81 28.547C147.772 27.7485 146.739 26.9422 145.671 26.1852C145.635 26.1593 145.247 26.6292 145.023 26.868C145.871 27.5186 146.697 28.2023 147.582 28.7966C147.806 28.9469 148.222 28.8119 148.81 28.547ZM182.834 61.6075C184.135 59.429 182.048 59.0421 181.229 57.9848C180.923 58.1681 180.618 58.3514 180.312 58.5348C181.025 59.5585 181.738 60.5823 182.834 61.6075ZM197.095 94.919C196.776 93.9307 196.458 92.9425 196.139 91.9543C195.765 92.05 195.392 92.1458 195.018 92.2415C195.352 93.5314 195.685 94.8214 196.018 96.1113C196.374 95.8549 196.729 95.5986 197.095 94.919ZM192.55 83.9393C192.944 84.6408 193.339 85.3424 193.734 86.0439C193.978 85.9446 194.221 85.8454 194.465 85.7461C194.315 84.8584 194.264 83.9366 193.975 83.097C193.822 82.6547 193.254 82.3561 192.873 81.9926C192.716 82.5131 192.559 83.0336 192.55 83.9393ZM154.303 32.8701C155.416 33.6285 156.249 35.2919 158.686 33.9703C156.771 33.3919 156.31 30.809 154.303 32.8701ZM143.457 24.881C142.435 24.6071 141.413 24.3332 140.392 24.0592C140.317 24.3992 140.242 24.7391 140.167 25.079C141.091 25.5106 141.998 25.9952 142.961 26.3095C143.086 26.3506 143.497 25.5174 143.457 24.881ZM194.148 89.308C194.471 89.8837 194.795 90.4593 195.119 91.0349C195.442 90.8987 195.765 90.7626 196.088 90.6264C195.694 89.3375 195.301 88.0487 194.907 86.7598C194.605 86.8258 194.304 86.8919 194.002 86.9579C194.002 87.6095 194.002 88.261 194.148 89.308ZM187.285 157.035C187.41 157.552 187.535 158.069 187.66 158.586C187.95 158.58 188.24 158.574 188.529 158.567C188.893 157.305 189.257 156.042 189.621 154.779C189.312 154.675 189.003 154.571 188.693 154.468C188.279 155.207 187.866 155.947 187.285 157.035ZM154.831 194.595C153.793 195.345 152.755 196.094 151.717 196.843C151.904 197.074 152.09 197.304 152.277 197.535C153.694 197.095 155.597 197.223 154.831 194.595ZM181.827 169.488C181.493 169.147 181.16 168.806 180.826 168.465C180.149 169.487 179.471 170.509 178.794 171.531C179.097 171.751 179.4 171.97 179.703 172.189C180.36 171.398 181.017 170.608 181.827 169.488Z" fill="#848484"/>
<path d="M85.572 27.9484C90.2852 27.3131 94.8612 26.3373 99.4545 26.2483C103.326 26.1733 107.218 27.1284 111.236 27.7871C110.705 28.8262 110.039 29.7055 109.209 30.8032C111.454 33.2819 108.109 33.128 106.84 33.9593C107.795 36.2532 108.724 38.4825 109.652 40.7118C109.414 40.9492 109.176 41.1866 108.937 41.4239C107.591 41.2537 106.228 41.1684 104.903 40.896C101.879 40.2742 98.7374 39.8023 96.6282 37.1943C95.7377 36.0932 95.1627 34.7397 94.2965 33.6149C93.5024 32.5838 92.4681 30.8732 91.6119 30.9158C88.9903 31.0463 87.3005 29.4176 85.2217 28.2625C85.27 28.0524 85.3561 28.0223 85.572 27.9484Z" fill="#C5F2F5"/>
<path d="M99.6948 89.3173C99.4211 87.8931 99.1474 86.4689 98.7197 84.243C102.849 84.243 106.427 84.23 110.004 84.2602C110.43 84.2638 111.093 84.3752 111.24 84.6523C112.742 87.4877 115.825 86.4957 118.119 87.4792C118.081 90.7402 115.596 89.2289 113.918 90.0559C115.119 90.6388 116.32 91.2216 117.52 91.8045C117.517 92.0606 117.514 92.3167 117.511 92.5728C116.474 92.6603 115.437 92.7479 114.264 92.8469C114.601 93.2615 114.931 93.6665 115.736 94.6557C113.416 94.4373 111.672 93.9624 110.036 94.2071C108.421 94.4488 106.914 95.4183 105.067 96.1912C104.748 93.2039 106.591 91.0627 108.758 89.1345C106.12 85.812 103.619 88.7435 100.69 89.3229C100.12 89.32 99.9073 89.3187 99.6948 89.3173Z" fill="#C0F0F3"/>
<path d="M160.3 51.0529C162.448 52.9227 164.478 54.9761 166.603 57.1722C166.093 58.4732 165.245 60.6881 164.924 60.614C163.165 60.2074 161.169 59.6048 159.947 58.3786C158.2 56.6268 157.052 54.2777 155.633 52.1618C157.038 51.8759 158.61 51.5561 160.3 51.0529Z" fill="#C1F0F3"/>
<path d="M145.321 58.4568C142.669 58.9866 143.227 60.7716 143.122 62.7611C142.466 62.1511 141.809 61.5411 141.032 60.819C140.299 60.8897 139.296 60.9866 137.677 61.143C138.373 60.2866 138.588 59.7892 138.959 59.6036C140.845 58.6604 142.745 57.733 144.7 56.947C145.285 56.7116 146.061 56.9503 146.749 56.9718C146.333 57.4401 145.917 57.9084 145.321 58.4568Z" fill="#95DEE2"/>
<path d="M111.761 107.071C111.835 107.608 111.786 108.436 111.587 108.475C109.641 108.847 107.67 109.087 105.216 109.435C105.712 107.821 106.152 106.387 106.601 104.926C108.435 105.69 110.002 106.342 111.761 107.071Z" fill="#BDEFF3"/>
<path d="M119.225 29.2719C121.153 29.5824 122.968 30.0483 124.96 30.6014C124.556 31.2258 123.904 32.2795 123.408 32.2103C121.329 31.92 119.297 31.2935 117.248 30.7901C117.266 30.5329 117.285 30.2756 117.303 30.0184C117.906 29.8214 118.509 29.6243 119.225 29.2719Z" fill="#BDEFF3"/>
<path d="M141.83 167.746C141.241 167.067 140.852 166.406 140.376 165.6C141.402 165.114 142.414 164.634 143.589 164.08C144.653 165.67 145.553 167.335 146.726 169.507C145.063 168.89 143.546 168.327 141.83 167.746Z" fill="#96DFE3"/>
<path d="M136.876 183.379C137.346 181.852 137.836 180.445 138.495 178.911C139.292 180.614 139.92 182.444 140.548 184.275C140.013 184.435 139.479 184.595 138.631 184.605C137.864 184.214 137.41 183.974 136.956 183.734C136.956 183.734 136.896 183.499 136.876 183.379Z" fill="#D0F5F7"/>
<path d="M147.587 40.7628C147.587 40.7629 147.789 40.8187 147.885 40.8585C147.658 41.7123 147.335 42.5264 147.012 43.3404C146.433 42.8226 145.916 42.2017 145.262 41.809C143.968 41.0327 142.662 40.343 143.237 38.3093C144.24 38.6573 145.17 39.1649 146.291 39.9067C146.693 40.3204 146.905 40.4998 147.117 40.6792C147.117 40.6792 147.131 40.7184 147.141 40.8148C147.296 40.8618 147.442 40.8123 147.587 40.7628Z" fill="#B6ECEF"/>
<path d="M97.2194 157.456C96.9533 157 96.6808 156.411 96.8126 156.299C97.8295 155.437 98.9247 154.667 100.357 153.599C100.532 154.674 100.746 155.991 100.961 157.309C99.774 157.387 98.5872 157.465 97.2194 157.456Z" fill="#90DDE1"/>
<path d="M150.667 111.874C150.671 113.12 150.618 114.169 150.566 115.217C149.212 115.049 147.859 114.881 146.505 114.712C146.499 114.469 146.492 114.227 146.485 113.984C147.86 113.215 149.235 112.445 150.667 111.874Z" fill="#94DEE2"/>
<path d="M98.6284 113.941C98.9296 112.707 99.2161 111.69 99.5674 110.443C100.715 111.925 101.573 113.033 102.703 114.492C101.342 114.988 100.019 115.624 98.6284 113.941Z" fill="#95DEE2"/>
<path d="M57.4303 165.481C57.6918 164.718 57.9175 164.15 58.1431 163.582C58.3716 163.6 58.6001 163.618 58.8286 163.636C59.1504 164.823 59.4722 166.01 59.8878 167.542C58.1985 167.727 56.9065 167.869 55.6145 168.011C55.576 167.764 55.5375 167.518 55.499 167.271C56.1308 166.74 56.7626 166.208 57.4303 165.481Z" fill="#96DFE3"/>
<path d="M59.0864 58.4146C59.0864 58.4146 59.3408 58.4113 59.4679 58.4115C61.2128 59.339 62.8306 60.2663 64.4484 61.1935C64.3603 61.4926 64.2721 61.7917 64.184 62.0908C62.9422 61.7603 61.7003 61.4298 60.1222 60.9629C59.5527 60.0225 59.3195 59.2185 59.0864 58.4146Z" fill="#95DEE2"/>
<path d="M105.288 154.985C105.729 155.137 105.977 155.305 106.384 155.5C106.161 158.566 106.031 158.615 101.452 157.058C102.882 156.25 103.988 155.625 105.288 154.985Z" fill="#8CDCE0"/>
<path d="M70.9609 31.2132C70.9943 30.2222 71.189 29.2814 71.3351 28.159C72.0632 26.9573 72.84 25.9372 73.8001 24.8416C73.9853 26.383 73.987 28 73.9821 29.857C73.3003 30.3568 72.6251 30.6167 71.872 31.048C71.5702 31.2341 71.3463 31.2487 70.9609 31.2132Z" fill="black"/>
<path d="M58.8952 58.395C59.3199 59.2186 59.5531 60.0225 59.9173 60.9455C60.0639 61.4648 60.0794 61.865 60.0816 62.4647C59.2886 62.4925 57.871 63.2417 58.3273 61.3065C58.4298 60.8716 57.8543 60.0607 57.3781 59.7561C56.6737 59.3056 55.779 59.153 54.9653 58.8736C55.3607 58.4088 55.756 57.944 56.1514 57.4792C57.0021 57.778 57.8529 58.0767 58.8952 58.395Z" fill="#DCF8FA"/>
<path d="M148.929 100.854C150.977 101.093 151.221 101.982 149.458 104.801C149.232 103.537 149.006 102.273 148.929 100.854Z" fill="#8FDCE1"/>
<path d="M140.247 171.089C140.471 170.314 140.844 169.655 141.345 168.912C144.369 170.209 141.925 171.599 141.813 172.985C141.586 173.03 141.359 173.074 141.133 173.119C140.888 172.481 140.643 171.844 140.247 171.089Z" fill="#8FDCE1"/>
<path d="M111.032 67.5379C111.134 68.0709 111.155 68.8783 110.892 68.9853C110.197 69.2682 109.371 69.3587 108.611 69.3075C108.14 69.2758 107.696 68.8461 107.239 68.595C107.653 68.2355 108.018 67.6777 108.491 67.5621C109.229 67.3817 110.041 67.5008 111.032 67.5379Z" fill="#8FDCE1"/>
<path d="M52.9539 137.785C54.6587 138.959 54.7419 140.386 52.7754 142.704C52.7754 140.636 52.7754 139.25 52.9539 137.785Z" fill="#8FDCE1"/>
<path d="M114.811 157.128C115.661 157.401 116.3 157.645 117.462 158.088C115.42 159.871 113.97 158.693 112.516 158.219C112.483 157.979 112.45 157.739 112.417 157.499C113.145 157.366 113.873 157.233 114.811 157.128Z" fill="#90DDE1"/>
<path d="M112.547 67.5733C113.664 67.1189 114.727 66.7839 115.814 66.6581C116.163 66.6178 116.575 67.1302 116.959 67.3898C116.723 67.7184 116.463 68.3439 116.255 68.3269C114.997 68.2241 113.752 67.9744 112.547 67.5733Z" fill="#90DDE1"/>
<path d="M54.9612 145.029C54.9903 145.904 54.9541 146.582 54.9178 147.26C54.5437 147.285 54.1695 147.311 53.7953 147.336C53.5927 145.873 53.3901 144.411 53.1875 142.948C53.5574 142.868 53.9274 142.788 54.2973 142.708C54.4968 143.416 54.6963 144.124 54.9612 145.029Z" fill="#90DDE1"/>
<path d="M104.786 69.605C103.633 69.4858 102.709 69.3634 101.784 69.2409C101.798 68.8477 101.812 68.4544 101.826 68.0611C103.102 68.0611 104.381 68.0138 105.651 68.103C105.891 68.1199 106.093 68.6799 106.312 68.9892C105.879 69.1934 105.446 69.3976 104.786 69.605Z" fill="#92DDE2"/>
<path d="M91.7363 157.595C93.6787 155.819 94.8291 155.861 95.9759 158.117C94.3802 157.994 93.0934 157.894 91.7363 157.595Z" fill="#90DDE1"/>
<path d="M57.0835 156.226C57.0425 156.774 56.9388 157.132 56.8352 157.49C56.4077 157.27 55.7226 157.143 55.601 156.811C55.2322 155.802 55.0814 154.713 54.8457 153.655C55.1777 153.525 55.5096 153.394 55.8415 153.264C56.2346 154.189 56.6277 155.113 57.0835 156.226Z" fill="#92DDE2"/>
<path d="M56.9527 158.772C57.646 160.06 58.1455 161.313 58.6451 162.566C58.3186 162.677 57.9921 162.789 57.6656 162.9C56.4006 161.831 55.805 160.54 56.9527 158.772Z" fill="#92DDE2"/>
<path d="M136.79 183.837C137.409 183.974 137.863 184.214 138.419 184.568C137.725 185.821 136.928 186.959 136.132 188.097C135.834 187.966 135.536 187.834 135.237 187.703C135.7 186.448 136.163 185.194 136.79 183.837Z" fill="#95DEE2"/>
<path d="M63.5787 179.256C64.1042 180.526 64.4871 181.658 64.8699 182.789C64.6022 182.963 64.3345 183.136 64.0668 183.31C63.5314 182.489 62.8118 181.724 62.5398 180.824C62.4073 180.385 63.1108 179.694 63.5787 179.256Z" fill="#94DEE2"/>
<path d="M53.2137 132.525C53.3794 133.879 53.5423 135.249 53.7051 136.619C53.3304 136.643 52.9556 136.667 52.5809 136.691C52.5506 135.311 50.1639 134.089 53.0329 132.531C53.2439 132.533 53.2109 132.542 53.2137 132.525Z" fill="#8FDCE1"/>
<path d="M140.513 51.4965C140.003 51.724 139.087 51.9463 138.99 51.7547C138.507 50.7972 138.24 49.7311 137.896 48.7032C138.214 48.5419 138.533 48.3806 138.851 48.2192C139.396 49.2463 139.94 50.2733 140.513 51.4965Z" fill="#93DEE2"/>
<path d="M148.937 86.8631C148.782 87.6148 148.553 88.1674 148.324 88.7201C147.945 88.2966 147.329 87.9187 147.237 87.4397C147.061 86.5301 147.186 85.5627 147.186 84.6192C147.496 84.5824 147.807 84.5456 148.117 84.5088C148.366 85.2273 148.615 85.9457 148.937 86.8631Z" fill="#93DEE2"/>
<path d="M148.843 95.2831C151.245 96.4075 150.029 97.9114 149.836 99.3148C149.49 99.3486 149.145 99.3824 148.799 99.4163C148.746 98.0533 148.693 96.6904 148.843 95.2831Z" fill="#92DDE2"/>
<path d="M149.43 93.7426C148.61 92.7907 147.921 91.6727 147.231 90.5546C147.625 90.3437 148.02 90.1329 148.414 89.922C150.177 90.4025 149.597 92.1344 149.43 93.7426Z" fill="#92DDE2"/>
<path d="M67.2942 192.944C66.7859 191.649 66.4043 190.494 65.8872 188.928C68.7416 190.395 69.112 191.893 67.2942 192.944Z" fill="#93DEE2"/>
<path d="M70.7783 162.018C71.7203 161.1 72.7985 160.317 73.8767 159.535C74.0769 159.843 74.277 160.151 74.4771 160.459C74.0454 162.199 72.5078 162.219 70.7783 162.018Z" fill="#93DEE2"/>
<path d="M89.5272 158.531C88.3159 158.523 87.3006 158.446 86.2852 158.369C86.2681 158.064 86.251 157.76 86.2339 157.455C87.3423 157.21 88.4506 156.966 89.559 156.721C89.6137 157.302 89.6684 157.882 89.5272 158.531Z" fill="#92DDE2"/>
<path d="M138.771 46.2581C138.332 46.5499 137.401 46.7902 137.389 46.7502C137.046 45.624 136.795 44.4694 136.529 43.3195C136.874 43.2297 137.22 43.1399 137.565 43.05C137.946 44.0587 138.327 45.0674 138.771 46.2581Z" fill="#93DEE2"/>
<path d="M150.053 54.0612C150.675 54.1371 151.147 54.3215 151.618 54.5059C151.011 55.0703 150.482 55.7813 149.774 56.1522C149.222 56.4418 148.448 56.309 147.773 56.3638C147.72 56.133 147.668 55.9021 147.616 55.6713C148.377 55.1707 149.139 54.6702 150.053 54.0612Z" fill="#94DEE2"/>
<path d="M55.8759 150.24C55.7554 151.058 55.6295 151.659 55.5037 152.259C55.2271 152.27 54.9505 152.281 54.6739 152.292C54.4485 151.119 54.191 149.951 54.0372 148.769C54.0172 148.615 54.5313 148.391 54.798 148.2C55.1555 148.807 55.5131 149.415 55.8759 150.24Z" fill="#90DDE1"/>
<path d="M142.814 65.2767C143.234 64.7671 143.692 64.4644 144.151 64.1617C144.369 65.3809 144.587 66.6001 144.805 67.8193C144.472 67.8821 144.138 67.9448 143.805 68.0075C143.488 67.1662 143.17 66.325 142.814 65.2767Z" fill="#93DEE2"/>
<path d="M124.17 66.4029C123.766 65.9656 123.573 65.5332 123.38 65.1007C124.61 64.8271 125.839 64.5536 127.069 64.28C127.158 64.6498 127.247 65.0197 127.335 65.3895C126.35 65.7289 125.365 66.0683 124.17 66.4029Z" fill="#94DEE2"/>
<path d="M121.735 66.7672C120.437 67.2475 119.243 67.559 118.048 67.8705C119.482 65.4637 121.005 65.2341 121.735 66.7672Z" fill="#92DDE2"/>
<path d="M95.1409 68.0028C94.775 69.5538 93.1222 70.1753 92.1289 69.1909C91.8732 68.9375 91.675 68.1606 91.7563 68.1092C92.2173 67.8182 92.7712 67.6744 93.5038 67.4791C94.1349 67.6392 94.5556 67.8006 95.1409 68.0028Z" fill="#DAF7F9"/>
<path d="M148.014 82.7343C147.544 82.9758 146.76 83.1004 146.743 83.0328C146.447 81.85 146.245 80.6438 146.022 79.4426C146.387 79.3439 146.752 79.2453 147.116 79.1466C147.43 80.2737 147.744 81.4007 148.014 82.7343Z" fill="#94DEE2"/>
<path d="M44.3145 174.895C43.4089 175.267 42.665 175.531 41.9212 175.794C41.7793 175.485 41.6375 175.175 41.4956 174.866C42.7231 174.206 43.9506 173.545 45.1782 172.885C45.4871 173.281 45.796 173.677 46.1049 174.072C45.5621 174.311 45.0192 174.549 44.3145 174.895Z" fill="#93DEE2"/>
<path d="M148.674 169.343C149.84 169.832 150.816 170.314 151.791 170.797C151.659 171.134 151.526 171.471 151.393 171.808C150.3 171.408 149.198 171.024 148.135 170.555C148.082 170.532 148.36 169.76 148.674 169.343Z" fill="#93DEE2"/>
<path d="M99.5126 89.4483C99.9073 89.3188 100.12 89.3201 100.492 89.3379C100.652 90.7455 100.652 92.1368 100.652 93.5281C100.211 93.5285 99.7709 93.5288 99.3306 93.5292C99.3306 92.2125 99.3306 90.8958 99.5126 89.4483Z" fill="#92DDE2"/>
<path d="M66.5859 42.1488C66.0461 41.7929 65.4888 41.2445 64.9351 40.4854C65.4425 39.6045 65.9465 38.9343 66.4505 38.264C66.7013 38.3144 66.952 38.3648 67.2028 38.4152C66.9913 39.5956 66.7799 40.7759 66.5859 42.1488Z" fill="#99E0E4"/>
<path d="M99.0288 69.879C99.4454 69.1657 99.8577 68.6685 100.407 68.0905C100.545 69.4066 100.545 70.8035 100.545 72.2005C100.184 72.2265 99.8223 72.2525 99.4611 72.2785C99.3156 71.5507 99.17 70.8229 99.0288 69.879Z" fill="#94DEE2"/>
<path d="M141.257 54.0869C141.661 55.1701 141.934 56.1031 142.208 57.0361C141.878 57.1794 141.549 57.3228 141.22 57.4661C140.725 56.3984 140.231 55.3308 139.737 54.2631C140.2 54.1543 140.663 54.0455 141.257 54.0869Z" fill="#93DEE2"/>
<path d="M52.7 168.279C53.4828 168.219 54.0828 168.239 54.6829 168.26C54.3814 168.709 54.1747 169.308 53.7568 169.572C53.0838 169.997 52.2715 170.2 51.518 170.498C51.3598 170.278 51.2016 170.058 51.0435 169.837C51.5347 169.345 52.026 168.853 52.7 168.279Z" fill="#94DEE2"/>
<path d="M74.9633 198.128C74.4756 198.409 73.9151 198.541 73.1395 198.703C72.9245 198.733 72.902 198.718 72.9062 198.526C72.9152 198.092 72.92 197.85 72.9247 197.608C72.9247 197.608 72.928 197.604 72.93 197.602C73.5848 197.727 74.2376 197.853 74.9633 198.128Z" fill="#70D4DA"/>
<path d="M22.3203 77.9778C22.2208 77.8419 22.1332 77.5247 22.1818 77.1401C22.3227 77.3141 22.3275 77.5553 22.3203 77.9778Z" fill="#C7F3F6"/>
<path d="M161.06 206.169C167.41 208.811 169.437 213.743 166.619 219.174C164.705 222.863 160.577 224.438 156.196 223.151C152.547 222.079 149.679 217.436 150.229 213.49C150.765 209.654 154.322 206.352 158.179 206.144C159.063 206.096 159.952 206.143 161.06 206.169Z" fill="#171717"/>
<path d="M128.93 208.822C127.896 208.261 127.064 207.68 125.889 206.858C126.901 205.643 127.738 204.638 128.576 203.632C128.652 204.699 128.728 205.767 128.808 206.879C129.618 206.844 130.722 206.795 131.825 206.747C131.892 207.023 131.959 207.299 132.026 207.574C131.062 207.983 130.097 208.392 128.93 208.822Z" fill="#797979"/>
<path d="M129.139 18.4772C129.083 19.8515 128.795 21.1961 128.507 22.5407C128.302 22.6702 128.096 22.7997 127.89 22.9292C126.983 21.5496 126.075 20.17 125.156 18.5934C126.398 18.4134 127.653 18.4304 129.139 18.4772Z" fill="#B1B1B1"/>
<path d="M119.645 17.8625C118.335 18.1253 116.868 18.2659 115.157 18.3787C114.913 17.6068 114.913 16.8627 114.913 15.099C116.841 16.2126 118.164 16.9765 119.645 17.8625Z" fill="#767676"/>
<path d="M109.049 212.963C108.119 212.814 107.396 212.637 106.674 212.46C106.693 212.148 106.713 211.835 106.732 211.523C108.17 211.344 109.608 211.165 111.046 210.986C111.138 211.335 111.23 211.684 111.322 212.032C110.634 212.333 109.945 212.634 109.049 212.963Z" fill="#737373"/>
<path d="M107.309 14.7836C107.857 15.2419 108.189 15.6733 108.522 16.1048C108.018 16.315 107.502 16.723 107.014 16.6926C106.118 16.6368 105.238 16.3223 104.352 16.1158C104.337 15.7752 104.322 15.4347 104.307 15.0942C105.235 14.9817 106.164 14.8692 107.309 14.7836Z" fill="#737373"/>
<path d="M84.4791 17.4757C83.8774 17.3431 83.4768 17.1621 83.0762 16.9811C83.3433 16.6016 83.55 15.9717 83.889 15.8897C84.8851 15.649 85.9337 15.6259 86.9724 15.5165C86.9518 17.212 86.9518 17.212 84.4791 17.4757Z" fill="#777777"/>
<path d="M114.151 210.433C115.094 210.55 115.823 210.683 116.551 210.817C116.536 211.165 116.52 211.512 116.504 211.86C115.048 211.999 113.593 212.139 112.138 212.279C112.071 211.932 112.005 211.585 111.939 211.238C112.605 210.975 113.271 210.713 114.151 210.433Z" fill="#737373"/>
<path d="M83.9844 210.444C84.0929 210.983 84.0035 211.455 83.9141 211.927C82.6991 211.661 81.4841 211.395 80.269 211.129C80.3441 210.717 80.4192 210.305 80.4943 209.893C81.5917 210.055 82.6891 210.216 83.9844 210.444Z" fill="#777777"/>
<path d="M78.6782 209.383C78.8031 209.92 78.7269 210.392 78.6507 210.863C77.4301 210.589 76.2094 210.316 74.9888 210.042C75.0657 209.629 75.1427 209.216 75.2196 208.803C76.3054 208.975 77.3912 209.147 78.6782 209.383Z" fill="#797979"/>
<path d="M95.0881 212.472C93.6296 212.757 92.2209 212.834 90.8122 212.911C90.8107 212.528 90.8092 212.145 90.8076 211.762C92.2566 211.406 93.7091 210.726 95.0881 212.472Z" fill="#797979"/>
<path d="M111.693 15.2601C112.618 15.5863 113.325 15.8957 114.032 16.205C113.946 16.5486 113.86 16.8922 113.774 17.2358C112.448 17.0646 111.121 16.8934 109.795 16.7222C109.735 16.4563 109.674 16.1905 109.614 15.9246C110.235 15.6975 110.855 15.4704 111.693 15.2601Z" fill="#767676"/>
<path d="M77.8521 17.8891C79.0662 17.1619 80.3382 16.6382 81.6101 16.1145C81.7322 16.4666 81.8542 16.8187 81.9763 17.1708C80.9844 18.5921 79.563 18.6973 77.8521 17.8891Z" fill="#797979"/>
<path d="M87.8062 210.911C88.6706 211.086 89.3055 211.256 89.9403 211.426C89.8939 211.673 89.8476 211.92 89.8013 212.167C88.4508 212.167 87.1004 212.167 85.7499 212.167C85.7182 211.871 85.6865 211.575 85.6548 211.279C86.2954 211.155 86.936 211.03 87.8062 210.911Z" fill="#767676"/>
<path d="M44.9023 48.4019C46.2149 47.0173 47.5683 44.527 49.2515 44.2791C52.046 43.8674 52.6662 41.22 54.8756 40.3891C57.2127 39.5103 59.3419 38.0778 61.6728 37.004C61.3417 37.8781 60.8999 38.6353 60.3309 39.6103C61.0623 39.8421 61.8297 40.0852 62.2768 40.2269C62.8046 41.2969 63.2663 42.233 63.7574 43.4823C63.4413 44.3684 63.0959 44.9413 62.7504 45.5143C59.1669 45.4031 56.7029 47.7615 53.9925 49.5383C52.2398 50.6873 51.1472 50.3828 49.6172 48.832C48.7846 47.9881 46.6427 48.4376 44.9023 48.4019Z" fill="#5BCDD3"/>
<path d="M50.6387 114.295C50.8516 113.255 51.078 112.416 51.3458 111.591C51.3846 111.472 51.6219 111.417 51.1804 111.674C52.0867 112.898 52.8876 113.98 53.6885 115.062C53.4149 114.841 52.2215 116.375 50.6387 114.295Z" fill="#DCF8FA"/>
<path d="M52.9656 100.936C52.8735 102.343 52.6538 103.587 52.3226 105.462C50.5515 102.643 50.8299 101.544 52.9656 100.936Z" fill="#DAF7F9"/>
<path d="M62.771 45.7212C63.0953 44.9412 63.4407 44.3683 63.871 43.6453C64.4277 43.8424 65.3525 44.3763 65.2988 44.5068C64.9227 45.4202 64.3445 46.2502 63.8309 47.1069C63.4847 46.7141 63.1384 46.3212 62.771 45.7212Z" fill="#DAF7F9"/>
<path d="M148.652 128.534C149.13 127.912 149.578 127.504 150.025 127.096C150.235 127.217 150.445 127.337 150.655 127.457C150.401 128.771 150.147 130.085 149.894 131.398C149.606 131.409 149.318 131.42 149.03 131.431C148.894 130.537 148.758 129.643 148.652 128.534Z" fill="#DAF7F9"/>
<path d="M63.7567 48.9435C63.2643 50.3127 62.7318 51.4902 62.1992 52.6676C61.9146 52.503 61.6299 52.3385 61.3452 52.1739C61.955 50.9247 60.8671 48.6562 63.7567 48.9435Z" fill="#DBF7F9"/>
<path d="M53.2659 97.507C53.0705 98.3001 52.9078 98.8828 52.745 99.4655C52.4012 99.4187 52.0573 99.372 51.7134 99.3252C51.8365 98.1024 51.9178 96.872 52.1337 95.6658C52.1618 95.509 52.883 95.4764 53.2831 95.3862C53.2883 96.0231 53.2934 96.6599 53.2659 97.507Z" fill="#DBF7F9"/>
<path d="M135.297 162.875C136.115 163.247 136.742 163.569 137.368 163.891C137.243 164.234 137.118 164.576 136.993 164.919C135.796 164.507 134.591 164.116 133.417 163.648C133.315 163.607 133.419 163.052 133.426 162.737C133.986 162.766 134.546 162.796 135.297 162.875Z" fill="#DCF8FA"/>
<path d="M53.6601 93.4215C53.1295 93.4572 52.2227 93.2126 52.2365 93.138C52.4442 92.0109 52.7729 90.9062 53.0732 89.7963C53.4072 89.8848 53.7411 89.9734 54.0751 90.062C53.9541 91.1147 53.8331 92.1675 53.6601 93.4215Z" fill="#DCF8FA"/>
<path d="M86.9346 68.4842C87.001 67.9385 87.3195 67.0323 87.5117 67.0584C88.5035 67.1929 89.4629 67.5664 90.4336 67.8564C90.4079 68.1757 90.3821 68.4951 90.3563 68.8144C89.2803 68.7275 88.2044 68.6406 86.9346 68.4842Z" fill="#DBF7F9"/>
<path d="M149.557 138.975C149.25 140.145 148.976 141.111 148.606 142.421C147.02 140.801 147.435 139.507 148.335 138.262C148.398 138.174 149.157 138.589 149.557 138.975Z" fill="#DBF7F9"/>
<path d="M148.151 136.065C148.374 134.741 148.644 133.619 148.915 132.497C149.312 132.577 149.708 132.657 150.105 132.737C149.903 133.937 149.723 135.142 149.444 136.324C149.426 136.399 148.632 136.29 148.151 136.065Z" fill="#DBF7F9"/>
<path d="M53.9959 83.0808C53.7328 81.4647 53.4042 79.9269 55.1798 79.2959C55.4801 79.4373 55.7804 79.5787 56.0807 79.7201C55.4292 80.8946 54.7778 82.069 53.9959 83.0808Z" fill="#DCF8FA"/>
<path d="M43.2661 49.3794C43.3756 49.1952 43.659 49.0123 44.1251 48.8326C44.0186 49.0175 43.7293 49.1992 43.2661 49.3794Z" fill="#5BCDD3"/>
<path d="M42.5938 49.4579C42.6463 49.3472 42.7402 49.3483 42.9746 49.3601C42.9551 49.4371 42.7951 49.5034 42.5938 49.4579Z" fill="#5BCDD3"/>
<path d="M24.4241 51.3167C24.1396 51.4331 23.7988 51.3756 23.3896 51.1138C23.6702 50.9872 24.0189 51.065 24.4241 51.3167Z" fill="black"/>
<path d="M28.8013 182.841C28.9136 182.501 29.1785 182.319 29.6256 182.119C29.5231 182.401 29.2385 182.7 28.8013 182.841Z" fill="black"/>
<path d="M20.1919 55.3802C20.4724 55.2537 20.8213 55.3316 21.2264 55.5832C20.9418 55.6995 20.601 55.642 20.1919 55.3802Z" fill="black"/>
<path d="M72.7593 197.621C72.92 197.85 72.9152 198.092 72.8982 198.515C72.5864 198.619 72.2868 198.542 71.9077 198.329C72.0834 198.007 72.3386 197.821 72.7593 197.621Z" fill="#59CCD2"/>
<path d="M132.714 22.0826C131.792 21.475 131.071 20.9101 130.35 20.3452C130.547 20.0846 130.745 19.824 130.943 19.5634C132.168 20.0763 133.393 20.5893 134.618 21.1023C134.608 21.3362 134.598 21.57 134.588 21.8039C134.03 21.911 133.473 22.0182 132.714 22.0826Z" fill="#AEAEAE"/>
<path d="M136.967 23.7052C136.243 23.238 135.713 22.825 135.184 22.412C135.351 22.1088 135.517 21.8055 135.684 21.5022C137.003 22.0307 138.322 22.5592 139.642 23.0878C139.546 23.4279 139.451 23.7679 139.356 24.108C138.625 23.9918 137.894 23.8756 136.967 23.7052Z" fill="#B0B0B0"/>
<path d="M148.444 200.352C148.014 199.983 147.743 199.544 147.473 199.104C148.598 198.56 149.723 198.017 150.848 197.474C151.035 197.82 151.222 198.166 151.41 198.512C150.474 199.102 149.539 199.692 148.444 200.352Z" fill="#AFAFAF"/>
<path d="M148.678 28.6776C148.221 28.812 147.805 28.9471 147.581 28.7968C146.696 28.2025 145.87 27.5187 145.022 26.8681C145.246 26.6293 145.634 26.1595 145.67 26.1854C146.738 26.9423 147.771 27.7486 148.678 28.6776Z" fill="#B0B0B0"/>
<path d="M154.243 32.7026C156.309 30.809 156.77 33.3919 158.685 33.9703C156.248 35.2919 155.415 33.6286 154.243 32.7026Z" fill="#B0B0B0"/>
<path d="M143.617 24.9853C143.498 25.5176 143.087 26.3508 142.961 26.3097C141.999 25.9954 141.092 25.5108 140.167 25.0792C140.242 24.7393 140.317 24.3994 140.392 24.0594C141.414 24.3334 142.436 24.6073 143.617 24.9853Z" fill="#AFAFAF"/>
<path d="M155.009 194.622C155.597 197.223 153.694 197.095 152.277 197.535C152.091 197.304 151.904 197.074 151.718 196.844C152.756 196.094 153.793 195.345 155.009 194.622Z" fill="#AFAFAF"/>
<path d="M147.087 40.5347C146.905 40.4998 146.693 40.3204 146.447 39.9946C146.627 40.0289 146.842 40.2095 147.087 40.5347Z" fill="#59CCD2"/>
<path d="M147.481 40.7325C147.441 40.8125 147.296 40.862 147.154 40.7995C147.158 40.6875 147.376 40.7018 147.481 40.7325Z" fill="#59CCD2"/>
</svg>
