<?xml version="1.0" encoding="UTF-8"?>
<svg id="Layer_2" data-name="Layer 2" xmlns="http://www.w3.org/2000/svg" viewBox="0 0 455.75 504.84">
  <defs>
    <style>
      .cls-1 {
        fill: #42c2c9;
      }

      .cls-2 {
        fill: #4fabaf;
      }
    </style>
  </defs>
  <g id="Layer_37" data-name="Layer 37">
    <g>
      <g>
        <rect class="cls-2" x="67.03" y="305.05" width="95.81" height="196.7" rx="7.29" ry="7.29" transform="translate(-77.79 775.96) rotate(-136.75)"/>
        <path class="cls-2" d="M78.81,228.58c13.26,103.66,108.05,176.95,211.71,163.68,103.66-13.26,176.95-108.05,163.68-211.71C440.94,76.89,346.16,3.61,242.49,16.87,138.83,30.13,65.55,124.91,78.81,228.58Zm46.31-5.92c-9.99-78.08,45.21-149.48,123.3-159.47,78.08-9.99,149.48,45.21,159.47,123.3,9.99,78.08-45.21,149.48-123.3,159.47-78.08,9.99-149.48-45.21-159.47-123.3Z"/>
      </g>
      <g>
        <rect class="cls-1" x="51.36" y="289.73" width="95.81" height="196.7" rx="7.29" ry="7.29" transform="translate(-94.36 738.76) rotate(-136.75)"/>
        <path class="cls-1" d="M63.15,213.26c13.26,103.66,108.05,176.95,211.71,163.68,103.66-13.26,176.95-108.05,163.68-211.71C425.28,61.57,330.49-11.71,226.83,1.55,123.17,14.81,49.89,109.6,63.15,213.26Zm46.31-5.92c-9.99-78.08,45.21-149.48,123.3-159.47,78.08-9.99,149.48,45.21,159.47,123.3,9.99,78.08-45.21,149.48-123.3,159.47-78.08,9.99-149.48-45.21-159.47-123.3Z"/>
      </g>
      <path class="cls-2" d="M323.28,115.48c3.35,2.88,37.22,33.11,32.78,80.23-3.88,41.22-34.12,63.89-38.82,67.29,33.48-17.18,52.69-52.02,48.31-86.27-4.98-38.96-38.14-58.86-42.27-61.25Z"/>
    </g>
  </g>
</svg>