<?xml version="1.0" encoding="UTF-8"?>
<svg id="Layer_2" data-name="Layer 2" xmlns="http://www.w3.org/2000/svg" viewBox="0 0 452.36 493.73">
  <defs>
    <style>
      .cls-1 {
        fill: #fff;
      }

      .cls-2 {
        fill: #c6c2c2;
      }

      .cls-3 {
        fill: #5fc8d4;
      }

      .cls-4 {
        fill: #51abaf;
      }
    </style>
  </defs>
  <g id="icon-random">
    <g>
      <g>
        <path class="cls-4" d="M29.19,149.1l166.32,98.63c3.27,1.54,10.47,5.47,15.8,13.75,7.27,11.29,6.05,22.84,5.61,26.04-.64,63.8-1.29,127.6-1.93,191.4,1.08,5.81-1.97,11.47-6.99,13.5-4.13,1.68-9.03,.68-12.5-2.52-55.41-32.22-110.82-64.45-166.23-96.67-3.19-1.43-10.96-5.42-16.62-14.3-6.74-10.58-6.06-21.2-5.73-24.46,.74-64.52,1.48-129.05,2.22-193.57-.34-5.07,2.26-9.88,6.66-12.31,4.18-2.31,9.34-2.11,13.38,.52Z"/>
        <path class="cls-3" d="M22.46,138.54l166.32,98.63c3.27,1.54,10.47,5.47,15.8,13.75,7.27,11.29,6.05,22.84,5.61,26.04-.64,63.8-1.29,127.6-1.93,191.4,1.08,5.81-1.97,11.47-6.99,13.5-4.13,1.68-9.03,.68-12.5-2.52-55.41-32.22-110.82-64.45-166.23-96.67-3.19-1.43-10.96-5.42-16.62-14.3C-.82,357.78-.14,347.17,.19,343.9c.74-64.52,1.48-129.05,2.22-193.57-.34-5.07,2.26-9.88,6.66-12.31,4.18-2.31,9.34-2.11,13.38,.52Z"/>
        <g>
          <g>
            <path class="cls-2" d="M62.7,294.74c6.94-.15,13.88-.31,20.83-.46-.3-1.59-.94-6.18,1.6-10.76,3.52-6.35,10.41-7.68,12.13-8.01,7.16-1.38,17.66,.95,21.51,9.38,3.85,8.43-.31,19.93-10.53,24.72-1.78,.89-14.05,7.3-16.48,20.6-.91,5-.13,9.31,.69,12.13,6.48,.15,12.97,.31,19.45,.46-.3-2.19-.53-5.92,.69-10.3,1.44-5.15,4.17-8.6,5.72-10.3,14.69-5.35,24.01-19.17,23.11-33.41-1.08-17.05-16.26-25.91-17.39-26.55-2.83-2.04-10.51-7.02-21.51-7.32-12.75-.35-21.63,5.81-24.26,7.78-2.72,1.76-7.39,5.32-10.99,11.44-5.15,8.78-4.86,17.35-4.58,20.6Z"/>
            <circle class="cls-2" cx="100.09" cy="358.52" r="9.61"/>
          </g>
          <g>
            <path class="cls-1" d="M69.19,290.78c6.94-.15,13.88-.31,20.83-.46-.3-1.59-.94-6.18,1.6-10.76,3.52-6.35,10.41-7.68,12.13-8.01,7.16-1.38,17.66,.95,21.51,9.38,3.85,8.43-.31,19.93-10.53,24.72-1.78,.89-14.05,7.3-16.48,20.6-.91,5-.13,9.31,.69,12.13,6.48,.15,12.97,.31,19.45,.46-.3-2.19-.53-5.92,.69-10.3,1.44-5.15,4.17-8.6,5.72-10.3,14.69-5.35,24.01-19.17,23.11-33.41-1.08-17.05-16.26-25.91-17.39-26.55-2.83-2.04-10.51-7.02-21.51-7.32-12.75-.35-21.63,5.81-24.26,7.78-2.72,1.76-7.39,5.32-10.99,11.44-5.15,8.78-4.86,17.35-4.58,20.6Z"/>
            <circle class="cls-1" cx="108.55" cy="357.38" r="9.61"/>
          </g>
        </g>
      </g>
      <g>
        <path class="cls-4" d="M431.71,151.12l-167.17,97.19c-3.28,1.51-10.51,5.38-15.92,13.62-7.37,11.22-6.25,22.79-5.83,25.99,.09,63.8,.19,127.61,.28,191.41-1.13,5.8,1.87,11.48,6.88,13.56,4.12,1.71,9.03,.76,12.52-2.42,55.68-31.74,111.37-63.49,167.05-95.23,3.2-1.4,11.01-5.33,16.74-14.16,6.83-10.52,6.25-21.14,5.94-24.41-.18-64.53-.37-129.06-.55-193.59,.39-5.06-2.18-9.9-6.55-12.37-4.16-2.34-9.32-2.19-13.39,.4Z"/>
        <path class="cls-3" d="M422.35,145.34l-167.17,97.19c-3.28,1.51-10.51,5.38-15.92,13.62-7.37,11.22-6.25,22.79-5.83,25.99,.09,63.8,.19,127.61,.28,191.41-1.13,5.8,1.87,11.48,6.88,13.56,4.12,1.71,9.03,.76,12.52-2.42,55.68-31.74,111.37-63.49,167.05-95.23,3.2-1.4,11.01-5.33,16.74-14.16,6.83-10.52,6.25-21.14,5.94-24.41-.18-64.53-.37-129.06-.55-193.59,.39-5.06-2.18-9.9-6.55-12.37-4.16-2.34-9.32-2.19-13.39,.4Z"/>
        <g>
          <g>
            <path class="cls-2" d="M295.48,300.81c6.94-.15,13.88-.31,20.83-.46-.3-1.59-.94-6.18,1.6-10.76,3.52-6.35,10.41-7.68,12.13-8.01,7.16-1.38,17.66,.95,21.51,9.38,3.85,8.43-.31,19.93-10.53,24.72-1.78,.89-14.05,7.3-16.48,20.6-.91,5-.13,9.31,.69,12.13,6.48,.15,12.97,.31,19.45,.46-.3-2.19-.53-5.92,.69-10.3,1.44-5.15,4.17-8.6,5.72-10.3,14.69-5.35,24.01-19.17,23.11-33.41-1.08-17.05-16.26-25.91-17.39-26.55-2.83-2.04-10.51-7.02-21.51-7.32-12.75-.35-21.63,5.81-24.26,7.78-2.72,1.76-7.39,5.32-10.99,11.44-5.15,8.78-4.86,17.35-4.58,20.6Z"/>
            <circle class="cls-2" cx="332.87" cy="364.6" r="9.61"/>
          </g>
          <g>
            <path class="cls-1" d="M301.97,296.86c6.94-.15,13.88-.31,20.83-.46-.3-1.59-.94-6.18,1.6-10.76,3.52-6.35,10.41-7.68,12.13-8.01,7.16-1.38,17.66,.95,21.51,9.38,3.85,8.43-.31,19.93-10.53,24.72-1.78,.89-14.05,7.3-16.48,20.6-.91,5-.13,9.31,.69,12.13,6.48,.15,12.97,.31,19.45,.46-.3-2.19-.53-5.92,.69-10.3,1.44-5.15,4.17-8.6,5.72-10.3,14.69-5.35,24.01-19.17,23.11-33.41-1.08-17.05-16.26-25.91-17.39-26.55-2.83-2.04-10.51-7.02-21.51-7.32-12.75-.35-21.63,5.81-24.26,7.78-2.72,1.76-7.39,5.32-10.99,11.44-5.15,8.78-4.86,17.35-4.58,20.6Z"/>
            <circle class="cls-1" cx="341.33" cy="363.45" r="9.61"/>
          </g>
        </g>
      </g>
      <g>
        <path class="cls-4" d="M35.93,109.91L203.49,13.41c2.94-2.1,9.9-6.44,19.74-7.02,13.4-.79,22.87,5.94,25.44,7.9,55.27,31.88,110.54,63.75,165.81,95.63,5.59,1.91,9.02,7.34,8.33,12.72-.57,4.42-3.84,8.2-8.33,9.65-55.27,32.46-110.54,64.92-165.81,97.38-2.81,2.08-10.11,6.89-20.62,7.46-12.53,.68-21.44-5.12-24.13-7.02-55.85-32.31-111.71-64.63-167.56-96.94-4.58-2.19-7.5-6.82-7.46-11.84,.04-4.77,2.75-9.17,7.02-11.4Z"/>
        <path class="cls-3" d="M29.13,103.59L196.69,7.08c2.94-2.1,9.9-6.44,19.74-7.02,13.4-.79,22.87,5.94,25.44,7.9,55.27,31.88,110.54,63.75,165.81,95.63,5.59,1.91,9.02,7.34,8.33,12.72-.57,4.42-3.84,8.2-8.33,9.65-55.27,32.46-110.54,64.92-165.81,97.38-2.81,2.08-10.11,6.89-20.62,7.46-12.53,.68-21.44-5.12-24.13-7.02-55.85-32.31-111.71-64.63-167.56-96.94-4.58-2.19-7.5-6.82-7.46-11.84,.04-4.77,2.75-9.17,7.02-11.4Z"/>
        <g>
          <g>
            <path class="cls-2" d="M182.16,138.74c4.8-5.02,9.6-10.03,14.4-15.05-1.33-.91-5.03-3.71-6.47-8.74-2-6.98,1.93-12.79,2.91-14.24,4.08-6.04,13.15-11.82,21.85-8.58,8.68,3.24,13.88,14.31,10.03,24.92-.63,1.89-4.77,15.09,2.91,26.22,2.89,4.18,6.49,6.67,9.06,8.09,4.69-4.48,9.39-8.95,14.08-13.43-1.76-1.33-4.57-3.81-6.8-7.77-2.63-4.66-3.13-9.03-3.24-11.33,6.6-14.17,3.42-30.54-7.28-39.97-12.82-11.3-29.82-6.82-31.07-6.47-3.44,.55-12.4,2.47-20.39,10.03-9.26,8.77-11.19,19.4-11.65,22.66-.68,3.16-1.46,8.99,.32,15.86,2.56,9.85,8.83,15.7,11.33,17.8Z"/>
            <circle class="cls-2" cx="253.69" cy="157.4" r="9.61"/>
          </g>
          <g>
            <path class="cls-1" d="M183.94,131.35c4.8-5.02,9.6-10.03,14.4-15.05-1.33-.91-5.03-3.71-6.47-8.74-2-6.98,1.93-12.79,2.91-14.24,4.08-6.04,13.15-11.82,21.85-8.58,8.68,3.24,13.88,14.31,10.03,24.92-.63,1.89-4.77,15.09,2.91,26.22,2.89,4.18,6.49,6.67,9.06,8.09,4.69-4.48,9.39-8.95,14.08-13.43-1.76-1.33-4.57-3.81-6.8-7.77-2.63-4.66-3.13-9.03-3.24-11.33,6.6-14.17,3.42-30.54-7.28-39.97-12.82-11.3-29.82-6.82-31.07-6.47-3.44,.55-12.4,2.47-20.39,10.03-9.26,8.77-11.19,19.4-11.65,22.66-.68,3.16-1.46,8.99,.32,15.86,2.56,9.85,8.83,15.7,11.33,17.8Z"/>
            <circle class="cls-1" cx="258.87" cy="150.61" r="9.61"/>
          </g>
        </g>
      </g>
    </g>
  </g>
</svg>