<?xml version="1.0" encoding="UTF-8"?>
<svg id="Layer_2" data-name="Layer 2" xmlns="http://www.w3.org/2000/svg" viewBox="0 0 457.21 425.04">
  <defs>
    <style>
      .cls-1 {
        fill: #42c2c9;
      }

      .cls-2 {
        fill: #397c7c;
      }

      .cls-3 {
        fill: #4fabaf;
      }
    </style>
  </defs>
  <g id="icon-moon">
    <g>
      <g>
        <path class="cls-1" d="M324.08,19.75c-53.24,36.4-65.71,106.62-35.63,151.93,33.34,50.22,114.35,62.89,168.07,14.79,1.89,26.99,3.71,105.06-48.4,164.71-85.21,97.52-275.69,101.27-361.07-9.37C-1.48,278.94-14.03,181.74,30.55,105.57,84.39,13.57,209.74-27.52,324.08,19.75Z"/>
        <path class="cls-3" d="M101.47,34.14c-14.95,8.93-72.92,45.93-94.1,119.8-31.59,110.14,48.38,198.43,52.89,203.24,17.91,16.58,61.27,52.12,127.33,63.99,93.76,16.85,165.69-26.13,183.18-37.27-20.22,11.07-55.62,26.97-101.88,30.01-.7,.05-9.5,.68-17.79,.68-90.23-.01-152.14-55.21-152.14-55.21C39.58,306.44,16.45,221.17,34.37,146.22c14.22-59.52,50.61-96.99,67.1-112.08Z"/>
        <g>
          <circle class="cls-3" cx="79.55" cy="114.86" r="23.13"/>
          <circle class="cls-3" cx="119.4" cy="70.47" r="13.54"/>
          <circle class="cls-3" cx="131.27" cy="112.59" r="19.57"/>
        </g>
        <g>
          <ellipse class="cls-3" cx="217" cy="364.09" rx="22.11" ry="29.99" transform="translate(-201.67 298) rotate(-50.23)"/>
          <circle class="cls-3" cx="265.7" cy="392.74" r="13.54"/>
        </g>
      </g>
      <g>
        <g>
          <path class="cls-3" d="M340.53,87.24l.66-20.57c-.3-1.8,.54-3.59,2.08-4.43,1.72-.95,3.95-.53,5.28,1.04,4.28,5.16,8.55,10.32,12.83,15.47l16.8-4.15c2.18-.84,4.51-.14,5.57,1.51,1.08,1.68,.37,3.63,.28,3.87-3.84,5.6-7.67,11.2-11.51,16.8l12.08,14.25c.1,.27,1.13,3.22-.66,5.76-1.5,2.13-4.36,3.07-7.08,2.26-5.22-2.33-10.44-4.65-15.66-6.98l-13.59,16.23c-.89,1.58-2.76,2.17-4.15,1.51-1.07-.51-1.74-1.71-1.7-3.02,.03-7.3,.06-14.59,.09-21.89l-19.91-5.1c-1.86-.59-3.05-2.3-2.93-4.06,.16-2.13,2.18-3.16,2.26-3.21,6.42-1.76,12.83-3.52,19.25-5.28Z"/>
          <path class="cls-2" d="M340.53,87.24c.18-3.76,.28-6.81,.34-8.84,.27-8.91,.16-12.93,2.77-14.48,.18-.11,.81-.46,1.69-.55,3.15-.31,5.4,3.16,11.44,10.17,1.17,1.36,2.73,3.14,4.62,5.21-.71-1.08-9.4-14.18-13.99-16.44-.63-.31-2.05-1.01-3.49-.53-1.44,.48-2.16,1.89-2.47,2.49-2.34,4.56-1,21.72-.9,22.97Z"/>
          <path class="cls-2" d="M372.52,96.77c-.06,.05,.48,.72,3.41,4.31,6.59,8.05,8.14,9.87,7.82,12.37-.04,.32-.34,2.49-2.08,3.86-.53,.42-1.47,.98-3.2,1.13-3.29,.29-5.3-1.28-10.86-3.81-3.14-1.43-6.4-2.72-6.47-2.58-.06,.13,2.73,1.53,6.18,3.27,6.64,3.34,8.13,3.89,10.2,3.95,1.56,.05,3.85,.09,5.57-1.53,1.82-1.71,1.9-4.22,1.9-4.41,.02-1-.22-1.78-.41-2.31-1.15-3.2-3.64-5.58-5.44-7.37-4.42-4.39-6.52-6.98-6.63-6.88Z"/>
          <path class="cls-2" d="M361.38,78.73c3.25-.45,5.8-1.07,7.51-1.55,.42-.12,2.87-.81,5.99-1.62,2.76-.71,3.88-.96,5.25-.53,.41,.13,2.36,.74,3.03,2.25,1.04,2.35-1.76,5.17-5.64,11.03-1.63,2.46-3.33,5.28-5.01,8.46,1.77-2.71,3.35-4.79,4.44-6.17,3.75-4.71,6.7-7.32,7.25-11.25,.25-1.81-.15-2.81-.58-3.41-.45-.63-1.22-1.26-2.81-1.64-3.27-.79-6.35,.37-8.45,1.11-2.59,.91-6.27,2.11-10.99,3.32Z"/>
          <path class="cls-2" d="M341.85,104.88c.02-.08-3.03-1.08-6.59-1.95-3.81-.93-5.51-1.05-9-2.23-3.07-1.04-4.43-1.84-5.04-3.25-.12-.29-.6-1.48-.21-2.74,.67-2.14,4.73-3.3,12.83-5.54,4.93-1.36,6.72-1.85,6.7-1.95-.02-.07-.87,.06-6.96,1.25-3.16,.61-8.52,1.69-12.29,4.04-.68,.42-1.7,1.13-2.1,2.37-.44,1.38,.12,2.67,.23,2.93,1.14,2.64,5.09,2.94,13.79,4.94,5.31,1.21,8.63,2.2,8.65,2.12Z"/>
          <path class="cls-2" d="M361.19,112.06c-.18-.15-3.04,2.97-5.03,5.31-1.63,1.91-2.23,2.77-4.36,5.23-2.82,3.25-3.92,4.23-5.52,4.42-.36,.04-1.8,.22-2.93-.6-1.87-1.35-1.53-4.43-1.34-8.5,.34-7.57-.1-13.04-.16-13.04-.05,0,.01,3.68-.48,8.67-.32,3.16-1,8.32-.16,12.76,.17,.89,.53,2.41,1.78,3.22,.97,.63,2.06,.55,2.42,.52,3.16-.23,5.73-4.14,10.48-10.64,3.72-5.09,5.46-7.24,5.31-7.36Z"/>
        </g>
        <g>
          <path class="cls-3" d="M323.35,140.23l10.36-1.85c.87-.34,1.85-.11,2.44,.57,.66,.76,.68,1.92,.04,2.75-2.13,2.68-4.25,5.37-6.38,8.05l3.85,7.96c.65,1,.55,2.24-.17,2.94-.73,.72-1.78,.57-1.9,.55-3.21-1.33-6.41-2.65-9.62-3.98l-5.85,7.55c-.13,.08-1.49,.9-2.95,.28-1.23-.53-2-1.86-1.88-3.3,.61-2.86,1.22-5.71,1.83-8.57l-9.55-5.08c-.88-.28-1.38-1.15-1.19-1.92,.14-.59,.67-1.05,1.33-1.17,3.65-.76,7.3-1.51,10.96-2.27l.44-10.49c.1-.99,.83-1.77,1.72-1.89,1.08-.15,1.81,.75,1.84,.79,1.56,3.02,3.12,6.04,4.68,9.07Z"/>
          <path class="cls-2" d="M323.35,140.23c1.9-.31,3.43-.58,4.46-.77,4.48-.81,6.48-1.29,7.53-.15,.07,.08,.32,.36,.45,.79,.49,1.54-1.01,3.03-3.88,6.79-.55,.73-1.28,1.7-2.12,2.86,.47-.47,6.1-6.2,6.74-8.74,.09-.35,.29-1.13-.1-1.8-.39-.67-1.17-.88-1.51-.97-2.53-.69-10.97,1.8-11.58,1.98Z"/>
          <path class="cls-2" d="M321.97,157.23s-.31,.32-1.8,2.16c-3.33,4.14-4.07,5.11-5.36,5.22-.16,.01-1.28,.09-2.15-.63-.26-.22-.65-.63-.9-1.48-.49-1.61,.08-2.79,.76-5.83,.38-1.72,.68-3.49,.61-3.51-.07-.02-.48,1.53-.98,3.44-.97,3.68-1.08,4.47-.9,5.52,.14,.79,.36,1.94,1.36,2.63,1.05,.73,2.31,.5,2.4,.49,.5-.1,.87-.3,1.11-.45,1.48-.91,2.41-2.41,3.11-3.5,1.73-2.67,2.8-4,2.74-4.04Z"/>
          <path class="cls-2" d="M329.81,149.76c.57,1.58,1.15,2.79,1.57,3.59,.1,.2,.71,1.35,1.44,2.82,.65,1.3,.89,1.84,.82,2.57-.02,.22-.12,1.26-.81,1.75-1.07,.77-2.77-.33-6.11-1.65-1.4-.56-2.99-1.11-4.76-1.61,1.54,.6,2.75,1.17,3.55,1.57,2.75,1.38,4.37,2.58,6.39,2.44,.93-.06,1.39-.37,1.65-.65,.27-.29,.5-.75,.52-1.58,.05-1.72-.86-3.14-1.45-4.11-.73-1.2-1.72-2.91-2.82-5.15Z"/>
          <path class="cls-2" d="M314.67,142.76s.22-1.63,.28-3.5c.06-2-.06-2.87,.16-4.74,.19-1.65,.45-2.41,1.09-2.87,.13-.09,.68-.46,1.35-.39,1.14,.11,2.15,2.02,4.12,5.83,1.2,2.32,1.63,3.17,1.68,3.14,.03-.02-.12-.43-1.36-3.35-.64-1.52-1.75-4.08-3.32-5.72-.28-.29-.75-.73-1.41-.8-.73-.07-1.32,.34-1.44,.43-1.2,.85-.93,2.85-1.01,7.42-.05,2.78-.19,4.55-.14,4.55Z"/>
          <path class="cls-2" d="M313.13,153.19c.05-.11-1.81-1.2-3.19-1.95-1.13-.61-1.62-.82-3.08-1.63-1.92-1.07-2.53-1.51-2.8-2.29-.06-.18-.3-.88-.01-1.53,.48-1.08,2.05-1.23,4.11-1.57,3.82-.63,6.51-1.43,6.5-1.46,0-.03-1.84,.4-4.38,.68-1.61,.18-4.27,.38-6.4,1.27-.43,.18-1.15,.52-1.42,1.23-.21,.55-.06,1.09,0,1.27,.45,1.55,2.68,2.43,6.43,4.11,2.94,1.32,4.2,1.96,4.24,1.88Z"/>
        </g>
        <g>
          <path class="cls-3" d="M384,157.65l9.19,9.35c.96,.65,1.41,1.83,1.13,2.91-.32,1.21-1.49,2.05-2.8,1.98-4.26-.3-8.51-.59-12.77-.89l-5.47,9.56c-.57,1.37-1.92,2.14-3.14,1.9-1.25-.24-1.84-1.43-1.91-1.57-.89-4.23-1.79-8.46-2.68-12.69l-11.87-.7c-.17-.07-1.98-.9-2.36-2.83-.32-1.63,.5-3.36,2.07-4.26,3.37-1.38,6.74-2.77,10.1-4.15l-1.5-13.4c-.34-1.1,.21-2.23,1.13-2.58,.7-.27,1.55-.05,2.14,.54,3.35,3.22,6.7,6.44,10.05,9.67l11.1-6.93c1.09-.6,2.4-.39,3.16,.44,.91,1.01,.5,2.39,.48,2.45-2.01,3.73-4.02,7.46-6.03,11.19Z"/>
          <path class="cls-2" d="M384,157.65c1.65,1.73,3.01,3.12,3.93,4.04,3.99,4.04,5.89,5.76,5.46,7.64-.03,.13-.14,.57-.49,1.02-1.24,1.59-3.83,1.1-9.71,.8-1.14-.06-2.65-.12-4.43-.16,.81,.15,10.67,1.9,13.73,.78,.42-.15,1.36-.5,1.78-1.37,.41-.87,.08-1.83-.06-2.24-1.08-3.08-9.57-10.01-10.19-10.51Z"/>
          <path class="cls-2" d="M365.54,168.2c0-.05-.54-.1-3.49-.32-6.6-.5-8.12-.59-9.14-1.83-.13-.16-1-1.25-.87-2.65,.04-.43,.19-1.11,.88-1.97,1.31-1.64,2.92-1.88,6.53-3.33,2.04-.82,4.07-1.76,4.03-1.85-.03-.08-1.91,.58-4.22,1.41-4.46,1.59-5.36,2.04-6.3,2.96-.71,.7-1.73,1.74-1.74,3.24-.01,1.59,1.11,2.73,1.19,2.81,.45,.45,.92,.68,1.25,.83,1.98,.87,4.17,.78,5.79,.73,3.96-.11,6.08,.07,6.09-.03Z"/>
          <path class="cls-2" d="M378.75,171.01c-1.22,1.69-2.06,3.14-2.59,4.14-.13,.25-.89,1.68-1.89,3.47-.88,1.58-1.27,2.21-2.06,2.65-.24,.13-1.38,.76-2.37,.4-1.54-.56-1.61-3.08-2.6-7.44-.42-1.83-.97-3.85-1.7-6.03,.47,2,.74,3.65,.89,4.76,.52,3.8,.43,6.3,2,8.29,.72,.91,1.36,1.16,1.83,1.23,.49,.07,1.12,0,1.99-.57,1.8-1.16,2.62-3.09,3.2-4.38,.72-1.59,1.78-3.82,3.3-6.53Z"/>
          <path class="cls-2" d="M375.28,150.51s1.83-.92,3.8-2.18c2.1-1.35,2.91-2.08,4.98-3.17,1.83-.96,2.8-1.23,3.71-.9,.19,.07,.95,.37,1.35,1.11,.69,1.25-.56,3.63-3.09,8.34-1.54,2.87-2.11,3.91-2.05,3.94,.04,.02,.35-.43,2.49-3.76,1.11-1.73,2.97-4.67,3.54-7.44,.1-.5,.23-1.28-.17-2.01-.44-.81-1.28-1.12-1.46-1.18-1.72-.63-3.59,1.05-8.34,4.18-2.89,1.91-4.8,3.01-4.78,3.05Z"/>
          <path class="cls-2" d="M363.48,156.27c.15-.02-.04-2.71-.24-4.65-.17-1.59-.3-2.25-.49-4.31-.26-2.73-.23-3.66,.39-4.49,.14-.19,.69-.93,1.56-1.09,1.44-.27,2.71,1.24,4.51,3.12,3.34,3.49,6.05,5.69,6.08,5.66,.02-.02-1.7-1.61-3.78-4.03-1.32-1.53-3.39-4.12-5.81-5.68-.49-.31-1.34-.82-2.27-.6-.72,.17-1.16,.71-1.3,.88-1.28,1.56-.61,4.46,.3,9.51,.71,3.95,.94,5.7,1.06,5.68Z"/>
        </g>
      </g>
    </g>
  </g>
</svg>