<?xml version="1.0" encoding="UTF-8"?>
<svg id="Layer_2" data-name="Layer 2" xmlns="http://www.w3.org/2000/svg" viewBox="0 0 383.25 386.57">
  <defs>
    <style>
      .cls-1 {
        fill: #464647;
      }
    </style>
  </defs>
  <g id="icon-paper-plane">
    <path class="cls-1" d="M14.36,237.16l75.68,32.02L303.11,80.55c1.66-1.34,4.05-1.3,5.63,.07,1.64,1.42,1.99,3.9,.77,5.75-59.19,72.58-118.37,145.15-177.56,217.73l-.58,65.2c-.02,.77-.16,9.94,6.61,14.66,6.64,4.63,17.27,3.11,23.95-4.76,17.09-19.99,34.19-39.98,51.28-59.96l84.65,36.68c.58,.29,12.37,5.86,22.61-.93,6.26-4.15,8.28-10.5,8.83-12.46,17.85-107.31,35.71-214.62,53.56-321.94,.64-4.91,1.1-13.59-4.01-17.93-6.4-5.44-18.34-1.35-25.69,1.62C289.89,29.9,22.69,193.57,14.38,198.14c-.02,0-.03,.01-.03,.01-3.93,2.95-14.96,11.1-14.33,21.21,.5,7.98,8.07,14.03,14.33,17.8Z"/>
  </g>
</svg>