<svg xmlns="http://www.w3.org/2000/svg" viewBox="0 0 132.79 129.48"><defs><style>.cls-1{fill:#ee6f96;opacity:0.57;}</style></defs><g id="Layer_2" data-name="Layer 2"><g id="Layer_25" data-name="Layer 25"><path class="cls-1" d="M88.07,20.17a8.8,8.8,0,0,0,1.59-5.58,8.66,8.66,0,0,0-1.78-4.73,10.59,10.59,0,0,1,6.2-1.07,11,11,0,0,1,7.16,4.41,8.1,8.1,0,0,0-3.6,5.05,8.17,8.17,0,0,0,1.47,6.51,12.45,12.45,0,0,0-5.65-4A12.19,12.19,0,0,0,88.07,20.17Z"/><path class="cls-1" d="M17.64,59.9A8.66,8.66,0,0,0,7.39,58.79a10.59,10.59,0,0,1-.27-6.29A11,11,0,0,1,12.39,46a7.88,7.88,0,0,0,11.2,3.57A12.27,12.27,0,0,0,17.64,59.9Z"/><path class="cls-1" d="M71.54,61.71A4.67,4.67,0,0,0,73,57a4.52,4.52,0,0,0-2.08-2.49,13.31,13.31,0,0,0,13.44-2.64A8.76,8.76,0,0,0,83.49,57a8.65,8.65,0,0,0,1.91,4.22,15,15,0,0,0-13.86.5Z"/><path class="cls-1" d="M33.29,95.15l15.3,6.34a10.94,10.94,0,0,1-.74-6.61,11.49,11.49,0,0,1,5.81-7.49,15.83,15.83,0,0,1-7-2.77,16.32,16.32,0,0,1-6.2-9.16,19.09,19.09,0,0,1-.94,11.92A18.85,18.85,0,0,1,33.29,95.15Z"/><path class="cls-1" d="M40.13,36A28.13,28.13,0,0,0,53.2,43,9.64,9.64,0,0,0,48,48.61a9.49,9.49,0,0,0,.29,6.61L39.6,52.7c2.2-1.15,4.69-2.86,4.7-5a3.82,3.82,0,0,0-.93-2.27C42.11,43.71,40.71,40.86,40.13,36Z"/><path class="cls-1" d="M95,67.37a5.71,5.71,0,0,0,5.68,2.32,6,6,0,0,0,4.25-3.6,8.08,8.08,0,0,0-1.59,5.59,8,8,0,0,0,2.7,5.17,29.6,29.6,0,0,1-5.79,10.69l-6.66-4.73A12.47,12.47,0,0,0,95,67.37Z"/><path class="cls-1" d="M34.9,77.77a4.65,4.65,0,0,0-4.5-2.09,4.49,4.49,0,0,0-2.77,1.69,13.44,13.44,0,0,0,1.57-5.73,13.7,13.7,0,0,0-2.23-8,8.59,8.59,0,0,0,9.45.28,15.07,15.07,0,0,0-1.52,13.8Z"/><path class="cls-1" d="M67.52,82.52a4.65,4.65,0,0,0,4.56-1.94,4.5,4.5,0,0,0,.6-3.19,13.36,13.36,0,0,0,3.2,5,13.67,13.67,0,0,0,7.4,3.67,8.58,8.58,0,0,0-4.5,2.66,8.69,8.69,0,0,0-2,4.17A15,15,0,0,0,74,87.35,15.29,15.29,0,0,0,67.52,82.52Z"/><polygon class="cls-1" points="70.57 35.97 76.1 0 76.95 34.34 70.57 35.97"/><polygon class="cls-1" points="103.62 43.2 132.79 39.27 105.5 54 103.62 43.2"/><polygon class="cls-1" points="19.17 73.16 0 96.83 21.99 81.8 19.17 73.16"/><polygon class="cls-1" points="14.12 17.21 28.1 42.32 29.6 37.37 14.12 17.21"/><polygon class="cls-1" points="69.25 105.77 61.99 129.47 62.53 104.42 69.25 105.77"/></g></g></svg>