<?xml version="1.0" encoding="UTF-8"?>
<svg id="Layer_2" data-name="Layer 2" xmlns="http://www.w3.org/2000/svg" viewBox="0 0 401.11 507.65">
  <defs>
    <style>
      .cls-1 {
        fill: #fff;
      }

      .cls-2 {
        fill: #818285;
      }

      .cls-3 {
        fill: #db4e89;
      }

      .cls-4 {
        fill: #231f20;
      }

      .cls-5 {
        fill: #595a5c;
      }

      .cls-6 {
        fill: #60c8d4;
      }

      .cls-7 {
        fill: none;
        stroke: #a92e63;
        stroke-miterlimit: 10;
        stroke-width: 11px;
      }

      .cls-8 {
        fill: #f7b1c4;
        opacity: .57;
      }
    </style>
  </defs>
  <g id="icon-listening">
    <g>
      <path class="cls-5" d="M252.17,270.26c-6.14,4.57-8.75,12.33-6.59,19.17,2.72,8.6,11.54,11.12,12.15,11.29,21.15-10.3,43.32-21.9,66.22-34.99,22.67-12.95,43.73-26.02,63.17-38.89,5.97-8.02,6.91-18.68,2.4-27.31-5.04-9.63-16.01-15.05-27.13-13.26-10.37,6.8-86.55,66.34-110.22,83.99Z"/>
      <path class="cls-5" d="M390.94,218.85c-5.95,8.86-16.88,13.01-27.14,10.34-10.47-2.73-18.06-12.01-18.68-22.89,4.42-29.28,8.83-58.56,13.25-87.85,.62-.98,7.55-11.6,20.76-12.22,12.03-.57,19.59,7.61,20.58,8.7,1.28,12.89,1.89,27.84,.96,44.4-1.31,23.32-5.32,43.43-9.72,59.52Z"/>
      <path class="cls-5" d="M399.58,114.77c.98,10.83-5.72,20.67-15.42,23.45-8.24,2.35-17.41-.75-23.02-7.86-5.68-18.35-11.36-36.69-17.05-55.04-.32-1.05-.19-1.75,0-2.2,.93-2.21,5.26-3.09,10.78-1.9,2.48,.59,4.98,1.37,7.49,2.36,22.29,8.89,32.96,30.62,37.22,41.18Z"/>
      <path class="cls-5" d="M139.18,272.76c7.21-2.56,15.12-.43,19.6,5.17,5.64,7.04,2.84,15.77,2.64,16.37-20.31,11.88-42.27,23.87-65.87,35.65-23.36,11.66-45.92,21.92-67.42,30.95-9.99,.51-19.37-4.62-24.04-13.17-5.21-9.54-3.63-21.67,4.03-29.92,11.41-4.85,103.23-35.15,131.05-45.04Z"/>
      <path class="cls-5" d="M1.35,342.07c4.36,9.74,14.43,15.69,25,14.79,10.78-.92,19.83-8.77,22.29-19.39,.61-29.61,1.23-59.21,1.84-88.82-.44-1.07-5.47-12.71-18.38-15.57-11.76-2.6-20.6,4.17-21.75,5.09-3.45,12.49-6.58,27.12-8.47,43.59-2.66,23.21-2.13,43.71-.51,60.31Z"/>
      <g>
        <path class="cls-5" d="M129.13,266.77c2.54-3.32,25.47-32.24,65.21-32.14,39.5,.09,62.24,28.77,64.82,32.14,11.76,33.9,23.38,76.26,30.26,125.76,6.02,43.27,7.04,82.08,5.88,114.64-67.68,.16-135.36,.33-203.04,.49-1.38-33.43-.42-74.34,6.49-120.39,7.15-47.66,18.79-88.25,30.38-120.5Z"/>
        <g>
          <path class="cls-2" d="M129.13,266.77c-.93-.26-12.2,33.41-20.99,71.28-4,17.25-7.06,33.71-9.39,49.22-1.63,10.86-4.52,32.09-6.05,59.46-1.69,30.3-1.31,60.91-.44,60.93,1.14,.03-.85-51.59,9.06-118.64,10.57-71.47,28.95-121.93,27.8-122.25Z"/>
          <path class="cls-2" d="M259.45,267.51c.93-.26,11.29,32.15,20.07,70.02,4,17.25,7.06,33.71,9.39,49.22,1.63,10.86,4.52,32.09,6.05,59.46,1.69,30.3,1.31,60.91,.44,60.93-1.14,.03,.85-51.59-9.06-118.64-10.57-71.47-28.03-120.66-26.89-120.99Z"/>
        </g>
      </g>
      <g>
        <g>
          <circle class="cls-5" cx="193.84" cy="154.43" r="128.98"/>
          <path class="cls-2" d="M162.29,279.47s43.55,15.76,83.86-7.03c0,0-40.62,19.15-83.86,7.03Z"/>
        </g>
        <path class="cls-1" d="M156.46,222.39s34.37,8.52,85-7.13c0,0-17.05,32.44-39.97,33.81,0,0-25.02,2.8-45.04-26.68Z"/>
        <g>
          <path class="cls-6" d="M146.72,194.57s4.17-1.1,8.85-.74l-2.78-1.92s-5.43,1.09-6.07,2.67Z"/>
          <path class="cls-6" d="M120.74,147.76s1.68,5.37,15.48,9.27c0,0,8.53,3.11,10.46-14.05,0,0-12.24,1.95-26.59-10.33,0,0,.44,9.84,19.32,15.84,0,0,1.14,.82,.06,1.6,0,0-10.37,2.32-18.73-2.34Z"/>
          <ellipse class="cls-1" cx="153.83" cy="167.39" rx="16.94" ry="26.5" transform="translate(-13.45 13.44) rotate(-4.79)"/>
          <path class="cls-6" d="M265.56,135.62s-.76,5.58-13.72,11.72c0,0-7.89,4.49-12.65-12.11,0,0,12.39-.12,24.5-14.61,0,0,1.2,9.78-16.41,18.83,0,0-.99,1,.21,1.59,0,0,10.61,.56,18.08-5.42Z"/>
          <path class="cls-6" d="M248.44,186.04s-4.29-.39-8.85,.74l2.42-2.36s5.53,.17,6.43,1.62Z"/>
          <ellipse class="cls-1" cx="236.21" cy="160.48" rx="16.94" ry="26.5" transform="translate(-12.58 20.3) rotate(-4.79)"/>
          <ellipse class="cls-4" cx="154.63" cy="172.64" rx="13.29" ry="21.19" transform="translate(-13.88 13.52) rotate(-4.79)"/>
          <ellipse class="cls-1" cx="145.33" cy="157.44" rx="3.36" ry="5.26" transform="translate(-12.64 12.69) rotate(-4.79)"/>
          <ellipse class="cls-4" cx="236.55" cy="165.77" rx="13.48" ry="21.19" transform="translate(-13.02 20.34) rotate(-4.79)"/>
          <ellipse class="cls-1" cx="228.18" cy="150.49" rx="3.36" ry="5.26" transform="translate(-11.78 19.59) rotate(-4.79)"/>
          <ellipse class="cls-8" cx="141.84" cy="211.96" rx="15.66" ry="4.13" transform="translate(-17.21 12.59) rotate(-4.79)"/>
          <ellipse class="cls-8" cx="259.34" cy="202.11" rx="15.66" ry="4.13" transform="translate(-15.98 22.37) rotate(-4.79)"/>
        </g>
      </g>
      <g>
        <path class="cls-7" d="M56.37,135.87c6.13-54,36.62-101.26,81.67-120.61,64.7-27.8,152.72,4.82,192.93,84.61"/>
        <path class="cls-3" d="M71.23,116.31c5.38,5.44,18.11,19.78,22.27,42.27,5.64,30.51-8.56,53.87-12.02,59.25-28.31,3.37-53.69-15.28-58.73-39.97-5.72-28.03,15.92-58.45,48.48-61.55Z"/>
        <path class="cls-3" d="M297.9,78.92c-3.37,6.87-10.86,24.52-7.63,47.16,4.37,30.71,25.28,48.33,30.28,52.32,27.9-5.83,46.02-31.6,42.92-56.6-3.52-28.39-33.72-50.33-65.57-42.89Z"/>
      </g>
      <path class="cls-5" d="M10.33,238.17c.43,10.86,8.34,19.76,18.33,21.25,8.48,1.27,17.17-2.99,21.81-10.77,3.26-18.93,6.52-37.86,9.78-56.78,.18-1.09-.04-1.76-.29-2.18-1.21-2.07-5.62-2.39-10.94-.48-2.38,.91-4.77,2-7.12,3.31-20.95,11.7-28.72,34.63-31.57,45.66Z"/>
    </g>
  </g>
</svg>