<?xml version="1.0" encoding="UTF-8"?>
<svg id="Layer_2" data-name="Layer 2" xmlns="http://www.w3.org/2000/svg" viewBox="0 0 487.59 504.86">
  <defs>
    <style>
      .cls-1 {
        fill: #42c2c9;
      }

      .cls-2 {
        fill: #5fc8d4;
      }

      .cls-3 {
        fill: #4fabaf;
      }
    </style>
  </defs>
  <g id="icon-sun">
    <g>
      <path class="cls-2" d="M233.25,115.83c2.63-7.54,8.22-19.98,20.15-30.17,23.83-20.35,55.7-16.95,62.21-16.25,27.04,2.89,33.73,15.61,55.76,12.99,14.33-1.7,25.36-8.72,32.37-14.3,1.51,7.36,3.97,24.72-4.52,42.91-16.97,36.38-61.04,40.35-63,40.49-9.09-8.04-25.47-20.48-49.16-28.45-22.42-7.54-41.92-7.9-53.81-7.22Z"/>
      <path class="cls-3" d="M233.25,115.83c5.15-7.89,15.12-20.54,31.88-29.38,22.37-11.8,44.21-10.16,51.93-9.2,19.06,2.38,22.99,9.44,43.01,11.09,14.32,1.18,26.28-1.28,34.08-3.52,.67,6.87,.36,15.27-2.7,24.07-11.53,33.14-51.6,41.87-55.23,42.6,2.42-.13,43.27-2.97,61.35-37.2,10.53-19.93,7.52-39.49,6.17-46.2-5.55,4.61-14.34,10.56-26.08,12.96-16.4,3.35-23.57-4.69-50.1-9.47-16.65-3-30.99-5.58-48.12-.46-5.76,1.72-22.45,6.96-35.08,23.1-6.37,8.14-9.5,16.24-11.11,21.6Z"/>
    </g>
    <g>
      <path class="cls-2" d="M315.79,139.18c11.95,9.02,31.79,26.5,46.66,54.85,11.18,21.31,15.48,40.98,17.28,54.3,8.86,3.29,34.72,11.55,65.36,2.37,21.5-6.44,35.61-18.55,42.5-25.38-7.54-1.52-18.44-4.71-29.25-12.21-19.31-13.4-18.58-26.86-36.44-45.46-4.09-4.26-22.47-22.65-51.76-29.81-23.59-5.77-43.71-1.69-54.36,1.35Z"/>
      <path class="cls-3" d="M315.79,139.18c9.62-1.27,24.58-2.06,42.01,2.04,9.24,2.17,32.86,8.93,53.51,28.56,13.79,13.11,13.2,19.55,31.27,37.61,10.08,10.08,19.44,17.24,25.83,21.75-6.02,4.5-13.59,9.22-22.82,13.08-27.51,11.53-53.09,8.58-65.86,6.1,8.72,3.3,29.03,9.64,54.43,4.98,28.82-5.28,46.94-21.54,53.44-27.99-9.89-1.7-17.01-5.01-21.41-7.48-15.8-8.88-25.04-23.01-28.61-28.48-4.11-6.29-5.27-9.64-10.68-16.11-5.7-6.81-11.07-11.05-13.83-13.2-10.37-8.08-32.36-25.22-63.76-26.16-7.34-.22-19.23,.33-33.51,5.28Z"/>
    </g>
    <g>
      <path class="cls-2" d="M376.43,216.88c2.46,14.28,4.54,36.63-.26,63.23-4.59,25.42-13.7,44.89-20.69,57.26,3.57,7.62,15.77,31.17,43.71,45.45,23.55,12.03,45.46,10.93,54.31,10-6.41-7.14-14.58-18.41-17.71-33.61-4.35-21.14,5.35-29.03,4.13-53.12-1.42-28.08-16.16-48.47-21.02-55.01-14.69-19.78-32.65-29.7-42.46-34.19Z"/>
      <path class="cls-3" d="M376.43,216.88c11.96,7.62,35.21,25.03,47.02,55.29,3.11,7.98,8.05,20.64,7.78,37.46-.31,19.24-7.2,28.61-4.91,47.7,1.3,10.82,4.9,19.38,7.78,24.97-8.12,.31-21.09-.31-35.41-6.14-26.19-10.66-39.11-31.47-43.21-38.8,3.39,8.07,12.52,26.66,33.04,40.6,28.04,19.04,57.47,15.88,64.98,14.85-6.38-7.21-14.42-18.47-17.71-33.61-4.7-21.61,5.13-28.78,4.13-53.12-1.4-34.23-22.41-58.43-27-63.49-13.18-14.53-27.75-22.02-36.49-25.72Z"/>
    </g>
    <g>
      <path class="cls-2" d="M370.84,309.07c-4.89,11.56-15.72,32.86-37.84,51.81-24.68,21.15-50.41,28.22-62.89,30.79-2.42,9.91-7.41,36.02,3.74,65.97,9.44,25.35,25.67,40.62,33.65,47.22,.44-6.8,1.93-17.35,7.44-28.53,12.05-24.45,30.82-26.59,48.04-50.57,12.73-17.71,16.14-35.56,17.71-44.27,5.86-32.53-3.99-59.5-9.85-72.42Z"/>
      <path class="cls-3" d="M270.11,391.67c-1.4,11.44-2.59,34.65,8.32,60.31,6.69,15.73,15.65,27,22.4,34.16,.27-6.79,1.73-16.3,7.75-25.01,5.37-7.78,11.13-10.2,22.89-19.37,8.93-6.96,17.81-15.07,22.95-20.82,15.46-17.29,19.15-37.83,21.26-49.61,4.94-27.56-.82-50.3-4.85-62.27,8.29,17.23,10.45,31.9,11.06,40.97,2.04,30.31-8.5,68.72-34.67,92.65-11.28,10.31-21.01,13.86-29.85,29.14-7.12,12.31-9.22,24.55-9.88,33.03-7.84-6.51-27.28-24.41-36.19-54.93-7.64-26.15-3.66-48.24-1.2-58.26Z"/>
    </g>
    <g>
      <path class="cls-2" d="M302.07,380.09c-11.58,5.6-37.19,16.03-70.62,13.51-26.94-2.03-47.06-11.57-57.87-17.72-8.34,6.66-28.24,24.39-38.26,54.94-8.61,26.23-5.62,48.74-3.53,59.28,5.17-6.55,14.19-16.04,27.87-21.27,21.62-8.27,33.85,2.13,59.63-2.01,27.5-4.42,45.87-21.45,51.51-26.82,23.16-22.03,29.38-48.94,31.26-59.91Z"/>
      <path class="cls-3" d="M302.07,380.09c-3.27,8.51-8.65,20.24-17.49,32.81-6.53,9.28-14.27,20.29-28.02,29.77-5.11,3.52-22.76,15.38-47.02,16.47-23.56,1.06-32.02-8.99-49.45-3.29-11.02,3.61-18.39,11.14-22.62,16.37-.8-11.24-.78-32.48,9.15-56.3,8.08-19.39,19.43-32.56,26.96-40.04-7.94,5.99-27.59,22.46-38.05,51.72-10.13,28.33-5.96,52.75-3.75,62.5,5.51-6.75,14.54-15.81,27.87-21.27,22.94-9.4,33.72,2.04,59.63-2.01,44.3-6.94,69.23-49.25,70.64-51.73,7.77-13.64,10.81-26.51,12.14-34.99Z"/>
    </g>
    <g>
      <path class="cls-2" d="M112.36,305.27c5.44,12.22,16.19,32.1,36.34,50.64,24.07,22.13,49.38,31.15,62.88,34.92-8.72,6.47-30.36,20.67-61.41,22.66-9.28,.59-46.9,3-72.9-20.39-12.46-11.21-14.03-20.94-28.38-27.66-14.06-6.58-28.81-4.85-38.91-2.45,5.35-9.26,14.71-22.58,30.1-34.24,29.15-22.07,60.59-23.53,72.27-23.48Z"/>
      <path class="cls-3" d="M112.36,305.27c.85,0-28.11,2.47-57.44,22.11-12.47,8.35-21.44,17.48-27.46,24.54,7.87,.56,19.41,2.5,30.71,9.5,14.73,9.14,17.15,19.5,30.71,29.97,13.27,10.25,26.99,12.7,39.33,14.9,39.05,6.97,71.62-8.97,83.39-15.47-8.1,6.76-21.81,16.22-40.92,21.11-23.18,5.93-42.2,2.04-52.28-.14-9.15-1.98-19.37-4.18-30.77-11.02-21.5-12.89-21.66-26.97-38.72-35.35-7.48-3.67-19.68-6.97-38.91-2.45,5.57-9.4,16.41-24.78,35.16-37.49,27.75-18.81,55.87-20.27,67.21-20.24Z"/>
    </g>
    <circle class="cls-1" cx="243.12" cy="254.96" r="139.35"/>
    <g>
      <path class="cls-2" d="M148.33,153.04c.07-34.39,13.32-54.21,19.36-61.95,17.59-22.55,44.85-33.38,54.37-37.16,22.14-8.8,33.81-7.39,45.49-19.47,10.2-10.55,13.46-24.19,14.57-34.46,5.55,9.36,15.65,29.29,16.56,56.46,1.07,31.76-11.03,55.1-16.56,64.46-11.93-3.42-29.08-6.68-49.49-5.02-43.72,3.55-73.32,27.3-84.3,37.14Z"/>
      <path class="cls-3" d="M148.33,153.04c1.57-8.05,4.56-19.34,10.69-31.77,4.1-8.33,18.63-36.89,49.25-53.67,22.69-12.44,32.87-6.71,53.9-21.98,11.29-8.2,18.72-17.38,23.18-23.76,2.64,7.15,4.99,15.45,6.45,24.79,5.05,32.35-3.45,59.31-9.69,74.28,5.54-9.36,17.63-32.7,16.56-64.46C297.76,29.29,287.66,9.36,282.11,0c-1.33,8.73-4.46,19.69-12.26,29.46-19.08,23.9-45.9,15.36-80.54,41.14-6.84,5.09-18.87,14.23-28.28,30.45-11.9,20.51-12.99,40.93-12.71,51.99Z"/>
    </g>
    <g>
      <path class="cls-2" d="M132.64,339.85c-8.14-11.6-21.77-34.39-26.31-66.26-3.41-23.99-.36-43.93,2.61-56.51-4.9-7.49-15.52-21.37-34.12-30.39-35.01-16.98-69.25-2.71-74.82-.28,8.25,6.39,19.21,16.81,26.05,32.43,8.72,19.89,2.16,28.58,8.51,49.44,9.89,32.53,37.68,50.42,43.6,54.23,21.82,14.05,43.33,16.77,54.49,17.35Z"/>
      <path class="cls-3" d="M132.64,339.85c-8.53-1.16-20.99-3.81-34.69-10.41-8.03-3.87-27.03-13.31-41.47-33.93-12.54-17.9-16.24-36.5-17.82-44.9-2.93-15.54-1.43-24.07-7.2-40.1-3.61-10.05-8.16-17.71-11.43-22.59,6.98-2.08,15.81-3.72,25.96-3.29,34.51,1.46,57.13,25.77,62.95,32.45-4.56-6.95-16.87-23.61-39.64-32.81C35.78,170.71,5.57,183.85,0,186.4c8.96,6.8,20.63,17.89,26.92,34.5,5.94,15.7,1.98,22.9,5.75,39.76,6.74,30.17,28.84,49.19,34.78,54.17,26,21.79,54.9,24.54,65.19,25.03Z"/>
    </g>
    <g>
      <path class="cls-2" d="M104.49,241.36c-7.04-6.11-17.8-17.15-24.48-33.88-12.57-31.42-2.35-61.81,.24-69.16,9.8-27.84,24.88-32.75,29.12-60.32,1.93-12.58,.59-23.27-.75-30.11,9.35,3.68,24.42,11.07,38.39,25.59,21.9,22.78,27.41,48.9,29.02,59.31-11.26,7.14-27.35,19.3-41.82,38.56-20.67,27.5-27.29,55.19-29.72,70.01Z"/>
      <path class="cls-3" d="M104.49,241.36c-11.96-11.02-18.04-22.18-21.3-30.24-15.82-39.17,4.8-79.83,6.76-83.55,6.61-12.57,13.54-18.36,20.94-37.38,4.31-11.07,6.53-20.71,7.74-27.27,7.79,3.96,17.56,10.05,27.17,19.34,19.08,18.44,26.93,39.28,30.22,50.54-1.4-9.62-5.9-31.4-22.98-52.44-16.24-20.01-35.39-28.91-44.44-32.46,1.72,8.73,3.08,21.73-.47,36.34-4.74,19.48-13.76,23.49-22.92,41.52-1.47,2.9-22.43,45.67-4.57,85.25,6.56,14.53,16.41,24.33,23.84,30.36Z"/>
    </g>
  </g>
</svg>