<svg xmlns="http://www.w3.org/2000/svg" viewBox="0 0 147.19 117.75"><defs><style>.cls-1{fill:#ee6f96;}.cls-1,.cls-2{opacity:0.57;}.cls-2{fill:#fff;}</style></defs><g id="Layer_2" data-name="Layer 2"><g id="Layer_25" data-name="Layer 25"><path class="cls-1" d="M73.06,30.59c-.54-1.93-6.22-20.82-24.78-27.23-3.2-1.1-14.91-4.64-27.22,1.22C7.41,11.08,3.07,24.36,2,27.74c-7.57,23.11,9.13,43.79,10.56,45.51,9.46,11.34,18,18.85,31.29,27.63a181,181,0,0,0,32,16.87,209.34,209.34,0,0,0,27.76-16.47c11.74-8.24,18.73-14.9,27.62-24,2.75-2.79,17.83-18.68,15.85-41-.44-5-1.64-18.48-13-28C120.21-3.36,103,.57,101.5.93,87.53,4.36,76.56,15.89,73.06,30.59Z"/><ellipse class="cls-2" cx="115.06" cy="43.79" rx="16.9" ry="23.32"/></g></g></svg>