<?xml version="1.0" encoding="UTF-8"?>
<svg id="Layer_2" data-name="Layer 2" xmlns="http://www.w3.org/2000/svg" viewBox="0 0 307.27 494.83">
  <defs>
    <style>
      .cls-1 {
        fill: #5fc8d4;
      }

      .cls-2 {
        fill: #51abaf;
      }
    </style>
  </defs>
  <g id="icon-next-arrow">
    <g>
      <path class="cls-2" d="M6.54,52.21C-1.03,41.37-2.14,27.8,3.79,18.5,12.06,5.51,33.8,1.18,50.58,13.68c71.56,71.33,143.12,142.66,214.68,213.99,1.24,1.06,10.74,9.52,10.32,23.39-.42,13.86-10.39,21.72-11.7,22.71-70.64,71.1-141.29,142.2-211.93,213.3-14.73,12.08-35.65,9.36-45.41-3.44-7.87-10.32-7.63-26.09,1.38-37.84,65.14-65.6,130.28-131.19,195.41-196.79L6.54,52.21Z"/>
      <path class="cls-1" d="M38.21,45.99c-7.57-10.85-8.68-24.41-2.75-33.72C43.73-.72,65.47-5.05,82.25,7.45c71.56,71.33,143.12,142.66,214.68,213.99,1.24,1.06,10.74,9.52,10.32,23.39-.42,13.86-10.39,21.72-11.7,22.71-70.64,71.1-141.29,142.2-211.93,213.3-14.73,12.08-35.65,9.36-45.41-3.44-7.87-10.32-7.63-26.09,1.38-37.84,65.14-65.6,130.28-131.19,195.41-196.79L38.21,45.99Z"/>
    </g>
  </g>
</svg>