<svg width="19" height="32" viewBox="0 0 19 32" fill="none" xmlns="http://www.w3.org/2000/svg">
<path d="M18.5956 3.37656C19.0637 2.6749 19.1323 1.79798 18.7656 1.19591C18.2542 0.355847 16.9099 0.0758276 15.8723 0.884198C11.4479 5.49773 7.02295 10.1106 2.59797 14.7235C2.52129 14.792 1.93385 15.3391 1.95982 16.2361C1.98579 17.1324 2.6023 17.6407 2.6833 17.7048C7.0514 22.3028 11.4201 26.9008 15.7882 31.4988C16.6991 32.28 17.9927 32.1041 18.5962 31.2763C19.0828 30.6089 19.068 29.5891 18.5109 28.8292C14.4829 24.5869 10.4549 20.3452 6.42747 16.1029L18.5956 3.37656Z" fill="#50ABAF"/>
<path d="M16.6372 2.97422C17.1053 2.27256 17.1739 1.39564 16.8072 0.793561C16.2959 -0.0464968 14.9515 -0.326516 13.9139 0.481854C9.48896 5.09474 5.06397 9.70762 0.638983 14.3205C0.562307 14.3891 -0.0251355 14.9362 0.000835676 15.8331C0.0268068 16.7294 0.643312 17.2377 0.724317 17.3018C5.09241 21.8998 9.46113 26.4978 13.8292 31.0958C14.7401 31.877 16.0337 31.7011 16.6372 30.8733C17.1238 30.2059 17.109 29.1861 16.5519 28.4262C12.5239 24.1839 8.49587 19.9422 4.46849 15.6999L16.6372 2.97422Z" fill="#47D8E0"/>
</svg>
