<svg width="19" height="32" viewBox="0 0 19 32" fill="none" xmlns="http://www.w3.org/2000/svg">
<path d="M0.404454 3.37641C-0.0636442 2.67539 -0.132282 1.79782 0.234405 1.19639C0.745789 0.356335 2.0901 0.0763159 3.12771 0.884686C7.5527 5.49757 11.9777 10.1105 16.4027 14.7233C16.4793 14.7919 17.0668 15.339 17.0408 16.236C17.0148 17.1323 16.3983 17.6406 16.3173 17.7046C11.9492 22.3026 7.58052 26.9006 3.21243 31.4986C2.30158 32.2798 1.00797 32.1039 0.404454 31.2762C-0.082195 30.6088 -0.0673544 29.5889 0.489788 28.8291C4.51779 24.5867 8.54579 20.3451 12.5732 16.1027L0.404454 3.37641Z" fill="#50ABAF"/>
<path d="M2.36295 2.97422C1.89485 2.27256 1.82621 1.39564 2.1929 0.793561C2.70429 -0.0464968 4.0486 -0.326516 5.08621 0.481854C9.51119 5.09474 13.9362 9.70762 18.3612 14.3205C18.4378 14.3891 19.0253 14.9362 18.9993 15.8331C18.9733 16.7294 18.3568 17.2377 18.2758 17.3018C13.9077 21.8998 9.53902 26.4978 5.17092 31.0958C4.26008 31.877 2.96647 31.7011 2.36295 30.8733C1.8763 30.2059 1.89114 29.1861 2.44828 28.4262C6.47628 24.1839 10.5043 19.9422 14.5317 15.6999L2.36295 2.97422Z" fill="#47D8E0"/>
</svg>
