<svg width="151" height="198" viewBox="0 0 151 198" fill="none" xmlns="http://www.w3.org/2000/svg">
<path d="M34.4638 90.1145C35.1103 88.8769 40.9964 78.0353 54.0759 75.7903C67.0741 73.5596 76.1929 81.7052 77.2322 82.6646C83.0416 93.1607 89.2821 106.449 94.3779 122.366C98.832 136.277 101.385 149.004 102.869 159.798C102.141 160.748 95.3837 169.296 84.555 168.907C78.4678 168.687 74.1383 165.756 72.3902 164.413C71.94 164.758 70.9439 165.425 69.4975 165.626C68.2523 165.799 67.2513 165.545 66.7245 165.372C65.4026 167.281 62.1651 171.368 56.4562 173.594C46.437 177.499 37.3517 172.328 36.1113 171.594C33.7454 160.661 31.7195 147.124 31.3603 131.562C30.9867 115.453 32.4954 101.412 34.4638 90.1241V90.1145Z" fill="#595A5C"/>
<path d="M34.4636 90.1145C34.1427 90.0809 32.3611 101.824 31.6379 114.801C31.3074 120.711 31.2452 126.314 31.3649 131.552C31.4511 135.227 31.7145 142.384 32.773 151.489C33.9463 161.568 35.8238 171.632 36.1111 171.589C36.4847 171.536 32.8831 154.641 32.3084 131.984C31.6954 107.83 34.8563 90.1576 34.4636 90.1145Z" fill="#818285"/>
<path d="M77.3708 82.8996C77.6629 82.7605 82.9216 92.8441 87.9743 104.818C90.278 110.272 92.2224 115.52 93.8795 120.495C95.0385 123.982 97.2033 130.809 99.2675 139.736C101.557 149.618 103.18 159.726 102.898 159.783C102.524 159.86 100.225 142.739 93.1324 121.219C85.5701 98.2792 77.0116 83.0723 77.3708 82.8996Z" fill="#818285"/>
<path d="M57.0063 92.4732C80.3325 88.4123 95.9356 66.0654 91.8568 42.5601C87.7781 19.0548 65.562 3.29205 42.2358 7.35298C18.9096 11.4139 3.30648 33.7607 7.38523 57.266C11.464 80.7713 33.6801 96.5341 57.0063 92.4732Z" fill="#595A5C"/>
<path d="M56.8542 92.4267C55.5179 92.6809 54.0572 92.8872 52.4863 93.0072C48.6453 93.295 45.2736 92.9784 42.5581 92.4891C46.3464 92.6857 51.1884 92.6042 56.7057 91.6592C62.3331 90.6949 67.0075 89.1215 70.5564 87.6392C68.5401 88.8241 65.9107 90.1193 62.7067 91.1123C60.5659 91.7791 58.5831 92.182 56.8542 92.4267Z" fill="#818285"/>
<path d="M35.0099 134.478C28.8173 131.298 21.3556 132.233 16.3891 136.757C10.867 141.784 9.50688 150.251 13.2856 157.068C15.9772 159.035 18.2905 160.623 20.0433 161.788C22.3374 163.324 24.1142 164.436 26.37 165.856C26.6286 166.02 29.9524 168.106 33.0798 169.982C39.1287 173.613 45.0387 176.914 50.7523 179.922C56.0158 181.591 61.6576 179.475 64.3108 174.861C66.9258 170.303 66.011 164.393 62.0838 160.589C53.0608 151.887 44.0377 143.18 35.0147 134.478H35.0099Z" fill="#595A5C"/>
<path d="M96.0544 195.196C96.4663 195.767 96.5573 196.491 96.2699 197.067C95.9012 197.81 94.9625 198.189 94.0429 197.906C84.7277 195.009 74.5074 191.233 63.7171 186.273C57.5916 183.457 51.8971 180.536 46.6384 177.614C40.2447 173.129 39.33 164.393 43.7265 159.553C47.625 155.255 55.1059 154.693 60.4412 159.016C72.3139 171.076 84.1818 183.136 96.0544 195.2V195.196Z" fill="#595A5C"/>
<path d="M42.2803 141.492C48.8225 147.646 55.4269 154.012 62.0792 160.589C70.3839 168.797 78.3533 176.943 86.0066 184.987C76.9548 176.54 67.7833 167.655 58.5447 158.32C52.9556 152.674 47.5389 147.061 42.2851 141.492H42.2803Z" fill="#818285"/>
<path d="M100.001 129.533C106.093 126.16 113.578 126.87 118.684 131.236C124.354 136.09 125.978 144.509 122.41 151.446C119.781 153.494 117.515 155.149 115.801 156.373C113.555 157.975 111.816 159.145 109.603 160.632C109.35 160.8 106.093 162.993 103.028 164.964C97.0937 168.778 91.2891 172.261 85.6712 175.441C80.4653 177.274 74.7564 175.336 71.9643 170.798C69.2104 166.322 69.9432 160.388 73.7507 156.464C82.5007 147.488 91.2556 138.508 100.006 129.533H100.001Z" fill="#595A5C"/>
<path d="M40.4699 192.409C40.0724 192.994 40.0005 193.723 40.3023 194.289C40.695 195.023 41.6481 195.373 42.558 195.052C51.8349 191.823 62.0026 187.688 72.7019 182.335C78.7795 179.298 84.4165 176.175 89.6177 173.067C95.9204 168.351 96.6005 159.563 92.0554 154.861C88.0228 150.688 80.4989 150.386 75.2546 154.9C63.6597 167.401 52.06 179.903 40.4651 192.404L40.4699 192.409Z" fill="#595A5C"/>
<path d="M96.227 133.404C91.6723 138.187 87.1177 142.969 82.5631 147.752C73.904 156.847 65.245 165.938 56.5859 175.033C64.4117 165.396 73.3628 155.379 83.5736 145.305C87.8265 141.108 92.0555 137.146 96.227 133.404Z" fill="#818285"/>
<path d="M34.1528 90.8485C35.3501 88.589 37.7831 87.3322 40.1442 87.7016C43.1184 88.1669 44.3971 90.954 44.4833 91.1459C42.1557 98.6582 39.445 106.573 36.2841 114.805C33.1566 122.956 29.9047 130.574 26.6432 137.654C24.2964 140.033 20.829 140.883 17.7543 139.827C14.3203 138.647 11.9784 135.299 12.0071 131.533C13.7265 127.762 29.5264 99.5649 34.1528 90.8485Z" fill="#595A5C"/>
<path d="M11.9784 131.365C13.2045 135.025 16.3846 137.203 19.8712 136.776C23.4296 136.34 26.5714 133.284 27.6059 129.24C28.4392 118 29.2726 106.756 30.1011 95.5161C29.9814 95.1131 28.5733 90.7381 24.3971 89.7547C20.5896 88.8624 17.5436 91.5057 17.1461 91.8606C15.7476 96.629 14.4066 102.203 13.4344 108.473C12.0646 117.3 11.806 125.076 11.9784 131.365Z" fill="#595A5C"/>
<path d="M15.7042 98.0346C18.209 100.668 22.1506 101.153 24.9859 99.3202C27.3901 97.7659 28.6306 94.7773 28.0798 91.7983C24.7225 86.3248 21.3652 80.856 18.0079 75.3825C17.8115 75.0707 17.6104 74.9508 17.4571 74.898C16.6956 74.6438 15.5222 75.5408 14.6075 77.191C14.21 77.9442 13.8556 78.7453 13.5538 79.5944C10.8814 87.1595 13.9897 94.6334 15.709 98.0298L15.7042 98.0346Z" fill="#595A5C"/>
<path d="M83.0608 85.1735C81.4564 83.1827 78.8366 82.4055 76.5809 83.2163C73.7456 84.2333 73.0176 87.2123 72.9697 87.4186C76.6719 94.3552 80.8242 101.618 85.4794 109.106C90.0867 116.518 94.7132 123.387 99.2486 129.724C102.002 131.619 105.566 131.797 108.387 130.18C111.538 128.372 113.205 124.64 112.467 120.951C110.068 117.573 89.2438 92.8681 83.056 85.1783L83.0608 85.1735Z" fill="#595A5C"/>
<path d="M101.615 131.533C98.5019 129.796 96.8209 126.266 97.4243 122.773C98.0421 119.209 100.921 116.422 104.522 115.914C114.388 116.576 124.249 117.238 134.115 117.9C134.46 118.077 138.181 120.092 138.756 124.481C139.278 128.472 136.768 131.221 136.428 131.581C132.175 132.368 127.219 132.982 121.682 133.13C113.885 133.337 107.084 132.56 101.61 131.538L101.615 131.533Z" fill="#595A5C"/>
<path d="M136.61 131.48C132.994 131.845 129.647 129.595 128.646 126.304C127.798 123.507 128.765 120.384 131.103 118.456C137.204 116.47 143.301 114.489 149.402 112.503C149.752 112.392 149.987 112.436 150.14 112.498C150.887 112.81 151.213 114.278 150.854 116.158C150.676 117.002 150.432 117.856 150.116 118.71C147.31 126.314 140.111 130.003 136.61 131.48Z" fill="#595A5C"/>
<path d="M26.6432 137.654C25.9344 138.196 23.7505 139.722 20.6422 139.683C16.2313 139.626 13.5588 136.464 13.1709 135.99C13.4343 136.445 15.2159 139.424 18.9276 140.139C23.3003 140.979 26.4085 137.904 26.648 137.659L26.6432 137.654Z" fill="#818285"/>
<path d="M17.4526 74.9028L25.0006 86.7949C23.444 85.1591 21.6576 82.9764 20.0149 80.1893C18.899 78.2944 18.0705 76.4955 17.4526 74.9076V74.9028Z" fill="#818285"/>
<path d="M29.3873 105.134L27.8978 125.215C27.6296 122.797 27.4811 120.02 27.6057 116.945C27.7924 112.311 28.5444 108.32 29.3873 105.134Z" fill="#818285"/>
<path d="M102.932 131.519C105.566 132.013 108.425 132.435 111.495 132.732C115.839 133.154 119.852 133.25 123.454 133.159C120.695 132.958 117.927 132.747 115.144 132.531C111.045 132.209 106.979 131.869 102.936 131.519H102.932Z" fill="#818285"/>
<g clip-path="url(#clip0_1301_13166)">
<path d="M56.8726 92.2541C80.3651 88.743 96.5679 66.8211 93.0626 43.2901C89.5572 19.7592 67.6711 3.52986 44.1786 7.04094C20.6861 10.552 4.48325 32.4739 7.98859 56.0049C11.4939 79.5359 33.38 95.7652 56.8726 92.2541Z" fill="#595A5C"/>
<path d="M42.6533 92.0123C42.6533 92.0123 57.4844 96.329 70.4066 87.8645C70.4066 87.8645 57.3048 95.1239 42.6533 92.0123Z" fill="#818285"/>
<path d="M42.5161 74.6738C43.4976 78.4995 45.5994 79.9314 46.2542 80.3283C50.3532 82.815 57.3978 80.9231 62.3552 74.6092" stroke="#818285" stroke-width="2" stroke-miterlimit="10"/>
<path d="M35.0108 64.7612C35.0108 64.7612 36.4221 64.2884 38.0376 64.3088L37.0375 63.7065C37.0375 63.7065 35.1943 64.2051 35.006 64.7619L35.0108 64.7612Z" fill="#60C8D4"/>
<path d="M25.0217 49.1958C25.0217 49.1958 25.7184 51.0124 30.5555 52.0501C30.5555 52.0501 33.5636 52.9344 33.8429 46.9753C33.8429 46.9753 29.6737 47.9185 24.4571 44.008C24.4571 44.008 24.8303 47.3911 31.4627 49.0383C31.4627 49.0383 31.8741 49.297 31.5203 49.5875C31.5203 49.5875 27.9986 50.6183 25.0224 49.2006L25.0217 49.1958Z" fill="#60C8D4"/>
<path d="M38.1987 64.2848C41.3903 63.8078 43.3736 59.3659 42.6284 54.3636C41.8832 49.3613 38.6918 45.6929 35.5002 46.1699C32.3085 46.6469 30.3253 51.0887 31.0705 56.091C31.8156 61.0933 35.0071 64.7618 38.1987 64.2848Z" fill="white"/>
<path d="M74.6121 41.7843C74.6121 41.7843 74.4751 43.7255 70.1511 46.1324C70.1511 46.1324 67.5318 47.8577 65.5279 42.2399C65.5279 42.2399 69.7904 41.9229 73.6401 36.6574C73.6401 36.6574 74.2691 40.0022 68.4057 43.517C68.4057 43.517 68.0876 43.8847 68.5106 44.0591C68.5106 44.0591 72.1794 44.0152 74.6128 41.7891L74.6121 41.7843Z" fill="#60C8D4"/>
<path d="M69.8361 59.5564C69.8361 59.5564 68.3485 59.5168 66.8093 60.0087L67.5902 59.1402C67.5902 59.1402 69.4985 59.0781 69.8409 59.5556L69.8361 59.5564Z" fill="#60C8D4"/>
<path d="M66.4067 60.069C69.5983 59.592 71.5816 55.1501 70.8364 50.1478C70.0912 45.1455 66.8998 41.477 63.7082 41.9541C60.5165 42.4311 58.5333 46.8729 59.2785 51.8752C60.0236 56.8775 63.2151 60.546 66.4067 60.069Z" fill="white"/>
<path d="M38.3216 64.2664C40.8252 63.8922 42.3716 60.3452 41.7755 56.3439C41.1794 52.3426 38.6667 49.4022 36.1631 49.7764C33.6595 50.1505 32.1131 53.6976 32.7092 57.6989C33.3052 61.7002 35.818 64.6406 38.3216 64.2664Z" fill="#231F20"/>
<path d="M33.9711 53.7853C34.6042 53.6907 34.9975 52.8089 34.8496 51.8158C34.7016 50.8227 34.0685 50.0943 33.4354 50.1889C32.8023 50.2835 32.409 51.1653 32.5569 52.1584C32.7049 53.1516 33.338 53.8799 33.9711 53.7853Z" fill="white"/>
<path d="M66.3733 60.0739C68.9135 59.6942 70.4896 56.1427 69.8935 52.1414C69.2974 48.1401 66.755 45.2042 64.2147 45.5838C61.6745 45.9635 60.0984 49.5149 60.6945 53.5163C61.2906 57.5176 63.833 60.4535 66.3733 60.0739Z" fill="#231F20"/>
<path d="M62.3403 49.5453C62.9734 49.4507 63.3667 48.5689 63.2187 47.5758C63.0708 46.5827 62.4376 45.8543 61.8045 45.9489C61.1714 46.0435 60.7781 46.9253 60.9261 47.9184C61.074 48.9116 61.7072 49.6399 62.3403 49.5453Z" fill="white"/>
<path opacity="0.57" d="M33.9271 72.2762C36.878 71.8352 39.1763 70.8467 39.0603 70.0685C38.9444 69.2902 36.4582 69.0169 33.5072 69.4579C30.5563 69.8989 28.258 70.8874 28.374 71.6656C28.4899 72.4439 30.9761 72.7172 33.9271 72.2762Z" fill="#F7B1C4"/>
<path opacity="0.57" d="M74.1619 66.2629C77.1129 65.8219 79.4111 64.8334 79.2952 64.0552C79.1793 63.2769 76.6931 63.0036 73.7421 63.4446C70.7911 63.8856 68.4929 64.8741 68.6088 65.6523C68.7248 66.4306 71.211 66.7039 74.1619 66.2629Z" fill="#F7B1C4"/>
</g>
<defs>
<clipPath id="clip0_1301_13166">
<rect width="86.0237" height="86.6859" fill="white" transform="matrix(0.989015 -0.147813 0.147342 0.989086 1.6416 13.3983)"/>
</clipPath>
</defs>
</svg>
