<svg width="414" height="736" viewBox="0 0 414 736" fill="none" xmlns="http://www.w3.org/2000/svg">
<path d="M51.0945 96.872L88.7532 190.371L111.784 180.699L132.323 213.908L138.859 208.104L138.548 211.65L141.971 213.586L139.829 218.117L148.197 219.389L148.197 214.23L151.62 214.874L155.978 211.65L157.845 212.616L156.599 210.358L151.62 213.582L147.261 212.938L147.261 218.113L141.347 217.45L143.213 213.16L139.79 211.324L139.48 206.486L133.415 212.297L113.03 178.438L90.6239 188.109L53.2796 95.5802C47.9895 90.4205 42.6995 85.2647 37.4057 80.105C27.2397 70.5408 17.0737 60.9767 6.90771 51.4125" fill="#868686"/>
<path d="M6.8999 267.877L62.6097 243.888L77.2339 258.72L143.873 218.726L139.825 218.113L77.8587 255.496L63.2307 241.631L6.8999 267.877Z" fill="#868686"/>
<path d="M61.0535 350.926L116.449 277.74L117.116 267.877L158.462 212.938L157.841 212.616L115.828 267.103L114.893 277.418L61.0535 350.926Z" fill="#868686"/>
<path d="M171.224 86.5527L128.896 121.697L139.169 158.773L116.76 151.681L109.292 154.261L113.026 157.163L122.674 181.018L123.744 196.24L122.383 193.982L121.739 181.665L112.091 158.129L106.801 153.291L116.76 150.389L137.923 157.163L127.343 121.375L171.224 86.5527Z" fill="#868686"/>
<path d="M239.787 445.05L217.281 398.693L193.12 398.693L190.754 375.176L167.041 350.317L156.994 318.741L153.376 296.569L163.423 290.524L162.622 252.9L159.003 242.148L166.236 215.947L165.033 213.26L157.795 240.806L154.181 231.399L153.376 237.555L152.168 242.148L149.757 244.164L149.174 238.828L148.339 240.618L149.358 247.522L152.168 244.835L154.181 238.79L154.583 235.432L161.414 253.015L161.414 289.094L151.367 295.899L155.787 320.083L165.834 351.555L189.144 375.847L191.958 400.706L216.476 400.706L239.787 445.05Z" fill="#868686"/>
<path d="M48.8442 424.228L75.1409 413.234L94.4877 384.882L106.398 354.791L115.326 347.27L115.326 313.667L143.11 307.342L155.077 267.912L153.529 264.523L141.622 305.605L111.358 309.657L113.344 346.112L104.907 353.054L93.0004 383.725L74.1481 411.497L48.8442 424.228Z" fill="#868686"/>
<path d="M378.733 388.018L286.419 355.626L303.765 305.455L260.394 290.049L204.286 276.422L161.264 208.28L199.678 278.595L259.156 291.632L301.288 305.85L283.318 356.416L378.733 388.018Z" fill="#868686"/>
<path d="M251.516 231.315L239.691 238.407L235.336 231.959L221.329 239.373L209.338 239.373L206.39 220.352L199.855 217.772L201.411 206.49L192.104 196.24L160.643 184.242L157.841 190.877L162.821 191.337L162.2 214.548L161.264 193.741L155.039 191.659L159.708 181.666L192.698 194.239L202.967 204.876L201.1 216.806L207.015 218.094L210.438 237.441L220.708 236.797L235.022 230.345L239.07 236.149L251.516 231.315Z" fill="#868686"/>
<path d="M320.298 279.354L309.404 260.973L302.569 260.973L298.199 253.882L291.977 246.468L286.373 227.121L275.793 223.253L265.524 213.904L256.496 220.673L253.073 207.134L239.012 207.134L227.865 187.791L209.434 198.429L202.511 187.791L229.732 171.99L233.465 175.214L239.38 172.96L239.691 176.184L243.424 175.862L244.049 178.438L250.275 179.729L256.496 187.791L251.517 178.12L245.295 177.472L244.981 174.892L240.626 174.57L239.691 171.024L233.78 174.248L231.307 171.024L261.403 168.115L302.557 171.668L261.403 166.88L230.667 169.414L220.708 175.862L201.1 186.499L200.48 190.367L198.298 190.367L195.68 197.328L198.923 191.659L201.1 192.303L201.721 188.757L208.882 199.716L226.933 189.723L237.824 207.778L251.831 208.1L256.258 223.115L265.213 215.196L274.547 224.219L284.817 227.769L291.042 247.756L297.267 254.525L301.936 262.587L308.783 262.265L320.298 279.354Z" fill="#868686"/>
<path d="M137.548 114.513L138.234 117.829L144.149 117.181L145.08 120.405L148.814 119.439L154.108 126.208L149.439 118.473L145.828 119.527L144.459 115.893L139.012 116.491L138.433 113.777L137.548 114.513Z" fill="#868686"/>
<path d="M268.947 44.6432L250.895 73.6577L238.759 80.1053L218.527 123.307L212.305 100.096L203.903 92.6787L203.903 85.3992L201.1 85.587L200.134 83.977L198.609 85.265L199.855 79.7833L209.814 70.4338L211.995 61.0843L218.527 48.833L227.865 39.4835L218.216 48.189L211.37 60.7623L208.882 70.1118L198.609 79.2275L197.555 86.553L199.544 85.587L200.479 87.2008L202.891 86.553L202.967 93.0045L211.37 100.74L218.216 125.565L211.059 147.488L205.459 152.969L197.555 153.763L190.831 152.003L185.541 162.319L182.428 147.488L179.626 149.746L175.582 142.332L168.421 138.46L168.421 132.097L163.442 128.145L165.309 118.151L173.711 108.802L171.223 104.087L176.107 100.901L178.07 93.0045L173.09 84.943L177.449 93.0045L175.268 100.418L169.978 103.964L172.78 108.802L164.377 117.829L162.2 128.467L167.8 132.334L166.865 139.752L174.957 142.654L168.111 156.837L163.706 162.319L160.329 157.485L152.862 157.807L146.947 149.101L138.498 156.354L146.326 151.037L152.551 159.095L159.087 159.095L163.752 164.577L168.732 158.129L175.268 144.912L178.691 152.003L181.182 150.389L184.916 166.187L188.029 170.38L192.847 170.38L193.319 178.438L201.1 186.5L203.278 185.319L193.944 178.116L193.944 170.058L188.339 169.088L185.851 165.543L191.141 153.291L197.367 154.583L206.701 154.261L211.37 148.135L218.841 125.887L223.821 114.279L230.356 100.418L239.38 81.0752L250.895 74.6275L268.947 44.6432Z" fill="#868686"/>
<path d="M61.4944 104.796L67.2367 111.201L66.447 113.969L68.6474 116.506L70.7519 119.834L77.4717 124.204L77.7247 128.907L80.1014 134.082L76.4789 136.999L81.2399 139.859L79.6146 145.552L85.6981 152.164L79.5149 158.47L82.7656 162.426L91.9311 153.126L91.1337 151.267L92.6786 149.117L91.4864 148.641L92.0384 147.165L91.1299 146.633L91.3561 143.972L89.0062 140.576L92.1151 143.643L91.6397 146.234L92.5866 146.64L92.2071 148.438L93.4491 149.201L91.5401 151.244L92.4831 152.593L97.0677 140.729L100.468 123.686L97.5392 140.863L93.0197 153.03L89.4126 156.362L83.0952 163.139L81.5504 162.97L81.2974 163.852L78.3419 164.155L80.8796 163.461L80.8834 162.506L82.3056 162.641L78.9591 158.55L84.8509 152.333L79.2312 145.962L80.7262 140.258L75.5206 136.831L79.5724 134.067L77.2111 129.306L77.0462 124.763L70.1539 120.071L68.2909 116.817L65.7609 114.049L66.6732 111.312L61.4944 104.796Z" fill="#868686"/>
<path opacity="0.15" d="M0 736L414 736L414 -1.80965e-05L-3.21716e-05 0L0 736ZM180.799 150.773L184.533 166.57L187.833 170.583L192.472 170.875L192.935 178.825L200.717 186.887L200.096 190.754L197.919 190.754L195.301 197.712L192.318 194.622L159.329 182.049L154.66 192.084L160.885 194.124L161.433 206.36L161.813 214.786L158.083 213.321L157.462 212.999L156.216 210.741L151.236 213.965L146.878 213.321L146.878 218.496L140.963 217.833L142.83 213.544L139.407 211.707L139.096 206.87L133.032 212.681L123.36 196.619L122.291 181.401L112.642 157.542L108.909 154.64L116.376 152.061L139.15 159.08L138.115 156.734L145.943 151.417L152.183 159.463L158.704 159.474L163.3 165.213L168.667 158.696L174.884 145.291L177.867 152.563L180.799 150.769L180.799 150.773Z" fill="#E5E5E5" fill-opacity="0.35"/>
</svg>
