<svg width="736" height="414" viewBox="0 0 736 414" fill="none" xmlns="http://www.w3.org/2000/svg">
<path d="M639.128 51.0945L545.629 88.7532L555.3 111.784L522.092 132.323L527.896 138.859L524.35 138.548L522.414 141.971L517.883 139.829L516.611 148.197H521.77L521.126 151.62L524.35 155.978L523.384 157.845L525.642 156.599L522.418 151.62L523.062 147.261H517.887L518.55 141.347L522.84 143.213L524.676 139.79L529.514 139.48L523.702 133.415L557.562 113.03L547.891 90.6239L640.42 53.2796C645.579 47.9896 650.735 42.6996 655.895 37.4057C665.459 27.2397 675.023 17.0737 684.587 6.90771" fill="#D3D3D3"/>
<path d="M468.123 6.8999L492.112 62.6097L477.281 77.2339L517.274 143.873L517.887 139.825L480.504 77.8587L494.37 63.2307L468.123 6.8999Z" fill="#D3D3D3"/>
<path d="M385.074 61.0537L458.26 116.449L468.123 117.116L523.062 158.463L523.384 157.842L468.897 115.828L458.582 114.893L385.074 61.0537Z" fill="#D3D3D3"/>
<path d="M649.447 171.223L614.303 128.896L577.227 139.169L584.319 116.759L581.739 109.292L578.837 113.026L554.982 122.674L539.76 123.744L542.018 122.383L554.335 121.739L577.871 112.09L582.709 106.8L585.611 116.759L578.837 137.923L614.625 127.343L649.447 171.223Z" fill="#D3D3D3"/>
<path d="M290.95 239.786L337.306 217.281V193.119L360.824 190.754L385.683 167.041L417.258 156.994L439.43 153.375L445.475 163.423L483.1 162.621L493.852 159.003L520.053 166.236L522.74 165.033L495.194 157.795L504.601 154.18L498.444 153.375L493.852 152.168L491.836 149.757L497.172 149.174L495.382 148.338L488.478 149.358L491.165 152.168L497.21 154.18L500.568 154.583L482.985 161.414L446.905 161.414L440.101 151.367L415.917 155.787L384.445 165.834L360.153 189.144L335.294 191.958V216.476L290.95 239.786Z" fill="#D3D3D3"/>
<path d="M311.773 48.8442L322.767 75.1409L351.118 94.4877L381.21 106.398L388.731 115.326L422.334 115.326L428.659 143.11L468.088 155.077L471.477 153.529L430.395 141.622L426.343 111.358L389.888 113.344L382.946 104.907L352.276 93.0004L324.503 74.1481L311.773 48.8442Z" fill="#D3D3D3"/>
<path d="M347.982 378.734L380.374 286.419L430.545 303.765L445.951 260.395L459.578 204.286L527.72 161.265L457.405 199.678L444.368 259.156L430.15 301.289L379.584 283.318L347.982 378.734Z" fill="#D3D3D3"/>
<path d="M504.685 251.516L497.593 239.691L504.041 235.336L496.627 221.329V209.338L515.648 206.39L518.228 199.855L529.51 201.411L539.76 192.104L551.758 160.643L545.123 157.841L544.663 162.821L521.452 162.2L542.259 161.264L544.341 155.039L554.334 159.708L541.761 192.698L531.124 202.967L519.194 201.1L517.906 207.015L498.559 210.438L499.203 220.708L505.655 235.022L499.851 239.07L504.685 251.516Z" fill="#D3D3D3"/>
<path d="M456.646 320.298L475.027 309.404V302.569L482.118 298.199L489.532 291.977L508.879 286.373L512.747 275.793L522.096 265.524L515.326 256.496L528.866 253.073V239.012L548.209 227.865L537.571 209.434L548.209 202.511L564.01 229.732L560.786 233.465L563.04 239.38L559.816 239.691L560.138 243.424L557.562 244.049L556.27 250.275L548.209 256.496L557.88 251.517L558.528 245.295L561.108 244.981L561.43 240.626L564.976 239.691L561.752 233.78L564.976 231.307L567.885 261.403L564.332 302.557L569.12 261.403L566.586 230.667L560.138 220.708L549.501 201.101L545.633 200.48V198.298L538.671 195.68L544.341 198.923L543.697 201.101L547.243 201.722L536.283 208.882L546.277 226.933L528.222 237.824L527.9 251.831L512.885 256.258L520.804 265.213L511.781 274.547L508.231 284.817L488.244 291.042L481.474 297.267L473.413 301.936L473.735 308.783L456.646 320.298Z" fill="#D3D3D3"/>
<path d="M621.487 137.548L618.171 138.234L618.819 144.149L615.595 145.08L616.561 148.814L609.791 154.108L617.527 149.439L616.473 145.828L620.107 144.459L619.509 139.012L622.223 138.433L621.487 137.548Z" fill="#D3D3D3"/>
<path d="M691.357 268.947L662.343 250.896L655.895 238.759L612.693 218.527L635.904 212.306L643.322 203.903H650.601L650.413 201.101L652.023 200.135L650.735 198.609L656.217 199.855L665.566 209.814L674.916 211.995L687.167 218.527L696.517 227.865L687.811 218.217L675.238 211.37L665.888 208.882L656.773 198.609L649.447 197.555L650.413 199.544L648.799 200.48L649.447 202.891L642.996 202.968L635.26 211.37L610.435 218.217L588.513 211.06L583.031 205.459L582.237 197.555L583.997 190.831L573.681 185.541L588.513 182.429L586.255 179.626L593.668 175.582L597.54 168.422H603.903L607.856 163.442L617.849 165.309L627.199 173.712L631.914 171.224L635.099 176.107L642.996 178.07L651.057 173.091L642.996 177.449L635.582 175.268L632.036 169.978L627.199 172.78L618.171 164.377L607.534 162.2L603.666 167.801L596.248 166.865L593.346 174.957L579.163 168.111L573.681 163.707L578.515 160.329L578.193 152.862L586.899 146.947L579.646 138.499L584.963 146.326L576.905 152.552V159.087L571.424 163.753L577.871 168.732L591.089 175.268L583.997 178.691L585.611 181.183L569.814 184.916L565.62 188.029V192.848L557.562 193.319L549.501 201.101L550.681 203.278L557.884 193.944H565.942L566.912 188.34L570.458 185.852L582.709 191.142L581.417 197.367L581.739 206.701L587.865 211.37L610.113 218.841L621.721 223.821L635.582 230.357L654.925 239.38L661.373 250.896L691.357 268.947Z" fill="#D3D3D3"/>
<path d="M631.204 61.4941L624.799 67.2365L622.031 66.4468L619.494 68.6471L616.166 70.7516L611.796 77.4715L607.093 77.7245L601.918 80.1011L599.001 76.4786L596.141 81.2396L590.448 79.6143L583.836 85.6978L577.53 79.5146L573.574 82.7653L582.874 91.9308L584.733 91.1335L586.883 92.6783L587.359 91.4861L588.835 92.0381L589.367 91.1296L592.028 91.3558L595.424 89.006L592.357 92.1148L589.766 91.6395L589.36 92.5863L587.562 92.2068L586.799 93.4488L584.756 91.5398L583.407 92.4828L595.271 97.0675L612.314 100.468L595.137 97.539L582.97 93.0195L579.638 89.4123L572.861 83.095L573.03 81.5501L572.148 81.2971L571.845 78.3416L572.539 80.8793L573.494 80.8831L573.359 82.3053L577.45 78.9588L583.667 84.8506L590.038 79.231L595.742 80.726L599.169 75.5203L601.933 79.5721L606.694 77.2108L611.237 77.046L615.929 70.1536L619.183 68.2906L621.951 65.7606L624.688 66.673L631.204 61.4941Z" fill="#D3D3D3"/>
<path opacity="0.15" d="M0 0L0 414L736 414L736 0L0 0ZM585.227 180.799L569.43 184.533L565.417 187.833L565.125 192.472L557.175 192.936L549.113 200.717L545.246 200.096V197.919L538.288 195.301L541.378 192.318L553.951 159.329L543.916 154.66L541.876 160.885L529.64 161.433L521.214 161.813L522.679 158.083L523.001 157.462L525.259 156.216L522.035 151.237L522.679 146.878H517.504L518.167 140.963L522.457 142.83L524.293 139.407L529.13 139.096L523.319 133.032L539.381 123.361L554.599 122.291L578.458 112.643L581.359 108.909L583.939 116.376L576.92 139.15L579.266 138.115L584.583 145.943L576.537 152.183L576.526 158.704L570.787 163.3L577.304 168.667L590.709 174.884L583.437 177.867L585.231 180.799H585.227Z" fill="#E5E5E5"/>
</svg>
