<svg width="352" height="321" viewBox="0 0 352 321" fill="none" xmlns="http://www.w3.org/2000/svg">
<circle cx="160.324" cy="160.324" r="160.324" fill="#A82F62"/>
<path d="M111.826 181.73C111.293 184.197 110.859 186.455 110.41 188.795C108.71 189.434 108.169 188.516 108.575 187.031C108.867 185.967 109.817 185.088 110.144 184.025C110.321 183.452 109.532 182.615 109.649 181.984C110.053 179.812 110.537 177.634 111.262 175.553C111.525 174.8 112.554 174.315 113.234 173.708C113.51 173.927 113.785 174.145 114.061 174.364C113.398 175.983 112.734 177.603 111.925 179.579C111.925 179.832 111.925 180.676 111.826 181.73Z" fill="white"/>
<path d="M114.655 236.166C113.367 236.644 112.572 236.483 112.195 234.888C111.698 232.791 110.465 230.792 110.344 228.705C110.238 226.861 109.559 225.341 109.119 223.671C108.826 222.557 108.611 220.933 111.121 221.639C110.767 224.818 113.041 227.866 112.572 230.845C113.226 232.633 113.812 234.233 114.517 236.009C114.637 236.185 114.655 236.166 114.655 236.166Z" fill="white"/>
<path d="M117.401 246.7C119.718 246.708 121.051 248.796 120.124 251.348C120.014 251.555 120.048 251.525 120.058 251.513C119.191 249.988 118.314 248.476 117.441 246.812C117.445 246.661 117.401 246.7 117.401 246.7Z" fill="white"/>
<path d="M116.976 163.822C115.701 162.54 116.692 159.959 119.006 159.101C119.216 159.121 119.175 159.082 119.154 159.064C120.062 161.241 118.72 162.57 117.115 163.822C116.935 163.778 116.976 163.822 116.976 163.822Z" fill="white"/>
<path d="M116.914 163.758C118.288 165.566 116.342 166.794 115.979 168.295C115.942 168.45 114.715 168.316 114.04 168.316C113.903 168.094 113.766 167.872 113.629 167.65C114.615 166.392 115.602 165.134 116.782 163.849C116.976 163.822 116.936 163.778 116.914 163.758Z" fill="white"/>
<path d="M112.265 172.95C112.666 171.429 113.08 170.132 113.773 167.969C114.457 169.198 115.37 170.129 115.176 170.629C114.703 171.846 115.013 174.418 112.265 172.95Z" fill="white"/>
<path d="M113.707 203.355C114.133 203.962 114.313 204.558 114.552 205.349C112.799 205.349 111.347 205.349 109.69 205.349C109.664 204.751 109.636 204.131 109.602 203.344C111.04 203.344 112.251 203.344 113.707 203.355Z" fill="white"/>
<path d="M109.406 199.381C107.994 199.81 107.244 199.532 107.43 198.004C107.545 197.063 107.451 196.096 107.451 194.948C108.154 194.906 108.775 194.869 109.558 194.822C109.558 196.417 109.558 197.801 109.406 199.381Z" fill="white"/>
<path d="M109.928 216.338C110.311 217.858 110.534 219.211 110.789 220.765C109.992 220.826 109.356 220.874 108.734 220.921C108.479 219.314 108.252 217.886 108 216.297C108.598 216.254 109.182 216.213 109.928 216.338Z" fill="white"/>
<path d="M109.499 215.594C107.1 215.063 107.717 213.165 107.537 211.754C107.495 211.417 108.513 210.945 109.043 210.536C109.273 210.667 109.503 210.798 109.733 210.929C109.733 212.48 109.733 214.031 109.499 215.594Z" fill="white"/>
<path d="M107.451 208.143C107.451 207.128 107.451 206.355 107.451 205.381C110.902 205.841 108.976 208.401 109.709 209.909C107.864 210.783 107.271 210.141 107.451 208.143Z" fill="white"/>
<path d="M114.631 236.185C115.212 237.545 115.838 238.891 116.342 240.282C116.42 240.496 115.938 240.914 115.67 241.401C115.626 241.564 115.663 241.532 115.663 241.532C113.317 241.922 114.517 239.403 113.439 238.681C113.335 238.611 114.054 237.31 114.523 236.374C114.655 236.166 114.637 236.185 114.631 236.185Z" fill="white"/>
<path d="M117.465 246.639C115.822 245.477 115.089 243.935 115.559 241.725C115.663 241.532 115.626 241.564 115.616 241.578C116.587 242.78 117.594 243.95 118.499 245.195C118.567 245.288 117.908 245.911 117.494 246.494C117.401 246.7 117.445 246.661 117.465 246.639Z" fill="white"/>
<path d="M110.115 191.119C110.01 192.637 110.654 194.395 107.994 194.233C107.994 193.046 107.859 191.831 108.061 190.675C108.142 190.212 108.965 189.878 109.45 189.486C109.672 189.951 109.894 190.417 110.115 191.119Z" fill="white"/>
<path d="M118.896 203.33C119.145 203.89 119.158 204.462 119.135 205.247C117.787 205.461 116.474 205.461 115.039 205.461C115.039 204.755 115.039 204.181 115.039 203.341C116.238 203.341 117.449 203.341 118.896 203.33Z" fill="white"/>
<path d="M107.961 200.164C108.462 200.149 108.807 200.046 108.97 200.174C109.971 200.963 109.139 204.341 107.413 205.09C107.523 203.327 107.622 201.754 107.961 200.164Z" fill="white"/>
<path d="M275.924 150.616C281.865 157.048 286.052 164.758 288.97 173.03C291.161 179.242 292.358 185.806 294.016 192.436C293.256 191.843 292.479 191.026 291.532 190.03C289.863 190.896 288.054 191.962 286.137 192.768C285.34 193.103 283.839 193.29 283.459 192.851C279.794 188.614 274.69 185.226 274.708 178.677C274.711 177.845 274.387 176.853 273.875 176.204C270.962 172.514 271.121 168.342 272.521 164.367C273.527 161.511 273.551 158.962 272.761 156.189C272.403 154.934 272.321 153.6 272.196 152.822C273.607 152.057 274.74 151.443 275.924 150.616Z" fill="#C6F2F5"/>
<path d="M290.685 229.574C289.103 234.155 287.349 238.818 285.499 243.634C285.32 243.32 285.032 242.772 285.183 242.402C286.921 238.138 288.725 233.902 290.685 229.574Z" fill="#A4E1E5"/>
<path d="M272.747 271.2C272.927 270.922 273.085 270.719 273.197 270.742C274.995 271.113 276.788 271.512 278.842 271.963C278.227 272.542 277.084 274.219 276.508 274.042C275.1 273.611 273.955 272.322 272.747 271.2Z" fill="#B1B1B1"/>
<path d="M304.187 206.855C303.404 205.806 302.67 204.962 301.514 203.633C302.941 203.509 304.375 203.385 305.855 203.257C305.965 206.794 305.773 207.201 304.187 206.855Z" fill="#B0B0B0"/>
<path d="M276.05 132.145C276.482 133.057 276.755 133.834 277.098 134.808C275.497 134.808 274.276 134.808 272.545 134.808C273.298 133.23 273.327 131.353 276.05 132.145Z" fill="#B1B1B1"/>
<path d="M282.257 266.811C282.945 265.538 283.599 264.243 284.36 263.015C284.473 262.834 285.147 262.86 285.468 263.002C285.661 263.087 285.849 263.756 285.741 263.865C284.742 264.866 283.679 265.802 282.442 266.781C282.251 266.805 282.257 266.811 282.257 266.811Z" fill="#AEAEAE"/>
<path d="M301.175 233.477C300.69 233.183 300.007 232.659 300.095 232.361C300.402 231.312 300.974 230.34 301.446 229.338C301.809 229.499 302.171 229.659 302.534 229.82C302.132 230.997 301.731 232.174 301.175 233.477Z" fill="#AFAFAF"/>
<path d="M300.785 235.415C300.419 236.675 300.014 237.742 299.609 238.808C299.332 238.827 299.055 238.846 298.778 238.865C298.746 238.088 298.573 237.283 298.716 236.54C298.913 235.518 299.18 234.274 300.785 235.415Z" fill="#AEAEAE"/>
<path d="M271.666 277.023C272.653 276.057 273.606 275.284 274.559 274.511C274.135 277.498 273.148 278.134 271.666 277.023Z" fill="#AFAFAF"/>
<path d="M282.248 266.802C282.443 268.855 281.483 270.021 279.272 270.6C279.086 268.401 280.556 267.671 282.069 266.827C282.257 266.811 282.251 266.805 282.248 266.802Z" fill="#AEAEAE"/>
<path d="M303.82 223.266C302.082 222.446 302.15 221.29 304.585 219.497C304.379 220.706 304.173 221.915 303.82 223.266Z" fill="#AFAFAF"/>
<path d="M305.075 190.059C305.046 191.405 304.48 192.231 303.669 190.98C303.088 190.082 303.314 188.661 303.18 187.474C303.505 187.426 303.829 187.379 304.154 187.331C304.448 188.172 304.743 189.012 305.075 190.059Z" fill="#AEAEAE"/>
<path d="M277.866 137.284C277.228 135.666 277.733 135.324 279.052 135.973C279.988 136.434 280.895 136.953 281.814 137.446C281.416 137.944 281.017 138.442 280.618 138.941C279.743 138.44 278.867 137.939 277.866 137.284Z" fill="#AEAEAE"/>
<path d="M295.367 160.792C293.365 160.237 292.876 158.91 293.073 157.276C293.423 157.127 293.774 156.977 294.124 156.828C294.578 158.1 295.033 159.372 295.367 160.792Z" fill="#AEAEAE"/>
<path d="M305.631 194.483C305.541 195.438 305.421 196.18 305.301 196.922C305.013 196.919 304.724 196.916 304.436 196.913C304.124 195.617 303.812 194.322 303.5 193.026C303.764 192.889 304.028 192.752 304.291 192.616C304.728 193.167 305.165 193.718 305.631 194.483Z" fill="#AEAEAE"/>
<path d="M289.642 151.607C288.738 150.582 288.025 149.559 287.312 148.535C287.617 148.352 287.923 148.168 288.228 147.985C289.048 149.042 291.135 149.429 289.642 151.607Z" fill="#AEAEAE"/>
<path d="M304.09 185.131C303.729 185.599 303.374 185.855 303.018 186.112C302.685 184.822 302.351 183.532 302.018 182.242C302.392 182.146 302.765 182.05 303.139 181.954C303.457 182.943 303.776 183.931 304.09 185.131Z" fill="#B1B1B1"/>
<path d="M299.476 173.747C299.559 173.034 299.716 172.513 299.873 171.993C300.254 172.356 300.822 172.655 300.975 173.097C301.264 173.937 301.315 174.859 301.465 175.746C301.221 175.845 300.978 175.945 300.734 176.044C300.339 175.342 299.944 174.641 299.476 173.747Z" fill="#AFAFAF"/>
<path d="M301.075 179.111C301.002 178.261 301.002 177.61 301.002 176.958C301.304 176.892 301.605 176.826 301.907 176.76C302.3 178.049 302.694 179.338 303.088 180.627C302.765 180.763 302.442 180.899 302.119 181.035C301.795 180.459 301.471 179.884 301.075 179.111Z" fill="#B0B0B0"/>
<path d="M294.368 246.861C294.865 245.947 295.279 245.207 295.693 244.468C296.002 244.572 296.311 244.676 296.621 244.78C296.257 246.042 295.893 247.305 295.529 248.567C295.239 248.574 294.949 248.58 294.66 248.586C294.535 248.069 294.41 247.552 294.368 246.861Z" fill="#AFAFAF"/>
<path d="M288.75 259.653C288.017 260.608 287.36 261.399 286.703 262.19C286.4 261.97 286.097 261.751 285.793 261.532C286.471 260.509 287.149 259.487 287.826 258.465C288.16 258.806 288.493 259.147 288.75 259.653Z" fill="#AFAFAF"/>
<path d="M146.319 267.397C145.875 266.98 144.519 268.509 144.877 266.46C144.126 265.341 143.244 264.422 142.361 263.502C142.361 263.502 142.3 263.407 142.353 263.197C142.225 262.966 142.045 262.945 141.865 262.924C141.865 262.924 141.775 262.867 141.821 262.651C140.253 260.653 138.639 258.872 137.024 257.092C137.024 257.092 136.928 257.011 137.012 256.788C136.184 255.496 135.271 254.426 134.358 253.355C134.358 253.355 134.264 253.275 134.349 253.05C132.279 248.598 129.975 244.439 127.998 240.129C123.91 231.217 121.29 221.883 120.805 212.044C120.68 209.496 121.051 206.927 121.052 204.367C121.054 201.972 120.57 199.544 120.819 197.186C121.683 189.003 122.13 180.698 127.037 173.529C128.113 171.958 128.567 169.96 129.319 167.978C129.326 167.555 129.321 167.314 129.307 167.074C129.298 167.075 129.301 167.093 129.473 167.031C130.953 165.109 132.261 163.249 133.769 161.105C134.532 163.073 135.863 164.776 135.655 166.262C134.646 173.448 137.336 180.456 136.313 187.644C135.829 191.037 136.203 194.56 136.26 198.022C136.328 202.16 137.189 205.955 140.409 208.988C142.919 211.353 145.142 214.022 147.486 216.562C147.965 217.081 148.522 217.567 148.855 218.172C150.209 220.629 152.929 221.538 154.77 223.447C155.077 223.766 155.999 223.492 157.032 223.492C153.773 219.604 148.898 217.857 147.26 213.018C148.813 213.653 150.174 214.524 151.34 215.605C153.724 217.816 155.681 220.576 159.262 221.108C159.651 221.166 159.919 222.038 160.032 222.531C157.163 224.089 159.55 225.311 159.58 226.691C159.955 226.667 160.33 226.643 160.704 226.619C160.542 225.249 160.379 223.879 160.408 222.525C161.956 225.305 163.842 227.319 167.243 226.769C168.618 226.547 170.015 226.139 171.27 225.539C174.539 223.976 177.889 223.335 181.538 223.572C187.001 223.928 192.484 223.997 197.96 224.107C198.771 224.124 199.833 223.947 200.364 223.432C202.534 221.327 204.896 221.891 206.023 224.758C206.978 227.186 206.162 229.518 205.789 231.801C205.339 234.55 206.861 238.907 209.753 239.843C211.231 240.321 212.569 241.235 213.881 241.907C213.354 243.058 212.917 244.014 212.287 244.985C210.987 245.625 209.881 246.25 208.451 247.058C213.03 248.615 213.16 248.566 213.731 245.486C215.646 245.032 217.379 244.258 219.093 244.3C221.258 244.354 223.403 245.094 225.564 245.497C228.189 245.986 231.156 245.896 231.925 249.39C231.335 249.697 230.81 249.969 230.968 249.888C232.08 251.388 233.282 252.628 234.014 254.102C234.75 255.587 234.75 257.451 235.54 258.892C238.199 263.743 241.067 268.479 243.875 273.379C243.894 273.499 243.955 273.734 243.79 273.837C243.162 275.194 242.7 276.448 242.237 277.702C242.535 277.834 242.834 277.966 243.132 278.097C243.928 276.959 244.724 275.821 245.732 274.719C246.478 274.595 247.012 274.435 247.546 274.275C246.919 272.444 246.291 270.614 245.661 268.606C247.202 267.542 248.183 266.36 247.835 263.942C247.127 264.832 246.69 265.381 246.253 265.93C245.987 265.827 245.721 265.723 245.454 265.62C246.002 264.071 246.549 262.521 247.247 261.089C247.642 261.844 247.887 262.482 248.132 263.119C248.359 263.074 248.586 263.03 248.812 262.985C248.925 261.599 251.368 260.209 248.499 258.645C248.562 258.217 248.596 257.973 248.829 257.746C250.545 258.327 252.062 258.89 253.725 259.507C252.551 257.335 251.652 255.67 250.778 253.809C251.711 250.62 252.987 247.678 253.41 244.618C253.755 242.122 254.602 240.408 256.535 238.841C257.899 237.736 259.376 236.159 259.747 234.548C261.097 228.698 262.017 222.748 263.066 216.83C263.431 214.773 262.539 213.421 260.431 213.419C256.668 213.415 252.898 213.557 249.142 213.801C247.277 213.922 245.436 214.406 243.532 214.734C243.27 210.094 243.092 209.722 238.747 209.073C235.347 208.564 231.884 208.464 228.445 208.24C225.053 208.018 221.717 208.021 218.769 210.214C218.141 210.681 217.003 210.936 216.277 210.712C213.447 209.836 211.91 211.114 210.875 213.526C210.796 213.711 210.657 213.872 210.535 214.062C210.325 213.285 210.139 212.599 209.954 211.913C209.694 211.777 209.435 211.64 209.175 211.504C208.727 212.352 208.279 213.201 207.759 214.186C207.191 213.171 206.897 212.646 206.604 212.12C206.121 213.1 206.042 213.963 206.135 214.807C206.523 218.306 205.797 219.503 202.5 220.565C200.9 221.081 199.263 221.49 197.686 222.065C195.299 222.936 194.046 221.976 193.263 219.734C191.789 215.517 191.74 215.534 187.62 217.408C187.378 217.518 187.142 217.642 186.896 217.743C184.536 218.706 183.699 218.265 183.71 215.736C183.718 214.131 184.179 212.529 184.436 210.925C184.256 210.769 184.076 210.613 183.897 210.457C182.956 211.233 181.812 211.863 181.127 212.822C180.319 213.953 179.864 215.35 179.333 216.663C177.423 221.389 174.862 221.926 171.156 218.308C170.272 217.445 169.135 216.594 168.754 215.512C167.984 213.327 167.25 210.989 167.239 208.711C167.225 205.665 169.485 204.468 173.078 204.732C172.001 203.744 171.567 203.345 170.707 202.557C173.953 200.75 176.884 198.956 179.957 197.45C183.749 195.59 183.567 194.737 186.223 198.869C186.504 199.306 186.844 199.862 187.278 200.011C188.04 200.272 188.895 200.261 189.712 200.363C189.671 199.616 189.769 198.824 189.552 198.132C189.319 197.39 188.874 196.672 188.375 196.063C185.594 192.673 185.871 189.3 188.172 185.782C189.234 184.159 190.243 182.434 190.888 180.618C192.425 176.287 193.671 171.854 195.153 167.504C196.127 164.645 198.048 162.549 200.884 161.087C201.181 161.932 201.397 162.546 201.69 163.381C203.269 162.029 204.651 160.846 206.028 159.879C206.169 160.823 206.315 161.551 206.46 162.279C206.821 162.253 207.183 162.227 207.544 162.201C207.544 160.804 207.544 159.407 207.623 157.832C207.429 156.246 207.155 154.838 206.882 153.431C205.583 157.995 205.583 157.995 202.14 158.003C201.555 157.801 201.134 157.639 200.713 157.248C199.929 153.793 202.092 152.149 204.504 151.732C207.131 151.278 207.923 149.232 209.401 147.79C210.603 146.617 210.819 145.353 208.758 144.564C207.933 144.248 207.277 143.493 206.736 143.083C205.77 143.235 204.865 143.551 203.992 143.481C201.75 143.302 200.42 141.906 199.384 139.96C198.138 137.618 197.164 137.628 195.625 139.817C194.968 140.751 194.469 141.798 193.898 142.793C193.553 142.616 193.207 142.439 192.862 142.262C191.153 139.118 188.429 138.193 185.206 138.272C183.184 138.321 182.281 139.528 182.242 141.311C182.211 142.705 182.247 144.293 182.865 145.474C184.799 149.17 182.871 151.664 180.466 154.492C177.969 153.675 175.465 152.855 172.717 151.955C172.836 152.668 172.922 153.186 173.111 154.319C170.941 153.725 169.004 153.194 167.081 152.465C167.078 151.865 167.063 151.465 167.253 151.082C168.7 151.43 169.941 151.761 171.183 152.091C171.271 151.792 171.36 151.493 171.448 151.194C169.83 150.266 168.212 149.339 166.62 148.226C169.072 145.456 171.497 142.872 173.923 140.287C173.989 140.465 174.054 140.643 174.12 140.821C175.885 139.95 177.649 139.078 180.075 137.88C178.25 137.302 177.311 137.005 176.28 136.678C179.517 132.397 179.517 132.397 177.991 129.84C177.279 130.531 176.746 131.415 176.264 132.326C175.373 134.005 174.497 133.682 173.585 132.149C173.779 130.776 173.99 129.596 174.202 128.415C173.951 128.365 173.7 128.315 173.449 128.264C172.945 128.934 172.441 129.605 171.915 130.062C171.579 128.104 172.511 127.296 174.158 127.104C174.408 127.29 174.684 127.404 174.71 127.361C175.919 125.439 176.727 123.118 179.432 122.719C179.219 122.219 179.006 121.719 178.871 121.048C179.624 120.617 180.299 120.357 181.188 120.168C184.996 119.521 188.589 118.802 192.221 118.263C194.299 119.418 195.989 121.046 198.611 120.916C199.467 120.873 200.501 122.584 201.295 123.615C202.162 124.74 202.737 126.093 203.627 127.194C205.736 129.802 208.878 130.274 211.902 130.896C213.227 131.169 214.59 131.254 215.936 131.424C216.174 131.187 216.413 130.949 216.651 130.712C215.723 128.483 214.794 126.253 213.839 123.959C215.108 123.128 218.453 123.282 216.207 120.803C217.038 119.706 217.704 118.826 218.597 117.959C221.328 118.354 223.833 118.735 226.224 119.272C225.508 119.625 224.905 119.822 224.302 120.019C224.283 120.276 224.265 120.533 224.247 120.79C226.296 121.294 228.328 121.92 230.407 122.21C230.903 122.28 231.555 121.226 232.331 120.736C238.454 123.238 244.381 125.694 250.235 128.309C249.66 130.343 250.967 131.033 252.26 131.809C252.914 132.202 253.432 132.823 254.011 133.34C254.334 132.526 254.657 131.712 255.156 130.943C258.141 133.2 260.968 135.389 263.751 137.633C265.018 138.655 266.198 139.787 267.299 141.053C265.609 141.556 264.037 141.876 262.632 142.162C264.051 144.278 265.199 146.627 266.946 148.379C268.168 149.605 270.164 150.208 271.923 150.614C272.244 150.688 273.092 148.473 273.858 147.393C274.67 148.448 275.322 149.426 275.923 150.616C274.739 151.443 273.606 152.057 272.195 152.822C272.32 153.6 272.402 154.934 272.76 156.189C273.55 158.962 273.526 161.511 272.52 164.367C271.12 168.342 270.961 172.514 273.874 176.204C274.386 176.853 274.71 177.845 274.707 178.677C274.689 185.226 279.793 188.614 283.458 192.851C283.838 193.29 285.339 193.103 286.136 192.768C288.053 191.962 289.862 190.896 291.531 190.03C292.478 191.026 293.255 191.843 294.171 192.828C294.36 200.518 294.849 208.071 294.302 215.549C293.957 220.255 292.058 224.848 290.684 229.574C288.724 233.902 286.92 238.138 285.182 242.402C285.031 242.772 285.319 243.321 285.408 243.982C280.509 253.9 274.023 262.37 265.907 269.669C257.312 277.4 247.611 283.221 236.75 286.998C231.618 288.783 226.233 289.842 220.728 291.259C214.002 291.799 207.507 292.952 200.996 291.874C194.651 290.823 188.354 289.487 181.963 288.128C181.237 287.853 180.584 287.727 179.827 287.453C178.911 286.724 178.143 286.06 177.269 285.596C176.835 285.365 176.206 285.501 175.47 285.451C169.882 282.59 164.499 279.733 159.086 276.933C158.396 276.576 157.552 276.52 156.779 276.325C156.779 276.325 156.669 276.248 156.716 276.019C155.348 274.903 153.932 274.015 152.516 273.128C152.516 273.128 152.399 273.051 152.45 272.822C151.254 271.698 150.008 270.801 148.762 269.904C148.762 269.904 148.668 269.81 148.724 269.609C148.613 269.393 148.447 269.379 148.281 269.365C148.281 269.365 148.142 269.309 148.19 269.097C147.598 268.389 146.958 267.893 146.319 267.397ZM208.046 179.325C210.618 178.744 213.119 175.812 215.757 179.135C213.59 181.063 211.747 183.204 212.066 186.191C213.913 185.419 215.42 184.449 217.035 184.207C218.671 183.963 220.415 184.438 222.735 184.656C221.93 183.667 221.6 183.262 221.263 182.847C222.436 182.748 223.473 182.661 224.51 182.573C224.513 182.317 224.516 182.061 224.519 181.805C223.318 181.222 222.118 180.639 220.917 180.056C222.595 179.229 225.08 180.74 225.118 177.479C222.824 176.496 219.741 177.488 218.239 174.652C218.092 174.375 217.428 174.264 217.003 174.26C213.426 174.23 209.848 174.243 205.719 174.243C206.146 176.469 206.42 177.893 206.33 179.579C206.33 180.896 206.33 182.213 206.33 183.529C206.77 183.529 207.21 183.529 207.651 183.528C207.651 182.137 207.651 180.746 208.046 179.325ZM252.5 148.377C252.916 147.908 253.332 147.44 253.748 146.972C253.06 146.95 252.284 146.712 251.699 146.947C249.744 147.733 247.844 148.66 245.958 149.604C245.587 149.789 245.372 150.287 244.676 151.143C246.295 150.987 247.298 150.89 248.03 150.819C248.808 151.541 249.465 152.151 250.121 152.761C250.226 150.772 249.668 148.987 252.5 148.377ZM218.568 196.995C217.001 196.343 215.434 195.69 213.6 194.926C213.151 196.387 212.711 197.821 212.215 199.435C214.669 199.088 216.64 198.847 218.586 198.475C218.785 198.437 218.834 197.608 218.568 196.995ZM204.4 247.543C205.587 247.465 206.773 247.387 207.96 247.309C207.746 245.992 207.531 244.674 207.356 243.599C205.924 244.667 204.829 245.437 203.812 246.3C203.68 246.411 203.953 247 204.4 247.543ZM257.61 201.676C256.235 202.445 254.859 203.215 253.484 203.984C253.491 204.227 253.498 204.469 253.505 204.712C254.858 204.881 256.211 205.049 257.565 205.217C257.617 204.169 257.67 203.12 257.61 201.676ZM205.612 204.157C207.018 205.624 208.34 204.988 209.701 204.492C208.571 203.033 207.713 201.925 206.566 200.444C206.214 201.69 205.928 202.707 205.612 204.157ZM164.394 255.676C163.762 256.208 163.13 256.74 162.498 257.271C162.537 257.518 162.575 257.764 162.614 258.011C163.906 257.869 165.198 257.728 166.887 257.542C166.472 256.01 166.15 254.823 165.828 253.636C165.599 253.618 165.371 253.6 165.142 253.582C164.917 254.15 164.691 254.718 164.394 255.676ZM255.779 191.009C256.005 192.273 256.231 193.537 256.457 194.801C258.22 191.983 257.976 191.093 255.779 191.009ZM217.82 157.493C217.04 157.501 216.228 157.382 215.489 157.562C215.016 157.678 214.651 158.236 214.238 158.595C214.694 158.846 215.139 159.276 215.61 159.308C216.369 159.359 217.195 159.268 217.891 158.985C218.154 158.878 218.132 158.071 217.82 157.493ZM159.774 227.863C159.774 229.25 159.774 230.636 159.774 232.704C161.741 230.386 161.658 228.959 159.774 227.863ZM221.599 247.1C220.871 247.233 220.144 247.366 219.416 247.499C219.449 247.739 219.482 247.979 219.514 248.219C220.969 248.693 222.419 249.871 224.46 248.088C223.298 247.645 222.659 247.401 221.599 247.1ZM219.501 157.774C220.751 157.974 221.996 158.224 223.254 158.327C223.461 158.344 223.722 157.718 223.958 157.39C223.574 157.13 223.162 156.618 222.813 156.658C221.726 156.784 220.663 157.119 219.501 157.774ZM161.895 234.833C161.695 234.125 161.496 233.416 161.296 232.708C160.926 232.788 160.556 232.868 160.187 232.948C160.389 234.411 160.592 235.873 160.794 237.336C161.169 237.311 161.543 237.285 161.917 237.26C161.953 236.582 161.989 235.904 161.895 234.833ZM212.013 159.602C212.446 159.398 212.879 159.193 213.312 158.989C213.092 158.68 212.89 158.12 212.651 158.103C211.381 158.014 210.102 158.061 208.826 158.061C208.812 158.454 208.797 158.848 208.783 159.241C209.708 159.363 210.633 159.486 212.013 159.602ZM198.806 247.795C200.092 247.894 201.379 247.994 202.975 248.117C201.828 245.862 200.678 245.82 198.806 247.795ZM164.02 246.038C163.627 245.113 163.234 244.189 162.841 243.264C162.509 243.395 162.177 243.525 161.845 243.655C162.081 244.713 162.232 245.802 162.601 246.811C162.722 247.144 163.407 247.27 163.835 247.491C163.938 247.132 164.042 246.774 164.02 246.038ZM163.758 248.737C162.805 250.54 163.4 251.831 164.665 252.9C164.992 252.789 165.318 252.677 165.645 252.566C165.145 251.313 164.646 250.06 163.758 248.737ZM170.435 269.117C170.11 269.694 169.407 270.385 169.539 270.824C169.811 271.724 170.531 272.489 171.066 273.31C171.334 273.136 171.602 272.963 171.869 272.789C171.486 271.658 171.104 270.526 170.435 269.117ZM247.484 141.3C246.939 140.273 246.395 139.246 245.85 138.219C245.532 138.381 245.213 138.542 244.895 138.703C245.239 139.731 245.507 140.797 245.989 141.755C246.086 141.946 247.002 141.724 247.484 141.3ZM255.862 176.664C255.613 175.946 255.365 175.227 255.116 174.509C254.805 174.546 254.495 174.582 254.185 174.619C254.185 175.563 254.06 176.53 254.235 177.44C254.328 177.919 254.944 178.297 255.323 178.72C255.552 178.167 255.781 177.615 255.862 176.664ZM255.639 185.328C255.692 186.69 255.745 188.053 255.798 189.416C256.144 189.383 256.49 189.349 256.836 189.315C257.028 187.911 258.244 186.408 255.639 185.328ZM256.559 183.576C256.596 182.134 257.176 180.402 255.412 179.922C255.018 180.133 254.624 180.344 254.23 180.555C254.92 181.673 255.609 182.791 256.559 183.576ZM174.42 283.083C176.111 281.893 175.741 280.395 172.887 278.928C173.404 280.494 173.785 281.649 174.42 283.083ZM177.914 252.153C179.507 252.219 181.045 252.199 181.477 250.459C181.277 250.151 181.076 249.843 180.876 249.535C179.798 250.318 178.72 251.1 177.914 252.153ZM196.723 248.463C196.668 247.882 196.613 247.302 196.559 246.721C195.45 246.966 194.342 247.21 193.234 247.455C193.251 247.76 193.268 248.064 193.285 248.369C194.3 248.446 195.316 248.523 196.723 248.463ZM245.707 136.076C245.326 135.067 244.945 134.059 244.564 133.05C244.218 133.14 243.873 133.23 243.528 133.319C243.794 134.469 244.044 135.624 244.388 136.75C244.4 136.79 245.331 136.55 245.707 136.076ZM256.9 144.17C256.138 144.67 255.376 145.171 254.615 145.671C254.667 145.902 254.719 146.133 254.772 146.364C255.447 146.309 256.221 146.442 256.773 146.152C257.481 145.781 258.01 145.07 258.617 144.506C258.145 144.322 257.674 144.137 256.9 144.17ZM162.87 240.023C162.513 239.415 162.155 238.808 161.798 238.2C161.531 238.391 161.017 238.615 161.037 238.769C161.191 239.951 161.448 241.119 161.674 242.292C161.95 242.281 162.227 242.27 162.503 242.259C162.629 241.659 162.755 241.058 162.87 240.023ZM249.852 155.484C250.169 156.325 250.487 157.166 250.804 158.007C251.138 157.945 251.471 157.882 251.804 157.819C251.586 156.6 251.368 155.381 251.15 154.162C250.692 154.464 250.233 154.767 249.852 155.484ZM231.38 156.408C232.364 156.068 233.349 155.729 234.334 155.39C234.246 155.02 234.157 154.65 234.068 154.28C232.838 154.554 231.609 154.827 230.379 155.101C230.572 155.533 230.765 155.966 231.38 156.408ZM228.838 156.599C228.005 155.234 226.482 155.464 225.048 157.871C226.242 157.559 227.437 157.248 228.838 156.599ZM255.058 172.528C254.744 171.401 254.43 170.274 254.116 169.147C253.751 169.245 253.386 169.344 253.021 169.443C253.244 170.644 253.446 171.85 253.743 173.033C253.76 173.1 254.543 172.976 255.058 172.528ZM151.475 264.787C152.018 264.549 152.561 264.311 153.104 264.072C152.795 263.677 152.486 263.281 152.177 262.885C150.95 263.546 149.722 264.206 148.495 264.866C148.636 265.175 148.778 265.485 148.92 265.794C149.664 265.531 150.408 265.267 151.475 264.787ZM255.483 259.337C255.359 259.76 255.082 260.532 255.134 260.556C256.197 261.025 257.299 261.408 258.393 261.808C258.525 261.471 258.658 261.134 258.79 260.797C257.815 260.315 256.839 259.832 255.483 259.337ZM248.126 143.937C247.662 144.046 247.199 144.154 246.736 144.263C247.23 145.331 247.725 146.399 248.219 147.466C248.548 147.323 248.878 147.18 249.207 147.036C248.934 146.103 248.66 145.17 248.126 143.937ZM159.516 258.36C159.025 258.852 158.534 259.345 158.043 259.837C158.201 260.057 158.359 260.278 158.517 260.498C159.271 260.2 160.083 259.996 160.756 259.572C161.174 259.308 161.38 258.709 161.682 258.26C161.082 258.239 160.482 258.218 159.516 258.36Z" fill="#59CCD2"/>
<path d="M192.184 118.082C188.591 118.802 184.997 119.521 181.197 119.928C180.988 118 180.986 116.383 180.988 114.587C180.821 113.997 180.651 113.586 180.481 113.175C180.481 113.175 180.48 113.23 180.641 113.197C181.561 111.586 182.322 110.009 183.103 108.39C182.407 108.198 181.692 108 180.976 107.803C180.98 103.816 180.925 99.8229 183.234 96.2843C185.866 92.2492 189.643 90.2986 194.392 90.2942C219.97 90.2706 245.547 90.2831 271.125 90.2831C293.327 90.2831 315.53 90.2814 337.733 90.2841C345.2 90.285 350.992 96.0653 350.993 103.587C351.002 170.775 350.996 237.964 351.002 305.152C351.002 310.16 348.662 313.914 344.209 317.202C346.7 317.422 348.614 317.592 350.527 317.761C350.534 318.046 350.542 318.331 350.549 318.616C347.408 318.944 344.272 319.502 341.127 319.56C326.678 319.827 312.227 320 297.776 320.123C272.138 320.342 246.499 320.579 220.859 320.647C209.519 320.677 198.176 320.398 186.839 320.098C179.603 319.906 172.375 319.433 165.145 319.041C164.377 319 163.625 318.66 162.866 318.458C162.856 318.181 162.846 317.904 162.836 317.626C170.669 317.217 178.502 316.807 186.832 316.371C181.088 312.071 180.753 306.295 181.007 299.863C181.013 298.848 181.004 298.295 180.994 297.742C180.811 296.637 180.628 295.532 180.462 293.987C180.295 291.942 180.11 290.337 180.141 288.703C180.916 288.541 181.477 288.409 182.037 288.276C188.355 289.487 194.653 290.823 200.997 291.874C207.508 292.952 214.004 291.799 220.977 291.29C225.365 291.273 229.275 291.172 233.179 291.285C234.404 291.32 235.613 291.931 237.084 292.351C238.983 290.481 248.291 290.598 249.684 292.155C253.902 291.817 257.525 291.288 261.151 291.275C282.82 291.196 304.49 291.24 326.159 291.234C335.201 291.232 339.238 287.224 339.238 278.28C339.239 225.579 339.189 172.877 339.301 120.176C339.315 113.54 334.838 108.143 327.468 108.207C298.074 108.459 268.676 108.308 239.28 108.318C238.311 108.319 237.341 108.441 236.14 108.477C234.653 108.43 233.399 108.413 231.959 108.372C230.116 108.236 228.6 106.195 226.646 107.862C225.165 106.976 223.842 106.212 221.914 105.099C221.914 106.862 221.914 107.607 221.672 108.333C217.701 108.314 213.971 108.375 210.246 108.264C209.368 108.237 208.508 107.628 207.64 107.288C208.387 106.877 209.141 106.476 209.877 106.046C210.005 105.971 210.059 105.77 210.576 104.935C208.85 104.852 207.498 104.787 206.118 104.721C206.001 106.108 205.92 107.058 205.813 108.322C204.756 108.322 203.805 108.321 202.854 108.322C199.582 108.326 196.946 109.773 195.157 112.369C194.032 114.003 193.5 116.045 192.572 117.948C192.357 118.022 192.27 118.052 192.184 118.082ZM267.839 296.146C266.952 296.143 266.063 296.096 265.179 296.144C261.322 296.351 257.765 299.654 257.23 303.49C256.679 307.436 259.547 312.079 263.196 313.151C267.577 314.438 271.705 312.863 273.619 309.174C276.437 303.742 274.41 298.811 267.839 296.146ZM236.134 298.801C237.098 298.392 238.063 297.983 239.027 297.575C238.96 297.299 238.893 297.023 238.826 296.747C237.722 296.795 236.619 296.844 235.808 296.879C235.729 295.767 235.653 294.7 235.577 293.632C234.739 294.638 233.901 295.644 232.89 296.858C234.065 297.68 234.897 298.261 236.134 298.801ZM216.256 302.935C216.945 302.634 217.634 302.333 218.323 302.032C218.231 301.683 218.139 301.335 218.047 300.986C216.609 301.165 215.171 301.344 213.733 301.523C213.713 301.835 213.694 302.147 213.674 302.459C214.397 302.637 215.12 302.814 216.256 302.935ZM214.093 104.757C213.165 104.869 212.236 104.982 211.307 105.094C211.322 105.435 211.338 105.775 211.353 106.116C212.239 106.322 213.119 106.637 214.014 106.693C214.503 106.723 215.019 106.315 215.522 106.105C215.19 105.673 214.858 105.242 214.093 104.757ZM191.681 107.427C193.952 107.212 193.952 107.212 193.973 105.516C192.934 105.626 191.886 105.649 190.89 105.889C190.551 105.971 190.344 106.601 190.077 106.981C190.477 107.162 190.878 107.343 191.681 107.427ZM220.937 300.45C220.271 300.713 219.606 300.975 218.94 301.238C219.006 301.585 219.072 301.932 219.138 302.278C220.594 302.139 222.049 301.999 223.505 301.859C223.521 301.512 223.536 301.164 223.552 300.817C222.824 300.683 222.095 300.55 220.937 300.45ZM190.788 300.377C189.69 300.216 188.593 300.055 187.495 299.893C187.42 300.305 187.345 300.717 187.27 301.129C188.485 301.395 189.7 301.661 190.915 301.927C191.005 301.455 191.094 300.983 190.788 300.377ZM185.478 299.319C184.392 299.147 183.306 298.975 182.221 298.803C182.144 299.216 182.067 299.629 181.99 300.042C183.21 300.315 184.431 300.589 185.652 300.863C185.728 300.391 185.804 299.92 185.478 299.319ZM202.139 302.264C200.71 300.726 199.258 301.406 197.809 301.762C197.81 302.145 197.812 302.528 197.813 302.911C199.222 302.834 200.631 302.757 202.139 302.264ZM218.476 105.243C217.856 105.47 217.235 105.697 216.615 105.925C216.675 106.19 216.735 106.456 216.795 106.722C218.122 106.893 219.448 107.065 220.775 107.236C220.861 106.892 220.947 106.549 221.033 106.205C220.326 105.896 219.619 105.586 218.476 105.243ZM184.911 108.093C186.564 108.697 187.985 108.592 188.977 107.171C188.855 106.819 188.733 106.467 188.611 106.115C187.339 106.638 186.067 107.162 184.911 108.093ZM194.577 300.906C193.936 301.03 193.296 301.154 192.655 301.279C192.687 301.575 192.718 301.871 192.75 302.167C194.101 302.167 195.451 302.167 196.801 302.167C196.848 301.92 196.894 301.673 196.941 301.426C196.306 301.256 195.671 301.086 194.577 300.906Z" fill="#2F2F2F"/>
<path d="M173.603 132.341C174.498 133.682 175.373 134.005 176.264 132.325C176.747 131.415 177.279 130.531 177.992 129.84C179.517 132.397 179.517 132.397 176.281 136.678C177.312 137.005 178.251 137.302 180.075 137.88C177.65 139.078 175.885 139.95 174.121 140.821C174.055 140.643 173.989 140.465 173.924 140.287C171.498 142.871 169.072 145.456 166.493 148.226C166.341 148.411 166.086 148.415 165.895 148.395C164.852 148.077 164.002 147.778 163.151 147.479C162.755 147.944 162.36 148.409 161.965 148.874C162.778 149.153 163.673 149.306 164.378 149.756C164.854 150.061 165.429 150.872 165.327 151.307C164.87 153.242 166.288 152.493 167.068 152.664C169.004 153.194 170.941 153.725 173.111 154.318C172.923 153.186 172.836 152.668 172.718 151.955C175.466 152.855 177.97 153.675 180.467 154.492C182.871 151.663 184.799 149.17 182.866 145.474C182.248 144.293 182.212 142.705 182.242 141.31C182.282 139.528 183.185 138.321 185.207 138.271C188.429 138.193 191.153 139.118 192.863 142.262C193.208 142.439 193.553 142.616 193.898 142.793C194.469 141.798 194.968 140.751 195.626 139.817C197.165 137.628 198.139 137.617 199.385 139.96C200.42 141.906 201.751 143.302 203.992 143.481C204.866 143.551 205.771 143.235 206.736 143.083C207.277 143.493 207.934 144.247 208.758 144.563C210.819 145.353 210.603 146.617 209.401 147.79C207.923 149.232 207.131 151.278 204.504 151.732C202.093 152.149 199.93 153.793 200.503 157.25C199.771 157.674 199.217 157.818 198.756 158.109C198.675 158.161 198.873 158.938 199.129 159.191C200.122 160.175 201.775 159.554 202.305 158.043C205.584 157.995 205.584 157.995 206.882 153.431C207.156 154.838 207.43 156.246 207.486 157.913C206.857 158.669 206.445 159.166 206.033 159.663C204.651 160.846 203.269 162.029 201.69 163.381C201.397 162.546 201.182 161.932 200.884 161.087C198.048 162.549 196.128 164.645 195.154 167.503C193.671 171.854 192.426 176.287 190.888 180.618C190.243 182.434 189.235 184.159 188.173 185.782C185.871 189.3 185.595 192.673 188.375 196.063C188.874 196.672 189.32 197.39 189.553 198.132C189.77 198.824 189.672 199.616 189.712 200.363C188.896 200.261 188.04 200.272 187.278 200.011C186.845 199.862 186.504 199.306 186.223 198.869C183.567 194.737 183.75 195.59 179.957 197.45C176.885 198.956 173.953 200.75 170.708 202.557C171.567 203.345 172.002 203.744 173.079 204.732C169.485 204.467 167.226 205.665 167.24 208.711C167.25 210.989 167.985 213.327 168.755 215.512C169.136 216.594 170.272 217.445 171.157 218.308C174.863 221.926 177.424 221.389 179.334 216.663C179.864 215.35 180.32 213.953 181.128 212.822C181.813 211.863 182.957 211.233 183.897 210.457C184.077 210.613 184.257 210.769 184.437 210.925C184.179 212.529 183.718 214.131 183.711 215.736C183.7 218.265 184.537 218.706 186.896 217.743C187.142 217.642 187.378 217.518 187.62 217.407C191.74 215.534 191.79 215.517 193.263 219.734C194.047 221.976 195.3 222.936 197.686 222.065C199.263 221.49 200.9 221.081 202.5 220.565C205.797 219.503 206.523 218.306 206.136 214.807C206.042 213.963 206.122 213.1 206.604 212.12C206.898 212.646 207.192 213.171 207.759 214.185C208.279 213.201 208.727 212.352 209.176 211.504C209.435 211.64 209.695 211.777 209.954 211.913C210.14 212.599 210.325 213.285 210.535 214.062C210.658 213.872 210.796 213.711 210.876 213.526C211.91 211.114 213.447 209.836 216.278 210.711C217.003 210.936 218.142 210.681 218.769 210.214C221.717 208.021 225.053 208.018 228.445 208.24C231.884 208.464 235.348 208.564 238.748 209.073C243.093 209.722 243.271 210.093 243.533 214.734C245.436 214.406 247.278 213.922 249.143 213.801C252.899 213.556 256.668 213.415 260.432 213.419C262.539 213.421 263.431 214.773 263.066 216.83C262.017 222.748 261.097 228.698 259.748 234.548C259.376 236.158 257.899 237.736 256.536 238.841C254.603 240.408 253.756 242.121 253.411 244.618C252.988 247.678 251.711 250.62 250.614 253.884C249.413 254.634 248.402 255.114 247.376 255.6C247.851 256.406 248.241 257.067 248.63 257.728C248.596 257.973 248.563 258.217 248.374 258.729C247.844 259.655 247.47 260.314 247.097 260.972C246.549 262.521 246.002 264.071 245.455 265.62C245.721 265.723 245.987 265.826 246.254 265.93C246.69 265.381 247.127 264.832 247.836 263.942C248.184 266.36 247.202 267.541 245.492 268.733C244.835 270.445 244.345 271.852 243.856 273.26C241.068 268.479 238.2 263.742 235.54 258.891C234.75 257.451 234.75 255.587 234.014 254.102C233.283 252.628 232.08 251.388 230.968 249.887C230.81 249.969 231.336 249.697 231.925 249.39C231.156 245.896 228.189 245.986 225.564 245.496C223.403 245.094 221.258 244.354 219.093 244.3C217.38 244.258 215.647 245.032 213.573 245.458C212.976 245.305 212.728 245.137 212.48 244.969C212.917 244.014 213.355 243.058 213.882 241.907C212.569 241.235 211.232 240.321 209.754 239.843C206.862 238.907 205.339 234.55 205.789 231.801C206.163 229.518 206.979 227.186 206.024 224.757C204.897 221.891 202.535 221.327 200.365 223.432C199.833 223.947 198.771 224.124 197.96 224.107C192.484 223.997 187.001 223.928 181.538 223.572C177.889 223.335 174.54 223.975 171.27 225.539C170.015 226.139 168.619 226.547 167.243 226.769C163.843 227.319 161.956 225.305 160.405 222.542C160.211 222.542 160.244 222.533 160.244 222.533C159.919 222.038 159.651 221.166 159.262 221.108C155.682 220.576 153.725 217.816 151.34 215.605C150.174 214.524 148.814 213.653 147.261 213.018C148.899 217.857 153.773 219.604 157.032 223.492C156 223.492 155.078 223.766 154.77 223.447C152.929 221.538 150.209 220.629 148.856 218.172C148.523 217.567 147.965 217.081 147.487 216.562C145.143 214.022 142.919 211.353 140.409 208.988C137.189 205.954 136.329 202.16 136.26 198.022C136.203 194.559 135.83 191.037 136.313 187.644C137.337 180.456 134.647 173.448 135.655 166.262C135.864 164.776 134.532 163.073 133.769 161.105C132.261 163.249 130.953 165.109 129.468 166.822C129.648 165.191 130.004 163.705 130.361 162.22C130.361 162.22 130.399 161.998 130.576 161.862C130.83 161.375 130.908 161.024 130.986 160.673C133.14 157.333 135.293 153.994 137.79 150.562C138.38 150.126 138.627 149.783 138.875 149.439C138.875 149.439 138.884 149.476 139.02 149.405C139.252 149.03 139.348 148.726 139.443 148.422C139.443 148.422 139.427 148.412 139.577 148.398C139.809 148.221 139.89 148.056 139.971 147.891C139.971 147.891 139.959 147.879 140.11 147.865C140.34 147.684 140.421 147.518 140.501 147.352C140.501 147.352 140.492 147.346 140.64 147.327C140.868 147.141 140.948 146.973 141.028 146.805C141.028 146.805 141.027 146.816 141.161 146.781C141.382 146.581 141.468 146.417 141.554 146.252C141.554 146.252 141.56 146.281 141.683 146.238C141.898 146.034 141.991 145.873 142.084 145.712C142.084 145.712 142.089 145.746 142.226 145.676C142.457 145.302 142.551 144.998 142.646 144.694C142.646 144.694 142.624 144.679 142.777 144.666C143.009 144.489 143.089 144.324 143.169 144.16C143.169 144.16 143.157 144.146 143.308 144.133C143.54 143.955 143.62 143.79 143.701 143.626C143.701 143.626 143.689 143.612 143.84 143.599C144.072 143.421 144.153 143.256 144.234 143.092C144.234 143.092 144.222 143.079 144.373 143.066C144.604 142.888 144.685 142.723 144.766 142.558C144.766 142.558 144.755 142.546 144.906 142.532C145.137 142.353 145.218 142.188 145.298 142.023C145.298 142.023 145.288 142.012 145.438 141.998C145.669 141.819 145.749 141.653 145.83 141.487C145.83 141.487 145.821 141.479 145.97 141.465C146.201 141.286 146.282 141.12 146.363 140.955C146.363 140.955 146.354 140.947 146.526 140.969C146.941 140.785 147.184 140.577 147.478 140.233C147.816 139.847 148.104 139.597 148.585 139.355C149.037 139.357 149.294 139.352 149.593 139.458C149.795 139.503 149.955 139.437 150.104 139.358C150.093 139.345 150.091 139.378 150.265 139.38C150.728 139.199 151.018 139.018 151.394 138.807C151.595 138.715 151.672 138.623 151.902 138.402C153.642 138.438 155.784 137.988 156.617 138.832C158.147 140.383 159.239 140.687 160.992 139.538C163.702 137.761 166.166 135.403 169.771 135.721C170.138 136.321 170.485 136.714 170.831 137.107C171.344 136.25 171.923 135.42 172.299 134.507C172.352 134.376 171.428 133.842 170.842 133.332C170.266 132.233 169.804 131.297 169.276 130.227C168.829 130.085 168.062 129.842 167.33 129.61C167.899 128.635 168.341 127.878 168.975 127.081C170.799 126.512 172.43 125.982 174.063 125.641C174.066 126.207 174.066 126.583 174.067 126.958C172.511 127.296 171.579 128.104 171.912 130.273C172.488 131.245 173.045 131.793 173.603 132.341ZM157.665 204.502C159.221 206.375 160.414 204.841 160.688 205.062C159.887 203.98 159.086 202.898 158.18 201.674C158.621 201.417 158.384 201.472 158.345 201.591C158.077 202.416 157.851 203.255 157.665 204.502ZM159.838 190.774C157.829 191.543 157.551 192.643 159.322 195.462C159.653 193.587 159.873 192.343 159.838 190.774ZM255.622 218.749C255.757 219.643 255.893 220.537 256.029 221.431C256.317 221.42 256.605 221.409 256.893 221.398C257.147 220.084 257.4 218.771 257.654 217.457C257.444 217.337 257.234 217.217 257.024 217.096C256.577 217.504 256.129 217.912 255.622 218.749ZM170.716 138.752C167.866 138.656 168.954 140.925 168.344 142.174C168.629 142.339 168.914 142.503 169.198 142.668C169.731 141.49 170.263 140.313 170.716 138.752ZM160.298 187.297C160.293 186.66 160.288 186.023 160.283 185.386C159.883 185.476 159.162 185.509 159.133 185.666C158.918 186.872 158.836 188.102 158.713 189.325C159.057 189.372 159.401 189.419 159.745 189.465C159.908 188.883 160.07 188.3 160.298 187.297ZM242.105 252.826C241.545 252.796 240.985 252.766 240.426 252.737C240.418 253.052 240.315 253.607 240.416 253.648C241.59 254.116 242.795 254.507 243.992 254.919C244.117 254.576 244.242 254.234 244.367 253.891C243.741 253.569 243.115 253.247 242.105 252.826ZM160.712 183.22C160.833 182.167 160.954 181.115 161.075 180.062C160.741 179.973 160.407 179.885 160.073 179.796C159.772 180.906 159.444 182.011 159.236 183.138C159.222 183.213 160.129 183.457 160.712 183.22ZM194.128 158.554C195.204 158.641 196.28 158.728 197.356 158.815C197.382 158.495 197.408 158.176 197.434 157.857C196.463 157.567 195.504 157.193 194.512 157.059C194.32 157.033 194.001 157.939 194.128 158.554ZM256.591 228.771C256.156 228.589 255.397 228.174 255.334 228.262C254.434 229.506 254.02 230.801 255.605 232.42C255.976 231.111 256.249 230.145 256.591 228.771ZM255.199 226.267C255.632 226.29 256.426 226.399 256.443 226.324C256.723 225.142 256.902 223.937 257.105 222.737C256.708 222.657 256.312 222.577 255.915 222.497C255.644 223.619 255.373 224.741 255.199 226.267ZM161.126 173.244C161.777 172.069 162.428 170.895 163.08 169.72C162.78 169.579 162.479 169.437 162.179 169.296C160.403 169.927 160.732 171.465 161.126 173.244Z" fill="#C7F3F6"/>
<path d="M130.183 162.292C130.005 163.705 129.648 165.191 129.297 166.885C129.302 167.093 129.298 167.075 129.172 167.141C129.133 167.525 129.22 167.842 129.308 168.159C128.568 169.96 128.114 171.958 127.038 173.529C122.131 180.697 121.684 189.003 120.82 197.186C120.57 199.544 121.055 201.972 121.053 204.367C121.052 206.927 120.68 209.495 120.806 212.044C121.291 221.883 123.911 231.217 127.999 240.129C129.976 244.439 132.279 248.598 134.312 253.001C124.343 238.972 119.771 223.091 119.177 205.487C119.157 204.462 119.144 203.89 119.131 203.319C119.546 189.268 122.758 175.93 129.285 163.438C129.483 163.059 129.763 162.722 130.183 162.292Z" fill="#79D7DC"/>
<path d="M148.392 139.347C148.104 139.597 147.816 139.847 147.341 140.247C147.062 140.382 146.972 140.368 146.881 140.353C144.219 138.448 141.558 136.543 138.618 134.44C136.656 136.471 134.24 138.972 131.635 141.466C131.447 141.46 131.48 141.491 131.424 141.317C131.019 141.065 130.67 140.987 130.341 140.927C130.361 140.945 130.399 140.982 130.399 140.982C131.24 139.401 131.606 137.65 133.89 137.023C134.984 136.723 135.525 134.662 136.482 133.538C137.576 132.253 138.747 130.986 140.071 129.951C144.424 126.547 148.855 123.243 153.283 119.937C153.522 119.758 154.01 119.914 154.542 119.937C154.701 119.96 154.669 119.924 154.669 119.924C154.391 120.706 154.344 121.892 153.798 122.204C150.477 124.101 147.645 126.609 144.624 128.891C142.887 130.203 141.501 131.704 140.141 133.13C142.808 135.003 145.465 136.87 148.285 138.932C148.447 139.127 148.392 139.347 148.392 139.347Z" fill="white"/>
<path d="M139.276 271.442C139.176 276.891 144.148 278.27 147.22 281.052C149.803 283.39 152.992 285.051 155.853 287.094C156.383 287.473 156.632 288.248 157.012 289.023C157.014 289.207 157.053 289.167 157.053 289.167C156.523 289.18 155.846 289.413 155.487 289.172C152.939 287.46 150.44 285.671 147.956 283.864C146.304 282.661 144.639 281.461 143.092 280.13C140.644 278.025 138.285 275.818 135.917 273.624C135.819 273.534 136.004 273.139 135.881 272.766C135.705 272.645 135.648 272.683 135.801 272.841C136.238 272.7 136.523 272.401 136.79 272.12C136.772 272.138 136.74 272.178 136.74 272.178C137.483 271.985 138.225 271.792 139.142 271.542C139.317 271.486 139.276 271.442 139.276 271.442Z" fill="white"/>
<path d="M135.729 272.622C134.149 271.276 132.208 270.205 131.003 268.586C127.104 263.345 123.472 257.905 119.763 252.523C119.683 252.406 119.913 252.075 120.024 251.684C120.048 251.524 120.014 251.555 120.014 251.555C121.919 250.579 122.239 252.474 122.84 253.336C126.256 258.237 129.457 263.29 132.895 268.175C133.884 269.581 135.415 270.605 136.719 271.991C136.74 272.178 136.772 272.138 136.607 272.137C136.178 272.319 135.913 272.501 135.648 272.683C135.648 272.683 135.705 272.645 135.729 272.622Z" fill="white"/>
<path d="M148.586 139.355C148.392 139.347 148.448 139.127 148.456 139.014C155.113 132.866 162.53 128.003 170.702 124.29C171.715 123.829 172.733 123.379 173.922 123.142C174.085 124.057 174.074 124.754 174.062 125.452C172.431 125.982 170.8 126.512 168.865 126.964C166.342 128.078 164.213 129.51 161.876 130.389C159.666 131.22 159.046 133.867 156.252 134.279C154.568 134.527 153.215 137.017 151.713 138.5C151.673 138.623 151.596 138.715 151.212 138.804C150.659 139.012 150.375 139.195 150.092 139.378C150.092 139.378 150.094 139.345 149.964 139.347C149.741 139.348 149.647 139.347 149.553 139.346C149.295 139.352 149.037 139.357 148.586 139.355Z" fill="#7FDADF"/>
<path d="M169.253 113.791C166.458 115.193 163.655 116.58 160.871 118.004C159.441 118.735 158.07 119.59 156.614 120.262C156.205 120.451 155.589 120.192 154.869 120.031C154.669 119.924 154.701 119.96 154.714 119.97C155.274 119.328 155.692 118.437 156.387 118.063C160.272 115.976 164.224 114.014 168.372 111.898C168.602 112.631 168.766 113.154 169.112 113.744C169.294 113.811 169.253 113.791 169.253 113.791Z" fill="white"/>
<path d="M128.181 145.684C126.499 148.376 124.848 151.089 123.09 153.73C122.907 154.004 122.087 153.853 121.417 154.075C121.271 154.25 121.319 154.297 121.319 154.297C122.101 150.637 124.316 147.844 126.984 145.214C127.163 145.212 127.124 145.176 127.192 145.38C127.601 145.642 127.942 145.699 128.256 145.741C128.229 145.725 128.181 145.684 128.181 145.684Z" fill="white"/>
<path d="M156.88 276.458C157.553 276.52 158.398 276.576 159.087 276.933C164.5 279.733 169.884 282.59 175.471 285.45C175.666 285.471 175.666 285.47 175.571 285.606C175.166 285.838 174.856 285.934 174.545 286.031C168.69 282.884 162.835 279.737 156.88 276.458Z" fill="#70D4DA"/>
<path d="M174.063 125.641C174.073 124.754 174.085 124.057 174.121 123.151C174.146 122.942 174.345 122.855 174.636 122.849C175.35 122.664 175.772 122.485 176.298 122.172C176.867 121.747 177.333 121.455 177.961 121.213C178.346 121.249 178.57 121.234 178.794 121.219C179.007 121.719 179.22 122.219 179.433 122.718C176.728 123.118 175.92 125.439 174.711 127.361C174.684 127.404 174.409 127.29 174.158 127.103C174.067 126.582 174.066 126.207 174.063 125.641Z" fill="#B2EAED"/>
<path d="M180.771 107.832C181.691 108 182.407 108.198 183.102 108.39C182.321 110.009 181.561 111.586 180.613 113.2C179.458 110.628 179.507 108.782 180.771 107.832Z" fill="#EDEDED"/>
<path d="M179.925 288.733C180.109 290.337 180.294 291.942 180.47 293.773C179.255 292.515 178.049 291.031 176.844 289.548C177.3 289.207 177.757 288.866 178.383 288.353C178.645 288.184 178.737 288.189 178.908 288.329C179.287 288.542 179.587 288.619 179.894 288.707C179.902 288.718 179.925 288.733 179.925 288.733Z" fill="white"/>
<path d="M131.441 141.438C130.475 142.84 129.515 144.264 128.367 145.686C128.18 145.684 128.228 145.725 128.199 145.567C127.821 145.332 127.472 145.254 127.124 145.176C127.124 145.176 127.162 145.213 127.18 145.232C128.133 143.818 129.068 142.384 130.201 140.966C130.399 140.982 130.361 140.945 130.409 141.131C130.798 141.376 131.139 141.433 131.48 141.491C131.48 141.491 131.447 141.46 131.441 141.438Z" fill="white"/>
<path d="M119.216 159.121C117.808 156.809 119.743 155.679 121.121 154.29C121.318 154.297 121.27 154.25 121.244 154.228C122.644 155.524 122.1 157.09 119.352 159.078C119.175 159.082 119.216 159.121 119.216 159.121Z" fill="white"/>
<path d="M161.762 291.393C159.416 292.766 158.302 290.942 157.034 289.365C157.052 289.167 157.013 289.207 156.995 289.229C158.174 288.094 160.403 288.94 161.758 291.258C161.718 291.434 161.762 291.393 161.762 291.393Z" fill="white"/>
<path d="M166.578 293.494C168.605 293.438 170.619 293.41 171.339 296.074C171.288 296.263 171.332 296.223 171.332 296.223C169.386 296.677 167.14 295.539 166.613 293.642C166.616 293.453 166.578 293.494 166.578 293.494Z" fill="white"/>
<path d="M171.268 296.285C171.932 296.047 172.654 295.501 173.291 295.587C174.662 295.773 176.297 295.934 176.139 298.73C174.392 297.945 172.899 297.274 171.369 296.413C171.332 296.223 171.288 296.263 171.268 296.285Z" fill="white"/>
<path d="M169.299 113.833C169.304 113.236 169.304 112.618 169.304 111.456C170.704 111.276 172.157 111.09 173.782 110.931C173.954 110.958 173.914 110.914 173.914 110.914C173.642 113.849 171.164 112.905 169.384 113.605C169.253 113.791 169.294 113.811 169.299 113.833Z" fill="white"/>
<path d="M139.339 271.506C140.43 270.489 141.455 269.395 142.625 268.488C142.776 268.37 143.68 269.224 144.141 269.902C142.305 269.9 142.001 273.359 139.48 271.528C139.277 271.442 139.317 271.486 139.339 271.506Z" fill="white"/>
<path d="M180.268 113.193C180.65 113.586 180.82 113.997 180.803 114.662C179.84 115.937 179.063 116.957 178.306 117.995C178.326 118.013 178.364 118.05 178.364 118.05C177.13 116.703 178.033 114.124 180.268 113.193Z" fill="white"/>
<path d="M161.699 291.456C163.32 292.014 164.961 292.551 166.59 293.291C166.578 293.494 166.617 293.453 166.636 293.431C165.385 294.787 162.794 293.918 161.786 291.589C161.763 291.393 161.719 291.434 161.699 291.456Z" fill="white"/>
<path d="M173.977 110.978C175.331 110.17 176.652 109.323 178.021 108.56C178.114 108.509 178.774 109.085 178.798 109.399C178.833 109.847 178.588 110.684 178.352 110.724C177.033 110.954 175.682 110.994 174.128 111.006C173.915 110.914 173.955 110.958 173.977 110.978Z" fill="white"/>
<path d="M180.781 297.739C181.004 298.295 181.013 298.848 181.004 299.612C179.46 299.035 176.23 300.467 176.838 296.697C178.167 297.068 179.367 297.402 180.781 297.739Z" fill="white"/>
<path d="M177.799 121.163C177.333 121.455 176.867 121.747 176.123 122.156C175.612 122.252 175.38 122.231 175.147 122.21C175.504 121.288 175.744 120.292 176.258 119.467C176.631 118.867 177.366 118.492 178.152 118.033C178.364 118.05 178.325 118.013 178.354 118.177C178.188 119.281 177.994 120.222 177.799 121.163Z" fill="white"/>
<path d="M137.119 257.233C138.64 258.872 140.254 260.653 141.781 262.617C140.2 260.991 138.706 259.183 137.119 257.233Z" fill="#79D7DC"/>
<path d="M178.829 288.194C178.737 288.189 178.646 288.185 178.417 288.171C177.583 287.769 176.887 287.375 176.179 286.625C175.999 286.002 175.832 285.736 175.666 285.47C175.666 285.47 175.666 285.471 175.666 285.471C176.207 285.501 176.836 285.365 177.27 285.596C178.145 286.06 178.913 286.725 179.827 287.455C179.929 287.605 179.926 287.608 179.76 287.621C179.339 287.821 179.084 288.008 178.829 288.194Z" fill="#70D4DA"/>
<path d="M152.615 273.258C153.932 274.015 155.348 274.903 156.675 275.966C155.295 275.225 154.005 274.307 152.615 273.258Z" fill="#70D4DA"/>
<path d="M148.862 270.034C150.009 270.801 151.255 271.697 152.408 272.767C151.197 272.014 150.078 271.089 148.862 270.034Z" fill="#70D4DA"/>
<path d="M142.452 263.636C143.245 264.422 144.128 265.341 144.854 266.276C143.98 265.45 143.261 264.61 142.452 263.636Z" fill="#79D7DC"/>
<path d="M134.452 253.496C135.272 254.425 136.185 255.496 136.976 256.738C136.084 255.819 135.314 254.728 134.452 253.496Z" fill="#79D7DC"/>
<path d="M146.336 267.577C146.96 267.893 147.599 268.389 148.141 269.041C147.48 268.717 146.916 268.237 146.336 267.577Z" fill="#70D4DA"/>
<path d="M175.572 285.606C175.833 285.736 175.999 286.002 176.168 286.433C175.688 286.518 175.206 286.437 174.634 286.193C174.856 285.934 175.167 285.838 175.572 285.606Z" fill="#59CCD2"/>
<path d="M130.919 160.822C130.909 161.023 130.831 161.374 130.608 161.753C130.592 161.512 130.721 161.242 130.919 160.822Z" fill="#79D7DC"/>
<path d="M138.72 149.479C138.628 149.783 138.38 150.126 137.958 150.481C138.043 150.168 138.304 149.843 138.72 149.479Z" fill="#70D4DA"/>
<path d="M175.009 122.268C175.38 122.231 175.613 122.252 176.02 122.29C175.773 122.485 175.35 122.664 174.744 122.833C174.664 122.658 174.767 122.492 175.009 122.268Z" fill="#7FDADF"/>
<path d="M142.482 144.738C142.551 144.998 142.456 145.302 142.208 145.675C142.143 145.423 142.231 145.103 142.482 144.738Z" fill="#70D4DA"/>
<path d="M139.28 148.464C139.348 148.726 139.253 149.03 139.003 149.399C138.937 149.146 139.026 148.826 139.28 148.464Z" fill="#70D4DA"/>
<path d="M146.745 140.405C146.972 140.368 147.063 140.382 147.291 140.384C147.185 140.577 146.942 140.785 146.53 140.975C146.444 140.791 146.526 140.624 146.745 140.405Z" fill="#70D4DA"/>
<path d="M143.025 144.179C143.089 144.324 143.01 144.489 142.787 144.674C142.723 144.53 142.802 144.364 143.025 144.179Z" fill="#70D4DA"/>
<path d="M143.558 143.645C143.621 143.79 143.54 143.955 143.315 144.138C143.252 143.993 143.333 143.828 143.558 143.645Z" fill="#70D4DA"/>
<path d="M144.09 143.111C144.153 143.257 144.072 143.421 143.847 143.605C143.784 143.46 143.865 143.295 144.09 143.111Z" fill="#70D4DA"/>
<path d="M144.623 142.577C144.686 142.723 144.605 142.888 144.38 143.071C144.317 142.926 144.398 142.761 144.623 142.577Z" fill="#70D4DA"/>
<path d="M145.155 142.043C145.218 142.188 145.138 142.353 144.913 142.537C144.85 142.392 144.93 142.227 145.155 142.043Z" fill="#70D4DA"/>
<path d="M148.319 269.435C148.448 269.379 148.614 269.393 148.697 269.548C148.509 269.654 148.424 269.593 148.319 269.435Z" fill="#70D4DA"/>
<path d="M145.687 141.507C145.75 141.653 145.67 141.818 145.444 142.003C145.381 141.857 145.462 141.692 145.687 141.507Z" fill="#70D4DA"/>
<path d="M139.827 147.911C139.89 148.056 139.809 148.221 139.585 148.405C139.522 148.26 139.602 148.095 139.827 147.911Z" fill="#70D4DA"/>
<path d="M141.907 263.013C142.046 262.945 142.226 262.966 142.338 263.143C142.131 263.284 142.024 263.218 141.907 263.013Z" fill="#79D7DC"/>
<path d="M146.219 140.974C146.282 141.12 146.201 141.286 145.974 141.47C145.911 141.323 145.993 141.159 146.219 140.974Z" fill="#70D4DA"/>
<path d="M140.358 147.374C140.421 147.518 140.341 147.684 140.117 147.87C140.053 147.726 140.134 147.561 140.358 147.374Z" fill="#70D4DA"/>
<path d="M140.887 146.834C140.948 146.973 140.868 147.141 140.643 147.332C140.58 147.191 140.663 147.028 140.887 146.834Z" fill="#70D4DA"/>
<path d="M141.412 146.287C141.468 146.417 141.382 146.581 141.156 146.782C141.101 146.653 141.185 146.487 141.412 146.287Z" fill="#70D4DA"/>
<path d="M141.942 145.747C141.992 145.873 141.899 146.034 141.668 146.236C141.62 146.112 141.71 145.946 141.942 145.747Z" fill="#70D4DA"/>
<path d="M192.702 117.904C193.5 116.045 194.031 114.003 195.157 112.369C196.945 109.773 199.582 108.326 202.854 108.322C203.805 108.321 204.756 108.322 205.813 108.322C205.92 107.058 206 106.108 206.117 104.721C207.497 104.787 208.85 104.852 210.576 104.935C210.059 105.769 210.005 105.971 209.876 106.046C209.14 106.476 208.387 106.877 207.639 107.287C208.507 107.628 209.368 108.237 210.245 108.264C213.97 108.375 217.701 108.314 221.915 108.361C223.869 108.266 225.336 108.125 226.803 107.984C228.599 106.195 230.116 108.236 231.971 108.569C233.075 110.17 233.983 111.55 234.89 112.929C235.096 112.8 235.302 112.67 235.507 112.541C235.795 111.196 236.083 109.851 236.371 108.507C237.341 108.441 238.31 108.319 239.28 108.318C268.676 108.308 298.073 108.459 327.467 108.206C334.838 108.143 339.315 113.54 339.301 120.176C339.188 172.877 339.238 225.579 339.238 278.28C339.238 287.224 335.2 291.232 326.159 291.234C304.489 291.239 282.82 291.196 261.15 291.275C257.525 291.288 253.901 291.817 249.683 292.155C248.291 290.598 238.982 290.481 237.084 292.351C235.613 291.931 234.404 291.32 233.178 291.285C229.275 291.172 225.365 291.273 221.211 291.26C226.234 289.841 231.619 288.783 236.751 286.998C247.612 283.221 257.313 277.4 265.909 269.669C274.024 262.369 280.51 253.899 285.504 243.83C287.349 238.818 289.103 234.155 290.858 229.491C292.059 224.847 293.958 220.255 294.303 215.549C294.85 208.071 294.361 200.518 294.154 192.605C292.359 185.806 291.161 179.242 288.97 173.03C286.052 164.758 281.866 157.048 275.974 150.403C275.323 149.425 274.671 148.448 273.764 147.25C271.478 144.976 269.448 142.923 267.419 140.869C266.199 139.787 265.019 138.655 263.752 137.633C260.969 135.388 258.142 133.199 255.061 130.903C254.789 130.819 254.587 130.763 254.482 130.732C254.377 130.701 254.158 130.687 254.144 130.703C254.131 130.718 254.117 130.679 254.086 130.535C253.842 130.209 253.627 130.029 253.256 129.76C252.17 129.165 251.24 128.657 250.309 128.15C244.382 125.694 238.455 123.238 232.156 120.648C229.968 120.048 228.153 119.582 226.338 119.116C223.834 118.735 221.33 118.353 218.463 117.8C214.218 117.128 210.326 116.173 206.454 116.248C201.861 116.337 197.285 117.313 192.702 117.904ZM282.634 266.757C283.679 265.802 284.743 264.866 285.741 263.864C285.849 263.756 285.661 263.087 285.468 263.002C285.147 262.86 284.473 262.834 284.361 263.015C283.599 264.243 282.946 265.538 281.881 266.843C280.556 267.671 279.086 268.401 279.272 270.6C281.483 270.021 282.443 268.854 282.634 266.757ZM272.704 271.379C273.955 272.322 275.1 273.611 276.508 274.042C277.084 274.219 278.227 272.542 278.842 271.962C276.787 271.512 274.995 271.113 273.197 270.742C273.085 270.719 272.927 270.922 272.704 271.379ZM304.235 207.06C305.773 207.201 305.966 206.794 305.855 203.257C304.375 203.385 302.941 203.509 301.514 203.633C302.67 204.962 303.404 205.806 304.235 207.06ZM275.893 132.009C273.327 131.353 273.298 133.23 272.545 134.808C274.276 134.808 275.498 134.808 277.098 134.808C276.755 133.834 276.482 133.057 275.893 132.009ZM301.329 233.351C301.731 232.173 302.132 230.996 302.534 229.819C302.171 229.659 301.809 229.498 301.446 229.338C300.974 230.339 300.402 231.311 300.094 232.361C300.007 232.659 300.69 233.183 301.329 233.351ZM300.747 235.22C299.18 234.274 298.913 235.518 298.716 236.54C298.573 237.283 298.746 238.088 298.778 238.865C299.055 238.846 299.332 238.827 299.609 238.808C300.014 237.742 300.419 236.675 300.747 235.22ZM271.632 277.215C273.149 278.134 274.136 277.498 274.559 274.511C273.606 275.284 272.654 276.057 271.632 277.215ZM303.967 223.123C304.173 221.915 304.379 220.706 304.585 219.497C302.15 221.29 302.082 222.446 303.967 223.123ZM305.038 189.853C304.743 189.012 304.449 188.172 304.154 187.331C303.83 187.379 303.505 187.426 303.181 187.474C303.315 188.661 303.088 190.082 303.669 190.979C304.48 192.231 305.046 191.405 305.038 189.853ZM239.916 112.125C240.473 112.018 241.031 111.911 241.588 111.804C241.598 111.57 241.608 111.336 241.619 111.102C240.393 110.589 239.168 110.076 237.943 109.563C237.745 109.824 237.548 110.084 237.35 110.345C238.071 110.91 238.792 111.475 239.916 112.125ZM244.164 113.759C244.894 113.875 245.625 113.992 246.356 114.108C246.451 113.768 246.547 113.428 246.642 113.088C245.323 112.559 244.004 112.031 242.684 111.502C242.518 111.805 242.351 112.109 242.185 112.412C242.714 112.825 243.243 113.238 244.164 113.759ZM277.992 137.439C278.868 137.939 279.743 138.44 280.618 138.94C281.017 138.442 281.416 137.944 281.815 137.446C280.895 136.953 279.988 136.434 279.052 135.973C277.733 135.324 277.229 135.666 277.992 137.439ZM295.487 160.645C295.033 159.372 294.578 158.1 294.124 156.827C293.774 156.977 293.423 157.127 293.073 157.276C292.876 158.91 293.365 160.236 295.487 160.645ZM305.601 194.269C305.165 193.718 304.728 193.167 304.291 192.616C304.028 192.752 303.764 192.889 303.5 193.026C303.812 194.321 304.124 195.617 304.436 196.913C304.724 196.916 305.013 196.919 305.301 196.922C305.421 196.18 305.541 195.438 305.601 194.269ZM255.604 290.282C256.539 289.692 257.475 289.102 258.41 288.512C258.223 288.166 258.035 287.82 257.848 287.474C256.723 288.017 255.598 288.56 254.473 289.104C254.744 289.543 255.014 289.983 255.604 290.282ZM255.81 118.547C254.772 117.749 253.739 116.942 252.671 116.185C252.635 116.159 252.247 116.629 252.023 116.868C252.871 117.519 253.697 118.202 254.582 118.797C254.806 118.947 255.222 118.812 255.81 118.547ZM289.834 151.607C291.135 149.429 289.048 149.042 288.229 147.985C287.923 148.168 287.618 148.351 287.312 148.535C288.025 149.559 288.738 150.582 289.834 151.607ZM304.095 184.919C303.776 183.931 303.458 182.943 303.139 181.954C302.765 182.05 302.392 182.146 302.018 182.241C302.352 183.531 302.685 184.821 303.018 186.111C303.374 185.855 303.729 185.599 304.095 184.919ZM299.55 173.939C299.944 174.641 300.339 175.342 300.734 176.044C300.978 175.945 301.221 175.845 301.465 175.746C301.315 174.858 301.264 173.937 300.975 173.097C300.822 172.655 300.254 172.356 299.873 171.993C299.716 172.513 299.559 173.034 299.55 173.939ZM261.303 122.87C262.416 123.629 263.249 125.292 265.686 123.97C263.771 123.392 263.31 120.809 261.303 122.87ZM250.457 114.881C249.435 114.607 248.413 114.333 247.392 114.059C247.317 114.399 247.242 114.739 247.167 115.079C248.091 115.511 248.998 115.995 249.961 116.309C250.086 116.351 250.497 115.517 250.457 114.881ZM301.148 179.308C301.471 179.884 301.795 180.459 302.119 181.035C302.442 180.899 302.765 180.763 303.088 180.626C302.694 179.338 302.301 178.049 301.907 176.76C301.605 176.826 301.304 176.892 301.002 176.958C301.002 177.609 301.002 178.261 301.148 179.308ZM294.285 247.035C294.41 247.552 294.535 248.069 294.66 248.586C294.95 248.58 295.24 248.574 295.529 248.567C295.893 247.305 296.257 246.042 296.621 244.779C296.312 244.675 296.003 244.571 295.693 244.468C295.279 245.207 294.866 245.947 294.285 247.035ZM261.831 284.595C260.793 285.345 259.755 286.094 258.717 286.843C258.904 287.074 259.09 287.304 259.277 287.535C260.694 287.095 262.597 287.223 261.831 284.595ZM288.827 259.488C288.493 259.147 288.16 258.806 287.826 258.465C287.149 259.487 286.471 260.509 285.794 261.531C286.097 261.751 286.4 261.97 286.703 262.189C287.36 261.398 288.017 260.608 288.827 259.488Z" fill="#848484"/>
<path d="M192.572 117.948C197.285 117.313 201.861 116.337 206.454 116.248C210.326 116.173 214.218 117.128 218.236 117.787C217.705 118.826 217.039 119.705 216.209 120.803C218.454 123.282 215.109 123.128 213.84 123.959C214.795 126.253 215.724 128.482 216.652 130.712C216.414 130.949 216.176 131.187 215.937 131.424C214.591 131.254 213.228 131.168 211.903 130.896C208.879 130.274 205.737 129.802 203.628 127.194C202.738 126.093 202.163 124.74 201.296 123.615C200.502 122.584 199.468 120.873 198.612 120.916C195.99 121.046 194.301 119.418 192.222 118.262C192.27 118.052 192.356 118.022 192.572 117.948Z" fill="#C5F2F5"/>
<path d="M206.695 179.317C206.421 177.893 206.147 176.469 205.72 174.243C209.849 174.243 213.427 174.23 217.004 174.26C217.43 174.264 218.093 174.375 218.24 174.652C219.742 177.488 222.825 176.496 225.119 177.479C225.081 180.74 222.596 179.229 220.918 180.056C222.119 180.639 223.32 181.222 224.52 181.805C224.517 182.061 224.514 182.317 224.511 182.573C223.474 182.66 222.437 182.748 221.264 182.847C221.601 183.261 221.931 183.667 222.736 184.656C220.416 184.437 218.672 183.962 217.036 184.207C215.421 184.449 213.914 185.418 212.067 186.191C211.748 183.204 213.591 181.063 215.758 179.135C213.12 175.812 210.619 178.743 207.69 179.323C207.12 179.32 206.907 179.319 206.695 179.317Z" fill="#C0F0F3"/>
<path d="M267.3 141.053C269.448 142.923 271.478 144.976 273.603 147.172C273.093 148.473 272.245 150.688 271.924 150.614C270.165 150.207 268.169 149.605 266.947 148.379C265.2 146.627 264.052 144.278 262.633 142.162C264.038 141.876 265.61 141.556 267.3 141.053Z" fill="#C1F0F3"/>
<path d="M252.321 148.457C249.669 148.987 250.227 150.772 250.122 152.761C249.466 152.151 248.809 151.541 248.032 150.819C247.299 150.89 246.296 150.987 244.677 151.143C245.373 150.287 245.588 149.789 245.959 149.604C247.845 148.66 249.745 147.733 251.7 146.947C252.285 146.712 253.061 146.95 253.749 146.972C253.333 147.44 252.917 147.908 252.321 148.457Z" fill="#95DEE2"/>
<path d="M218.761 197.071C218.835 197.608 218.786 198.436 218.587 198.475C216.641 198.847 214.67 199.087 212.216 199.435C212.712 197.821 213.152 196.387 213.601 194.926C215.435 195.69 217.002 196.342 218.761 197.071Z" fill="#BDEFF3"/>
<path d="M226.225 119.272C228.153 119.582 229.968 120.048 231.96 120.601C231.556 121.226 230.904 122.279 230.408 122.21C228.329 121.92 226.297 121.293 224.248 120.79C224.266 120.533 224.285 120.276 224.303 120.018C224.906 119.821 225.509 119.624 226.225 119.272Z" fill="#BDEFF3"/>
<path d="M248.83 257.746C248.241 257.067 247.852 256.406 247.376 255.6C248.402 255.114 249.414 254.634 250.589 254.08C251.653 255.67 252.553 257.335 253.726 259.507C252.063 258.89 250.546 258.327 248.83 257.746Z" fill="#96DFE3"/>
<path d="M243.876 273.379C244.346 271.852 244.836 270.445 245.495 268.911C246.292 270.614 246.92 272.444 247.548 274.275C247.013 274.435 246.479 274.595 245.631 274.605C244.864 274.214 244.41 273.974 243.956 273.734C243.956 273.734 243.896 273.499 243.876 273.379Z" fill="#D0F5F7"/>
<path d="M254.587 130.763C254.587 130.763 254.789 130.819 254.885 130.859C254.658 131.712 254.335 132.526 254.012 133.34C253.433 132.823 252.916 132.202 252.262 131.809C250.968 131.033 249.662 130.343 250.237 128.309C251.24 128.657 252.17 129.165 253.291 129.907C253.693 130.32 253.905 130.5 254.117 130.679C254.117 130.679 254.131 130.718 254.141 130.815C254.296 130.862 254.442 130.812 254.587 130.763Z" fill="#B6ECEF"/>
<path d="M204.219 247.456C203.953 247 203.681 246.411 203.813 246.299C204.829 245.437 205.925 244.667 207.357 243.599C207.532 244.674 207.746 245.991 207.961 247.309C206.774 247.387 205.587 247.465 204.219 247.456Z" fill="#90DDE1"/>
<path d="M257.667 201.874C257.671 203.12 257.618 204.169 257.566 205.217C256.212 205.049 254.859 204.881 253.505 204.712C253.499 204.469 253.492 204.227 253.485 203.984C254.86 203.215 256.235 202.445 257.667 201.874Z" fill="#94DEE2"/>
<path d="M205.628 203.941C205.93 202.707 206.216 201.69 206.567 200.443C207.715 201.925 208.573 203.033 209.703 204.492C208.342 204.988 207.019 205.624 205.628 203.941Z" fill="#95DEE2"/>
<path d="M164.43 255.481C164.692 254.718 164.917 254.15 165.143 253.582C165.372 253.6 165.6 253.618 165.829 253.636C166.15 254.823 166.472 256.01 166.888 257.542C165.199 257.727 163.907 257.869 162.615 258.011C162.576 257.764 162.538 257.518 162.499 257.271C163.131 256.74 163.763 256.208 164.43 255.481Z" fill="#96DFE3"/>
<path d="M166.086 148.415C166.086 148.415 166.341 148.411 166.468 148.412C168.213 149.339 169.831 150.266 171.448 151.194C171.36 151.493 171.272 151.792 171.184 152.091C169.942 151.76 168.7 151.43 167.122 150.963C166.553 150.022 166.32 149.219 166.086 148.415Z" fill="#95DEE2"/>
<path d="M212.288 244.985C212.729 245.137 212.977 245.305 213.384 245.5C213.161 248.566 213.031 248.615 208.452 247.058C209.882 246.25 210.988 245.625 212.288 244.985Z" fill="#8CDCE0"/>
<path d="M177.961 121.213C177.994 120.222 178.189 119.281 178.335 118.159C179.063 116.957 179.84 115.937 180.8 114.842C180.985 116.383 180.987 118 180.982 119.857C180.3 120.357 179.625 120.617 178.872 121.048C178.57 121.234 178.346 121.249 177.961 121.213Z" fill="black"/>
<path d="M165.895 148.395C166.32 149.219 166.553 150.023 166.917 150.946C167.064 151.465 167.079 151.865 167.082 152.465C166.289 152.493 164.871 153.242 165.327 151.306C165.43 150.872 164.854 150.061 164.378 149.756C163.674 149.306 162.779 149.153 161.965 148.874C162.361 148.409 162.756 147.944 163.151 147.479C164.002 147.778 164.853 148.077 165.895 148.395Z" fill="#DCF8FA"/>
<path d="M255.929 190.854C257.977 191.093 258.221 191.982 256.458 194.801C256.232 193.537 256.006 192.273 255.929 190.854Z" fill="#8FDCE1"/>
<path d="M247.247 261.089C247.471 260.314 247.844 259.655 248.345 258.912C251.369 260.209 248.925 261.599 248.813 262.985C248.586 263.03 248.359 263.074 248.133 263.119C247.888 262.481 247.643 261.844 247.247 261.089Z" fill="#8FDCE1"/>
<path d="M218.032 157.538C218.134 158.071 218.155 158.878 217.892 158.985C217.197 159.268 216.371 159.359 215.611 159.307C215.14 159.276 214.696 158.846 214.239 158.595C214.653 158.235 215.018 157.678 215.491 157.562C216.229 157.382 217.041 157.501 218.032 157.538Z" fill="#8FDCE1"/>
<path d="M159.954 227.785C161.659 228.959 161.742 230.386 159.775 232.704C159.775 230.636 159.775 229.25 159.954 227.785Z" fill="#8FDCE1"/>
<path d="M221.811 247.128C222.661 247.401 223.3 247.645 224.462 248.088C222.42 249.871 220.97 248.693 219.516 248.219C219.483 247.979 219.45 247.739 219.417 247.499C220.145 247.366 220.873 247.233 221.811 247.128Z" fill="#90DDE1"/>
<path d="M219.547 157.573C220.664 157.119 221.727 156.784 222.814 156.658C223.163 156.618 223.575 157.13 223.959 157.39C223.723 157.718 223.463 158.344 223.255 158.327C221.997 158.224 220.752 157.974 219.547 157.573Z" fill="#90DDE1"/>
<path d="M161.961 235.029C161.99 235.904 161.954 236.582 161.918 237.26C161.544 237.285 161.17 237.311 160.795 237.336C160.593 235.873 160.39 234.411 160.188 232.948C160.557 232.868 160.927 232.788 161.297 232.708C161.497 233.416 161.696 234.124 161.961 235.029Z" fill="#90DDE1"/>
<path d="M211.786 159.605C210.633 159.486 209.709 159.363 208.784 159.241C208.798 158.848 208.812 158.454 208.826 158.061C210.102 158.061 211.381 158.014 212.651 158.103C212.891 158.12 213.093 158.68 213.312 158.989C212.879 159.193 212.446 159.398 211.786 159.605Z" fill="#92DDE2"/>
<path d="M198.736 247.595C200.679 245.819 201.829 245.861 202.976 248.117C201.38 247.994 200.093 247.894 198.736 247.595Z" fill="#90DDE1"/>
<path d="M164.083 246.226C164.043 246.774 163.939 247.132 163.835 247.49C163.408 247.27 162.723 247.143 162.601 246.811C162.232 245.802 162.081 244.713 161.846 243.655C162.178 243.525 162.51 243.394 162.842 243.264C163.235 244.189 163.628 245.113 164.083 246.226Z" fill="#92DDE2"/>
<path d="M163.953 248.772C164.646 250.06 165.146 251.313 165.645 252.566C165.319 252.677 164.992 252.789 164.666 252.9C163.401 251.831 162.805 250.54 163.953 248.772Z" fill="#92DDE2"/>
<path d="M243.79 273.837C244.409 273.974 244.863 274.214 245.419 274.568C244.725 275.821 243.928 276.959 243.132 278.097C242.834 277.966 242.536 277.834 242.237 277.703C242.7 276.448 243.163 275.194 243.79 273.837Z" fill="#95DEE2"/>
<path d="M170.579 269.256C171.104 270.526 171.487 271.658 171.87 272.789C171.602 272.963 171.335 273.136 171.067 273.31C170.531 272.489 169.812 271.724 169.54 270.824C169.407 270.385 170.111 269.694 170.579 269.256Z" fill="#94DEE2"/>
<path d="M160.214 222.525C160.379 223.879 160.542 225.249 160.705 226.619C160.33 226.643 159.956 226.667 159.581 226.691C159.551 225.311 157.164 224.089 160.033 222.531C160.244 222.533 160.211 222.542 160.214 222.525Z" fill="#8FDCE1"/>
<path d="M247.513 141.496C247.003 141.724 246.087 141.946 245.99 141.755C245.507 140.797 245.24 139.731 244.896 138.703C245.214 138.542 245.533 138.381 245.851 138.219C246.396 139.246 246.94 140.273 247.513 141.496Z" fill="#93DEE2"/>
<path d="M255.937 176.863C255.782 177.615 255.553 178.167 255.324 178.72C254.945 178.297 254.329 177.919 254.237 177.44C254.061 176.53 254.186 175.563 254.186 174.619C254.496 174.582 254.807 174.546 255.117 174.509C255.366 175.227 255.615 175.946 255.937 176.863Z" fill="#93DEE2"/>
<path d="M255.843 185.283C258.245 186.408 257.029 187.911 256.836 189.315C256.49 189.349 256.145 189.382 255.799 189.416C255.746 188.053 255.693 186.69 255.843 185.283Z" fill="#92DDE2"/>
<path d="M256.43 183.743C255.61 182.791 254.921 181.673 254.231 180.555C254.625 180.344 255.02 180.133 255.414 179.922C257.177 180.403 256.597 182.134 256.43 183.743Z" fill="#92DDE2"/>
<path d="M174.294 282.944C173.786 281.649 173.404 280.494 172.887 278.928C175.742 280.395 176.112 281.893 174.294 282.944Z" fill="#93DEE2"/>
<path d="M177.778 252.018C178.72 251.1 179.799 250.317 180.877 249.535C181.077 249.843 181.277 250.151 181.477 250.459C181.045 252.199 179.508 252.219 177.778 252.018Z" fill="#93DEE2"/>
<path d="M196.527 248.531C195.316 248.523 194.301 248.446 193.285 248.369C193.268 248.064 193.251 247.76 193.234 247.455C194.342 247.21 195.451 246.966 196.559 246.721C196.614 247.302 196.668 247.882 196.527 248.531Z" fill="#92DDE2"/>
<path d="M245.771 136.258C245.332 136.55 244.401 136.79 244.389 136.75C244.046 135.624 243.795 134.469 243.529 133.32C243.874 133.23 244.22 133.14 244.565 133.05C244.946 134.059 245.327 135.067 245.771 136.258Z" fill="#93DEE2"/>
<path d="M257.053 144.061C257.675 144.137 258.147 144.321 258.618 144.506C258.011 145.07 257.482 145.781 256.774 146.152C256.222 146.442 255.448 146.309 254.773 146.364C254.72 146.133 254.668 145.902 254.616 145.671C255.377 145.171 256.139 144.67 257.053 144.061Z" fill="#94DEE2"/>
<path d="M162.876 240.24C162.755 241.058 162.63 241.659 162.504 242.259C162.227 242.27 161.95 242.281 161.674 242.292C161.449 241.119 161.191 239.951 161.037 238.769C161.017 238.615 161.531 238.391 161.798 238.2C162.156 238.807 162.513 239.415 162.876 240.24Z" fill="#90DDE1"/>
<path d="M249.814 155.277C250.234 154.767 250.692 154.464 251.151 154.162C251.369 155.381 251.587 156.6 251.805 157.819C251.472 157.882 251.138 157.945 250.805 158.007C250.488 157.166 250.17 156.325 249.814 155.277Z" fill="#93DEE2"/>
<path d="M231.17 156.403C230.766 155.966 230.573 155.533 230.38 155.101C231.61 154.827 232.839 154.554 234.069 154.28C234.158 154.65 234.247 155.02 234.335 155.39C233.35 155.729 232.365 156.068 231.17 156.403Z" fill="#94DEE2"/>
<path d="M228.735 156.767C227.437 157.247 226.243 157.559 225.048 157.87C226.482 155.464 228.005 155.234 228.735 156.767Z" fill="#92DDE2"/>
<path d="M202.141 158.003C201.775 159.554 200.122 160.175 199.129 159.191C198.873 158.938 198.675 158.161 198.756 158.109C199.217 157.818 199.771 157.674 200.504 157.479C201.135 157.639 201.556 157.801 202.141 158.003Z" fill="#DAF7F9"/>
<path d="M255.014 172.734C254.544 172.976 253.76 173.1 253.743 173.033C253.447 171.85 253.245 170.644 253.022 169.443C253.387 169.344 253.752 169.245 254.116 169.147C254.43 170.274 254.744 171.401 255.014 172.734Z" fill="#94DEE2"/>
<path d="M151.315 264.895C150.409 265.267 149.665 265.531 148.921 265.794C148.779 265.485 148.637 265.175 148.496 264.866C149.723 264.206 150.951 263.545 152.178 262.885C152.487 263.281 152.796 263.677 153.105 264.072C152.562 264.311 152.019 264.549 151.315 264.895Z" fill="#93DEE2"/>
<path d="M255.674 259.343C256.84 259.832 257.816 260.314 258.791 260.797C258.659 261.134 258.526 261.471 258.393 261.808C257.3 261.408 256.198 261.024 255.135 260.555C255.082 260.532 255.36 259.76 255.674 259.343Z" fill="#93DEE2"/>
<path d="M206.513 179.448C206.907 179.319 207.12 179.32 207.492 179.338C207.652 180.746 207.652 182.137 207.652 183.528C207.211 183.528 206.771 183.529 206.331 183.529C206.331 182.213 206.331 180.896 206.513 179.448Z" fill="#92DDE2"/>
<path d="M173.586 132.149C173.046 131.793 172.489 131.245 171.935 130.485C172.443 129.604 172.947 128.934 173.451 128.264C173.701 128.314 173.952 128.365 174.203 128.415C173.991 129.596 173.78 130.776 173.586 132.149Z" fill="#99E0E4"/>
<path d="M206.029 159.879C206.445 159.166 206.858 158.668 207.407 158.09C207.545 159.407 207.545 160.804 207.545 162.2C207.184 162.226 206.822 162.253 206.461 162.279C206.316 161.551 206.17 160.823 206.029 159.879Z" fill="#94DEE2"/>
<path d="M248.257 144.087C248.661 145.17 248.934 146.103 249.208 147.036C248.878 147.179 248.549 147.323 248.22 147.466C247.725 146.398 247.231 145.331 246.737 144.263C247.2 144.154 247.663 144.045 248.257 144.087Z" fill="#93DEE2"/>
<path d="M159.7 258.279C160.483 258.219 161.083 258.239 161.683 258.26C161.381 258.709 161.175 259.308 160.757 259.572C160.084 259.997 159.271 260.2 158.518 260.498C158.36 260.278 158.202 260.058 158.043 259.837C158.535 259.345 159.026 258.853 159.7 258.279Z" fill="#94DEE2"/>
<path d="M181.963 288.128C181.476 288.409 180.915 288.541 180.14 288.703C179.925 288.733 179.902 288.718 179.906 288.526C179.915 288.092 179.92 287.85 179.925 287.608C179.925 287.608 179.928 287.604 179.93 287.602C180.585 287.727 181.238 287.853 181.963 288.128Z" fill="#70D4DA"/>
<path d="M129.32 167.978C129.221 167.842 129.133 167.525 129.182 167.14C129.323 167.314 129.327 167.555 129.32 167.978Z" fill="#C7F3F6"/>
<path d="M268.06 296.169C274.41 298.811 276.437 303.743 273.619 309.174C271.705 312.863 267.577 314.438 263.196 313.151C259.547 312.079 256.679 307.436 257.229 303.49C257.765 299.654 261.322 296.352 265.179 296.144C266.063 296.096 266.952 296.143 268.06 296.169Z" fill="#171717"/>
<path d="M235.93 298.822C234.896 298.261 234.064 297.68 232.889 296.858C233.901 295.643 234.738 294.638 235.576 293.632C235.652 294.699 235.728 295.767 235.808 296.879C236.618 296.844 237.722 296.795 238.825 296.747C238.892 297.023 238.959 297.299 239.026 297.574C238.062 297.983 237.097 298.392 235.93 298.822Z" fill="#797979"/>
<path d="M236.139 108.477C236.083 109.851 235.795 111.196 235.507 112.541C235.302 112.67 235.096 112.8 234.89 112.929C233.983 111.55 233.075 110.17 232.156 108.593C233.398 108.413 234.653 108.43 236.139 108.477Z" fill="#B1B1B1"/>
<path d="M226.645 107.863C225.335 108.125 223.868 108.266 222.157 108.379C221.913 107.607 221.913 106.863 221.913 105.099C223.841 106.213 225.164 106.976 226.645 107.863Z" fill="#767676"/>
<path d="M216.049 302.963C215.119 302.814 214.396 302.637 213.674 302.46C213.693 302.148 213.713 301.835 213.732 301.523C215.17 301.344 216.608 301.165 218.046 300.986C218.138 301.335 218.23 301.684 218.322 302.032C217.634 302.333 216.945 302.634 216.049 302.963Z" fill="#737373"/>
<path d="M214.309 104.784C214.857 105.242 215.189 105.673 215.522 106.105C215.018 106.315 214.502 106.723 214.014 106.693C213.118 106.637 212.238 106.322 211.352 106.116C211.337 105.775 211.322 105.435 211.307 105.094C212.235 104.982 213.164 104.869 214.309 104.784Z" fill="#737373"/>
<path d="M191.479 107.476C190.877 107.343 190.477 107.162 190.076 106.981C190.343 106.602 190.55 105.972 190.889 105.89C191.885 105.649 192.934 105.626 193.972 105.516C193.952 107.212 193.952 107.212 191.479 107.476Z" fill="#777777"/>
<path d="M221.151 300.433C222.094 300.55 222.823 300.683 223.551 300.817C223.536 301.165 223.52 301.512 223.504 301.86C222.048 301.999 220.593 302.139 219.138 302.279C219.071 301.932 219.005 301.585 218.939 301.238C219.605 300.975 220.271 300.713 221.151 300.433Z" fill="#737373"/>
<path d="M190.984 300.444C191.093 300.983 191.003 301.455 190.914 301.927C189.699 301.661 188.484 301.395 187.269 301.129C187.344 300.717 187.419 300.305 187.494 299.893C188.592 300.055 189.689 300.216 190.984 300.444Z" fill="#777777"/>
<path d="M185.678 299.383C185.803 299.92 185.727 300.392 185.651 300.863C184.43 300.589 183.209 300.316 181.989 300.042C182.066 299.629 182.143 299.216 182.22 298.803C183.305 298.975 184.391 299.147 185.678 299.383Z" fill="#797979"/>
<path d="M202.088 302.472C200.63 302.757 199.221 302.834 197.812 302.911C197.811 302.528 197.809 302.145 197.808 301.762C199.257 301.406 200.709 300.726 202.088 302.472Z" fill="#797979"/>
<path d="M218.693 105.26C219.618 105.586 220.325 105.896 221.032 106.205C220.946 106.549 220.86 106.892 220.774 107.236C219.448 107.065 218.121 106.893 216.795 106.722C216.735 106.456 216.674 106.19 216.614 105.925C217.235 105.697 217.855 105.47 218.693 105.26Z" fill="#767676"/>
<path d="M184.852 107.889C186.066 107.162 187.338 106.638 188.61 106.115C188.732 106.467 188.854 106.819 188.976 107.171C187.984 108.592 186.563 108.697 184.852 107.889Z" fill="#797979"/>
<path d="M194.806 300.911C195.671 301.086 196.305 301.256 196.94 301.426C196.894 301.673 196.848 301.92 196.801 302.167C195.451 302.167 194.1 302.167 192.75 302.167C192.718 301.871 192.687 301.575 192.655 301.279C193.295 301.155 193.936 301.03 194.806 300.911Z" fill="#767676"/>
<path d="M151.902 138.402C153.215 137.017 154.568 134.527 156.251 134.279C159.046 133.867 159.666 131.22 161.876 130.389C164.213 129.51 166.342 128.078 168.673 127.004C168.342 127.878 167.9 128.635 167.331 129.61C168.062 129.842 168.83 130.085 169.277 130.227C169.805 131.297 170.266 132.233 170.757 133.482C170.441 134.368 170.096 134.941 169.75 135.514C166.167 135.403 163.703 137.761 160.992 139.538C159.24 140.687 158.147 140.383 156.617 138.832C155.785 137.988 153.643 138.438 151.902 138.402Z" fill="#5BCDD3"/>
<path d="M157.639 204.295C157.852 203.255 158.078 202.416 158.346 201.591C158.385 201.472 158.622 201.417 158.18 201.674C159.087 202.898 159.888 203.98 160.688 205.062C160.415 204.841 159.221 206.375 157.639 204.295Z" fill="#DCF8FA"/>
<path d="M159.966 190.936C159.874 192.343 159.654 193.587 159.323 195.462C157.551 192.643 157.83 191.544 159.966 190.936Z" fill="#DAF7F9"/>
<path d="M169.771 135.721C170.095 134.941 170.441 134.368 170.871 133.645C171.428 133.842 172.352 134.376 172.299 134.507C171.923 135.42 171.344 136.25 170.831 137.107C170.485 136.714 170.138 136.321 169.771 135.721Z" fill="#DAF7F9"/>
<path d="M255.652 218.534C256.13 217.912 256.578 217.504 257.025 217.096C257.235 217.217 257.445 217.337 257.655 217.457C257.401 218.771 257.147 220.085 256.894 221.398C256.606 221.409 256.318 221.42 256.03 221.431C255.894 220.537 255.758 219.643 255.652 218.534Z" fill="#DAF7F9"/>
<path d="M170.757 138.943C170.264 140.313 169.732 141.49 169.199 142.668C168.915 142.503 168.63 142.338 168.345 142.174C168.955 140.925 167.867 138.656 170.757 138.943Z" fill="#DBF7F9"/>
<path d="M160.266 187.507C160.071 188.3 159.908 188.883 159.745 189.465C159.401 189.419 159.057 189.372 158.713 189.325C158.836 188.102 158.918 186.872 159.134 185.666C159.162 185.509 159.883 185.476 160.283 185.386C160.288 186.023 160.293 186.66 160.266 187.507Z" fill="#DBF7F9"/>
<path d="M242.297 252.875C243.115 253.247 243.742 253.569 244.368 253.891C244.243 254.234 244.118 254.576 243.993 254.919C242.796 254.507 241.591 254.116 240.417 253.648C240.315 253.607 240.419 253.052 240.426 252.737C240.986 252.766 241.546 252.796 242.297 252.875Z" fill="#DCF8FA"/>
<path d="M160.66 183.422C160.129 183.457 159.223 183.213 159.236 183.138C159.444 182.011 159.773 180.906 160.073 179.796C160.407 179.885 160.741 179.973 161.075 180.062C160.954 181.115 160.833 182.168 160.66 183.422Z" fill="#DCF8FA"/>
<path d="M193.935 158.484C194.001 157.938 194.32 157.032 194.512 157.058C195.504 157.193 196.463 157.566 197.434 157.856C197.408 158.176 197.382 158.495 197.356 158.814C196.28 158.727 195.204 158.641 193.935 158.484Z" fill="#DBF7F9"/>
<path d="M256.557 228.975C256.25 230.145 255.976 231.111 255.606 232.421C254.02 230.801 254.435 229.507 255.335 228.262C255.398 228.174 256.157 228.589 256.557 228.975Z" fill="#DBF7F9"/>
<path d="M255.151 226.065C255.374 224.741 255.644 223.619 255.915 222.497C256.312 222.577 256.708 222.657 257.105 222.737C256.903 223.937 256.723 225.142 256.444 226.324C256.426 226.399 255.632 226.29 255.151 226.065Z" fill="#DBF7F9"/>
<path d="M160.996 173.081C160.733 171.465 160.404 169.927 162.18 169.296C162.48 169.437 162.78 169.579 163.081 169.72C162.429 170.895 161.778 172.069 160.996 173.081Z" fill="#DCF8FA"/>
<path d="M150.266 139.379C150.376 139.195 150.659 139.012 151.125 138.833C151.019 139.018 150.729 139.199 150.266 139.379Z" fill="#5BCDD3"/>
<path d="M149.594 139.458C149.646 139.347 149.74 139.348 149.975 139.36C149.955 139.437 149.795 139.503 149.594 139.458Z" fill="#5BCDD3"/>
<path d="M131.424 141.317C131.14 141.433 130.799 141.376 130.39 141.114C130.67 140.987 131.019 141.065 131.424 141.317Z" fill="black"/>
<path d="M135.801 272.841C135.914 272.501 136.179 272.319 136.626 272.119C136.523 272.401 136.238 272.7 135.801 272.841Z" fill="black"/>
<path d="M127.192 145.38C127.472 145.254 127.821 145.332 128.226 145.583C127.942 145.7 127.601 145.642 127.192 145.38Z" fill="black"/>
<path d="M179.759 287.621C179.92 287.85 179.915 288.092 179.898 288.515C179.586 288.619 179.287 288.542 178.908 288.329C179.083 288.007 179.339 287.821 179.759 287.621Z" fill="#59CCD2"/>
<path d="M239.714 112.083C238.792 111.475 238.071 110.91 237.35 110.345C237.547 110.085 237.745 109.824 237.943 109.563C239.168 110.076 240.393 110.589 241.618 111.102C241.608 111.336 241.598 111.57 241.588 111.804C241.03 111.911 240.473 112.018 239.714 112.083Z" fill="#AEAEAE"/>
<path d="M243.967 113.705C243.243 113.238 242.713 112.825 242.184 112.412C242.351 112.109 242.517 111.805 242.684 111.502C244.003 112.031 245.322 112.559 246.642 113.088C246.546 113.428 246.451 113.768 246.356 114.108C245.625 113.992 244.894 113.876 243.967 113.705Z" fill="#B0B0B0"/>
<path d="M255.444 290.352C255.014 289.983 254.743 289.544 254.473 289.104C255.598 288.56 256.723 288.017 257.848 287.474C258.035 287.82 258.222 288.166 258.41 288.512C257.474 289.102 256.539 289.692 255.444 290.352Z" fill="#AFAFAF"/>
<path d="M255.678 118.678C255.221 118.812 254.805 118.947 254.581 118.797C253.696 118.202 252.87 117.519 252.022 116.868C252.246 116.629 252.634 116.159 252.67 116.185C253.738 116.942 254.771 117.749 255.678 118.678Z" fill="#B0B0B0"/>
<path d="M261.243 122.703C263.309 120.809 263.77 123.392 265.685 123.97C263.248 125.292 262.415 123.629 261.243 122.703Z" fill="#B0B0B0"/>
<path d="M250.617 114.985C250.498 115.518 250.087 116.351 249.961 116.31C248.999 115.995 248.092 115.511 247.167 115.079C247.242 114.739 247.317 114.399 247.392 114.059C248.414 114.333 249.436 114.607 250.617 114.985Z" fill="#AFAFAF"/>
<path d="M262.009 284.622C262.597 287.223 260.694 287.095 259.277 287.535C259.091 287.304 258.904 287.074 258.718 286.844C259.756 286.094 260.793 285.345 262.009 284.622Z" fill="#AFAFAF"/>
<path d="M254.087 130.535C253.905 130.5 253.693 130.32 253.447 129.995C253.627 130.029 253.842 130.21 254.087 130.535Z" fill="#59CCD2"/>
<path d="M254.481 130.732C254.441 130.813 254.296 130.862 254.154 130.799C254.158 130.687 254.376 130.702 254.481 130.732Z" fill="#59CCD2"/>
</svg>
