<?xml version="1.0" encoding="UTF-8"?>
<svg id="Layer_2" data-name="Layer 2" xmlns="http://www.w3.org/2000/svg" viewBox="0 0 464.28 490.32">
  <defs>
    <style>
      .cls-1 {
        fill: #86ccae;
      }

      .cls-2 {
        fill: #bbe1d0;
      }
    </style>
  </defs>
  <g id="icon-thumbs-up">
    <g>
      <g>
        <path class="cls-1" d="M420.67,218.94l-119.35,9.39c-4.27,1.98-56.66,27.36-65.25,83.84-7.16,47.07,19.16,95.64,65.67,118.5,36.64,6.66,73.29,13.32,109.93,19.99,10.41-9.77,44.47-44.15,51.4-99.94,9.05-72.85-35.4-123.98-42.4-131.77Z"/>
        <path class="cls-1" d="M338.85,227.96c-13.51-12.56-28.52-28.26-43.44-47.45-16.08-20.69-28.24-40.54-37.39-57.76-.7-11.86-.66-25.92,1.12-41.59,2.22-19.57,6.54-36.25,10.96-49.46-.13-2.39-.76-8.39-5.06-14.33-4.18-5.78-9.49-8.27-11.72-9.16-3.97-2.87-9.55-5.98-16.66-7.42-23.7-4.78-42.77,13.44-45.11,15.73-6.37,6.15-21.09,21.98-27.39,47.5-6.09,24.66-1,44.88,1.66,53.36,6.65,18.81,6.47,33.38,5.65,41.62-.7,7.06-2,10.69-3.7,13.69-5,8.82-13.7,12.49-23.31,16.54-5.52,2.33-13.62,5.12-23.94,6.59-13.73-.96-28.92-1.35-45.32-.77-14.1,.5-27.23,1.67-39.24,3.2-18.57,4.38-31.59,21.02-31.32,39.52,.26,17.22,11.98,32.62,28.94,37.69-16.37,4.56-28.19,18.35-29.59,34.16-1.67,18.85,11.76,37.24,31.96,41.86-13.34,8.96-20.31,24.6-17.72,39.7,3.04,17.74,18.73,31.62,37.92,32.75-2.95,2.41-9.86,8.76-12.02,19.03-2.84,13.47,3.66,28.15,16.48,37.35,6.23,2.33,13.04,4.4,20.42,6.02,36.84,8.06,69.13,.44,89.16-6.57,18.76,1.09,54.62,.47,92.74-18.67,18.61-9.35,32.68-20.55,42.67-30.03,12.28-10.47,36.39-34.07,48.6-72.25,20.84-65.16-9.62-120.84-15.34-130.87Z"/>
      </g>
      <path class="cls-2" d="M114.56,195.25c6.15,.91,14.99,2.33,25.59,4.45,23.6,4.71,28.9,7.48,32.48,9.74,3.67,2.33,12.55,8.12,17.8,19.45,1.85,4,5.6,12.08,3.49,22.07-2.59,12.29-12.23,18.85-15.08,20.78-5.98,4.06-11.64,5.43-20.6,6.99-10.37,1.8-24.72,3.77-42.35,4.6,20.45,2.11,36.39,.68,46.76-.93,9.78-1.51,17.15-3.56,23.72-9.19,1.35-1.16,6.19-5.48,9.56-12.87,5.28-11.58,3.13-22.31,2.39-25.75-3.05-14.17-12.33-22.37-15.46-24.9-6.93-5.59-13.98-7.81-17.99-8.74-6.25-1.46-10.88-2.34-16.35-2.84-12.79-1.18-24.19-2.11-33.98-2.85Z"/>
      <path class="cls-2" d="M114.12,351.72c.03-.26,17.57,2.94,40.25-.19,11.02-1.52,15.41-3.45,19-6.02,9.12-6.55,12.52-16.92,13.68-20.45,1.04-3.17,2.17-6.61,2.08-11.36-.03-1.42-.38-12.15-8.23-19.91-4.91-4.85-10.69-6.61-17.68-7.9-10.55-1.94-26.53-3.84-47.3-2.55,9.1-.6,17.07-1.13,21.69-1.44,12.15-.81,19.04-1.28,28.25,.22,6.69,1.09,9.51,2.4,11.29,3.39,7.31,4.07,10.72,10.53,12.03,13.11,6.05,11.86,3.15,23.61,2.37,26.6-.65,2.49-4.05,14.42-15.34,22.17-5.44,3.74-10.69,5.11-13.54,5.83-6.34,1.6-11.33,1.44-17.3,1.13-17.37-.89-31.25-2.4-31.22-2.63Z"/>
      <path class="cls-2" d="M127.56,352.98c0,.25,6.51,.11,15.73,1.22,6.99,.85,12.09,1.5,18.27,3.86,5.09,1.95,9.38,3.59,13.36,7.85,5.21,5.58,6.44,11.96,6.87,14.33,1.38,7.69-.66,13.74-1.83,17.1-1.07,3.05-3.67,10.46-10.64,16-6.42,5.1-13.24,5.99-25.42,7.58-10.06,1.31-16.62,.88-16.62,1.22,0,.41,9.8,1.71,21.42,.4,7.97-.9,15.91-2.01,23.72-7.37,1.35-.93,6.19-4.39,9.56-10.31,.39-.69,1.66-3.05,2.73-6.83,1.2-4.26,3.73-13.19,.02-23.02-3.24-8.6-9.5-13.26-11.75-14.89-7.79-5.65-16.06-6.58-20.97-7.13-2.89-.32-6.03-.34-12.3-.38-5.88-.03-12.15,.14-12.15,.38Z"/>
      <path class="cls-2" d="M129.79,423.1c0,.52,11.69,1.04,20.62,1.23,14.67,.32,20.88-.28,25.77,4.4,1.91,1.83,2.82,3.69,3.98,6.08,4.3,8.83,2.94,17.26,2.51,19.69-.7,4-2.64,10.82-8.17,16.76-2.21,2.37-4.43,4.01-6.58,5.36-11.52,7.26-25.42,9.37-35.38,10.53-18.71,2.18-30.01,1.75-30.01,2.19,0,.47,13.56,2.06,29.82-.2,4.65-.65,9.66-1.82,19.68-4.17,12.09-2.84,14.65-3.95,17.17-5.52,7.04-4.4,10.59-10.48,12.03-13.11,1.5-2.74,7.18-13.47,4.39-26.71-.91-4.34-2.32-11-7.96-15.08-3.66-2.65-7.41-2.98-14.04-3.56-4.01-.35-6.23-.15-18.55,.76-12.45,.92-15.27,1.1-15.27,1.36Z"/>
      <path class="cls-2" d="M343.78,378.67c-5.63,11.34-14.02,25.4-26.44,39.72-8.57,9.89-17.18,17.73-24.85,23.84,7.21-3.15,21.06-10.34,33.12-25.13,12.41-15.21,16.61-30.7,18.17-38.44Z"/>
      <path class="cls-2" d="M345.43,252.64c.78-.27-1.43-16.96-12.69-32.15-7.36-9.92-16.41-16.28-16.89-15.79-.45,.45,6.64,6.66,14.17,17.49,11.67,16.78,14.69,30.71,15.41,30.46Z"/>
      <path class="cls-2" d="M61.34,197.1c-28.06-6.46-53.82,11.59-57.37,34.22-2.72,17.35,7.76,36.34,26.32,45.57C13.48,281.39,1.36,294.5,.11,309.13c-1.58,18.37,14.63,31.29,17.84,33.84,6.31,5.03,12.68,7.46,16.92,8.69-1.95,1.31-15.7,10.88-17.61,29.04-.22,2.11-1.79,20.03,12.12,32.93,10.76,9.97,23.66,10.33,26.77,10.33-2.52,1.92-8.45,6.96-11.45,15.74-4.04,11.83,.14,22.02,1.6,25.15,4.43,9.5,11.92,14.08,14.3,15.5,5.4,3.21,10.41,4.14,20.42,6.02,6.35,1.19,12.3,1.79,12.38,1.35,.14-.73-16.53-.82-30.18-10.98-2.61-1.94-17.16-12.75-16.46-26.98,.66-13.48,14.82-26.64,34.99-29.73-20.91,6.16-41.85,1.02-52.59-12.81-4.94-6.37-9.28-16.58-7.77-27.9,.29-2.2,2.6-17.99,13.49-23.1,5.22-2.45,11.4-1.96,11.43-3.2,.03-.92-3.34-1.63-5.72-2.29,0,0-9.26-2.54-19.44-10.52-3.1-2.43-12.08-9.39-14.63-21.49-.21-.98-3.59-18.24,7.32-28.58,4.12-3.91,8.5-5.14,15.78-7.09,6.56-1.76,16.7-3.58,29.65-2.41-31.51,1.61-54.3-24.76-51.32-47.56,2.7-20.67,25.9-38.86,53.42-36Z"/>
    </g>
  </g>
</svg>