<?xml version="1.0" encoding="UTF-8"?>
<svg id="Layer_2" data-name="Layer 2" xmlns="http://www.w3.org/2000/svg" viewBox="0 0 490.67 358.12">
  <defs>
    <style>
      .cls-1 {
        fill: #fff;
      }

      .cls-2 {
        fill: #6b75b8;
      }

      .cls-3 {
        fill: #818285;
      }

      .cls-4 {
        fill: #63c088;
      }

      .cls-5 {
        fill: #86ccae;
      }

      .cls-6 {
        fill: #905a24;
      }

      .cls-7 {
        fill: #231f20;
      }

      .cls-8 {
        fill: #595a5c;
      }

      .cls-9 {
        fill: #60c8d4;
      }

      .cls-10 {
        fill: #5060ac;
      }

      .cls-11 {
        fill: #f7b1c4;
        opacity: .57;
      }
    </style>
  </defs>
  <g id="icon-typing">
    <g>
      <rect class="cls-5" x="195.19" y="103.17" width="294.99" height="254.81" rx="10" ry="10"/>
      <rect class="cls-4" x="195.68" y="326.25" width="294.99" height="29.38" rx="10" ry="10"/>
      <path class="cls-8" d="M326.9,216.43c3.75-5.57,3.67-12.75-.11-17.78-4.75-6.33-12.78-5.86-13.33-5.82-14.53,14.66-29.51,30.7-44.68,48.17-15.01,17.3-28.65,34.22-41.02,50.52-2.62,8.37-.31,17.47,5.93,23.3,6.97,6.51,17.62,7.82,26.3,3.11,6.61-8.64,52.42-80.02,66.9-101.49Z"/>
      <path class="cls-8" d="M371.25,212.23c-3.12-5.95-2.23-13.08,2.07-17.66,5.42-5.77,13.35-4.41,13.89-4.31,12.82,16.18,25.93,33.77,39.07,52.82,13.01,18.85,24.69,37.18,35.18,54.74,1.68,8.61-1.63,17.4-8.48,22.5-7.65,5.7-18.37,5.82-26.49,.18-5.62-9.32-43.24-85.33-55.26-108.27Z"/>
      <path class="cls-8" d="M289.09,204.4c2.22-2.16,22.34-20.99,57.2-20.93,34.65,.06,54.6,18.74,56.86,20.93,4.79,18.25,13.08,46.93,26.55,81.89,14.87,38.61,24.62,55.14,12.88,65.84-9.94,9.06-25.53,5.04-86.81,4.54-75.67-.62-93.19,5.17-104.61-5.28-10.38-9.51-4.88-22.52,11.28-68.52,12-34.15,21.13-61.61,26.65-78.47Z"/>
      <path class="cls-3" d="M289.09,211.66c-.45-.13-10.25,27.09-18.41,62.53-3.92,17.03-3.85,20.27-5.24,28.46-1.28,7.56-5.07,11.6-3,14.71,.1,.14,1.18,1.73,2.26,1.54,2-.35,1.66-6.52,3.24-15.38,1.82-10.21,1.82-14.77,7.05-37.7,7.55-33.14,14.48-54.04,14.09-54.16Z"/>
      <path class="cls-3" d="M403.18,211.33c-.63,.22,4.96,20.06,12.8,41.24,1.78,4.82,4.37,11.55,16.83,41.39,13.19,31.59,16.66,39.43,12.8,47.71-5.09,10.92-19.04,14.12-18.14,15.96,.63,1.28,7.52,.07,12.85-3.74,0,0,3.26-2.33,5.41-5.59,7.94-12-14.5-64.18-23.76-86.99-12.3-30.31-18.16-50.2-18.79-49.98Z"/>
      <path class="cls-8" d="M163.78,297.58c9.46,1.21,18.31-4.34,21.05-12.76,2.33-7.15-.09-15.29-6.15-20.43-15.9-5.57-31.8-11.14-47.7-16.72-.91-.31-1.53-.22-1.93-.07-1.97,.75-2.88,4.51-2.01,9.39,.44,2.19,1.04,4.41,1.83,6.64,7.07,19.83,25.78,29.88,34.9,33.95Z"/>
      <path class="cls-8" d="M247.36,323.68c9.17-1.86,16.2-9.33,17.47-18.54,1.29-9.4-3.69-18.66-12.3-22.81-25.22-6.23-50.44-12.46-75.66-18.68-1,.17-11.93,2.23-16.86,12.73-4.49,9.56-.4,18.43,.16,19.6,10.02,5.36,21.94,10.86,35.67,15.65,19.35,6.75,36.99,10.24,51.51,12.06Z"/>
      <path class="cls-3" d="M129.05,247.59c-.11,.8-.25,1.96-.31,3.35-.55,11.75,4.8,20.85,6.95,24.09,4,6.04,8.36,9.11,15.52,14.17,6.55,4.62,12.72,7.62,20.85,11.57,3.05,1.48,6.67,3.17,10.87,4.97,7.76,3.33,19.39,7.88,34.79,12.37-8.86-2.35-16.25-4.64-21.88-6.49-6.36-2.09-10.07-3.32-15.16-5.51-1.37-.59-.59-.28-12.31-5.79-5.77-2.71-7.31-3.42-9.7-4.76-4.03-2.25-7.15-4.43-9.21-5.97-6.07-4.15-10.16-8.46-12.72-11.56-1.29-1.57-3.13-3.83-5-7.19-2.71-4.89-3.55-8.66-4.52-13.02,0,0-1.31-5.88,.46-9.02,.25-.45,.62-.76,.62-.76,.28-.24,.56-.38,.74-.45Z"/>
      <path class="cls-3" d="M240.51,279.3c-3.76-.23-8.11-.76-12.87-1.83-6.14-1.37-11.34-3.27-15.5-5.12,5.05,1.25,10.11,2.5,15.19,3.74,4.4,1.08,8.8,2.14,13.18,3.2Z"/>
      <path class="cls-8" d="M360.64,320.47c9.47-1.17,16.66-8.73,17.24-17.57,.49-7.5-3.87-14.79-11.01-18.28-16.78-1.47-33.57-2.94-50.35-4.41-.96-.08-1.54,.16-1.89,.41-1.72,1.21-1.68,5.09,.37,9.6,.96,2.02,2.1,4.02,3.42,5.98,11.75,17.46,32.37,22.58,42.21,24.27Z"/>
      <path class="cls-8" d="M448.08,325.11c8.43-4.07,13.4-13.05,12.35-22.29-1.07-9.43-8.19-17.17-17.56-19.06-25.98,.2-51.95,.4-77.93,.6-.93,.41-11.01,5.11-13.19,16.51-1.99,10.38,4.17,17.96,5,18.95,11.04,2.72,23.94,5.1,38.43,6.35,20.42,1.76,38.38,.78,52.89-1.05Z"/>
      <path class="cls-3" d="M314.64,280.62c.09,.8,.24,1.96,.52,3.32,2.37,11.52,9.81,19.02,12.69,21.63,5.37,4.86,10.35,6.77,18.54,9.89,7.49,2.86,14.21,4.24,23.06,6.06,3.32,.68,7.25,1.42,11.76,2.13,8.35,1.31,20.73,2.84,36.77,3.39-9.17-.09-16.9-.48-22.8-.88-6.67-.45-10.57-.73-16.05-1.6-1.48-.23-.64-.13-13.36-2.57-6.26-1.2-7.93-1.51-10.58-2.21-4.46-1.19-8.02-2.53-10.4-3.51-6.91-2.52-11.93-5.68-15.18-8.06-1.64-1.2-3.98-2.93-6.62-5.73-3.83-4.07-5.58-7.52-7.6-11.49,0,0-2.72-5.38-1.78-8.86,.13-.5,.41-.89,.41-.89,.21-.3,.45-.5,.61-.62Z"/>
      <path class="cls-3" d="M377.99,284.22c-3.74,.51-8.11,.84-12.98,.73-6.29-.14-11.76-.99-16.2-1.99,5.18,.3,10.37,.6,15.55,.89,4.54,.12,9.09,.25,13.63,.37Z"/>
      <g>
        <g>
          <circle class="cls-8" cx="345.78" cy="113.1" r="113.1"/>
          <path class="cls-3" d="M308.88,220.05s36.89,16.96,73.79,0c0,0-36.89,13.76-73.79,0Z"/>
        </g>
        <ellipse class="cls-3" cx="352.5" cy="182.56" rx="5.91" ry="8.52"/>
        <path class="cls-9" d="M300.01,146.45s3.85-.68,8.05,0l-2.36-1.95s-4.99,.57-5.69,1.95Z"/>
        <path class="cls-9" d="M280.07,102.15s1.11,4.98,13.29,9.55c0,0,7.48,3.46,10.52-11.91,0,0-11.21,.83-23.26-11.35,0,0-.35,8.93,16.27,15.78,0,0,.97,.83-.07,1.45,0,0-9.55,1.32-16.75-3.53Z"/>
        <ellipse class="cls-1" cx="308.49" cy="122.41" rx="15.37" ry="24.04"/>
        <path class="cls-9" d="M411.91,102.15s-1.11,4.98-13.29,9.55c0,0-7.48,3.46-10.52-11.91,0,0,11.21,.83,23.26-11.35,0,0,.35,8.93-16.27,15.78,0,0-.97,.83,.07,1.45,0,0,9.55,1.32,16.75-3.53Z"/>
        <path class="cls-9" d="M392.61,146.45s-3.85-.68-8.05,0l2.36-1.95s4.99,.57,5.69,1.95Z"/>
        <ellipse class="cls-1" cx="383.49" cy="122.41" rx="15.37" ry="24.04"/>
        <ellipse class="cls-7" cx="312.07" cy="119.47" rx="12.06" ry="19.23"/>
        <ellipse class="cls-1" cx="305.01" cy="107.06" rx="3.05" ry="4.77"/>
        <ellipse class="cls-7" cx="386.66" cy="119.47" rx="12.23" ry="19.23"/>
        <ellipse class="cls-1" cx="380.44" cy="107.06" rx="3.05" ry="4.77"/>
        <ellipse class="cls-11" cx="294.28" cy="161.8" rx="14.21" ry="3.75"/>
        <ellipse class="cls-11" cx="401.25" cy="161.8" rx="14.21" ry="3.75"/>
      </g>
      <rect class="cls-2" x="14.33" y="55.66" width="283.22" height="181.48" rx="10" ry="10"/>
      <path class="cls-6" d="M320.04,357.99c-22.98,0-45.96,0-68.93,0-82.04,0-164.07,0-246.11,0-.33,0-2.1-.03-3.54-1.46-.9-.9-1.46-2.15-1.46-3.54v-48.04c0-2.76,2.24-5,5-5H320.04c2.76,0,5,2.24,5,5v48.04c0,2.76-2.24,5-5,5Z"/>
      <rect class="cls-2" x="43.76" y="286.68" width="234.43" height="13.27"/>
      <path class="cls-10" d="M87.85,299.95H221.92c-.93-1.65-22.59-38.63-65.72-39.37-28.16-.48-54.46,14.68-68.35,39.37Z"/>
      <rect class="cls-10" x="142.57" y="236.89" width="26.74" height="37.61"/>
    </g>
  </g>
</svg>