<?xml version="1.0" encoding="UTF-8"?>
<svg id="Layer_2" data-name="Layer 2" xmlns="http://www.w3.org/2000/svg" viewBox="0 0 307.27 494.83">
  <defs>
    <style>
      .cls-1 {
        fill: #5fc8d4;
      }

      .cls-2 {
        fill: #51abaf;
      }
    </style>
  </defs>
  <g id="icon-previous-arrow">
    <g>
      <path class="cls-2" d="M300.72,52.21c7.57-10.85,8.68-24.41,2.75-33.72-8.27-12.99-30.01-17.32-46.79-4.82C185.13,85.01,113.57,156.34,42.01,227.67c-1.24,1.06-10.74,9.52-10.32,23.39,.42,13.86,10.39,21.72,11.7,22.71,70.64,71.1,141.29,142.2,211.93,213.3,14.73,12.08,35.65,9.36,45.41-3.44,7.87-10.32,7.63-26.09-1.38-37.84-65.14-65.6-130.28-131.19-195.41-196.79L300.72,52.21Z"/>
      <path class="cls-1" d="M269.05,45.99c7.57-10.85,8.68-24.41,2.75-33.72-8.27-12.99-30.01-17.32-46.79-4.82C153.45,78.78,81.89,150.11,10.33,221.44c-1.24,1.06-10.74,9.52-10.32,23.39,.42,13.86,10.39,21.72,11.7,22.71,70.64,71.1,141.29,142.2,211.93,213.3,14.73,12.08,35.65,9.36,45.41-3.44,7.87-10.32,7.63-26.09-1.38-37.84-65.14-65.6-130.28-131.19-195.41-196.79L269.05,45.99Z"/>
    </g>
  </g>
</svg>