<?xml version="1.0" encoding="UTF-8"?>
<svg id="Layer_2" data-name="Layer 2" xmlns="http://www.w3.org/2000/svg" viewBox="0 0 506.83 465.42">
  <defs>
    <style>
      .cls-1 {
        fill: #86ccae;
      }

      .cls-2 {
        fill: #5fc8d4;
      }

      .cls-3 {
        fill: #51abaf;
      }
    </style>
  </defs>
  <g id="icon-translation-globe">
    <g>
      <g>
        <path class="cls-3" d="M443.79,199.15c-6.07-7.62-12.15-15.24-18.22-22.85-4.63-3.16-10.74-2.77-14.65,.78-3.36,3.05-4.59,7.97-3.09,12.47,5.47,7.8,11.3,15.78,17.51,23.9,6.06,7.93,12.09,15.48,18.05,22.64,.33,.53,3.84,6.07,10.69,6.52,7.47,.5,11.84-5.51,12.07-5.83,13.07-14.26,26.13-28.51,39.2-42.77,2.29-4.02,1.9-8.99-.92-12.41-3.2-3.87-8.91-5.01-13.61-2.55-8.41,8.26-16.81,16.53-25.22,24.79-.41-14.93-3.92-85.66-61.74-143.1C393.6,50.58,343.27,2.69,263.62,.11,183.7-2.47,129.37,39.94,106.93,63.9c-21.78,23.25-33.76,47.91-40.5,66.3-1.63,5.25,.97,10.65,5.3,12.43,5.01,2.06,11.63-1.03,13.29-7.27,6.54-15.21,25.8-54.43,70.19-83.12,46.31-29.93,92.07-30.36,108.42-29.75,12.2,.36,83.08,3.61,134.79,62.48,40.37,45.96,44.68,98.05,45.38,114.19Z"/>
        <path class="cls-3" d="M53.18,181.01c.28-.4,3.2-4.44,8.42-4.51,5.73-.07,8.83,4.7,8.99,4.96,12.44,15.53,24.88,31.06,37.32,46.59,3.05,6.1,.59,13.25-4.7,15.88-4.32,2.15-9.99,1.01-13.62-2.99-5.96-7.69-11.91-15.38-17.87-23.07,6.77,72.85,49.36,135.77,112.15,163.52,61.84,27.33,119.86,10.18,135.87,4.84,.46-.38,4.67-3.72,10.29-2.37,5.58,1.33,7.82,6.15,8.07,6.71,3.66,6.88,14.72,25.48,37.69,36.12,13.93,6.46,26.69,7.42,34.32,7.38-5.67-15.75-11.29-36.54-13.28-61.34-1.12-14.02-.88-26.74,0-37.81,11.54-18.94,23.08-37.88,34.63-56.82,3.72-2.9,8.69-3.62,12.99-1.86,4.71,1.93,7.87,6.55,8.04,11.75-2.05,4.64-4.31,9.39-6.8,14.23-7.89,15.32-16.57,28.49-25.08,39.64-2,16.1-2.89,39.99,3.93,67.51,3.77,15.23,9.03,28.02,14.11,38.15,.25,.51,2.06,4.3,.24,8.09-1.73,3.61-6.02,5.71-10.51,4.95-10.99,.83-29.11,.69-49.48-6.8-33.59-12.36-51.74-36.78-58.14-46.39-13.85,4.65-87.74,27.92-162.71-11.69C55.96,341.74,48.86,222.47,48.62,216.87c-7.13,7.43-14.26,14.87-21.38,22.3-4.46,3.47-10.76,3.12-14.64-.66-3.57-3.48-4.32-9.13-1.71-13.6,14.1-14.63,28.2-29.26,42.29-43.89Z"/>
        <path class="cls-2" d="M434.46,203.67c-6.07-7.62-12.15-15.24-18.22-22.85-4.63-3.16-10.74-2.77-14.65,.78-3.36,3.05-4.59,7.97-3.09,12.47,5.47,7.8,11.3,15.78,17.51,23.9,6.06,7.93,12.09,15.48,18.05,22.64,.33,.53,3.84,6.07,10.69,6.52,7.47,.5,11.84-5.51,12.07-5.83,13.07-14.26,26.13-28.51,39.2-42.77,2.29-4.02,1.9-8.99-.92-12.41-3.2-3.87-8.91-5.01-13.61-2.55-8.41,8.26-16.81,16.53-25.22,24.79-.41-14.93-3.92-85.66-61.74-143.1-10.24-10.18-60.58-58.07-140.22-60.64C174.37,2.05,120.04,44.46,97.59,68.42c-21.78,23.25-33.76,47.91-40.5,66.3-1.63,5.25,.97,10.65,5.3,12.43,5.01,2.06,11.63-1.03,13.29-7.27,6.54-15.21,25.8-54.43,70.19-83.12,46.31-29.93,92.07-30.36,108.42-29.75,12.2,.36,83.08,3.61,134.79,62.48,40.37,45.96,44.68,98.05,45.38,114.19Z"/>
        <path class="cls-2" d="M43.85,185.53c.28-.4,3.2-4.44,8.42-4.51,5.73-.07,8.83,4.7,8.99,4.96,12.44,15.53,24.88,31.06,37.32,46.59,3.05,6.1,.59,13.25-4.7,15.88-4.32,2.15-9.99,1.01-13.62-2.99-5.96-7.69-11.91-15.38-17.87-23.07,6.77,72.85,49.36,135.77,112.15,163.52,61.84,27.33,119.86,10.18,135.87,4.84,.46-.38,4.67-3.72,10.29-2.37,5.58,1.33,7.82,6.15,8.07,6.71,3.66,6.88,14.72,25.48,37.69,36.12,13.93,6.46,26.69,7.42,34.32,7.38-5.67-15.75-11.29-36.54-13.28-61.34-1.12-14.02-.88-26.74,0-37.81,11.54-18.94,23.08-37.88,34.63-56.82,3.72-2.9,8.69-3.62,12.99-1.86,4.71,1.93,7.87,6.55,8.04,11.75-2.05,4.64-4.31,9.39-6.8,14.23-7.89,15.32-16.57,28.49-25.08,39.64-2,16.1-2.89,39.99,3.93,67.51,3.77,15.23,9.03,28.02,14.11,38.15,.25,.51,2.06,4.3,.24,8.09-1.73,3.61-6.02,5.71-10.51,4.95-10.99,.83-29.11,.69-49.48-6.8-33.59-12.36-51.74-36.78-58.14-46.39-13.85,4.65-87.74,27.92-162.71-11.69C46.63,346.27,39.52,226.99,39.29,221.39c-7.13,7.43-14.26,14.87-21.38,22.3-4.46,3.47-10.76,3.12-14.64-.66-3.57-3.48-4.32-9.13-1.71-13.6,14.1-14.63,28.2-29.26,42.29-43.89Z"/>
      </g>
      <g>
        <g>
          <circle class="cls-3" cx="258.39" cy="212.26" r="130.37"/>
          <circle class="cls-2" cx="245.82" cy="218.45" r="130.37"/>
        </g>
        <path class="cls-1" d="M179.63,129.61c-4.13,3.53-8.81,8.08-13.43,13.82-5.91,7.34-9.98,14.43-12.77,20.24,1.28,1.16,3.21,2.5,5.39,2.3,5.58-.53,6.28-10.59,13.52-14.75,2.78-1.6,7.25-2.75,14.62-.65-.63,15.92-1.25,31.85-1.88,47.77,4.17,10.16,5.87,13.59,6.22,13.47,.57-.2-2.49-9.51-1.25-10.02,.44-.18,1.08,.88,3.76,3.44,1.93,1.84,2.48,2.14,3.13,2.82,2.5,2.6,2.26,6.41,2.39,9.63,.17,3.97,.52,15.04,5.43,17.3,4.33,1.99,9.81-3.11,12.89-.34,1.29,1.16,.84,2.52,1.7,4.07,1.4,2.53,5.77,4.61,18.44,3.03,.75,1.04,5.53,7.46,13.44,7.82,2.86,.13,5.23-.57,6.83-1.23-1.9,3.14-4.1,7.53-5.58,13.08-.97,3.62-1.41,6.92-1.59,9.68,.29,1.09,2.39,8.4,9.44,11.42,3.19,1.37,6.14,1.33,7.85,1.15-2.79,10.31-5.59,20.61-8.38,30.92,.31,1.63,1.4,2.95,2.8,3.33,1.96,.53,4.36-.82,5.06-3.33,22.16-18.05,27.23-28.99,27.55-35.73,.23-5.09-1.89-15.38,1.74-22.84,.41-.85,1.72-3.34,.7-5.06-1.05-1.76-4.08-1.9-6.45-1.74,0-.56-.07-6.04-4.71-9.42-5.22-3.81-11.23-1.3-11.49-1.19-6.46,1.22-12.93,2.45-19.39,3.67-1.92,1.31-4.29,2.61-5.46,1.78-1.35-.96,.17-3.86-.94-6.57-.79-1.93-3.04-4.07-9.32-5.16,2.54-2.11,2.9-3.58,2.75-4.54-.45-2.89-5.79-2.92-8.45-6.89-1.8-2.68-1.6-6.01-1.11-8.49,5.24-1.05,10.48-2.1,15.72-3.14l8.91,13.62c3.73-24.56,11.5-33.24,18.3-36.41,2.94-1.37,7.81-2.69,9.38-6.87,2.46-6.56-5.04-15.28-5-15.3,.05-.03,10.27,19.03,12.51,18.14,.75-.29,.52-2.78,0-5.63-.04-2.81-.53-14.67-9.8-23.56-4.27-4.1-8.87-6.09-11.89-7.09-1.21,2.37-2.45,5.16-3.55,8.34-1.3,3.76-2.1,7.23-2.61,10.22-.82-2.04-2.54-5.51-5.94-8.76-3.93-3.75-8.12-5.28-10.3-5.92,1.79-6.57,4.73-9.51,7.18-10.98,3.49-2.09,6.57-1.53,8.76-4.17,2.11-2.54,1.88-6.22,1.36-8.96,.35,1.99,1.57,7.27,6.15,11.88,5.41,5.43,11.9,6.29,13.76,6.46-.28-1.78-3.1-18.19-18.77-26.48-14.83-7.85-29.14-2.08-31.01-1.29-18.86,4.37-37.73,8.73-56.59,13.1Z"/>
      </g>
    </g>
  </g>
</svg>