<?xml version="1.0" encoding="UTF-8"?>
<svg id="Layer_2" data-name="Layer 2" xmlns="http://www.w3.org/2000/svg" viewBox="0 0 504.51 381.29">
  <defs>
    <style>
      .cls-1 {
        fill: #eaeaeb;
      }

      .cls-2 {
        fill: #fff;
      }

      .cls-3 {
        fill: #818285;
      }

      .cls-4 {
        fill: #cacfcd;
      }

      .cls-5 {
        fill: #c8cecc;
      }

      .cls-6 {
        fill: #231f20;
      }

      .cls-7 {
        fill: #595a5c;
      }

      .cls-8 {
        fill: #60c8d4;
      }

      .cls-9 {
        fill: #5fc8d4;
      }

      .cls-10 {
        fill: #817dbb;
      }

      .cls-11 {
        fill: #28292d;
      }

      .cls-12 {
        fill: none;
        stroke: #5056a5;
        stroke-miterlimit: 10;
        stroke-width: 2px;
      }

      .cls-13 {
        fill: #f7b1c4;
        opacity: .57;
      }
    </style>
  </defs>
  <g id="icon-teaching">
    <g>
      <g>
        <g>
          <path class="cls-11" d="M83.11,57.71H421.4c13.8,0,25,11.2,25,25v216.39H58.11V82.71c0-13.8,11.2-25,25-25Z"/>
          <path class="cls-1" d="M57.52,299.1L.3,365.63c-.14,.38-.62,1.79,.03,3.27,.72,1.65,2.53,2.7,4.56,2.63H499.78c1.84,.2,3.59-.75,4.35-2.34,.63-1.34,.47-2.95-.41-4.21-19.3-21.96-38.6-43.91-57.91-65.87H57.52Z"/>
          <rect class="cls-5" x="190.45" y="350.04" width="118.91" height="14.86" rx="5" ry="5"/>
          <g>
            <polygon class="cls-4" points="73.92 304.02 42.4 344.55 462.11 344.63 431.69 304.02 73.92 304.02"/>
            <g>
              <polygon class="cls-11" points="81.74 306.72 79.58 309.7 102.6 309.7 104.59 306.72 81.74 306.72"/>
              <polygon class="cls-11" points="78.4 310.96 101.79 310.96 99.26 315.03 75.6 315.03 78.4 310.96"/>
              <polygon class="cls-11" points="73.35 316.83 111.45 316.83 108.92 321.44 70.91 320.9 73.35 316.83"/>
              <polygon class="cls-11" points="69.19 322.97 66.03 327.58 122.65 327.94 126.26 322.97 69.19 322.97"/>
              <polygon class="cls-11" points="64.77 329.12 132.85 329.12 130.33 334.8 60.61 334.44 64.77 329.12"/>
              <polygon class="cls-11" points="59.62 335.98 84.99 335.98 81.56 342.03 55.29 342.03 59.62 335.98"/>
              <polygon class="cls-11" points="110.37 310.06 107.48 315.03 130.96 315.03 133.76 310.06 110.37 310.06"/>
              <polygon class="cls-11" points="119.67 316.83 143.87 316.83 141.7 321.44 116.96 321.44 119.67 316.83"/>
              <polygon class="cls-11" points="92.67 335.98 118.41 335.98 114.97 342.03 88.7 342.03 92.67 335.98"/>
              <polygon class="cls-11" points="144.32 306.72 166.72 306.72 163.74 309.7 142.33 309.7 144.32 306.72"/>
              <polygon class="cls-11" points="139.45 310.96 162.83 310.96 161.39 315.03 137.37 315.03 139.45 310.96"/>
              <polygon class="cls-11" points="149.56 316.83 174.03 316.83 172.4 321.44 147.84 320.81 149.56 316.83"/>
              <polygon class="cls-11" points="133.76 322.97 159.67 322.97 157.32 327.94 131.5 327.94 133.76 322.97"/>
              <polygon class="cls-11" points="142.33 328.66 166.72 328.66 164.55 334.8 138.99 334.8 142.33 328.66"/>
              <polygon class="cls-11" points="125.81 335.98 151 335.98 148.2 342.03 121.75 342.03 125.81 335.98"/>
              <polygon class="cls-11" points="173.25 306.72 195.77 306.72 193.98 309.7 171.33 309.7 173.25 306.72"/>
              <polygon class="cls-11" points="201.79 306.72 224.82 306.72 223.03 310.06 200.12 309.7 201.79 306.72"/>
              <polygon class="cls-11" points="242.48 306.72 266.03 306.72 265.01 309.7 241.72 309.7 242.48 306.72"/>
              <polygon class="cls-11" points="294.96 306.72 271.41 306.72 270.77 309.7 293.8 309.7 294.96 306.72"/>
              <polygon class="cls-11" points="301.41 306.54 300.64 309.7 323.28 309.7 323.74 306.54 301.41 306.54"/>
              <polygon class="cls-11" points="342.35 306.54 365.03 306.72 364.37 309.7 341.29 309.7 342.35 306.54"/>
              <polygon class="cls-11" points="371.93 306.54 394.34 306.54 393.41 309.7 370.6 309.7 371.93 306.54"/>
              <polygon class="cls-11" points="400.97 306.54 422.98 306.54 423.78 309.7 400.17 309.7 400.97 306.54"/>
              <polygon class="cls-11" points="377.34 338.93 398.4 338.93 399.03 342.49 378.29 342.49 377.34 338.93"/>
              <polygon class="cls-11" points="401.55 338.93 422.61 338.93 423.78 342.49 402.59 342.49 401.55 338.93"/>
              <polygon class="cls-11" points="426.69 338.93 447.23 338.93 448.07 341.76 427.74 341.76 426.69 338.93"/>
              <polygon class="cls-11" points="400.17 335.47 420.2 335.47 420.93 338.4 401.23 338.2 400.17 335.47"/>
              <polygon class="cls-11" points="442.44 334.53 439.01 328.63 398.59 328.63 401.55 334.53 442.44 334.53"/>
              <polygon class="cls-11" points="437.38 327.75 434.43 322.73 385.56 322.73 388.19 327.75 437.38 327.75"/>
              <polygon class="cls-11" points="432.49 321.06 429.85 316.48 394.34 316.48 397.01 321.06 432.49 321.06"/>
              <polygon class="cls-11" points="427.83 314.81 425.45 310.76 377.81 310.76 379.75 314.81 427.83 314.81"/>
              <polygon class="cls-11" points="346.29 310.76 370.6 310.76 372 314.81 347.79 314.81 346.29 310.76"/>
              <polygon class="cls-11" points="362.48 316.74 386.78 316.74 388.19 320.8 363.97 320.8 362.48 316.74"/>
              <polygon class="cls-11" points="366.1 329.56 390.41 329.56 391.81 333.61 367.6 333.61 366.1 329.56"/>
              <polygon class="cls-11" points="352.54 323.15 376.85 323.15 378.25 327.2 354.04 327.2 352.54 323.15"/>
              <polygon class="cls-11" points="316.27 310.76 340.57 310.76 341.98 314.81 317.77 314.81 316.27 310.76"/>
              <polygon class="cls-11" points="331.85 317.01 356.16 317.01 357.56 321.06 333.35 321.06 331.85 317.01"/>
              <polygon class="cls-11" points="334.14 329.56 358.45 329.56 359.85 333.61 335.64 333.61 334.14 329.56"/>
              <polygon class="cls-11" points="344.71 336.9 369.01 336.9 370.42 340.95 346.21 340.95 344.71 336.9"/>
              <polygon class="cls-11" points="321.64 323.28 345.95 323.28 347.35 327.33 323.14 327.33 321.64 323.28"/>
              <polygon class="cls-11" points="158.01 336.9 335.98 336.07 337.48 340.95 156.14 340.95 158.01 336.9"/>
              <polygon class="cls-11" points="169.05 310.96 192.32 310.96 190.87 315.03 167.48 314.54 169.05 310.96"/>
              <polygon class="cls-11" points="179.9 316.83 204.5 316.83 203.05 321.44 178.81 321.44 179.9 316.83"/>
              <polygon class="cls-11" points="165.91 322.97 190.51 322.97 188.94 327.94 164.1 327.45 165.91 322.97"/>
              <polygon class="cls-11" points="174.03 328.66 199.19 328.66 197.5 334.8 171.33 334.8 174.03 328.66"/>
              <polygon class="cls-11" points="198.23 310.76 221.83 310.96 221.26 315.03 197.52 314.81 198.23 310.76"/>
              <polygon class="cls-11" points="228.52 310.76 251.83 310.76 251.26 315.03 227.66 314.81 228.52 310.76"/>
              <polygon class="cls-11" points="257.8 310.76 281.26 310.96 281.26 315.03 257.8 315.03 257.8 310.76"/>
              <rect class="cls-11" x="287.51" y="310.96" width="23.46" height="4.06"/>
              <polygon class="cls-11" points="325.75 316.83 301.87 316.83 302.58 321.06 326.89 321.06 325.75 316.83"/>
              <polygon class="cls-11" points="314.95 322.97 290.64 322.97 290.64 327.33 316.27 327.94 314.95 322.97"/>
              <polygon class="cls-11" points="301.3 329.56 326.89 329.56 327.6 334.8 301.87 334.8 301.3 329.56"/>
              <polygon class="cls-11" points="271.73 316.83 294.96 316.83 295.76 321.06 272.3 321.06 271.73 316.83"/>
              <polygon class="cls-11" points="259.65 322.97 283.75 322.97 283.75 327.33 259.65 327.94 259.65 322.97"/>
              <rect class="cls-11" x="269.53" y="329.56" width="25.43" height="5.25"/>
              <polygon class="cls-11" points="240.88 316.83 265.34 316.83 265.34 321.06 240.88 321.44 240.88 316.83"/>
              <rect class="cls-11" x="227.66" y="322.97" width="25.14" height="4.97"/>
              <rect class="cls-11" x="237.04" y="329.56" width="25.73" height="5.25"/>
              <polygon class="cls-11" points="209.68 316.83 234.49 316.83 234.49 321.06 209.68 321.44 209.68 316.83"/>
              <polygon class="cls-11" points="196.95 322.97 221.41 322.97 220.7 327.94 195.77 327.94 196.95 322.97"/>
              <polygon class="cls-11" points="205.34 329.56 230.65 329.12 230.08 334.8 204.5 334.8 205.34 329.56"/>
            </g>
          </g>
          <path class="cls-9" d="M96.75,71.9H411c13.8,0,25,11.2,25,25v188.49H71.75V96.9c0-13.8,11.2-25,25-25Z"/>
        </g>
        <path class="cls-11" d="M3.5,371.55H501.25c-2.53,1.77-5.61,3.6-9.24,5.2-9.29,4.07-17.86,4.66-23.45,4.53H34.7c-4.77-.54-10.59-1.59-17-3.67-5.6-1.82-10.35-3.99-14.2-6.05Z"/>
      </g>
      <path class="cls-7" d="M215.43,148.75c-2.84-3.71-7.6-5.25-11.76-3.87-5.23,1.73-6.7,7.13-6.8,7.5,6.45,12.84,13.71,26.28,21.87,40.16,8.08,13.74,16.23,26.5,24.23,38.27,4.94,3.59,11.46,4.08,16.69,1.25,5.84-3.15,9.07-9.89,7.89-16.66-4.23-6.28-41.17-52.33-52.13-66.65Z"/>
      <path class="cls-7" d="M254.75,233.81c-6.48,.66-12.7-2.86-15.44-8.73-2.8-5.99-1.39-13.17,3.48-17.7,15.48-9.34,30.97-18.68,46.45-28.02,.7-.09,8.39-.97,13.84,4.99,4.96,5.43,4.06,12.17,3.93,13.06-5.56,5.63-12.35,11.74-20.49,17.76-11.47,8.47-22.49,14.43-31.76,18.63Z"/>
      <path class="cls-7" d="M296.17,203.68c-6.64-.09-12.19-4.78-13.26-10.85-.91-5.15,1.55-10.53,6.23-13.49,11.5-2.29,23-4.58,34.51-6.87,.66-.13,1.08,0,1.34,.14,1.28,.71,1.55,3.39,.47,6.67-.51,1.47-1.14,2.94-1.91,4.4-6.81,12.98-20.68,18.08-27.36,20Z"/>
      <path class="cls-7" d="M146.77,159.21c2.14-4.16,1.49-9.11-1.53-12.28-3.8-3.99-9.31-3.01-9.69-2.93-8.84,11.32-17.88,23.64-26.93,36.96-8.96,13.19-17,26.01-24.22,38.28-1.12,6,1.22,12.1,6.01,15.62,5.35,3.93,12.82,3.96,18.44,0,3.86-6.51,29.67-59.61,37.92-75.64Z"/>
      <g>
        <path class="cls-7" d="M134.02,142.75c1.55-2.02,15.55-19.69,39.82-19.63,24.12,.06,38.01,17.57,39.58,19.62,7.21,20.78,14.28,46.64,18.48,76.79,3.43,24.64,4.2,46.88,3.72,65.85-22.05,.08-44.1,.12-66.16,.12-19.37,0-38.74-.04-58.1-.12-.58-19.5,.19-42.91,4.12-69.06,4.36-29.03,11.45-53.81,18.55-73.58Z"/>
        <g>
          <path class="cls-3" d="M134.02,142.75c-.57-.16-7.45,20.4-12.82,43.52-2.44,10.53-4.31,20.59-5.73,30.05-2.68,17.83-3.46,31.55-3.69,36.31-.8,15.97-.54,32.75,.01,32.76,.74,.02-.25-29.78,5.25-68,6.3-43.75,17.65-74.46,16.98-74.65Z"/>
          <path class="cls-3" d="M213.59,143.21c.57-.16,6.89,19.63,12.26,42.75,2.44,10.53,4.31,20.59,5.73,30.05,2.66,17.67,3.44,31.3,3.69,36.31,.81,16.17,.55,33.06,0,33.07-.74,.02,.24-29.75-5.26-68.31-6.15-43.09-17.05-73.7-16.42-73.88Z"/>
        </g>
      </g>
      <g>
        <path class="cls-10" d="M130.57,178.37h45.96v67.36h-45.96c-2.76,0-5-2.24-5-5v-57.36c0-2.76,2.24-5,5-5Z"/>
        <line class="cls-12" x1="133.35" y1="181.05" x2="133.35" y2="241"/>
      </g>
      <path class="cls-7" d="M92.54,239.11c-6.05-2.42-9.93-8.41-9.65-14.88,.29-6.6,4.86-12.32,11.27-14.09,18.05-1.12,36.1-2.23,54.14-3.35,.66,.24,7.89,3.02,9.96,10.83,1.88,7.11-2.03,12.67-2.56,13.4-7.53,2.42-16.38,4.7-26.38,6.26-14.09,2.21-26.61,2.39-36.78,1.82Z"/>
      <path class="cls-7" d="M155.7,231.02c-6.64,0-12.26-4.6-13.42-10.65-.99-5.14,1.4-10.55,6.03-13.58,11.47-2.46,22.93-4.93,34.4-7.39,.66-.14,1.08-.02,1.34,.12,1.29,.69,1.6,3.37,.57,6.66-.49,1.48-1.1,2.96-1.84,4.43-6.61,13.08-20.41,18.39-27.06,20.41Z"/>
      <path class="cls-3" d="M120.45,208.52c9.28-.57,18.57-1.15,27.85-1.72-4.67-.21-9.89-.2-15.56,.22-4.43,.33-8.54,.86-12.29,1.5Z"/>
      <path class="cls-3" d="M125.57,237.83c2.15-.33,5.22-.84,8.89-1.55,6.62-1.28,12.55-2.42,19.56-4.73,3.36-1.11,7.92-2.8,13.2-5.35-4.99,2.69-11.47,5.63-19.33,7.9-8.62,2.49-16.31,3.43-22.32,3.73Z"/>
      <path class="cls-3" d="M178.28,200.36c.89-.19,1.62-.35,2.1-.45,2.74-.58,3.18-.66,3.65-.38,.94,.57,1.11,2.03,1.17,2.52,.06,.55,.01,1.03-.05,1.6-.03,.33-.11,.9-.33,1.77-.2,.76-.52,1.83-1.1,3.1,.78-1.14,1.77-2.99,1.79-5.33,0-.65,.04-3.46-1.37-4.09-.44-.19-1.07-.03-2.34,.31-.66,.18-1.86,.5-3.54,.95Z"/>
      <g>
        <g>
          <circle class="cls-7" cx="173.46" cy="76.87" r="76.87"/>
          <path class="cls-3" d="M148.49,149.56s25.08,11.53,50.15,0c0,0-25.08,9.35-50.15,0Z"/>
        </g>
        <path class="cls-2" d="M147.87,115.37s19.99,6.77,50.84,0c0,0-11.74,18.42-25.42,18.09,0,0-15,.41-25.42-18.09Z"/>
        <g>
          <path class="cls-8" d="M143.47,98.36s2.53-.44,5.29,0l-1.55-1.28s-3.28,.38-3.74,1.28Z"/>
          <path class="cls-8" d="M130.38,69.27s.73,3.27,8.73,6.28c0,0,4.91,2.27,6.91-7.82,0,0-7.37,.55-15.28-7.46,0,0-.23,5.87,10.69,10.37,0,0,.64,.55-.05,.95,0,0-6.28,.86-11-2.32Z"/>
          <ellipse class="cls-2" cx="149.05" cy="82.57" rx="10.1" ry="15.79"/>
          <path class="cls-8" d="M216.98,69.27s-.73,3.27-8.73,6.28c0,0-4.91,2.27-6.91-7.82,0,0,7.37,.55,15.28-7.46,0,0,.23,5.87-10.69,10.37,0,0-.64,.55,.05,.95,0,0,6.28,.86,11-2.32Z"/>
          <path class="cls-8" d="M204.31,98.36s-2.53-.44-5.29,0l1.55-1.28s3.28,.38,3.74,1.28Z"/>
          <ellipse class="cls-2" cx="198.31" cy="82.57" rx="10.1" ry="15.79"/>
          <ellipse class="cls-6" cx="149.26" cy="85.73" rx="7.92" ry="12.63"/>
          <ellipse class="cls-2" cx="144.5" cy="76.24" rx="2.01" ry="3.14"/>
          <ellipse class="cls-6" cx="198.26" cy="85.73" rx="8.03" ry="12.63"/>
          <ellipse class="cls-2" cx="194.05" cy="76.24" rx="2.01" ry="3.14"/>
          <ellipse class="cls-13" cx="139.71" cy="108.45" rx="9.33" ry="2.46"/>
          <ellipse class="cls-13" cx="209.98" cy="108.45" rx="9.33" ry="2.46"/>
        </g>
      </g>
    </g>
  </g>
</svg>