<?xml version="1.0" encoding="UTF-8"?>
<svg id="Layer_2" data-name="Layer 2" xmlns="http://www.w3.org/2000/svg" viewBox="0 0 485.55 493.3">
  <defs>
    <style>
      .cls-1 {
        fill: #fff;
      }

      .cls-2 {
        fill: #ed1c24;
      }

      .cls-3 {
        fill: #807878;
      }

      .cls-4 {
        fill: #818285;
      }

      .cls-5 {
        fill: #231f20;
      }

      .cls-6 {
        fill: #595a5c;
      }

      .cls-7 {
        fill: #60c8d4;
      }

      .cls-8 {
        fill: none;
        stroke: #818285;
        stroke-miterlimit: 10;
        stroke-width: 2px;
      }

      .cls-9 {
        fill: #f7b1c4;
        opacity: .57;
      }
    </style>
  </defs>
  <g id="icon-watch-youtube">
    <path class="cls-6" d="M199.38,413.53c12.88-.45,24.12-9.02,27.92-21.24,3.88-12.48-.8-26.19-11.56-33.76-32.85-14.15-65.71-28.31-98.56-42.46-1.4,0-16.71,.34-25.78,13.49-8.26,11.98-4.7,24.95-4.2,26.66,12.41,9.54,27.35,19.7,44.93,29.31,24.76,13.53,47.94,22.26,67.25,28.01Z"/>
    <path class="cls-6" d="M87.2,356.21c12.35,4.46,25.91-.35,32.12-10.84,5.28-8.91,4.46-20.57-2.13-29.31-19.7-12.26-39.4-24.51-59.1-36.77-1.13-.7-1.99-.76-2.57-.67-2.87,.41-5.23,5.2-5.52,12.02-.07,3.08,.07,6.24,.47,9.47,3.56,28.77,25.69,47.89,36.73,56.1Z"/>
    <path class="cls-6" d="M419.56,294.3c9,2.1,15.65,9.43,16.55,18.05,1.14,10.83-7.4,17.89-8,18.36-28.39-1.19-58.54-3.33-90.22-6.76-31.36-3.4-60.98-7.7-88.73-12.55-10.49-6-16.67-17.35-15.84-29.08,.93-13.1,10.46-24.39,23.63-27.78,14.77,2.52,127.87,31.66,162.6,39.77Z"/>
    <g>
      <path class="cls-6" d="M289.56,262.16c2.64-3.18,26.55-30.93,67.99-30.84,41.19,.09,64.9,27.61,67.58,30.84,12.26,32.53,24.37,73.17,31.55,120.67,6.27,41.52,7.34,78.76,6.13,110-70.56,.16-141.13,.32-211.69,.47-1.44-32.08-.44-71.33,6.76-115.52,7.46-45.73,19.59-84.68,31.68-115.62Z"/>
      <g>
        <path class="cls-4" d="M289.56,262.16c-.97-.25-12.73,32.06-21.88,68.39-4.17,16.55-7.36,32.35-9.79,47.23-1.7,10.42-4.71,30.79-6.31,57.05-1.76,29.07-1.37,58.44-.46,58.47,1.18,.03-.88-49.5,9.45-113.84,11.02-68.58,30.18-116.99,28.99-117.31Z"/>
        <path class="cls-4" d="M425.44,262.88c.97-.25,11.77,30.85,20.93,67.18,4.17,16.55,7.36,32.35,9.79,47.23,1.7,10.42,4.71,30.79,6.31,57.05,1.76,29.07,1.37,58.44,.46,58.47-1.18,.03,.88-49.5-9.45-113.84-11.02-68.58-29.23-115.78-28.03-116.09Z"/>
      </g>
    </g>
    <g>
      <g>
        <ellipse class="cls-6" cx="344.29" cy="147.77" rx="141.26" ry="147.77"/>
        <path class="cls-4" d="M298.21,287.5s46.08,22.16,92.16,0c0,0-46.08,17.98-92.16,0Z"/>
      </g>
      <path class="cls-8" d="M306.15,228.61c1.34,13.48,7.47,19.4,9.4,21.07,12.11,10.52,35.91,7.67,55.06-11.24"/>
      <g>
        <path class="cls-7" d="M286.57,191.17s4.81-.88,10.06,0l-2.95-2.55s-6.23,.75-7.11,2.55Z"/>
        <path class="cls-7" d="M261.66,133.3s1.38,6.51,16.6,12.48c0,0,9.34,4.52,13.14-15.56,0,0-14.01,1.09-29.05-14.83,0,0-.43,11.67,20.32,20.62,0,0,1.21,1.09-.09,1.9,0,0-11.93,1.72-20.92-4.61Z"/>
        <ellipse class="cls-1" cx="297.16" cy="159.76" rx="19.2" ry="31.41"/>
        <path class="cls-7" d="M426.32,133.3s-1.38,6.51-16.6,12.48c0,0-9.34,4.52-13.14-15.56,0,0,14.01,1.09,29.05-14.83,0,0,.43,11.67-20.32,20.62,0,0-1.21,1.09,.09,1.9,0,0,11.93,1.72,20.92-4.61Z"/>
        <path class="cls-7" d="M402.22,191.17s-4.81-.88-10.06,0l2.95-2.55s6.23,.75,7.11,2.55Z"/>
        <ellipse class="cls-1" cx="390.83" cy="159.76" rx="19.2" ry="31.41"/>
        <ellipse class="cls-5" cx="297.56" cy="166.05" rx="15.06" ry="25.12"/>
        <ellipse class="cls-1" cx="288.51" cy="147.17" rx="3.81" ry="6.24"/>
        <ellipse class="cls-5" cx="390.72" cy="166.05" rx="15.27" ry="25.12"/>
        <ellipse class="cls-1" cx="382.71" cy="147.17" rx="3.81" ry="6.24"/>
        <ellipse class="cls-9" cx="279.41" cy="211.23" rx="17.75" ry="4.9"/>
        <ellipse class="cls-9" cx="413.01" cy="211.23" rx="17.75" ry="4.9"/>
      </g>
    </g>
    <path class="cls-6" d="M339.62,307.54c8.72-3.06,18.26-.45,23.65,6.33,6.78,8.53,3.36,19.06,3.12,19.79-24.59,14.25-51.17,28.64-79.73,42.76-28.27,13.98-55.57,26.27-81.58,37.08-12.07,.58-23.38-5.67-28.98-16.02-6.25-11.55-4.28-26.19,5.01-36.13,13.81-5.8,124.86-41.99,158.51-53.81Z"/>
    <g>
      <path class="cls-3" d="M1.21,285.66l90.83-83.51c.85-.69,2.97-2.24,6.06-2.76,3.17-.53,5.57,.34,6.51,.74,21.87,11.96,43.74,23.92,65.6,35.88,.52,.45,2,1.87,2.42,4.31,.49,2.9-.86,5.21-1.21,5.77-28.15,28.58-56.31,57.15-84.46,85.73-1.08,1.46-3.28,4.04-6.9,5.94-2.33,1.23-4.46,1.75-5.95,2-23.67-14.27-47.33-28.53-71-42.8-.55-.48-3.14-2.84-3.12-6.74,0-2.06,.74-3.69,1.21-4.56Z"/>
      <path class="cls-2" d="M9.91,283.93l81.76-75.17c.77-.62,2.67-2.02,5.45-2.48,2.86-.47,5.01,.3,5.86,.67,19.68,10.77,39.37,21.53,59.05,32.3,.47,.41,1.8,1.68,2.18,3.88,.45,2.61-.77,4.69-1.09,5.19-25.34,25.72-50.68,51.44-76.03,77.16-.97,1.31-2.96,3.63-6.21,5.34-2.1,1.1-4.02,1.58-5.36,1.8-21.3-12.84-42.61-25.68-63.91-38.52-.49-.43-2.82-2.56-2.81-6.07,0-1.85,.67-3.32,1.09-4.11Z"/>
      <polygon class="cls-1" points="68.18 267.6 89.25 281.09 94.08 255.36 68.18 267.6"/>
    </g>
    <path class="cls-6" d="M129.56,271.83c12.89,2.52,25.55-4.29,30.09-15.61,3.86-9.61,1.27-21.01-6.57-28.64-21.34-9.11-42.67-18.23-64.01-27.34-1.23-.52-2.08-.44-2.64-.27-2.77,.85-4.37,5.94-3.62,12.72,.4,3.05,1.02,6.16,1.91,9.29,7.9,27.89,32.68,43.42,44.85,49.85Z"/>
    <path class="cls-6" d="M249.17,311.4c12.66-2.41,22.46-12.59,24.36-25.25,1.93-12.93-4.78-25.76-16.57-31.61-34.63-8.98-69.25-17.97-103.88-26.95-1.38,.22-16.47,2.88-23.43,17.26-6.34,13.09-.85,25.38-.09,26.99,13.71,7.54,30.03,15.31,48.87,22.13,26.53,9.61,50.77,14.7,70.74,17.44Z"/>
    <path class="cls-4" d="M366.39,333.66c.21-.57,3.84-11.03-3.12-19.79-4.71-5.93-12.42-8.74-19.94-7.28,9.7-2.1,19.19,2.12,23.14,9.78,4.1,7.96,.43,16.19-.08,17.29Z"/>
    <path class="cls-4" d="M283.76,377.85l56.56-29.46c-8.65,5.49-18.27,11.09-28.85,16.55-9.67,4.99-18.96,9.26-27.71,12.91Z"/>
    <path class="cls-4" d="M286.9,325.37l42.35-14.24c-7.15,1.73-14.86,3.91-22.99,6.7-6.99,2.4-13.44,4.95-19.35,7.54Z"/>
  </g>
</svg>