<?xml version="1.0" encoding="UTF-8"?>
<svg id="Layer_2" data-name="Layer 2" xmlns="http://www.w3.org/2000/svg" viewBox="0 0 451.71 476.26">
  <defs>
    <style>
      .cls-1 {
        fill: #cc9eb2;
      }

      .cls-2 {
        fill: #db4e89;
      }
    </style>
  </defs>
  <g id="icon-thumb-down">
    <g>
      <g>
        <path class="cls-2" d="M409.36,263.64l-115.9-9.12c-4.15-1.92-55.02-26.57-63.37-81.42-6.96-45.71,18.6-92.88,63.78-115.07,35.59-6.47,71.17-12.94,106.76-19.41,10.11,9.49,43.18,42.88,49.91,97.05,8.79,70.75-34.37,120.4-41.17,127.97Z"/>
        <path class="cls-2" d="M329.9,254.88c-13.12,12.2-27.7,27.44-42.18,46.08-15.62,20.1-27.43,39.37-36.31,56.09-.68,11.52-.64,25.17,1.09,40.39,2.16,19,6.35,35.21,10.64,48.03-.12,2.32-.74,8.15-4.91,13.92-4.06,5.61-9.22,8.03-11.38,8.9-3.85,2.79-9.28,5.81-16.18,7.2-23.01,4.64-41.54-13.05-43.8-15.28-6.19-5.97-20.48-21.35-26.6-46.12-5.92-23.95-.97-43.59,1.61-51.82,6.46-18.27,6.28-32.41,5.49-40.42-.68-6.86-1.94-10.38-3.59-13.3-4.86-8.57-13.3-12.12-22.64-16.06-5.36-2.26-13.22-4.98-23.25-6.4-13.34,.93-28.08,1.32-44.01,.75-13.7-.49-26.44-1.62-38.11-3.11-18.03-4.25-30.68-20.41-30.41-38.38,.25-16.72,11.64-31.67,28.11-36.6-15.9-4.43-27.37-17.82-28.73-33.18-1.62-18.3,11.42-36.17,31.04-40.65-12.95-8.7-19.72-23.89-17.21-38.56,2.95-17.22,18.19-30.71,36.82-31.81-2.86-2.34-9.57-8.51-11.68-18.48-2.76-13.08,3.55-27.34,16-36.28,6.05-2.26,12.66-4.28,19.83-5.84,35.78-7.82,67.13-.43,86.58,6.39,18.22-1.06,53.05-.45,90.06,18.13,18.08,9.08,31.74,19.96,41.44,29.16,11.92,10.17,35.34,33.09,47.2,70.16,20.24,63.28-9.34,117.35-14.9,127.1Z"/>
      </g>
      <path class="cls-1" d="M117.87,286.08c-18.47,2.02-33.87,2.41-44.93,2.35-33.23-.19-41.88-4.52-45.46-6.55-4.11-2.33-20.84-11.8-23.61-29.57-2.56-16.43,7.69-34.18,25.56-44.25C13.09,203.69,1.32,190.96,.1,176.75c-1.53-17.84,14.21-30.39,17.32-32.87,6.13-4.89,12.32-7.24,16.43-8.44-1.89-1.27-15.24-10.56-17.1-28.2-1.93-18.34,10.17-30.43,11.77-31.98,9.64-9.32,21.1-10.66,24.55-10.94-2.36-2.05-7.13-6.75-9.68-14.38-3.97-11.9,.44-22.04,1.55-24.43,3.75-7.99,9.7-12.18,13.89-15.05,9.66-6.62,19.33-8.35,25.01-9.13,33.42-4.62,69,4.17,68.89,4.74-.1,.52-29.82-7.19-66.62-1.65-6.3,.95-15.7,2.72-24.74,9.54-3.92,2.96-16.02,12.09-15.99,26.2,0,1.22,.17,11.13,7.54,18.63,7.17,7.3,16.07,7.14,42.08,9.16,7.72,.6,19.41,1.59,33.88,3.12-7.69-.21-19.47-.65-33.87-1.75-30.97-2.35-39.98-5.11-52.1,.95-2.95,1.48-14.62,7.53-19.89,20.69-3.44,8.57-2.51,16.02-2.29,17.59,.15,1.05,2.2,14.22,13.1,22.43,5.34,4.02,10.84,5.37,39.55,6.1,16.76,.43,20.2,.1,31.96,.39,22.58,.55,44.12,2.58,44.09,3.31-.03,.79-25.55,1.02-51.11-.19-13.2-.63-26.43-.7-39.63-1.41-13.29-.71-20.28-1.32-29.35,2.19-4.12,1.59-13.88,5.52-19.49,15.59-.49,.87-2.59,4.75-3.55,10.45-.48,2.83-2.74,18.35,7.11,27.76,4.28,4.09,9.03,5.29,15.32,6.88,11.22,2.84,20.45,1.82,22.36,1.63,10.65-1.09,31.07-.97,73.47,3.64-18.91-.63-35.18-.43-48.01,0-40.03,1.35-48.53,5.03-54.92,10.55-.89,.76-16.51,14.66-13.95,32.71,2.74,19.32,24.2,28.56,28.87,30.57,8.13,3.5,14.25,3.84,42.92,4.36,10.04,.18,23.07,.39,38.39,.56Z"/>
    </g>
  </g>
</svg>