<svg width="369" height="344" viewBox="0 0 369 344" fill="none" xmlns="http://www.w3.org/2000/svg">
<circle cx="160.324" cy="160.324" r="160.324" fill="#FFD600"/>
<path d="M237.203 327.867C234.875 328.214 232.547 328.857 230.217 328.863C202.807 328.94 175.397 328.921 147.467 328.95C129.485 328.94 112.024 328.922 94.5619 328.855C92.5379 328.847 90.5149 328.562 87.9328 327.861C86.786 327.091 86.198 326.865 85.6099 326.639C85.6099 326.639 85.5851 326.648 85.5961 326.12C85.2343 312.85 84.7717 300.109 84.5505 287.365C84.4943 284.127 85.2054 280.876 85.9152 277.819C107.312 288.191 130.094 289.457 153.333 290.882C159.999 290.567 166.168 290.294 172.866 290.008C184.911 288.798 196.591 288.423 207.896 286.172C218.993 283.963 229.708 279.848 240.586 277.083C240.209 290.273 239.989 302.957 239.377 315.623C239.179 319.73 237.957 323.787 237.203 327.867Z" fill="#92614B"/>
<path d="M85.5622 277.63C85.2037 280.875 84.4925 284.127 84.5487 287.365C84.77 300.109 85.2325 312.85 85.6103 326.107C84.8452 323.604 84.0753 320.585 83.2842 317.071C83.3022 303.581 83.3414 290.587 83.7507 277.128C84.6014 276.986 85.0818 277.308 85.5622 277.63Z" fill="#715548"/>
<path d="M85.8022 326.895C86.1969 326.865 86.785 327.091 87.5713 327.569C87.1783 327.598 86.5869 327.374 85.8022 326.895Z" fill="#715548"/>
<path d="M251.549 247.62C248.583 249.491 245.616 251.362 242.217 252.806C241.754 244.963 241.604 237.546 241.739 230.133C241.829 225.21 239.776 223.009 234.773 223.091C225.677 223.241 216.577 223.132 207.478 223.132C197.083 223.131 197.083 223.131 196.977 212.982C196.901 205.777 195.354 204.232 188.074 204.202C171.736 204.133 155.398 204.084 139.06 204.027C131.873 193.766 123.517 184.121 117.712 173.131C98.216 136.221 121.453 94.163 160.537 87.3669C184.042 83.2795 202.967 91.8718 218.396 109.322C218.999 110.003 219.555 110.726 220.686 112.103C235.039 94.3356 253.339 85.2102 276.778 86.6732C277.292 88.6724 277.23 90.218 276.694 91.7584C272.283 91.4125 268.346 91.0717 264.41 90.731C264.329 91.0457 264.248 91.3605 264.167 91.6753C268.514 93.5362 272.861 95.3972 277.279 97.7785C277.3 115.922 277.251 133.546 276.716 151.148C258.392 150.988 251.277 158.057 251.919 175.68C251.818 178.689 251.79 181.224 251.352 184.068C250.717 190.435 250.324 196.494 250.346 202.551C250.355 204.975 251.279 207.395 251.782 210.335C251.701 223.109 251.625 235.365 251.549 247.62Z" fill="#F06262"/>
<path d="M251.622 248.137C251.628 235.364 251.703 223.108 252.209 210.219C253.388 208.712 254.759 207.857 254.785 206.964C254.984 200.195 255.05 193.415 254.796 186.652C254.759 185.651 252.822 184.721 251.764 183.759C251.792 181.223 251.82 178.688 252.144 175.374C255.122 170.766 257.006 165.352 260.686 163.505C265.452 161.113 271.65 161.567 277.481 161.2C280.509 161.371 283.288 161.137 286.529 160.855C303 160.843 319.009 160.88 335.522 160.928C338.353 160.855 340.682 160.771 343.534 160.701C355.917 159.351 364.806 163.004 368.631 175.213C368.693 218.423 368.826 261.632 368.748 304.842C368.735 312.112 364.462 317.183 357.546 320.914C352.982 321.528 349.201 321.983 345.466 322.434C343.863 312.89 343.863 312.89 334.318 312.89C318.182 312.889 302.047 312.89 285.912 312.89C276.563 312.89 276.563 312.89 274.754 322.348C271.215 322.002 267.604 321.65 263.992 321.297C255.64 318.029 251.693 311.889 251.718 302.963C251.769 284.86 251.707 266.757 251.622 248.137ZM311.402 181.952C303.235 181.952 295.065 182.091 286.902 181.895C282.74 181.795 280.708 183.063 280.814 187.561C281.016 196.081 280.979 204.611 280.827 213.134C280.754 217.189 282.366 218.732 286.441 218.697C302.217 218.563 317.995 218.564 333.771 218.698C337.714 218.731 339.63 217.494 339.563 213.317C339.423 204.609 339.454 195.896 339.55 187.187C339.592 183.44 338.08 181.821 334.233 181.907C326.998 182.069 319.756 181.952 311.402 181.952ZM279.614 274.906C279.616 261.005 279.662 247.104 279.57 233.205C279.556 231.098 278.901 228.995 278.543 226.891C277.865 226.884 277.187 226.876 276.508 226.869C276.064 228.447 275.238 230.024 275.232 231.603C275.147 253.473 275.134 275.343 275.248 297.213C275.258 299.106 276.291 300.994 276.849 302.885C277.644 302.808 278.438 302.731 279.232 302.655C280.074 293.823 279.401 284.892 279.614 274.906ZM320.878 234.005C320.878 241.799 320.879 249.593 320.879 257.386C320.879 264.995 320.636 272.613 320.948 280.208C321.253 287.652 319.52 295.319 323.018 302.618C324.363 299.698 325.242 296.732 325.261 293.761C325.387 274.463 325.388 255.163 325.26 235.865C325.24 232.921 324.342 229.983 323.851 227.042C323.208 227.054 322.565 227.067 321.922 227.079C321.574 229.048 321.226 231.016 320.878 234.005ZM344.35 229.057C344.35 253.518 344.35 277.979 344.35 302.44C345.065 302.522 345.78 302.604 346.495 302.686C346.879 300.778 347.583 298.872 347.595 296.962C347.689 282.518 347.647 268.073 347.646 253.629C347.645 246.222 347.705 238.814 347.608 231.408C347.564 228.054 347.421 228.056 344.35 229.057ZM301.922 264.884C301.711 252.263 302.355 239.599 300.826 227.046C297.541 232.261 298.024 298.614 301.922 301.623C301.922 289.747 301.922 277.872 301.922 264.884Z" fill="#73D4CA"/>
<path d="M138.576 204.088C155.399 204.083 171.737 204.132 188.075 204.201C195.355 204.231 196.902 205.776 196.978 212.981C197.084 223.131 197.084 223.13 207.479 223.131C216.577 223.131 225.678 223.24 234.774 223.09C239.777 223.008 241.83 225.209 241.74 230.132C241.605 237.545 241.755 244.962 241.855 252.923C241.843 256.775 241.76 260.081 241.372 264.232C240.912 267.06 240.755 269.043 240.405 271.359C238.307 273.052 236.591 274.957 234.469 275.689C214.478 282.585 193.769 285.594 172.638 286.104C172.558 282.728 172.558 279.852 172.558 276.866C165.392 276.866 159.064 276.866 152.275 276.866C152.275 280.394 152.275 283.504 151.77 286.609C141.489 285.846 131.661 285.491 121.951 284.234C108.7 282.518 95.6283 279.815 83.9148 272.813C83.9148 272.813 84.1226 272.551 84.1656 272.341C83.9707 271.778 83.7327 271.425 83.4946 271.072C83.4411 256.844 83.482 242.614 83.2768 228.388C83.2149 224.093 85.2138 223.037 89.0553 223.085C99.7904 223.22 110.528 223.131 121.265 223.13C123.253 223.13 125.24 223.13 127.945 223.13C127.945 219.823 127.944 217.114 127.945 214.404C127.947 204.295 127.947 204.295 138.576 204.088ZM159.115 223.094C167.255 223.11 175.402 222.928 183.532 223.222C187.812 223.377 189.471 222.145 189.295 217.648C189.115 213.018 187.466 210.733 182.682 210.951C179.728 211.085 176.761 210.907 173.803 210.983C164.789 211.215 155.777 211.501 145.788 211.816C135.549 211.981 134.295 213.456 136.673 222.995C143.744 222.995 150.911 222.995 159.115 223.094Z" fill="#815542"/>
<path d="M286.067 160.904C283.289 161.138 280.51 161.372 277.548 160.799C276.392 158.777 275.42 157.561 274.868 156.871C275.725 154.78 276.465 152.974 277.205 151.169C277.254 133.545 277.303 115.922 277.355 97.3236C277.296 94.8202 277.234 93.2918 277.171 91.7633C277.233 90.2177 277.295 88.6721 277.285 86.6698C277.271 82.6917 277.363 79.1703 277.383 75.6486C277.422 68.8503 278.821 66.5753 285.443 66.4309C301.972 66.0704 318.522 66.0372 335.048 66.4731C341.849 66.6525 343.165 68.8659 343.171 75.7173C343.193 100.393 343.197 125.068 343.187 150.691C343.114 154.654 343.062 157.671 343.01 160.687C340.682 160.771 338.353 160.856 335.472 160.497C333.566 159.237 332.307 158.129 330.842 157.661C327.451 156.578 323.796 156.194 320.543 154.826C312.972 151.642 305.616 151.719 298.081 154.841C295.131 156.063 291.855 156.5 288.9 157.711C287.718 158.196 286.998 159.806 286.067 160.904ZM285.805 103.661C285.805 119.583 285.805 135.505 285.805 152.534C288.794 151.178 290.495 150.581 292.021 149.686C302.662 143.443 313.399 143.633 324.288 148.991C326.393 150.027 328.602 150.855 331.524 152.098C332.454 150.45 334.179 148.809 334.193 147.154C334.373 125.28 334.226 103.405 334.379 81.531C334.413 76.6284 332.242 74.9206 327.691 74.9586C318.223 75.0377 308.753 74.9803 299.284 74.98C285.952 74.9797 285.952 74.9801 285.964 89.1662C285.993 91.5189 286.022 93.8716 285.808 97.0193C285.92 98.9513 286.032 100.883 285.805 103.661Z" fill="#2D2D2D"/>
<path d="M263.995 321.72C267.606 321.65 271.217 322.002 274.756 322.348C276.564 312.89 276.564 312.89 285.913 312.89C302.049 312.89 318.184 312.889 334.319 312.89C343.864 312.89 343.864 312.89 345.468 322.434C349.203 321.983 352.983 321.528 357.229 321.114C358.184 322.622 358.303 324.397 359.225 325.505C364.108 331.369 364.551 336.68 360.247 341.163C357.319 344.213 350.783 344.718 347.15 342.175C342.502 338.922 341.72 333.391 345.423 326.593C346.35 325.686 346.878 325.341 347.406 324.996C347.285 324.746 347.164 324.496 347.042 324.245C346.093 324.646 345.144 325.047 344.194 325.448C321.821 325.448 299.448 325.448 278.615 325.448C278.615 329.698 279.051 333.538 278.51 337.235C277.763 342.332 273.117 344.267 269.14 343.967C266.058 343.735 262.555 340.906 260.425 338.275C257.579 334.761 259.031 330.696 261.443 327.092C262.469 325.559 263.155 323.799 263.995 321.72ZM348.497 331.383C349.224 333.696 349.496 336.361 350.891 338.157C351.486 338.923 355.153 338.534 356.116 337.48C357.311 336.171 358.102 333.167 357.393 331.706C355.433 327.669 352.168 327.741 348.497 331.383ZM264.48 335.518C266.369 336.626 268.677 338.986 270.044 338.531C271.845 337.932 273.862 335.172 273.968 333.241C274.047 331.826 271.357 329.217 269.626 328.956C265.874 328.39 264.026 330.893 264.48 335.518Z" fill="#323230"/>
<path d="M83.7194 273.147C95.6311 279.815 108.702 282.518 121.954 284.234C131.664 285.492 141.492 285.847 151.851 287.037C152.569 288.621 152.703 289.772 152.837 290.924C130.095 289.457 107.313 288.191 85.9158 277.819C85.0842 277.308 84.6037 276.986 83.8314 276.611C83.5334 275.532 83.5272 274.507 83.7194 273.147Z" fill="#654C42"/>
<path d="M172.718 286.605C193.769 285.595 214.478 282.586 234.469 275.689C236.591 274.957 238.307 273.053 240.632 271.36C241.051 271.028 241.505 271.033 241.505 271.033C241.538 272.567 241.571 274.101 241.32 276.096C241.035 276.557 240.589 276.57 240.589 276.57C229.706 279.848 218.991 283.963 207.894 286.172C196.589 288.423 184.909 288.799 172.843 289.576C172.435 288.306 172.576 287.456 172.718 286.605Z" fill="#654C42"/>
<path d="M343.532 160.701C343.06 157.67 343.111 154.654 343.262 151.209C349.004 151.86 355.287 151.733 360.142 154.299C367.632 158.259 369.602 165.962 368.698 174.721C364.804 163.004 355.915 159.351 343.532 160.701Z" fill="#6AC0B5"/>
<path d="M240.588 277.082C240.593 276.569 241.039 276.556 241.262 276.552C241.559 291.57 241.774 306.593 241.544 321.61C241.512 323.674 239.272 325.704 237.629 327.808C237.959 323.786 239.181 319.729 239.379 315.622C239.99 302.956 240.211 290.272 240.588 277.082Z" fill="#745647"/>
<path d="M241.581 270.562C241.505 271.032 241.052 271.027 240.825 271.028C240.755 269.044 240.912 267.06 241.306 264.734C241.581 266.292 241.619 268.192 241.581 270.562Z" fill="#745647"/>
<path d="M83.48 271.444C83.7339 271.425 83.972 271.778 84.3026 272.439C84.0847 272.437 83.7744 272.126 83.48 271.444Z" fill="#654C42"/>
<path d="M172.641 286.104C172.579 287.455 172.437 288.306 172.316 289.588C166.168 290.293 159.999 290.567 153.333 290.882C152.703 289.773 152.569 288.621 152.356 287.042C152.277 283.504 152.277 280.395 152.277 276.866C159.066 276.866 165.395 276.866 172.561 276.866C172.561 279.852 172.561 282.728 172.641 286.104Z" fill="#F6F6F6"/>
<path d="M276.718 151.148C276.464 152.974 275.724 154.78 274.868 156.871C275.42 157.561 276.392 158.777 277.297 160.394C271.649 161.567 265.452 161.114 260.686 163.505C257.006 165.352 255.122 170.767 252.217 174.901C251.279 158.056 258.394 150.988 276.718 151.148Z" fill="#6EBCB3"/>
<path d="M251.353 184.067C252.82 184.721 254.757 185.651 254.794 186.651C255.048 193.415 254.982 200.195 254.783 206.963C254.756 207.857 253.386 208.712 252.212 209.7C251.28 207.394 250.356 204.974 250.347 202.55C250.324 196.493 250.717 190.434 251.353 184.067Z" fill="#343C3B"/>
<path d="M276.695 91.7576C277.232 93.2912 277.295 94.8197 277.284 96.8027C272.863 95.3963 268.516 93.5354 264.168 91.6744C264.249 91.3597 264.331 91.0449 264.412 90.7301C268.348 91.0709 272.284 91.4116 276.695 91.7576Z" fill="#FD6F6F"/>
<path d="M311.96 181.952C319.756 181.953 326.998 182.069 334.233 181.908C338.08 181.822 339.592 183.441 339.551 187.188C339.455 195.897 339.424 204.61 339.563 213.318C339.63 217.494 337.714 218.732 333.772 218.698C317.996 218.565 302.217 218.564 286.441 218.698C282.366 218.732 280.754 217.189 280.827 213.134C280.979 204.612 281.016 196.082 280.815 187.562C280.708 183.063 282.741 181.795 286.903 181.895C295.065 182.091 303.235 181.953 311.96 181.952ZM284.887 202.505C284.888 205.651 284.98 208.801 284.865 211.943C284.754 214.963 285.913 216.283 289.081 216.262C303.169 216.166 317.257 216.171 331.345 216.257C334.466 216.276 335.609 215.064 335.552 211.972C335.416 204.571 335.307 197.158 335.589 189.766C335.745 185.668 334.466 184.185 330.255 184.299C320.808 184.553 311.348 184.301 301.896 184.408C296.571 184.468 289.041 182.819 286.509 185.589C283.635 188.734 285.233 195.955 284.887 202.505Z" fill="#3D4746"/>
<path d="M279.613 275.462C279.4 284.892 280.073 293.823 279.231 302.655C278.437 302.731 277.643 302.808 276.848 302.885C276.29 300.994 275.257 299.106 275.247 297.213C275.133 275.343 275.146 253.473 275.231 231.603C275.237 230.023 276.063 228.447 276.507 226.869C277.186 226.876 277.864 226.884 278.542 226.891C278.9 228.995 279.555 231.098 279.569 233.205C279.661 247.104 279.615 261.005 279.613 275.462Z" fill="#6AC3BA"/>
<path d="M320.877 233.495C321.225 231.016 321.573 229.048 321.921 227.079C322.564 227.067 323.207 227.054 323.85 227.042C324.341 229.983 325.239 232.921 325.259 235.865C325.387 255.163 325.386 274.463 325.261 293.761C325.241 296.732 324.362 299.698 323.018 302.618C319.519 295.319 321.252 287.652 320.947 280.208C320.635 272.613 320.878 264.995 320.878 257.386C320.878 249.593 320.877 241.799 320.877 233.495Z" fill="#6AC3BA"/>
<path d="M286.53 160.855C286.999 159.806 287.719 158.196 288.901 157.711C291.857 156.499 295.132 156.062 298.082 154.84C305.617 151.719 312.973 151.642 320.544 154.826C323.797 156.193 327.452 156.577 330.844 157.661C332.308 158.129 333.567 159.237 334.97 160.485C319.011 160.88 303.001 160.843 286.53 160.855Z" fill="#66BAB1"/>
<path d="M344.435 228.623C347.42 228.056 347.563 228.054 347.607 231.408C347.704 238.814 347.644 246.222 347.645 253.629C347.646 268.074 347.688 282.518 347.595 296.962C347.582 298.872 346.878 300.778 346.494 302.686C345.779 302.604 345.064 302.522 344.349 302.44C344.349 277.979 344.349 253.518 344.435 228.623Z" fill="#68C1B8"/>
<path d="M301.92 265.441C301.92 277.872 301.92 289.747 301.92 301.622C298.021 298.614 297.539 232.261 300.823 227.046C302.353 239.599 301.709 252.263 301.92 265.441Z" fill="#68C0B7"/>
<path d="M146.766 211.767C155.779 211.502 164.791 211.216 173.805 210.984C176.763 210.908 179.73 211.085 182.684 210.951C187.468 210.734 189.117 213.019 189.298 217.649C189.473 222.146 187.814 223.378 183.534 223.223C175.404 222.928 167.257 223.11 158.423 222.724C154.074 218.825 150.42 215.296 146.766 211.767Z" fill="#EC6261"/>
<path d="M286.048 96.2246C286.019 93.8719 285.991 91.5192 286.57 88.861C315.701 96.7821 332.902 122.961 330.76 151.779C328.599 150.855 326.391 150.027 324.285 148.991C313.397 143.634 302.659 143.443 292.018 149.686C290.492 150.581 288.791 151.178 285.803 152.534C285.803 135.505 285.803 119.583 286.367 103.313C301.518 110.984 312.949 122.094 320.608 137.14C319.629 132.748 318.369 128.538 316.385 124.7C309.654 111.683 300.366 101.248 286.048 96.2246Z" fill="#EC6261"/>
<path d="M285.93 96.6219C300.369 101.248 309.657 111.682 316.388 124.7C318.372 128.538 319.632 132.748 320.611 137.14C312.952 122.094 301.521 110.984 286.539 102.89C286.032 100.884 285.92 98.9515 285.93 96.6219Z" fill="#FE7070"/>
<path d="M348.697 330.992C352.167 327.741 355.431 327.668 357.391 331.705C358.1 333.167 357.309 336.17 356.114 337.479C355.151 338.534 351.484 338.923 350.889 338.157C349.494 336.361 349.222 333.696 348.697 330.992Z" fill="#F8F8F8"/>
<path d="M264.333 335.108C264.024 330.893 265.871 328.39 269.624 328.956C271.355 329.217 274.044 331.826 273.966 333.242C273.86 335.172 271.842 337.932 270.041 338.531C268.674 338.987 266.367 336.626 264.333 335.108Z" fill="#F8F8F8"/>
<path d="M344.45 325.697C345.142 325.047 346.091 324.646 347.04 324.246C347.162 324.496 347.283 324.746 347.404 324.996C346.876 325.341 346.348 325.686 345.539 326.217C345.075 326.249 344.891 326.098 344.45 325.697Z" fill="#FFBC4E"/>
<path d="M284.886 201.953C285.232 195.954 283.633 188.733 286.508 185.588C289.04 182.818 296.569 184.467 301.894 184.407C311.347 184.301 320.806 184.553 330.253 184.298C334.465 184.184 335.744 185.667 335.588 189.765C335.306 197.158 335.414 204.57 335.551 211.971C335.608 215.064 334.465 216.276 331.343 216.256C317.256 216.17 303.167 216.165 289.08 216.261C285.912 216.282 284.753 214.962 284.864 211.942C284.979 208.8 284.887 205.65 284.886 201.953ZM320.198 202.068C322.196 202.068 324.193 202.068 326.535 202.068C326.416 199.973 326.328 198.431 326.239 196.867C315.292 196.867 304.784 196.867 293.924 196.867C294.027 198.735 294.112 200.274 294.211 202.068C302.8 202.068 310.956 202.068 320.198 202.068ZM316.383 205.517C311.64 205.517 306.897 205.517 302.154 205.517C302.163 206.153 302.172 206.788 302.181 207.424C307.336 207.424 312.492 207.424 317.647 207.424C317.557 206.816 317.467 206.208 316.383 205.517Z" fill="#FAFAFA"/>
<path d="M319.654 202.069C310.955 202.069 302.8 202.069 294.21 202.069C294.111 200.275 294.026 198.735 293.923 196.868C304.783 196.868 315.292 196.868 326.238 196.868C326.327 198.432 326.415 199.974 326.535 202.069C324.193 202.069 322.195 202.069 319.654 202.069Z" fill="#383838"/>
<path d="M316.879 205.559C317.466 206.208 317.556 206.816 317.646 207.424C312.491 207.424 307.335 207.424 302.18 207.424C302.171 206.789 302.162 206.153 302.153 205.517C306.896 205.517 311.639 205.517 316.879 205.559Z" fill="#595959"/>
</svg>
