<svg width="327" height="291" viewBox="0 0 327 291" fill="none" xmlns="http://www.w3.org/2000/svg">
<g filter="url(#filter0_d_1_836)">
<path d="M251.569 55.9913C251.567 56.4594 251.566 56.9276 251.454 57.5932C251.418 58.2492 251.492 58.7078 251.567 59.1665C251.566 61.9344 251.565 64.7024 251.454 67.7455C251.319 75.8533 251.287 83.6857 251.279 91.5182C251.278 91.9156 251.471 92.3132 251.57 92.8821C251.557 116.719 251.548 140.384 251.437 164.179C251.312 170.361 251.283 176.413 251.279 182.465C251.279 182.865 251.471 183.264 251.57 183.835C251.569 197.029 251.571 210.052 251.568 223.228C251.565 225.814 251.567 228.246 251.569 230.679C251.569 231.408 251.568 232.138 251.557 233.174C251.554 235.315 251.562 237.148 251.569 238.98C251.567 243.891 251.565 248.802 251.463 253.995C251.33 256.711 251.245 259.145 251.279 261.578C251.311 263.76 251.474 265.939 251.579 268.12C251.626 270.485 251.547 272.884 250.05 274.829C248.379 277.001 246.025 277.911 243.256 277.91C197.312 277.895 151.368 277.899 105.425 277.899C98.4999 277.9 91.5656 277.674 84.6535 277.968C78.7724 278.219 74.497 274.791 75.1722 268.146C75.1779 263.242 75.1732 258.655 75.1684 254.068C75.1663 249.121 75.1643 244.175 75.1638 238.89C75.1619 236.762 75.1584 234.972 75.1549 233.181C75.2078 232.376 75.2606 231.571 75.2371 230.514C75.1589 227.867 75.1571 225.471 75.1588 222.904C75.1599 209.71 75.1576 196.686 75.1841 183.512C75.2722 177.534 75.3387 171.706 75.3799 165.879C75.384 165.297 75.2344 164.714 75.1557 163.967C75.1578 140.004 75.1602 116.205 75.2368 92.2758C75.3376 86.739 75.3829 81.3321 75.3797 75.9253C75.3787 74.3115 75.242 72.6978 75.1674 71.084C75.1666 66.2622 75.1657 61.4404 75.1796 56.2969C75.1828 55.3659 75.1713 54.7566 75.1598 54.1473C75.281 51.133 75.4022 48.1187 75.6402 44.9046C77.5032 41.101 80.5661 40.121 84.3159 40.2169C87.5452 40.2995 90.7812 40.1225 94.0143 40.0602C101.606 40.0555 109.198 40.0509 117.108 40.0747C122.158 40.151 126.891 40.2286 131.623 40.2347C134.135 40.2379 136.646 40.1172 139.157 40.0524C143.354 40.0505 147.551 40.0485 152.074 40.1158C158.694 40.1364 164.987 40.0877 171.281 40.0391C175.75 40.0431 180.219 40.0472 184.995 40.1179C189.905 40.136 194.509 40.0876 199.114 40.0392C202.49 40.0423 205.866 40.0454 209.545 40.1216C217.732 40.2115 225.615 40.2327 233.498 40.2363C234.093 40.2366 234.688 40.1123 235.283 40.0459C237.993 40.0477 240.704 40.0498 243.415 40.051C248.393 40.0532 251.499 43.1297 251.558 48.1427C251.582 50.2477 251.564 52.3531 251.452 54.6826C251.417 55.2683 251.493 55.6298 251.569 55.9913ZM243.241 62.4708C243.241 60.871 243.241 59.2712 243.241 57.6544C189.868 57.6544 136.702 57.6544 83.5071 57.6544C83.5071 59.4497 83.5071 61.1237 83.4491 63.1306C83.4491 126.146 83.4491 189.161 83.4491 252.252C136.759 252.252 189.916 252.252 243.247 252.252C243.247 251.564 243.248 250.92 243.248 250.276C243.248 188.386 243.248 126.497 243.245 64.6066C243.245 64.0065 243.209 63.4064 243.241 62.4708ZM169.6 268.683C169.725 266.511 170.358 264.218 169.873 262.193C168.701 257.299 163.359 254.656 158.482 256.136C153.654 257.602 150.941 262.719 152.408 267.594C153.371 270.792 156.564 273.575 159.578 273.931C164.003 274.454 167.298 272.807 169.6 268.683ZM165.014 47.3249C164.697 47.168 164.392 46.9778 164.061 46.8602C162.769 46.4016 161.8 47.0682 161.559 48.1572C161.382 48.9543 161.701 50.1638 162.26 50.7502C163.123 51.655 164.468 51.3395 165.036 50.3425C165.452 49.6113 165.173 48.4849 165.014 47.3249Z" fill="#171717"/>
<path d="M251.573 183.663C251.471 183.264 251.279 182.864 251.279 182.465C251.283 176.413 251.312 170.36 251.541 164.266C257.387 173.966 259.477 184.729 260.768 196.148C261.08 194.449 261.316 193.187 261.543 191.925C262.434 186.963 263.328 182.001 264.212 177.037C264.92 173.054 265.663 169.076 266.299 165.081C266.66 162.814 266.997 160.521 267.042 158.234C267.076 156.55 266.701 154.84 266.364 153.171C265.578 149.275 264.902 145.324 261.967 142.276C260.895 141.163 259.783 140.056 258.902 138.799C255.016 133.255 253.076 127.056 253.028 120.297C253.014 118.28 253.27 116.262 253.364 114.242C253.504 111.206 253.557 108.164 253.755 105.132C253.85 103.673 254.23 102.235 254.41 100.779C254.676 98.6315 254.878 96.4761 255.113 94.2675C253.921 93.7432 252.747 93.2269 251.573 92.7106C251.47 92.3131 251.278 91.9155 251.278 91.5181C251.287 83.6856 251.318 75.8531 251.455 67.9121C254.37 69.715 257.423 71.3523 259.911 73.6103C262.74 76.1767 264.388 79.6391 265.73 83.2809C267.319 87.5925 269.373 91.7338 271.232 95.946C271.532 96.6277 271.867 97.2945 271.975 98.5085C267.807 97.6693 263.639 96.8301 259.285 95.8785C258.935 95.7443 258.771 95.7225 258.606 95.7006C258.699 95.8732 258.791 96.0457 258.884 96.2183C262.713 102.165 265.51 108.533 267.13 115.443C269.005 123.445 269.735 131.549 269.818 139.749C270.117 137.113 270.466 134.482 270.7 131.841C270.937 129.166 271.059 126.48 271.461 123.806C273.586 125.558 272.598 127.724 272.489 129.703C272.376 131.752 271.965 133.784 271.684 135.824C271.835 135.856 271.985 135.889 272.136 135.921C273.231 131.846 274.328 127.772 275.419 123.696C277.234 116.911 279.139 110.204 283.326 104.338C288.762 96.7213 296.09 91.9432 304.98 89.5584C309.388 88.3759 313.965 87.8196 318.989 86.8823C318.744 90.0955 318.664 92.8096 318.305 95.4865C317.704 99.9632 316.515 104.325 314.416 108.326C312.793 111.42 310.97 114.465 308.838 117.224C303.658 123.928 296.94 128.846 289.504 132.795C284.598 135.399 279.558 137.755 274.703 140.447C272.849 141.474 270.824 142.741 270.402 145.126C270.001 147.388 269.901 149.701 269.63 151.987C269.268 155.031 268.889 158.073 268.481 161.112C268.044 164.372 267.591 167.63 267.098 170.882C266.446 175.184 265.746 179.478 265.074 183.777C264.866 185.112 264.681 186.45 264.486 187.787C264.663 187.895 264.839 188.002 265.016 188.109C266.551 185.948 268.303 183.906 269.578 181.601C272.767 175.841 274.472 169.537 276.204 163.211C278.704 154.084 282.937 145.77 290.494 139.758C293.408 137.44 297.119 136.119 300.476 134.359C304.987 131.995 309.505 129.645 314.022 127.292C314.688 126.945 315.362 126.614 316.431 126.075C315.582 130.42 315.083 134.494 313.952 138.385C312.507 143.358 310.87 148.329 308.724 153.031C306.68 157.509 303.758 161.503 300.378 165.218C295.558 170.514 289.911 174.497 283.505 177.523C280.388 178.995 277.153 180.239 274.123 181.868C269.533 184.334 266.122 188.108 263.791 192.707C262.783 194.695 262.537 197.058 261.848 199.22C258.521 209.665 255.16 220.1 251.69 230.609C251.566 228.246 251.564 225.813 251.691 223.164C252.637 220.453 253.466 217.962 254.268 215.462C256.303 209.116 259.224 202.988 257.779 195.938C257.074 192.502 256.149 189.232 254.274 186.299C253.614 185.267 252.487 184.533 251.573 183.663Z" fill="#47D8E0"/>
<path d="M75.1557 164.131C75.234 164.714 75.3837 165.297 75.3795 165.879C75.3383 171.706 75.2718 177.534 75.0542 183.529C73.9241 184.836 72.6535 185.835 72.0446 187.141C70.879 189.642 69.7559 192.254 69.2349 194.939C68.6754 197.823 68.0999 201.034 68.8154 203.768C70.5274 210.308 72.9933 216.652 75.1549 223.075C75.1567 225.471 75.1585 227.867 75.1427 230.429C73.0919 224.545 70.9759 218.52 69.0487 212.436C67.112 206.321 65.5484 200.083 63.461 194.023C62.2549 190.521 59.8126 187.703 57.0809 185.096C51.9681 180.215 45.001 178.906 39.2116 175.391C36.1112 173.508 33.0124 171.466 30.3927 168.99C27.0148 165.797 23.7604 162.346 21.1071 158.55C18.0734 154.21 15.8162 149.316 14.4767 144.143C13.0996 138.825 12.0295 133.428 10.8229 128.067C10.7002 127.521 10.5632 126.979 10.349 126.087C12.9665 127.511 15.228 128.833 17.5683 129.996C21.4963 131.948 25.5324 133.69 29.4117 135.732C32.0911 137.142 34.8118 138.635 37.1145 140.566C43.2995 145.753 47.0617 152.59 49.4969 160.182C50.9004 164.557 52.0161 169.028 53.5125 173.37C55.3548 178.715 57.7569 183.798 62.1996 187.83C61.924 185.803 61.6737 183.773 61.3672 181.751C60.8033 178.031 60.1879 174.319 59.6279 170.599C58.8935 165.721 58.1481 160.843 57.4912 155.954C57.0434 152.621 56.6249 149.276 56.4116 145.923C56.2768 143.802 55.0792 142.448 53.5173 141.524C49.6961 139.265 45.717 137.274 41.8476 135.093C37.2655 132.511 32.5302 130.132 28.23 127.137C23.2973 123.702 19.0638 119.397 15.6718 114.365C11.9601 108.86 9.51186 102.855 8.66001 96.2456C8.29005 93.3751 7.98469 90.4964 7.60254 87.2139C10.4663 87.5271 12.9147 87.6918 15.3271 88.0796C20.7271 88.9476 25.9173 90.5116 30.7576 93.1147C36.7071 96.3143 41.2763 100.901 44.8727 106.607C48.4741 112.322 49.913 118.764 51.6669 125.119C52.6552 128.701 53.6169 132.289 54.7255 135.851C55.2899 131.834 52.7327 127.8 54.691 123.827C54.9359 123.81 55.1808 123.792 55.4257 123.775C55.9053 129.12 56.3848 134.466 56.8644 139.812C56.9407 139.812 57.017 139.811 57.0933 139.81C57.0933 138.152 57.0424 136.492 57.1023 134.836C57.331 128.517 57.775 122.196 59.5593 116.108C60.9827 111.252 62.5622 106.398 64.6229 101.788C66.0151 98.6735 68.3634 95.9853 70.2844 93.1066C70.5115 92.7662 70.7404 92.427 71.0811 92.0554C71.1936 92.0235 71.1705 92.0041 71.1789 92.1605C71.1887 92.5573 71.1641 92.8012 71.1955 93.0376C71.913 98.4533 72.89 103.85 73.2841 109.288C73.6398 114.198 73.6145 119.17 73.2956 124.085C72.8853 130.409 70.4713 136.004 66.0522 140.69C64.77 142.049 63.3893 143.515 62.7012 145.197C60.5814 150.377 59.2298 155.771 60.0005 161.449C60.4737 164.936 61.0898 168.403 61.6642 171.876C62.2959 175.695 62.929 179.514 63.6062 183.325C64.3411 187.461 65.1274 191.588 65.8746 195.628C66.5583 191.553 67.11 187.416 67.9681 183.343C69.3906 176.591 71.3907 170.024 75.1557 164.131Z" fill="#47D8E0"/>
<path d="M75.0011 54.1382C75.1707 54.7564 75.1822 55.3657 75.1774 56.1267C70.5079 58.1021 66.3997 60.4822 63.9346 65.1912C60.6646 71.4378 55.293 75.0549 48.4251 76.5033C43.8403 77.4702 39.2649 78.4881 34.6606 79.3519C33.3404 79.5995 31.9342 79.3898 30.3729 79.3898C40.4263 63.5972 56.1198 58.3012 73.2166 55.1191C66.8918 54.3991 60.567 53.6791 54.2422 52.9591C56.8906 50.5487 59.6594 52.8211 62.7974 52.1212C59.6206 51.1395 56.8713 50.2606 54.1045 49.441C48.2078 47.6943 42.5154 45.6019 38.2163 40.8831C34.2848 36.5678 31.8482 31.464 30.7811 25.82C29.9516 21.4332 29.7274 16.9324 29.2085 12.2511C36.0538 12.1883 41.8651 13.744 47.0652 17.2573C53.9002 21.8752 58.2796 28.4587 61.4008 35.9252C63.1085 40.0103 64.4984 44.227 66.1452 48.339C66.7465 49.8404 67.6402 51.2325 68.4821 52.6253C68.6968 52.9804 69.1957 53.3013 69.6107 53.3745C71.3452 53.6807 73.0974 53.8867 75.0011 54.1382Z" fill="#47D8E0"/>
<path d="M251.688 238.922C251.562 237.147 251.554 235.315 251.561 233.331C255.66 228.905 259.658 224.543 263.863 220.388C266.304 217.977 268.937 215.706 271.728 213.713C276.695 210.166 282.366 208.058 288.309 206.847C292.454 206.002 296.675 205.452 300.888 205.035C304.693 204.658 308.534 204.641 312.788 204.445C310.954 208.048 309.315 211.316 307.632 214.562C304.362 220.866 300.188 226.521 294.842 231.199C290.344 235.134 285.107 237.487 279.053 238.291C275.091 238.816 271.423 238.171 267.742 237.104C262.163 235.488 256.873 236.061 251.688 238.922Z" fill="#47D8E0"/>
<path d="M75.0402 233.134C75.1586 234.971 75.1621 236.762 75.1607 238.719C72.0523 237.049 68.5726 236.236 65.0877 236.145C62.511 236.078 59.8665 236.865 57.3239 237.541C48.2416 239.954 40.2622 237.695 33.0447 232.046C26.9701 227.292 22.6108 221.153 19.0158 214.431C17.3123 211.246 15.7453 207.988 14.2334 204.995C19.0391 204.995 23.8216 204.556 28.4917 205.092C36.6506 206.029 44.7423 207.631 51.9626 211.879C54.7363 213.511 57.5021 215.296 59.8628 217.457C63.6133 220.889 67.0342 224.682 70.5672 228.349C72.0557 229.894 73.4747 231.506 75.0402 233.134Z" fill="#47D8E0"/>
<path d="M251.731 59.1722C251.493 58.7077 251.419 58.249 251.457 57.7334C254.098 57.937 256.641 58.5072 259.151 58.3866C263.094 58.1973 267.016 57.5572 270.943 57.0812C277.651 56.2682 284.445 55.2605 290.848 58.1781C293.892 59.5655 296.732 61.6167 299.292 63.8016C304.61 68.3386 307.851 74.3933 310.787 80.8383C308.407 81.5603 306.06 82.3816 303.657 82.9799C297.919 84.4084 292.256 83.8178 286.781 81.796C281.723 79.9286 277.155 77.1449 273.246 73.4049C270.058 70.3543 267.065 67.0972 263.833 64.0965C262.078 62.4674 260.172 60.7899 258.02 59.8631C256.215 59.086 253.954 59.3661 251.731 59.1722Z" fill="#47D8E0"/>
<path d="M171.344 39.9165C164.988 40.0876 158.694 40.1362 152.238 40.1238C156.665 37.3388 158.441 32.5731 160.859 28.2192C165.006 20.7536 170.022 14.0462 178.11 10.3232C183.156 8.00039 188.374 6.83725 193.926 7.93061C196.989 8.53401 200.038 9.21445 203.375 9.91976C200.73 11.9283 198.146 13.3231 196.338 15.3938C193.412 18.7436 190.761 22.3916 188.419 26.1762C184.332 32.7829 178.782 37.3778 171.344 39.9165Z" fill="#47D8E0"/>
<path d="M93.9916 39.9213C90.7812 40.1225 87.5452 40.2996 84.3159 40.217C80.5661 40.1211 77.5032 41.101 75.639 44.7538C73.2349 42.7425 70.7787 40.8381 68.7065 38.5821C66.2157 35.8704 65.0594 32.4029 63.9024 28.9278C62.2831 24.064 60.325 19.3125 58.4067 14.2349C61.2404 14.8468 64.0808 15.3891 66.8844 16.0803C73.0037 17.5889 78.5126 20.4269 83.3927 24.3446C86.9349 27.1883 89.5704 30.886 91.7437 34.8653C92.6037 36.4399 93.2341 38.1395 93.9916 39.9213Z" fill="#47D8E0"/>
<path d="M251.704 268.136C251.473 265.939 251.31 263.759 251.279 261.578C251.244 259.145 251.329 256.711 251.464 254.162C257.247 253.638 262.259 255.46 266.729 258.803C271.621 262.462 275.498 267.038 278.647 272.279C280.152 274.783 281.941 277.126 283.715 279.456C284.289 280.209 285.224 280.688 285.957 281.265C283.103 282.845 278.965 282.951 275.417 282.058C268.631 280.35 262.833 276.745 257.319 272.62C255.431 271.207 253.657 269.645 251.704 268.136Z" fill="#47D8E0"/>
<path d="M75.0004 254.073C75.1731 258.655 75.1778 263.242 75.1684 267.979C73.8177 269.175 72.4588 270.194 71.1487 271.273C65.6716 275.781 59.6689 279.464 52.9478 281.703C48.929 283.041 44.6673 283.209 40.5483 281.274C44.1855 279.409 46.0174 275.973 47.9069 272.71C50.6634 267.95 54.0597 263.83 58.2461 260.258C61.2099 257.73 64.4221 255.725 68.1677 254.789C70.3142 254.252 72.6061 254.296 75.0004 254.073Z" fill="#47D8E0"/>
<path d="M235.321 39.9262C234.688 40.1121 234.093 40.2364 233.498 40.2361C225.615 40.2325 217.732 40.2113 209.711 40.1265C212.788 32.6786 216.997 26.1238 224.693 22.6722C228.824 20.8194 233.2 20.1712 237.582 21.6167C241.093 22.7747 244.479 24.3084 248.381 25.8581C242.531 28.5386 239.976 33.4813 236.758 37.801C236.271 38.4542 235.825 39.1373 235.321 39.9262Z" fill="#47D8E0"/>
<path d="M251.722 55.9649C251.492 55.6295 251.416 55.268 251.454 54.8477C253.185 53.9729 254.802 53.1561 256.419 52.3412C259.686 50.6953 261.322 47.7218 263.077 44.6942C266.746 38.3661 272.598 34.9762 279.636 33.5802C284.529 32.6096 289.468 31.8709 294.384 31.0154C294.834 30.9372 295.267 30.7629 295.752 30.6201C293.204 40.9996 268.621 55.1422 251.722 55.9649Z" fill="#47D8E0"/>
<path d="M139.15 39.9125C136.645 40.1172 134.134 40.238 131.623 40.2347C126.89 40.2286 122.158 40.1511 117.279 40.0713C116.759 35.2655 116.26 30.4968 116.059 25.7156C115.94 22.8771 116.292 20.0188 116.442 16.9573C126.512 22.1866 135.495 28.307 139.15 39.9125Z" fill="#47D8E0"/>
<path d="M75.0379 71.1255C75.2423 72.6977 75.379 74.3114 75.38 75.9252C75.3832 81.3321 75.3379 86.739 75.0804 92.2667C73.6235 92.2598 72.3974 92.132 71.1712 92.0042C71.1712 92.0042 71.1943 92.0236 71.2065 92.0325C69.7516 91.4326 68.2333 90.9229 66.827 90.1968C62.3756 87.8983 59.2556 84.2981 57.0117 79.8855C56.4138 78.7099 55.8227 77.531 55.4263 76.7455C57.97 76.3406 60.5514 76.216 62.9468 75.4843C66.9958 74.2475 70.9271 72.6265 75.0379 71.1255Z" fill="#47D8E0"/>
<path d="M199.132 39.901C194.51 40.0874 189.906 40.1358 185.163 40.1198C187.878 37.5009 190.665 34.8649 193.609 32.4173C196.055 30.3834 199.027 28.9496 200.688 25.635C202.062 30.8189 200.873 35.3204 199.132 39.901Z" fill="#47D8E0"/>
<path d="M243.19 62.8062C243.209 63.4063 243.245 64.0063 243.245 64.6064C243.247 126.496 243.247 188.386 243.247 250.276C243.247 250.92 243.247 251.564 243.247 252.252C189.915 252.252 136.758 252.252 83.4487 252.252C83.4487 189.161 83.4487 126.146 83.6454 62.9612C97.2716 62.7908 110.701 62.7874 124.131 62.789C163.817 62.7937 203.503 62.8003 243.19 62.8062ZM175.112 71.3707C149.454 71.3707 123.797 71.3698 98.14 71.3722C95.3873 71.3725 94.9117 71.8359 94.7798 74.5925C94.7626 74.9526 94.7692 75.314 94.7692 75.6748C94.7688 96.0617 94.7674 116.449 94.7705 136.835C94.7709 139.873 95.3186 140.42 98.3247 140.42C141.629 140.421 184.933 140.421 228.237 140.42C231.411 140.42 231.771 140.063 231.772 136.916C231.773 116.228 231.773 95.5409 231.772 74.8533C231.772 71.6673 231.47 71.3715 228.233 71.3713C210.646 71.3701 193.06 71.3706 175.112 71.3707ZM162.822 198.164C141.207 198.164 119.592 198.162 97.9766 198.165C95.2692 198.166 94.7342 198.564 94.7312 200.827C94.712 215.496 94.7143 230.165 94.7292 244.834C94.7312 246.858 95.1516 247.235 97.195 247.235C123.446 247.239 149.697 247.225 175.948 247.268C177.687 247.27 178.242 246.707 178.236 244.981C178.185 230.191 178.209 215.402 178.204 200.613C178.203 198.444 177.908 198.17 175.647 198.166C171.492 198.158 167.338 198.164 162.822 198.164ZM145.7 156.326C145.569 159.503 146.657 160.952 149.297 160.953C175.557 160.965 201.816 160.965 228.076 160.953C230.359 160.952 231.642 159.626 231.683 157.367C231.727 154.942 230.077 153.385 227.411 153.384C201.693 153.38 175.976 153.388 150.258 153.369C148.178 153.367 146.651 154.113 145.7 156.326ZM97.8668 168.51C95.2854 169.563 94.3692 171.083 95.0878 173.121C95.5908 174.548 97.5395 175.753 99.4605 175.754C120.884 175.761 142.308 175.764 163.732 175.736C164.549 175.735 165.421 175.542 166.169 175.213C167.55 174.606 168.485 173.685 168.471 171.931C168.457 170.168 167.485 169.263 166.095 168.705C165.231 168.357 164.232 168.202 163.293 168.2C142.231 168.173 121.168 168.177 100.105 168.19C99.4548 168.19 98.8044 168.342 97.8668 168.51ZM200.414 175.758C209.446 175.758 218.478 175.766 227.51 175.754C230.37 175.75 231.681 174.537 231.683 171.98C231.685 169.469 230.299 168.185 227.496 168.184C210.396 168.175 193.295 168.175 176.194 168.184C173.398 168.186 172.027 169.478 172.036 172.008C172.045 174.568 173.361 175.756 176.208 175.757C184.156 175.76 192.105 175.758 200.414 175.758ZM137.519 190.556C151.969 190.556 166.418 190.56 180.868 190.553C183.286 190.551 185.038 188.953 185.051 186.794C185.064 184.625 183.318 182.983 180.923 182.982C163.644 182.973 146.365 182.973 129.085 182.983C126.862 182.984 125.08 184.685 125.06 186.739C125.041 188.792 126.822 190.529 129.03 190.55C131.739 190.576 134.449 190.556 137.519 190.556ZM231.298 230.647C232.338 227.621 231.352 225.735 228.298 224.997C227.724 224.858 227.108 224.852 226.511 224.852C213.094 224.844 199.676 224.841 186.259 224.859C185.491 224.86 184.696 224.959 183.962 225.175C182.091 225.723 180.874 227.494 181.091 229.205C181.307 230.908 183.134 232.417 185.08 232.419C199.28 232.429 213.479 232.46 227.678 232.358C228.839 232.349 229.993 231.404 231.298 230.647ZM228.68 205.311C231.136 204.235 232.057 202.794 231.666 200.64C231.378 199.055 229.39 197.776 227.191 197.776C213.397 197.774 199.603 197.756 185.81 197.812C184.731 197.816 183.49 198.103 182.614 198.689C181.21 199.628 180.73 201.11 181.377 202.816C181.975 204.391 183.473 205.349 185.544 205.35C199.82 205.355 214.095 205.347 228.68 205.311ZM182.993 211.639C180.762 213.665 180.319 215.69 182.189 217.294C183.21 218.169 184.9 218.638 186.293 218.648C199.3 218.747 212.307 218.707 225.315 218.706C226.037 218.706 226.763 218.746 227.482 218.693C230.177 218.493 231.766 216.894 231.682 214.509C231.604 212.301 230.086 211.131 227.258 211.13C213.347 211.126 199.437 211.122 185.526 211.144C184.765 211.145 184.005 211.374 182.993 211.639ZM140.977 155.06C139.884 154.501 138.796 153.466 137.699 153.456C124.827 153.343 111.953 153.36 99.0805 153.415C97.5848 153.421 96.0876 153.829 95.3036 155.409C93.8496 158.34 95.6655 160.951 99.2246 160.955C111.857 160.97 124.49 160.963 137.122 160.96C140.728 160.959 142.324 158.697 140.977 155.06ZM223.185 190.556C224.75 190.556 226.316 190.59 227.88 190.548C230.366 190.48 231.689 189.13 231.683 186.737C231.677 184.362 230.339 182.994 227.821 182.989C216.085 182.964 204.349 182.966 192.613 183.005C191.879 183.007 191.038 183.243 190.435 183.649C188.969 184.639 188.273 186.063 188.805 187.86C189.258 189.388 190.934 190.549 192.672 190.551C202.723 190.561 212.774 190.556 223.185 190.556ZM222.835 239.387C221.803 238.067 220.47 237.463 218.774 237.467C207.705 237.49 196.635 237.471 185.565 237.484C182.905 237.487 181.114 239.077 181.081 241.387C181.051 243.451 182.985 245.055 185.529 245.056C196.659 245.059 207.789 245.06 218.919 245.055C222.388 245.053 223.964 242.927 222.835 239.387ZM120.057 183.739C119.146 183.485 118.238 183.021 117.326 183.011C111.245 182.946 105.164 182.964 99.0833 182.984C96.6314 182.992 94.8302 184.568 94.7517 186.689C94.6726 188.825 96.573 190.542 99.1077 190.55C105.189 190.569 111.269 190.562 117.35 190.553C119.095 190.55 120.531 189.97 121.298 188.267C122.068 186.556 121.559 185.134 120.057 183.739Z" fill="white"/>
<path d="M243.216 62.6384C203.504 62.8003 163.818 62.7937 124.131 62.789C110.702 62.7875 97.2722 62.7908 83.675 62.7948C83.5073 61.1236 83.5073 59.4495 83.5073 57.6543C136.702 57.6543 189.868 57.6543 243.241 57.6543C243.241 59.271 243.241 60.8708 243.216 62.6384Z" fill="#CCCCCC"/>
<path d="M169.543 268.809C167.299 272.807 164.003 274.454 159.578 273.931C156.565 273.574 153.371 270.792 152.408 267.593C150.941 262.719 153.654 257.601 158.483 256.136C163.36 254.655 168.701 257.299 169.873 262.192C170.358 264.218 169.725 266.511 169.543 268.809Z" fill="#464646"/>
<path d="M165.109 47.4295C165.173 48.4846 165.453 49.611 165.036 50.3422C164.468 51.3392 163.124 51.6547 162.261 50.7499C161.701 50.1635 161.383 48.954 161.56 48.1569C161.801 47.0679 162.77 46.4013 164.062 46.8599C164.393 46.9775 164.698 47.1677 165.109 47.4295Z" fill="#454545"/>
<path d="M258.961 96.1575C258.792 96.0458 258.699 95.8732 258.606 95.7007C258.771 95.7225 258.936 95.7444 259.14 95.8652C259.131 96.0083 259.084 96.0525 258.961 96.1575Z" fill="black"/>
<path d="M175.293 71.3707C193.06 71.3707 210.647 71.3702 228.234 71.3713C231.471 71.3716 231.772 71.6674 231.772 74.8534C231.773 95.541 231.773 116.229 231.772 136.916C231.772 140.063 231.411 140.42 228.238 140.42C184.934 140.421 141.629 140.421 98.3253 140.42C95.3192 140.42 94.7715 139.873 94.771 136.836C94.768 116.449 94.7694 96.0618 94.7698 75.6749C94.7698 75.3141 94.7632 74.9527 94.7804 74.5926C94.9123 71.836 95.3879 71.3726 98.1406 71.3723C123.798 71.3699 149.455 71.3708 175.293 71.3707ZM147.822 97.2746C142.99 105.779 146.122 116.514 154.628 121.401C163.28 126.37 174.281 122.731 178.683 114.843C183.541 106.14 180.71 95.2425 172.241 90.5067C164.287 86.0589 152.803 88.0652 147.822 97.2746Z" fill="#969696"/>
<path d="M163.003 198.164C167.338 198.164 171.493 198.158 175.647 198.166C177.909 198.17 178.203 198.444 178.204 200.613C178.21 215.402 178.185 230.191 178.237 244.981C178.243 246.707 177.688 247.27 175.949 247.268C149.698 247.225 123.447 247.239 97.1953 247.235C95.152 247.235 94.7316 246.858 94.7295 244.834C94.7146 230.165 94.7124 215.496 94.7316 200.827C94.7346 198.564 95.2696 198.166 97.977 198.165C119.592 198.162 141.207 198.164 163.003 198.164Z" fill="#C8C8C8"/>
<path d="M145.743 156.186C146.652 154.113 148.179 153.367 150.259 153.369C175.976 153.388 201.694 153.38 227.411 153.384C230.078 153.385 231.727 154.942 231.683 157.367C231.643 159.626 230.359 160.952 228.076 160.953C201.817 160.965 175.557 160.965 149.298 160.953C146.657 160.952 145.57 159.503 145.743 156.186Z" fill="#EFEFEF"/>
<path d="M98.0112 168.467C98.8053 168.343 99.4556 168.19 100.106 168.19C121.169 168.177 142.232 168.173 163.294 168.2C164.233 168.202 165.232 168.357 166.096 168.705C167.486 169.264 168.458 170.168 168.472 171.931C168.486 173.685 167.551 174.606 166.17 175.213C165.422 175.542 164.549 175.735 163.733 175.736C142.309 175.764 120.885 175.761 99.4614 175.754C97.5403 175.753 95.5916 174.548 95.0886 173.121C94.37 171.083 95.2862 169.563 98.0112 168.467Z" fill="#EFEFEF"/>
<path d="M200.234 175.758C192.105 175.758 184.157 175.76 176.209 175.757C173.361 175.756 172.046 174.568 172.037 172.008C172.028 169.478 173.399 168.186 176.195 168.184C193.295 168.175 210.396 168.175 227.497 168.184C230.299 168.185 231.685 169.469 231.683 171.98C231.681 174.537 230.37 175.75 227.511 175.754C218.479 175.766 209.447 175.758 200.234 175.758Z" fill="#EFEFEF"/>
<path d="M137.339 190.556C134.449 190.556 131.739 190.576 129.03 190.55C126.823 190.529 125.041 188.792 125.061 186.739C125.08 184.685 126.862 182.984 129.086 182.983C146.365 182.973 163.644 182.973 180.923 182.982C183.318 182.983 185.064 184.625 185.051 186.794C185.038 188.954 183.287 190.551 180.868 190.553C166.419 190.56 151.969 190.556 137.339 190.556Z" fill="#EFEFEF"/>
<path d="M231.224 230.77C229.994 231.404 228.839 232.349 227.679 232.358C213.48 232.46 199.28 232.429 185.08 232.418C183.134 232.417 181.307 230.908 181.091 229.204C180.875 227.494 182.092 225.723 183.962 225.174C184.696 224.959 185.491 224.86 186.259 224.859C199.676 224.841 213.094 224.844 226.511 224.852C227.108 224.852 227.724 224.858 228.298 224.997C231.352 225.735 232.338 227.621 231.224 230.77Z" fill="#EFEFEF"/>
<path d="M228.526 205.327C214.096 205.347 199.82 205.354 185.544 205.35C183.473 205.349 181.976 204.391 181.378 202.816C180.73 201.11 181.211 199.628 182.614 198.689C183.49 198.103 184.731 197.816 185.81 197.812C199.603 197.756 213.397 197.774 227.191 197.776C229.391 197.776 231.378 199.055 231.666 200.639C232.058 202.794 231.136 204.235 228.526 205.327Z" fill="#EFEFEF"/>
<path d="M183.118 211.568C184.005 211.374 184.765 211.145 185.526 211.144C199.437 211.122 213.347 211.126 227.258 211.13C230.086 211.131 231.604 212.301 231.682 214.509C231.766 216.894 230.177 218.493 227.482 218.693C226.763 218.746 226.037 218.706 225.315 218.706C212.308 218.707 199.3 218.747 186.294 218.648C184.9 218.638 183.21 218.169 182.189 217.294C180.319 215.69 180.762 213.665 183.118 211.568Z" fill="#EFEFEF"/>
<path d="M141.059 155.173C142.325 158.697 140.729 160.959 137.123 160.96C124.491 160.963 111.858 160.97 99.2254 160.955C95.6663 160.951 93.8504 158.34 95.3044 155.409C96.0884 153.829 97.5856 153.421 99.0813 153.415C111.954 153.36 124.828 153.343 137.7 153.456C138.797 153.466 139.885 154.501 141.059 155.173Z" fill="#EFEFEF"/>
<path d="M223.005 190.556C212.774 190.556 202.723 190.561 192.673 190.551C190.935 190.549 189.258 189.388 188.806 187.86C188.274 186.063 188.97 184.639 190.436 183.649C191.038 183.243 191.88 183.007 192.614 183.005C204.349 182.966 216.085 182.963 227.821 182.989C230.339 182.994 231.677 184.362 231.683 186.737C231.69 189.129 230.366 190.48 227.88 190.547C226.316 190.59 224.751 190.556 223.005 190.556Z" fill="#EFEFEF"/>
<path d="M222.894 239.514C223.965 242.927 222.389 245.054 218.919 245.055C207.789 245.06 196.659 245.059 185.529 245.056C182.986 245.055 181.052 243.451 181.081 241.387C181.115 239.078 182.906 237.487 185.565 237.484C196.635 237.471 207.705 237.49 218.775 237.467C220.47 237.463 221.804 238.067 222.894 239.514Z" fill="#EFEFEF"/>
<path d="M120.175 183.813C121.559 185.134 122.068 186.556 121.298 188.267C120.531 189.97 119.096 190.55 117.351 190.553C111.27 190.562 105.189 190.569 99.1079 190.55C96.5732 190.542 94.6729 188.825 94.7519 186.689C94.8304 184.568 96.6316 182.991 99.0835 182.984C105.164 182.964 111.246 182.946 117.326 183.011C118.239 183.021 119.147 183.485 120.175 183.813Z" fill="#EFEFEF"/>
<path d="M147.888 97.1596C152.804 88.0652 164.288 86.059 172.241 90.5067C180.71 95.2425 183.541 106.14 178.683 114.843C174.281 122.731 163.28 126.37 154.629 121.401C146.122 116.514 142.991 105.779 147.888 97.1596ZM164.573 109.297C166.145 108.247 167.716 107.198 169.327 106.121C169.002 105.648 168.911 105.392 168.729 105.27C165.484 103.091 162.257 100.883 158.961 98.7834C157.689 97.9725 157.584 99.0044 157.583 99.9307C157.579 103.957 157.573 107.984 157.594 112.01C157.597 112.437 157.771 112.864 157.949 113.665C160.268 112.133 162.31 110.783 164.573 109.297Z" fill="#FEFEFE"/>
<path d="M164.463 109.365C162.31 110.783 160.268 112.132 157.949 113.664C157.771 112.863 157.597 112.437 157.594 112.01C157.573 107.983 157.579 103.957 157.583 99.9305C157.584 99.0042 157.689 97.9723 158.961 98.7831C162.257 100.883 165.484 103.091 168.729 105.27C168.911 105.392 169.002 105.648 169.327 106.121C167.716 107.198 166.145 108.247 164.463 109.365Z" fill="#979797"/>
</g>
<defs>
<filter id="filter0_d_1_836" x="-3.29492" y="0.709961" width="333.319" height="296.74" filterUnits="userSpaceOnUse" color-interpolation-filters="sRGB">
<feFlood flood-opacity="0" result="BackgroundImageFix"/>
<feColorMatrix in="SourceAlpha" type="matrix" values="0 0 0 0 0 0 0 0 0 0 0 0 0 0 0 0 0 0 127 0" result="hardAlpha"/>
<feOffset dy="4"/>
<feGaussianBlur stdDeviation="2"/>
<feComposite in2="hardAlpha" operator="out"/>
<feColorMatrix type="matrix" values="0 0 0 0 0 0 0 0 0 0 0 0 0 0 0 0 0 0 0.25 0"/>
<feBlend mode="normal" in2="BackgroundImageFix" result="effect1_dropShadow_1_836"/>
<feBlend mode="normal" in="SourceGraphic" in2="effect1_dropShadow_1_836" result="shape"/>
</filter>
</defs>
</svg>
