<svg width="387" height="358" viewBox="0 0 387 358" fill="none" xmlns="http://www.w3.org/2000/svg">
<circle cx="160.324" cy="160.324" r="160.324" fill="#7F7DCF"/>
<g filter="url(#filter0_d_1_833)">
<path d="M311.569 122.991C311.567 123.459 311.566 123.928 311.454 124.593C311.418 125.249 311.492 125.708 311.567 126.166C311.566 128.934 311.565 131.702 311.454 134.746C311.319 142.853 311.287 150.686 311.279 158.518C311.278 158.916 311.471 159.313 311.57 159.882C311.557 183.719 311.548 207.384 311.437 231.179C311.312 237.361 311.283 243.413 311.279 249.465C311.279 249.865 311.471 250.264 311.57 250.835C311.569 264.029 311.571 277.052 311.568 290.228C311.565 292.814 311.567 295.246 311.569 297.679C311.569 298.408 311.568 299.138 311.557 300.174C311.554 302.315 311.562 304.148 311.569 305.98C311.567 310.891 311.565 315.802 311.463 320.995C311.33 323.711 311.245 326.145 311.279 328.578C311.311 330.76 311.474 332.939 311.579 335.12C311.626 337.485 311.547 339.884 310.05 341.829C308.379 344.001 306.025 344.911 303.256 344.91C257.312 344.895 211.368 344.899 165.425 344.899C158.5 344.9 151.566 344.674 144.653 344.968C138.772 345.219 134.497 341.791 135.172 335.146C135.178 330.242 135.173 325.655 135.168 321.068C135.166 316.121 135.164 311.175 135.164 305.89C135.162 303.762 135.158 301.972 135.155 300.181C135.208 299.376 135.261 298.571 135.237 297.514C135.159 294.867 135.157 292.471 135.159 289.904C135.16 276.71 135.158 263.686 135.184 250.512C135.272 244.534 135.339 238.706 135.38 232.879C135.384 232.297 135.234 231.714 135.156 230.967C135.158 207.004 135.16 183.205 135.237 159.276C135.338 153.739 135.383 148.332 135.38 142.925C135.379 141.311 135.242 139.698 135.167 138.084C135.167 133.262 135.166 128.44 135.18 123.297C135.183 122.366 135.171 121.757 135.16 121.147C135.281 118.133 135.402 115.119 135.64 111.905C137.503 108.101 140.566 107.121 144.316 107.217C147.545 107.299 150.781 107.122 154.014 107.06C161.606 107.056 169.198 107.051 177.108 107.075C182.158 107.151 186.891 107.229 191.623 107.235C194.135 107.238 196.646 107.117 199.157 107.052C203.354 107.05 207.551 107.049 212.074 107.116C218.694 107.136 224.987 107.088 231.281 107.039C235.75 107.043 240.219 107.047 244.995 107.118C249.905 107.136 254.509 107.088 259.114 107.039C262.49 107.042 265.866 107.045 269.545 107.122C277.732 107.212 285.615 107.233 293.498 107.236C294.093 107.237 294.688 107.112 295.283 107.046C297.993 107.048 300.704 107.05 303.415 107.051C308.393 107.053 311.499 110.13 311.558 115.143C311.582 117.248 311.564 119.353 311.452 121.683C311.417 122.268 311.493 122.63 311.569 122.991ZM303.241 129.471C303.241 127.871 303.241 126.271 303.241 124.654C249.868 124.654 196.702 124.654 143.507 124.654C143.507 126.45 143.507 128.124 143.449 130.131C143.449 193.146 143.449 256.161 143.449 319.252C196.759 319.252 249.916 319.252 303.247 319.252C303.247 318.564 303.248 317.92 303.248 317.276C303.248 255.386 303.248 193.497 303.245 131.607C303.245 131.006 303.209 130.406 303.241 129.471ZM229.6 335.683C229.725 333.511 230.358 331.218 229.873 329.193C228.701 324.299 223.359 321.656 218.482 323.136C213.654 324.602 210.941 329.719 212.408 334.594C213.371 337.792 216.564 340.575 219.578 340.931C224.003 341.454 227.298 339.807 229.6 335.683ZM225.014 114.325C224.697 114.168 224.392 113.978 224.061 113.86C222.769 113.402 221.8 114.068 221.559 115.157C221.382 115.954 221.701 117.164 222.26 117.75C223.123 118.655 224.468 118.339 225.036 117.342C225.452 116.611 225.173 115.485 225.014 114.325Z" fill="#171717"/>
<path d="M311.573 250.663C311.471 250.264 311.279 249.864 311.279 249.465C311.283 243.413 311.312 237.36 311.541 231.266C317.387 240.966 319.477 251.729 320.768 263.148C321.08 261.449 321.316 260.187 321.543 258.925C322.434 253.963 323.328 249.001 324.212 244.037C324.92 240.054 325.663 236.076 326.299 232.081C326.66 229.814 326.997 227.521 327.042 225.234C327.076 223.55 326.701 221.84 326.364 220.171C325.578 216.275 324.902 212.324 321.967 209.276C320.895 208.163 319.783 207.056 318.902 205.799C315.016 200.255 313.076 194.056 313.028 187.297C313.014 185.28 313.27 183.262 313.364 181.242C313.504 178.206 313.557 175.164 313.755 172.132C313.85 170.673 314.23 169.235 314.41 167.779C314.676 165.631 314.878 163.476 315.113 161.267C313.921 160.743 312.747 160.227 311.573 159.711C311.47 159.313 311.278 158.915 311.278 158.518C311.287 150.686 311.318 142.853 311.455 134.912C314.37 136.715 317.423 138.352 319.911 140.61C322.74 143.177 324.388 146.639 325.73 150.281C327.319 154.593 329.373 158.734 331.232 162.946C331.532 163.628 331.867 164.294 331.975 165.508C327.807 164.669 323.639 163.83 319.285 162.878C318.935 162.744 318.771 162.722 318.606 162.701C318.699 162.873 318.791 163.046 318.884 163.218C322.713 169.165 325.51 175.533 327.13 182.443C329.005 190.445 329.735 198.549 329.818 206.749C330.117 204.113 330.466 201.482 330.7 198.841C330.937 196.166 331.059 193.48 331.461 190.806C333.586 192.558 332.598 194.724 332.489 196.703C332.376 198.752 331.965 200.784 331.684 202.824C331.835 202.856 331.985 202.889 332.136 202.921C333.231 198.846 334.328 194.772 335.419 190.696C337.234 183.911 339.139 177.204 343.326 171.338C348.762 163.721 356.09 158.943 364.98 156.558C369.388 155.376 373.965 154.82 378.989 153.882C378.744 157.095 378.664 159.81 378.305 162.487C377.704 166.963 376.515 171.325 374.416 175.326C372.793 178.42 370.97 181.465 368.838 184.224C363.658 190.928 356.94 195.846 349.504 199.795C344.598 202.399 339.558 204.755 334.703 207.447C332.849 208.474 330.824 209.741 330.402 212.126C330.001 214.388 329.901 216.701 329.63 218.987C329.268 222.031 328.889 225.073 328.481 228.112C328.044 231.372 327.591 234.63 327.098 237.882C326.446 242.184 325.746 246.478 325.074 250.777C324.866 252.112 324.681 253.45 324.486 254.787C324.663 254.895 324.839 255.002 325.016 255.109C326.551 252.948 328.303 250.906 329.578 248.601C332.767 242.842 334.472 236.537 336.204 230.211C338.704 221.084 342.937 212.77 350.494 206.758C353.408 204.44 357.119 203.119 360.476 201.359C364.987 198.995 369.505 196.645 374.022 194.292C374.688 193.945 375.362 193.614 376.431 193.075C375.582 197.42 375.083 201.494 373.952 205.385C372.507 210.358 370.87 215.329 368.724 220.031C366.68 224.509 363.758 228.503 360.378 232.218C355.558 237.514 349.911 241.497 343.505 244.523C340.388 245.995 337.153 247.239 334.123 248.868C329.533 251.334 326.122 255.108 323.791 259.707C322.783 261.695 322.537 264.058 321.848 266.22C318.521 276.665 315.16 287.1 311.69 297.609C311.566 295.246 311.564 292.813 311.691 290.164C312.637 287.453 313.466 284.962 314.268 282.462C316.303 276.116 319.224 269.988 317.779 262.938C317.074 259.502 316.149 256.232 314.274 253.299C313.614 252.267 312.487 251.533 311.573 250.663Z" fill="#47D8E0"/>
<path d="M135.156 231.131C135.234 231.714 135.384 232.297 135.38 232.879C135.338 238.706 135.272 244.534 135.054 250.529C133.924 251.836 132.654 252.835 132.045 254.141C130.879 256.642 129.756 259.254 129.235 261.939C128.675 264.823 128.1 268.034 128.815 270.768C130.527 277.308 132.993 283.652 135.155 290.075C135.157 292.471 135.158 294.867 135.143 297.429C133.092 291.545 130.976 285.52 129.049 279.436C127.112 273.321 125.548 267.083 123.461 261.023C122.255 257.521 119.813 254.703 117.081 252.096C111.968 247.215 105.001 245.906 99.2116 242.391C96.1112 240.508 93.0124 238.466 90.3927 235.99C87.0148 232.797 83.7604 229.346 81.1071 225.55C78.0734 221.21 75.8162 216.316 74.4767 211.143C73.0996 205.825 72.0295 200.428 70.8229 195.067C70.7002 194.521 70.5632 193.979 70.349 193.087C72.9665 194.511 75.228 195.833 77.5683 196.996C81.4963 198.948 85.5324 200.69 89.4117 202.732C92.0911 204.142 94.8118 205.635 97.1145 207.566C103.3 212.753 107.062 219.59 109.497 227.182C110.9 231.557 112.016 236.028 113.512 240.37C115.355 245.715 117.757 250.798 122.2 254.83C121.924 252.803 121.674 250.773 121.367 248.751C120.803 245.031 120.188 241.319 119.628 237.599C118.893 232.721 118.148 227.843 117.491 222.954C117.043 219.621 116.625 216.276 116.412 212.923C116.277 210.802 115.079 209.448 113.517 208.524C109.696 206.265 105.717 204.274 101.848 202.093C97.2655 199.511 92.5302 197.132 88.23 194.137C83.2973 190.702 79.0638 186.397 75.6718 181.365C71.9601 175.86 69.5119 169.855 68.66 163.246C68.2901 160.375 67.9847 157.496 67.6025 154.214C70.4663 154.527 72.9147 154.692 75.3271 155.08C80.7271 155.948 85.9173 157.512 90.7576 160.115C96.7071 163.314 101.276 167.901 104.873 173.607C108.474 179.322 109.913 185.764 111.667 192.119C112.655 195.701 113.617 199.289 114.726 202.851C115.29 198.834 112.733 194.8 114.691 190.827C114.936 190.81 115.181 190.792 115.426 190.775C115.905 196.12 116.385 201.466 116.864 206.812C116.941 206.812 117.017 206.811 117.093 206.81C117.093 205.152 117.042 203.492 117.102 201.836C117.331 195.517 117.775 189.196 119.559 183.108C120.983 178.252 122.562 173.398 124.623 168.788C126.015 165.674 128.363 162.985 130.284 160.107C130.511 159.766 130.74 159.427 131.081 159.055C131.194 159.023 131.171 159.004 131.179 159.161C131.189 159.557 131.164 159.801 131.195 160.038C131.913 165.453 132.89 170.85 133.284 176.288C133.64 181.198 133.615 186.17 133.296 191.085C132.885 197.409 130.471 203.004 126.052 207.69C124.77 209.049 123.389 210.515 122.701 212.197C120.581 217.377 119.23 222.771 120 228.449C120.474 231.936 121.09 235.403 121.664 238.876C122.296 242.695 122.929 246.514 123.606 250.325C124.341 254.461 125.127 258.588 125.875 262.628C126.558 258.553 127.11 254.416 127.968 250.343C129.391 243.591 131.391 237.024 135.156 231.131Z" fill="#47D8E0"/>
<path d="M135.001 121.138C135.171 121.756 135.182 122.366 135.177 123.127C130.508 125.102 126.4 127.482 123.935 132.191C120.665 138.438 115.293 142.055 108.425 143.503C103.84 144.47 99.2649 145.488 94.6606 146.352C93.3404 146.6 91.9342 146.39 90.3729 146.39C100.426 130.597 116.12 125.301 133.217 122.119C126.892 121.399 120.567 120.679 114.242 119.959C116.891 117.549 119.659 119.821 122.797 119.121C119.621 118.14 116.871 117.261 114.104 116.441C108.208 114.694 102.515 112.602 98.2163 107.883C94.2848 103.568 91.8482 98.464 90.7811 92.82C89.9516 88.4332 89.7274 83.9324 89.2085 79.2511C96.0538 79.1883 101.865 80.744 107.065 84.2573C113.9 88.8752 118.28 95.4587 121.401 102.925C123.109 107.01 124.498 111.227 126.145 115.339C126.747 116.84 127.64 118.233 128.482 119.625C128.697 119.98 129.196 120.301 129.611 120.375C131.345 120.681 133.097 120.887 135.001 121.138Z" fill="#47D8E0"/>
<path d="M311.688 305.922C311.562 304.147 311.554 302.315 311.561 300.331C315.66 295.905 319.658 291.543 323.863 287.388C326.304 284.977 328.937 282.706 331.728 280.713C336.695 277.166 342.366 275.058 348.309 273.847C352.454 273.002 356.675 272.452 360.888 272.035C364.693 271.658 368.534 271.641 372.788 271.445C370.954 275.048 369.315 278.316 367.632 281.562C364.362 287.866 360.188 293.521 354.842 298.199C350.344 302.134 345.107 304.487 339.053 305.291C335.091 305.816 331.423 305.171 327.742 304.104C322.163 302.488 316.873 303.061 311.688 305.922Z" fill="#47D8E0"/>
<path d="M135.04 300.134C135.159 301.971 135.162 303.762 135.161 305.719C132.052 304.049 128.573 303.236 125.088 303.145C122.511 303.078 119.866 303.865 117.324 304.541C108.242 306.954 100.262 304.695 93.0447 299.046C86.9701 294.292 82.6108 288.153 79.0158 281.431C77.3123 278.246 75.7453 274.988 74.2334 271.995C79.0391 271.995 83.8216 271.556 88.4917 272.092C96.6506 273.029 104.742 274.631 111.963 278.879C114.736 280.511 117.502 282.296 119.863 284.457C123.613 287.889 127.034 291.682 130.567 295.349C132.056 296.894 133.475 298.506 135.04 300.134Z" fill="#47D8E0"/>
<path d="M311.731 126.172C311.493 125.708 311.419 125.249 311.457 124.733C314.098 124.937 316.641 125.507 319.151 125.387C323.094 125.197 327.016 124.557 330.943 124.081C337.651 123.268 344.445 122.26 350.848 125.178C353.892 126.565 356.732 128.617 359.292 130.802C364.61 135.339 367.851 141.393 370.787 147.838C368.407 148.56 366.06 149.382 363.657 149.98C357.919 151.408 352.256 150.818 346.781 148.796C341.723 146.929 337.155 144.145 333.246 140.405C330.058 137.354 327.065 134.097 323.833 131.097C322.078 129.467 320.172 127.79 318.02 126.863C316.215 126.086 313.954 126.366 311.731 126.172Z" fill="#47D8E0"/>
<path d="M231.344 106.917C224.988 107.088 218.694 107.136 212.238 107.124C216.665 104.339 218.441 99.5731 220.859 95.2192C225.006 87.7536 230.022 81.0462 238.11 77.3232C243.156 75.0004 248.374 73.8372 253.926 74.9306C256.989 75.534 260.038 76.2145 263.375 76.9198C260.73 78.9283 258.146 80.3231 256.338 82.3938C253.412 85.7436 250.761 89.3916 248.419 93.1762C244.332 99.7829 238.782 104.378 231.344 106.917Z" fill="#47D8E0"/>
<path d="M153.992 106.921C150.781 107.123 147.545 107.3 144.316 107.217C140.566 107.121 137.503 108.101 135.639 111.754C133.235 109.743 130.779 107.838 128.706 105.582C126.216 102.87 125.059 99.4029 123.902 95.9278C122.283 91.064 120.325 86.3125 118.407 81.2349C121.24 81.8468 124.081 82.3891 126.884 83.0803C133.004 84.5889 138.513 87.4269 143.393 91.3446C146.935 94.1883 149.57 97.886 151.744 101.865C152.604 103.44 153.234 105.14 153.992 106.921Z" fill="#47D8E0"/>
<path d="M311.704 335.136C311.473 332.939 311.31 330.759 311.279 328.578C311.244 326.145 311.329 323.711 311.464 321.162C317.247 320.638 322.259 322.46 326.729 325.803C331.621 329.462 335.498 334.038 338.647 339.279C340.152 341.783 341.941 344.126 343.715 346.456C344.289 347.209 345.224 347.688 345.957 348.265C343.103 349.845 338.965 349.951 335.417 349.058C328.631 347.35 322.833 343.745 317.319 339.62C315.431 338.207 313.657 336.645 311.704 335.136Z" fill="#47D8E0"/>
<path d="M135 321.073C135.173 325.655 135.178 330.242 135.168 334.979C133.818 336.175 132.459 337.194 131.149 338.273C125.672 342.781 119.669 346.464 112.948 348.703C108.929 350.041 104.667 350.209 100.548 348.274C104.186 346.409 106.017 342.973 107.907 339.71C110.663 334.95 114.06 330.83 118.246 327.258C121.21 324.73 124.422 322.725 128.168 321.789C130.314 321.252 132.606 321.296 135 321.073Z" fill="#47D8E0"/>
<path d="M295.321 106.926C294.688 107.112 294.093 107.236 293.498 107.236C285.615 107.232 277.732 107.211 269.711 107.126C272.788 99.6786 276.997 93.1238 284.693 89.6722C288.824 87.8194 293.2 87.1712 297.582 88.6167C301.093 89.7747 304.479 91.3084 308.381 92.8581C302.531 95.5386 299.976 100.481 296.758 104.801C296.271 105.454 295.825 106.137 295.321 106.926Z" fill="#47D8E0"/>
<path d="M311.722 122.965C311.492 122.63 311.416 122.268 311.454 121.848C313.185 120.973 314.802 120.156 316.419 119.341C319.686 117.695 321.322 114.722 323.077 111.694C326.746 105.366 332.598 101.976 339.636 100.58C344.529 99.6096 349.468 98.8709 354.384 98.0154C354.834 97.9372 355.267 97.7629 355.752 97.6201C353.204 108 328.621 122.142 311.722 122.965Z" fill="#47D8E0"/>
<path d="M199.15 106.913C196.645 107.117 194.134 107.238 191.623 107.235C186.89 107.229 182.158 107.151 177.279 107.071C176.759 102.265 176.26 97.4968 176.059 92.7156C175.94 89.8771 176.292 87.0188 176.442 83.9573C186.512 89.1866 195.495 95.307 199.15 106.913Z" fill="#47D8E0"/>
<path d="M135.038 138.125C135.242 139.698 135.379 141.311 135.38 142.925C135.383 148.332 135.338 153.739 135.08 159.267C133.624 159.26 132.397 159.132 131.171 159.004C131.171 159.004 131.194 159.024 131.206 159.032C129.752 158.433 128.233 157.923 126.827 157.197C122.376 154.898 119.256 151.298 117.012 146.885C116.414 145.71 115.823 144.531 115.426 143.746C117.97 143.341 120.551 143.216 122.947 142.484C126.996 141.247 130.927 139.626 135.038 138.125Z" fill="#47D8E0"/>
<path d="M259.132 106.901C254.51 107.087 249.906 107.136 245.163 107.12C247.878 104.501 250.665 101.865 253.609 99.4173C256.055 97.3834 259.027 95.9496 260.688 92.635C262.062 97.8189 260.873 102.32 259.132 106.901Z" fill="#47D8E0"/>
<path d="M303.19 129.806C303.209 130.406 303.245 131.006 303.245 131.606C303.247 193.496 303.247 255.386 303.247 317.276C303.247 317.92 303.247 318.564 303.247 319.252C249.915 319.252 196.758 319.252 143.449 319.252C143.449 256.161 143.449 193.146 143.645 129.961C157.272 129.791 170.701 129.787 184.131 129.789C223.817 129.794 263.503 129.8 303.19 129.806ZM235.112 138.371C209.454 138.371 183.797 138.37 158.14 138.372C155.387 138.372 154.912 138.836 154.78 141.593C154.763 141.953 154.769 142.314 154.769 142.675C154.769 163.062 154.767 183.449 154.77 203.835C154.771 206.873 155.319 207.42 158.325 207.42C201.629 207.421 244.933 207.421 288.237 207.42C291.411 207.42 291.771 207.063 291.772 203.916C291.773 183.228 291.773 162.541 291.772 141.853C291.772 138.667 291.47 138.371 288.233 138.371C270.646 138.37 253.06 138.371 235.112 138.371ZM222.822 265.164C201.207 265.164 179.592 265.162 157.977 265.165C155.269 265.166 154.734 265.564 154.731 267.827C154.712 282.496 154.714 297.165 154.729 311.834C154.731 313.858 155.152 314.235 157.195 314.235C183.446 314.239 209.697 314.225 235.948 314.268C237.687 314.27 238.242 313.707 238.236 311.981C238.185 297.191 238.209 282.402 238.204 267.613C238.203 265.444 237.908 265.17 235.647 265.166C231.492 265.158 227.338 265.164 222.822 265.164ZM205.7 223.326C205.569 226.503 206.657 227.952 209.297 227.953C235.557 227.965 261.816 227.965 288.076 227.953C290.359 227.952 291.642 226.626 291.683 224.367C291.727 221.942 290.077 220.385 287.411 220.384C261.693 220.38 235.976 220.388 210.258 220.369C208.178 220.367 206.651 221.113 205.7 223.326ZM157.867 235.51C155.285 236.563 154.369 238.083 155.088 240.121C155.591 241.548 157.539 242.753 159.461 242.754C180.884 242.761 202.308 242.764 223.732 242.736C224.549 242.735 225.421 242.542 226.169 242.213C227.55 241.606 228.485 240.685 228.471 238.931C228.457 237.168 227.485 236.263 226.095 235.705C225.231 235.357 224.232 235.202 223.293 235.2C202.231 235.173 181.168 235.177 160.105 235.19C159.455 235.19 158.804 235.342 157.867 235.51ZM260.414 242.758C269.446 242.758 278.478 242.766 287.51 242.754C290.37 242.75 291.681 241.537 291.683 238.98C291.685 236.469 290.299 235.185 287.496 235.184C270.396 235.175 253.295 235.175 236.194 235.184C233.398 235.186 232.027 236.478 232.036 239.008C232.045 241.568 233.361 242.756 236.208 242.757C244.156 242.76 252.105 242.758 260.414 242.758ZM197.519 257.556C211.969 257.556 226.418 257.56 240.868 257.553C243.286 257.551 245.038 255.953 245.051 253.794C245.064 251.625 243.318 249.983 240.923 249.982C223.644 249.973 206.365 249.973 189.085 249.983C186.862 249.984 185.08 251.685 185.06 253.739C185.041 255.792 186.822 257.529 189.03 257.55C191.739 257.576 194.449 257.556 197.519 257.556ZM291.298 297.647C292.338 294.621 291.352 292.735 288.298 291.997C287.724 291.858 287.108 291.852 286.511 291.852C273.094 291.844 259.676 291.841 246.259 291.859C245.491 291.86 244.696 291.959 243.962 292.175C242.091 292.723 240.874 294.494 241.091 296.205C241.307 297.908 243.134 299.417 245.08 299.419C259.28 299.429 273.479 299.46 287.678 299.358C288.839 299.349 289.993 298.404 291.298 297.647ZM288.68 272.311C291.136 271.235 292.057 269.794 291.666 267.64C291.378 266.055 289.39 264.776 287.191 264.776C273.397 264.774 259.603 264.756 245.81 264.812C244.731 264.816 243.49 265.103 242.614 265.689C241.21 266.628 240.73 268.11 241.377 269.816C241.975 271.391 243.473 272.349 245.544 272.35C259.82 272.355 274.095 272.347 288.68 272.311ZM242.993 278.639C240.762 280.665 240.319 282.69 242.189 284.294C243.21 285.169 244.9 285.638 246.293 285.648C259.3 285.747 272.307 285.707 285.315 285.706C286.037 285.706 286.763 285.746 287.482 285.693C290.177 285.493 291.766 283.894 291.682 281.509C291.604 279.301 290.086 278.131 287.258 278.13C273.347 278.126 259.437 278.122 245.526 278.144C244.765 278.145 244.005 278.374 242.993 278.639ZM200.977 222.06C199.884 221.501 198.796 220.466 197.699 220.456C184.827 220.343 171.953 220.36 159.081 220.415C157.585 220.421 156.088 220.829 155.304 222.409C153.85 225.34 155.666 227.951 159.225 227.955C171.857 227.97 184.49 227.963 197.122 227.96C200.728 227.959 202.324 225.697 200.977 222.06ZM283.185 257.556C284.75 257.556 286.316 257.59 287.88 257.548C290.366 257.48 291.689 256.13 291.683 253.737C291.677 251.362 290.339 249.994 287.821 249.989C276.085 249.964 264.349 249.966 252.613 250.005C251.879 250.007 251.038 250.243 250.435 250.649C248.969 251.639 248.273 253.063 248.805 254.86C249.258 256.388 250.934 257.549 252.672 257.551C262.723 257.561 272.774 257.556 283.185 257.556ZM282.835 306.387C281.803 305.067 280.47 304.463 278.774 304.467C267.705 304.49 256.635 304.471 245.565 304.484C242.905 304.487 241.114 306.078 241.081 308.387C241.051 310.451 242.985 312.055 245.529 312.056C256.659 312.059 267.789 312.06 278.919 312.055C282.388 312.053 283.964 309.927 282.835 306.387ZM180.057 250.739C179.146 250.485 178.238 250.021 177.326 250.011C171.245 249.946 165.164 249.964 159.083 249.984C156.631 249.992 154.83 251.568 154.752 253.689C154.673 255.825 156.573 257.542 159.108 257.55C165.189 257.569 171.269 257.562 177.35 257.553C179.095 257.55 180.531 256.97 181.298 255.267C182.068 253.556 181.559 252.134 180.057 250.739Z" fill="white"/>
<path d="M303.216 129.638C263.504 129.8 223.818 129.794 184.131 129.789C170.702 129.787 157.272 129.791 143.675 129.795C143.507 128.124 143.507 126.45 143.507 124.654C196.702 124.654 249.868 124.654 303.241 124.654C303.241 126.271 303.241 127.871 303.216 129.638Z" fill="#CCCCCC"/>
<path d="M229.543 335.809C227.299 339.807 224.003 341.454 219.578 340.931C216.565 340.574 213.371 337.792 212.408 334.593C210.941 329.719 213.654 324.601 218.483 323.136C223.36 321.655 228.701 324.299 229.873 329.192C230.358 331.218 229.725 333.511 229.543 335.809Z" fill="#464646"/>
<path d="M225.109 114.429C225.173 115.485 225.453 116.611 225.036 117.342C224.468 118.339 223.124 118.655 222.261 117.75C221.701 117.164 221.383 115.954 221.56 115.157C221.801 114.068 222.77 113.401 224.062 113.86C224.393 113.977 224.698 114.168 225.109 114.429Z" fill="#454545"/>
<path d="M318.961 163.158C318.792 163.046 318.699 162.873 318.606 162.701C318.771 162.723 318.936 162.744 319.14 162.865C319.131 163.008 319.084 163.053 318.961 163.158Z" fill="black"/>
<path d="M235.293 138.371C253.06 138.371 270.647 138.37 288.234 138.371C291.471 138.372 291.772 138.667 291.772 141.853C291.773 162.541 291.774 183.229 291.772 203.916C291.772 207.063 291.411 207.42 288.238 207.42C244.934 207.421 201.629 207.421 158.325 207.42C155.319 207.42 154.772 206.873 154.771 203.836C154.768 183.449 154.769 163.062 154.77 142.675C154.77 142.314 154.763 141.953 154.78 141.593C154.912 138.836 155.388 138.373 158.141 138.372C183.798 138.37 209.455 138.371 235.293 138.371ZM207.822 164.275C202.99 172.779 206.122 183.514 214.628 188.401C223.28 193.37 234.281 189.731 238.683 181.843C243.541 173.14 240.71 162.242 232.241 157.507C224.287 153.059 212.803 155.065 207.822 164.275Z" fill="#969696"/>
<path d="M223.003 265.164C227.338 265.164 231.493 265.158 235.647 265.166C237.909 265.17 238.203 265.444 238.204 267.613C238.21 282.402 238.185 297.191 238.237 311.981C238.243 313.707 237.688 314.27 235.949 314.268C209.698 314.225 183.447 314.239 157.195 314.235C155.152 314.235 154.732 313.858 154.73 311.834C154.715 297.165 154.712 282.496 154.732 267.827C154.735 265.564 155.27 265.166 157.977 265.165C179.592 265.162 201.207 265.164 223.003 265.164Z" fill="#C8C8C8"/>
<path d="M205.743 223.186C206.652 221.113 208.179 220.367 210.259 220.369C235.976 220.388 261.694 220.38 287.411 220.384C290.078 220.385 291.727 221.942 291.683 224.367C291.643 226.626 290.359 227.952 288.076 227.953C261.817 227.965 235.557 227.965 209.298 227.953C206.657 227.952 205.57 226.503 205.743 223.186Z" fill="#EFEFEF"/>
<path d="M158.011 235.467C158.805 235.343 159.456 235.19 160.106 235.19C181.169 235.177 202.232 235.173 223.294 235.2C224.233 235.202 225.232 235.357 226.096 235.705C227.486 236.264 228.458 237.168 228.472 238.931C228.486 240.685 227.551 241.606 226.17 242.213C225.422 242.542 224.549 242.735 223.733 242.736C202.309 242.764 180.885 242.761 159.461 242.754C157.54 242.753 155.592 241.548 155.089 240.121C154.37 238.083 155.286 236.563 158.011 235.467Z" fill="#EFEFEF"/>
<path d="M260.234 242.758C252.105 242.758 244.157 242.76 236.209 242.757C233.361 242.756 232.046 241.568 232.037 239.008C232.028 236.478 233.399 235.186 236.195 235.184C253.295 235.175 270.396 235.175 287.497 235.184C290.299 235.185 291.685 236.469 291.683 238.98C291.681 241.537 290.37 242.75 287.511 242.754C278.479 242.766 269.447 242.758 260.234 242.758Z" fill="#EFEFEF"/>
<path d="M197.339 257.556C194.449 257.556 191.739 257.576 189.03 257.55C186.823 257.529 185.041 255.792 185.061 253.739C185.08 251.685 186.862 249.984 189.086 249.983C206.365 249.973 223.644 249.973 240.923 249.982C243.318 249.983 245.064 251.625 245.051 253.794C245.038 255.954 243.287 257.551 240.868 257.553C226.419 257.56 211.969 257.556 197.339 257.556Z" fill="#EFEFEF"/>
<path d="M291.224 297.77C289.994 298.404 288.839 299.349 287.679 299.358C273.48 299.46 259.28 299.429 245.08 299.418C243.134 299.417 241.307 297.908 241.091 296.204C240.875 294.494 242.092 292.723 243.962 292.174C244.696 291.959 245.491 291.86 246.259 291.859C259.676 291.841 273.094 291.844 286.511 291.852C287.108 291.852 287.724 291.858 288.298 291.997C291.352 292.735 292.338 294.621 291.224 297.77Z" fill="#EFEFEF"/>
<path d="M288.526 272.327C274.096 272.347 259.82 272.354 245.544 272.35C243.473 272.349 241.976 271.391 241.378 269.816C240.73 268.11 241.211 266.628 242.614 265.689C243.49 265.103 244.731 264.816 245.81 264.812C259.603 264.756 273.397 264.774 287.191 264.776C289.391 264.776 291.378 266.055 291.666 267.639C292.058 269.794 291.136 271.235 288.526 272.327Z" fill="#EFEFEF"/>
<path d="M243.118 278.568C244.005 278.374 244.765 278.145 245.526 278.144C259.437 278.122 273.347 278.126 287.258 278.13C290.086 278.131 291.604 279.301 291.682 281.509C291.766 283.894 290.177 285.493 287.482 285.693C286.763 285.746 286.037 285.706 285.315 285.706C272.308 285.707 259.3 285.747 246.294 285.648C244.9 285.638 243.21 285.169 242.189 284.294C240.319 282.69 240.762 280.665 243.118 278.568Z" fill="#EFEFEF"/>
<path d="M201.059 222.173C202.325 225.697 200.729 227.959 197.123 227.96C184.491 227.963 171.858 227.97 159.225 227.955C155.666 227.951 153.85 225.34 155.304 222.409C156.088 220.829 157.586 220.421 159.081 220.415C171.954 220.36 184.828 220.343 197.7 220.456C198.797 220.466 199.885 221.501 201.059 222.173Z" fill="#EFEFEF"/>
<path d="M283.005 257.556C272.774 257.556 262.723 257.561 252.673 257.551C250.935 257.549 249.258 256.388 248.806 254.86C248.274 253.063 248.97 251.639 250.436 250.649C251.038 250.243 251.88 250.007 252.614 250.005C264.349 249.966 276.085 249.963 287.821 249.989C290.339 249.994 291.677 251.362 291.683 253.737C291.69 256.129 290.366 257.48 287.88 257.547C286.316 257.59 284.751 257.556 283.005 257.556Z" fill="#EFEFEF"/>
<path d="M282.894 306.514C283.965 309.927 282.389 312.054 278.919 312.055C267.789 312.06 256.659 312.059 245.529 312.056C242.986 312.055 241.052 310.451 241.081 308.387C241.115 306.078 242.906 304.487 245.565 304.484C256.635 304.471 267.705 304.49 278.775 304.467C280.47 304.463 281.804 305.067 282.894 306.514Z" fill="#EFEFEF"/>
<path d="M180.175 250.813C181.559 252.134 182.068 253.556 181.298 255.267C180.531 256.97 179.096 257.55 177.351 257.553C171.27 257.562 165.189 257.569 159.108 257.55C156.573 257.542 154.673 255.825 154.752 253.689C154.83 251.568 156.632 249.991 159.084 249.984C165.164 249.964 171.246 249.946 177.326 250.011C178.239 250.021 179.147 250.485 180.175 250.813Z" fill="#EFEFEF"/>
<path d="M207.888 164.16C212.804 155.065 224.288 153.059 232.241 157.507C240.71 162.242 243.541 173.14 238.683 181.843C234.281 189.731 223.28 193.37 214.629 188.401C206.122 183.514 202.991 172.779 207.888 164.16ZM224.573 176.297C226.145 175.247 227.716 174.198 229.327 173.121C229.002 172.648 228.911 172.392 228.729 172.27C225.484 170.091 222.257 167.883 218.961 165.783C217.689 164.973 217.584 166.004 217.583 166.931C217.579 170.957 217.573 174.984 217.594 179.01C217.597 179.437 217.771 179.864 217.949 180.665C220.268 179.133 222.31 177.783 224.573 176.297Z" fill="#FEFEFE"/>
<path d="M224.463 176.365C222.31 177.783 220.268 179.132 217.949 180.664C217.771 179.863 217.597 179.437 217.594 179.01C217.573 174.983 217.579 170.957 217.583 166.93C217.584 166.004 217.689 164.972 218.961 165.783C222.257 167.883 225.484 170.091 228.729 172.27C228.911 172.392 229.002 172.648 229.327 173.121C227.716 174.198 226.145 175.247 224.463 176.365Z" fill="#979797"/>
</g>
<defs>
<filter id="filter0_d_1_833" x="56.7051" y="67.71" width="333.319" height="296.74" filterUnits="userSpaceOnUse" color-interpolation-filters="sRGB">
<feFlood flood-opacity="0" result="BackgroundImageFix"/>
<feColorMatrix in="SourceAlpha" type="matrix" values="0 0 0 0 0 0 0 0 0 0 0 0 0 0 0 0 0 0 127 0" result="hardAlpha"/>
<feOffset dy="4"/>
<feGaussianBlur stdDeviation="2"/>
<feComposite in2="hardAlpha" operator="out"/>
<feColorMatrix type="matrix" values="0 0 0 0 0 0 0 0 0 0 0 0 0 0 0 0 0 0 0.25 0"/>
<feBlend mode="normal" in2="BackgroundImageFix" result="effect1_dropShadow_1_833"/>
<feBlend mode="normal" in="SourceGraphic" in2="effect1_dropShadow_1_833" result="shape"/>
</filter>
</defs>
</svg>
