<?xml version="1.0" encoding="UTF-8"?>
<svg id="Layer_2" data-name="Layer 2" xmlns="http://www.w3.org/2000/svg" viewBox="0 0 320 661.51">
  <defs>
    <style>
      .cls-1 {
        fill: none;
        stroke: #818285;
        stroke-width: 3px;
      }

      .cls-1, .cls-2 {
        stroke-miterlimit: 10;
      }

      .cls-3 {
        fill: #e63e96;
      }

      .cls-4 {
        fill: #fff;
      }

      .cls-5 {
        fill: #ffde11;
      }

      .cls-6 {
        fill: #eada1c;
      }

      .cls-7 {
        fill: #818285;
      }

      .cls-8 {
        fill: #231f20;
      }

      .cls-9 {
        fill: #7057a4;
      }

      .cls-10 {
        fill: #595a5c;
      }

      .cls-11 {
        fill: #50bc81;
      }

      .cls-2 {
        fill: #3fbfb6;
        stroke: #1d733a;
      }

      .cls-12 {
        fill: #f7b1c4;
        opacity: .57;
      }
    </style>
  </defs>
  <g id="bruja-won-game">
    <g>
      <g>
        <path class="cls-2" d="M17.79,306.15c-2.46,21.99,7.98,41.78,9.34,41.31,.88-.3-1.55-9.38-.39-24.17,.91-11.5,3.54-20.67,4.29-20.51,.85,.19-2.8,11.82,.72,25.44,1.84,7.11,4.26,9.45,4.24,16.28,0,1.89-.03,9.49-3.86,13.32-5.14,5.13-13.34-.34-13.88,1.48-.56,1.88,7.22,10.76,13.5,8.39,8.47-3.21,9.5-25.18,10.7-24.86,.89,.24,1.64,12.76-3.76,24.37-4.09,8.8-7.86,8.81-11.57,15.29-9.9,17.29-.16,47.03,.77,46.86,.54-.1-1.92-10.27,1.16-24.17,.85-3.84,4.84-20.28,11.57-20.72,2.13-.14,4.72,1.3,5.44,3.73,1.38,4.68-5.17,9.92-8.91,16.99-9.84,18.6,.5,48.59,1.93,48.34,1.5-.26-3.4-34.62,3.5-37.67,1.26-.56,3.05-.14,3.9,1.17,1.87,2.84-1.85,8.13-2.54,14.9-1.26,12.42,8.26,24.19,9.66,23.3,1.29-.82-4.79-12.31-.88-20.78,2.36-5.12,7.91-8.11,9.88-6.18,3.12,3.07-2.39,18.95-5.27,27.24-5.16,14.88-9.76,21.42-8.34,23.3,1.53,2.03,9.14-2.46,14.93-9.55,10.83-13.27,7.71-26.37,14.19-34.53,.79-.99,1.63-1.77,2.55-2.37,2.68-1.75,7.33-3.45,9.97-1.28,3.21,2.64,2.58,10.23,.57,15.24-3.75,9.38-13.04,11.55-12.48,13.53,.47,1.65,7.64,2.56,13.17-1.59,9.15-6.89,6.65-22.31,11.87-23.43,4-.86,10.06,7.18,8.92,12.29-1.1,4.94-8.52,5.36-8.32,7.16,.3,2.61,16.31,5.88,22.18-2.39,3.04-4.29,2.2-10.05,3.39-10.13,1.86-.14,1.23,14.25,9.09,23.67,5.92,7.09,14.79,9.1,15.94,7.16,1.14-1.91-6-6.35-6.24-14.33-.24-8.09,6.7-16.89,11.09-15.92,4.08,.9,2.75,9.52,9.01,19.9,7.67,12.72,20.93,18.48,22.18,16.72,.66-.94-2.4-3.51-5.55-10.35-1.37-2.99-8.6-18.71-2.77-27.86,2.4-3.76,6.07-4.95,8.09-5.61,6.39-2.07,14.43-.32,18.25,4.81,7.98,10.72-4.05,34.05-2.08,35.03,1.65,.82,13.31-13.97,12.48-31.84-.54-11.45-3.77-21.79-3.11-22.03,.64-.23,2.28,10.24,9.87,17.22,4.43,4.08,9.34,5.54,9.6,5.02,.27-.55-4.78-2.73-7.81-8.64-.48-.94-4.91-9.84-.95-14.97,2.61-3.38,8.09-4.14,10.56-1.56,3.82,3.98-.44,14.99,.51,15.32,.83,.29,5.85-7.63,6.48-18.31,.39-6.63-1.01-12.65,1.66-14.47,1.17-.8,2.55-.5,5.12-2.11,1.48-.93,2.27-1.49,2.45-2.27,.8-3.43-11.86-6.15-15.03-14.69-4.23-11.4,9.93-29.08,11.79-28.07,.99,.54-1.62,6.33,1.22,10.65,1.25,1.9,2.63,2.12,4,3.13,6.66,4.94,4.15,22.39,4.13,22.38-.02,0,3.73-14.4-1.63-31.12-4.31-13.44-12.34-22.64-11.92-23.03,1.04-.95,17.51,17.81,18.17,17.06,.25-.28-2.22-2.66-1.71-5.29,.5-2.62,3.43-2.87,3.96-5.28,.57-2.59-2.14-5.42-2.94-6.3-7.2-7.92-13.76-26.61-10.47-30.85,2.19-2.83,9.36,0,13.48,3.4,6.42,5.31,8.78,14.83,7.6,21.74-.56,3.26-1.93,6.06-1.68,6.2,.3,.16,2.87-3.43,3.95-7.93,1.75-7.34,.43-14.16-1.64-20.77-5.6-17.82-11.21-16.75-12.13-26.45-1.2-12.72,7.27-19.24,4.19-28.13-1.75-5.05-6.31-6.41-7.98-7.05-17.68-6.85-27.11-56.78-41.19-81.13-19.56-33.83-56.77-33.3-75.69-33.03,0,0-54.84,.78-93.15,57.91-5.1,7.6-11.94,18.05-14.48,34.08-2.64,16.6,2.16,21.45,0,37.87-3,22.83-14.58,24-16.88,44.52Z"/>
        <path class="cls-2" d="M95.62,170.27c-4.52,1.76-24.9,10.3-35.9,35.2-7.63,17.25-6.81,33.45-6.13,40.23"/>
        <path class="cls-2" d="M37.06,272.33c-3.9,4.8-10.74,14.62-13.54,29.17-1.28,6.65-1.39,12.56-1.13,17.18"/>
        <path class="cls-2" d="M47.22,286.92c-1.85,1.79-9.3,9.4-10.72,22.36-1.07,9.7,1.82,17.18,3.1,20.09"/>
        <path class="cls-2" d="M49.76,267.47c2.72,8.17,6.62,23.23,5.08,42.13-1.06,12.97-4.31,23.27-7.05,30.14"/>
        <path class="cls-2" d="M129.82,151.66c-6.27,5.07-32.76,27.68-40,69.6-5.03,29.14,1.8,52.73,5.25,62.64"/>
        <path class="cls-2" d="M70.84,250.96c-3.99,13.08-9.36,36.78-5.25,65.42,1.78,12.41,4.92,22.87,8.08,31.09"/>
        <path class="cls-2" d="M172.25,147.95c4.91,2.14,22.8,10.7,33.53,33.41,8.62,18.24,7.87,35.55,7.27,42.22"/>
        <path class="cls-2" d="M152.45,155.84c5.37,8.57,25.62,43,20.61,89.55-3.17,29.38-14.94,50.06-21.41,59.86"/>
        <path class="cls-2" d="M138.31,176.72c-9.49,21.19-26.88,67.42-22.63,127.14,2.32,32.56,10.33,58.71,17.37,76.56"/>
        <path class="cls-2" d="M238.91,238.43c1.76,4.79,4.87,10.87,10.5,13.92,4.8,2.6,8.77,1.56,10.1,4.64,1.23,2.85-1.1,6.24-4.44,13.46-2.36,5.09-4.55,10.64-6.46,16.7"/>
        <path class="cls-2" d="M231.24,285.29c.4,6.48,2.09,21.26,11.31,35.73,6.74,10.57,14.64,16.49,19.39,19.49"/>
        <path class="cls-2" d="M184.77,295.5c4.18,10.12,9.3,25.7,10.91,45.47,2.28,28.04-3.65,50.32-7.68,62.18"/>
        <path class="cls-2" d="M144.37,289.94c-3.29,12.72-8.74,40.24-1.62,73.31,5.16,23.99,14.86,41.2,21.41,51.04"/>
        <path class="cls-2" d="M164.98,322.88c3.08,14.15,5.82,30.15,7.68,47.79,2.59,24.67,2.84,46.93,2.02,65.89"/>
        <path class="cls-2" d="M192.85,232.4c8.68,13.64,23.63,41.01,29.09,79.81,4.56,32.38,.59,59.08-2.83,74.7"/>
        <path class="cls-2" d="M60.53,463.82c4.23-7.79,9.5-19.44,12.85-34.55,2.9-13.06,3.44-24.51,3.28-32.98"/>
        <path class="cls-2" d="M65.18,386.86c-2.61,1.39-8.2,4.9-12.31,12.25-6.32,11.32-4.31,23.21-3.83,25.76"/>
        <path class="cls-2" d="M57.52,346.97c.29,1.55,2.06,12.02-4.1,21.36-6.71,10.17-17.14,10.37-18.33,10.37"/>
        <path class="cls-2" d="M92.53,315.25c4.01,6.05,14.58,23.66,15.32,49.32,.8,28.14-10.75,47.83-14.5,53.71"/>
        <path class="cls-2" d="M117.7,400.06c.62,1.28,9.89,21,7.66,34.87-.99,6.17-3.56,10.37-3.56,10.37-2.24,3.66-4.91,5.8-6.56,6.91"/>
        <path class="cls-2" d="M149.4,411.75c-2.38,3.36-9.32,14-9.55,29.58-.17,11.02,3.11,19.36,4.98,23.38"/>
        <path class="cls-2" d="M196.93,410.79c1.18-.03,6.71,0,11.06,4.86,4.02,4.49,5.49,11.39,3.9,17.93"/>
        <path class="cls-2" d="M144.87,209.65c-4.85,7.45-11.81,20.07-15.94,37.49-4.69,19.77-3.56,36.59-2.28,46.21"/>
        <path class="cls-2" d="M175.24,173.03c6.61,1.88,11.45,7.86,12.15,14.82,.7,7.01-3.08,12.14-3.8,13.08"/>
      </g>
      <g>
        <path class="cls-10" d="M147.49,477.21c2.4-14.41,13.33-25.82,27.16-28.54,15.37-3.02,31.33,5.28,38.07,20.18-.06,7-.29,12.88-.52,17.29-.3,5.79-.64,10.17-1.08,15.75-.05,.63-.7,8.85-1.46,16.47-1.47,14.74-3.31,28.82-5.41,42.22-3.78,10.96-14.41,17.82-25.5,16.52-10.95-1.29-19.75-10.22-21.23-21.6-3.34-26.09-6.69-52.19-10.03-78.28Z"/>
        <path class="cls-10" d="M173.19,657.07c.44,1.42,1.55,2.48,2.88,2.72,1.71,.31,3.53-.81,4.2-2.72,6.79-19.47,13.25-41.59,18.41-66.18,2.93-13.96,5.15-27.3,6.82-39.92,.46-16.51-13.09-29.07-26.74-27.71-12.12,1.21-22.43,13.2-21.84,27.71,5.42,35.36,10.85,70.73,16.27,106.09Z"/>
      </g>
      <path class="cls-10" d="M134.43,478.89c-2.4-14.41-13.33-25.82-27.16-28.54-15.37-3.02-31.33,5.28-38.07,20.18,.06,7,.29,12.88,.52,17.29,.3,5.79,.64,10.17,1.08,15.75,.05,.63,.7,8.85,1.46,16.47,1.47,14.74,3.31,28.82,5.41,42.22,3.78,10.96,14.41,17.82,25.5,16.52,10.95-1.29,19.75-10.22,21.23-21.6,3.34-26.09,6.69-52.19,10.03-78.28Z"/>
      <path class="cls-10" d="M108.72,658.74c-.44,1.42-1.55,2.48-2.88,2.72-1.71,.31-3.53-.81-4.2-2.72-6.79-19.47-13.25-41.59-18.41-66.18-2.93-13.96-5.15-27.3-6.82-39.92-.46-16.51,13.09-29.07,26.74-27.71,12.12,1.21,22.43,13.2,21.84,27.71-5.42,35.36-10.85,70.73-16.27,106.09Z"/>
      <path class="cls-10" d="M99.28,337.8c4.38-3.1,6.35-8.49,4.95-13.32-1.76-6.07-7.89-8-8.32-8.12-15,6.85-30.74,14.6-47.02,23.37-16.12,8.69-31.1,17.48-44.95,26.16-4.33,5.52-5.17,12.97-2.15,19.1,3.37,6.84,10.96,10.83,18.78,9.76,7.39-4.59,61.82-44.99,78.71-56.95Z"/>
      <g>
        <path class="cls-10" d="M95.65,316.37c1.78-2.32,17.85-22.6,45.72-22.54,27.69,.07,43.64,20.17,45.44,22.53,8.25,23.77,16.39,53.46,21.22,88.17,4.22,30.34,4.94,57.54,4.12,80.37-1.85,1.7-18.9,16.93-41.16,12.23-12.51-2.64-20.42-10.25-23.55-13.66-1.05,.55-3.36,1.57-6.42,1.47-2.64-.09-4.62-.98-5.65-1.52-3.42,3.46-11.58,10.75-24.19,13.29-22.13,4.46-39.07-9.49-41.38-11.45-.97-23.44-.3-52.12,4.55-84.4,5.01-33.41,13.17-61.87,21.3-84.48Z"/>
        <g>
          <path class="cls-7" d="M95.65,316.37c-.65-.18-8.56,23.43-14.71,49.97-2.81,12.09-4.95,23.64-6.58,34.51-1.14,7.62-3.17,22.5-4.24,41.68-1.19,21.24-.92,42.7-.31,42.72,.8,.02-.6-36.17,6.35-83.17,7.41-50.11,20.3-85.48,19.49-85.71Z"/>
          <path class="cls-7" d="M187.01,316.89c.65-.18,7.91,22.54,14.07,49.09,2.81,12.09,4.95,23.64,6.58,34.51,1.14,7.62,3.17,22.5,4.24,41.68,1.19,21.24,.92,42.7,.31,42.72-.8,.02,.6-36.17-6.35-83.17-7.41-50.11-19.65-84.6-18.85-84.82Z"/>
        </g>
      </g>
      <g>
        <ellipse class="cls-10" cx="142.04" cy="238.77" rx="90.02" ry="90.57"/>
        <path class="cls-7" d="M141.74,329.2c-2.85,.05-5.95-.05-9.25-.37-8.05-.78-14.91-2.65-20.35-4.64,7.77,1.77,17.82,3.34,29.57,3.37,11.99,.03,22.23-1.54,30.1-3.32-4.6,1.72-10.5,3.45-17.49,4.35-4.67,.61-8.91,.73-12.58,.61Z"/>
      </g>
      <path class="cls-10" d="M3.67,386.89c-3.1-6.81-1.55-14.86,3.82-20,5.48-5.24,13.81-6.36,20.53-2.73,15.85,13.41,31.7,26.81,47.56,40.22,.36,.73,4.15,8.77-.34,16.89-4.09,7.39-11.75,8.9-12.76,9.08-8.17-3.98-17.31-9.11-26.85-15.76-13.44-9.36-23.97-19.15-31.95-27.7Z"/>
      <path class="cls-10" d="M50.28,411.76c2.15-7.31,9.05-12.01,16.09-11.32,5.98,.58,11.16,4.97,12.99,11.05-1.01,13.43-2.03,26.85-3.04,40.28-.06,.77-.33,1.19-.57,1.43-1.18,1.2-4.23,.66-7.52-1.54-1.47-1.02-2.9-2.17-4.28-3.47-12.25-11.53-13.62-28.45-13.68-36.43Z"/>
      <path class="cls-10" d="M175.9,341.46c-4.69-2.62-7.21-7.77-6.34-12.72,1.1-6.23,7-8.79,7.41-8.96,15.65,5.22,32.12,11.25,49.24,18.24,16.95,6.92,32.78,14.07,47.48,21.23,4.89,5.03,6.52,12.35,4.17,18.76-2.62,7.16-9.75,11.93-17.64,11.71-7.83-3.78-66.25-38.16-84.32-48.25Z"/>
      <g>
        <path class="cls-3" d="M212.64,459.13c-47.5-.32-95-.64-142.5-.96,.44-21.68,2.52-47.27,7.88-75.57,4.83-25.46,11.32-47.82,17.98-66.71,.66,1.16,15.52,26.14,44.85,26.54,19.04,.26,36.81-9.93,46.29-26.54,6.97,20.17,13.78,44.35,18.62,72.04,4.63,26.5,6.47,50.55,6.87,71.19Z"/>
        <path class="cls-11" d="M204.89,383.39c-21.18,11.75-42.37,23.5-63.55,35.25-21.12-11.8-42.24-23.61-63.35-35.41-2.49,13.66-6.49,37.91-9.01,68.41-1.9,22.95-15.51,187.71,30.22,201.32,7.48,2.23,14.34-.24,17.17-1.53,36.92-16.75,24.78-120.92,25.56-120.93,.76,0-10.48,99.66,27.85,118.64,2.97,1.47,7.74,3.83,13.35,2.67,33.09-6.84,37.5-123.84,31.64-197.56-2.5-31.52-7-56.59-9.87-70.86Z"/>
        <path class="cls-10" d="M79.49,374.91c-1.24,6.86-2.48,13.72-3.72,20.58,22.04,11.55,44.08,23.1,66.12,34.65,.02-7.02,.04-14.04,.06-21.06-20.82-11.39-41.64-22.78-62.46-34.17Z"/>
        <path class="cls-10" d="M203.41,375.47c1.27,6.84,2.54,13.68,3.81,20.52-21.78,11.39-43.55,22.77-65.33,34.16,.02-7.02,.04-14.04,.06-21.06,20.49-11.21,40.97-22.41,61.46-33.62Z"/>
      </g>
      <g>
        <rect class="cls-9" x="237.26" y="396.5" width="6.45" height="156.82" transform="translate(726.81 691.4) rotate(140.85)"/>
        <ellipse class="cls-6" cx="302.16" cy="551.35" rx="1.25" ry="10.48" transform="translate(-280.25 314.52) rotate(-39.15)"/>
        <ellipse class="cls-6" cx="309.67" cy="540.83" rx="1.25" ry="10.48" transform="translate(-313.25 559.94) rotate(-61.96)"/>
        <ellipse class="cls-6" cx="309.81" cy="526.73" rx="10.48" ry="1.25" transform="translate(-114.89 87.35) rotate(-13.56)"/>
        <ellipse class="cls-6" cx="305.17" cy="516.79" rx="10.48" ry="1.25" transform="translate(-229.13 243.44) rotate(-32.34)"/>
        <ellipse class="cls-6" cx="291.36" cy="556.51" rx="1.25" ry="10.48" transform="translate(-144.73 104.38) rotate(-16.33)"/>
        <ellipse class="cls-6" cx="277.52" cy="553.79" rx="10.48" ry="1.25" transform="translate(-341.75 568.35) rotate(-64.73)"/>
        <ellipse class="cls-6" cx="268.73" cy="547.23" rx="10.48" ry="1.25" transform="translate(-311.43 359.9) rotate(-45.95)"/>
      </g>
      <g>
        <path class="cls-2" d="M218.39,258.06c-2.39,.51-11.39,2.74-17.76,11.14-5.11,6.74-5.7,13.7-5.78,16.37,.39,3.11,.59,8.2-1.54,13.65-3.88,9.9-11.5,10.84-13.98,17.76-4.78,13.34,15.47,32.23,16.97,31.32,1.18-.72-8.08-14.29-4.99-16.79,3.1-2.5,16.39,7.9,16.97,7.1,.37-.5-5.44-3.77-8.32-10.33-1.86-4.24-2.55-9.98-.67-10.98,1.43-.75,4.95,.88,14.31,11.95,3.71-5.48,10.55-17.2,11.98-33.58,1.57-17.98-4.25-31.69-7.2-37.61Z"/>
        <path class="cls-2" d="M231.44,184.8c4.55,4.37,17.64,16.95,15.97,32.97-1.13,10.85-8.22,15.38-13.45,34.98-.57,2.13-2.02,7.93,1.26,13.79,.43,.76,3.94,7.05,8.82,7.06,5.25,.02,8.1-7.23,9.67-6.73,1.85,.59,1.01,11.69-5.04,13.46-7.44,2.17-17.45-11.34-22.69-9.08-2.58,1.11-3.01,5.63-1.26,8.75,3.18,5.68,13.3,6.23,13.03,7.4-.27,1.17-10.98,2.7-19.33-1.35-12.04-5.84-12.87-20.21-13.03-22.87-1.04-17.93,13.37-21.03,15.97-41.71,.83-6.64,2.56-20.34-7.56-30.27-9.54-9.37-24.56-10.41-23.95-14.8,.41-2.97,7.68-5.15,13.45-5.38,13.25-.53,23.17,9,28.16,13.79Z"/>
        <path class="cls-2" d="M137.37,150.47c7.28-9.31,20.9-13.6,30.71-10.09,11.05,3.95,9.31,14.94,21.3,19.7,11.58,4.6,19.36-3.2,26.18,2.49,5.34,4.45,5.06,12.98,4.77,21.81-.22,6.79-.42,13-4.58,18.72-5.51,7.58-12.49,6.77-13.53,12.16-1.1,5.68,6.35,8.06,6.17,16.4-.04,1.66-.46,7.55-5.37,10.81-4.96,3.3-10.85,1.48-11.66,1.22,10.44-8.15,12.07-13.66,11.39-17.3-1.08-5.77-8.1-7.34-7.93-12.49,.18-5.2,7.4-5.74,10.9-12.97,3.79-7.83,1.14-19.18-4.09-21.18-5.26-2.01-9.36,6.9-17.31,5.98-8.95-1.03-9.51-12.98-18.22-15.08-11.74-2.82-21.21,16.35-28.73,13.45-6.63-2.55-9.53-21.43,0-33.63Z"/>
        <path class="cls-2" d="M95.85,199.53c4.61-3.94,7.83-9.04,6.56-12.73-1.71-4.99-11.96-8.47-24.56-4.11-19.33,8.43-25.92,18.03-28.22,25.52-2.99,9.73,1.53,15.05-3.06,28.13-4.32,12.33-10.75,14.31-9.59,21.06,1.64,9.59,15.35,9.9,20.26,20.34,2.52,5.35,3.33,14.67-7.48,31.41,16.57-14.67,19.75-25.36,18.39-33.03-1.86-10.45-12.44-16.89-9.8-21.74,2.89-5.31,16.62,.52,22-6.05,4.5-5.49-.93-12.78,.65-24.22,1.45-10.5,8.14-18.67,14.86-24.59Z"/>
        <path class="cls-2" d="M137.37,184.1c2.18-2.48,8.4-10.23,8.95-21.76,.4-8.41-2.4-14.83-3.99-17.88-28.15-8.83-40.37-4.78-46.34,.48-6.91,6.09-5.2,13.59-15.94,23.68-9.64,9.06-16.29,7.98-18.44,14.5-3.05,9.26,9.01,15.61,8.47,27.07-.28,5.88-3.93,14.53-21.43,24.65,21.64-5.73,29.5-13.84,31.89-21.27,3.26-10.13-3.13-20.53,1.49-23.68,5.07-3.45,14.55,7.81,22.42,4.35,8.07-3.55,4.85-18.35,11.96-21.27,3.21-1.32,9.12-.46,20.94,11.13Z"/>
        <path class="cls-2" d="M70.79,303.11c-2.74,.54-8.59,2.07-14.06,6.82-6.76,5.88-8.72,13.02-9.29,15.58"/>
        <path class="cls-2" d="M77.06,313.34c-3.39,.77-11.07,3.02-17.57,9.74-10.42,10.77-9.49,24.44-9.29,26.78"/>
        <path class="cls-2" d="M84.09,318.45c-9.83,2.08-13.35,5.86-14.81,8.77-3.53,7.05,2.64,13.97-1,22.16-2.21,4.95-6.83,7.75-10.04,9.25"/>
        <path class="cls-2" d="M204.38,281.29c1.97,1.99,7.33,7.93,8.69,17.29,1.23,8.41-1.45,14.93-2.67,17.51"/>
        <path class="cls-2" d="M199.47,298.15c-1.67,1.76-6.3,7.09-6.91,15.13-.34,4.53,.72,8.19,1.56,10.37"/>
        <path class="cls-2" d="M184.1,318.68c-.51,1.46-1.35,4.56-.67,8.43,.69,3.9,2.58,6.57,3.56,7.78"/>
        <path class="cls-2" d="M245.15,289.5c.25,4.97,.06,11.18-1.34,18.16-2.44,12.23-7.51,21.46-11.36,27.23"/>
        <path class="cls-2" d="M231.11,309.6c-3.05,3.62-7.11,9.31-10.03,17.07-3.64,9.69-3.85,18.22-3.56,23.34"/>
        <path class="cls-2" d="M134.77,159.96c-.56-.49-10.43-8.9-23-5.37-9.12,2.56-15.9,10.35-17.18,19.77"/>
        <path class="cls-2" d="M82.06,178.03c-5.14,.06-9.65,3.01-11.36,7.34-1.99,5.07,.81,9.62,1.16,10.17"/>
        <path class="cls-2" d="M150.49,168.71c.21-.87,2.37-9.3,9.9-12.15,7.67-2.9,17.93,1.12,22.71,10.45"/>
        <path class="cls-2" d="M189.22,178.6c.06-1.22,.46-7.41,4.66-9.89,5.09-3.01,14.91-.06,20.67,9.6"/>
        <path class="cls-2" d="M228.35,198.19c2.09,3.99,7.29,15.21,5.12,29.79-2.5,16.83-13.15,26.97-16.33,29.79"/>
        <path class="cls-2" d="M68.34,233.32c-2.35,.65-9.06,2.84-14.07,9.32-3.55,4.59-4.61,9.23-4.97,11.65"/>
        <path class="cls-2" d="M56.33,265.44c.4,.15,5.39,2.1,6.52,7.16,.78,3.49-.77,6.27-1.2,6.99"/>
        <path class="cls-2" d="M40.89,275.09c.66,.48,6.04,4.54,6.18,11.65,.14,7.57-5.79,11.92-6.35,12.31"/>
      </g>
      <path class="cls-10" d="M276.19,380.1c2.36-7.1-.04-14.94-5.92-19.48-6.01-4.63-14.41-4.86-20.71-.53-14.34,15.02-28.67,30.03-43.01,45.05-.28,.76-3.19,9.16,2.13,16.75,4.85,6.91,12.63,7.6,13.66,7.67,7.7-4.82,16.24-10.9,25.02-18.53,12.36-10.74,21.79-21.59,28.82-30.94Z"/>
      <path class="cls-10" d="M232.49,409.78c-2.91-7.04-10.27-10.98-17.2-9.55-5.89,1.22-10.57,6.13-11.74,12.37,2.44,13.24,4.87,26.49,7.31,39.73,.14,.76,.45,1.15,.72,1.37,1.3,1.07,4.27,.21,7.32-2.33,1.35-1.17,2.65-2.47,3.88-3.9,10.96-12.77,10.52-29.74,9.72-37.68Z"/>
      <path class="cls-1" d="M100.09,220.79c3.68-4.63,6.78-5.66,8.95-5.73,4.09-.12,6.13,3.13,12.53,5.01,3.49,1.02,6.55,1.14,8.59,1.07"/>
      <path class="cls-1" d="M155.56,208.62c2.86-1.47,6.93-3.78,11.45-7.16,5.48-4.1,7.41-6.63,10.38-6.44,2.23,.14,5.43,1.85,8.95,9.66"/>
      <path class="cls-5" d="M105.28,264.16s3.06-.54,6.39,0l-1.88-1.55s-3.96,.46-4.52,1.55Z"/>
      <path class="cls-5" d="M89.45,228.99s.88,3.96,10.55,7.59c0,0,5.94,2.75,8.35-9.45,0,0-8.9,.66-18.47-9.01,0,0-.27,7.09,12.92,12.53,0,0,.77,.66-.05,1.15,0,0-7.59,1.04-13.3-2.8Z"/>
      <ellipse class="cls-4" cx="112.01" cy="245.07" rx="12.2" ry="19.09"/>
      <path class="cls-5" d="M194.13,228.99s-.88,3.96-10.55,7.59c0,0-5.94,2.75-8.35-9.45,0,0,8.9,.66,18.47-9.01,0,0,.27,7.09-12.92,12.53,0,0-.77,.66,.05,1.15,0,0,7.59,1.04,13.3-2.8Z"/>
      <path class="cls-5" d="M178.81,264.16s-3.06-.54-6.39,0l1.88-1.55s3.96,.46,4.52,1.55Z"/>
      <ellipse class="cls-4" cx="171.57" cy="245.07" rx="12.2" ry="19.09"/>
      <ellipse class="cls-8" cx="112.27" cy="248.89" rx="9.57" ry="15.27"/>
      <ellipse class="cls-4" cx="106.52" cy="237.42" rx="2.42" ry="3.79"/>
      <ellipse class="cls-8" cx="171.5" cy="248.89" rx="9.71" ry="15.27"/>
      <ellipse class="cls-4" cx="166.41" cy="237.42" rx="2.42" ry="3.79"/>
      <ellipse class="cls-12" cx="100.73" cy="276.35" rx="11.28" ry="2.97"/>
      <ellipse class="cls-12" cx="185.67" cy="276.35" rx="11.28" ry="2.97"/>
      <path class="cls-7" d="M127.42,286.72c4.03,2.1,12.42,5.69,22.81,4.38,3.19-.4,5.98-1.2,8.3-2.07,.74,.91,2.43,3.24,2.77,6.68,.43,4.45-1.7,7.67-2.3,8.53-.87-.97-3.08-3.17-6.68-4.15-2.69-.73-4.97-.47-6.22-.23-2.36,.69-5.58,1.91-8.99,4.15-2.98,1.95-5.17,4.06-6.68,5.76-.49-.25-6.82-3.66-7.6-11.06-.74-6.99,4.11-11.53,4.61-11.98Z"/>
      <g>
        <path class="cls-11" d="M206.46,144.84c-4.08-23.16-8.17-46.33-12.25-69.49-1.15-6.51-2.29-13.2-1.01-19.69,1.28-6.48,5.56-10.75,11.94-14.55,10.47-2.85,16.97,7.96,20.61,19.28,.17,10.85-6.13,20.62-12.18,29.62,6.98-8.87,14.02-17.84,18.75-28.08,4.74-10.24,7.03-22.02,4.06-32.91-6.63-12.28-18.38-23.24-32.95-28.73-14.28-1.56-27.23,3.16-43.26,11.61-10.65,8.18-18.59,19.33-25.86,30.63-16.08,24.98-30.04,55.51-41.05,83.36,36.66,12.37,74.51,18.81,113.2,18.95Z"/>
        <path class="cls-11" d="M242.47,161.41c-2.55-1.21-8.35-4.12-10.51-5.16-16.43-7.93-30.94-14.94-44.25-19.6-13.61-4.77-23.45-6.09-41.2-8.82-19.53-2.99-37.72-4.13-54.21-4.13-30.69,1.01-61.52,12.21-88.71,32.3,44.38-1.47,83.81,31.92,127.48,39.53,27.81,4.84,56.37-.92,84.62-1.85,28.26-.92,58.07,3.87,79.51,26.42-11.41-26.95-30.39-48.06-52.74-58.69Z"/>
      </g>
    </g>
  </g>
</svg>