<?xml version="1.0" encoding="UTF-8"?>
<svg id="Layer_2" data-name="Layer 2" xmlns="http://www.w3.org/2000/svg" viewBox="0 0 320.7 483.1">
  <defs>
    <style>
      .cls-1 {
        fill: #e63e96;
      }

      .cls-2 {
        fill: #fff;
      }

      .cls-3 {
        fill: #818285;
      }

      .cls-4 {
        fill: #d1d3d8;
      }

      .cls-5 {
        fill: #231f20;
      }

      .cls-6 {
        fill: #595a5c;
      }

      .cls-7 {
        fill: #60c8d4;
      }

      .cls-8 {
        fill: #50bc81;
      }

      .cls-9 {
        fill: #3fbfb6;
        stroke: #1d733a;
      }

      .cls-9, .cls-10 {
        stroke-miterlimit: 10;
      }

      .cls-10 {
        fill: none;
        stroke: #78797b;
      }

      .cls-11 {
        fill: #f7b1c4;
        opacity: .57;
      }
    </style>
  </defs>
  <g id="Layer_3" data-name="Layer 3">
    <g>
      <g>
        <path class="cls-9" d="M66.01,215.77c-1.87,14.76,6.05,28.04,7.08,27.72,.67-.2-1.18-6.3-.29-16.22,.69-7.72,2.68-13.87,3.25-13.76,.64,.13-2.12,7.94,.55,17.07,1.39,4.77,3.23,6.34,3.22,10.92,0,1.27-.02,6.37-2.92,8.94-3.9,3.44-10.11-.23-10.53,.99-.43,1.26,5.48,7.22,10.23,5.63,6.42-2.15,7.2-16.9,8.11-16.69,.68,.16,1.24,8.56-2.85,16.35-3.1,5.9-5.96,5.92-8.77,10.26-7.51,11.6-.12,31.56,.58,31.45,.41-.07-1.45-6.89,.88-16.22,.64-2.57,3.67-13.61,8.77-13.9,1.61-.09,3.58,.88,4.12,2.51,1.04,3.14-3.92,6.66-6.75,11.4-7.46,12.48,.38,32.61,1.46,32.44,1.14-.18-2.58-23.23,2.65-25.28,.95-.37,2.31-.09,2.96,.78,1.42,1.91-1.4,5.45-1.92,10-.95,8.34,6.27,16.23,7.32,15.64,.98-.55-3.63-8.26-.67-13.94,1.79-3.44,6-5.44,7.49-4.15,2.36,2.06-1.81,12.72-3.99,18.28-3.92,9.99-7.4,14.37-6.32,15.64,1.16,1.36,6.93-1.65,11.32-6.41,8.21-8.9,5.85-17.7,10.76-23.17,.6-.66,1.24-1.19,1.94-1.59,2.03-1.18,5.56-2.31,7.56-.86,2.43,1.77,1.96,6.86,.43,10.23-2.84,6.29-9.89,7.75-9.46,9.08,.36,1.11,5.8,1.72,9.99-1.07,6.94-4.62,5.04-14.97,9-15.73,3.03-.58,7.63,4.82,6.77,8.25-.83,3.32-6.46,3.6-6.31,4.81,.23,1.75,12.37,3.94,16.82-1.6,2.31-2.88,1.67-6.74,2.57-6.8,1.41-.09,.93,9.57,6.89,15.88,4.49,4.76,11.21,6.11,12.09,4.81,.87-1.28-4.55-4.26-4.73-9.62-.19-5.43,5.08-11.33,8.41-10.68,3.09,.6,2.08,6.39,6.83,13.36,5.81,8.54,15.87,12.4,16.82,11.22,.5-.63-1.82-2.35-4.2-6.94-1.04-2.01-6.52-12.55-2.1-18.7,1.82-2.52,4.6-3.32,6.14-3.76,4.85-1.39,10.94-.21,13.83,3.23,6.05,7.2-3.07,22.85-1.58,23.51,1.25,.55,10.1-9.37,9.46-21.37-.41-7.68-2.86-14.63-2.36-14.79,.48-.16,1.73,6.87,7.48,11.55,3.36,2.74,7.08,3.72,7.28,3.37,.21-.37-3.62-1.83-5.92-5.8-.37-.63-3.72-6.6-.72-10.05,1.98-2.27,6.14-2.78,8.01-1.05,2.9,2.67-.34,10.06,.38,10.28,.63,.2,4.44-5.12,4.91-12.29,.3-4.45-.76-8.49,1.26-9.71,.89-.54,1.93-.33,3.88-1.41,1.12-.62,1.72-1,1.86-1.53,.61-2.3-8.99-4.12-11.4-9.86-3.21-7.65,7.53-19.52,8.94-18.84,.75,.36-1.23,4.25,.92,7.15,.95,1.28,2,1.42,3.03,2.1,5.05,3.32,3.15,15.02,3.13,15.02-.01,0,2.83-9.67-1.23-20.88-3.27-9.02-9.36-15.19-9.04-15.45,.78-.64,13.27,11.95,13.78,11.45,.19-.19-1.68-1.78-1.3-3.55,.38-1.76,2.6-1.93,3-3.54,.43-1.74-1.62-3.64-2.23-4.23-5.46-5.31-10.43-17.86-7.93-20.71,1.66-1.9,7.1,0,10.22,2.28,4.87,3.57,6.66,9.96,5.76,14.59-.42,2.19-1.46,4.07-1.27,4.16,.23,.11,2.18-2.3,2.99-5.32,1.33-4.92,.33-9.5-1.25-13.94-4.24-11.96-8.5-11.24-9.19-17.75-.91-8.54,5.52-12.91,3.18-18.88-1.33-3.39-4.79-4.3-6.05-4.73-13.4-4.6-20.56-38.1-31.23-54.44-14.83-22.7-43.04-22.35-57.39-22.17,0,0-41.58,.52-70.63,38.87-3.87,5.1-9.05,12.12-10.98,22.87-2,11.14,1.64,14.4,0,25.41-2.28,15.32-11.06,16.11-12.8,29.88Z"/>
        <path class="cls-9" d="M125.02,124.58c-3.43,1.18-18.88,6.92-27.22,23.62-5.78,11.58-5.17,22.45-4.65,27"/>
        <path class="cls-9" d="M80.63,193.08c-2.96,3.22-8.14,9.81-10.27,19.57-.97,4.46-1.06,8.43-.86,11.53"/>
        <path class="cls-9" d="M88.33,202.86c-1.4,1.2-7.05,6.31-8.13,15.01-.81,6.51,1.38,11.53,2.35,13.48"/>
        <path class="cls-9" d="M90.25,189.81c2.06,5.48,5.02,15.59,3.85,28.27-.8,8.7-3.27,15.62-5.35,20.23"/>
        <path class="cls-9" d="M150.96,112.1c-4.75,3.4-24.84,18.58-30.33,46.71-3.82,19.55,1.36,35.39,3.98,42.04"/>
        <path class="cls-9" d="M106.23,178.73c-3.03,8.78-7.09,24.68-3.98,43.91,1.35,8.33,3.73,15.35,6.13,20.86"/>
        <path class="cls-9" d="M183.12,109.6c3.72,1.43,17.29,7.18,25.43,22.42,6.54,12.24,5.97,23.86,5.51,28.34"/>
        <path class="cls-9" d="M168.11,114.9c4.07,5.75,19.43,28.86,15.62,60.1-2.4,19.71-11.33,33.6-16.24,40.17"/>
        <path class="cls-9" d="M157.39,128.91c-7.2,14.22-20.38,45.25-17.15,85.32,1.76,21.85,7.83,39.4,13.17,51.38"/>
        <path class="cls-9" d="M233.67,170.33c1.34,3.21,3.69,7.29,7.96,9.34,3.64,1.74,6.65,1.05,7.66,3.11,.93,1.91-.84,4.19-3.37,9.03-1.79,3.41-3.45,7.14-4.9,11.21"/>
        <path class="cls-9" d="M227.85,201.78c.3,4.35,1.59,14.27,8.58,23.98,5.11,7.09,11.1,11.07,14.7,13.08"/>
        <path class="cls-9" d="M192.62,208.63c3.17,6.79,7.05,17.25,8.27,30.52,1.73,18.82-2.77,33.77-5.82,41.73"/>
        <path class="cls-9" d="M161.99,204.89c-2.49,8.53-6.62,27.01-1.23,49.2,3.92,16.1,11.26,27.65,16.24,34.25"/>
        <path class="cls-9" d="M177.61,227c2.33,9.49,4.42,20.23,5.82,32.07,1.96,16.56,2.15,31.49,1.53,44.22"/>
        <path class="cls-9" d="M198.75,166.28c6.58,9.16,17.91,27.52,22.06,53.56,3.46,21.73,.45,39.65-2.14,50.13"/>
        <path class="cls-9" d="M98.42,321.58c3.21-5.23,7.2-13.05,9.75-23.19,2.2-8.76,2.61-16.45,2.49-22.13"/>
        <path class="cls-9" d="M101.94,269.94c-1.98,.93-6.22,3.29-9.33,8.22-4.79,7.6-3.27,15.57-2.9,17.29"/>
        <path class="cls-9" d="M96.14,243.17c.22,1.04,1.56,8.07-3.11,14.33-5.09,6.83-13,6.96-13.89,6.96"/>
        <path class="cls-9" d="M122.68,221.88c3.04,4.06,11.06,15.88,11.61,33.1,.61,18.89-8.15,32.1-10.99,36.05"/>
        <path class="cls-9" d="M141.76,278.79c.47,.86,7.5,14.09,5.81,23.4-.75,4.14-2.7,6.96-2.7,6.96-1.7,2.46-3.73,3.89-4.98,4.64"/>
        <path class="cls-9" d="M165.8,286.64c-1.81,2.25-7.07,9.4-7.24,19.85-.13,7.4,2.35,12.99,3.78,15.69"/>
        <path class="cls-9" d="M201.84,286c.9-.02,5.09,0,8.39,3.26,3.05,3.01,4.16,7.64,2.96,12.03"/>
        <path class="cls-9" d="M162.37,151.01c-3.68,5-8.96,13.47-12.09,25.16-3.55,13.27-2.7,24.56-1.73,31.01"/>
        <path class="cls-9" d="M185.39,126.44c5.02,1.26,8.68,5.27,9.21,9.95,.53,4.7-2.33,8.15-2.88,8.78"/>
      </g>
      <g>
        <path class="cls-6" d="M166.59,350.51c1.74-10.46,9.68-18.75,19.72-20.72,11.16-2.19,22.75,3.83,27.64,14.65-.05,5.08-.21,9.35-.38,12.56-.21,4.2-.47,7.38-.79,11.43-.04,.46-.51,6.42-1.06,11.95-1.07,10.7-2.4,20.93-3.93,30.65-2.74,7.96-10.46,12.94-18.51,11.99-7.95-.93-14.34-7.42-15.41-15.68-2.43-18.94-4.85-37.89-7.28-56.83Z"/>
        <path class="cls-6" d="M185.25,481.09c.32,1.03,1.13,1.8,2.09,1.98,1.24,.22,2.57-.59,3.05-1.98,4.93-14.14,9.62-30.2,13.37-48.05,2.13-10.13,3.74-19.82,4.96-28.98,.34-11.99-9.51-21.11-19.42-20.12-8.8,.88-16.28,9.58-15.86,20.12,3.94,25.68,7.88,51.35,11.82,77.03Z"/>
      </g>
      <path class="cls-6" d="M92.65,453.99c-.43,.98-1.32,1.65-2.29,1.72-1.26,.08-2.49-.86-2.82-2.28-3.36-14.48-6.27-30.84-8.05-48.86-1.01-10.23-1.56-19.96-1.76-29.13,.97-11.86,11.75-19.77,21.49-17.71,8.65,1.83,15.14,11.24,13.57,21.59-6.71,24.89-13.43,49.78-20.14,74.67Z"/>
      <path class="cls-6" d="M131.76,251.65c3.9,.03,7.34-2.31,8.57-5.75,1.54-4.32-1.26-8.06-1.45-8.31-11.75-2.33-24.31-4.45-37.62-6.19-13.18-1.72-25.74-2.9-37.58-3.67-4.89,1.42-8.55,5.45-9.37,10.34-.92,5.46,1.86,11.03,6.92,13.72,6.3,.43,55.51-.27,70.54-.15Z"/>
      <path class="cls-6" d="M56.36,233.05c4.02-3.65,9.93-4.38,14.67-1.81,4.84,2.62,7.47,8.13,6.45,13.58-5.74,13.94-11.49,27.87-17.23,41.81-.42,.41-5.14,4.82-11.75,3.52-6.02-1.18-8.76-6.14-9.11-6.8,.93-6.53,2.45-13.99,4.92-22.06,3.48-11.37,7.91-20.82,12.04-28.24Z"/>
      <path class="cls-6" d="M39.55,282.87c1.6-5.3,6.64-8.67,11.75-8.13,4.34,.46,8.08,3.67,9.37,8.1-.82,9.74-1.63,19.48-2.45,29.23-.05,.56-.25,.86-.42,1.04-.86,.86-3.07,.46-5.45-1.16-1.06-.75-2.09-1.59-3.08-2.54-8.83-8.44-9.72-20.74-9.71-26.53Z"/>
      <path class="cls-6" d="M192.04,247.32c-3.54-1.62-5.67-5.21-5.32-8.84,.44-4.57,4.56-6.77,4.84-6.91,11.63,2.87,23.9,6.29,36.69,10.36,12.66,4.03,24.54,8.29,35.59,12.63,3.83,3.36,5.43,8.56,4.1,13.34-1.48,5.33-6.37,9.2-12.09,9.49-5.89-2.28-50.15-23.8-63.81-30.06Z"/>
      <path class="cls-6" d="M267.57,259.9c-3.39-4.24-9.12-5.88-14.21-4.09-5.2,1.83-8.65,6.86-8.5,12.4,3.49,14.67,6.97,29.33,10.46,44,.35,.47,4.32,5.56,11.05,5.32,6.13-.22,9.62-4.69,10.07-5.29,.1-6.59-.23-14.2-1.4-22.56-1.66-11.77-4.54-21.8-7.46-29.78Z"/>
      <path class="cls-6" d="M276.59,310.99c-.55-5.51-4.85-9.78-9.97-10.23-4.35-.38-8.63,2.05-10.75,6.14-1.07,9.72-2.15,19.43-3.22,29.15-.06,.56,.07,.89,.21,1.1,.68,1.01,2.93,1.04,5.57-.09,1.18-.53,2.36-1.16,3.52-1.9,10.29-6.59,13.53-18.48,14.64-24.17Z"/>
      <g>
        <path class="cls-6" d="M128.95,233.72c1.29-1.69,12.96-16.41,33.19-16.36,20.11,.05,31.68,14.65,32.99,16.36,5.99,17.25,11.9,38.82,15.4,64.01,3.06,22.03,3.58,41.78,2.99,58.35-1.34,1.24-13.72,12.29-29.88,8.88-9.08-1.92-14.82-7.45-17.1-9.92-.76,.4-2.44,1.14-4.66,1.06-1.92-.07-3.36-.71-4.1-1.11-2.48,2.51-8.41,7.8-17.56,9.65-16.07,3.24-28.37-6.89-30.04-8.32-.7-17.02-.22-37.84,3.3-61.28,3.64-24.26,9.57-44.92,15.46-61.34Z"/>
        <g>
          <path class="cls-3" d="M128.95,233.72c-.47-.13-6.21,17.01-10.68,36.28-2.04,8.78-3.59,17.16-4.78,25.05-.83,5.53-2.3,16.33-3.08,30.27-.86,15.42-.67,31-.22,31.02,.58,.02-.43-26.26,4.61-60.39,5.38-36.38,14.74-62.06,14.15-62.23Z"/>
          <path class="cls-3" d="M195.28,234.1c.47-.13,5.75,16.37,10.22,35.64,2.04,8.78,3.59,17.16,4.78,25.05,.83,5.53,2.3,16.33,3.08,30.27,.86,15.42,.67,31,.22,31.02-.58,.02,.43-26.26-4.61-60.39-5.38-36.38-14.27-61.42-13.69-61.59Z"/>
        </g>
      </g>
      <path class="cls-6" d="M153.45,358.62c6.91-8.05,8.18-19.44,3.26-28.42-5.47-9.97-17.52-15-28.96-11.82-3.87,3.29-7.04,6.16-9.4,8.34-3.09,2.86-5.37,5.09-8.27,7.93-.33,.32-4.6,4.51-8.5,8.48-7.53,7.68-14.52,15.26-21,22.67-4.35,7.21-3.23,16.32,2.67,21.9,5.81,5.5,14.89,6.24,21.92,1.77,16.1-10.28,32.19-20.57,48.29-30.85Z"/>
      <g>
        <path class="cls-4" d="M91.44,191.42l-29.14-19.53c.88-3.49-.45-7.12-3.29-9.06-2.43-1.66-5.63-1.86-8.36-.54,3.96-5.27,3.14-8.85,2.91-9.7-1.86-6.71-13.66-9.54-22.02-6.8-3,.98-5.21,2.57-6.65,3.83-1.68-2.62-4.21-4.58-6.56-4.33-3.46,.36-7.08,5.5-5.77,12.35-5.26-.91-10.29,.13-11.91,2.96-2.12,3.71,.96,11.62,9.97,16.04-2.2,3.06-2.69,6.94-1.15,9.99,2.1,4.16,7.74,6.25,12.97,4.14,.83,1.9,2.64,5.16,6.23,7.19,5.94,3.36,14.3,1.94,20.77-3.73,2.6,1.61,5.86,1.69,8.48,.21,2.85-1.6,4.49-4.8,4.17-8.11,9.79,1.7,19.57,3.4,29.36,5.09Z"/>
        <path class="cls-2" d="M12.42,159.42c-3.15,.08-5.96,1.72-7.04,4.19-1.52,3.5,.48,8.48,5.22,10.35-7.38-3.24-10.26-9.28-8.82-12.15,1.18-2.37,5.71-3.39,10.64-2.39Z"/>
        <path class="cls-2" d="M86.74,189.5c-6.02-1.43-12.26-2.77-18.71-4.02-3.34-.64-6.63-1.24-9.88-1.78,3.71-.22,8.65-.15,14.31,.96,6.01,1.18,10.83,3.13,14.28,4.84Z"/>
        <path class="cls-2" d="M27.3,149c12.12-3.9,21.68-1.93,23.67,2.68,.31,.71,1.27,3.42-1.84,8.42,.28-.97,.83-3.37-.24-5.87,0,0-.72-1.69-2.38-3.12-2.97-2.55-10.26-3.46-19.21-2.12Z"/>
      </g>
      <g>
        <path class="cls-4" d="M231.39,203.67l35.56-12.61c-.04-.21-.42-2.64,1.27-4.23,1.56-1.47,4.22-1.6,6.26-.12-.69-1.37-2-4.51-1.09-7.97,1.74-6.63,10.68-10.98,16.96-8.22,3.31,1.45,4.95,4.47,5.6,5.88,10.95-5.81,21.89-1.7,24.23,4.44,1.65,4.33-.73,10.29-5.37,14.76,3.63,4.6,4.29,10.71,1.72,15.27-3.35,5.92-11.73,8.46-18.91,4.8-1.05,4.85-5.81,7.62-9.82,6.51-3.23-.9-5.64-4.24-5.54-8.1-4.22,2.01-8.99,1.69-12.3-.9-2.68-2.1-3.53-5-3.79-6.13-11.6-1.12-23.19-2.25-34.79-3.37Z"/>
        <path class="cls-2" d="M238.17,202.67c5.94-1.73,12.03-3.63,18.26-5.73,3.22-1.09,6.38-2.2,9.47-3.32-3.12,2.02-7.45,4.39-12.93,6.22-5.81,1.94-10.97,2.62-14.81,2.83Z"/>
        <path class="cls-2" d="M284.33,214.01c.68,2.05,2.52,3.67,4.67,4.06,3.04,.55,6.54-1.39,7.08-4.72-1.08,5.23-5.24,7.87-7.78,7.3-2.09-.47-3.78-3.3-3.97-6.65Z"/>
        <path class="cls-2" d="M296.48,177.31c10.59-4.68,20.18-1.37,22.28,3.9,1.82,4.57-2.19,10.12-2.83,10.99,.24-.53,.55-1.3,.81-2.25,1.01-3.62,.66-7.28,.01-8.87-1.66-4.1-10.21-6.65-20.27-3.77Z"/>
      </g>
      <g>
        <g>
          <circle class="cls-6" cx="160.92" cy="177.65" r="65.29"/>
          <path class="cls-3" d="M139.62,239.39s21.3,9.79,42.6,0c0,0-21.3,7.94-42.6,0Z"/>
        </g>
        <path class="cls-3" d="M150.97,210.17c2.95,1.54,9.07,4.16,16.66,3.2,2.33-.3,4.37-.87,6.06-1.51,.54,.66,1.77,2.37,2.02,4.88,.32,3.25-1.24,5.6-1.68,6.23-.64-.71-2.25-2.31-4.88-3.03-1.96-.53-3.63-.34-4.54-.17-1.72,.5-4.07,1.4-6.56,3.03-2.18,1.43-3.78,2.97-4.88,4.21-.35-.18-4.98-2.68-5.55-8.08-.54-5.1,3-8.42,3.37-8.75Z"/>
        <g>
          <path class="cls-7" d="M134.85,196.79s2.19-.39,4.59,0l-1.35-1.11s-2.84,.33-3.24,1.11Z"/>
          <path class="cls-7" d="M123.49,171.55s.63,2.84,7.57,5.44c0,0,4.26,1.97,6-6.79,0,0-6.39,.47-13.25-6.47,0,0-.2,5.09,9.27,8.99,0,0,.55,.47-.04,.83,0,0-5.44,.75-9.55-2.01Z"/>
          <ellipse class="cls-2" cx="139.68" cy="183.09" rx="8.76" ry="13.7"/>
          <path class="cls-7" d="M198.62,171.55s-.63,2.84-7.57,5.44c0,0-4.26,1.97-6-6.79,0,0,6.39,.47,13.25-6.47,0,0,.2,5.09-9.27,8.99,0,0-.55,.47,.04,.83,0,0,5.44,.75,9.55-2.01Z"/>
          <path class="cls-7" d="M187.62,196.79s-2.19-.39-4.59,0l1.35-1.11s2.84,.33,3.24,1.11Z"/>
          <ellipse class="cls-2" cx="182.42" cy="183.09" rx="8.76" ry="13.7"/>
          <ellipse class="cls-5" cx="139.87" cy="185.83" rx="6.87" ry="10.96"/>
          <ellipse class="cls-2" cx="135.74" cy="177.6" rx="1.74" ry="2.72"/>
          <ellipse class="cls-5" cx="182.37" cy="185.83" rx="6.97" ry="10.96"/>
          <ellipse class="cls-2" cx="178.72" cy="177.6" rx="1.74" ry="2.72"/>
          <ellipse class="cls-11" cx="131.58" cy="205.54" rx="8.1" ry="2.14"/>
          <ellipse class="cls-11" cx="192.54" cy="205.54" rx="8.1" ry="2.14"/>
        </g>
        <rect class="cls-6" x="163.12" y="161.3" width="27.31" height="14.85" transform="translate(-62.97 121.42) rotate(-32.5)"/>
        <rect class="cls-6" x="130.97" y="160.04" width="27.31" height="14.85" transform="translate(176.61 386.41) rotate(-147.5)"/>
      </g>
      <path class="cls-10" d="M286.38,127.13c-2.21,.62-12.63,3.79-15.84,12.77-.36,1.01-2.82,7.99,.69,11.09,2.6,2.3,5.64,3.03,7.94,.43,.21-.24,.82-1.04,1.01-2.17,.38-2.3-1.27-4.75-3.35-5.65-.74-.32-1.64-.5-2.88-.37-3.11,.31-8.97,2.57-10.2,8.33-.79,3.72,.62,7.66,3.61,10.27"/>
      <path class="cls-10" d="M60.44,131.44c.3-2.28,1.51-13.1-5.48-19.6-.78-.73-6.23-5.74-10.46-3.75-3.14,1.48-5.01,3.99-3.53,7.13,.13,.28,.63,1.17,1.6,1.78,1.96,1.25,4.86,.71,6.52-.84,.59-.55,1.1-1.31,1.48-2.5,.94-2.98,1.18-9.26-3.62-12.66-3.11-2.2-7.28-2.45-10.86-.74"/>
      <path class="cls-10" d="M94.41,57.92c-.81,2.15-4.43,12.42,.91,20.33,.6,.89,4.77,7,9.34,6.01,3.39-.74,5.78-2.75,5.04-6.15-.07-.31-.35-1.28-1.15-2.1-1.63-1.66-4.58-1.79-6.54-.65-.7,.41-1.37,1.03-2,2.1-1.59,2.69-3.24,8.75,.67,13.15,2.53,2.84,6.54,4.03,10.41,3.17"/>
      <path class="cls-10" d="M229.78,114.71c1.88-1.33,10.62-7.81,10.63-17.35,0-1.07-.03-8.47-4.37-10.21-3.22-1.29-6.33-.96-7.62,2.27-.12,.29-.43,1.26-.22,2.38,.42,2.29,2.79,4.05,5.05,4.2,.81,.06,1.71-.08,2.83-.62,2.83-1.34,7.59-5.43,6.81-11.27-.51-3.77-3.16-7.01-6.85-8.46"/>
      <path class="cls-1" d="M213.36,337.94c-34.55-.23-69.1-.46-103.65-.7,.32-15.77,1.83-34.38,5.73-54.97,3.51-18.52,8.23-34.78,13.08-48.52,.48,.84,11.29,19.01,32.62,19.31,13.85,.19,26.77-7.23,33.67-19.31,5.07,14.67,10.02,32.26,13.54,52.4,3.37,19.28,4.71,36.77,5,51.78Z"/>
      <path class="cls-8" d="M207.72,282.84c-15.41,8.55-30.82,17.1-46.23,25.64-15.36-8.59-30.72-17.17-46.08-25.76-1.14,4.93-2.88,12.56-4.85,21.94-3.97,18.83-4.41,23.35-7.63,29.42-5.78,10.9-13.25,13.1-20.16,19.62-25,23.55-20.99,82.93,0,93.17,5.15,2.51,12.3,2.54,17.44-.54,10.18-6.12,6.08-19.8,15.8-46.31,8.46-23.07,17.3-28.07,19.85-29.37,2.32-1.18,12.1-6.16,19.76-2.69,24.27,10.97-3.21,92.85,26.55,108.19,1.84,.95,5.47,2.82,9.71,1.94,24.07-4.97,27.28-90.08,23.02-143.7-1.82-22.93-5.09-41.16-7.18-51.54Z"/>
      <path class="cls-6" d="M116.51,276.68c-.9,4.99-1.8,9.98-2.71,14.97,16.03,8.4,32.06,16.8,48.1,25.21,.01-5.11,.03-10.21,.04-15.32-15.14-8.29-30.29-16.57-45.43-24.86Z"/>
      <path class="cls-6" d="M206.64,277.08c.92,4.97,1.85,9.95,2.77,14.92-15.84,8.28-31.68,16.57-47.52,24.85,.01-5.11,.03-10.21,.04-15.32,14.9-8.15,29.8-16.3,44.7-24.45Z"/>
      <g>
        <path class="cls-9" d="M217.32,198.4c-1.88,.41-8.97,2.2-13.98,8.96-4.02,5.42-4.48,11.02-4.55,13.17,.3,2.5,.47,6.6-1.22,10.99-3.05,7.96-9.05,8.72-11,14.29-3.77,10.73,12.18,25.93,13.36,25.19,.93-.58-6.36-11.5-3.93-13.51,2.44-2.02,12.9,6.35,13.36,5.71,.29-.4-4.28-3.03-6.55-8.31-1.46-3.41-2.01-8.03-.52-8.83,1.12-.61,3.89,.71,11.27,9.61,2.92-4.41,8.31-13.84,9.43-27.01,1.24-14.46-3.34-25.5-5.67-30.26Z"/>
        <path class="cls-9" d="M227.6,139.46c3.58,3.52,13.89,13.64,12.57,26.52-.89,8.73-6.47,12.38-10.59,28.14-.45,1.71-1.59,6.38,.99,11.1,.34,.61,3.1,5.67,6.95,5.68,4.13,.01,6.37-5.81,7.61-5.41,1.46,.47,.8,9.41-3.97,10.82-5.86,1.74-13.74-9.13-17.86-7.31-2.03,.9-2.37,4.53-.99,7.04,2.51,4.57,10.47,5.01,10.26,5.95-.21,.94-8.64,2.18-15.22-1.08-9.48-4.7-10.13-16.26-10.26-18.4-.82-14.43,10.52-16.92,12.57-33.56,.66-5.34,2.01-16.37-5.95-24.36-7.51-7.54-19.33-8.38-18.86-11.91,.32-2.39,6.04-4.14,10.59-4.33,10.43-.43,18.24,7.24,22.16,11.1Z"/>
        <path class="cls-9" d="M153.54,111.84c5.73-7.49,16.45-10.94,24.18-8.12,8.7,3.18,7.33,12.02,16.77,15.85,9.12,3.7,15.24-2.58,20.61,2,4.2,3.58,3.98,10.44,3.76,17.55-.17,5.47-.33,10.46-3.6,15.06-4.34,6.1-9.83,5.44-10.65,9.78-.86,4.57,5,6.49,4.86,13.2-.03,1.33-.36,6.07-4.23,8.7-3.91,2.65-8.54,1.19-9.18,.98,8.22-6.56,9.51-10.99,8.97-13.92-.85-4.64-6.38-5.91-6.24-10.05,.14-4.18,5.82-4.62,8.58-10.44,2.98-6.3,.89-15.43-3.22-17.04-4.14-1.61-7.37,5.55-13.63,4.81-7.05-.83-7.48-10.44-14.35-12.13-9.24-2.27-16.7,13.15-22.62,10.82-5.22-2.05-7.5-17.24,0-27.06Z"/>
        <path class="cls-9" d="M120.86,151.31c3.63-3.17,6.17-7.27,5.17-10.24-1.35-4.01-9.42-6.81-19.33-3.3-15.22,6.78-20.4,14.5-22.22,20.53-2.35,7.83,1.2,12.1-2.41,22.63-3.4,9.92-8.46,11.51-7.55,16.94,1.29,7.72,12.09,7.97,15.95,16.37,1.98,4.31,2.62,11.81-5.89,25.27,13.04-11.81,15.55-20.41,14.47-26.57-1.46-8.41-9.79-13.59-7.72-17.49,2.28-4.28,13.09,.41,17.32-4.86,3.54-4.42-.73-10.28,.51-19.48,1.14-8.45,6.41-15.02,11.7-19.79Z"/>
        <path class="cls-9" d="M153.54,138.9c1.71-2,6.61-8.23,7.05-17.51,.32-6.77-1.89-11.93-3.14-14.39-22.16-7.1-31.78-3.84-36.48,.39-5.44,4.9-4.1,10.93-12.55,19.05-7.59,7.29-12.82,6.42-14.51,11.67-2.4,7.45,7.09,12.55,6.67,21.78-.22,4.73-3.1,11.69-16.87,19.83,17.04-4.61,23.22-11.13,25.1-17.11,2.57-8.15-2.47-16.52,1.18-19.05,3.99-2.78,11.46,6.28,17.65,3.5,6.35-2.85,3.81-14.76,9.41-17.11,2.53-1.06,7.18-.37,16.49,8.95Z"/>
        <path class="cls-9" d="M101.13,234.65c-2.15,.43-6.76,1.66-11.07,5.49-5.32,4.73-6.86,10.47-7.31,12.54"/>
        <path class="cls-9" d="M106.07,242.88c-2.67,.62-8.71,2.43-13.83,7.84-8.2,8.67-7.47,19.66-7.31,21.55"/>
        <path class="cls-9" d="M111.6,246.99c-7.73,1.68-10.51,4.71-11.66,7.05-2.78,5.67,2.08,11.24-.79,17.83-1.74,3.98-5.38,6.23-7.9,7.44"/>
        <path class="cls-9" d="M206.29,217.09c1.55,1.6,5.77,6.38,6.84,13.91,.96,6.77-1.14,12.01-2.1,14.08"/>
        <path class="cls-9" d="M202.44,230.66c-1.32,1.41-4.96,5.7-5.44,12.17-.27,3.64,.56,6.59,1.23,8.35"/>
        <path class="cls-9" d="M190.33,247.18c-.4,1.18-1.06,3.67-.53,6.78,.54,3.14,2.03,5.28,2.81,6.26"/>
        <path class="cls-9" d="M238.39,223.7c.19,4,.04,8.99-1.05,14.61-1.92,9.84-5.91,17.27-8.95,21.91"/>
        <path class="cls-9" d="M227.34,239.87c-2.4,2.91-5.6,7.49-7.89,13.74-2.87,7.8-3.03,14.66-2.81,18.78"/>
        <path class="cls-9" d="M151.5,119.48c-.44-.4-8.21-7.16-18.11-4.32-7.18,2.06-12.52,8.33-13.52,15.91"/>
        <path class="cls-9" d="M110.01,134.02c-4.05,.05-7.6,2.42-8.94,5.91-1.57,4.08,.64,7.74,.92,8.18"/>
        <path class="cls-9" d="M163.88,126.52c.16-.7,1.86-7.48,7.79-9.77,6.04-2.33,14.11,.9,17.88,8.41"/>
        <path class="cls-9" d="M194.37,134.48c.05-.98,.36-5.96,3.67-7.95,4.01-2.42,11.74-.05,16.28,7.73"/>
        <path class="cls-9" d="M225.17,150.24c1.65,3.21,5.74,12.23,4.03,23.97-1.97,13.54-10.35,21.7-12.85,23.97"/>
        <path class="cls-9" d="M99.2,178.5c-1.85,.52-7.13,2.29-11.07,7.5-2.79,3.69-3.63,7.43-3.92,9.37"/>
        <path class="cls-9" d="M89.75,204.34c.32,.12,4.24,1.69,5.13,5.76,.61,2.81-.61,5.04-.95,5.62"/>
        <path class="cls-9" d="M77.59,212.1c.52,.38,4.76,3.65,4.86,9.37,.11,6.09-4.56,9.59-5,9.91"/>
      </g>
      <g>
        <path class="cls-8" d="M212.76,110.38c-3.11-17.65-6.22-35.3-9.33-52.96-.87-4.96-1.75-10.06-.77-15,.98-4.94,4.24-8.19,9.1-11.09,7.98-2.17,12.93,6.06,15.7,14.69,.13,8.27-4.67,15.71-9.28,22.57,5.32-6.76,10.68-13.59,14.29-21.4,3.61-7.8,5.36-16.78,3.09-25.08-5.05-9.36-14.01-17.71-25.11-21.9-10.89-1.19-20.75,2.41-32.96,8.84-8.12,6.23-14.17,14.73-19.71,23.34-12.25,19.03-22.89,42.3-31.28,63.53,27.94,9.43,56.78,14.33,86.26,14.44Z"/>
        <path class="cls-8" d="M240.2,123.01c-1.94-.92-6.36-3.14-8.01-3.94-12.52-6.04-23.58-11.38-33.72-14.94-10.37-3.64-17.87-4.64-31.4-6.72-14.88-2.28-28.74-3.15-41.31-3.15-23.38,.77-46.88,9.3-67.61,24.62,33.82-1.12,63.87,24.32,97.15,30.12,21.19,3.69,42.95-.7,64.49-1.41,21.53-.7,44.25,2.95,60.59,20.14-8.7-20.53-23.16-36.63-40.19-44.73Z"/>
      </g>
    </g>
  </g>
</svg>