<?xml version="1.0" encoding="UTF-8"?>
<svg id="Layer_2" data-name="Layer 2" xmlns="http://www.w3.org/2000/svg" viewBox="0 0 230.3 480.98">
  <defs>
    <style>
      .cls-1 {
        fill: #e63e96;
      }

      .cls-2 {
        fill: #fff;
      }

      .cls-3 {
        fill: #ffde11;
      }

      .cls-4 {
        fill: #eada1c;
      }

      .cls-5 {
        fill: #818285;
      }

      .cls-6 {
        fill: #231f20;
      }

      .cls-7 {
        fill: #7057a4;
      }

      .cls-8 {
        fill: #595a5c;
      }

      .cls-9 {
        fill: #50bc81;
      }

      .cls-10 {
        fill: #3fbfb6;
        stroke: #1d733a;
        stroke-miterlimit: 10;
      }

      .cls-11 {
        fill: #f7b1c4;
        opacity: .57;
      }
    </style>
  </defs>
  <g id="celebration1">
    <g>
      <path class="cls-10" d="M20.98,215.97c-1.65,14.72,5.34,27.96,6.25,27.65,.59-.2-1.04-6.28-.26-16.18,.61-7.7,2.37-13.84,2.87-13.72,.57,.13-1.87,7.91,.48,17.02,1.23,4.76,2.85,6.33,2.84,10.89,0,1.27-.02,6.35-2.58,8.91-3.44,3.43-8.93-.23-9.29,.99-.38,1.26,4.83,7.2,9.03,5.61,5.67-2.15,6.36-16.85,7.16-16.64,.6,.16,1.09,8.54-2.52,16.31-2.73,5.89-5.26,5.9-7.74,10.23-6.63,11.57-.11,31.47,.52,31.36,.36-.07-1.28-6.87,.77-16.18,.57-2.57,3.24-13.57,7.74-13.86,1.42-.09,3.16,.87,3.64,2.5,.92,3.13-3.46,6.64-5.96,11.37-6.59,12.45,.34,32.52,1.29,32.35,1-.18-2.27-23.17,2.34-25.21,.84-.37,2.04-.09,2.61,.78,1.25,1.9-1.24,5.44-1.7,9.97-.84,8.31,5.53,16.19,6.46,15.6,.87-.55-3.2-8.24-.59-13.9,1.58-3.43,5.3-5.43,6.61-4.13,2.09,2.06-1.6,12.68-3.53,18.23-3.46,9.96-6.53,14.33-5.58,15.6,1.02,1.36,6.11-1.64,9.99-6.39,7.25-8.88,5.16-17.65,9.5-23.1,.53-.66,1.09-1.18,1.71-1.59,1.79-1.17,4.91-2.31,6.67-.85,2.15,1.77,1.73,6.84,.38,10.2-2.51,6.27-8.73,7.73-8.35,9.06,.32,1.11,5.12,1.72,8.81-1.07,6.13-4.61,4.45-14.93,7.94-15.68,2.67-.58,6.73,4.8,5.97,8.22-.73,3.31-5.7,3.59-5.57,4.79,.2,1.75,10.92,3.93,14.84-1.6,2.04-2.87,1.47-6.72,2.27-6.78,1.24-.09,.82,9.54,6.08,15.84,3.96,4.75,9.89,6.09,10.67,4.79,.76-1.28-4.01-4.25-4.17-9.59-.16-5.41,4.48-11.3,7.42-10.65,2.73,.6,1.84,6.37,6.03,13.32,5.13,8.51,14.01,12.37,14.84,11.19,.44-.63-1.6-2.35-3.71-6.93-.92-2-5.76-12.52-1.86-18.65,1.6-2.52,4.06-3.31,5.42-3.75,4.28-1.39,9.66-.21,12.21,3.22,5.34,7.18-2.71,22.79-1.39,23.44,1.11,.55,8.91-9.35,8.35-21.31-.36-7.66-2.52-14.58-2.08-14.74,.43-.15,1.53,6.85,6.6,11.52,2.96,2.73,6.25,3.71,6.42,3.36,.18-.37-3.2-1.82-5.23-5.78-.32-.63-3.28-6.59-.64-10.02,1.74-2.27,5.42-2.77,7.07-1.05,2.56,2.66-.3,10.03,.34,10.25,.56,.19,3.92-5.11,4.34-12.25,.26-4.43-.67-8.47,1.11-9.68,.79-.53,1.71-.33,3.43-1.41,.99-.62,1.52-.99,1.64-1.52,.53-2.3-7.94-4.11-10.06-9.83-2.83-7.63,6.64-19.46,7.89-18.79,.66,.36-1.08,4.23,.82,7.13,.84,1.27,1.76,1.42,2.67,2.1,4.46,3.31,2.78,14.98,2.77,14.98-.01,0,2.5-9.64-1.09-20.83-2.88-9-8.26-15.15-7.98-15.41,.69-.63,11.71,11.92,12.16,11.41,.17-.19-1.48-1.78-1.15-3.54,.34-1.75,2.3-1.92,2.65-3.53,.38-1.73-1.43-3.63-1.97-4.22-4.82-5.3-9.21-17.81-7-20.65,1.47-1.9,6.27,0,9.02,2.27,4.3,3.56,5.88,9.93,5.08,14.55-.37,2.18-1.29,4.06-1.12,4.15,.2,.11,1.92-2.3,2.64-5.31,1.17-4.91,.29-9.47-1.1-13.9-3.75-11.93-7.5-11.21-8.11-17.7-.81-8.52,4.87-12.88,2.81-18.82-1.17-3.38-4.22-4.29-5.34-4.72-11.83-4.58-18.15-38-27.57-54.29-13.09-22.64-37.99-22.28-50.66-22.1,0,0-36.7,.52-62.34,38.76-3.41,5.09-7.99,12.08-9.69,22.81-1.76,11.11,1.45,14.36,0,25.34-2.01,15.28-9.76,16.06-11.29,29.79Z"/>
      <path class="cls-10" d="M73.06,125.04c-3.03,1.18-16.66,6.9-24.03,23.55-5.1,11.55-4.56,22.39-4.1,26.92"/>
      <path class="cls-10" d="M33.88,193.34c-2.61,3.22-7.19,9.79-9.06,19.52-.86,4.45-.93,8.41-.76,11.49"/>
      <path class="cls-10" d="M40.68,203.1c-1.24,1.2-6.22,6.29-7.18,14.96-.71,6.49,1.22,11.5,2.08,13.45"/>
      <path class="cls-10" d="M42.38,190.09c1.82,5.47,4.43,15.55,3.4,28.19-.71,8.68-2.88,15.58-4.72,20.17"/>
      <path class="cls-10" d="M95.96,112.58c-4.2,3.39-21.92,18.52-26.77,46.58-3.37,19.5,1.2,35.29,3.51,41.92"/>
      <path class="cls-10" d="M56.48,179.03c-2.67,8.75-6.26,24.62-3.51,43.78,1.19,8.31,3.29,15.3,5.41,20.8"/>
      <path class="cls-10" d="M124.35,110.1c3.28,1.43,15.26,7.16,22.44,22.36,5.77,12.21,5.27,23.79,4.87,28.26"/>
      <path class="cls-10" d="M111.1,115.38c3.59,5.74,17.15,28.78,13.79,59.93-2.12,19.66-10,33.5-14.33,40.06"/>
      <path class="cls-10" d="M101.63,129.35c-6.35,14.18-17.99,45.12-15.14,85.08,1.55,21.79,6.91,39.29,11.63,51.24"/>
      <path class="cls-10" d="M168.96,170.65c1.18,3.2,3.26,7.27,7.03,9.32,3.21,1.74,5.87,1.05,6.76,3.11,.82,1.91-.74,4.17-2.97,9.01-1.58,3.41-3.04,7.12-4.33,11.18"/>
      <path class="cls-10" d="M163.82,202.01c.27,4.34,1.4,14.23,7.57,23.91,4.51,7.07,9.8,11.04,12.98,13.04"/>
      <path class="cls-10" d="M132.73,208.84c2.8,6.78,6.22,17.2,7.3,30.43,1.53,18.77-2.44,33.67-5.14,41.61"/>
      <path class="cls-10" d="M105.69,205.12c-2.2,8.51-5.85,26.93-1.08,49.06,3.46,16.05,9.94,27.57,14.33,34.16"/>
      <path class="cls-10" d="M119.48,227.16c2.06,9.47,3.9,20.17,5.14,31.98,1.73,16.51,1.9,31.4,1.35,44.09"/>
      <path class="cls-10" d="M138.13,166.61c5.81,9.13,15.81,27.45,19.47,53.41,3.05,21.67,.39,39.54-1.89,49.99"/>
      <path class="cls-10" d="M49.58,321.49c2.83-5.22,6.36-13.01,8.6-23.12,1.94-8.74,2.3-16.4,2.2-22.07"/>
      <path class="cls-10" d="M52.69,269.98c-1.74,.93-5.49,3.28-8.24,8.2-4.23,7.58-2.89,15.53-2.56,17.24"/>
      <path class="cls-10" d="M47.57,243.29c.19,1.04,1.38,8.04-2.75,14.29-4.49,6.81-11.47,6.94-12.26,6.94"/>
      <path class="cls-10" d="M71,222.06c2.68,4.05,9.76,15.83,10.25,33,.54,18.83-7.19,32.01-9.7,35.95"/>
      <path class="cls-10" d="M87.84,278.81c.41,.86,6.62,14.05,5.13,23.33-.67,4.13-2.38,6.94-2.38,6.94-1.5,2.45-3.29,3.88-4.39,4.62"/>
      <path class="cls-10" d="M109.05,286.64c-1.6,2.25-6.24,9.37-6.39,19.79-.11,7.38,2.08,12.95,3.34,15.64"/>
      <path class="cls-10" d="M140.86,286c.79-.02,4.49,0,7.4,3.25,2.69,3,3.67,7.62,2.61,12"/>
      <path class="cls-10" d="M106.02,151.39c-3.25,4.99-7.91,13.43-10.67,25.09-3.14,13.23-2.38,24.49-1.52,30.92"/>
      <path class="cls-10" d="M126.35,126.89c4.43,1.26,7.66,5.26,8.13,9.92,.47,4.69-2.06,8.12-2.54,8.75"/>
    </g>
    <g>
      <path class="cls-8" d="M106.14,348.35c1.73-10.37,9.59-18.58,19.55-20.54,11.06-2.17,22.55,3.8,27.4,14.52-.05,5.03-.21,9.27-.37,12.45-.21,4.17-.46,7.32-.78,11.33-.04,.46-.5,6.37-1.05,11.85-1.06,10.61-2.38,20.74-3.9,30.38-2.72,7.89-10.37,12.83-18.35,11.89-7.88-.93-14.21-7.36-15.28-15.55-2.41-18.78-4.81-37.56-7.22-56.33Z"/>
      <path class="cls-8" d="M124.64,477.78c.32,1.02,1.12,1.79,2.07,1.96,1.23,.22,2.54-.58,3.02-1.96,4.89-14.01,9.53-29.93,13.25-47.62,2.11-10.04,3.71-19.65,4.91-28.73,.33-11.88-9.42-20.92-19.25-19.94-8.72,.87-16.14,9.5-15.72,19.94,3.9,25.45,7.81,50.9,11.71,76.35Z"/>
    </g>
    <path class="cls-8" d="M96.74,349.55c-1.73-10.37-9.59-18.58-19.55-20.54-11.06-2.17-22.55,3.8-27.4,14.52,.05,5.03,.21,9.27,.37,12.45,.21,4.17,.46,7.32,.78,11.33,.04,.46,.5,6.37,1.05,11.85,1.06,10.61,2.38,20.74,3.9,30.38,2.72,7.89,10.37,12.83,18.35,11.89,7.88-.93,14.21-7.36,15.28-15.55,2.41-18.78,4.81-37.56,7.22-56.33Z"/>
    <path class="cls-8" d="M78.25,478.98c-.32,1.02-1.12,1.79-2.07,1.96-1.23,.22-2.54-.58-3.02-1.96-4.89-14.01-9.53-29.93-13.25-47.62-2.11-10.04-3.71-19.65-4.91-28.73-.33-11.88,9.42-20.92,19.25-19.94,8.72,.87,16.14,9.5,15.72,19.94-3.9,25.45-7.81,50.9-11.71,76.35Z"/>
    <path class="cls-8" d="M71.45,248.02c3.15-2.23,4.57-6.11,3.56-9.59-1.26-4.37-5.68-5.75-5.99-5.84-10.8,4.93-22.12,10.51-33.84,16.82-11.6,6.25-22.38,12.58-32.35,18.83-3.11,3.97-3.72,9.34-1.55,13.74,2.42,4.92,7.89,7.79,13.52,7.03,5.32-3.3,44.49-32.38,56.65-40.98Z"/>
    <g>
      <path class="cls-8" d="M68.83,232.59c1.28-1.67,12.85-16.27,32.9-16.22,19.93,.05,31.41,14.52,32.7,16.22,5.93,17.1,11.79,38.47,15.27,63.45,3.04,21.83,3.55,41.41,2.97,57.84-1.33,1.23-13.6,12.18-29.62,8.8-9-1.9-14.69-7.38-16.95-9.83-.76,.39-2.42,1.13-4.62,1.05-1.9-.07-3.33-.7-4.06-1.1-2.46,2.49-8.34,7.73-17.41,9.56-15.93,3.21-28.12-6.83-29.78-8.24-.7-16.87-.21-37.51,3.27-60.74,3.61-24.05,9.48-44.53,15.33-60.8Z"/>
      <g>
        <path class="cls-5" d="M68.83,232.59c-.47-.13-6.16,16.86-10.59,35.96-2.02,8.7-3.56,17.01-4.74,24.83-.82,5.48-2.28,16.19-3.05,30-.85,15.29-.66,30.73-.22,30.74,.57,.02-.43-26.03,4.57-59.86,5.33-36.06,14.61-61.52,14.03-61.68Z"/>
        <path class="cls-5" d="M134.59,232.97c.47-.13,5.7,16.22,10.13,35.33,2.02,8.7,3.56,17.01,4.74,24.83,.82,5.48,2.28,16.19,3.05,30,.85,15.29,.66,30.73,.22,30.74-.57,.02,.43-26.03-4.57-59.86-5.33-36.06-14.14-60.88-13.57-61.04Z"/>
      </g>
    </g>
    <g>
      <ellipse class="cls-8" cx="102.22" cy="176.74" rx="64.78" ry="65.18"/>
      <path class="cls-5" d="M102,241.82c-2.05,.03-4.28-.04-6.66-.27-5.79-.56-10.73-1.91-14.65-3.34,5.59,1.28,12.82,2.4,21.28,2.43,8.63,.02,16-1.11,21.66-2.39-3.31,1.24-7.56,2.48-12.59,3.13-3.36,.44-6.42,.52-9.05,.44Z"/>
    </g>
    <path class="cls-8" d="M2.64,283.35c-2.23-4.9-1.12-10.7,2.75-14.39,3.94-3.77,9.94-4.58,14.78-1.96,11.41,9.65,22.82,19.3,34.22,28.95,.26,.52,2.98,6.31-.24,12.15-2.94,5.32-8.45,6.4-9.19,6.53-5.88-2.86-12.46-6.56-19.32-11.34-9.67-6.74-17.25-13.78-22.99-19.93Z"/>
    <path class="cls-8" d="M36.18,301.24c1.55-5.26,6.51-8.64,11.58-8.15,4.3,.42,8.03,3.57,9.35,7.95-.73,9.66-1.46,19.33-2.19,28.99-.04,.55-.24,.86-.41,1.03-.85,.86-3.04,.48-5.41-1.11-1.06-.74-2.09-1.56-3.08-2.5-8.82-8.3-9.8-20.47-9.84-26.22Z"/>
    <path class="cls-8" d="M126.59,250.65c-3.37-1.88-5.19-5.59-4.56-9.15,.79-4.48,5.04-6.33,5.33-6.45,11.26,3.75,23.12,8.09,35.44,13.13,12.2,4.98,23.59,10.13,34.17,15.28,3.52,3.62,4.69,8.89,3,13.5-1.89,5.15-7.01,8.59-12.69,8.42-5.64-2.72-47.68-27.46-60.68-34.73Z"/>
    <g>
      <path class="cls-1" d="M153.03,335.33c-34.18-.23-68.37-.46-102.55-.69,.32-15.6,1.81-34.02,5.67-54.39,3.47-18.32,8.15-34.41,12.94-48.01,.48,.84,11.17,18.81,32.28,19.1,13.7,.19,26.49-7.15,33.32-19.1,5.02,14.51,9.92,31.91,13.4,51.85,3.33,19.07,4.66,36.38,4.95,51.23Z"/>
      <path class="cls-9" d="M147.45,280.82c-15.25,8.46-30.49,16.91-45.74,25.37-15.2-8.5-30.4-16.99-45.59-25.49-1.79,9.83-4.67,27.28-6.49,49.23-1.36,16.52-11.16,135.09,21.75,144.89,5.38,1.6,10.32-.17,12.35-1.1,26.57-12.06,17.84-87.03,18.39-87.03,.55,0-7.54,71.72,20.04,85.38,2.14,1.06,5.57,2.76,9.61,1.92,23.81-4.92,26.99-89.12,22.77-142.18-1.8-22.69-5.04-40.72-7.1-51Z"/>
      <path class="cls-8" d="M57.21,274.73c-.89,4.94-1.79,9.87-2.68,14.81,15.86,8.31,31.72,16.63,47.59,24.94,.01-5.05,.03-10.1,.04-15.16-14.98-8.2-29.97-16.4-44.95-24.59Z"/>
      <path class="cls-8" d="M146.39,275.12c.92,4.92,1.83,9.84,2.75,14.77-15.67,8.2-31.34,16.39-47.01,24.59,.01-5.05,.03-10.1,.04-15.16,14.74-8.06,29.49-16.13,44.23-24.19Z"/>
    </g>
    <g>
      <rect class="cls-7" x="170.75" y="290.26" width="4.64" height="112.86" transform="translate(526.16 506.3) rotate(140.85)"/>
      <ellipse class="cls-4" cx="217.46" cy="401.7" rx=".9" ry="7.54" transform="translate(-204.79 227.45) rotate(-39.15)"/>
      <ellipse class="cls-4" cx="222.86" cy="394.13" rx=".9" ry="7.54" transform="translate(-229.77 405.57) rotate(-61.96)"/>
      <ellipse class="cls-4" cx="222.96" cy="383.98" rx="7.54" ry=".9" transform="translate(-83.83 63) rotate(-13.56)"/>
      <ellipse class="cls-4" cx="219.62" cy="376.83" rx="7.54" ry=".9" transform="translate(-167.53 175.96) rotate(-32.34)"/>
      <ellipse class="cls-4" cx="209.68" cy="405.41" rx=".9" ry="7.54" transform="translate(-105.54 75.32) rotate(-16.33)"/>
      <ellipse class="cls-4" cx="199.72" cy="403.46" rx="7.54" ry=".9" transform="translate(-250.38 411.84) rotate(-64.73)"/>
      <ellipse class="cls-4" cx="193.4" cy="398.74" rx="7.54" ry=".9" transform="translate(-227.65 260.51) rotate(-45.95)"/>
    </g>
    <ellipse class="cls-11" cx="73.44" cy="209.75" rx="8.12" ry="2.14"/>
    <ellipse class="cls-11" cx="134.56" cy="209.75" rx="8.12" ry="2.14"/>
    <path class="cls-3" d="M76.72,200.97s2.2-.39,4.6,0l-1.35-1.11s-2.85,.33-3.25,1.11Z"/>
    <path class="cls-3" d="M63.3,180.06s.63,2.85,7.59,5.46c0,0,4.27,1.98,6.01-6.8,0,0-6.41,.47-13.29-6.49,0,0-.2,5.1,9.29,9.02,0,0,.55,.47-.04,.83,0,0-5.46,.75-9.57-2.02Z"/>
    <g>
      <ellipse class="cls-2" cx="81.56" cy="187.24" rx="8.78" ry="13.73"/>
      <ellipse class="cls-6" cx="81.75" cy="189.99" rx="6.89" ry="10.98"/>
      <ellipse class="cls-2" cx="77.61" cy="181.73" rx="1.74" ry="2.73"/>
    </g>
    <rect class="cls-8" x="74.1" y="172.05" width="18.98" height="9.28" transform="translate(61.98 -17.58) rotate(18.97)"/>
    <g>
      <path class="cls-10" d="M158.48,190.81c-1.71,.37-8.12,1.95-12.66,7.94-3.64,4.8-4.06,9.77-4.12,11.67,.28,2.22,.42,5.84-1.1,9.73-2.76,7.05-8.19,7.72-9.96,12.66-3.41,9.5,11.02,22.97,12.1,22.32,.84-.51-5.76-10.18-3.56-11.97,2.21-1.79,11.68,5.63,12.1,5.06,.26-.35-3.88-2.69-5.93-7.36-1.32-3.02-1.82-7.11-.47-7.82,1.02-.54,3.53,.63,10.2,8.51,2.64-3.9,7.52-12.26,8.54-23.93,1.12-12.81-3.03-22.59-5.13-26.81Z"/>
      <path class="cls-10" d="M167.78,138.59c3.24,3.12,12.57,12.08,11.38,23.49-.81,7.73-5.86,10.96-9.58,24.93-.41,1.52-1.44,5.65,.9,9.83,.3,.54,2.81,5.02,6.29,5.03,3.74,.01,5.77-5.15,6.89-4.79,1.32,.42,.72,8.33-3.59,9.59-5.31,1.54-12.44-8.08-16.17-6.47-1.84,.79-2.14,4.01-.9,6.23,2.27,4.05,9.48,4.44,9.28,5.27-.19,.84-7.82,1.93-13.78-.96-8.58-4.16-9.17-14.4-9.28-16.3-.74-12.78,9.53-14.99,11.38-29.73,.59-4.73,1.82-14.5-5.39-21.58-6.8-6.68-17.5-7.42-17.07-10.55,.29-2.12,5.47-3.67,9.58-3.84,9.44-.38,16.51,6.42,20.07,9.83Z"/>
      <path class="cls-10" d="M100.74,114.13c5.18-6.64,14.89-9.69,21.89-7.19,7.88,2.82,6.63,10.65,15.18,14.04,8.25,3.28,13.8-2.28,18.66,1.77,3.8,3.17,3.61,9.25,3.4,15.54-.16,4.84-.3,9.27-3.26,13.34-3.93,5.4-8.9,4.82-9.64,8.67-.78,4.05,4.53,5.75,4.4,11.69-.03,1.18-.33,5.38-3.83,7.7-3.54,2.35-7.73,1.06-8.31,.87,7.44-5.81,8.61-9.74,8.12-12.33-.77-4.11-5.77-5.23-5.65-8.9,.13-3.7,5.27-4.09,7.77-9.25,2.7-5.58,.81-13.67-2.92-15.09-3.75-1.43-6.67,4.92-12.34,4.26-6.38-.73-6.78-9.25-12.99-10.74-8.37-2.01-15.12,11.65-20.47,9.59-4.73-1.82-6.79-15.27,0-23.97Z"/>
      <path class="cls-10" d="M71.15,149.09c3.28-2.81,5.58-6.44,4.68-9.07-1.22-3.55-8.53-6.03-17.5-2.93-13.78,6.01-18.47,12.85-20.11,18.18-2.13,6.93,1.09,10.72-2.18,20.05-3.08,8.79-7.66,10.2-6.84,15.01,1.17,6.84,10.94,7.06,14.44,14.5,1.79,3.82,2.37,10.46-5.33,22.39,11.81-10.46,14.07-18.08,13.1-23.54-1.32-7.45-8.87-12.04-6.99-15.49,2.06-3.79,11.85,.37,15.68-4.31,3.21-3.91-.66-9.11,.46-17.26,1.03-7.48,5.8-13.31,10.59-17.53Z"/>
      <path class="cls-10" d="M100.74,138.1c1.55-1.77,5.98-7.29,6.38-15.51,.29-5.99-1.71-10.57-2.84-12.75-20.06-6.29-28.77-3.4-33.03,.34-4.92,4.34-3.71,9.68-11.36,16.88-6.87,6.46-11.61,5.69-13.14,10.33-2.17,6.6,6.42,11.12,6.04,19.29-.2,4.19-2.8,10.36-15.27,17.57,15.43-4.09,21.02-9.86,22.73-15.16,2.32-7.22-2.23-14.63,1.07-16.88,3.61-2.46,10.37,5.57,15.98,3.1,5.75-2.53,3.45-13.08,8.52-15.16,2.29-.94,6.5-.33,14.93,7.93Z"/>
      <path class="cls-10" d="M53.29,222.92c-1.95,.38-6.12,1.47-10.02,4.86-4.82,4.19-6.21,9.28-6.62,11.11"/>
      <path class="cls-10" d="M57.76,230.21c-2.42,.55-7.89,2.15-12.52,6.94-7.42,7.68-6.76,17.42-6.62,19.09"/>
      <path class="cls-10" d="M62.77,233.85c-7,1.49-9.52,4.17-10.56,6.25-2.51,5.03,1.88,9.96-.72,15.79-1.57,3.53-4.87,5.52-7.16,6.59"/>
      <path class="cls-10" d="M148.5,207.36c1.4,1.42,5.22,5.65,6.19,12.32,.87,5.99-1.03,10.64-1.91,12.48"/>
      <path class="cls-10" d="M145.01,219.38c-1.19,1.25-4.49,5.05-4.92,10.78-.25,3.23,.51,5.83,1.11,7.39"/>
      <path class="cls-10" d="M134.05,234.01c-.36,1.04-.96,3.25-.48,6.01,.49,2.78,1.84,4.68,2.54,5.55"/>
      <path class="cls-10" d="M177.56,213.22c.17,3.54,.04,7.97-.95,12.94-1.74,8.72-5.35,15.3-8.1,19.41"/>
      <path class="cls-10" d="M167.55,227.54c-2.17,2.58-5.07,6.64-7.15,12.17-2.59,6.91-2.74,12.98-2.54,16.64"/>
      <path class="cls-10" d="M98.89,120.89c-.4-.35-7.43-6.34-16.4-3.83-6.5,1.83-11.33,7.38-12.24,14.09"/>
      <path class="cls-10" d="M61.33,133.77c-3.66,.05-6.88,2.14-8.09,5.23-1.42,3.61,.58,6.85,.83,7.25"/>
      <path class="cls-10" d="M110.1,127.13c.15-.62,1.69-6.63,7.06-8.66,5.47-2.06,12.78,.8,16.19,7.45"/>
      <path class="cls-10" d="M137.7,134.18c.04-.87,.33-5.28,3.32-7.05,3.63-2.15,10.63-.05,14.74,6.84"/>
      <path class="cls-10" d="M165.58,148.14c1.49,2.85,5.19,10.84,3.65,21.23-1.78,12-9.37,19.22-11.64,21.23"/>
      <path class="cls-10" d="M51.54,173.17c-1.67,.46-6.46,2.02-10.03,6.64-2.53,3.27-3.28,6.58-3.55,8.3"/>
      <path class="cls-10" d="M42.98,196.06c.29,.11,3.84,1.5,4.65,5.1,.55,2.49-.55,4.47-.86,4.98"/>
      <path class="cls-10" d="M31.98,202.94c.47,.34,4.31,3.23,4.4,8.3,.1,5.39-4.13,8.5-4.52,8.78"/>
    </g>
    <g>
      <path class="cls-9" d="M157.37,112.28c-3.17-17.96-6.33-35.91-9.5-53.87-.89-5.05-1.78-10.23-.78-15.26,.99-5.03,4.31-8.33,9.26-11.28,8.12-2.21,13.15,6.17,15.97,14.94,.13,8.41-4.75,15.98-9.44,22.96,5.41-6.87,10.86-13.83,14.54-21.77,3.67-7.94,5.45-17.07,3.15-25.51-5.14-9.52-14.25-18.02-25.54-22.28-11.07-1.21-21.11,2.45-33.53,9-8.26,6.34-14.41,14.99-20.05,23.74-12.47,19.36-23.29,43.03-31.82,64.62,28.42,9.59,57.76,14.58,87.75,14.69Z"/>
      <path class="cls-9" d="M185.29,125.13c-1.97-.94-6.47-3.19-8.15-4-12.73-6.15-23.99-11.58-34.3-15.19-10.55-3.7-18.18-4.72-31.94-6.83-15.14-2.32-29.24-3.2-42.02-3.2-23.79,.78-47.69,9.46-68.77,25.04,34.4-1.14,64.97,24.74,98.83,30.64,21.56,3.76,43.69-.72,65.6-1.43,21.9-.72,45.01,3,61.64,20.48-8.85-20.89-23.55-37.26-40.88-45.5Z"/>
    </g>
    <path class="cls-8" d="M198.76,278.46c1.7-5.11-.03-10.76-4.26-14.02-4.32-3.33-10.37-3.49-14.9-.38-10.32,10.81-20.63,21.61-30.95,32.42-.2,.55-2.3,6.59,1.54,12.06,3.49,4.98,9.09,5.47,9.83,5.52,5.54-3.47,11.69-7.85,18.01-13.33,8.9-7.73,15.68-15.54,20.74-22.26Z"/>
    <path class="cls-8" d="M167.32,299.82c-2.1-5.07-7.39-7.9-12.38-6.87-4.24,.88-7.61,4.41-8.45,8.9,1.75,9.53,3.51,19.06,5.26,28.59,.1,.55,.33,.83,.52,.98,.93,.77,3.08,.15,5.26-1.68,.97-.84,1.91-1.78,2.79-2.81,7.88-9.19,7.57-21.4,7-27.12Z"/>
    <path class="cls-3" d="M135.99,179.41s1.23,.93,.94,4.85c0,0,0,2.49-4.59,1.38,0,0,1.64-2.97-.18-7.81,0,0,2.49,1.03,2.27,6.45,0,0,.11,.37,.41,.16,0,0,1.57-2.45,1.15-5.04Z"/>
    <path class="cls-5" d="M106.91,221.94c2.56-.52,5.37-1.12,7.71-3.4,2.86-2.79,3.29-6.41,3.79-6.27,.43,.12,.52,3-.78,5.62-1.64,3.3-4.73,4.72-5.88,5.23-1.91,.85-3.54,.96-6.8,1.18-4.97,.34-7.73-.46-9.18-1-.4-.15-2.5-.92-2.42-1.29,.15-.63,6.22,1.41,13.55-.06Z"/>
    <path class="cls-5" d="M136.88,184.72v1.41c-2.45,.16-5.97,.68-9.89,2.31-2.95,1.22-5.25,2.72-6.92,3.99,2.66-.43,6.07-.72,10.01-.43,3.06,.22,5.74,.75,7.93,1.33-.08,.46-.15,.91-.23,1.37-3.08-.73-7.24-1.38-12.16-1.25-4.29,.11-7.94,.79-10.75,1.52,1.77-1.79,4.25-3.91,7.54-5.78,5.73-3.26,11.15-4.17,14.46-4.46Z"/>
  </g>
</svg>