<svg width="209" height="396" viewBox="0 0 209 396" fill="none" xmlns="http://www.w3.org/2000/svg">
<path d="M13.7095 152.66C12.4119 161.696 17.9116 169.821 18.6253 169.632C19.0894 169.507 17.8068 165.776 18.4207 159.704C18.9198 154.976 20.2822 151.235 20.6815 151.28C21.0807 151.325 19.2092 156.137 21.0608 161.741C22.029 164.66 23.3016 165.622 23.2916 168.426C23.2916 169.203 23.2916 172.327 21.2654 173.906C18.5554 176.013 14.2435 173.766 13.954 174.514C13.6646 175.261 17.7569 178.937 21.0608 177.961C25.5225 176.641 26.0515 167.614 26.6953 167.744C27.1644 167.843 27.5537 172.984 24.699 177.757C22.548 181.368 20.5617 181.378 18.6103 184.038C13.3951 191.137 18.5255 203.357 19.0146 203.287C19.2991 203.247 18.0164 199.072 19.6235 193.359C20.0726 191.784 22.1737 185.03 25.7171 184.85C26.835 184.79 28.2124 185.383 28.5768 186.38C29.3004 188.307 25.8568 190.459 23.8905 193.354C18.7052 200.995 24.155 213.315 24.8886 213.21C25.6223 213.105 23.097 198.993 26.7302 197.737C27.0856 197.623 27.4659 197.609 27.8288 197.696C28.1918 197.784 28.5232 197.971 28.7864 198.236C29.7845 199.401 27.7882 201.573 27.4489 204.358C26.7901 209.464 31.8008 214.296 32.5344 213.932C33.268 213.569 30.039 208.876 32.0752 205.399C33.3179 203.292 36.2375 202.066 37.2706 202.858C38.9125 204.119 36.0129 210.645 34.5007 214.047C31.7808 220.159 29.3603 222.844 30.1089 223.621C30.8575 224.398 34.9199 222.625 37.9643 219.701C43.6686 214.251 42.0267 208.866 45.4503 205.519C49.8521 201.195 58.0918 206.515 72.7395 208.403C100.687 211.999 114.352 220.613 117.885 214.849C120.505 210.57 115.45 201.797 118.215 199.904C120.011 198.684 122.357 202.256 125.506 201.055C128.655 199.855 127.932 195.849 132.094 192.636C134.849 190.504 135.927 191.67 137.948 189.722C140.618 187.152 139.735 184.148 141.357 177.727C142.769 172.142 143.852 172.815 147.176 163.504C149.347 157.447 150.42 154.368 149.786 151.947C148.448 146.846 143.567 147.065 142.764 142.393C141.935 137.611 146.512 134.313 144.97 130.836C144.047 128.763 141.646 128.205 140.773 127.941C131.465 125.127 126.499 104.618 119.088 94.6151C108.797 80.7017 89.2187 80.9159 79.2573 81.0305C79.2573 81.0305 50.3861 81.3493 30.2187 104.817C27.5337 107.941 23.9554 112.235 22.5929 118.82C21.2055 125.64 23.7308 127.633 22.5929 134.373C21.0109 143.753 14.9172 144.231 13.7095 152.66Z" fill="#3FBFB6" stroke="#1D733A" stroke-miterlimit="10"/>
<path d="M83.0752 266.014C84.4027 258.044 90.4564 251.737 98.1172 250.238C106.631 248.569 115.47 253.152 119.203 261.391C119.168 265.262 119.043 268.515 118.918 270.956C118.754 274.154 118.559 276.575 118.315 279.658C118.315 280.012 117.93 284.55 117.511 288.765C116.693 296.909 115.674 304.705 114.517 312.103C112.421 318.16 106.531 321.956 100.393 321.234C94.3292 320.527 89.4533 315.585 88.6348 309.278L83.0752 266.014Z" fill="#595A5C"/>
<path d="M97.3187 365.465C97.4053 365.921 97.6486 366.332 98.0066 366.628C98.3647 366.924 98.8151 367.086 99.28 367.086C99.7449 367.086 100.195 366.924 100.553 366.628C100.911 366.332 101.155 365.921 101.241 365.465C105.423 353.501 108.829 341.281 111.437 328.881C113.064 321.164 114.292 313.782 115.22 306.808C115.475 297.681 107.969 290.737 100.408 291.489C93.6954 292.157 87.986 298.787 88.3055 306.808L97.3187 365.465Z" fill="#595A5C"/>
<path d="M75.8586 266.955C74.5311 258.985 68.4774 252.678 60.8167 251.174C52.3025 249.505 43.459 254.093 39.731 262.332C39.7659 266.198 39.8907 269.451 40.0154 271.892C40.1801 275.095 40.3698 277.516 40.6143 280.6C40.6443 280.948 41.0036 285.491 41.4228 289.701C42.2363 297.851 43.2594 305.642 44.4172 313.044C46.5133 319.102 52.4023 322.898 58.5409 322.175C64.6046 321.463 69.4805 316.521 70.299 310.22L75.8586 266.955Z" fill="#595A5C"/>
<path d="M61.6002 366.391C61.511 366.844 61.2669 367.253 60.9096 367.546C60.5523 367.839 60.104 368 59.6414 368C59.1787 368 58.7304 367.839 58.3731 367.546C58.0158 367.253 57.7717 366.844 57.6825 366.391C53.501 354.426 50.0953 342.204 47.4865 329.802C45.8595 322.086 44.6268 314.708 43.7036 307.734C43.449 298.603 50.955 291.659 58.516 292.411C65.2284 293.078 70.9378 299.709 70.6184 307.734C67.614 327.288 64.6079 346.84 61.6002 366.391Z" fill="#595A5C"/>
<path d="M99.5195 188.053C98.6149 186.974 98.0673 185.642 97.952 184.24C97.8367 182.837 98.1594 181.434 98.8757 180.222C100.722 177.233 104.286 177.149 104.53 177.144C111.517 183.037 118.734 189.513 126.1 196.616C133.466 203.72 140.074 210.565 146.153 217.26C146.945 219.091 147.163 221.12 146.778 223.078C146.392 225.035 145.421 226.83 143.993 228.226C142.564 229.622 140.745 230.552 138.776 230.895C136.807 231.238 134.78 230.977 132.962 230.147C129.713 226.59 106.741 196.945 99.5195 188.053Z" fill="#595A5C"/>
<path d="M142.584 229.066C140.739 229.939 138.664 230.209 136.656 229.838C134.648 229.467 132.808 228.474 131.397 227C129.987 225.526 129.077 223.645 128.798 221.626C128.519 219.607 128.885 217.551 129.843 215.75L151.802 189.204C152.201 189.005 156.633 186.858 161.155 189.284C162.457 190.013 163.587 191.014 164.469 192.217C165.35 193.42 165.963 194.798 166.265 196.258C160.447 208.543 152.415 219.656 142.569 229.041L142.584 229.066Z" fill="#595A5C"/>
<path d="M157.497 204.313C153.374 203.401 150.51 199.77 150.634 195.844C150.725 194.175 151.307 192.57 152.306 191.228C153.305 189.887 154.678 188.869 156.254 188.302L178.627 188.477C178.921 188.46 179.211 188.552 179.441 188.736C180.149 189.338 179.97 191.042 178.877 192.94C178.35 193.81 177.763 194.643 177.12 195.431C171.206 202.594 161.908 203.984 157.497 204.313Z" fill="#595A5C"/>
<path d="M56.3949 188.955C57.5583 188.16 58.4465 187.025 58.9371 185.706C59.4277 184.386 59.4968 182.948 59.1348 181.587C58.1367 178.23 54.763 177.169 54.5284 177.104C46.2139 180.89 37.5001 185.174 28.4819 190.021C19.5586 194.823 11.259 199.685 3.58334 204.467C2.33006 206.017 1.57613 207.909 1.42076 209.895C1.26539 211.88 1.71585 213.866 2.71287 215.592C3.7099 217.317 5.20678 218.7 7.00658 219.56C8.80637 220.42 10.8248 220.715 12.7962 220.408C16.8636 217.903 47.0124 195.561 56.3949 188.955Z" fill="#595A5C"/>
<path d="M54.3587 177.099C55.3568 175.814 64.2503 164.605 79.6815 164.645C95.0229 164.68 103.851 175.799 104.855 177.099C110.358 192.925 114.292 209.251 116.603 225.843C118.652 240.561 119.417 255.428 118.888 270.278C117.865 271.22 108.408 279.638 96.0909 277.038C91.0687 275.926 86.5127 273.294 83.0452 269.501C81.9481 270.07 80.7227 270.348 79.4869 270.308C78.3946 270.27 77.3256 269.982 76.3627 269.466C72.7215 273.183 68.0586 275.74 62.9627 276.814C50.7055 279.305 41.323 271.568 40.0404 270.482C38.7276 238.727 43.5899 207.018 54.3587 177.109V177.099Z" fill="#595A5C"/>
<path d="M54.3587 177.099C53.9994 176.999 49.6176 190.051 46.2089 204.726C44.6568 211.416 43.469 217.798 42.5607 223.805C41.9269 228.015 40.804 236.259 40.2151 246.855C39.5563 258.596 39.716 270.462 40.0404 270.472C40.4846 270.472 39.711 250.476 43.5638 224.488C47.6662 196.771 54.8029 177.223 54.3587 177.099Z" fill="#818285"/>
<path d="M104.964 177.388C105.329 177.288 109.351 189.842 112.76 204.527C114.317 211.217 115.505 217.599 116.408 223.606C117.042 227.816 118.165 236.06 118.759 246.656C119.412 258.397 119.258 270.263 118.928 270.273C118.484 270.273 119.258 250.277 115.41 224.289C111.293 196.582 104.52 177.512 104.964 177.388Z" fill="#818285"/>
<path d="M80.0558 184.272C107.594 184.272 129.918 161.853 129.918 134.198C129.918 106.543 107.594 84.124 80.0558 84.124C52.5177 84.124 30.1937 106.543 30.1937 134.198C30.1937 161.853 52.5177 184.272 80.0558 184.272Z" fill="#595A5C"/>
<path d="M79.8861 184.193C74.2971 184.285 68.739 183.346 63.4917 181.423C74.3689 183.899 85.6641 183.907 96.5451 181.448C91.2247 183.439 85.5654 184.371 79.8861 184.193Z" fill="#818285"/>
<path d="M3.41363 216.094C2.56496 214.243 2.32099 212.172 2.71627 210.175C3.11155 208.178 4.12604 206.356 5.61618 204.966C7.10631 203.576 8.99663 202.689 11.0196 202.431C13.0426 202.172 15.0957 202.555 16.8885 203.526L43.2394 225.763C43.439 226.167 45.5351 230.615 43.0498 235.099C42.2999 236.39 41.2809 237.506 40.0618 238.371C38.8426 239.235 37.4516 239.828 35.9829 240.11C23.7429 234.166 12.7028 226.025 3.41363 216.094V216.094Z" fill="#595A5C"/>
<path d="M29.2255 229.838C30.4183 225.798 34.2162 223.198 38.1389 223.581C39.8083 223.777 41.3823 224.461 42.6629 225.548C43.9435 226.635 44.8734 228.076 45.3355 229.689L43.6536 251.961C43.6467 252.254 43.5352 252.535 43.3392 252.753C42.6854 253.416 40.9936 253.117 39.172 251.901C38.3351 251.322 37.5428 250.681 36.8014 249.983C30.019 243.597 29.2605 234.257 29.2255 229.838Z" fill="#595A5C"/>
<path d="M119.163 256.051L40.235 255.503C40.7809 228.689 45.6164 202.135 54.5584 176.845C54.9277 177.487 63.1573 191.291 79.4021 191.52C84.5992 191.58 89.7176 190.25 94.2264 187.67C98.7353 185.089 102.47 181.352 105.044 176.845C109.541 189.833 112.989 203.159 115.355 216.697C117.631 229.698 118.904 242.855 119.163 256.051V256.051Z" fill="#E63E96"/>
<path d="M114.871 214.156L79.6665 233.634L44.5769 214.066C43.1945 221.618 40.9786 235.029 39.5862 251.886C38.5332 264.574 30.9923 355.681 56.325 363.193C60.4673 364.428 64.2652 363.059 65.8074 362.351C86.2692 353.091 79.5368 295.494 79.966 295.494C80.3952 295.494 74.1568 350.59 95.3872 361.086C97.0342 361.898 99.6742 363.203 102.783 362.58C121.109 358.804 123.555 294.114 120.311 253.356C119.275 240.193 117.459 227.104 114.871 214.156V214.156Z" fill="#50BC81"/>
<path d="M45.4153 209.469C44.7266 213.265 44.0396 217.057 43.3542 220.847L79.9809 240.005L80.0109 228.364L45.4153 209.469Z" fill="#595A5C"/>
<path d="M114.047 209.777L116.159 221.12L79.976 240.005L80.0059 228.363L114.047 209.777Z" fill="#595A5C"/>
<path d="M192.757 151.029L189.507 149.545L153.376 228.392L156.625 229.875L192.757 151.029Z" fill="#7057A4"/>
<path d="M196.559 140.719C197.892 137.81 198.693 135.323 198.347 135.165C198.001 135.007 196.64 137.238 195.306 140.148C193.973 143.057 193.172 145.544 193.518 145.702C193.864 145.86 195.225 143.629 196.559 140.719Z" fill="#EADA1C"/>
<path d="M189.542 139.298C189.64 136.1 189.412 133.498 189.032 133.486C188.651 133.474 188.263 136.057 188.165 139.256C188.066 142.454 188.295 145.056 188.675 145.067C189.055 145.079 189.443 142.496 189.542 139.298Z" fill="#EADA1C"/>
<path d="M185.54 147.102C185.832 146.859 184.404 144.67 182.35 142.214C180.296 139.757 178.395 137.962 178.103 138.206C177.811 138.449 179.239 140.638 181.292 143.094C183.346 145.551 185.247 147.346 185.54 147.102Z" fill="#EADA1C"/>
<path d="M182.977 150.405C183.175 150.08 181.117 148.467 178.38 146.801C175.644 145.135 173.265 144.047 173.067 144.371C172.868 144.695 174.926 146.309 177.663 147.975C180.4 149.641 182.779 150.729 182.977 150.405Z" fill="#EADA1C"/>
<path d="M201.603 145.012C203.962 142.845 205.666 140.863 205.409 140.583C205.151 140.304 203.03 141.833 200.67 144C198.311 146.166 196.607 148.148 196.865 148.428C197.123 148.707 199.244 147.178 201.603 145.012Z" fill="#EADA1C"/>
<path d="M203.197 152.712C206.402 152.656 208.995 152.303 208.988 151.923C208.981 151.543 206.377 151.281 203.172 151.338C199.967 151.394 197.375 151.748 197.381 152.127C197.388 152.507 199.992 152.769 203.197 152.712Z" fill="#EADA1C"/>
<path d="M207.592 159.757C207.708 159.395 205.327 158.31 202.274 157.334C199.222 156.357 196.653 155.859 196.537 156.22C196.421 156.582 198.801 157.667 201.854 158.643C204.907 159.62 207.475 160.118 207.592 159.757Z" fill="#EADA1C"/>
<path opacity="0.57" d="M57.9071 161.193C61.358 161.193 64.1555 160.457 64.1555 159.549C64.1555 158.641 61.358 157.905 57.9071 157.905C54.4562 157.905 51.6588 158.641 51.6588 159.549C51.6588 160.457 54.4562 161.193 57.9071 161.193Z" fill="#F7B1C4"/>
<path opacity="0.57" d="M104.944 161.193C108.395 161.193 111.193 160.457 111.193 159.549C111.193 158.641 108.395 157.905 104.944 157.905C101.494 157.905 98.696 158.641 98.696 159.549C98.696 160.457 101.494 161.193 104.944 161.193Z" fill="#F7B1C4"/>
<path d="M68.7319 165.387C69.5732 166.053 70.4755 166.639 71.4269 167.136C72.3673 167.647 73.3469 168.084 74.3565 168.441C76.3678 169.167 78.4909 169.536 80.6298 169.532C81.698 169.538 82.7642 169.441 83.8138 169.243C84.864 169.048 85.8957 168.765 86.8981 168.396C88.9077 167.648 90.8117 166.644 92.5625 165.407C92.1233 165.721 91.6991 166.05 91.255 166.359C90.8108 166.667 90.3616 166.961 89.8925 167.22C89.4234 167.479 88.9542 167.758 88.4602 167.978C87.9728 168.221 87.473 168.439 86.963 168.63C85.9552 169.025 84.9126 169.326 83.8488 169.527C82.7857 169.74 81.704 169.847 80.6198 169.846C78.4466 169.841 76.2923 169.443 74.2616 168.67C72.2399 167.908 70.3681 166.797 68.7319 165.387Z" fill="white"/>
<path d="M60.4274 152.809C61.6004 152.635 62.7927 152.635 63.9658 152.809L62.9277 151.937C62.9277 151.937 60.7368 152.206 60.4274 152.809Z" fill="#FFDE11"/>
<path d="M50.1016 136.749C50.1016 136.749 50.6007 138.936 55.9457 140.938C55.9457 140.938 59.2346 142.457 60.5721 135.712C60.5721 135.712 55.6413 136.081 50.3462 130.731C50.3462 130.731 50.1915 134.651 57.4978 137.66C57.4978 137.66 57.922 138.024 57.4679 138.298C57.4679 138.298 53.2657 138.876 50.1016 136.749Z" fill="#FFDE11"/>
<path d="M64.1554 152.809C67.8874 152.809 70.9128 148.085 70.9128 142.258C70.9128 136.431 67.8874 131.707 64.1554 131.707C60.4234 131.707 57.398 136.431 57.398 142.258C57.398 148.085 60.4234 152.809 64.1554 152.809Z" fill="white"/>
<path d="M64.3002 152.809C67.2274 152.809 69.6003 149.031 69.6003 144.37C69.6003 139.71 67.2274 135.932 64.3002 135.932C61.373 135.932 59.0001 139.71 59.0001 144.37C59.0001 149.031 61.373 152.809 64.3002 152.809Z" fill="#231F20"/>
<path d="M61.1111 140.126C61.8526 140.126 62.4536 139.187 62.4536 138.029C62.4536 136.871 61.8526 135.932 61.1111 135.932C60.3697 135.932 59.7686 136.871 59.7686 138.029C59.7686 139.187 60.3697 140.126 61.1111 140.126Z" fill="white"/>
<path d="M73.7807 133.152L59.971 128.414L57.6494 135.155L71.4591 139.894L73.7807 133.152Z" fill="#595A5C"/>
<path d="M99.7591 152.779C98.586 152.606 97.3938 152.606 96.2207 152.779L97.2588 151.922C97.2588 151.922 99.4497 152.176 99.7591 152.779Z" fill="#FFDE11"/>
<path d="M110.085 136.714C110.085 136.714 109.586 138.906 104.241 140.908C104.241 140.908 100.952 142.428 99.6144 135.683C99.6144 135.683 104.545 136.046 109.84 130.701C109.84 130.701 109.995 134.622 102.689 137.625C102.689 137.625 102.264 137.994 102.719 138.263C102.719 138.263 106.921 138.841 110.085 136.714Z" fill="#FFDE11"/>
<path d="M96.031 152.779C99.763 152.779 102.788 148.055 102.788 142.228C102.788 136.401 99.763 131.677 96.031 131.677C92.299 131.677 89.2736 136.401 89.2736 142.228C89.2736 148.055 92.299 152.779 96.031 152.779Z" fill="white"/>
<path d="M95.8863 152.779C98.8135 152.779 101.186 149.001 101.186 144.341C101.186 139.68 98.8135 135.902 95.8863 135.902C92.9591 135.902 90.5862 139.68 90.5862 144.341C90.5862 149.001 92.9591 152.779 95.8863 152.779Z" fill="#231F20"/>
<path d="M99.0753 140.096C99.8168 140.096 100.418 139.157 100.418 137.999C100.418 136.841 99.8168 135.902 99.0753 135.902C98.3339 135.902 97.7328 136.841 97.7328 137.999C97.7328 139.157 98.3339 140.096 99.0753 140.096Z" fill="white"/>
<path d="M88.733 139.859L102.543 135.121L100.221 128.379L86.4114 133.117L88.733 139.859Z" fill="#595A5C"/>
<path d="M122.127 146.926C118.125 147.824 114.576 150.121 112.121 153.402C110.1 156.166 108.966 159.476 108.867 162.897C109.219 165.567 108.919 168.282 107.994 170.812C105.808 176.551 101.506 177.094 100.118 181.109C97.4234 188.8 108.832 199.76 109.681 199.262C110.349 198.843 105.129 190.977 106.871 189.528C108.613 188.078 116.104 194.106 116.433 193.647C116.638 193.358 113.369 191.461 111.747 187.67C110.699 185.209 110.304 181.881 111.367 181.303C112.176 180.865 114.157 181.801 119.432 188.228C123.424 182.171 125.772 175.184 126.244 167.95C126.716 160.715 125.298 153.483 122.127 146.961V146.926Z" fill="#3FBFB6" stroke="#1D733A" stroke-miterlimit="10"/>
<path d="M129.479 104.453C132.044 106.984 139.42 114.282 138.462 123.563C137.823 129.849 133.831 132.479 130.886 143.842C130.567 145.078 129.748 148.44 131.595 151.838C131.834 152.281 133.816 155.927 136.585 155.932C139.54 155.932 141.147 151.748 142.03 152.037C143.073 152.376 142.599 158.817 139.191 159.833C134.993 161.088 129.354 153.257 126.404 154.567C124.947 155.215 124.708 157.83 125.691 159.639C127.487 162.936 133.177 163.255 133.032 163.933C132.887 164.61 126.849 165.497 122.142 163.151C115.355 159.763 114.886 151.434 114.801 149.89C114.217 139.493 122.332 137.7 123.784 125.71C124.253 121.859 125.222 113.913 119.522 108.155C114.142 102.725 105.688 102.117 106.047 99.5766C106.277 97.8529 110.374 96.5876 113.623 96.4581C121.084 96.1443 126.674 101.674 129.479 104.453Z" fill="#3FBFB6" stroke="#1D733A" stroke-miterlimit="10"/>
<path d="M76.4825 84.5473C80.5798 79.1473 88.2555 76.6665 93.7852 78.699C100.009 80.9905 99.0255 87.3619 105.763 90.1216C112.286 92.7867 116.673 88.2635 120.51 91.5613C123.505 94.1417 123.365 99.0834 123.205 104.204C123.081 108.145 122.966 111.741 120.625 115.059C117.521 119.453 113.588 118.98 113.004 122.108C112.386 125.401 116.583 126.781 116.498 131.618C116.498 132.579 116.238 135.991 113.469 137.884C110.699 139.777 107.36 138.741 106.901 138.587C112.785 133.864 113.703 130.666 113.319 128.559C112.71 125.216 108.752 124.305 108.852 121.316C108.952 118.327 113.019 117.988 114.991 113.799C117.127 109.261 115.635 102.675 112.685 101.519C109.736 100.364 107.415 105.505 102.933 105.006C97.8926 104.409 97.5782 97.4793 92.6673 96.2688C86.0546 94.6349 80.6896 105.734 76.4825 104.07C72.7444 102.565 71.1125 91.626 76.4825 84.5473Z" fill="#3FBFB6" stroke="#1D733A" stroke-miterlimit="10"/>
<path d="M53.0911 112.992C55.6862 110.705 57.5029 107.756 56.7892 105.609C55.821 102.72 50.0467 100.702 42.955 103.228C32.0603 108.115 28.3472 113.689 27.0496 118.023C25.3677 123.662 27.913 126.746 25.3278 134.332C22.8924 141.476 19.2741 142.627 19.9229 146.542C20.8462 152.102 28.5718 152.281 31.3366 158.333C32.759 161.437 33.2131 166.842 27.1245 176.546C36.4571 168.037 38.2487 161.84 37.4802 157.417C36.4321 151.334 30.4732 147.603 31.9405 144.794C33.5675 141.715 41.303 145.093 44.3324 141.307C46.8727 138.123 43.8333 133.899 44.7017 127.269C45.5352 121.161 49.3031 116.424 53.0911 112.992Z" fill="#3FBFB6" stroke="#1D733A" stroke-miterlimit="10"/>
<path d="M76.4825 104.05C79.5021 100.508 81.273 96.0753 81.5231 91.4316C81.6819 87.8407 80.9082 84.2697 79.2773 81.0651C63.4218 75.9491 56.5346 78.2954 53.1709 81.3441C49.2782 84.871 50.2414 89.2199 44.1876 95.0731C38.7578 100.329 35.0098 99.701 33.802 103.482C32.0852 108.852 38.8775 112.528 38.5731 119.174C38.4184 122.581 36.3572 127.597 26.5006 133.466C38.6979 130.143 43.1196 125.44 44.4671 121.136C46.3087 115.263 42.7054 109.231 45.3106 107.402C48.1702 105.41 53.5103 111.931 57.942 109.928C62.4885 107.871 60.6719 99.2875 64.6795 97.5988C66.4911 96.8316 69.8199 97.3298 76.4825 104.05Z" fill="#3FBFB6" stroke="#1D733A" stroke-miterlimit="10"/>
<path d="M38.9674 173.044C35.742 173.685 32.7763 175.258 30.4385 177.566C28.1007 179.875 26.4936 182.818 25.8169 186.031" fill="#3FBFB6"/>
<path d="M38.9674 173.044C35.742 173.685 32.7763 175.258 30.4385 177.566C28.1007 179.875 26.4936 182.818 25.8169 186.031" stroke="#1D733A" stroke-miterlimit="10"/>
<path d="M42.5058 178.972C38.7224 179.847 35.2796 181.811 32.6042 184.621C26.7351 190.863 27.2592 198.788 27.374 200.148" fill="#3FBFB6"/>
<path d="M42.5058 178.972C38.7224 179.847 35.2796 181.811 32.6042 184.621C26.7351 190.863 27.2592 198.788 27.374 200.148" stroke="#1D733A" stroke-miterlimit="10"/>
<path d="M46.4634 181.936C40.9237 183.147 38.9275 185.314 38.119 187.017C36.1227 191.107 39.6162 195.117 37.555 199.864C36.3123 202.739 33.7072 204.348 31.8956 205.23" fill="#3FBFB6"/>
<path d="M46.4634 181.936C40.9237 183.147 38.9275 185.314 38.119 187.017C36.1227 191.107 39.6162 195.117 37.555 199.864C36.3123 202.739 33.7072 204.348 31.8956 205.23" stroke="#1D733A" stroke-miterlimit="10"/>
<path d="M114.237 160.406C116.775 163.035 118.456 166.369 119.061 169.97C119.666 173.57 119.166 177.269 117.626 180.581" fill="#3FBFB6"/>
<path d="M114.237 160.406C116.775 163.035 118.456 166.369 119.061 169.97C119.666 173.57 119.166 177.269 117.626 180.581" stroke="#1D733A" stroke-miterlimit="10"/>
<path d="M111.472 170.165C109.232 172.574 107.863 175.662 107.584 178.937C107.436 180.981 107.736 183.033 108.463 184.95" fill="#3FBFB6"/>
<path d="M111.472 170.165C109.232 172.574 107.863 175.662 107.584 178.937C107.436 180.981 107.736 183.033 108.463 184.95" stroke="#1D733A" stroke-miterlimit="10"/>
<path d="M102.808 182.07C102.276 183.648 102.147 185.334 102.432 186.974C102.717 188.615 103.407 190.158 104.44 191.465" fill="#3FBFB6"/>
<path d="M102.808 182.07C102.276 183.648 102.147 185.334 102.432 186.974C102.717 188.615 103.407 190.158 104.44 191.465" stroke="#1D733A" stroke-miterlimit="10"/>
<path d="M137.209 165.153C137.659 174.458 135.155 183.666 130.053 191.466Z" fill="#3FBFB6"/>
<path d="M137.209 165.153C137.659 174.458 135.155 183.666 130.053 191.466" stroke="#1D733A" stroke-miterlimit="10"/>
<path d="M129.299 176.805C123.907 183.381 121.176 191.733 121.643 200.218Z" fill="#3FBFB6"/>
<path d="M129.299 176.805C123.907 183.381 121.176 191.733 121.643 200.218" stroke="#1D733A" stroke-miterlimit="10"/>
<path d="M75.0202 90.0518C74.7008 89.7629 69.1412 84.891 62.0444 86.9384C59.492 87.7067 57.2183 89.1985 55.4994 91.2325C53.7806 93.2666 52.6908 95.7552 52.3624 98.3959" fill="#3FBFB6"/>
<path d="M75.0202 90.0518C74.7008 89.7629 69.1412 84.891 62.0444 86.9384C59.492 87.7067 57.2183 89.1985 55.4994 91.2325C53.7806 93.2666 52.6908 95.7552 52.3624 98.3959" stroke="#1D733A" stroke-miterlimit="10"/>
<path d="M45.3255 100.533C43.955 100.524 42.6133 100.926 41.4731 101.685C40.3329 102.444 39.4463 103.526 38.9274 104.792C37.8095 107.726 39.3866 110.366 39.5862 110.685" fill="#3FBFB6"/>
<path d="M45.3255 100.533C43.955 100.524 42.6133 100.926 41.4731 101.685C40.3329 102.444 39.4463 103.526 38.9274 104.792C37.8095 107.726 39.3866 110.366 39.5862 110.685" stroke="#1D733A" stroke-miterlimit="10"/>
<path d="M83.8787 95.1477C83.9934 94.6495 85.2112 89.7577 89.4583 88.1038C93.7802 86.4251 99.5544 88.7564 102.254 94.1663" fill="#3FBFB6"/>
<path d="M83.8787 95.1477C83.9934 94.6495 85.2112 89.7577 89.4583 88.1038C93.7802 86.4251 99.5544 88.7564 102.254 94.1663" stroke="#1D733A" stroke-miterlimit="10"/>
<path d="M105.698 100.862C105.733 100.149 105.958 96.5676 108.323 95.1279C111.193 93.3794 116.727 95.0881 119.971 100.697" fill="#3FBFB6"/>
<path d="M105.698 100.862C105.733 100.149 105.958 96.5676 108.323 95.1279C111.193 93.3794 116.727 95.0881 119.971 100.697" stroke="#1D733A" stroke-miterlimit="10"/>
<path d="M127.762 112.22C130.659 117.871 131.608 124.317 130.462 130.561C129.316 136.805 126.139 142.497 121.424 146.757" fill="#3FBFB6"/>
<path d="M127.762 112.22C130.659 117.871 131.608 124.317 130.462 130.561C129.316 136.805 126.139 142.497 121.424 146.757" stroke="#1D733A" stroke-miterlimit="10"/>
<path d="M37.5899 132.584C34.4326 133.484 31.6521 135.38 29.6647 137.989C28.1838 139.974 27.22 142.295 26.8599 144.744" fill="#3FBFB6"/>
<path d="M37.5899 132.584C34.4326 133.484 31.6521 135.38 29.6647 137.989C28.1838 139.974 27.22 142.295 26.8599 144.744" stroke="#1D733A" stroke-miterlimit="10"/>
<path d="M30.8226 151.2C31.0521 151.289 33.8619 152.42 34.4957 155.349C34.7746 156.739 34.535 158.183 33.822 159.409" fill="#3FBFB6"/>
<path d="M30.8226 151.2C31.0521 151.289 33.8619 152.42 34.4957 155.349C34.7746 156.739 34.535 158.183 33.822 159.409" stroke="#1D733A" stroke-miterlimit="10"/>
<path d="M22.1238 156.799C23.1656 157.601 24.0185 158.62 24.6221 159.787C25.2258 160.953 25.5655 162.237 25.6173 163.549C25.6971 167.938 22.3584 170.464 22.0439 170.688" fill="#3FBFB6"/>
<path d="M22.1238 156.799C23.1656 157.601 24.0185 158.62 24.6221 159.787C25.2258 160.953 25.5655 162.237 25.6173 163.549C25.6971 167.938 22.3584 170.464 22.0439 170.688" stroke="#1D733A" stroke-miterlimit="10"/>
<path d="M121.044 86.2609L113.733 44.8745C113.049 40.9989 112.366 37.0136 113.129 33.153C113.893 29.2923 116.448 26.7467 120.256 24.4851C126.504 22.7864 130.382 29.2226 132.548 35.9426C132.648 42.4186 128.895 48.2221 125.282 53.5871C129.444 48.3217 133.646 42.9815 136.471 36.8642C139.295 30.7469 140.663 23.7529 138.896 17.2719C134.573 9.43335 127.609 3.37639 119.238 0.175343C110.714 -0.751219 102.988 2.05835 93.4259 7.08968C87.0678 11.9566 82.3466 18.602 77.9997 25.327C68.4025 40.2018 60.0731 58.3843 53.5053 74.9728C75.2594 82.3536 98.0682 86.1657 121.044 86.2609V86.2609Z" fill="#50BC81"/>
<path d="M142.529 96.1442C141.032 95.4219 137.539 93.6933 136.256 93.0706C126.454 88.3481 117.79 84.1736 109.86 81.3939C101.735 78.5544 95.8863 77.7674 85.2761 76.1434C74.5726 74.5063 63.7598 73.6853 52.9314 73.6875C34.6205 74.2753 16.2248 80.9406 0 92.9062C26.4757 92.0344 50.0018 111.916 76.0632 116.449C92.6573 119.333 109.691 115.901 126.549 115.348C143.408 114.795 161.195 117.654 173.991 131.085C167.188 115.039 155.865 102.461 142.529 96.1442Z" fill="#50BC81"/>
<path d="M88.022 332.902C90.3716 330.101 93.1966 327.737 96.3671 325.917C103.207 322.069 107.491 323.351 118.882 321.258C131.075 319.013 129.899 316.874 135.955 316.981C145.111 317.151 154.204 322.149 159.637 329.606C160.617 330.942 168.819 342.212 164.295 350.373C162.701 353.137 160.141 355.213 157.107 356.2C153.723 357.26 151.541 356.2 147.605 355.816C141.771 355.309 137.808 356.984 133.827 358.142C130.674 359.033 89.2956 370.935 81.0306 359.113C76.533 352.654 82.322 339.691 88.022 332.902Z" fill="#595A5C"/>
<path d="M95.7792 324.456C96.6698 324.75 97.4625 325.053 97.9523 325.258L93.2409 328.252C93.1068 327.479 92.8481 326.732 92.475 326.042C91.6378 324.519 90.6403 324.047 90.8006 323.69C91.0411 323.084 94.2295 323.957 95.7792 324.456Z" fill="#818285"/>
<path d="M103.154 318.175C104.37 318.806 105.506 319.581 106.538 320.483C107.277 321.127 107.962 321.83 108.586 322.585L101.88 323.61C102.096 323.223 102.231 322.795 102.276 322.354C102.322 321.913 102.278 321.468 102.147 321.044C101.944 320.632 101.663 320.263 101.319 319.957C99.7247 318.051 98.3175 317.356 98.3442 316.982C98.371 316.607 100.802 316.964 103.154 318.175Z" fill="#818285"/>
<path d="M116.736 315.547C118.538 317.077 120.068 318.903 121.26 320.946L113.512 322.175C113.614 319.664 113.049 317.171 111.873 314.95C110.982 313.382 110.092 312.473 110.35 312.152C110.777 311.618 114.153 313.364 116.736 315.547Z" fill="#818285"/>
<path d="M126.719 308.928C127.652 309.415 128.495 310.056 129.213 310.825C131.021 312.698 132.584 314.794 133.862 317.062L126.256 319.734C126.413 317.017 125.796 314.31 124.475 311.93C123.38 309.997 122.017 308.821 122.418 308.206C122.818 307.591 125.179 308.135 126.719 308.928Z" fill="#818285"/>
<path d="M78.6526 350.293C79.1603 349.981 79.5967 349.758 79.8817 349.616C79.757 350.792 79.6234 351.977 79.4987 353.179C79.0672 352.903 78.5955 352.696 78.1004 352.565C77.0317 352.297 76.4171 352.565 76.3192 352.342C76.15 351.95 77.8065 350.81 78.6526 350.293Z" fill="#818285"/>
<path d="M80.1756 343.237C80.7462 343.131 81.3236 343.065 81.9034 343.041C81.3067 344.698 80.7189 346.364 80.1221 348.021C79.7321 347.364 79.2525 346.764 78.6971 346.239C77.5215 345.179 76.6843 345.179 76.6398 344.742C76.5597 344.038 78.9911 343.45 80.1756 343.237Z" fill="#818285"/>
<path d="M83.2391 336.618C84.1921 336.44 85.0204 336.342 85.528 336.288L82.7849 341.188C82.2957 340.58 81.7124 340.053 81.0571 339.629C79.5876 338.685 78.4921 338.738 78.4654 338.364C78.4209 337.705 81.6628 336.93 83.2391 336.618Z" fill="#818285"/>
<path d="M87.5321 329.891C88.7789 330.105 89.7942 330.319 90.4622 330.47L86.9532 334.239C86.6813 333.469 86.3101 332.738 85.8488 332.065C84.8157 330.55 83.7826 330.034 83.9429 329.668C84.0141 329.517 84.3347 329.33 87.5321 329.891Z" fill="#818285"/>
<path d="M187.941 328.733C186.248 326.363 183.675 327.218 180.023 323.94C176.781 321.018 176.933 318.639 174.608 315.601C173.452 314.108 172.03 312.842 170.413 311.868C167.59 310.258 164.491 309.191 161.275 308.723C150.926 306.87 135.643 311.797 132.321 323.735C129.32 334.488 137.745 344.894 144.79 349.572C159.147 359.06 177.227 351.505 182.641 346.418C183.43 345.654 184.156 344.828 184.815 343.95C187.718 340.012 190.826 332.76 187.941 328.733Z" fill="#595A5C"/>
<path d="M161.258 332.091C163.702 332.091 165.684 328.992 165.684 325.169C165.684 321.346 163.702 318.247 161.258 318.247C158.813 318.247 156.831 321.346 156.831 325.169C156.831 328.992 158.813 332.091 161.258 332.091Z" fill="white"/>
<path d="M161.258 329.472C162.778 329.472 164.01 327.545 164.01 325.169C164.01 322.792 162.778 320.866 161.258 320.866C159.738 320.866 158.506 322.792 158.506 325.169C158.506 327.545 159.738 329.472 161.258 329.472Z" fill="#231F20"/>
<path d="M163.128 323.619C163.615 323.619 164.01 323.005 164.01 322.247C164.01 321.489 163.615 320.875 163.128 320.875C162.641 320.875 162.246 321.489 162.246 322.247C162.246 323.005 162.641 323.619 163.128 323.619Z" fill="white"/>
<path d="M185.02 334.061C185.123 333.616 185.081 333.15 184.9 332.732C184.719 332.313 184.408 331.964 184.013 331.735C183.659 331.62 183.279 331.61 182.92 331.708C182.56 331.807 182.238 332.008 181.991 332.288C181.546 332.778 181.546 333.383 181.555 334.595C181.564 335.807 181.555 336.698 182.027 336.903C182.499 337.107 183.452 336.217 183.978 335.673C184.485 335.258 184.85 334.694 185.02 334.061V334.061Z" fill="#818285"/>
<path opacity="0.57" d="M150.882 345.731C153.612 345.731 155.825 343.593 155.825 340.956C155.825 338.319 153.612 336.181 150.882 336.181C148.152 336.181 145.939 338.319 145.939 340.956C145.939 343.593 148.152 345.731 150.882 345.731Z" fill="#F7B1C4"/>
<path opacity="0.57" d="M144.47 337.526C145.606 337.526 146.527 336.637 146.527 335.539C146.527 334.442 145.606 333.553 144.47 333.553C143.333 333.553 142.412 334.442 142.412 335.539C142.412 336.637 143.333 337.526 144.47 337.526Z" fill="#F7B1C4"/>
<path d="M154.293 317.477L168.532 323.685L170.838 318.392L156.599 312.184L154.293 317.477Z" fill="#595A5C"/>
<path d="M180.37 342.292C180.37 342.292 174.136 344.484 164.491 342.292C164.491 342.292 168.16 348.253 172.426 348.146C172.426 348.146 177.111 348.279 180.37 342.292Z" fill="white"/>
<path d="M174.1 310.228C174.786 311.922 174.963 313.78 174.608 315.573L170.413 311.84C170.701 311.277 170.913 310.678 171.046 310.059C171.455 308.197 170.939 307.056 171.304 306.887C171.669 306.718 173.281 308.295 174.1 310.228Z" fill="#818285"/>
<path d="M165.657 304.598C166.483 305.699 167.174 306.896 167.715 308.161C168.089 309.064 168.387 309.997 168.605 310.95L162.122 308.963C162.485 308.712 162.795 308.39 163.032 308.016C163.269 307.643 163.429 307.226 163.502 306.789C163.493 306.328 163.4 305.872 163.226 305.444C162.603 303.039 161.641 301.809 161.828 301.48C162.015 301.15 164.063 302.486 165.657 304.598Z" fill="#818285"/>
<path d="M156.012 303.235C157.814 304.771 159.341 306.603 160.527 308.652H153.064C152.81 306.539 152.154 304.495 151.131 302.629C150.241 300.981 149.35 300.144 149.617 299.841C150.054 299.306 153.429 301.043 156.012 303.235Z" fill="#818285"/>
<path d="M139.901 302.86C140.831 303.351 141.674 303.992 142.394 304.758C144.04 306.399 145.531 308.188 146.847 310.104L139.446 313.667C139.603 310.963 139.002 308.27 137.71 305.89C136.605 303.956 135.243 302.78 135.643 302.166C136.044 301.551 138.36 302.068 139.901 302.86Z" fill="#818285"/>
<path d="M126.096 350.757C126.354 346.106 129.899 341.34 134.655 340.957C137.576 340.734 140.889 342.168 142.287 344.725C145.529 350.632 138.119 361.581 132.615 361.029C129.115 360.691 125.829 355.612 126.096 350.757Z" fill="#818285"/>
<path d="M112.184 349.821C113.075 350.24 120.066 353.447 120.2 359.425C120.289 363.63 116.94 366.552 116.344 367.016C110.857 371.568 99.6623 371.399 95.8594 364.592C94.7248 362.408 94.3111 359.92 94.6775 357.485C95.0439 355.051 96.1716 352.795 97.8989 351.041C103.189 345.999 111.053 349.331 112.184 349.821Z" fill="#818285"/>
<path d="M145.734 370.606C141.379 372.388 135.937 370.606 134.076 367.452C133.31 366.142 133.844 365.741 132.981 363.755C131.279 359.826 128.429 359.558 128.314 357.714C128.127 354.56 136.124 349.758 140.524 351.95C142.635 353.01 142.002 354.738 145.316 358.534C148.629 362.329 150.739 362.418 150.944 364.503C151.185 367.06 148.175 369.599 145.734 370.606Z" fill="#818285"/>
<path d="M115.631 380.201C111.65 382.713 105.959 381.858 103.608 379.061C103.118 378.387 102.764 377.625 102.566 376.815C102.384 376.389 102.163 375.981 101.907 375.595C98.9053 370.82 93.1163 361.608 95.0756 359.22C96.6164 357.331 103.474 359.015 107.348 362.694C108.889 364.164 109.13 365.136 111.169 366.561C113.529 368.183 114.963 368.085 117.225 370.036C118.463 371.105 119.443 371.96 119.737 373.305C120.316 375.978 117.786 378.838 115.631 380.201Z" fill="#818285"/>
<path d="M146.972 395.881C145.903 396.95 140.293 390.536 130.237 386.642C119.71 382.598 116.549 386.09 104.962 382.981C98.4778 381.234 87.0066 378.143 81.9479 368.503C76.0609 357.233 81.2621 341.41 85.7687 340.885C90.5691 340.404 89.2866 357.652 103.216 368.156C115.685 377.582 127.619 372.076 139.999 384.549C144.63 389.208 147.89 394.955 146.972 395.881Z" fill="#595A5C"/>
</svg>
