<?xml version="1.0" encoding="UTF-8"?>
<svg id="Layer_2" data-name="Layer 2" xmlns="http://www.w3.org/2000/svg" viewBox="0 0 173.63 419.12">
  <defs>
    <style>
      .cls-1 {
        fill: #f8b25e;
      }

      .cls-2 {
        fill: #eee5d8;
      }

      .cls-3 {
        fill: #fff;
      }

      .cls-4 {
        fill: #818285;
      }

      .cls-5 {
        fill: #231f20;
      }

      .cls-6 {
        fill: #595a5c;
      }

      .cls-7 {
        fill: #60c198;
      }
    </style>
  </defs>
  <g id="verbs-cepillarse">
    <g>
      <path class="cls-6" d="M60.3,127.32c3.25-2.94,7.9-3.55,11.5-1.58,4.53,2.48,4.97,7.71,5,8.07-8.12,10.74-17.09,21.91-26.97,33.33-9.78,11.3-19.45,21.68-28.83,31.18-5.17,2.47-11.26,1.82-15.6-1.67-4.85-3.9-6.68-10.66-4.45-16.7,4.97-5.07,46.83-41.28,59.35-52.62Z"/>
      <g>
        <path class="cls-6" d="M92.51,268.64c1.96-11.77,10.88-21.08,22.18-23.3,12.55-2.46,25.58,4.31,31.08,16.47-.05,5.71-.24,10.52-.42,14.12-.24,4.73-.52,8.3-.88,12.86-.04,.52-.57,7.23-1.19,13.44-1.2,12.03-2.7,23.53-4.42,34.47-3.09,8.95-11.76,14.55-20.82,13.49-8.94-1.05-16.12-8.35-17.33-17.64-2.73-21.3-5.46-42.61-8.19-63.91Z"/>
        <path class="cls-6" d="M113.5,415.49c.36,1.16,1.27,2.03,2.35,2.22,1.4,.25,2.88-.66,3.43-2.22,5.55-15.9,10.82-33.96,15.03-54.03,2.39-11.4,4.21-22.29,5.57-32.59,.38-13.48-10.69-23.74-21.84-22.63-9.89,.99-18.31,10.78-17.84,22.63,4.43,28.87,8.86,57.75,13.29,86.62Z"/>
      </g>
      <g>
        <path class="cls-6" d="M81.85,270c-1.96-11.77-10.88-21.08-22.18-23.3-12.55-2.46-25.58,4.31-31.08,16.47,.05,5.71,.24,10.52,.42,14.12,.24,4.73,.52,8.3,.88,12.86,.04,.52,.57,7.23,1.19,13.44,1.2,12.03,2.7,23.53,4.42,34.47,3.09,8.95,11.76,14.55,20.82,13.49,8.94-1.05,16.12-8.35,17.33-17.64,2.73-21.3,5.46-42.61,8.19-63.91Z"/>
        <path class="cls-6" d="M60.86,416.85c-.36,1.16-1.27,2.03-2.35,2.22-1.4,.25-2.88-.66-3.43-2.22-5.55-15.9-10.82-33.96-15.03-54.03-2.39-11.4-4.21-22.29-5.57-32.59-.38-13.48,10.69-23.74,21.84-22.63,9.89,.99,18.31,10.78,17.84,22.63-4.43,28.87-8.86,57.75-13.29,86.62Z"/>
      </g>
      <path class="cls-6" d="M108.83,146.41c-2.41-3.66-2.3-8.35,.19-11.6,3.14-4.1,8.38-3.73,8.74-3.7,9.38,9.67,19.04,20.24,28.81,31.75,9.67,11.39,18.45,22.54,26.41,33.25,1.65,5.48,.08,11.4-4.04,15.16-4.59,4.2-11.55,4.98-17.19,1.84-4.25-5.68-33.64-52.59-42.93-66.7Z"/>
      <g>
        <path class="cls-6" d="M50.18,137.31c1.45-1.9,14.58-18.45,37.33-18.4,22.61,.05,35.63,16.47,37.1,18.4,6.73,19.4,13.38,43.65,17.32,71.99,3.44,24.77,4.03,46.98,3.37,65.62-1.51,1.39-15.43,13.82-33.61,9.98-10.22-2.16-16.67-8.37-19.23-11.15-.86,.45-2.74,1.28-5.24,1.2-2.16-.07-3.77-.8-4.61-1.24-2.79,2.83-9.46,8.77-19.75,10.85-18.07,3.64-31.9-7.75-33.78-9.35-.79-19.14-.24-42.56,3.71-68.91,4.09-27.28,10.76-50.52,17.39-68.98Z"/>
        <g>
          <path class="cls-4" d="M50.18,137.31c-.53-.15-6.99,19.13-12.01,40.8-2.29,9.87-4.04,19.3-5.38,28.18-.93,6.22-2.59,18.37-3.46,34.04-.97,17.34-.75,34.87-.25,34.88,.65,.02-.49-29.53,5.19-67.91,6.05-40.91,16.57-69.79,15.92-69.98Z"/>
          <path class="cls-4" d="M124.78,137.73c.53-.15,6.46,18.41,11.49,40.08,2.29,9.87,4.04,19.3,5.38,28.18,.93,6.22,2.59,18.37,3.46,34.04,.97,17.34,.75,34.87,.25,34.88-.65,.02,.49-29.53-5.19-67.91-6.05-40.91-16.05-69.07-15.39-69.26Z"/>
        </g>
      </g>
      <g>
        <ellipse class="cls-6" cx="87.57" cy="73.95" rx="73.5" ry="73.95"/>
        <path class="cls-4" d="M87.32,147.78c-2.33,.04-4.86-.04-7.55-.3-6.57-.64-12.18-2.17-16.62-3.79,6.35,1.45,14.55,2.73,24.14,2.75,9.79,.03,18.15-1.26,24.58-2.71-3.76,1.41-8.58,2.82-14.28,3.55-3.81,.49-7.28,.59-10.27,.5Z"/>
      </g>
      <path class="cls-6" d="M.85,181.2c-.15,6.11,3.59,11.66,9.26,13.81,5.8,2.19,12.41,.36,16.3-4.52,7.62-15.14,15.24-30.28,22.86-45.43,.04-.66,.31-7.92-5.66-12.58-5.43-4.25-11.67-2.93-12.49-2.74-4.86,5.6-10.09,12.38-15.13,20.43-7.1,11.33-11.88,22.05-15.14,31.02Z"/>
      <g>
        <ellipse class="cls-3" cx="67.36" cy="81.25" rx="9.03" ry="14.12"/>
        <ellipse class="cls-3" cx="111.41" cy="81.25" rx="9.03" ry="14.12"/>
        <ellipse class="cls-5" cx="67.55" cy="84.07" rx="7.08" ry="11.29"/>
        <ellipse class="cls-3" cx="63.29" cy="75.58" rx="1.79" ry="2.8"/>
        <ellipse class="cls-5" cx="111.36" cy="84.07" rx="7.18" ry="11.29"/>
        <ellipse class="cls-3" cx="107.6" cy="75.58" rx="1.79" ry="2.8"/>
      </g>
      <path class="cls-3" d="M70.3,112.43s12.77,4.33,32.47,0c0,0-7.5,11.76-16.24,11.55,0,0-9.58,.27-16.24-11.55Z"/>
      <g>
        <path class="cls-7" d="M75.16,126.47c-2.19-.84-4.28-3.66-4.39-5.99-.07-1.44,.65-2.23,6.56-6.32,5.3-3.68,6.3-4.13,7.68-3.58,2.09,.84,4.02,3.6,4.12,5.85,.06,1.42-.61,2.27-6.06,6.18-5.58,4.01-6.59,4.35-7.91,3.85Z"/>
        <path class="cls-7" d="M49.6,142.29c-2.57,.83-3.5-.32-1.94-2.46,.97-1.32,2.6-2.61,14.24-10.91,10.45-7.45,12.24-8.63,13.83-9.12,2.42-.75,3.18,.45,1.65,2.53-.96,1.31-2.57,2.62-13.41,10.41-11.1,7.97-12.82,9.05-14.37,9.55Z"/>
      </g>
      <path class="cls-6" d="M31.13,129.75c-2.46,5.72-.56,12.26,4.22,15.5,4.07,2.75,9.61,2.69,13.92-.18,6.35-8.97,12.71-17.95,19.06-26.92,.36-.52,.41-.92,.39-1.2-.12-1.37-2.31-2.62-5.53-2.95-1.45-.12-2.95-.14-4.49-.04-13.71,.87-23.38,10.8-27.57,15.79Z"/>
      <g>
        <path class="cls-1" d="M90.02,229.57l-18.18-3.75c-.44-.15-2.41-.9-3.37-2.85-1.35-2.75,.58-5.31,.69-5.45,6.16-17.51,12.32-35.02,18.47-52.52,.19-.51,.79-1.86,2.34-2.86,2.23-1.42,4.69-.98,5.11-.9,.28,.03,.55,.05,.83,.08,3.6,.33,7.19,.66,10.79,1,.64,.19,2.78,.88,4.19,2.89,1.02,1.45,1.16,2.88,1.18,3.54-4.97,18.58-9.93,37.16-14.9,55.74-.15,.51-.89,2.87-3.48,4.22-1.49,.77-2.92,.87-3.67,.87Z"/>
        <polygon class="cls-2" points="98.58 153.06 109.26 154.66 106.7 162.31 95.91 161.31 98.58 153.06"/>
      </g>
      <path class="cls-6" d="M165.14,214.29c5.52-2.62,8.8-8.46,8.15-14.49-.66-6.16-5.27-11.24-11.37-12.52-16.95,.02-33.9,.04-50.86,.05-.61,.27-7.21,3.29-8.68,10.72-1.34,6.76,2.64,11.74,3.18,12.39,7.19,1.82,15.6,3.43,25.05,4.31,13.31,1.23,25.04,.67,34.52-.46Z"/>
      <path class="cls-6" d="M105.57,210.44c6.21-.38,11.2-5.02,11.93-10.75,.62-4.87-1.93-9.79-6.44-12.35-10.87-1.63-21.75-3.26-32.62-4.89-.62-.09-1.01,.05-1.24,.19-1.17,.72-1.3,3.25-.14,6.27,.55,1.35,1.2,2.7,1.99,4.03,6.95,11.84,20.18,16.01,26.52,17.5Z"/>
      <path class="cls-4" d="M114.39,187.32h20.86c-3.3-.41-7.07-.67-11.21-.64-3.52,.03-6.75,.28-9.65,.64Z"/>
      <path class="cls-4" d="M105.88,210.55c4.03,.94,8.32,1.81,12.85,2.56,5.77,.96,11.24,1.61,16.35,2.03-5.78-.11-12.44-.7-19.72-2.2-3.39-.7-6.55-1.52-9.47-2.4Z"/>
      <path class="cls-4" d="M42.67,119.39c2.17-1.41,5.4-3.15,9.59-4.29,3.31-.9,6.25-1.16,8.51-1.19-2.04-.19-5.18-.23-8.81,.74-4.45,1.19-7.57,3.35-9.29,4.74Z"/>
    </g>
  </g>
</svg>