<?xml version="1.0" encoding="UTF-8"?>
<svg id="Layer_2" data-name="Layer 2" xmlns="http://www.w3.org/2000/svg" viewBox="0 0 184.39 505.88">
  <defs>
    <style>
      .cls-1 {
        fill: #fff;
      }

      .cls-2 {
        fill: #e72b5c;
      }

      .cls-3 {
        fill: #818285;
      }

      .cls-4 {
        fill: #231f20;
      }

      .cls-5 {
        fill: #595a5c;
      }

      .cls-6 {
        fill: #60c8d4;
      }

      .cls-7 {
        fill: none;
        stroke: #818285;
        stroke-miterlimit: 10;
        stroke-width: 2px;
      }

      .cls-8 {
        fill: #f7b1c4;
        opacity: .57;
      }
    </style>
  </defs>
  <g id="verbs-abrazar">
    <g>
      <path class="cls-5" d="M102.58,323.32c2.38-14.28,13.2-25.58,26.91-28.27,15.22-2.99,31.03,5.23,37.71,19.99-.06,6.93-.29,12.76-.51,17.13-.29,5.73-.64,10.07-1.07,15.6-.05,.63-.69,8.77-1.45,16.31-1.46,14.6-3.28,28.55-5.36,41.82-3.74,10.85-14.27,17.66-25.26,16.36-10.84-1.28-19.56-10.13-21.03-21.4-3.31-25.85-6.62-51.69-9.93-77.54Z"/>
      <path class="cls-5" d="M128.05,501.48c.44,1.41,1.54,2.46,2.85,2.7,1.7,.31,3.5-.8,4.16-2.7,6.73-19.29,13.12-41.2,18.24-65.55,2.91-13.82,5.11-27.05,6.76-39.54,.46-16.36-12.97-28.8-26.49-27.45-12,1.2-22.22,13.08-21.64,27.45,5.37,35.03,10.75,70.06,16.12,105.09Z"/>
    </g>
    <g>
      <path class="cls-5" d="M89.65,324.98c-2.38-14.28-13.2-25.58-26.91-28.27-15.22-2.99-31.03,5.23-37.71,19.99,.06,6.93,.29,12.76,.51,17.13,.29,5.73,.64,10.07,1.07,15.6,.05,.63,.69,8.77,1.45,16.31,1.46,14.6,3.28,28.55,5.36,41.82,3.74,10.85,14.27,17.66,25.26,16.36,10.84-1.28,19.56-10.13,21.03-21.4,3.31-25.85,6.62-51.69,9.93-77.54Z"/>
      <path class="cls-5" d="M64.19,503.13c-.44,1.41-1.54,2.46-2.85,2.7-1.7,.31-3.5-.8-4.16-2.7-6.73-19.29-13.12-41.2-18.24-65.55-2.91-13.82-5.11-27.05-6.76-39.54-.46-16.36,12.97-28.8,26.49-27.45,12,1.2,22.22,13.08,21.64,27.45-5.37,35.03-10.75,70.06-16.12,105.09Z"/>
    </g>
    <path class="cls-5" d="M62.91,177.29c1.87-4.99,.45-10.52-3.43-13.7-4.88-4-11.03-2.15-11.45-2.01-8.52,14.01-17.14,29.17-25.64,45.47C13.99,223.18,6.58,238.77,.04,253.64c-.46,6.95,3.05,13.54,8.99,16.88,6.64,3.73,15.15,2.76,21.01-2.49,3.51-7.89,25.65-71.48,32.86-90.74Z"/>
    <path class="cls-5" d="M119.49,143.48c-1.36-5.14,.58-10.49,4.71-13.27,5.2-3.5,11.08-1.05,11.48-.88,7.04,14.74,14.06,30.64,20.85,47.65,6.72,16.84,12.5,33.05,17.5,48.45-.22,6.94-4.32,13.14-10.51,15.87-6.91,3.05-15.21,1.25-20.47-4.53-2.69-8.18-18.33-73.48-23.56-93.3Z"/>
    <g>
      <path class="cls-5" d="M51.23,163.99c1.76-2.3,17.69-22.39,45.29-22.32,27.43,.06,43.23,19.98,45.01,22.32,8.17,23.54,16.23,52.96,21.02,87.34,4.18,30.05,4.89,57,4.08,79.61-1.83,1.69-18.72,16.77-40.77,12.11-12.39-2.62-20.22-10.16-23.33-13.53-1.04,.54-3.33,1.56-6.36,1.45-2.62-.09-4.58-.97-5.59-1.51-3.39,3.43-11.48,10.64-23.96,13.16-21.92,4.42-38.7-9.4-40.99-11.34-.96-23.22-.29-51.63,4.5-83.61,4.97-33.1,13.05-61.29,21.1-83.68Z"/>
      <g>
        <path class="cls-3" d="M51.23,163.99c-.65-.18-8.48,23.21-14.58,49.5-2.78,11.98-4.9,23.41-6.52,34.18-1.13,7.54-3.14,22.28-4.2,41.29-1.18,21.04-.91,42.3-.3,42.31,.79,.02-.59-35.83,6.29-82.39,7.34-49.64,20.1-84.67,19.31-84.9Z"/>
        <path class="cls-3" d="M141.74,164.51c.65-.18,7.84,22.33,13.94,48.62,2.78,11.98,4.9,23.41,6.52,34.18,1.13,7.54,3.14,22.28,4.2,41.29,1.18,21.04,.91,42.3,.3,42.31-.79,.02,.59-35.83-6.29-82.39-7.34-49.64-19.47-83.8-18.67-84.02Z"/>
      </g>
    </g>
    <path class="cls-5" d="M161.36,245.22c7.15-1.96,12.29-8.24,12.8-15.59,.51-7.5-3.92-14.54-10.95-17.35-20.26-3.56-40.51-7.11-60.77-10.67-.78,.19-9.3,2.41-12.63,10.97-3.03,7.8,.68,14.58,1.19,15.47,8.21,3.69,17.91,7.39,29.02,10.43,15.65,4.29,29.77,6.09,41.34,6.74Z"/>
    <path class="cls-5" d="M91,228.04c7.5,.85,14.45-3.63,16.53-10.33,1.77-5.68-.24-12.1-5.08-16.11-12.65-4.24-25.29-8.48-37.94-12.73-.73-.24-1.21-.16-1.53-.03-1.55,.61-2.23,3.6-1.49,7.46,.37,1.73,.87,3.48,1.52,5.24,5.81,15.62,20.73,23.38,27.99,26.5Z"/>
    <path class="cls-5" d="M19.54,272.67c-7.4,.41-14.28-3.9-17.09-10.71-2.87-6.94-.91-15.03,4.86-19.93,18.07-9.82,36.14-19.64,54.21-29.45,.8-.07,9.59-.68,15.47,6.38,5.35,6.43,3.99,14.04,3.8,15.04-6.6,6.11-14.63,12.71-24.19,19.13-13.47,9.04-26.29,15.25-37.04,19.54Z"/>
    <path class="cls-5" d="M80.78,234c-6.84,3.2-14.85,1.15-18.95-4.53-3.49-4.83-3.63-11.55-.31-16.89,10.64-8.05,21.28-16.09,31.92-24.14,.61-.46,1.1-.54,1.44-.52,1.66,.09,3.26,2.71,3.79,6.6,.2,1.76,.29,3.58,.23,5.45-.54,16.65-12.21,28.76-18.1,34.03Z"/>
    <path class="cls-3" d="M61.51,212.62l12.53-9.43c-2.31,1.2-4.97,2.83-7.73,5.03-1.88,1.5-3.47,3-4.81,4.4Z"/>
    <path class="cls-3" d="M105.06,202.04l37.59,6.54c-5.76-1.55-12.11-3-18.99-4.18-6.62-1.14-12.85-1.89-18.6-2.36Z"/>
    <path class="cls-3" d="M61.95,198.23c-.38-2.18-1.29-8.32,.86-9.3,.55-.25,1.11-.08,1.66,.09,2.76,.86,5.53,1.72,8.51,2.68-2.59-1.22-4.81-1.97-6.39-2.44-3.17-.94-3.89-.76-4.36-.44-1.38,.94-1.21,3.51-1.09,5.42,.11,1.74,.51,3.13,.81,4Z"/>
    <path class="cls-3" d="M98.81,196.46c-.35-2.19-1.47-8.29-3.82-8.52-.6-.06-1.08,.28-1.54,.62-2.33,1.7-4.68,3.42-7.19,5.28,2.05-1.99,3.91-3.42,5.26-4.38,2.7-1.91,3.43-1.97,3.98-1.82,1.61,.45,2.28,2.93,2.78,4.78,.46,1.69,.53,3.13,.53,4.04Z"/>
    <path class="cls-3" d="M118.64,238.12l37.55,6.75c-5.94-.52-12.4-1.34-19.27-2.59-6.61-1.2-12.72-2.63-18.28-4.16Z"/>
    <path class="cls-3" d="M93.46,218.66c-5.3,7.08-12.41,15.21-21.73,23.17-5.25,4.48-10.37,8.2-15.14,11.29,5.88-3.13,13.53-7.98,21.26-15.32,7.22-6.85,12.23-13.72,15.62-19.14Z"/>
    <path class="cls-3" d="M6.49,242.52c10.84-5.89,21.68-11.79,32.52-17.68-5.41,2.42-11.15,5.23-17.12,8.49-5.58,3.05-10.71,6.15-15.4,9.19Z"/>
    <g>
      <g>
        <circle class="cls-5" cx="96.09" cy="88.3" r="88.29"/>
        <path class="cls-3" d="M59.06,168.48s27.33,16.06,57.31,5.78c0,0-29.73,7.8-57.31-5.78Z"/>
      </g>
      <g>
        <path class="cls-7" d="M98.63,133.91c-.96,3.45-2.29,4.49-3.32,4.8-2.75,.83-5.68-2.79-7.82-1.5-.73,.44-1.02,1.25-1.25,1.91-.72,2.02,.12,3.89,.5,4.74,1.4,3.13,4.38,4.43,5.27,4.78"/>
        <path class="cls-7" d="M89.08,147.02c-1.76,1.47-2.55,3.45-2.01,5.02,.44,1.29,1.66,1.96,2.08,2.16,2.32,1.11,4.02-.57,6.34,.37,.74,.3,1.62,.9,2.43,2.19"/>
      </g>
      <g>
        <path class="cls-2" d="M78.59,142.82c-.45,2.36-.9,4.71-1.36,7.07-1.36-1.3-2.72-2.61-4.08-3.91-2.12-2.37-1.88-5.13-.32-6.18,.95-.64,2.65-.82,4.02-.06,1.17,.65,1.84,1.84,1.74,3.08Z"/>
        <path class="cls-2" d="M77.32,142.69c-.03,2.4-.05,4.8-.08,7.2,1.59-1.01,3.18-2.01,4.78-3.02,2.55-1.9,2.87-4.65,1.55-5.99-.8-.82-2.44-1.33-3.93-.86-1.27,.4-2.17,1.44-2.32,2.67Z"/>
      </g>
      <g>
        <path class="cls-6" d="M58.3,111.08s3.04-.22,6.26,.63l-1.68-1.7s-3.92,.05-4.57,1.07Z"/>
        <path class="cls-6" d="M46.28,75.12s.47,3.96,9.58,8.46c0,0,5.54,3.27,9.1-8.42,0,0-8.78-.23-17.18-10.64,0,0-.97,6.91,11.4,13.53,0,0,.69,.72-.17,1.12,0,0-7.52,.27-12.74-4.05Z"/>
        <ellipse class="cls-1" cx="66.77" cy="93.07" rx="18.77" ry="12" transform="translate(-32.53 150.18) rotate(-84.25)"/>
        <path class="cls-6" d="M148.69,85.44s-1.25,3.78-11.07,6.38c0,0-6.08,2.1-7.24-10.07,0,0,8.65,1.52,18.95-7,0,0-.43,6.96-13.87,10.99,0,0-.82,.57-.06,1.13,0,0,7.32,1.77,13.29-1.43Z"/>
        <path class="cls-6" d="M130.23,118.33s-2.94-.83-6.26-.63l1.99-1.33s3.83,.84,4.27,1.96Z"/>
        <ellipse class="cls-1" cx="125.03" cy="98.94" rx="18.77" ry="12" transform="translate(14.04 213.42) rotate(-84.25)"/>
        <ellipse class="cls-4" cx="66.65" cy="96.84" rx="15.01" ry="9.41" transform="translate(-36.39 153.44) rotate(-84.25)"/>
        <ellipse class="cls-1" cx="62.15" cy="85.05" rx="3.73" ry="2.38" transform="translate(-28.7 138.35) rotate(-84.25)"/>
        <ellipse class="cls-4" cx="124.58" cy="102.68" rx="15.01" ry="9.55" transform="translate(9.93 216.33) rotate(-84.25)"/>
        <ellipse class="cls-1" cx="120.73" cy="90.95" rx="3.73" ry="2.38" transform="translate(18.14 201.96) rotate(-84.25)"/>
        <ellipse class="cls-8" cx="52.65" cy="122.56" rx="2.92" ry="11.09" transform="translate(-74.57 162.66) rotate(-84.25)"/>
        <ellipse class="cls-8" cx="135.74" cy="130.93" rx="2.92" ry="11.09" transform="translate(-8.14 252.86) rotate(-84.25)"/>
      </g>
    </g>
  </g>
</svg>