<?xml version="1.0" encoding="UTF-8"?>
<svg id="Layer_2" data-name="Layer 2" xmlns="http://www.w3.org/2000/svg" viewBox="0 0 268.01 508">
  <defs>
    <style>
      .cls-1 {
        fill: #fff;
      }

      .cls-2 {
        fill: #818285;
      }

      .cls-3 {
        fill: #db4e89;
      }

      .cls-4 {
        fill: #231f20;
      }

      .cls-5 {
        fill: #595a5c;
      }

      .cls-6 {
        fill: #60c8d4;
      }

      .cls-7 {
        fill: none;
        stroke: #a92e63;
        stroke-miterlimit: 10;
        stroke-width: 11px;
      }

      .cls-8 {
        fill: #f7b1c4;
        opacity: .57;
      }
    </style>
  </defs>
  <g id="verbs-escuchar">
    <g>
      <g>
        <path class="cls-5" d="M135.68,333.36c2.29-13.74,12.7-24.61,25.89-27.2,14.65-2.88,29.86,5.03,36.28,19.23-.06,6.67-.28,12.28-.49,16.48-.28,5.52-.61,9.69-1.03,15.01-.05,.61-.67,8.43-1.39,15.69-1.4,14.05-3.16,27.47-5.16,40.23-3.6,10.44-13.73,16.99-24.3,15.74-10.43-1.23-18.82-9.74-20.23-20.59-3.19-24.87-6.37-49.73-9.56-74.6Z"/>
        <path class="cls-5" d="M160.18,504.77c.42,1.35,1.48,2.37,2.74,2.59,1.63,.29,3.37-.77,4-2.59,6.47-18.56,12.62-39.64,17.55-63.07,2.79-13.3,4.91-26.02,6.5-38.04,.44-15.74-12.48-27.71-25.49-26.41-11.55,1.15-21.37,12.58-20.82,26.41,5.17,33.7,10.34,67.41,15.51,101.11Z"/>
      </g>
      <path class="cls-5" d="M123.24,334.95c-2.29-13.74-12.7-24.61-25.89-27.2-14.65-2.88-29.86,5.03-36.28,19.23,.06,6.67,.28,12.28,.49,16.48,.28,5.52,.61,9.69,1.03,15.01,.05,.61,.67,8.43,1.39,15.69,1.4,14.05,3.16,27.47,5.16,40.23,3.6,10.44,13.73,16.99,24.3,15.74,10.43-1.23,18.82-9.74,20.23-20.59,3.19-24.87,6.37-49.73,9.56-74.6Z"/>
      <path class="cls-5" d="M98.74,505.38c-.42,1.34-1.48,2.35-2.74,2.57-1.63,.29-3.37-.76-4-2.57-6.47-18.41-12.62-39.33-17.55-62.58-2.79-13.2-4.91-25.82-6.5-37.75-.44-15.62,12.48-27.49,25.49-26.21,11.55,1.14,21.37,12.48,20.82,26.21-5.17,33.44-10.34,66.89-15.51,100.33Z"/>
      <path class="cls-5" d="M168.49,182.4c-4.1,3.06-5.85,8.24-4.4,12.81,1.82,5.75,7.71,7.43,8.12,7.54,14.13-6.88,28.94-14.63,44.24-23.38,15.15-8.66,29.22-17.39,42.21-25.98,3.99-5.36,4.62-12.48,1.6-18.24-3.37-6.44-10.7-10.06-18.12-8.86-6.93,4.54-57.83,44.33-73.65,56.12Z"/>
      <path class="cls-5" d="M261.21,148.05c-3.98,5.92-11.28,8.69-18.14,6.91-7-1.82-12.07-8.03-12.48-15.29,2.95-19.57,5.9-39.13,8.85-58.7,.41-.65,5.04-7.75,13.87-8.17,8.04-.38,13.09,5.08,13.75,5.82,.86,8.62,1.26,18.6,.64,29.66-.88,15.58-3.55,29.02-6.5,39.77Z"/>
      <path class="cls-5" d="M266.98,78.51c.65,7.24-3.82,13.81-10.3,15.67-5.51,1.57-11.63-.5-15.38-5.25-3.8-12.26-7.59-24.52-11.39-36.78-.21-.7-.13-1.17,0-1.47,.62-1.48,3.52-2.07,7.21-1.27,1.66,.39,3.33,.91,5,1.58,14.89,5.94,22.03,20.46,24.87,27.52Z"/>
      <path class="cls-5" d="M92.99,184.07c4.82-1.71,10.1-.29,13.1,3.45,3.77,4.7,1.9,10.54,1.76,10.94-13.57,7.93-28.24,15.95-44.01,23.82-15.61,7.79-30.68,14.64-45.05,20.68-6.67,.34-12.94-3.09-16.06-8.8-3.48-6.38-2.42-14.48,2.7-19.99,7.63-3.24,68.98-23.48,87.56-30.09Z"/>
      <path class="cls-5" d="M.9,230.38c2.91,6.51,9.64,10.48,16.7,9.88,7.2-.61,13.25-5.86,14.89-12.95,.41-19.78,.82-39.56,1.23-59.35-.29-.71-3.66-8.49-12.28-10.4-7.86-1.74-13.76,2.79-14.53,3.4-2.31,8.34-4.4,18.12-5.66,29.13-1.78,15.51-1.42,29.2-.34,40.3Z"/>
      <g>
        <path class="cls-5" d="M86.28,180.07c1.69-2.22,17.02-21.54,43.57-21.48,26.39,.06,41.59,19.23,43.31,21.47,7.86,22.65,15.62,50.95,20.22,84.03,4.02,28.91,4.7,54.84,3.93,76.6-1.76,1.62-18.01,16.13-39.23,11.65-11.92-2.52-19.46-9.77-22.44-13.02-1,.52-3.2,1.5-6.12,1.4-2.52-.09-4.41-.93-5.38-1.45-3.26,3.3-11.04,10.24-23.06,12.66-21.09,4.25-37.23-9.04-39.43-10.91-.92-22.34-.28-49.67,4.33-80.44,4.78-31.84,12.56-58.96,20.3-80.51Z"/>
        <g>
          <path class="cls-2" d="M86.28,180.07c-.62-.18-8.15,22.33-14.02,47.62-2.67,11.53-4.72,22.53-6.28,32.89-1.09,7.26-3.02,21.44-4.04,39.73-1.13,20.24-.88,40.7-.29,40.71,.76,.02-.57-34.47,6.06-79.27,7.06-47.76,19.34-81.47,18.58-81.68Z"/>
          <path class="cls-2" d="M173.35,180.57c.62-.18,7.54,21.48,13.41,46.78,2.67,11.53,4.72,22.53,6.28,32.89,1.09,7.26,3.02,21.44,4.04,39.73,1.13,20.24,.88,40.7,.29,40.71-.76,.02,.57-34.47-6.06-79.27-7.06-47.76-18.73-80.62-17.96-80.84Z"/>
        </g>
      </g>
      <g>
        <g>
          <circle class="cls-5" cx="129.52" cy="105.01" r="86.18"/>
          <path class="cls-2" d="M108.44,188.56s29.1,10.53,56.03-4.7c0,0-27.14,12.8-56.03,4.7Z"/>
        </g>
        <path class="cls-1" d="M104.54,150.42s22.97,5.69,56.8-4.76c0,0-11.39,21.68-26.7,22.59,0,0-16.72,1.87-30.09-17.83Z"/>
        <g>
          <path class="cls-6" d="M98.04,131.83s2.79-.73,5.91-.5l-1.85-1.29s-3.63,.73-4.06,1.78Z"/>
          <path class="cls-6" d="M80.68,100.55s1.12,3.59,10.34,6.19c0,0,5.7,2.08,6.99-9.39,0,0-8.18,1.3-17.77-6.9,0,0,.3,6.57,12.91,10.58,0,0,.76,.55,.04,1.07,0,0-6.93,1.55-12.51-1.56Z"/>
          <ellipse class="cls-1" cx="102.78" cy="113.67" rx="11.32" ry="17.71" transform="translate(-9.14 8.98) rotate(-4.79)"/>
          <path class="cls-6" d="M177.43,92.44s-.51,3.73-9.17,7.83c0,0-5.27,3-8.45-8.09,0,0,8.28-.08,16.37-9.76,0,0,.8,6.53-10.97,12.58,0,0-.66,.67,.14,1.06,0,0,7.09,.38,12.08-3.62Z"/>
          <path class="cls-6" d="M166,126.13s-2.87-.26-5.91,.5l1.61-1.58s3.7,.11,4.3,1.08Z"/>
          <ellipse class="cls-1" cx="157.82" cy="109.05" rx="11.32" ry="17.71" transform="translate(-8.56 13.57) rotate(-4.79)"/>
          <ellipse class="cls-4" cx="103.31" cy="117.18" rx="8.88" ry="14.16" transform="translate(-9.43 9.04) rotate(-4.79)"/>
          <ellipse class="cls-1" cx="97.1" cy="107.02" rx="2.25" ry="3.52" transform="translate(-8.6 8.49) rotate(-4.79)"/>
          <ellipse class="cls-4" cx="158.06" cy="112.59" rx="9.01" ry="14.16" transform="translate(-8.85 13.6) rotate(-4.79)"/>
          <ellipse class="cls-1" cx="152.46" cy="102.38" rx="2.25" ry="3.52" transform="translate(-8.02 13.1) rotate(-4.79)"/>
          <ellipse class="cls-8" cx="94.77" cy="143.45" rx="10.47" ry="2.76" transform="translate(-11.65 8.42) rotate(-4.79)"/>
          <ellipse class="cls-8" cx="173.28" cy="136.87" rx="10.47" ry="2.76" transform="translate(-10.83 14.96) rotate(-4.79)"/>
        </g>
      </g>
      <g>
        <path class="cls-7" d="M37.67,92.61C41.76,56.52,62.13,24.95,92.23,12.02c43.23-18.57,102.04,3.22,128.91,56.53"/>
        <path class="cls-3" d="M47.59,79.54c3.6,3.64,12.1,13.22,14.88,28.24,3.77,20.38-5.72,35.99-8.03,39.59-18.91,2.25-35.88-10.21-39.24-26.71-3.82-18.73,10.64-39.05,32.39-41.12Z"/>
        <path class="cls-3" d="M199.05,54.56c-2.25,4.59-7.26,16.38-5.1,31.51,2.92,20.52,16.89,32.29,20.23,34.96,18.64-3.9,30.75-21.12,28.68-37.82-2.35-18.97-22.53-33.63-43.81-28.65Z"/>
      </g>
      <path class="cls-5" d="M6.9,160.96c.29,7.26,5.58,13.2,12.25,14.2,5.66,.85,11.47-2,14.57-7.2,2.18-12.65,4.36-25.29,6.53-37.94,.12-.73-.03-1.18-.19-1.46-.81-1.38-3.75-1.59-7.31-.32-1.59,.6-3.18,1.34-4.76,2.21-14,7.81-19.19,23.14-21.09,30.51Z"/>
    </g>
  </g>
</svg>