<?xml version="1.0" encoding="UTF-8"?>
<svg id="Layer_2" data-name="Layer 2" xmlns="http://www.w3.org/2000/svg" viewBox="0 0 228.43 419.08">
  <defs>
    <style>
      .cls-1 {
        fill: #65c4a7;
      }

      .cls-2 {
        fill: #fff;
      }

      .cls-3 {
        fill: #818285;
      }

      .cls-4 {
        fill: #231f20;
      }

      .cls-5 {
        fill: #595a5c;
      }

      .cls-6 {
        fill: #60c8d4;
      }

      .cls-7 {
        fill: #f7b1c4;
        opacity: .57;
      }
    </style>
  </defs>
  <g id="verbs-cantar">
    <g>
      <g>
        <path class="cls-5" d="M143.76,268.6c1.96-11.77,10.88-21.08,22.18-23.3,12.55-2.46,25.58,4.31,31.08,16.47-.05,5.71-.24,10.52-.42,14.12-.24,4.73-.52,8.3-.88,12.86-.04,.52-.57,7.23-1.19,13.44-1.2,12.03-2.7,23.53-4.42,34.47-3.09,8.95-11.76,14.55-20.82,13.49-8.94-1.05-16.12-8.35-17.33-17.64-2.73-21.3-5.46-42.61-8.19-63.91Z"/>
        <path class="cls-5" d="M164.74,415.45c.36,1.16,1.27,2.03,2.35,2.22,1.4,.25,2.88-.66,3.43-2.22,5.55-15.9,10.82-33.96,15.03-54.03,2.39-11.4,4.21-22.29,5.57-32.59,.38-13.48-10.69-23.74-21.84-22.63-9.89,.99-18.31,10.78-17.84,22.63,4.43,28.87,8.86,57.75,13.29,86.62Z"/>
      </g>
      <g>
        <path class="cls-5" d="M133.09,269.96c-1.96-11.77-10.88-21.08-22.18-23.3-12.55-2.46-25.58,4.31-31.08,16.47,.05,5.71,.24,10.52,.42,14.12,.24,4.73,.52,8.3,.88,12.86,.04,.52,.57,7.23,1.19,13.44,1.2,12.03,2.7,23.53,4.42,34.47,3.09,8.95,11.76,14.55,20.82,13.49,8.94-1.05,16.12-8.35,17.33-17.64,2.73-21.3,5.46-42.61,8.19-63.91Z"/>
        <path class="cls-5" d="M112.11,416.81c-.36,1.16-1.27,2.03-2.35,2.22-1.4,.25-2.88-.66-3.43-2.22-5.55-15.9-10.82-33.96-15.03-54.03-2.39-11.4-4.21-22.29-5.57-32.59-.38-13.48,10.69-23.74,21.84-22.63,9.89,.99,18.31,10.78,17.84,22.63-4.43,28.87-8.86,57.75-13.29,86.62Z"/>
      </g>
      <path class="cls-5" d="M103.7,133.94c3.65-2.42,8.34-2.34,11.6,.15,4.11,3.13,3.77,8.36,3.74,8.73-9.63,9.41-20.16,19.12-31.63,28.94-11.36,9.72-22.46,18.54-33.15,26.54-5.48,1.67-11.4,.12-15.18-3.98-4.22-4.58-5.02-11.53-1.91-17.18,5.67-4.28,52.45-33.84,66.53-43.2Z"/>
      <path class="cls-5" d="M165.3,148.41c-2.3-3.73-2.05-8.41,.55-11.59,3.26-4,8.49-3.48,8.85-3.44,9.08,9.95,18.42,20.81,27.83,32.61,9.32,11.68,17.76,23.09,25.39,34.04,1.48,5.53-.27,11.4-4.5,15.03-4.72,4.06-11.7,4.62-17.23,1.32-4.08-5.81-32.02-53.59-40.89-67.98Z"/>
      <g>
        <path class="cls-5" d="M101.43,137.27c1.45-1.9,14.58-18.45,37.33-18.4,22.61,.05,35.63,16.47,37.1,18.4,6.73,19.4,13.38,43.65,17.32,71.99,3.44,24.77,4.03,46.98,3.37,65.62-1.51,1.39-15.43,13.82-33.61,9.98-10.22-2.16-16.67-8.37-19.23-11.15-.86,.45-2.74,1.28-5.24,1.2-2.16-.07-3.77-.8-4.61-1.24-2.79,2.83-9.46,8.77-19.75,10.85-18.07,3.64-31.9-7.75-33.78-9.35-.79-19.14-.24-42.56,3.71-68.91,4.09-27.28,10.76-50.52,17.39-68.98Z"/>
        <g>
          <path class="cls-3" d="M101.43,137.27c-.53-.15-6.99,19.13-12.01,40.8-2.29,9.87-4.04,19.3-5.38,28.18-.93,6.22-2.59,18.37-3.46,34.04-.97,17.34-.75,34.87-.25,34.88,.65,.02-.49-29.53,5.19-67.91,6.05-40.91,16.57-69.79,15.92-69.98Z"/>
          <path class="cls-3" d="M176.03,137.7c.53-.15,6.46,18.41,11.49,40.08,2.29,9.87,4.04,19.3,5.38,28.18,.93,6.22,2.59,18.37,3.46,34.04,.97,17.34,.75,34.87,.25,34.88-.65,.02,.49-29.53-5.19-67.91-6.05-40.91-16.05-69.07-15.39-69.26Z"/>
        </g>
      </g>
      <g>
        <ellipse class="cls-5" cx="138.81" cy="73.91" rx="73.95" ry="73.5" transform="translate(19.81 176.72) rotate(-68.86)"/>
        <path class="cls-3" d="M111.95,142.69c-2.19-.81-4.52-1.79-6.93-3.01-5.9-2.96-10.57-6.41-14.13-9.53,5.4,3.64,12.59,7.79,21.53,11.28,9.12,3.56,17.38,5.37,23.9,6.33-4.01-.04-9.01-.47-14.6-1.84-3.74-.91-7-2.07-9.76-3.24Z"/>
      </g>
      <path class="cls-5" d="M216.43,218.44c5.88-1.66,10.08-6.87,10.45-12.93,.38-6.18-3.32-11.96-9.13-14.23-16.72-2.81-33.44-5.61-50.15-8.42-.64,.16-7.65,2.04-10.34,9.12-2.45,6.44,.65,12.01,1.08,12.74,6.79,2.99,14.81,5.98,23.99,8.42,12.92,3.43,24.58,4.83,34.11,5.3Z"/>
      <path class="cls-5" d="M158.33,204.72c6.19,.66,11.88-3.09,13.56-8.62,1.42-4.7-.27-9.97-4.29-13.25-10.45-3.42-20.9-6.84-31.35-10.25-.6-.19-1-.12-1.26-.02-1.27,.51-1.82,2.98-1.18,6.16,.31,1.43,.74,2.87,1.29,4.31,4.88,12.84,17.23,19.14,23.24,21.67Z"/>
      <path class="cls-3" d="M136.85,172.79c-.84-.29-1.39-.11-1.59-.02-.98,.41-1.3,1.62-1.52,2.47-.17,.64-.2,1.19-.2,1.55-.11-.57-.19-1.51,.18-2.52,.23-.62,.51-1.38,1.27-1.69,.85-.34,1.7,.11,1.86,.21Z"/>
      <path class="cls-3" d="M146.8,198.19c4.5,2.87,9.99,5.92,16.47,8.65,4.99,2.1,9.68,3.65,13.88,4.79-5.31-.92-12.37-2.78-19.94-6.73-4.14-2.16-7.6-4.51-10.42-6.71Z"/>
      <path class="cls-3" d="M167.6,182.86l-17.24-5.62c2.61,.51,5.5,1.23,8.59,2.23,3.25,1.05,6.14,2.23,8.65,3.39Z"/>
      <circle cx="65.56" cy="109.51" r="15.64"/>
      <path class="cls-1" d="M49.99,107.32L4.54,126.63c-4.58,3.01-5.68,8.68-3.35,12.12,1.64,2.43,4.92,3.64,8.28,3.16,15.78-6.48,31.56-12.97,47.33-19.45-1.21-1.02-2.76-2.57-4.08-4.77-2.54-4.23-2.76-8.39-2.73-10.38Z"/>
      <path class="cls-5" d="M39.57,194.65c4.68,3.92,11.36,4.46,16.57,1.36,5.32-3.17,8.01-9.48,6.62-15.56-7.1-15.4-14.19-30.79-21.29-46.19-.49-.44-6-5.17-13.36-3.41-6.71,1.6-9.56,7.31-9.92,8.06,1.35,7.29,3.4,15.61,6.55,24.56,4.44,12.61,9.85,23.03,14.83,31.18Z"/>
      <path class="cls-5" d="M18.19,138.92c2.94,5.49,9.24,8.08,14.75,6.35,4.68-1.47,8.09-5.84,8.53-11.01-3.06-10.56-6.12-21.12-9.18-31.68-.18-.6-.46-.9-.69-1.05-1.14-.76-3.49,.18-5.75,2.49-1,1.06-1.95,2.22-2.84,3.49-7.86,11.27-6.12,25.02-4.82,31.41Z"/>
      <g>
        <path class="cls-6" d="M103.08,84.34s2.24,.31,4.43,1.47l-.96-1.57s-2.85-.57-3.47,.1Z"/>
        <path class="cls-6" d="M99.84,54.84s-.26,3.11,5.65,8c0,0,3.51,3.38,7.88-5.03,0,0-6.32-1.56-10.82-10.87,0,0-1.75,5.15,6.2,12.18,0,0,.39,.66-.29,.84,0,0-5.49-.97-8.61-5.12Z"/>
        <ellipse class="cls-2" cx="111.95" cy="71.84" rx="14.66" ry="8.91" transform="translate(12.49 160.18) rotate(-74.3)"/>
        <path class="cls-6" d="M172.45,78.87s-1.48,2.71-8.99,3.16c0,0-4.72,.66-3.71-8.87,0,0,6.03,2.53,14.79-2.39,0,0-1.37,5.28-11.72,6.25,0,0-.68,.31-.22,.86,0,0,5.03,2.51,9.84,.99Z"/>
        <path class="cls-6" d="M154.08,101.22s-2-1.1-4.43-1.47l1.64-.71s2.65,1.24,2.79,2.18Z"/>
        <ellipse class="cls-2" cx="153.26" cy="85.52" rx="14.66" ry="8.91" transform="translate(29.46 209.91) rotate(-74.3)"/>
        <ellipse class="cls-4" cx="111.29" cy="74.71" rx="11.72" ry="6.99" transform="translate(9.16 161.53) rotate(-74.24)"/>
        <ellipse class="cls-2" cx="109.83" cy="64.95" rx="2.91" ry="1.77" transform="translate(17.57 153.1) rotate(-74.3)"/>
        <ellipse class="cls-4" cx="152.37" cy="88.31" rx="11.72" ry="7.09" transform="translate(26.08 211.06) rotate(-74.28)"/>
        <ellipse class="cls-2" cx="151.36" cy="78.7" rx="2.91" ry="1.77" transform="translate(34.63 203.12) rotate(-74.3)"/>
        <ellipse class="cls-7" cx="97.24" cy="92.26" rx="2.28" ry="8.24" transform="translate(-21.05 155.3) rotate(-71.55)"/>
        <ellipse class="cls-7" cx="156.15" cy="111.76" rx="2.28" ry="8.24" transform="translate(.71 224.51) rotate(-71.55)"/>
      </g>
      <g>
        <path class="cls-3" d="M108,108.18l24.41,9.84c-3.01,5.83-9.44,8.79-15.12,7.36-6.81-1.71-11.43-9.44-9.29-17.2Z"/>
        <polygon class="cls-2" points="109.16 109.58 130.68 118.07 130.02 119.75 108.84 111.1 109.16 109.58"/>
      </g>
    </g>
  </g>
</svg>