<?xml version="1.0" encoding="UTF-8"?>
<svg id="Layer_2" data-name="Layer 2" xmlns="http://www.w3.org/2000/svg" viewBox="0 0 180.84 181.95">
  <defs>
    <style>
      .cls-1 {
        fill: #fff;
      }

      .cls-2 {
        fill: #818285;
      }

      .cls-3 {
        fill: #231f20;
      }

      .cls-4 {
        fill: #595a5c;
      }

      .cls-5 {
        fill: #60c8d4;
      }

      .cls-6 {
        fill: none;
        stroke: #818285;
        stroke-miterlimit: 10;
        stroke-width: 2px;
      }

      .cls-7 {
        fill: #f7b1c4;
        opacity: .57;
      }
    </style>
  </defs>
  <g id="faces-anonadado">
    <g>
      <g>
        <circle class="cls-4" cx="90.42" cy="90.42" r="90.42"/>
        <path class="cls-2" d="M60.92,175.92s29.5,13.56,58.99,0c0,0-29.5,11-58.99,0Z"/>
      </g>
      <path class="cls-6" d="M69.5,160.6c2.93-3.93,7.28-8.72,13.5-12.87,16.2-10.83,33.56-9.65,39.62-8.94"/>
      <g>
        <path class="cls-5" d="M53.99,115.85s3.06-.54,6.39,0l-1.88-1.55s-3.96,.46-4.52,1.55Z"/>
        <path class="cls-5" d="M38.16,80.68s.88,3.96,10.55,7.59c0,0,5.94,2.75,8.35-9.45,0,0-8.9,.66-18.47-9.01,0,0-.27,7.09,12.92,12.53,0,0,.77,.66-.05,1.15,0,0-7.59,1.04-13.3-2.8Z"/>
        <ellipse class="cls-1" cx="60.73" cy="96.76" rx="12.2" ry="19.09"/>
        <path class="cls-5" d="M142.84,80.68s-.88,3.96-10.55,7.59c0,0-5.94,2.75-8.35-9.45,0,0,8.9,.66,18.47-9.01,0,0,.27,7.09-12.92,12.53,0,0-.77,.66,.05,1.15,0,0,7.59,1.04,13.3-2.8Z"/>
        <path class="cls-5" d="M127.52,115.85s-3.06-.54-6.39,0l1.88-1.55s3.96,.46,4.52,1.55Z"/>
        <ellipse class="cls-1" cx="120.28" cy="96.76" rx="12.2" ry="19.09"/>
        <ellipse class="cls-3" cx="60.98" cy="100.58" rx="9.57" ry="15.27"/>
        <ellipse class="cls-1" cx="55.23" cy="89.11" rx="2.42" ry="3.79"/>
        <ellipse class="cls-3" cx="120.21" cy="100.58" rx="9.71" ry="15.27"/>
        <ellipse class="cls-1" cx="115.12" cy="89.11" rx="2.42" ry="3.79"/>
        <ellipse class="cls-7" cx="49.44" cy="128.04" rx="11.28" ry="2.97"/>
        <ellipse class="cls-7" cx="134.38" cy="128.04" rx="11.28" ry="2.97"/>
      </g>
    </g>
  </g>
</svg>