<?xml version="1.0" encoding="UTF-8"?>
<svg id="Layer_2" data-name="Layer 2" xmlns="http://www.w3.org/2000/svg" viewBox="0 0 179.61 180.71">
  <defs>
    <style>
      .cls-1 {
        fill: #fff;
      }

      .cls-2 {
        fill: #e72b5c;
      }

      .cls-3 {
        fill: #818285;
      }

      .cls-4 {
        fill: #231f20;
      }

      .cls-5 {
        fill: #595a5c;
      }

      .cls-6 {
        fill: none;
        stroke: #818285;
        stroke-miterlimit: 10;
        stroke-width: 2px;
      }
    </style>
  </defs>
  <g id="faces-cariñoso">
    <g>
      <g>
        <circle class="cls-5" cx="89.8" cy="89.8" r="89.8"/>
        <path class="cls-3" d="M60.51,174.72s29.3,13.47,58.59,0c0,0-29.29,10.93-58.59,0Z"/>
      </g>
      <ellipse class="cls-1" cx="60.41" cy="97.22" rx="12.27" ry="19.19"/>
      <ellipse class="cls-4" cx="60.41" cy="97.22" rx="7.62" ry="11.92"/>
      <ellipse class="cls-1" cx="55.23" cy="89.11" rx="2.44" ry="3.81"/>
      <ellipse class="cls-1" cx="120.28" cy="97.22" rx="12.27" ry="19.19"/>
      <ellipse class="cls-4" cx="120.62" cy="97.22" rx="7.62" ry="11.92"/>
      <ellipse class="cls-1" cx="115.44" cy="89.11" rx="2.44" ry="3.81"/>
      <g>
        <path class="cls-6" d="M97.03,135.7c-.62,3.59-1.86,4.77-2.87,5.2-2.7,1.12-6.03-2.25-8.06-.72-.69,.52-.9,1.37-1.07,2.06-.52,2.12,.51,3.93,.99,4.75,1.73,3.02,4.88,4.03,5.82,4.3"/>
        <path class="cls-6" d="M88.7,149.94c-1.63,1.66-2.23,3.75-1.52,5.28,.58,1.26,1.88,1.81,2.33,1.97,2.46,.89,4.01-.99,6.45-.27,.78,.23,1.74,.75,2.69,1.97"/>
      </g>
      <g>
        <path class="cls-2" d="M77.66,146.76c-.22,2.43-.43,4.86-.65,7.29-1.51-1.18-3.02-2.36-4.53-3.54-2.38-2.18-2.43-5-.96-6.22,.9-.75,2.6-1.1,4.07-.47,1.25,.54,2.05,1.68,2.07,2.94Z"/>
        <path class="cls-2" d="M76.35,146.76c.22,2.43,.43,4.86,.65,7.29,1.51-1.18,3.02-2.36,4.53-3.54,2.38-2.18,2.43-5,.96-6.22-.9-.75-2.6-1.1-4.07-.47-1.25,.54-2.05,1.68-2.07,2.94Z"/>
      </g>
    </g>
  </g>
</svg>