<?xml version="1.0" encoding="UTF-8"?>
<svg id="Layer_2" data-name="Layer 2" xmlns="http://www.w3.org/2000/svg" viewBox="0 0 179.22 180.31">
  <defs>
    <style>
      .cls-1 {
        fill: #fff;
      }

      .cls-2 {
        fill: #818285;
      }

      .cls-3 {
        fill: #231f20;
      }

      .cls-4 {
        fill: #595a5c;
      }

      .cls-5 {
        fill: #60c8d4;
      }

      .cls-6 {
        fill: #4dc6de;
      }
    </style>
  </defs>
  <g id="faces-enfermo">
    <g>
      <g>
        <circle class="cls-4" cx="89.61" cy="89.61" r="89.61"/>
        <path class="cls-2" d="M60.38,174.34s29.23,13.44,58.46,0c0,0-29.23,10.9-58.46,0Z"/>
      </g>
      <path class="cls-2" d="M44.39,102.54c3.05,.97,8.41,3.14,13.08,8.07,7.79,8.23,11.31,21.68,6.3,32.96-2.73,6.14-7.22,9.92-10.22,11.96,1.39-1.88,9.66-13.5,6.64-29.15-2.85-14.81-13.72-22.43-15.8-23.83Z"/>
      <path class="cls-2" d="M132.09,102.9c-3.05,.97-8.41,3.14-13.08,8.07-7.79,8.23-11.31,21.68-6.3,32.96,2.73,6.14,7.22,9.92,10.22,11.96-1.39-1.88-9.66-13.5-6.64-29.15,2.85-14.81,13.72-22.43,15.8-23.83Z"/>
      <path class="cls-2" d="M68.21,129.62c-.62-1-1.57-2.83-1.84-5.3-.19-1.72,0-3.16,.23-4.15,2.39-1.78,9.88-6.89,20.73-6.91,11.19-.02,18.86,5.36,21.19,7.14,.32,1.04,.72,2.84,.46,5.07-.32,2.68-1.43,4.59-2.07,5.53-3.21-1.86-10.14-5.28-19.58-5.53-8.99-.23-15.8,2.53-19.12,4.15Z"/>
      <path class="cls-6" d="M135.22,23.53l-9.47,31.84c-.83,7.68,4.89,13.83,10.61,14.02,6.04,.2,12.43-6.25,11.37-14.4-4.17-10.49-8.34-20.97-12.51-31.46Z"/>
      <g>
        <path class="cls-5" d="M61.22,94.92s2.3-.4,4.81,0l-1.41-1.16s-2.98,.34-3.4,1.16Z"/>
        <path class="cls-5" d="M49.31,68.47s.66,2.98,7.94,5.71c0,0,4.47,2.07,6.28-7.11,0,0-6.7,.5-13.89-6.78,0,0-.21,5.33,9.72,9.43,0,0,.58,.5-.04,.87,0,0-5.71,.79-10.01-2.11Z"/>
        <ellipse class="cls-1" cx="66.29" cy="80.56" rx="9.18" ry="14.36"/>
        <path class="cls-5" d="M128.06,68.47s-.66,2.98-7.94,5.71c0,0-4.47,2.07-6.28-7.11,0,0,6.7,.5,13.89-6.78,0,0,.21,5.33-9.72,9.43,0,0-.58,.5,.04,.87,0,0,5.71,.79,10.01-2.11Z"/>
        <path class="cls-5" d="M116.53,94.92s-2.3-.4-4.81,0l1.41-1.16s2.98,.34,3.4,1.16Z"/>
        <ellipse class="cls-1" cx="111.09" cy="80.56" rx="9.18" ry="14.36"/>
        <ellipse class="cls-3" cx="66.48" cy="83.44" rx="7.2" ry="11.48"/>
        <ellipse class="cls-1" cx="62.15" cy="74.81" rx="1.82" ry="2.85"/>
        <ellipse class="cls-3" cx="111.03" cy="83.44" rx="7.31" ry="11.48"/>
        <ellipse class="cls-1" cx="107.21" cy="74.81" rx="1.82" ry="2.85"/>
      </g>
    </g>
  </g>
</svg>