<?xml version="1.0" encoding="UTF-8"?>
<svg id="Layer_2" data-name="Layer 2" xmlns="http://www.w3.org/2000/svg" viewBox="0 0 180.65 181.75">
  <defs>
    <style>
      .cls-1 {
        fill: #fff;
      }

      .cls-2 {
        fill: #818285;
      }

      .cls-3 {
        fill: #231f20;
      }

      .cls-4 {
        fill: #595a5c;
      }

      .cls-5 {
        fill: #60c8d4;
      }

      .cls-6 {
        fill: #f7b1c4;
        opacity: .57;
      }
    </style>
  </defs>
  <g id="faces-frustrado">
    <g>
      <g>
        <circle class="cls-4" cx="90.32" cy="90.32" r="90.32"/>
        <path class="cls-2" d="M60.86,175.73s29.47,13.55,58.93,0c0,0-29.46,10.99-58.93,0Z"/>
      </g>
      <path class="cls-2" d="M79.34,145.62c5.26-.05,11.23,.04,17.76,.39,6.02,.32,11.46,.8,16.26,1.34-4.36,.84-9.87,1.7-16.38,2.29-6.52,.59-12.32,.75-17.03,.74-5.15-.12-8.17-1.81-7.81-2.9,.31-.95,3.31-1.89,7.2-1.87Z"/>
      <path class="cls-5" d="M53.8,116.6s3.06-.54,6.39,0l-1.88-1.55s-3.96,.46-4.52,1.55Z"/>
      <path class="cls-5" d="M37.97,81.43s.88,3.96,10.55,7.59c0,0,5.94,2.75,8.35-9.45,0,0-8.9,.66-18.47-9.01,0,0-.27,7.09,12.92,12.53,0,0,.77,.66-.05,1.15,0,0-7.59,1.04-13.3-2.8Z"/>
      <ellipse class="cls-1" cx="60.53" cy="97.51" rx="12.2" ry="19.09"/>
      <path class="cls-5" d="M142.65,81.43s-.88,3.96-10.55,7.59c0,0-5.94,2.75-8.35-9.45,0,0,8.9,.66,18.47-9.01,0,0,.27,7.09-12.92,12.53,0,0-.77,.66,.05,1.15,0,0,7.59,1.04,13.3-2.8Z"/>
      <path class="cls-5" d="M127.33,116.6s-3.06-.54-6.39,0l1.88-1.55s3.96,.46,4.52,1.55Z"/>
      <ellipse class="cls-1" cx="120.09" cy="97.51" rx="12.2" ry="19.09"/>
      <ellipse class="cls-3" cx="60.53" cy="93.69" rx="9.57" ry="15.27"/>
      <ellipse class="cls-1" cx="58.08" cy="83.02" rx="2.42" ry="3.79"/>
      <ellipse class="cls-3" cx="120.09" cy="93.69" rx="9.71" ry="15.27"/>
      <ellipse class="cls-1" cx="117.66" cy="83.02" rx="2.42" ry="3.79"/>
      <ellipse class="cls-6" cx="49.25" cy="128.79" rx="11.28" ry="2.97"/>
      <ellipse class="cls-6" cx="134.19" cy="128.79" rx="11.28" ry="2.97"/>
    </g>
  </g>
</svg>