<?xml version="1.0" encoding="UTF-8"?>
<svg id="Layer_2" data-name="Layer 2" xmlns="http://www.w3.org/2000/svg" viewBox="0 0 179.82 180.92">
  <defs>
    <style>
      .cls-1 {
        fill: #fff;
      }

      .cls-2 {
        fill: #e72b5c;
      }

      .cls-3 {
        fill: #818285;
      }

      .cls-4 {
        fill: #231f20;
      }

      .cls-5 {
        fill: #595a5c;
      }

      .cls-6 {
        fill: #60c8d4;
      }
    </style>
  </defs>
  <g id="faces-avergonzado">
    <g>
      <g>
        <circle class="cls-5" cx="89.91" cy="89.91" r="89.91"/>
        <path class="cls-3" d="M60.58,174.93s29.33,13.48,58.66,0c0,0-29.33,10.94-58.66,0Z"/>
      </g>
      <g>
        <path class="cls-3" d="M69.38,147.06c5.13-1.06,11.4-1.93,18.56-2.03,8.97-.12,16.66,1,22.62,2.32-6.37,1.62-15.32,3.1-25.96,2.32-5.84-.43-10.96-1.45-15.22-2.61Z"/>
        <g>
          <path class="cls-6" d="M53.7,115.81s3.06-.54,6.39,0l-1.88-1.55s-3.96,.46-4.52,1.55Z"/>
          <path class="cls-6" d="M37.87,80.64s.88,3.96,10.55,7.59c0,0,5.94,2.75,8.35-9.45,0,0-8.9,.66-18.47-9.01,0,0-.27,7.09,12.92,12.53,0,0,.77,.66-.05,1.15,0,0-7.59,1.04-13.3-2.8Z"/>
          <ellipse class="cls-1" cx="60.43" cy="96.72" rx="12.2" ry="19.09"/>
          <path class="cls-6" d="M142.55,80.64s-.88,3.96-10.55,7.59c0,0-5.94,2.75-8.35-9.45,0,0,8.9,.66,18.47-9.01,0,0,.27,7.09-12.92,12.53,0,0-.77,.66,.05,1.15,0,0,7.59,1.04,13.3-2.8Z"/>
          <path class="cls-6" d="M127.23,115.81s-3.06-.54-6.39,0l1.88-1.55s3.96,.46,4.52,1.55Z"/>
          <ellipse class="cls-1" cx="119.99" cy="96.72" rx="12.2" ry="19.09"/>
          <ellipse class="cls-4" cx="60.69" cy="100.54" rx="9.57" ry="15.27"/>
          <ellipse class="cls-1" cx="54.93" cy="89.07" rx="2.42" ry="3.79"/>
          <ellipse class="cls-4" cx="119.92" cy="100.54" rx="9.71" ry="15.27"/>
          <ellipse class="cls-1" cx="114.83" cy="89.07" rx="2.42" ry="3.79"/>
        </g>
        <ellipse class="cls-2" cx="132.69" cy="135.59" rx="13.55" ry="18.23"/>
        <ellipse class="cls-2" cx="47.13" cy="135.6" rx="13.55" ry="18.23"/>
      </g>
    </g>
  </g>
</svg>