<?xml version="1.0" encoding="UTF-8"?>
<svg id="Layer_2" data-name="Layer 2" xmlns="http://www.w3.org/2000/svg" viewBox="0 0 179.01 208.88">
  <defs>
    <style>
      .cls-1 {
        fill: #fff;
      }

      .cls-2 {
        fill: #818285;
      }

      .cls-3 {
        fill: #231f20;
      }

      .cls-4 {
        fill: #595a5c;
      }
    </style>
  </defs>
  <g id="faces-malvado">
    <g>
      <path class="cls-2" d="M7.89,82.84c-2.23-8.45-4.75-22.3-2.65-39.17C7.71,23.71,15.46,9.09,20.38,1.27c-.17,1.32-2.67,24.36,14.32,37.41,8.71,6.69,18.24,7.46,22.3,7.53-16.37,12.21-32.74,24.42-49.11,36.62Z"/>
      <path class="cls-2" d="M169.88,81.57c2.23-8.45,4.75-22.3,2.65-39.17-2.48-19.96-10.22-34.58-15.14-42.4,.17,1.32,2.67,24.36-14.32,37.41-8.71,6.69-18.24,7.46-22.3,7.53,16.37,12.21,32.74,24.42,49.11,36.62Z"/>
      <g>
        <circle class="cls-4" cx="89.51" cy="118.28" r="89.51"/>
        <path class="cls-2" d="M60.31,202.91s29.2,13.42,58.4,0c0,0-29.2,10.89-58.4,0Z"/>
      </g>
      <ellipse class="cls-1" cx="59.41" cy="124.49" rx="12.23" ry="19.13"/>
      <ellipse class="cls-3" cx="59.41" cy="131.05" rx="7.6" ry="11.88"/>
      <ellipse class="cls-1" cx="54.24" cy="122.97" rx="2.43" ry="3.8"/>
      <ellipse class="cls-1" cx="119.08" cy="124.49" rx="12.23" ry="19.13"/>
      <ellipse class="cls-3" cx="119.42" cy="131.71" rx="7.6" ry="11.88"/>
      <ellipse class="cls-1" cx="114.25" cy="123.63" rx="2.43" ry="3.8"/>
      <rect class="cls-4" x="93.1" y="95.18" width="37.43" height="20.36" transform="translate(-39.1 76.59) rotate(-32.5)"/>
      <path class="cls-1" d="M59.2,163.6s23.46,7.95,59.67,0c0,0-13.78,21.62-29.83,21.23,0,0-17.61,.49-29.83-21.23Z"/>
      <rect class="cls-4" x="47.4" y="95.18" width="37.43" height="20.36" transform="translate(65.26 229.74) rotate(-147.5)"/>
    </g>
  </g>
</svg>