<?xml version="1.0" encoding="UTF-8"?>
<svg id="Layer_2" data-name="Layer 2" xmlns="http://www.w3.org/2000/svg" viewBox="0 0 179.83 180.93">
  <defs>
    <style>
      .cls-1 {
        fill: #fff;
      }

      .cls-2 {
        fill: #818285;
      }

      .cls-3 {
        fill: #231f20;
      }

      .cls-4 {
        fill: #595a5c;
      }

      .cls-5 {
        fill: #60c8d4;
      }

      .cls-6 {
        fill: #f7b1c4;
        opacity: .57;
      }
    </style>
  </defs>
  <g id="faces-feliz">
    <g>
      <g>
        <circle class="cls-4" cx="89.91" cy="89.91" r="89.91"/>
        <path class="cls-2" d="M60.72,174.93s29.33,13.48,58.66,0c0,0-29.33,10.94-58.66,0Z"/>
      </g>
      <path class="cls-1" d="M59.99,134.94s23.38,7.92,59.46,0c0,0-13.74,21.54-29.73,21.16,0,0-17.55,.49-29.73-21.16Z"/>
      <g>
        <path class="cls-5" d="M54.84,115.05s2.96-.52,6.19,0l-1.82-1.5s-3.83,.44-4.37,1.5Z"/>
        <path class="cls-5" d="M39.52,81.02s.85,3.83,10.21,7.34c0,0,5.74,2.66,8.08-9.15,0,0-8.62,.64-17.87-8.72,0,0-.27,6.86,12.5,12.13,0,0,.74,.64-.05,1.12,0,0-7.34,1.01-12.87-2.71Z"/>
        <ellipse class="cls-1" cx="61.36" cy="96.58" rx="11.81" ry="18.47"/>
        <path class="cls-5" d="M140.82,81.02s-.85,3.83-10.21,7.34c0,0-5.74,2.66-8.08-9.15,0,0,8.62,.64,17.87-8.72,0,0,.27,6.86-12.5,12.13,0,0-.74,.64,.05,1.12,0,0,7.34,1.01,12.87-2.71Z"/>
        <path class="cls-5" d="M126,115.05s-2.96-.52-6.19,0l1.82-1.5s3.83,.44,4.37,1.5Z"/>
        <ellipse class="cls-1" cx="118.99" cy="96.58" rx="11.81" ry="18.47"/>
        <ellipse class="cls-3" cx="61.61" cy="100.28" rx="9.26" ry="14.77"/>
        <ellipse class="cls-1" cx="56.04" cy="89.17" rx="2.35" ry="3.67"/>
        <ellipse class="cls-3" cx="118.92" cy="100.28" rx="9.4" ry="14.77"/>
        <ellipse class="cls-1" cx="114" cy="89.17" rx="2.35" ry="3.67"/>
        <ellipse class="cls-6" cx="50.44" cy="126.85" rx="10.92" ry="2.88"/>
        <ellipse class="cls-6" cx="132.64" cy="126.85" rx="10.92" ry="2.88"/>
      </g>
    </g>
  </g>
</svg>