<?xml version="1.0" encoding="UTF-8"?>
<svg id="Layer_2" data-name="Layer 2" xmlns="http://www.w3.org/2000/svg" viewBox="0 0 179.61 180.71">
  <defs>
    <style>
      .cls-1 {
        fill: #fff;
      }

      .cls-2 {
        fill: #818285;
      }

      .cls-3 {
        fill: #231f20;
      }

      .cls-4 {
        fill: #595a5c;
      }
    </style>
  </defs>
  <g id="faces-fastidiado">
    <g>
      <g>
        <circle class="cls-4" cx="89.8" cy="89.8" r="89.8"/>
        <path class="cls-2" d="M60.51,174.72s29.3,13.47,58.59,0c0,0-29.29,10.93-58.59,0Z"/>
      </g>
      <ellipse class="cls-1" cx="59.61" cy="96.42" rx="12.27" ry="19.19"/>
      <ellipse class="cls-3" cx="63.69" cy="97.78" rx="7.62" ry="11.92"/>
      <ellipse class="cls-1" cx="58.5" cy="89.67" rx="2.44" ry="3.81"/>
      <ellipse class="cls-1" cx="119.47" cy="96.42" rx="12.27" ry="19.19"/>
      <ellipse class="cls-3" cx="123.9" cy="97.78" rx="7.62" ry="11.92"/>
      <ellipse class="cls-1" cx="118.71" cy="89.67" rx="2.44" ry="3.81"/>
      <rect class="cls-4" x="28.72" y="65.46" width="119.35" height="22.23"/>
      <path class="cls-1" d="M66.38,154.69c-1.25-1.8,2.83-6.74,6.01-9.44,7.05-5.98,15.72-6,18.66-5.87,3.19,.14,11.19,.94,17.59,6.92,.72,.67,5.63,5.26,4.5,7.13-1.43,2.38-10.24-3.57-23.16-3.36-13.46,.23-21.94,7-23.59,4.61Z"/>
    </g>
  </g>
</svg>