<?xml version="1.0" encoding="UTF-8"?>
<svg id="Layer_2" data-name="Layer 2" xmlns="http://www.w3.org/2000/svg" viewBox="0 0 179.59 180.69">
  <defs>
    <style>
      .cls-1 {
        fill: #fff;
      }

      .cls-2 {
        fill: #818285;
      }

      .cls-3 {
        fill: #595a5c;
      }

      .cls-4 {
        fill: #60c8d4;
      }

      .cls-5 {
        fill: #4dc6de;
      }

      .cls-6 {
        fill: #f7b1c4;
        opacity: .57;
      }
    </style>
  </defs>
  <g id="faces-incomodo">
    <g>
      <g>
        <circle class="cls-3" cx="89.79" cy="89.79" r="89.79"/>
        <path class="cls-2" d="M60.5,174.7s29.29,13.47,58.58,0c0,0-29.29,10.92-58.58,0Z"/>
      </g>
      <path class="cls-1" d="M59.58,145.12s23.54,4.56,59.86,0c0,0-13.83,12.39-29.93,12.17,0,0-17.66,.28-29.93-12.17Z"/>
      <path class="cls-5" d="M136.81,14.62l-9.49,31.9c-.83,7.7,4.9,13.86,10.63,14.05,6.06,.2,12.46-6.26,11.39-14.43-4.18-10.51-8.36-21.01-12.53-31.52Z"/>
      <path class="cls-4" d="M45.1,110.26s2.07,2.32,3.37,5.43l.33-2.41s-2.47-3.13-3.7-3.02Z"/>
      <path class="cls-4" d="M41.71,78.51s.88,3.96,10.55,7.59c0,0,5.94,2.75,8.35-9.45,0,0-8.9,.66-18.47-9.01,0,0-.27,7.09,12.92,12.53,0,0,.77,.66-.05,1.15,0,0-7.59,1.04-13.3-2.8Z"/>
      <path class="cls-4" d="M138.35,78.51s-.88,3.96-10.55,7.59c0,0-5.94,2.75-8.35-9.45,0,0,8.9,.66,18.47-9.01,0,0,.27,7.09-12.92,12.53,0,0-.77,.66,.05,1.15,0,0,7.59,1.04,13.3-2.8Z"/>
      <path class="cls-4" d="M133.76,111.83s-2.25,2.14-3.8,5.14l-.13-2.43s2.72-2.91,3.93-2.71Z"/>
      <ellipse class="cls-6" cx="48.28" cy="127.51" rx="11.28" ry="2.97"/>
      <ellipse class="cls-6" cx="133.22" cy="127.51" rx="11.28" ry="2.97"/>
      <path class="cls-2" d="M48.43,116.08c.1-.51,2.1-10.02,8.27-12.05,.47-.16,2.76-.86,5.49,.31,5.95,2.55,7.79,11.31,7.96,12.19,2.5-20.65-.53-36.49-6.95-39.71-2.62-1.31-5.16-.2-5.99,.23-7,3.6-10.63,19.31-8.79,39.04Z"/>
      <path class="cls-2" d="M108.38,116.87c.1-.51,2.1-10.02,8.27-12.05,.47-.16,2.76-.86,5.49,.31,5.95,2.55,7.79,11.31,7.96,12.19,2.5-20.65-.53-36.49-6.95-39.71-2.62-1.31-5.16-.2-5.99,.23-7,3.6-10.63,19.31-8.79,39.04Z"/>
    </g>
  </g>
</svg>