<?xml version="1.0" encoding="UTF-8"?>
<svg id="Layer_2" data-name="Layer 2" xmlns="http://www.w3.org/2000/svg" viewBox="0 0 179.83 180.93">
  <defs>
    <style>
      .cls-1 {
        fill: #fff;
      }

      .cls-2 {
        fill: #818285;
      }

      .cls-3 {
        fill: #231f20;
      }

      .cls-4 {
        fill: #595a5c;
      }
    </style>
  </defs>
  <g id="faces-confundio">
    <g>
      <g>
        <circle class="cls-4" cx="89.91" cy="89.91" r="89.91"/>
        <path class="cls-2" d="M60.72,174.93s29.33,13.48,58.66,0c0,0-29.33,10.94-58.66,0Z"/>
      </g>
      <ellipse class="cls-1" cx="59.55" cy="96.73" rx="12.35" ry="19.32"/>
      <ellipse class="cls-3" cx="59.55" cy="103.39" rx="7.67" ry="12"/>
      <ellipse class="cls-1" cx="54.33" cy="95.22" rx="2.45" ry="3.84"/>
      <ellipse class="cls-1" cx="119.82" cy="96.73" rx="12.35" ry="19.32"/>
      <ellipse class="cls-3" cx="120.16" cy="103.39" rx="7.67" ry="12"/>
      <ellipse class="cls-1" cx="114.94" cy="95.22" rx="2.45" ry="3.84"/>
      <path class="cls-2" d="M76.38,146.53c1-.64,3.67-2.17,7.62-2.44,5.12-.35,8.77,1.66,9.67,2.19,.28,.38,1.04,1.51,.71,2.9-.41,1.66-2.22,3.02-4.62,3.45-.41,.05-1.99,.22-3.58-.54-1.69-.81-2.19-2.09-2.3-2.37-.09,.25-.72,1.89-2.89,2.7-1.84,.69-3.56,.32-3.96,.22-1.61-.65-2.62-1.93-2.58-3.29,.05-1.7,1.72-2.69,1.93-2.8Z"/>
    </g>
  </g>
</svg>