<?xml version="1.0" encoding="UTF-8"?>
<svg id="Layer_2" data-name="Layer 2" xmlns="http://www.w3.org/2000/svg" viewBox="0 0 179.64 180.74">
  <defs>
    <style>
      .cls-1 {
        fill: #fff;
      }

      .cls-2 {
        fill: #818285;
      }

      .cls-3 {
        fill: #231f20;
      }

      .cls-4 {
        fill: #595a5c;
      }

      .cls-5 {
        fill: #60c8d4;
      }

      .cls-6 {
        fill: none;
        stroke: #818285;
        stroke-miterlimit: 10;
        stroke-width: 2px;
      }

      .cls-7 {
        fill: #f7b1c4;
        opacity: .57;
      }
    </style>
  </defs>
  <g id="faces-sin-palabras">
    <g>
      <g>
        <circle class="cls-4" cx="89.82" cy="89.82" r="89.82"/>
        <path class="cls-2" d="M60.52,174.75s29.3,13.47,58.6,0c0,0-29.3,10.93-58.6,0Z"/>
      </g>
      <line class="cls-6" x1="65.98" y1="146.89" x2="114.94" y2="146.89"/>
    </g>
    <g>
      <path class="cls-5" d="M55.01,112.8s3.06-.54,6.39,0l-1.88-1.55s-3.96,.46-4.52,1.55Z"/>
      <path class="cls-5" d="M39.17,77.63s.88,3.96,10.55,7.59c0,0,5.94,2.75,8.35-9.45,0,0-8.9,.66-18.47-9.01,0,0-.27,7.09,12.92,12.53,0,0,.77,.66-.05,1.15,0,0-7.59,1.04-13.3-2.8Z"/>
      <ellipse class="cls-1" cx="61.74" cy="93.71" rx="12.2" ry="19.09"/>
      <path class="cls-5" d="M143.86,77.63s-.88,3.96-10.55,7.59c0,0-5.94,2.75-8.35-9.45,0,0,8.9,.66,18.47-9.01,0,0,.27,7.09-12.92,12.53,0,0-.77,.66,.05,1.15,0,0,7.59,1.04,13.3-2.8Z"/>
      <path class="cls-5" d="M128.53,112.8s-3.06-.54-6.39,0l1.88-1.55s3.96,.46,4.52,1.55Z"/>
      <ellipse class="cls-1" cx="121.29" cy="93.71" rx="12.2" ry="19.09"/>
      <ellipse class="cls-3" cx="62" cy="97.53" rx="9.57" ry="15.27"/>
      <ellipse class="cls-1" cx="56.24" cy="86.05" rx="2.42" ry="3.79"/>
      <ellipse class="cls-3" cx="121.22" cy="97.53" rx="9.71" ry="15.27"/>
      <ellipse class="cls-1" cx="116.13" cy="86.05" rx="2.42" ry="3.79"/>
      <ellipse class="cls-7" cx="50.46" cy="124.99" rx="11.28" ry="2.97"/>
      <ellipse class="cls-7" cx="135.39" cy="124.99" rx="11.28" ry="2.97"/>
    </g>
  </g>
</svg>