<?xml version="1.0" encoding="UTF-8"?>
<svg id="Layer_2" data-name="Layer 2" xmlns="http://www.w3.org/2000/svg" viewBox="0 0 179.82 180.92">
  <defs>
    <style>
      .cls-1 {
        fill: none;
        stroke: #818285;
        stroke-miterlimit: 10;
        stroke-width: 3px;
      }

      .cls-2 {
        fill: #818285;
      }

      .cls-3 {
        fill: #595a5c;
      }

      .cls-4 {
        fill: #60c8d4;
      }

      .cls-5 {
        fill: #f7b1c4;
        opacity: .57;
      }
    </style>
  </defs>
  <g id="faces-contento">
    <g>
      <g>
        <circle class="cls-3" cx="89.91" cy="89.91" r="89.91"/>
        <path class="cls-2" d="M60.58,174.93s29.33,13.48,58.66,0c0,0-29.33,10.94-58.66,0Z"/>
      </g>
      <path class="cls-1" d="M49.12,121.93c3.81,17.75,17.51,31.3,33.96,33.96,20.35,3.29,41.71-10.61,47.62-33.13"/>
      <path class="cls-4" d="M28.39,89.56s.88,3.96,10.55,7.59c0,0,5.94,2.75,8.35-9.45,0,0-8.9,.66-18.47-9.01,0,0-.27,7.09,12.92,12.53,0,0,.77,.66-.05,1.15,0,0-7.59,1.04-13.3-2.8Z"/>
      <path class="cls-4" d="M152.08,89.56s-.88,3.96-10.55,7.59c0,0-5.94,2.75-8.35-9.45,0,0,8.9,.66,18.47-9.01,0,0,.27,7.09-12.92,12.53,0,0-.77,.66,.05,1.15,0,0,7.59,1.04,13.3-2.8Z"/>
      <ellipse class="cls-5" cx="47.44" cy="118.23" rx="11.28" ry="2.97"/>
      <ellipse class="cls-5" cx="132.38" cy="118.23" rx="11.28" ry="2.97"/>
      <path class="cls-1" d="M43.14,99.61c.78-8.33,7.42-14.89,15.51-15.55,7.57-.62,14.79,4.08,17.39,11.45"/>
      <path class="cls-1" d="M137.7,99.55c-.78-8.33-7.42-14.89-15.51-15.55-7.57-.62-14.79,4.08-17.39,11.45"/>
    </g>
  </g>
</svg>