<?xml version="1.0" encoding="UTF-8"?>
<svg id="Layer_2" data-name="Layer 2" xmlns="http://www.w3.org/2000/svg" viewBox="0 0 180.84 181.95">
  <defs>
    <style>
      .cls-1 {
        fill: #fff;
      }

      .cls-2 {
        fill: #818285;
      }

      .cls-3 {
        fill: #231f20;
      }

      .cls-4 {
        fill: #595a5c;
      }

      .cls-5 {
        fill: #4dc6de;
      }
    </style>
  </defs>
  <g id="faces-muy-frustrado">
    <g>
      <g>
        <circle class="cls-4" cx="90.42" cy="90.42" r="90.42"/>
        <path class="cls-2" d="M60.92,175.92s29.5,13.56,58.99,0c0,0-29.5,11-58.99,0Z"/>
      </g>
      <ellipse class="cls-1" cx="60.01" cy="97.26" rx="12.35" ry="19.32"/>
      <ellipse class="cls-3" cx="59.44" cy="89.75" rx="7.67" ry="12"/>
      <ellipse class="cls-1" cx="55.86" cy="83.77" rx="2.45" ry="3.84"/>
      <ellipse class="cls-1" cx="120.29" cy="97.26" rx="12.35" ry="19.32"/>
      <ellipse class="cls-3" cx="120.06" cy="90.04" rx="7.67" ry="12"/>
      <ellipse class="cls-1" cx="116.48" cy="83.98" rx="2.45" ry="3.84"/>
      <path class="cls-2" d="M79.42,145.77c5.27-.05,11.24,.04,17.78,.39,6.02,.32,11.48,.8,16.28,1.34-4.37,.84-9.88,1.7-16.4,2.29-6.53,.59-12.33,.75-17.05,.74-5.15-.12-8.18-1.81-7.82-2.9,.31-.95,3.31-1.89,7.21-1.87Z"/>
      <path class="cls-5" d="M144.46,19.45l-9.56,32.12c-.83,7.75,4.94,13.96,10.71,14.15,6.1,.2,12.54-6.3,11.47-14.53-4.21-10.58-8.41-21.16-12.62-31.74Z"/>
    </g>
  </g>
</svg>