<?xml version="1.0" encoding="UTF-8"?>
<svg id="Layer_2" data-name="Layer 2" xmlns="http://www.w3.org/2000/svg" viewBox="0 0 180.84 181.95">
  <defs>
    <style>
      .cls-1 {
        fill: #fff;
      }

      .cls-2 {
        fill: #818285;
      }

      .cls-3 {
        fill: #595a5c;
      }
    </style>
  </defs>
  <g id="faces-chevere">
    <g>
      <g>
        <circle class="cls-3" cx="90.42" cy="90.42" r="90.42"/>
        <path class="cls-2" d="M60.92,175.92s29.5,13.56,58.99,0c0,0-29.5,11-58.99,0Z"/>
      </g>
      <path class="cls-1" d="M59.94,136.26s23.7,8.03,60.28,0c0,0-13.92,21.84-30.14,21.45,0,0-17.79,.49-30.14-21.45Z"/>
      <g>
        <g>
          <rect x="20.5" y="82.38" width="88.5" height="5.97"/>
          <rect x="20.45" y="88.3" width="69.64" height="5.97"/>
          <rect x="26.57" y="94.03" width="63.5" height="5.97"/>
          <rect x="31.83" y="99.9" width="53.36" height="5.97"/>
          <rect x="36.27" y="105.9" width="42.8" height="5.97"/>
          <rect class="cls-1" x="33.49" y="89.36" width="6.22" height="5.97"/>
          <rect class="cls-1" x="40.03" y="95.45" width="6.22" height="5.97"/>
          <rect class="cls-1" x="46.56" y="101.31" width="6.22" height="5.97"/>
          <rect class="cls-1" x="46.11" y="89.03" width="6.22" height="5.97"/>
          <rect class="cls-1" x="52.65" y="95.11" width="6.22" height="5.97"/>
          <rect class="cls-1" x="59.18" y="100.97" width="6.22" height="5.97"/>
        </g>
        <g>
          <rect x="80.45" y="82.24" width="88.5" height="5.97" transform="translate(249.4 170.44) rotate(-180)"/>
          <rect x="99.36" y="88.15" width="69.64" height="5.97" transform="translate(268.36 182.27) rotate(-180)"/>
          <rect x="99.38" y="93.88" width="63.5" height="5.97" transform="translate(262.26 193.73) rotate(-180)"/>
          <rect x="104.26" y="99.75" width="53.36" height="5.97" transform="translate(261.88 205.48) rotate(-180)"/>
          <rect x="110.38" y="105.75" width="42.8" height="5.97" transform="translate(263.57 217.47) rotate(-180)"/>
          <rect class="cls-1" x="107.35" y="89.07" width="6.22" height="5.97"/>
          <rect class="cls-1" x="113.88" y="95.15" width="6.22" height="5.97"/>
          <rect class="cls-1" x="120.42" y="101.01" width="6.22" height="5.97"/>
          <rect class="cls-1" x="119.97" y="88.73" width="6.22" height="5.97"/>
          <rect class="cls-1" x="126.5" y="94.81" width="6.22" height="5.97"/>
          <rect class="cls-1" x="133.04" y="100.67" width="6.22" height="5.97"/>
        </g>
      </g>
    </g>
  </g>
</svg>