<?xml version="1.0" encoding="UTF-8"?>
<svg id="Layer_2" data-name="Layer 2" xmlns="http://www.w3.org/2000/svg" viewBox="0 0 180.27 181.37">
  <defs>
    <style>
      .cls-1 {
        fill: #fff;
      }

      .cls-2 {
        fill: #818285;
      }

      .cls-3 {
        fill: #231f20;
      }

      .cls-4 {
        fill: #595a5c;
      }

      .cls-5 {
        fill: #60c8d4;
      }

      .cls-6 {
        fill: #4dc6de;
      }

      .cls-7 {
        fill: none;
        stroke: #818285;
        stroke-miterlimit: 10;
        stroke-width: 2px;
      }

      .cls-8 {
        fill: #f7b1c4;
        opacity: .57;
      }
    </style>
  </defs>
  <g id="faces-lloroso">
    <g>
      <g>
        <circle class="cls-4" cx="90.13" cy="90.13" r="90.13"/>
        <path class="cls-2" d="M60.73,175.36s29.4,13.52,58.81,0c0,0-29.4,10.97-58.81,0Z"/>
      </g>
      <path class="cls-7" d="M67.47,152.52c4.26-8.52,11.89-16.83,19.42-16.84,11.21-.02,25.62,5.24,23.59,24.5"/>
      <g>
        <path class="cls-5" d="M53.13,116.52s3.06-.54,6.39,0l-1.88-1.55s-3.96,.46-4.52,1.55Z"/>
        <path class="cls-5" d="M37.3,81.35s.88,3.96,10.55,7.59c0,0,5.94,2.75,8.35-9.45,0,0-8.9,.66-18.47-9.01,0,0-.27,7.09,12.92,12.53,0,0,.77,.66-.05,1.15,0,0-7.59,1.04-13.3-2.8Z"/>
        <ellipse class="cls-1" cx="59.87" cy="97.43" rx="12.2" ry="19.09"/>
        <path class="cls-5" d="M141.99,81.35s-.88,3.96-10.55,7.59c0,0-5.94,2.75-8.35-9.45,0,0,8.9,.66,18.47-9.01,0,0,.27,7.09-12.92,12.53,0,0-.77,.66,.05,1.15,0,0,7.59,1.04,13.3-2.8Z"/>
        <path class="cls-5" d="M126.66,116.52s-3.06-.54-6.39,0l1.88-1.55s3.96,.46,4.52,1.55Z"/>
        <ellipse class="cls-1" cx="119.42" cy="97.43" rx="12.2" ry="19.09"/>
        <ellipse class="cls-3" cx="60.13" cy="101.25" rx="9.57" ry="15.27"/>
        <ellipse class="cls-1" cx="54.37" cy="89.78" rx="2.42" ry="3.79"/>
        <ellipse class="cls-3" cx="119.35" cy="101.25" rx="9.71" ry="15.27"/>
        <ellipse class="cls-1" cx="114.26" cy="89.78" rx="2.42" ry="3.79"/>
        <ellipse class="cls-8" cx="48.58" cy="128.71" rx="11.28" ry="2.97"/>
        <ellipse class="cls-8" cx="133.52" cy="128.71" rx="11.28" ry="2.97"/>
      </g>
      <path class="cls-6" d="M125.96,119.99l-3.24,10.89c-.28,2.63,1.67,4.73,3.63,4.8,2.07,.07,4.25-2.14,3.89-4.93-1.43-3.59-2.85-7.17-4.28-10.76Z"/>
    </g>
  </g>
</svg>