<?xml version="1.0" encoding="UTF-8"?>
<svg id="Layer_2" data-name="Layer 2" xmlns="http://www.w3.org/2000/svg" viewBox="0 0 178.55 219.14">
  <defs>
    <style>
      .cls-1 {
        fill: none;
      }

      .cls-1, .cls-2 {
        stroke: #818285;
        stroke-miterlimit: 10;
        stroke-width: 3px;
      }

      .cls-3 {
        fill: #fff;
      }

      .cls-4 {
        fill: #818285;
      }

      .cls-5 {
        fill: #231f20;
      }

      .cls-6, .cls-2 {
        fill: #595a5c;
      }
    </style>
  </defs>
  <g id="faces-callado">
    <g>
      <g>
        <circle class="cls-6" cx="89.27" cy="89.27" r="89.27"/>
        <path class="cls-4" d="M60.15,173.69s29.12,13.39,58.24,0c0,0-29.12,10.86-58.24,0Z"/>
      </g>
      <ellipse class="cls-3" cx="59.66" cy="96.73" rx="12.2" ry="19.08"/>
      <ellipse class="cls-5" cx="59.66" cy="96.73" rx="7.58" ry="11.85"/>
      <ellipse class="cls-3" cx="54.51" cy="88.66" rx="2.42" ry="3.79"/>
      <ellipse class="cls-3" cx="119.17" cy="96.73" rx="12.2" ry="19.08"/>
      <ellipse class="cls-5" cx="119.51" cy="96.73" rx="7.58" ry="11.85"/>
      <ellipse class="cls-3" cx="114.36" cy="88.66" rx="2.42" ry="3.79"/>
      <path class="cls-3" d="M73.32,138.51s12.55,4.25,31.91,0c0,0-7.37,11.56-15.95,11.35,0,0-9.41,.26-15.95-11.35Z"/>
      <g>
        <path class="cls-2" d="M108.84,171.36c3.46-4.45,8.67-4.95,10.89-2.9,2.16,2,1.15,6.13,1.09,6.35-3.02,3.81-6.05,7.62-9.07,11.43-1.4,4.05-4.22,10.54-9.98,16.69-7.41,7.91-22.36,18.12-30.84,13.61-12.27-6.52-11.64-44.19,6.17-56.79,2.3-1.63,4.48-2.55,5.99-3.08,.42-8.89,.85-17.78,1.27-26.67,.46-2.84,2.95-4.76,5.44-4.54,1.99,.18,3.75,1.7,4.35,3.81,.24,9.19,.48,18.38,.73,27.58,.06-.46,.28-1.65,1.27-2.54,1.31-1.18,3.41-1.34,5.26-.36,1.41,1.09,3.73,3.17,5.44,6.53,2.39,4.67,2.19,9.05,2,10.89Z"/>
        <path class="cls-1" d="M68.05,175.26c1.2-1.02,2.98-2.45,5.27-3.98,6.48-4.34,11.3-7.57,15.94-6.56,7.03,1.52,9.84,11.95,10.08,12.89-.08,1.95-.54,6.24-3.63,10.08-.59,.73-3.91,4.85-6.09,4.1-3.18-1.09-1.95-11.84-1.76-13.48"/>
        <path class="cls-1" d="M92.07,191.08c2.41,.38,4.06-.06,5.16-.59,6.28-3,7.47-14.94,3.87-22.97-.86-1.9-2.29-5.1-5.62-6.8-3.92-2-8.13-.76-12.3,.47-2.5,.73-6.27,2.17-10.31,5.16"/>
        <path class="cls-1" d="M100.66,187.13c2.41-.73,3.86-1.87,4.76-2.89,4.64-5.21,3.05-16.13-4.34-26.95-3.2-.72-8.1-1.41-13.94-.59-3.91,.55-7.14,1.63-9.56,2.65"/>
        <path class="cls-1" d="M92.44,206.43c.89-1.06,2.45-3.19,3.15-6.3,.94-4.2-.25-7.61-.77-8.89"/>
      </g>
    </g>
  </g>
</svg>