<?xml version="1.0" encoding="UTF-8"?>
<svg id="Layer_2" data-name="Layer 2" xmlns="http://www.w3.org/2000/svg" viewBox="0 0 179.61 180.71">
  <defs>
    <style>
      .cls-1 {
        fill: #fff;
      }

      .cls-2 {
        fill: #818285;
      }

      .cls-3 {
        fill: #231f20;
      }

      .cls-4 {
        fill: #595a5c;
      }

      .cls-5 {
        fill: #60c8d4;
      }

      .cls-6 {
        fill: #f7b1c4;
        opacity: .57;
      }
    </style>
  </defs>
  <g id="faces-fastidiado">
    <g>
      <g>
        <circle class="cls-4" cx="89.8" cy="89.8" r="89.8"/>
        <path class="cls-2" d="M60.51,174.72s29.3,13.47,58.59,0c0,0-29.29,10.93-58.59,0Z"/>
      </g>
      <path class="cls-1" d="M66.38,154.69c-1.25-1.8,2.83-6.74,6.01-9.44,7.05-5.98,15.72-6,18.66-5.87,3.19,.14,11.19,.94,17.59,6.92,.72,.67,5.63,5.26,4.5,7.13-1.43,2.38-10.24-3.57-23.16-3.36-13.46,.23-21.94,7-23.59,4.61Z"/>
      <path class="cls-5" d="M53.08,115.84s3.06-.54,6.39,0l-1.88-1.55s-3.96,.46-4.52,1.55Z"/>
      <path class="cls-5" d="M38.19,91.72s.88,3.96,10.55,7.59c0,0,5.94,2.75,8.35-9.45,0,0-8.9,.66-18.47-9.01,0,0-.27,7.09,12.92,12.53,0,0,.77,.66-.05,1.15,0,0-7.59,1.04-13.3-2.8Z"/>
      <ellipse class="cls-1" cx="59.81" cy="96.75" rx="12.2" ry="19.09"/>
      <path class="cls-5" d="M142.88,91.72s-.88,3.96-10.55,7.59c0,0-5.94,2.75-8.35-9.45,0,0,8.9,.66,18.47-9.01,0,0,.27,7.09-12.92,12.53,0,0-.77,.66,.05,1.15,0,0,7.59,1.04,13.3-2.8Z"/>
      <path class="cls-5" d="M126.6,115.84s-3.06-.54-6.39,0l1.88-1.55s3.96,.46,4.52,1.55Z"/>
      <ellipse class="cls-1" cx="119.36" cy="96.75" rx="12.2" ry="19.09"/>
      <ellipse class="cls-3" cx="60.07" cy="100.57" rx="9.57" ry="15.27"/>
      <ellipse class="cls-1" cx="54.31" cy="89.1" rx="2.42" ry="3.79"/>
      <ellipse class="cls-3" cx="119.29" cy="100.57" rx="9.71" ry="15.27"/>
      <ellipse class="cls-1" cx="114.2" cy="89.1" rx="2.42" ry="3.79"/>
      <ellipse class="cls-6" cx="48.53" cy="128.03" rx="11.28" ry="2.97"/>
      <ellipse class="cls-6" cx="133.46" cy="128.03" rx="11.28" ry="2.97"/>
      <rect class="cls-4" x="49.02" y="65.46" width="81.15" height="22.23"/>
    </g>
  </g>
</svg>