<?xml version="1.0" encoding="UTF-8"?>
<svg id="Layer_2" data-name="Layer 2" xmlns="http://www.w3.org/2000/svg" viewBox="0 0 176.69 186.12">
  <defs>
    <style>
      .cls-1 {
        fill: none;
        stroke-width: 3px;
      }

      .cls-1, .cls-2 {
        stroke: #818285;
        stroke-miterlimit: 10;
      }

      .cls-3 {
        fill: #fff;
      }

      .cls-4 {
        fill: #818285;
      }

      .cls-5 {
        fill: #231f20;
      }

      .cls-6, .cls-2 {
        fill: #595a5c;
      }

      .cls-7 {
        fill: #60c8d4;
      }

      .cls-2 {
        stroke-width: 2px;
      }

      .cls-8 {
        fill: #f7b1c4;
        opacity: .57;
      }
    </style>
  </defs>
  <g id="faces-timido">
    <g>
      <g>
        <circle class="cls-6" cx="88.35" cy="88.35" r="88.35"/>
        <path class="cls-4" d="M59.53,171.89s28.82,13.25,57.64,0c0,0-28.82,10.75-57.64,0Z"/>
      </g>
      <path class="cls-1" d="M58.52,138.32c.97,1.68,8.8,14.8,24.43,16.99,13.21,1.85,26.65-4.84,33.99-16.99"/>
      <g>
        <path class="cls-7" d="M52.97,112.49s3.06-.54,6.39,0l-1.88-1.55s-3.96,.46-4.52,1.55Z"/>
        <path class="cls-7" d="M37.14,77.32s.88,3.96,10.55,7.59c0,0,5.94,2.75,8.35-9.45,0,0-8.9,.66-18.47-9.01,0,0-.27,7.09,12.92,12.53,0,0,.77,.66-.05,1.15,0,0-7.59,1.04-13.3-2.8Z"/>
        <ellipse class="cls-3" cx="59.71" cy="93.4" rx="12.2" ry="19.09"/>
        <path class="cls-7" d="M141.83,77.32s-.88,3.96-10.55,7.59c0,0-5.94,2.75-8.35-9.45,0,0,8.9,.66,18.47-9.01,0,0,.27,7.09-12.92,12.53,0,0-.77,.66,.05,1.15,0,0,7.59,1.04,13.3-2.8Z"/>
        <path class="cls-7" d="M126.5,112.49s-3.06-.54-6.39,0l1.88-1.55s3.96,.46,4.52,1.55Z"/>
        <ellipse class="cls-3" cx="119.26" cy="93.4" rx="12.2" ry="19.09"/>
        <ellipse class="cls-5" cx="59.97" cy="97.23" rx="9.57" ry="15.27"/>
        <ellipse class="cls-3" cx="54.21" cy="85.75" rx="2.42" ry="3.79"/>
        <ellipse class="cls-5" cx="119.19" cy="97.23" rx="9.71" ry="15.27"/>
        <ellipse class="cls-3" cx="114.1" cy="85.75" rx="2.42" ry="3.79"/>
        <ellipse class="cls-8" cx="48.42" cy="124.68" rx="11.28" ry="2.97"/>
        <ellipse class="cls-8" cx="133.36" cy="124.68" rx="11.28" ry="2.97"/>
      </g>
      <path class="cls-2" d="M40.21,181.16c-9.32-7.49-7.06-21.59-6.9-22.49,2.69-6.74,5.38-13.48,8.08-20.22v-.28s.13-11.65,.13-11.65l.02-1.97c.21-.41,1.15-2.17,2.9-2.53,2.91-.6,5.61,4.32,5.93,4.89,4.14,7.4-.63,14.85,1.42,16.07,3.92,2.33,22.07-24.6,30.07-21.23,.24,.1,1.45,.61,1.85,1.72,1.95,5.35-17.8,15.43-15.96,19.2,.2,.41,.59,.6,.81,.71,2.54,1.23,6.59-3.4,15-10.26,7.64-6.24,10.79-7.72,12.82-6.74,.24,.11,.83,.4,1.13,1.02,1.41,2.91-5.7,8.81-9.51,11.99-8.14,6.77-14.63,9.85-13.87,11.99,.21,.58,.86,.84,1.13,.94,2.46,.96,5.25-2.57,10.64-6.43,2.47-1.77,10.34-7.4,13.38-5.25,.83,.59,1,1.54,1.02,1.61,.35,2.15-2.53,4.26-11.66,10.07-6.74,4.28-10.33,6.42-9.92,8.38,.1,.46,.42,.95,.89,1.18,1.41,.68,3.32-1.41,6.45-3.45,1.06-.69,7.9-5.15,10.56-3.21,.95,.69,1.04,1.96,1.05,2.12,.15,2.56-3.24,4.44-7.66,7.37-2.5,1.66-6,4.09-10.11,7.34-1.64,2.03-4.22,4.74-7.97,7.09-7.02,4.4-21.93,9.91-31.71,2.05Z"/>
    </g>
  </g>
</svg>