<?xml version="1.0" encoding="UTF-8"?>
<svg id="Layer_2" data-name="Layer 2" xmlns="http://www.w3.org/2000/svg" viewBox="0 0 180.84 185.02">
  <defs>
    <style>
      .cls-1 {
        fill: #fff;
      }

      .cls-2 {
        fill: #818285;
      }

      .cls-3 {
        fill: #231f20;
      }

      .cls-4, .cls-5 {
        fill: #595a5c;
      }

      .cls-5 {
        stroke: #818285;
        stroke-miterlimit: 10;
        stroke-width: 3px;
      }
    </style>
  </defs>
  <g id="faces-discreto">
    <g>
      <g>
        <circle class="cls-4" cx="90.42" cy="90.42" r="90.42"/>
        <path class="cls-2" d="M60.92,175.92s29.5,13.56,58.99,0c0,0-29.5,11-58.99,0Z"/>
      </g>
      <ellipse class="cls-1" cx="60.4" cy="96.94" rx="12.35" ry="19.32"/>
      <ellipse class="cls-3" cx="60.4" cy="96.94" rx="7.67" ry="12"/>
      <ellipse class="cls-1" cx="55.18" cy="88.78" rx="2.45" ry="3.84"/>
      <ellipse class="cls-1" cx="120.67" cy="96.94" rx="12.35" ry="19.32"/>
      <ellipse class="cls-3" cx="121.02" cy="96.94" rx="7.67" ry="12"/>
      <ellipse class="cls-1" cx="115.8" cy="88.78" rx="2.45" ry="3.84"/>
      <path class="cls-5" d="M66.23,179.46c-9.54-7.67-7.22-22.1-7.06-23.02,2.76-6.9,5.51-13.8,8.27-20.7v-.29s.13-11.92,.13-11.92l.02-2.02c.21-.42,1.18-2.22,2.97-2.59,2.98-.61,5.74,4.42,6.07,5.01,4.24,7.58-.64,15.2,1.45,16.45,4.01,2.38,22.59-25.18,30.78-21.73,.25,.1,1.48,.62,1.9,1.76,2,5.47-18.22,15.8-16.34,19.65,.21,.42,.6,.61,.83,.72,2.6,1.26,6.74-3.48,15.35-10.51,7.82-6.39,11.05-7.9,13.12-6.9,.24,.12,.85,.41,1.16,1.04,1.44,2.97-5.83,9.02-9.74,12.27-8.33,6.93-14.97,10.09-14.19,12.27,.21,.59,.88,.86,1.16,.96,2.52,.98,5.38-2.63,10.89-6.58,2.53-1.81,10.58-7.57,13.7-5.37,.85,.6,1.03,1.58,1.04,1.65,.36,2.2-2.59,4.36-11.93,10.3-6.89,4.38-10.57,6.57-10.15,8.58,.1,.47,.43,.97,.91,1.2,1.44,.7,3.4-1.44,6.6-3.53,1.08-.71,8.09-5.27,10.81-3.29,.97,.71,1.06,2,1.07,2.17,.15,2.62-3.31,4.54-7.84,7.54-2.56,1.69-6.14,4.18-10.35,7.51-1.68,2.07-4.32,4.85-8.16,7.25-7.18,4.5-22.45,10.15-32.45,2.1Z"/>
    </g>
  </g>
</svg>