<?xml version="1.0" encoding="UTF-8"?>
<svg id="Layer_2" data-name="Layer 2" xmlns="http://www.w3.org/2000/svg" viewBox="0 0 179.82 180.92">
  <defs>
    <style>
      .cls-1 {
        fill: #fff;
      }

      .cls-2 {
        fill: #818285;
      }

      .cls-3 {
        fill: #128040;
      }

      .cls-4 {
        fill: #231f20;
      }

      .cls-5 {
        fill: #595a5c;
      }

      .cls-6 {
        fill: #60c8d4;
      }

      .cls-7 {
        fill: none;
        stroke: #818285;
        stroke-miterlimit: 10;
        stroke-width: 2px;
      }

      .cls-8 {
        fill: #f7b1c4;
        opacity: .57;
      }
    </style>
  </defs>
  <g id="faces-cansado">
    <g>
      <g>
        <circle class="cls-5" cx="89.91" cy="89.91" r="89.91"/>
        <path class="cls-2" d="M60.58,174.93s29.33,13.48,58.66,0c0,0-29.33,10.94-58.66,0Z"/>
      </g>
      <path class="cls-7" d="M77.78,150.19c1.01-.92,3.57-2.98,7.32-3.36,7.17-.71,11.88,5.4,12.17,5.79"/>
      <g>
        <path class="cls-3" d="M55.53,116.62s2.95-.52,6.17,0l-1.81-1.49s-3.82,.44-4.36,1.49Z"/>
        <path class="cls-6" d="M40.25,82.68s.85,3.82,10.18,7.32c0,0,5.73,2.65,8.06-9.12,0,0-8.59,.64-17.82-8.7,0,0-.27,6.84,12.46,12.09,0,0,.74,.64-.05,1.11,0,0-7.32,1.01-12.83-2.7Z"/>
        <ellipse class="cls-1" cx="62.02" cy="98.2" rx="11.78" ry="18.42"/>
        <path class="cls-6" d="M141.26,82.68s-.85,3.82-10.18,7.32c0,0-5.73,2.65-8.06-9.12,0,0,8.59,.64,17.82-8.7,0,0,.27,6.84-12.46,12.09,0,0-.74,.64,.05,1.11,0,0,7.32,1.01,12.83-2.7Z"/>
        <path class="cls-3" d="M126.48,116.62s-2.95-.52-6.17,0l1.81-1.49s3.82,.44,4.36,1.49Z"/>
        <ellipse class="cls-1" cx="119.49" cy="98.2" rx="11.78" ry="18.42"/>
        <ellipse class="cls-4" cx="62.27" cy="101.89" rx="9.24" ry="14.73"/>
        <ellipse class="cls-1" cx="55.14" cy="95.42" rx="2.34" ry="3.66"/>
        <ellipse class="cls-4" cx="119.42" cy="101.89" rx="9.37" ry="14.73"/>
        <ellipse class="cls-1" cx="112.94" cy="95.42" rx="2.34" ry="3.66"/>
        <ellipse class="cls-8" cx="51.14" cy="128.38" rx="10.89" ry="2.87"/>
        <ellipse class="cls-8" cx="133.1" cy="128.38" rx="10.89" ry="2.87"/>
      </g>
      <path class="cls-2" d="M50.21,95.41c7.81,0,15.62,0,23.44-.01-.19-2.78-.85-4.94-1.39-6.36-.86-2.23-2.23-5.79-5.74-7.88-.8-.48-2.35-1.37-4.49-1.39-2.27-.02-3.91,.97-4.74,1.47-5.57,3.36-6.99,13.54-7.07,14.16Z"/>
      <path class="cls-2" d="M131.23,95.42c-7.81,0-15.62,0-23.44-.01,.19-2.78,.85-4.94,1.39-6.36,.86-2.23,2.23-5.79,5.74-7.88,.8-.48,2.35-1.37,4.49-1.39,2.27-.02,3.91,.97,4.74,1.47,5.57,3.36,6.99,13.54,7.07,14.16Z"/>
    </g>
  </g>
</svg>