<svg width="11" height="7" viewBox="0 0 11 7" fill="none" xmlns="http://www.w3.org/2000/svg">
<path d="M9.89115 0.258545H1.28756C0.675158 0.258545 0.178711 0.723299 0.178711 1.2966V5.96199C0.178711 6.53529 0.675158 7.00005 1.28756 7.00005H9.89115C10.5035 7.00005 11 6.53529 11 5.96199V1.2966C11 0.723299 10.5035 0.258545 9.89115 0.258545Z" fill="#C6C2C2"/>
<path d="M9.71244 0H1.10885C0.496447 0 0 0.464754 0 1.03806V5.70345C0 6.27675 0.496447 6.7415 1.10885 6.7415H9.71244C10.3248 6.7415 10.8213 6.27675 10.8213 5.70345V1.03806C10.8213 0.464754 10.3248 0 9.71244 0Z" fill="white"/>
<path fill-rule="evenodd" clip-rule="evenodd" d="M4.10498 4.38416C2.73658 3.3053 1.36829 2.22653 0 1.14758V2.0494C1.24324 2.82701 2.48648 3.60448 3.72979 4.382C4.31866 4.75025 4.90755 5.11851 5.49646 5.48681C5.4874 5.49395 5.47833 5.50109 5.46927 5.50824C5.47952 5.50183 5.48976 5.49543 5.5 5.48902C5.51024 5.49543 5.52048 5.50183 5.53073 5.50824C5.52166 5.50109 5.5126 5.49395 5.50354 5.48681C7.33561 4.3409 9.16767 3.19499 11 2.0494V1.14758C9.63043 2.22754 8.26086 3.30732 6.89118 4.38719C6.42747 4.75278 5.96374 5.11839 5.5 5.48401C5.03498 5.11738 4.56997 4.75077 4.10498 4.38416Z" fill="#C6C2C2"/>
</svg>
