<?xml version="1.0" encoding="UTF-8"?>
<svg id="Layer_2" data-name="Layer 2" xmlns="http://www.w3.org/2000/svg" viewBox="0 0 291.44 398.76">
  <defs>
    <style>
      .cls-1 {
        fill: #818285;
      }

      .cls-2 {
        fill: #595a5c;
      }
    </style>
  </defs>
  <g id="Layer_106" data-name="Layer 106">
    <g>
      <g>
        <path class="cls-2" d="M57.89,173.86c1.35-2.58,13.64-25.18,40.95-29.86,27.14-4.65,46.18,12.33,48.35,14.33,12.13,21.88,25.16,49.58,35.8,82.76,9.3,29,14.63,55.53,17.73,78.03-1.52,1.98-15.63,19.8-38.24,18.99-12.71-.46-21.75-6.57-25.4-9.37-.94,.72-3.02,2.11-6.04,2.53-2.6,.36-4.69-.17-5.79-.53-2.76,3.98-9.52,12.5-21.44,17.14-20.92,8.14-39.89-2.64-42.48-4.17-4.94-22.79-9.17-51.01-9.92-83.45-.78-33.58,2.37-62.85,6.48-86.38Z"/>
        <g>
          <path class="cls-1" d="M57.89,173.86c-.67-.07-4.39,24.41-5.9,51.46-.69,12.32-.82,24-.57,34.92,.18,7.66,.73,22.58,2.94,41.56,2.45,21.01,6.37,41.99,6.97,41.9,.78-.11-6.74-35.33-7.94-82.56-1.28-50.35,5.32-87.19,4.5-87.28Z"/>
          <path class="cls-1" d="M147.48,158.82c.61-.29,11.59,20.73,22.14,45.69,4.81,11.37,8.87,22.31,12.33,32.68,2.42,7.27,6.94,21.5,11.25,40.11,4.78,20.6,8.17,41.67,7.58,41.79-.78,.16-5.58-35.53-20.39-80.39-15.79-47.82-33.66-79.52-32.91-79.88Z"/>
        </g>
      </g>
      <g>
        <ellipse class="cls-2" cx="89.54" cy="90.05" rx="89.51" ry="90.05" transform="translate(-14.1 16.67) rotate(-9.86)"/>
        <path class="cls-1" d="M104.64,178.68c-2.79,.53-5.84,.96-9.12,1.21-8.02,.6-15.06-.06-20.73-1.08,7.91,.41,18.02,.24,29.54-1.73,11.75-2.01,21.51-5.29,28.92-8.38-4.21,2.47-9.7,5.17-16.39,7.24-4.47,1.39-8.61,2.23-12.22,2.74Z"/>
      </g>
      <g>
        <path class="cls-2" d="M59.03,266.34c-12.93-6.63-28.51-4.68-38.88,4.75-11.53,10.48-14.37,28.13-6.48,42.34,5.62,4.1,10.45,7.41,14.11,9.84,4.79,3.2,8.5,5.52,13.21,8.48,.54,.34,7.48,4.69,14.01,8.6,12.63,7.57,24.97,14.45,36.9,20.72,10.99,3.48,22.77-.93,28.31-10.55,5.46-9.5,3.55-21.82-4.65-29.75-18.84-18.14-37.68-36.29-56.52-54.43Z"/>
        <path class="cls-2" d="M186.49,392.91c.86,1.19,1.05,2.7,.45,3.9-.77,1.55-2.73,2.34-4.65,1.75-19.45-6.04-40.79-13.91-63.32-24.25-12.79-5.87-24.68-11.96-35.66-18.05-13.35-9.35-15.26-27.56-6.08-37.65,8.14-8.96,23.76-10.13,34.9-1.12,24.79,25.14,49.57,50.28,74.36,75.43Z"/>
        <path class="cls-1" d="M74.21,280.96c13.66,12.83,27.45,26.1,41.34,39.81,17.34,17.11,33.98,34.09,49.96,50.86-18.9-17.61-38.05-36.13-57.34-55.59-11.67-11.77-22.98-23.47-33.95-35.08Z"/>
      </g>
      <g>
        <g>
          <path class="cls-2" d="M194.73,256.03c12.72-7.03,28.35-5.55,39.01,3.55,11.84,10.12,15.23,27.67,7.78,42.13-5.49,4.27-10.22,7.72-13.8,10.27-4.69,3.34-8.32,5.78-12.94,8.88-.53,.35-7.33,4.92-13.73,9.03-12.39,7.95-24.51,15.21-36.24,21.84-10.87,3.82-22.79-.22-28.62-9.68-5.75-9.33-4.22-21.7,3.73-29.88,18.27-18.71,36.55-37.43,54.82-56.14Z"/>
          <path class="cls-2" d="M70.43,387.1c-.83,1.22-.98,2.74-.35,3.92,.82,1.53,2.81,2.26,4.71,1.59,19.37-6.73,40.6-15.35,62.94-26.51,12.69-6.33,24.46-12.84,35.32-19.32,13.16-9.83,14.58-28.15,5.09-37.95-8.42-8.7-24.13-9.33-35.08,.08-24.21,26.06-48.43,52.12-72.64,78.18Z"/>
        </g>
        <path class="cls-1" d="M186.85,264.1c-9.51,9.97-19.02,19.94-28.53,29.91-18.08,18.96-36.16,37.91-54.24,56.87,16.34-20.09,35.03-40.97,56.35-61.97,8.88-8.75,17.71-17.01,26.42-24.81Z"/>
      </g>
      <path class="cls-2" d="M57.24,175.39c2.5-4.71,7.58-7.33,12.51-6.56,6.21,.97,8.88,6.78,9.06,7.18-4.86,15.66-10.52,32.16-17.12,49.32-6.53,16.99-13.32,32.87-20.13,47.63-4.9,4.96-12.14,6.73-18.56,4.53-7.17-2.46-12.06-9.44-12-17.29,3.59-7.86,36.58-66.64,46.24-84.81Z"/>
      <path class="cls-2" d="M10.94,259.85c2.56,7.63,9.2,12.17,16.48,11.28,7.43-.91,13.99-7.28,16.15-15.71,1.74-23.43,3.48-46.87,5.21-70.3-.25-.84-3.19-9.96-11.91-12.01-7.95-1.86-14.31,3.65-15.14,4.39-2.92,9.94-5.72,21.56-7.75,34.63-2.86,18.4-3.4,34.61-3.04,47.72Z"/>
      <path class="cls-2" d="M18.72,190.37c5.23,5.49,13.46,6.5,19.38,2.68,5.02-3.24,7.61-9.47,6.46-15.68-7.01-11.41-14.02-22.81-21.03-34.22-.41-.65-.83-.9-1.15-1.01-1.59-.53-4.04,1.34-5.95,4.78-.83,1.57-1.57,3.24-2.2,5.01-5.58,15.77,.91,31.35,4.5,38.43Z"/>
      <path class="cls-2" d="M147.65,159.65c-4.13,3.37-5.72,8.86-4,13.55,2.16,5.9,8.38,7.39,8.81,7.49,14.42-7.82,29.5-16.58,45.04-26.39,15.39-9.72,29.65-19.46,42.8-29.02,3.91-5.77,4.24-13.22,.83-19.09-3.81-6.55-11.61-9.99-19.3-8.4-7.01,5.05-58.24,48.85-74.19,61.86Z"/>
      <path class="cls-2" d="M228.46,134.36c-7.18,1.94-14.83-.87-19.01-6.97-4.26-6.22-4.01-14.58,.63-20.58,15.71-13.39,31.42-26.78,47.13-40.17,.77-.23,9.27-2.65,16.51,3.06,6.59,5.2,6.83,12.96,6.85,13.99-5.22,7.37-11.73,15.51-19.79,23.8-11.35,11.67-22.65,20.42-32.33,26.88Z"/>
      <path class="cls-2" d="M275.58,89.85c-6.68,3.6-14.93,1.95-19.49-3.58-3.87-4.7-4.5-11.49-1.54-17.08,10.17-8.71,20.35-17.41,30.52-26.12,.59-.5,1.07-.6,1.41-.6,1.69,0,3.5,2.57,4.31,6.47,.33,1.77,.55,3.61,.62,5.5,.67,16.88-10.26,29.76-15.83,35.4Z"/>
      <path class="cls-1" d="M41.56,272.96c-1.48,1.13-6.04,4.31-12.53,4.23-9.21-.12-14.79-6.71-15.6-7.7,.55,.95,4.27,7.16,12.02,8.65,9.13,1.75,15.62-4.66,16.12-5.17Z"/>
      <path class="cls-1" d="M22.37,142.15l15.76,24.79c-3.25-3.41-6.98-7.96-10.41-13.77-2.33-3.95-4.06-7.7-5.35-11.01Z"/>
      <path class="cls-1" d="M47.29,205.17l-3.11,41.86c-.56-5.04-.87-10.83-.61-17.24,.39-9.66,1.96-17.98,3.72-24.62Z"/>
      <path class="cls-1" d="M200.85,260.17c5.5,1.03,11.47,1.91,17.88,2.53,9.07,.88,17.45,1.08,24.97,.89-5.76-.42-11.54-.86-17.35-1.31-8.56-.67-17.05-1.38-25.49-2.11Z"/>
    </g>
  </g>
</svg>