<?xml version="1.0" encoding="UTF-8"?>
<svg id="Layer_2" data-name="Layer 2" xmlns="http://www.w3.org/2000/svg" viewBox="0 0 291.28 402.92">
  <defs>
    <style>
      .cls-1 {
        fill: #818285;
      }

      .cls-2 {
        fill: #595a5c;
      }
    </style>
  </defs>
  <g id="Layer_106" data-name="Layer 106">
    <g>
      <path class="cls-2" d="M104.25,184.81c4.82-2.29,7.67-7.23,7.13-12.2-.68-6.25-6.36-9.18-6.76-9.38-15.87,4.14-32.61,9.04-50.05,14.85-17.27,5.75-33.45,11.8-48.5,17.94-5.18,4.67-7.28,11.82-5.38,18.34,2.13,7.27,8.88,12.48,16.73,12.78,8.02-3.23,68.24-33.5,86.83-42.32Z"/>
      <g>
        <path class="cls-2" d="M99.7,167.2c1.77-2.31,17.75-22.47,45.46-22.41,27.54,.07,43.39,20.06,45.18,22.4,8.2,23.63,16.3,53.16,21.09,87.66,4.19,30.16,4.91,57.21,4.1,79.91-1.84,1.69-18.79,16.83-40.92,12.16-12.44-2.63-20.3-10.2-23.42-13.58-1.05,.55-3.34,1.56-6.39,1.46-2.63-.09-4.6-.97-5.61-1.52-3.4,3.44-11.52,10.68-24.05,13.21-22,4.44-38.84-9.43-41.14-11.39-.96-23.3-.29-51.82,4.52-83.92,4.98-33.22,13.1-61.52,21.18-84Z"/>
        <g>
          <path class="cls-1" d="M99.7,167.2c-.65-.18-8.51,23.29-14.63,49.69-2.79,12.02-4.92,23.5-6.55,34.31-1.14,7.57-3.15,22.37-4.22,41.45-1.18,21.12-.92,42.46-.31,42.47,.79,.02-.59-35.96,6.32-82.7,7.36-49.82,20.18-84.99,19.38-85.22Z"/>
          <path class="cls-1" d="M190.54,167.73c.65-.18,7.87,22.41,13.99,48.81,2.79,12.02,4.92,23.5,6.55,34.31,1.14,7.57,3.15,22.37,4.22,41.45,1.18,21.12,.92,42.46,.31,42.47-.79,.02,.59-35.96-6.32-82.7-7.36-49.82-19.54-84.11-18.74-84.34Z"/>
        </g>
      </g>
      <g>
        <ellipse class="cls-2" cx="145.23" cy="90.05" rx="89.51" ry="90.05"/>
        <path class="cls-1" d="M144.93,179.96c-2.84,.05-5.92-.05-9.2-.37-8-.78-14.83-2.64-20.24-4.61,7.73,1.76,17.72,3.32,29.4,3.35,11.92,.03,22.1-1.53,29.93-3.3-4.58,1.71-10.44,3.43-17.39,4.33-4.64,.6-8.86,.72-12.51,.61Z"/>
      </g>
      <g>
        <path class="cls-2" d="M76.28,270.51c-12.93-6.63-28.51-4.68-38.88,4.75-11.53,10.48-14.37,28.13-6.48,42.34,5.62,4.1,10.45,7.41,14.11,9.84,4.79,3.2,8.5,5.52,13.21,8.48,.54,.34,7.48,4.69,14.01,8.6,12.63,7.57,24.97,14.45,36.9,20.72,10.99,3.48,22.77-.93,28.31-10.55,5.46-9.5,3.55-21.82-4.65-29.75-18.84-18.14-37.68-36.29-56.52-54.43Z"/>
        <path class="cls-2" d="M203.73,397.08c.86,1.19,1.05,2.7,.45,3.9-.77,1.55-2.73,2.34-4.65,1.75-19.45-6.04-40.79-13.91-63.32-24.25-12.79-5.87-24.68-11.96-35.66-18.05-13.35-9.35-15.26-27.56-6.08-37.65,8.14-8.96,23.76-10.13,34.9-1.12,24.79,25.14,49.57,50.28,74.36,75.43Z"/>
        <path class="cls-1" d="M91.46,285.13c13.66,12.83,27.45,26.1,41.34,39.81,17.34,17.11,33.98,34.09,49.96,50.86-18.9-17.61-38.05-36.13-57.34-55.59-11.67-11.77-22.98-23.47-33.95-35.08Z"/>
      </g>
      <g>
        <g>
          <path class="cls-2" d="M211.98,260.2c12.72-7.03,28.35-5.55,39.01,3.55,11.84,10.12,15.23,27.67,7.78,42.13-5.49,4.27-10.22,7.72-13.8,10.27-4.69,3.34-8.32,5.78-12.94,8.88-.53,.35-7.33,4.92-13.73,9.03-12.39,7.95-24.51,15.21-36.24,21.84-10.87,3.82-22.79-.22-28.62-9.68-5.75-9.33-4.22-21.7,3.73-29.88,18.27-18.71,36.55-37.43,54.82-56.14Z"/>
          <path class="cls-2" d="M87.68,391.27c-.83,1.22-.98,2.74-.35,3.92,.82,1.53,2.81,2.26,4.71,1.59,19.37-6.73,40.6-15.35,62.94-26.51,12.69-6.33,24.46-12.84,35.32-19.32,13.16-9.83,14.58-28.15,5.09-37.95-8.42-8.7-24.13-9.33-35.08,.08-24.21,26.06-48.43,52.12-72.64,78.18Z"/>
        </g>
        <path class="cls-1" d="M204.1,268.27c-9.51,9.97-19.02,19.94-28.53,29.91-18.08,18.96-36.16,37.91-54.24,56.87,16.34-20.09,35.03-40.97,56.35-61.97,8.88-8.75,17.71-17.01,26.42-24.81Z"/>
      </g>
      <path class="cls-2" d="M.19,208c.88-7.39,6.35-13.43,13.56-15.03,7.36-1.63,15.02,1.72,18.86,8.27,6.56,19.57,13.11,39.15,19.67,58.72-.07,.8-1,9.59-9,14.18-7.29,4.17-14.57,1.5-15.53,1.13-4.89-7.59-10.01-16.68-14.69-27.25-6.59-14.89-10.49-28.64-12.86-40.03Z"/>
      <path class="cls-1" d="M17.17,284.13c.57-5.67,1.92-12.78,5-20.51,1.35-3.38,2.83-6.39,4.32-9.05-1.78,2.55-3.69,5.75-5.31,9.63-3.31,7.91-3.99,15.12-4.01,19.93Z"/>
      <g>
        <path class="cls-2" d="M28.39,251.86c6.05-4.57,14.34-4.23,19.56,.49,4.43,4.01,5.97,10.58,3.83,16.52-2.32,2.53-4.06,4.61-5.07,5.85-.47,.58-7.39,8.55-21.23,24.51-.2,.23-.64,.7-1.3,.81-1.65,.26-3.77-1.98-5.09-5.68-.57-1.69-1.03-3.45-1.36-5.3-2.95-16.46,5.98-30.79,10.67-37.19Z"/>
        <path class="cls-1" d="M27.45,296.95c3.43-3.97,6.86-7.95,10.29-11.92,3.67-4.25,7.33-8.49,11-12.74-2.48,2.06-5.06,4.41-7.66,7.08-5.93,6.1-10.36,12.22-13.63,17.59Z"/>
      </g>
      <path class="cls-2" d="M187.03,187.67c-4.82-2.29-7.67-7.23-7.13-12.2,.68-6.25,6.36-9.18,6.76-9.38,15.87,4.14,32.61,9.04,50.05,14.85,17.27,5.75,33.45,11.8,48.5,17.94,5.18,4.67,7.28,11.82,5.38,18.34-2.13,7.27-8.88,12.48-16.73,12.78-8.02-3.23-68.24-33.5-86.83-42.32Z"/>
      <path class="cls-2" d="M291.09,210.86c-.88-7.39-6.35-13.43-13.56-15.03-7.36-1.63-15.02,1.72-18.86,8.27-6.56,19.57-13.11,39.15-19.67,58.72,.07,.8,1,9.59,9,14.18,7.29,4.17,14.57,1.5,15.53,1.13,4.89-7.59,10.01-16.68,14.69-27.25,6.59-14.89,10.49-28.64,12.86-40.03Z"/>
      <g>
        <path class="cls-2" d="M262.9,254.72c-6.05-4.57-14.34-4.23-19.56,.49-4.43,4.01-5.97,10.58-3.83,16.52,2.32,2.53,4.06,4.61,5.07,5.85,.47,.58,7.39,8.55,21.23,24.51,.2,.23,.64,.7,1.3,.81,1.65,.26,3.77-1.98,5.09-5.68,.57-1.69,1.03-3.45,1.36-5.3,2.95-16.46-5.98-30.79-10.67-37.19Z"/>
        <path class="cls-1" d="M263.83,299.81c-3.43-3.97-6.86-7.95-10.29-11.92-3.67-4.25-7.33-8.49-11-12.74,2.48,2.06,5.06,4.41,7.66,7.08,5.93,6.1,10.36,12.22,13.63,17.59Z"/>
      </g>
    </g>
  </g>
</svg>