<?xml version="1.0" encoding="UTF-8"?>
<svg id="Layer_2" data-name="Layer 2" xmlns="http://www.w3.org/2000/svg" viewBox="0 0 321.01 362.6">
  <defs>
    <style>
      .cls-1 {
        fill: #818285;
      }

      .cls-2 {
        fill: #595a5c;
      }
    </style>
  </defs>
  <g id="Layer_106" data-name="Layer 106">
    <g>
      <path class="cls-2" d="M120.64,170.79c3.46-4.07,8.97-5.54,13.63-3.73,5.86,2.27,7.23,8.52,7.31,8.95-8.1,14.26-17.16,29.16-27.28,44.51-10.02,15.2-20.05,29.26-29.86,42.22-5.85,3.8-13.3,3.98-19.1,.45-6.48-3.94-9.76-11.81-8.02-19.46,5.19-6.91,50-57.26,63.32-72.95Z"/>
      <path class="cls-2" d="M87.26,257.14c.56-7.42-3.63-14.41-10.4-17.37-6.91-3.02-15.07-1.22-20.1,4.47-10.22,17.94-20.44,35.87-30.66,53.81-.09,.8-.87,9.61,6.09,15.65,6.34,5.5,14.01,4.29,15.02,4.11,6.27-6.5,13.05-14.43,19.68-23.89,9.35-13.33,15.83-26.07,20.36-36.78Z"/>
      <path class="cls-2" d="M41.56,289.48c7.3,2.05,12.04,8.86,11.44,15.87-.51,5.95-4.81,11.15-10.84,13.04-13.36-.86-26.72-1.71-40.08-2.57-.77-.05-1.19-.31-1.43-.55-1.21-1.16-.71-4.2,1.44-7.5,1-1.47,2.13-2.91,3.4-4.29,11.32-12.31,28.13-13.86,36.07-14.01Z"/>
      <path class="cls-2" d="M228.56,166.94c-2.65-4.63-7.8-7.09-12.71-6.17-6.18,1.16-8.67,7.05-8.83,7.46,5.34,15.51,11.51,31.82,18.63,48.77,7.05,16.78,14.32,32.45,21.59,46.99,5.05,4.81,12.34,6.36,18.69,3.96,7.09-2.68,11.76-9.81,11.46-17.65-3.83-7.75-38.61-65.48-48.83-83.35Z"/>
      <path class="cls-2" d="M245.5,257.95c.81-7.39,6.22-13.5,13.42-15.16,7.35-1.7,15.04,1.57,18.94,8.09,6.75,19.51,13.49,39.02,20.24,58.53-.06,.8-.91,9.6-8.86,14.26-7.24,4.24-14.56,1.64-15.52,1.28-4.96-7.55-10.17-16.58-14.95-27.1-6.73-14.83-10.77-28.54-13.25-39.9Z"/>
      <path class="cls-2" d="M284.47,298.14c-7.55,.68-13.47,6.49-14.16,13.49-.59,5.95,2.68,11.85,8.25,14.81,13.29,1.61,26.58,3.23,39.87,4.84,.76,.09,1.22-.09,1.51-.27,1.4-.92,1.47-3.99-.04-7.63-.71-1.63-1.56-3.25-2.55-4.84-8.87-14.18-25.1-18.8-32.88-20.4Z"/>
      <g>
        <path class="cls-2" d="M125.79,167.2c1.77-2.31,17.75-22.47,45.46-22.41,27.54,.07,43.39,20.06,45.18,22.4,8.2,23.63,16.3,53.16,21.09,87.66,4.19,30.16,4.91,57.21,4.1,79.91-1.84,1.69-18.79,16.83-40.92,12.16-12.44-2.63-20.3-10.2-23.42-13.58-1.05,.55-3.34,1.56-6.39,1.46-2.63-.09-4.6-.97-5.61-1.52-3.4,3.44-11.52,10.68-24.05,13.21-22,4.44-38.84-9.43-41.14-11.39-.96-23.3-.29-51.82,4.52-83.92,4.98-33.22,13.1-61.52,21.18-84Z"/>
        <g>
          <path class="cls-1" d="M125.79,167.2c-.65-.18-8.51,23.29-14.63,49.69-2.79,12.02-4.92,23.5-6.55,34.31-1.14,7.57-3.15,22.37-4.22,41.45-1.18,21.12-.92,42.46-.31,42.47,.79,.02-.59-35.96,6.32-82.7,7.36-49.82,20.18-84.99,19.38-85.22Z"/>
          <path class="cls-1" d="M216.63,167.73c.65-.18,7.87,22.41,13.99,48.81,2.79,12.02,4.92,23.5,6.55,34.31,1.14,7.57,3.15,22.37,4.22,41.45,1.18,21.12,.92,42.46,.31,42.47-.79,.02,.59-35.96-6.32-82.7-7.36-49.82-19.54-84.11-18.74-84.34Z"/>
        </g>
      </g>
      <g>
        <ellipse class="cls-2" cx="171.32" cy="90.05" rx="89.51" ry="90.05"/>
        <path class="cls-1" d="M171.02,179.96c-2.84,.05-5.92-.05-9.2-.37-8-.78-14.83-2.64-20.24-4.61,7.73,1.76,17.72,3.32,29.4,3.35,11.92,.03,22.1-1.53,29.93-3.3-4.58,1.71-10.44,3.43-17.39,4.33-4.64,.6-8.86,.72-12.51,.61Z"/>
      </g>
      <g>
        <path class="cls-2" d="M88.25,275.01c-14.34-2.3-28.56,4.38-35.5,16.56-7.71,13.53-4.95,31.2,6.96,42.27,6.61,2.16,12.23,3.8,16.46,4.99,5.55,1.56,9.79,2.62,15.18,3.97,.61,.15,8.56,2.14,15.98,3.84,14.35,3.28,28.21,6.01,41.5,8.27,11.52-.09,21.36-7.93,23.65-18.8,2.25-10.72-3.38-21.85-13.63-26.85-23.53-11.42-47.06-22.83-70.6-34.25Z"/>
        <path class="cls-2" d="M248.63,355.89c1.19,.86,1.83,2.24,1.63,3.57-.25,1.71-1.87,3.08-3.88,3.1-20.36,.28-43.1-.59-67.72-3.45-13.98-1.62-27.17-3.73-39.49-6.12-15.59-4.75-23.04-21.48-17.44-33.92,4.97-11.04,19.45-16.99,32.84-11.88,31.35,16.23,62.71,32.46,94.06,48.69Z"/>
        <path class="cls-1" d="M107.21,284.21c16.96,7.97,34.18,16.32,51.64,25.05,21.78,10.9,42.87,21.89,63.26,32.89-23.42-10.89-47.36-22.57-71.74-35.1-14.74-7.57-29.12-15.2-43.15-22.84Z"/>
      </g>
      <g>
        <g>
          <path class="cls-2" d="M256.79,263.68c14.23-2.94,28.72,3.11,36.2,14.96,8.31,13.17,6.34,30.95-5.07,42.54-6.51,2.45-12.05,4.34-16.23,5.72-5.47,1.8-9.66,3.05-14.99,4.64-.61,.18-8.46,2.52-15.79,4.55-14.19,3.92-27.92,7.26-41.09,10.11-11.52,.42-21.69-6.97-24.46-17.73-2.73-10.61,2.4-21.98,12.43-27.43,23-12.45,46-24.9,69-37.36Z"/>
          <path class="cls-2" d="M99.2,351.98c-1.16,.92-1.75,2.33-1.49,3.64,.33,1.7,2.01,2.99,4.03,2.92,20.49-.68,43.32-2.62,67.97-6.64,14-2.28,27.17-5,39.47-7.98,15.48-5.49,22.27-22.56,16.12-34.73-5.46-10.8-20.28-16.07-33.53-10.33-30.85,17.71-61.71,35.41-92.56,53.12Z"/>
        </g>
        <path class="cls-1" d="M246.87,269.05c-12.04,6.7-24.08,13.4-36.12,20.1-22.89,12.74-45.78,25.48-68.67,38.22,21.56-14.34,45.6-28.74,72.19-42.47,11.07-5.72,21.95-10.99,32.59-15.85Z"/>
      </g>
      <path class="cls-1" d="M297.7,291.34c.12,3.63-.13,9.22-2.21,15.65-2.13,6.56-5.3,11.31-7.56,14.19,2.34-2.11,8.79-8.51,10.27-18.72,.66-4.54,.13-8.43-.5-11.12Z"/>
      <path class="cls-1" d="M256.79,263.68c3.89-.17,9.52,.06,15.88,2.05,10.49,3.28,17.18,9.53,20.32,12.91-1.82-2.79-5.87-8.16-13.08-11.88-10.28-5.31-20.07-3.71-23.12-3.08Z"/>
      <path class="cls-1" d="M213.18,342.15c-8.2,2.43-17.03,4.7-26.47,6.66-5.09,1.06-10.05,1.96-14.86,2.73,7.33-2.22,15.27-4.31,23.78-6.15,6.08-1.31,11.94-2.38,17.55-3.24Z"/>
      <path class="cls-1" d="M48.42,310.34c.93-4.09,2.49-9.18,5.21-14.69,3.65-7.39,8.04-12.81,11.49-16.43-2.85,1.98-7.47,5.75-11.18,11.93-4.76,7.93-5.43,15.54-5.52,19.19Z"/>
    </g>
  </g>
</svg>