<?xml version="1.0" encoding="UTF-8"?>
<svg id="Layer_2" data-name="Layer 2" xmlns="http://www.w3.org/2000/svg" viewBox="0 0 297.81 411.55">
  <defs>
    <style>
      .cls-1 {
        fill: #818285;
      }

      .cls-2 {
        fill: #595a5c;
      }
    </style>
  </defs>
  <g id="Layer_106" data-name="Layer 106">
    <g>
      <path class="cls-2" d="M111.09,164.31c3.27,4.22,3.58,9.92,.85,14.11-3.43,5.27-9.82,5.32-10.26,5.31-12.29-10.86-25.01-22.79-37.95-35.85-12.81-12.93-24.52-25.63-35.18-37.9-2.52-6.5-1.16-13.84,3.48-18.79,5.18-5.53,13.56-7.12,20.69-3.85,5.7,6.5,45.76,60.7,58.37,76.97Z"/>
      <path class="cls-2" d="M29.16,110.71c5.76,4.7,13.9,5.26,20.2,1.4,6.43-3.94,9.62-11.67,7.83-19.05-8.87-18.64-17.74-37.28-26.61-55.92-.61-.53-7.38-6.21-16.32-3.95-8.14,2.05-11.53,9.04-11.96,9.97,1.75,8.86,4.37,18.95,8.34,29.81,5.59,15.29,12.33,27.9,18.53,37.74Z"/>
      <path class="cls-2" d="M3.9,48.2c4.53,6.08,12.59,8.07,18.91,4.99,5.37-2.61,8.69-8.49,8.29-14.79C25.51,26.24,19.92,14.07,14.33,1.91c-.32-.7-.72-1-1.02-1.14-1.51-.71-4.17,.84-6.48,4.04-1.01,1.46-1.95,3.03-2.79,4.71-7.43,14.98-2.86,31.23-.15,38.69Z"/>
      <path class="cls-2" d="M186.57,163.6c-3.27,4.21-3.59,9.91-.87,14.1,3.42,5.27,9.82,5.33,10.26,5.33,12.3-10.85,25.04-22.76,37.99-35.81,12.83-12.91,24.54-25.61,35.22-37.86,2.52-6.5,1.17-13.83-3.46-18.79-5.18-5.54-13.55-7.14-20.69-3.87-5.7,6.5-45.83,60.65-58.45,76.9Z"/>
      <path class="cls-2" d="M268.55,110.09c-5.77,4.7-13.9,5.25-20.2,1.38-6.43-3.95-9.6-11.68-7.81-19.06,8.89-18.63,17.78-37.26,26.68-55.89,.61-.53,7.39-6.2,16.33-3.94,8.14,2.06,11.52,9.05,11.95,9.98-1.76,8.86-4.39,18.95-8.38,29.8-5.61,15.29-12.37,27.88-18.57,37.72Z"/>
      <path class="cls-2" d="M293.89,47.62c-4.54,6.07-12.6,8.05-18.92,4.97-5.37-2.62-8.68-8.5-8.27-14.8,5.6-12.16,11.21-24.32,16.81-36.48,.32-.7,.72-1,1.03-1.14,1.51-.71,4.17,.85,6.47,4.04,1.01,1.46,1.95,3.03,2.78,4.71,7.42,14.99,2.82,31.24,.1,38.69Z"/>
      <g>
        <path class="cls-2" d="M106.29,175.83c1.77-2.31,17.75-22.47,45.46-22.41,27.54,.07,43.39,20.06,45.18,22.4,8.2,23.63,16.3,53.16,21.09,87.66,4.19,30.16,4.91,57.21,4.1,79.91-1.84,1.69-18.79,16.83-40.92,12.16-12.44-2.63-20.3-10.2-23.42-13.58-1.05,.55-3.34,1.56-6.39,1.46-2.63-.09-4.6-.97-5.61-1.52-3.4,3.44-11.52,10.68-24.05,13.21-22,4.44-38.84-9.43-41.14-11.39-.96-23.3-.29-51.82,4.52-83.92,4.98-33.22,13.1-61.52,21.18-84Z"/>
        <g>
          <path class="cls-1" d="M106.29,175.83c-.65-.18-8.51,23.29-14.63,49.69-2.79,12.02-4.92,23.5-6.55,34.31-1.14,7.57-3.15,22.37-4.22,41.45-1.18,21.12-.92,42.46-.31,42.47,.79,.02-.59-35.96,6.32-82.7,7.36-49.82,20.18-84.99,19.38-85.22Z"/>
          <path class="cls-1" d="M197.14,176.35c.65-.18,7.87,22.41,13.99,48.81,2.79,12.02,4.92,23.5,6.55,34.31,1.14,7.57,3.15,22.37,4.22,41.45,1.18,21.12,.92,42.46,.31,42.47-.79,.02,.59-35.96-6.32-82.7-7.36-49.82-19.54-84.11-18.74-84.34Z"/>
        </g>
      </g>
      <g>
        <ellipse class="cls-2" cx="151.82" cy="98.67" rx="89.51" ry="90.05"/>
        <path class="cls-1" d="M151.52,188.59c-2.84,.05-5.92-.05-9.2-.37-8-.78-14.83-2.64-20.24-4.61,7.73,1.76,17.72,3.32,29.4,3.35,11.92,.03,22.1-1.53,29.93-3.3-4.58,1.71-10.44,3.43-17.39,4.33-4.64,.6-8.86,.72-12.51,.61Z"/>
      </g>
      <g>
        <path class="cls-2" d="M82.87,279.13c-12.93-6.63-28.51-4.68-38.88,4.75-11.53,10.48-14.37,28.13-6.48,42.34,5.62,4.1,10.45,7.41,14.11,9.84,4.79,3.2,8.5,5.52,13.21,8.48,.54,.34,7.48,4.69,14.01,8.6,12.63,7.57,24.97,14.45,36.9,20.72,10.99,3.48,22.77-.93,28.31-10.55,5.46-9.5,3.55-21.82-4.65-29.75-18.84-18.14-37.68-36.29-56.52-54.43Z"/>
        <path class="cls-2" d="M210.33,405.7c.86,1.19,1.05,2.7,.45,3.9-.77,1.55-2.73,2.34-4.65,1.75-19.45-6.04-40.79-13.91-63.32-24.25-12.79-5.87-24.68-11.96-35.66-18.05-13.35-9.35-15.26-27.56-6.08-37.65,8.14-8.96,23.76-10.13,34.9-1.12,24.79,25.14,49.57,50.28,74.36,75.43Z"/>
        <path class="cls-1" d="M98.05,293.75c13.66,12.83,27.45,26.1,41.34,39.81,17.34,17.11,33.98,34.09,49.96,50.86-18.9-17.61-38.05-36.13-57.34-55.59-11.67-11.77-22.98-23.47-33.95-35.08Z"/>
      </g>
      <g>
        <g>
          <path class="cls-2" d="M218.58,268.82c12.72-7.03,28.35-5.55,39.01,3.55,11.84,10.12,15.23,27.67,7.78,42.13-5.49,4.27-10.22,7.72-13.8,10.27-4.69,3.34-8.32,5.78-12.94,8.88-.53,.35-7.33,4.92-13.73,9.03-12.39,7.95-24.51,15.21-36.24,21.84-10.87,3.82-22.79-.22-28.62-9.68-5.75-9.33-4.22-21.7,3.73-29.88,18.27-18.71,36.55-37.43,54.82-56.14Z"/>
          <path class="cls-2" d="M94.27,399.89c-.83,1.22-.98,2.74-.35,3.92,.82,1.53,2.81,2.26,4.71,1.59,19.37-6.73,40.6-15.35,62.94-26.51,12.69-6.33,24.46-12.84,35.32-19.32,13.16-9.83,14.58-28.15,5.09-37.95-8.42-8.7-24.13-9.33-35.08,.08-24.21,26.06-48.43,52.12-72.64,78.18Z"/>
        </g>
        <path class="cls-1" d="M210.7,276.89c-9.51,9.97-19.02,19.94-28.53,29.91-18.08,18.96-36.16,37.91-54.24,56.87,16.34-20.09,35.03-40.97,56.35-61.97,8.88-8.75,17.71-17.01,26.42-24.81Z"/>
      </g>
    </g>
  </g>
</svg>