<?xml version="1.0" encoding="UTF-8"?>
<svg id="Layer_2" data-name="Layer 2" xmlns="http://www.w3.org/2000/svg" viewBox="0 0 383.74 402.92">
  <defs>
    <style>
      .cls-1 {
        fill: #818285;
      }

      .cls-2 {
        fill: #595a5c;
      }
    </style>
  </defs>
  <g id="Layer_106" data-name="Layer 106">
    <g>
      <path class="cls-2" d="M150.92,170.3c4.44,2.96,6.53,8.27,5.27,13.11-1.59,6.08-7.63,8.16-8.05,8.29-15.1-6.41-30.94-13.7-47.35-21.98-16.25-8.21-31.37-16.55-45.37-24.81-4.45-5.37-5.48-12.76-2.65-18.92,3.17-6.89,10.61-11.05,18.41-10.2,7.46,4.36,62.63,43.08,79.74,54.52Z"/>
      <path class="cls-2" d="M56.23,145.41c6.95,2.64,14.85,.59,19.6-5.07,4.85-5.77,5.43-14.11,1.39-20.55-14.32-14.87-28.64-29.74-42.96-44.61-.74-.31-8.97-3.55-16.73,1.42-7.07,4.53-8.07,12.23-8.19,13.25,4.47,7.85,10.15,16.59,17.36,25.63,10.15,12.73,20.54,22.55,29.53,29.93Z"/>
      <path class="cls-2" d="M12.47,94.13c6.22,4.33,14.49,3.67,19.52-1.26,4.27-4.18,5.55-10.81,3.18-16.66-9.15-9.77-18.31-19.54-27.46-29.31-.53-.56-1-.72-1.33-.76-1.66-.2-3.69,2.12-4.87,5.88-.5,1.71-.89,3.49-1.15,5.35-2.3,16.57,7.18,30.53,12.11,36.75Z"/>
      <path class="cls-2" d="M225.75,164.19c-4.63,2.66-7.08,7.81-6.15,12.72,1.17,6.18,7.06,8.66,7.47,8.82,15.5-5.37,31.8-11.56,48.74-18.71,16.77-7.08,32.43-14.38,46.95-21.67,4.8-5.06,6.34-12.35,3.93-18.7-2.69-7.09-9.83-11.75-17.67-11.43-7.74,3.85-65.42,38.72-83.27,48.97Z"/>
      <path class="cls-2" d="M321.91,145.8c-7.12,2.16-14.85-.42-19.21-6.39-4.45-6.09-4.45-14.45,0-20.59,15.3-13.86,30.59-27.72,45.89-41.58,.76-.26,9.19-2.93,16.6,2.55,6.75,5,7.22,12.75,7.27,13.77-4.99,7.53-11.26,15.86-19.06,24.39-10.99,12.01-22.02,21.1-31.5,27.85Z"/>
      <path class="cls-2" d="M369.06,97.61c-6.5,3.89-14.71,2.67-19.39-2.58-3.97-4.46-4.8-11.16-2.04-16.83,9.8-9.12,19.6-18.25,29.39-27.37,.56-.52,1.04-.65,1.38-.66,1.67-.08,3.54,2.37,4.46,6.2,.38,1.74,.65,3.54,.78,5.42,1.17,16.69-9.24,29.97-14.59,35.84Z"/>
      <g>
        <path class="cls-2" d="M136.34,167.2c1.77-2.31,17.75-22.47,45.46-22.41,27.54,.07,43.39,20.06,45.18,22.4,8.2,23.63,16.3,53.16,21.09,87.66,4.19,30.16,4.91,57.21,4.1,79.91-1.84,1.69-18.79,16.83-40.92,12.16-12.44-2.63-20.3-10.2-23.42-13.58-1.05,.55-3.34,1.56-6.39,1.46-2.63-.09-4.6-.97-5.61-1.52-3.4,3.44-11.52,10.68-24.05,13.21-22,4.44-38.84-9.43-41.14-11.39-.96-23.3-.29-51.82,4.52-83.92,4.98-33.22,13.1-61.52,21.18-84Z"/>
        <g>
          <path class="cls-1" d="M136.34,167.2c-.65-.18-8.51,23.29-14.63,49.69-2.79,12.02-4.92,23.5-6.55,34.31-1.14,7.57-3.15,22.37-4.22,41.45-1.18,21.12-.92,42.46-.31,42.47,.79,.02-.59-35.96,6.32-82.7,7.36-49.82,20.18-84.99,19.38-85.22Z"/>
          <path class="cls-1" d="M227.18,167.73c.65-.18,7.87,22.41,13.99,48.81,2.79,12.02,4.92,23.5,6.55,34.31,1.14,7.57,3.15,22.37,4.22,41.45,1.18,21.12,.92,42.46,.31,42.47-.79,.02,.59-35.96-6.32-82.7-7.36-49.82-19.54-84.11-18.74-84.34Z"/>
        </g>
      </g>
      <g>
        <ellipse class="cls-2" cx="181.87" cy="90.05" rx="89.51" ry="90.05"/>
        <path class="cls-1" d="M181.57,179.96c-2.84,.05-5.92-.05-9.2-.37-8-.78-14.83-2.64-20.24-4.61,7.73,1.76,17.72,3.32,29.4,3.35,11.92,.03,22.1-1.53,29.93-3.3-4.58,1.71-10.44,3.43-17.39,4.33-4.64,.6-8.86,.72-12.51,.61Z"/>
      </g>
      <g>
        <path class="cls-2" d="M112.92,270.51c-12.93-6.63-28.51-4.68-38.88,4.75-11.53,10.48-14.37,28.13-6.48,42.34,5.62,4.1,10.45,7.41,14.11,9.84,4.79,3.2,8.5,5.52,13.21,8.48,.54,.34,7.48,4.69,14.01,8.6,12.63,7.57,24.97,14.45,36.9,20.72,10.99,3.48,22.77-.93,28.31-10.55,5.46-9.5,3.55-21.82-4.65-29.75-18.84-18.14-37.68-36.29-56.52-54.43Z"/>
        <path class="cls-2" d="M240.38,397.08c.86,1.19,1.05,2.7,.45,3.9-.77,1.55-2.73,2.34-4.65,1.75-19.45-6.04-40.79-13.91-63.32-24.25-12.79-5.87-24.68-11.96-35.66-18.05-13.35-9.35-15.26-27.56-6.08-37.65,8.14-8.96,23.76-10.13,34.9-1.12,24.79,25.14,49.57,50.28,74.36,75.43Z"/>
        <path class="cls-1" d="M128.1,285.13c13.66,12.83,27.45,26.1,41.34,39.81,17.34,17.11,33.98,34.09,49.96,50.86-18.9-17.61-38.05-36.13-57.34-55.59-11.67-11.77-22.98-23.47-33.95-35.08Z"/>
      </g>
      <g>
        <g>
          <path class="cls-2" d="M248.62,260.2c12.72-7.03,28.35-5.55,39.01,3.55,11.84,10.12,15.23,27.67,7.78,42.13-5.49,4.27-10.22,7.72-13.8,10.27-4.69,3.34-8.32,5.78-12.94,8.88-.53,.35-7.33,4.92-13.73,9.03-12.39,7.95-24.51,15.21-36.24,21.84-10.87,3.82-22.79-.22-28.62-9.68-5.75-9.33-4.22-21.7,3.73-29.88,18.27-18.71,36.55-37.43,54.82-56.14Z"/>
          <path class="cls-2" d="M124.32,391.27c-.83,1.22-.98,2.74-.35,3.92,.82,1.53,2.81,2.26,4.71,1.59,19.37-6.73,40.6-15.35,62.94-26.51,12.69-6.33,24.46-12.84,35.32-19.32,13.16-9.83,14.58-28.15,5.09-37.95-8.42-8.7-24.13-9.33-35.08,.08-24.21,26.06-48.43,52.12-72.64,78.18Z"/>
        </g>
        <path class="cls-1" d="M240.74,268.27c-9.51,9.97-19.02,19.94-28.53,29.91-18.08,18.96-36.16,37.91-54.24,56.87,16.34-20.09,35.03-40.97,56.35-61.97,8.88-8.75,17.71-17.01,26.42-24.81Z"/>
      </g>
    </g>
  </g>
</svg>