<?xml version="1.0" encoding="UTF-8"?>
<svg id="Layer_2" data-name="Layer 2" xmlns="http://www.w3.org/2000/svg" viewBox="0 0 349.42 402.92">
  <defs>
    <style>
      .cls-1 {
        fill: #818285;
      }

      .cls-2 {
        fill: #595a5c;
      }
    </style>
  </defs>
  <g id="Layer_106" data-name="Layer 106">
    <g>
      <g>
        <path class="cls-2" d="M131,167.2c1.77-2.31,17.75-22.47,45.46-22.41,27.54,.07,43.39,20.06,45.18,22.4,8.2,23.63,16.3,53.16,21.09,87.66,4.19,30.16,4.91,57.21,4.1,79.91-1.84,1.69-18.79,16.83-40.92,12.16-12.44-2.63-20.3-10.2-23.42-13.58-1.05,.55-3.34,1.56-6.39,1.46-2.63-.09-4.6-.97-5.61-1.52-3.4,3.44-11.52,10.68-24.05,13.21-22,4.44-38.84-9.43-41.14-11.39-.96-23.3-.29-51.82,4.52-83.92,4.98-33.22,13.1-61.52,21.18-84Z"/>
        <g>
          <path class="cls-1" d="M131,167.2c-.65-.18-8.51,23.29-14.63,49.69-2.79,12.02-4.92,23.5-6.55,34.31-1.14,7.57-3.15,22.37-4.22,41.45-1.18,21.12-.92,42.46-.31,42.47,.79,.02-.59-35.96,6.32-82.7,7.36-49.82,20.18-84.99,19.38-85.22Z"/>
          <path class="cls-1" d="M221.84,167.73c.65-.18,7.87,22.41,13.99,48.81,2.79,12.02,4.92,23.5,6.55,34.31,1.14,7.57,3.15,22.37,4.22,41.45,1.18,21.12,.92,42.46,.31,42.47-.79,.02,.59-35.96-6.32-82.7-7.36-49.82-19.54-84.11-18.74-84.34Z"/>
        </g>
      </g>
      <g>
        <ellipse class="cls-2" cx="176.53" cy="90.05" rx="89.51" ry="90.05"/>
        <path class="cls-1" d="M176.23,179.96c-2.84,.05-5.92-.05-9.2-.37-8-.78-14.83-2.64-20.24-4.61,7.73,1.76,17.72,3.32,29.4,3.35,11.92,.03,22.1-1.53,29.93-3.3-4.58,1.71-10.44,3.43-17.39,4.33-4.64,.6-8.86,.72-12.51,.61Z"/>
      </g>
      <g>
        <path class="cls-2" d="M107.58,270.51c-12.93-6.63-28.51-4.68-38.88,4.75-11.53,10.48-14.37,28.13-6.48,42.34,5.62,4.1,10.45,7.41,14.11,9.84,4.79,3.2,8.5,5.52,13.21,8.48,.54,.34,7.48,4.69,14.01,8.6,12.63,7.57,24.97,14.45,36.9,20.72,10.99,3.48,22.77-.93,28.31-10.55,5.46-9.5,3.55-21.82-4.65-29.75-18.84-18.14-37.68-36.29-56.52-54.43Z"/>
        <path class="cls-2" d="M235.03,397.08c.86,1.19,1.05,2.7,.45,3.9-.77,1.55-2.73,2.34-4.65,1.75-19.45-6.04-40.79-13.91-63.32-24.25-12.79-5.87-24.68-11.96-35.66-18.05-13.35-9.35-15.26-27.56-6.08-37.65,8.14-8.96,23.76-10.13,34.9-1.12,24.79,25.14,49.57,50.28,74.36,75.43Z"/>
        <path class="cls-1" d="M122.76,285.13c13.66,12.83,27.45,26.1,41.34,39.81,17.34,17.11,33.98,34.09,49.96,50.86-18.9-17.61-38.05-36.13-57.34-55.59-11.67-11.77-22.98-23.47-33.95-35.08Z"/>
      </g>
      <g>
        <g>
          <path class="cls-2" d="M243.28,260.2c12.72-7.03,28.35-5.55,39.01,3.55,11.84,10.12,15.23,27.67,7.78,42.13-5.49,4.27-10.22,7.72-13.8,10.27-4.69,3.34-8.32,5.78-12.94,8.88-.53,.35-7.33,4.92-13.73,9.03-12.39,7.95-24.51,15.21-36.24,21.84-10.87,3.82-22.79-.22-28.62-9.68-5.75-9.33-4.22-21.7,3.73-29.88,18.27-18.71,36.55-37.43,54.82-56.14Z"/>
          <path class="cls-2" d="M118.98,391.27c-.83,1.22-.98,2.74-.35,3.92,.82,1.53,2.81,2.26,4.71,1.59,19.37-6.73,40.6-15.35,62.94-26.51,12.69-6.33,24.46-12.84,35.32-19.32,13.16-9.83,14.58-28.15,5.09-37.95-8.42-8.7-24.13-9.33-35.08,.08-24.21,26.06-48.43,52.12-72.64,78.18Z"/>
        </g>
        <path class="cls-1" d="M235.4,268.27c-9.51,9.97-19.02,19.94-28.53,29.91-18.08,18.96-36.16,37.91-54.24,56.87,16.34-20.09,35.03-40.97,56.35-61.97,8.88-8.75,17.71-17.01,26.42-24.81Z"/>
      </g>
      <g>
        <path class="cls-2" d="M125.27,172.47c3.35-4.15,8.82-5.77,13.53-4.08,5.92,2.12,7.44,8.33,7.54,8.76-7.73,14.46-16.4,29.6-26.12,45.21-9.62,15.45-19.28,29.77-28.75,42.98-5.75,3.95-13.19,4.32-19.08,.95-6.58-3.77-10.06-11.55-8.52-19.24,5.01-7.04,48.49-58.54,61.41-74.57Z"/>
        <path class="cls-2" d="M71.63,270.64c6.99,2.55,14.85,.41,19.54-5.31,4.78-5.83,5.25-14.18,1.14-20.56-14.5-14.69-29-29.39-43.5-44.08-.75-.3-9.01-3.44-16.71,1.62-7.01,4.61-7.92,12.32-8.03,13.35,4.56,7.79,10.35,16.47,17.67,25.42,10.31,12.61,20.81,22.3,29.89,29.56Z"/>
        <path class="cls-2" d="M45.25,225.67c6.81-3.33,10.25-10.88,8.4-17.67-1.58-5.76-6.74-10.11-13.01-10.88-12.99,3.25-25.98,6.49-38.97,9.74-.74,.19-1.11,.52-1.31,.8-.98,1.36,.06,4.26,2.77,7.11,1.25,1.27,2.62,2.48,4.12,3.61,13.35,10.07,30.17,8.58,38,7.29Z"/>
        <path class="cls-1" d="M71.63,270.64c1.72,.52,5.95,1.53,10.96,.05,6.39-1.89,9.72-6.54,10.62-7.9-.57,1.12-3.12,5.88-8.97,8.12-6.17,2.36-11.52,.2-12.6-.27Z"/>
        <path class="cls-1" d="M11.39,221.09c5.32,2.05,12.27,4.06,20.56,4.81,3.62,.33,6.98,.36,10.02,.23-3.08,.44-6.8,.69-10.99,.39-8.55-.62-15.29-3.28-19.59-5.43Z"/>
      </g>
      <g>
        <path class="cls-2" d="M224.15,170.76c-3.35-4.15-8.82-5.77-13.53-4.08-5.92,2.12-7.44,8.33-7.54,8.76,7.73,14.46,16.4,29.6,26.12,45.21,9.62,15.45,19.28,29.77,28.75,42.98,5.75,3.95,13.19,4.32,19.08,.95,6.58-3.77,10.06-11.55,8.52-19.24-5.01-7.04-48.49-58.54-61.41-74.57Z"/>
        <path class="cls-2" d="M277.79,268.93c-6.99,2.55-14.85,.41-19.54-5.31-4.78-5.83-5.25-14.18-1.14-20.56,14.5-14.69,29-29.39,43.5-44.08,.75-.3,9.01-3.44,16.71,1.62,7.01,4.61,7.92,12.32,8.03,13.35-4.56,7.79-10.35,16.47-17.67,25.42-10.31,12.61-20.81,22.3-29.89,29.56Z"/>
        <path class="cls-2" d="M304.17,223.96c-6.81-3.33-10.25-10.88-8.4-17.67,1.58-5.76,6.74-10.11,13.01-10.88,12.99,3.25,25.98,6.49,38.97,9.74,.74,.19,1.11,.52,1.31,.8,.98,1.36-.06,4.26-2.77,7.11-1.25,1.27-2.62,2.48-4.12,3.61-13.35,10.07-30.17,8.58-38,7.29Z"/>
        <path class="cls-1" d="M277.79,268.93c-1.72,.52-5.95,1.53-10.96,.05-6.39-1.89-9.72-6.54-10.62-7.9,.57,1.12,3.12,5.88,8.97,8.12,6.17,2.36,11.52,.2,12.6-.27Z"/>
        <path class="cls-1" d="M338.03,219.38c-5.32,2.05-12.27,4.06-20.56,4.81-3.62,.33-6.98,.36-10.02,.23,3.08,.44,6.8,.69,10.99,.39,8.55-.62,15.29-3.28,19.59-5.43Z"/>
      </g>
    </g>
  </g>
</svg>