<?xml version="1.0" encoding="UTF-8"?>
<svg id="Layer_2" data-name="Layer 2" xmlns="http://www.w3.org/2000/svg" viewBox="0 0 237.93 402.92">
  <defs>
    <style>
      .cls-1 {
        fill: #818285;
      }

      .cls-2 {
        fill: #595a5c;
      }
    </style>
  </defs>
  <g id="Layer_106" data-name="Layer 106">
    <g>
      <g>
        <path class="cls-2" d="M74.92,167.2c1.77-2.31,17.75-22.47,45.46-22.41,27.54,.07,43.39,20.06,45.18,22.4,8.2,23.63,16.3,53.16,21.09,87.66,4.19,30.16,4.91,57.21,4.1,79.91-1.84,1.69-18.79,16.83-40.92,12.16-12.44-2.63-20.3-10.2-23.42-13.58-1.05,.55-3.34,1.56-6.39,1.46-2.63-.09-4.6-.97-5.61-1.52-3.4,3.44-11.52,10.68-24.05,13.21-22,4.44-38.84-9.43-41.14-11.39-.96-23.3-.29-51.82,4.52-83.92,4.98-33.22,13.1-61.52,21.18-84Z"/>
        <g>
          <path class="cls-1" d="M74.92,167.2c-.65-.18-8.51,23.29-14.63,49.69-2.79,12.02-4.92,23.5-6.55,34.31-1.14,7.57-3.15,22.37-4.22,41.45-1.18,21.12-.92,42.46-.31,42.47,.79,.02-.59-35.96,6.32-82.7,7.36-49.82,20.18-84.99,19.38-85.22Z"/>
          <path class="cls-1" d="M165.76,167.73c.65-.18,7.87,22.41,13.99,48.81,2.79,12.02,4.92,23.5,6.55,34.31,1.14,7.57,3.15,22.37,4.22,41.45,1.18,21.12,.92,42.46,.31,42.47-.79,.02,.59-35.96-6.32-82.7-7.36-49.82-19.54-84.11-18.74-84.34Z"/>
        </g>
      </g>
      <g>
        <ellipse class="cls-2" cx="120.45" cy="90.05" rx="89.51" ry="90.05"/>
        <path class="cls-1" d="M120.15,179.96c-2.84,.05-5.92-.05-9.2-.37-8-.78-14.83-2.64-20.24-4.61,7.73,1.76,17.72,3.32,29.4,3.35,11.92,.03,22.1-1.53,29.93-3.3-4.58,1.71-10.44,3.43-17.39,4.33-4.64,.6-8.86,.72-12.51,.61Z"/>
      </g>
      <g>
        <path class="cls-2" d="M51.5,270.51c-12.93-6.63-28.51-4.68-38.88,4.75-11.53,10.48-14.37,28.13-6.48,42.34,5.62,4.1,10.45,7.41,14.11,9.84,4.79,3.2,8.5,5.52,13.21,8.48,.54,.34,7.48,4.69,14.01,8.6,12.63,7.57,24.97,14.45,36.9,20.72,10.99,3.48,22.77-.93,28.31-10.55,5.46-9.5,3.55-21.82-4.65-29.75-18.84-18.14-37.68-36.29-56.52-54.43Z"/>
        <path class="cls-2" d="M178.95,397.08c.86,1.19,1.05,2.7,.45,3.9-.77,1.55-2.73,2.34-4.65,1.75-19.45-6.04-40.79-13.91-63.32-24.25-12.79-5.87-24.68-11.96-35.66-18.05-13.35-9.35-15.26-27.56-6.08-37.65,8.14-8.96,23.76-10.13,34.9-1.12,24.79,25.14,49.57,50.28,74.36,75.43Z"/>
        <path class="cls-1" d="M66.68,285.13c13.66,12.83,27.45,26.1,41.34,39.81,17.34,17.11,33.98,34.09,49.96,50.86-18.9-17.61-38.05-36.13-57.34-55.59-11.67-11.77-22.98-23.47-33.95-35.08Z"/>
      </g>
      <g>
        <g>
          <path class="cls-2" d="M187.2,260.2c12.72-7.03,28.35-5.55,39.01,3.55,11.84,10.12,15.23,27.67,7.78,42.13-5.49,4.27-10.22,7.72-13.8,10.27-4.69,3.34-8.32,5.78-12.94,8.88-.53,.35-7.33,4.92-13.73,9.03-12.39,7.95-24.51,15.21-36.24,21.84-10.87,3.82-22.79-.22-28.62-9.68-5.75-9.33-4.22-21.7,3.73-29.88,18.27-18.71,36.55-37.43,54.82-56.14Z"/>
          <path class="cls-2" d="M62.9,391.27c-.83,1.22-.98,2.74-.35,3.92,.82,1.53,2.81,2.26,4.71,1.59,19.37-6.73,40.6-15.35,62.94-26.51,12.69-6.33,24.46-12.84,35.32-19.32,13.16-9.83,14.58-28.15,5.09-37.95-8.42-8.7-24.13-9.33-35.08,.08-24.21,26.06-48.43,52.12-72.64,78.18Z"/>
        </g>
        <path class="cls-1" d="M179.32,268.27c-9.51,9.97-19.02,19.94-28.53,29.91-18.08,18.96-36.16,37.91-54.24,56.87,16.34-20.09,35.03-40.97,56.35-61.97,8.88-8.75,17.71-17.01,26.42-24.81Z"/>
      </g>
      <g>
        <path class="cls-2" d="M168.07,170.76c-3.35-4.15-8.82-5.77-13.53-4.08-5.92,2.12-7.44,8.33-7.54,8.76,7.73,14.46,16.4,29.6,26.12,45.21,9.62,15.45,19.28,29.77,28.75,42.98,5.75,3.95,13.19,4.32,19.08,.95,6.58-3.77,10.06-11.55,8.52-19.24-5.01-7.04-48.49-58.54-61.41-74.57Z"/>
        <g>
          <path class="cls-2" d="M226.71,263.65c5.01-5.5,6.01-13.59,2.5-20.09-3.59-6.64-11.13-10.23-18.59-8.85-19.09,7.85-38.19,15.69-57.28,23.54-.56,.58-6.6,7.03-4.83,16.08,1.61,8.24,8.4,12,9.31,12.49,8.94-1.27,19.16-3.34,30.22-6.71,15.57-4.76,28.52-10.8,38.69-16.45Z"/>
          <path class="cls-1" d="M226.71,263.65c1.1-1.33,3.71-4.87,4.2-10.12,.62-6.7-2.68-11.52-3.57-12.75,.79,.85,4.47,4.97,4.4,11.31-.08,6.67-4.25,10.82-5.02,11.56Z"/>
        </g>
        <g>
          <path class="cls-2" d="M157.8,286.81c8.73-2.67,13.52-11.3,11.6-18.65-1.45-5.57-6.63-9.9-13.01-10.88-12.99,3.25-25.98,6.49-38.97,9.74-.74,.19-1.11,.52-1.31,.8-.98,1.36,.06,4.26,2.77,7.11,1.72,1.81,3.31,3.12,4.12,3.61,4.28,2.6,17.23,5.87,34.8,8.27Z"/>
          <path class="cls-1" d="M126.69,280.21c.08-.27,8.35,2.44,21.09,4.83,6.07,1.14,10.04,1.62,10.02,1.78-.02,.19-5.77-.23-11.95-1.29-4.35-.75-7.67-1.6-9.38-2.06-4.73-1.28-9.84-3.05-9.78-3.26Z"/>
        </g>
        <path class="cls-1" d="M183.09,281.53c6.11-2.43,17.6-6.99,23.72-9.41,3.01-1.19,12.78-5.06,15.79-6.26-5.31,2.83-11.3,5.69-17.93,8.38-7.72,3.13-14.99,5.49-21.58,7.29Z"/>
        <path class="cls-1" d="M117.43,267.02l28.04-7.01c-5.43,.66-11.58,1.79-18.21,3.69-3.54,1.02-6.82,2.15-9.83,3.31Z"/>
        <path class="cls-1" d="M158.06,256.3l22.54-9.27c-4.04,1.24-8.41,2.79-13.01,4.75-3.44,1.46-6.62,2.99-9.53,4.52Z"/>
        <path class="cls-1" d="M188.19,243.92l15.44-6.34c-2.73,.75-5.77,1.77-9.01,3.17-2.37,1.02-4.52,2.11-6.42,3.18Z"/>
      </g>
      <g>
        <path class="cls-2" d="M70.64,167.46c3.7-3.84,9.3-4.97,13.84-2.87,5.71,2.64,6.68,8.96,6.74,9.39-8.98,13.72-18.95,28.03-30.01,42.72-10.95,14.54-21.83,27.95-32.44,40.27-6.07,3.43-13.52,3.14-19.09-.74-6.22-4.33-9-12.39-6.79-19.92,5.61-6.57,53.47-54.03,67.75-68.85Z"/>
        <g>
          <path class="cls-2" d="M4.03,254.81c-4.5-5.92-4.78-14.07-.71-20.23,4.16-6.29,11.99-9.21,19.3-7.17,18.33,9.5,36.65,19.01,54.98,28.51,.51,.63,5.95,7.59,3.39,16.45-2.33,8.07-9.43,11.22-10.37,11.62-8.8-2.05-18.79-5.02-29.51-9.36-15.09-6.11-27.46-13.28-37.08-19.81Z"/>
          <path class="cls-1" d="M4.03,254.81c-.98-1.42-3.27-5.18-3.29-10.45-.02-6.73,3.68-11.24,4.69-12.38-.86,.78-4.89,4.55-5.38,10.88-.51,6.65,3.28,11.15,3.98,11.96Z"/>
        </g>
        <g>
          <path class="cls-2" d="M70.62,283.97c-8.46-3.43-12.47-12.45-9.91-19.6,1.94-5.42,7.48-9.28,13.92-9.69,12.65,4.38,25.3,8.76,37.95,13.14,.72,.25,1.06,.62,1.23,.91,.86,1.44-.44,4.23-3.39,6.84-1.87,1.65-3.57,2.81-4.42,3.23-4.5,2.21-17.68,4.32-35.39,5.17Z"/>
          <path class="cls-1" d="M102.19,280.14c-.05-.27-8.53,1.69-21.44,2.95-6.15,.6-10.14,.72-10.14,.89,0,.19,5.77,.28,12.02-.23,4.4-.36,7.78-.91,9.52-1.23,4.82-.86,10.07-2.17,10.03-2.38Z"/>
        </g>
        <path class="cls-1" d="M45.89,276.48c-5.87-2.96-16.92-8.52-22.79-11.47-2.9-1.46-12.28-6.17-15.18-7.63,5.04,3.29,10.75,6.67,17.12,9.93,7.42,3.8,14.45,6.8,20.85,9.17Z"/>
        <path class="cls-1" d="M112.58,267.83l-27.31-9.46c5.35,1.13,11.38,2.8,17.81,5.29,3.43,1.33,6.6,2.74,9.5,4.17Z"/>
        <path class="cls-1" d="M73.06,253.56l-21.64-11.22c3.91,1.59,8.13,3.52,12.54,5.88,3.3,1.76,6.33,3.56,9.1,5.34Z"/>
        <path class="cls-1" d="M44.14,238.56l-14.82-7.68c2.65,.99,5.59,2.27,8.7,3.95,2.27,1.23,4.31,2.5,6.12,3.73Z"/>
      </g>
    </g>
  </g>
</svg>