<svg width="192" height="177" viewBox="0 0 192 177" fill="none" xmlns="http://www.w3.org/2000/svg">
<path d="M79.5406 158.533C123.47 158.533 159.081 123.044 159.081 79.2663C159.081 35.4887 123.47 0 79.5406 0C35.6115 0 0 35.4887 0 79.2663C0 123.044 35.6115 158.533 79.5406 158.533Z" fill="#7F7DCF"/>
<path d="M154.577 60.8084C154.576 61.0398 154.575 61.2717 154.52 61.6004C154.502 61.9248 154.539 62.1517 154.576 62.3782C154.575 63.7467 154.575 65.1152 154.52 66.6202C154.453 70.6284 154.437 74.5012 154.433 78.3734C154.432 78.5702 154.528 78.7665 154.577 79.0478C154.571 90.8331 154.566 102.533 154.511 114.298C154.449 117.354 154.435 120.347 154.433 123.339C154.433 123.537 154.528 123.734 154.577 124.016C154.577 130.539 154.578 136.978 154.576 143.493C154.575 144.771 154.576 145.974 154.577 147.176C154.577 147.537 154.576 147.898 154.571 148.41C154.569 149.469 154.573 150.375 154.577 151.281C154.576 153.709 154.575 156.137 154.524 158.704C154.458 160.047 154.416 161.25 154.433 162.453C154.449 163.532 154.53 164.609 154.582 165.688C154.605 166.857 154.566 168.043 153.823 169.005C152.994 170.079 151.826 170.529 150.453 170.528C127.659 170.521 104.865 170.523 82.0713 170.523C78.6357 170.523 75.1955 170.411 71.7658 170.557C68.8481 170.681 66.7272 168.986 67.0621 165.701C67.0651 163.276 67.0626 161.008 67.0601 158.74C67.0591 156.294 67.0581 153.849 67.0581 151.236C67.0571 150.184 67.0551 149.299 67.0536 148.414C67.0799 148.016 67.1062 147.618 67.0943 147.095C67.0556 145.786 67.0546 144.602 67.0556 143.332C67.0561 136.809 67.0551 130.37 67.068 123.856C67.1117 120.901 67.1449 118.019 67.1653 115.138C67.1673 114.851 67.0928 114.562 67.0541 114.193C67.0551 102.346 67.0561 90.579 67.0943 78.7482C67.1444 76.0106 67.1668 73.3373 67.1653 70.664C67.1648 69.866 67.0968 69.0686 67.0596 68.2706C67.0596 65.8865 67.0591 63.5024 67.066 60.9597C67.0675 60.4994 67.0616 60.1983 67.0561 59.8967C67.1162 58.4065 67.1762 56.9164 67.2943 55.3273C68.2185 53.4466 69.7382 52.9621 71.5986 53.0095C73.2006 53.0501 74.8061 52.9625 76.4101 52.9319C80.1766 52.9299 83.9432 52.9274 87.8675 52.9393C90.373 52.9769 92.7211 53.0154 95.0688 53.0184C96.315 53.0199 97.5608 52.9601 98.8066 52.9279C100.889 52.9269 102.971 52.9265 105.215 52.9596C108.499 52.9695 111.621 52.9457 114.744 52.9215C116.961 52.9235 119.178 52.9255 121.548 52.9606C123.984 52.9695 126.268 52.9457 128.553 52.9215C130.228 52.923 131.903 52.9245 133.728 52.9625C137.79 53.007 141.7 53.0174 145.611 53.0189C145.907 53.0194 146.202 52.9576 146.497 52.925C147.841 52.926 149.186 52.9269 150.531 52.9274C153.001 52.9284 154.542 54.4497 154.571 56.9282C154.583 57.969 154.574 59.0097 154.519 60.1617C154.501 60.4509 154.539 60.6299 154.577 60.8084ZM150.445 64.0122C150.445 63.2211 150.445 62.4301 150.445 61.6306C123.966 61.6306 97.5886 61.6306 71.1973 61.6306C71.1973 62.5186 71.1973 63.3462 71.1685 64.3385C71.1685 95.494 71.1685 126.649 71.1685 157.842C97.6169 157.842 123.989 157.842 150.448 157.842C150.448 157.502 150.449 157.184 150.449 156.866C150.449 126.266 150.449 95.6675 150.447 65.0683C150.447 64.7711 150.429 64.4745 150.445 64.0122ZM113.91 165.966C113.972 164.892 114.286 163.759 114.046 162.757C113.464 160.338 110.814 159.031 108.394 159.763C105.999 160.488 104.653 163.017 105.381 165.428C105.858 167.009 107.443 168.385 108.938 168.561C111.133 168.819 112.768 168.005 113.91 165.966ZM111.635 56.5238C111.478 56.4462 111.326 56.3522 111.162 56.2939C110.521 56.0675 110.04 56.3967 109.921 56.9352C109.833 57.3292 109.991 57.9274 110.269 58.2172C110.697 58.6646 111.364 58.5084 111.646 58.0155C111.852 57.654 111.714 57.0973 111.635 56.5238Z" fill="#171717"/>
<path d="M154.579 123.931C154.528 123.734 154.433 123.536 154.433 123.339C154.435 120.347 154.449 117.354 154.563 114.341C157.463 119.137 158.5 124.458 159.141 130.104C159.295 129.264 159.413 128.64 159.525 128.016C159.967 125.563 160.411 123.109 160.849 120.655C161.201 118.686 161.569 116.719 161.885 114.744C162.064 113.623 162.231 112.489 162.253 111.359C162.27 110.526 162.084 109.681 161.917 108.855C161.527 106.929 161.192 104.976 159.736 103.469C159.204 102.919 158.652 102.371 158.215 101.75C156.287 99.0088 155.325 95.9439 155.301 92.6021C155.294 91.6049 155.421 90.6072 155.467 89.6085C155.537 88.1074 155.563 86.6034 155.661 85.1044C155.709 84.383 155.897 83.6721 155.986 82.9522C156.118 81.8902 156.219 80.8247 156.335 79.7326C155.744 79.4735 155.161 79.2184 154.579 78.9633C154.528 78.7665 154.432 78.5697 154.432 78.3734C154.437 74.5012 154.452 70.6284 154.52 66.7023C155.966 67.5937 157.481 68.4031 158.716 69.5195C160.119 70.7886 160.937 72.5003 161.602 74.3009C162.391 76.4329 163.41 78.4802 164.332 80.5627C164.481 80.8999 164.647 81.2292 164.701 81.8294C162.633 81.4146 160.565 80.9998 158.405 80.5291C158.231 80.4628 158.15 80.4519 158.068 80.4416C158.114 80.5266 158.16 80.6121 158.206 80.6972C160.106 83.6374 161.493 86.7859 162.297 90.2023C163.227 94.1586 163.589 98.1653 163.631 102.219C163.779 100.916 163.952 99.6154 164.068 98.3097C164.186 96.9871 164.246 95.6591 164.446 94.337C165.5 95.2033 165.01 96.2742 164.956 97.2526C164.9 98.2657 164.696 99.2703 164.556 100.279C164.631 100.295 164.706 100.311 164.781 100.327C165.324 98.3121 165.868 96.2979 166.409 94.2827C167.31 90.9281 168.255 87.612 170.332 84.7118C173.029 80.9459 176.665 78.5835 181.075 77.4044C183.262 76.82 185.533 76.5451 188.026 76.0813C187.904 77.6699 187.864 79.0122 187.686 80.3358C187.388 82.5487 186.798 84.7054 185.757 86.6835C184.952 88.2132 184.047 89.7187 182.989 91.0828C180.419 94.3974 177.086 96.8289 173.397 98.7813C170.963 100.069 168.463 101.234 166.054 102.565C165.134 103.072 164.13 103.699 163.92 104.878C163.721 105.996 163.672 107.14 163.537 108.27C163.358 109.775 163.17 111.279 162.967 112.782C162.75 114.393 162.526 116.004 162.281 117.612C161.958 119.739 161.61 121.862 161.277 123.988C161.174 124.648 161.082 125.309 160.985 125.97C161.073 126.024 161.16 126.076 161.248 126.129C162.01 125.061 162.879 124.051 163.512 122.912C165.094 120.064 165.94 116.947 166.799 113.819C168.039 109.307 170.139 105.196 173.888 102.224C175.334 101.078 177.175 100.425 178.841 99.5546C181.079 98.3858 183.32 97.2239 185.561 96.0606C185.892 95.889 186.226 95.7254 186.756 95.4589C186.335 97.6071 186.088 99.6213 185.527 101.545C184.81 104.004 183.998 106.462 182.933 108.786C181.919 111 180.469 112.975 178.792 114.812C176.401 117.43 173.599 119.399 170.421 120.895C168.875 121.623 167.27 122.238 165.766 123.044C163.489 124.263 161.797 126.129 160.64 128.403C160.14 129.386 160.018 130.554 159.677 131.623C158.026 136.787 156.358 141.946 154.637 147.142C154.575 145.974 154.574 144.771 154.637 143.461C155.107 142.121 155.518 140.889 155.916 139.653C156.926 136.515 158.375 133.486 157.658 130C157.308 128.301 156.849 126.685 155.919 125.234C155.591 124.724 155.032 124.361 154.579 123.931Z" fill="#47D8E0"/>
<path d="M67.0541 114.274C67.0928 114.563 67.1672 114.851 67.1653 115.139C67.1444 118.019 67.1117 120.901 67.0035 123.865C66.4429 124.511 65.8128 125.005 65.5107 125.651C64.9322 126.887 64.3751 128.179 64.1166 129.506C63.8387 130.932 63.5535 132.52 63.9082 133.871C64.7576 137.105 65.981 140.241 67.0536 143.417C67.0546 144.602 67.0551 145.786 67.0477 147.053C66.0301 144.144 64.9803 141.165 64.0243 138.157C63.0633 135.134 62.2874 132.049 61.252 129.053C60.6536 127.322 59.4421 125.929 58.0867 124.64C55.55 122.226 52.0935 121.579 49.2212 119.841C47.6831 118.91 46.1457 117.901 44.846 116.677C43.1701 115.098 41.5555 113.392 40.2392 111.515C38.7341 109.369 37.6142 106.95 36.9497 104.392C36.2665 101.763 35.7356 99.0943 35.1369 96.4438C35.0761 96.1738 35.0081 95.9058 34.9018 95.4648C36.2004 96.1689 37.3224 96.8225 38.4835 97.3975C40.4323 98.3626 42.4347 99.2238 44.3593 100.233C45.6886 100.931 47.0384 101.669 48.1808 102.623C51.2496 105.188 53.116 108.568 54.3241 112.322C55.0201 114.485 55.5738 116.695 56.316 118.842C57.2304 121.485 58.4221 123.998 60.6263 125.991C60.4894 124.989 60.3654 123.986 60.2131 122.986C59.9333 121.147 59.6281 119.311 59.3503 117.472C58.9857 115.06 58.6161 112.649 58.2901 110.231C58.0678 108.584 57.8605 106.93 57.7548 105.272C57.6878 104.223 57.0934 103.554 56.3185 103.097C54.4228 101.98 52.4487 100.996 50.5292 99.9175C48.2557 98.6409 45.9064 97.4647 43.773 95.9839C41.3258 94.2856 39.2254 92.1572 37.5426 89.6693C35.7011 86.9476 34.4865 83.9786 34.0639 80.711C33.8804 79.2916 33.7288 77.8681 33.5392 76.2455C34.96 76.4002 36.1747 76.4818 37.3716 76.6736C40.0506 77.1028 42.6256 77.8761 45.027 79.163C47.9787 80.7446 50.2454 83.0125 52.03 85.8336C53.8165 88.6592 54.5305 91.8442 55.4007 94.9862C55.8908 96.7572 56.3681 98.5312 56.9183 100.292C57.1981 98.3062 55.9295 96.3117 56.901 94.3474C57.0225 94.339 57.1441 94.3301 57.2656 94.3217C57.5032 96.9644 57.7414 99.6075 57.979 102.251C58.0172 102.251 58.0549 102.25 58.0926 102.25C58.0926 101.43 58.0673 100.609 58.0971 99.7904C58.2107 96.6662 58.431 93.541 59.3161 90.5311C60.0226 88.1302 60.8059 85.7303 61.8285 83.4511C62.5191 81.9115 63.684 80.582 64.637 79.1591C64.7496 78.9905 64.8632 78.8229 65.0324 78.6389C65.0885 78.6231 65.0771 78.6137 65.081 78.6913C65.086 78.8871 65.0736 79.0078 65.089 79.1249C65.4452 81.8022 65.9299 84.4705 66.1254 87.1592C66.302 89.5867 66.2896 92.045 66.1313 94.475C65.9274 97.6017 64.7298 100.368 62.5374 102.685C61.9014 103.357 61.2162 104.081 60.8749 104.913C59.8231 107.474 59.1529 110.141 59.5349 112.948C59.77 114.672 60.0756 116.386 60.3604 118.104C60.674 119.992 60.988 121.88 61.3239 123.764C61.6885 125.809 62.0785 127.849 62.4496 129.847C62.7885 127.832 63.0623 125.787 63.488 123.773C64.194 120.435 65.1862 117.188 67.0541 114.274Z" fill="#47D8E0"/>
<path d="M66.9772 59.8923C67.0616 60.1978 67.067 60.4994 67.0646 60.8757C64.7482 61.8521 62.7101 63.0288 61.4871 65.357C59.8648 68.4456 57.1996 70.2339 53.7923 70.9498C51.5175 71.4279 49.2477 71.9312 46.9634 72.3584C46.3084 72.481 45.6108 72.3772 44.8362 72.3772C49.8238 64.5689 57.6099 61.9505 66.0922 60.3773C62.9542 60.0213 59.8162 59.6653 56.6782 59.3093C57.9924 58.1178 59.3657 59.2411 60.9225 58.895C59.3469 58.41 57.9825 57.9754 56.6097 57.57C53.6846 56.7063 50.8602 55.672 48.7275 53.3388C46.777 51.2054 45.5681 48.6819 45.0387 45.8915C44.6272 43.7226 44.5159 41.4973 44.2585 39.1828C47.6546 39.1518 50.5377 39.9209 53.1175 41.658C56.5085 43.9411 58.6816 47.1961 60.23 50.8875C61.0773 52.9072 61.7665 54.9921 62.5836 57.0252C62.8822 57.7673 63.3253 58.456 63.743 59.1442C63.8497 59.3197 64.0972 59.4784 64.3031 59.515C65.1634 59.6663 66.0326 59.7682 66.9772 59.8923Z" fill="#47D8E0"/>
<path d="M154.636 151.252C154.573 150.374 154.569 149.469 154.573 148.488C156.606 146.299 158.59 144.143 160.676 142.088C161.887 140.896 163.193 139.774 164.578 138.788C167.042 137.035 169.856 135.992 172.804 135.394C174.861 134.976 176.955 134.704 179.045 134.498C180.933 134.311 182.839 134.303 184.949 134.206C184.039 135.987 183.226 137.603 182.391 139.208C180.769 142.325 178.698 145.121 176.046 147.434C173.814 149.379 171.216 150.542 168.212 150.94C166.247 151.2 164.427 150.881 162.601 150.353C159.833 149.554 157.208 149.837 154.636 151.252Z" fill="#47D8E0"/>
<path d="M66.9966 148.39C67.0556 149.299 67.0571 150.184 67.0566 151.152C65.5141 150.326 63.7881 149.924 62.0591 149.879C60.7806 149.846 59.4684 150.235 58.2072 150.569C53.7014 151.762 49.7424 150.645 46.1617 147.852C43.1479 145.502 40.9852 142.467 39.2016 139.143C38.3565 137.569 37.579 135.958 36.8289 134.478C39.2132 134.478 41.5859 134.261 43.9028 134.526C47.9507 134.989 51.965 135.781 55.5475 137.882C56.9233 138.688 58.2955 139.571 59.4669 140.639C61.3274 142.336 63.0246 144.211 64.7774 146.025C65.5161 146.788 66.2201 147.585 66.9966 148.39Z" fill="#47D8E0"/>
<path d="M154.657 62.3811C154.539 62.1517 154.502 61.9248 154.521 61.6697C155.832 61.7705 157.093 62.0524 158.338 61.993C160.295 61.8991 162.24 61.5827 164.189 61.3473C167.517 60.9454 170.887 60.447 174.064 61.8897C175.574 62.5754 176.983 63.59 178.253 64.6703C180.892 66.9134 182.5 69.9066 183.956 73.0931C182.776 73.4501 181.611 73.8565 180.419 74.1521C177.572 74.8582 174.763 74.5665 172.046 73.5668C169.537 72.6437 167.271 71.2672 165.331 69.4181C163.75 67.9097 162.265 66.2994 160.661 64.8161C159.791 64.0102 158.845 63.1811 157.777 62.7228C156.882 62.3386 155.76 62.4771 154.657 62.3811Z" fill="#47D8E0"/>
<path d="M114.775 52.8612C111.622 52.9458 108.499 52.9695 105.296 52.9636C107.493 51.5866 108.374 49.2303 109.573 47.0777C111.631 43.3866 114.119 40.0703 118.132 38.2296C120.636 37.0812 123.224 36.5061 125.979 37.0467C127.498 37.345 129.011 37.6815 130.667 38.0302C129.354 39.0232 128.072 39.7128 127.175 40.7366C125.724 42.3928 124.409 44.1964 123.247 46.0676C121.219 49.334 118.465 51.6059 114.775 52.8612Z" fill="#47D8E0"/>
<path d="M76.3991 52.8632C74.8061 52.9631 73.2006 53.0506 71.5986 53.0095C69.7381 52.9621 68.2185 53.4466 67.2938 55.2527C66.1011 54.2584 64.8826 53.3166 63.8541 52.2012C62.6188 50.8603 62.0448 49.1461 61.4707 47.428C60.6675 45.0233 59.6961 42.6741 58.7445 40.1636C60.1501 40.4662 61.5595 40.7343 62.9502 41.076C65.9865 41.8219 68.7196 43.225 71.1407 45.162C72.898 46.568 74.2053 48.3962 75.2838 50.3634C75.7105 51.1421 76.0231 51.9826 76.3991 52.8632Z" fill="#47D8E0"/>
<path d="M154.644 165.696C154.529 164.61 154.448 163.532 154.433 162.453C154.416 161.25 154.458 160.047 154.525 158.787C157.394 158.528 159.88 159.429 162.098 161.081C164.525 162.89 166.449 165.153 168.011 167.744C168.758 168.982 169.645 170.141 170.525 171.293C170.81 171.665 171.274 171.902 171.638 172.187C170.222 172.968 168.169 173.02 166.408 172.579C163.042 171.735 160.165 169.952 157.43 167.913C156.493 167.214 155.613 166.442 154.644 165.696Z" fill="#47D8E0"/>
<path d="M66.9767 158.743C67.0626 161.008 67.0651 163.276 67.0601 165.618C66.3903 166.209 65.7161 166.713 65.0662 167.247C62.3489 169.476 59.3707 171.296 56.0362 172.403C54.0423 173.065 51.9278 173.148 49.8843 172.191C51.6892 171.269 52.5976 169.57 53.5353 167.957C54.9026 165.604 56.5879 163.567 58.6647 161.801C60.1352 160.551 61.7287 159.56 63.5872 159.097C64.6519 158.831 65.789 158.853 66.9767 158.743Z" fill="#47D8E0"/>
<path d="M146.516 52.8656C146.202 52.9576 145.907 53.0189 145.611 53.0189C141.7 53.0169 137.789 53.0065 133.81 52.9645C135.337 49.2824 137.425 46.0416 141.243 44.3351C143.293 43.4191 145.464 43.0986 147.638 43.8133C149.379 44.3858 151.059 45.1441 152.995 45.9103C150.093 47.2356 148.825 49.6791 147.229 51.815C146.987 52.1379 146.766 52.4755 146.516 52.8656Z" fill="#47D8E0"/>
<path d="M154.653 60.7956C154.539 60.6299 154.501 60.451 154.52 60.2433C155.379 59.8107 156.181 59.4068 156.983 59.0038C158.604 58.19 159.416 56.7201 160.286 55.223C162.107 52.0944 165.01 50.4183 168.502 49.7281C170.929 49.2483 173.379 48.8831 175.818 48.4602C176.042 48.4215 176.256 48.3353 176.497 48.2647C175.233 53.3967 163.037 60.3887 154.653 60.7956Z" fill="#47D8E0"/>
<path d="M98.8031 52.8592C97.5603 52.9601 96.3145 53.0199 95.0688 53.0184C92.7206 53.0155 90.3729 52.9769 87.9524 52.9373C87.6944 50.5612 87.4468 48.2037 87.3471 45.8398C87.288 44.4364 87.4627 43.0233 87.5371 41.5096C92.5331 44.095 96.9897 47.1211 98.8031 52.8592Z" fill="#47D8E0"/>
<path d="M66.9956 68.2909C67.0968 69.0686 67.1648 69.8661 67.1653 70.664C67.1667 73.3373 67.1444 76.0106 67.0164 78.7438C66.2941 78.7403 65.6853 78.677 65.0771 78.6137C65.0771 78.6137 65.0885 78.6236 65.0944 78.6276C64.3731 78.3314 63.6195 78.0793 62.9219 77.7203C60.7137 76.5837 59.1657 74.8038 58.0524 72.6219C57.7558 72.041 57.4626 71.4581 57.2656 71.07C58.5277 70.8697 59.8082 70.8079 60.9969 70.446C63.0057 69.8344 64.956 69.033 66.9956 68.2909Z" fill="#47D8E0"/>
<path d="M128.562 52.8533C126.268 52.9453 123.984 52.9695 121.631 52.9616C122.978 51.6667 124.361 50.3634 125.821 49.1532C127.035 48.1477 128.509 47.4388 129.334 45.8C130.015 48.363 129.425 50.5884 128.562 52.8533Z" fill="#47D8E0"/>
<path d="M150.42 64.1778C150.429 64.4745 150.447 64.7711 150.447 65.0678C150.448 95.667 150.448 126.266 150.448 156.866C150.448 157.184 150.448 157.502 150.448 157.842C123.989 157.842 97.6164 157.842 71.1685 157.842C71.1685 126.649 71.1685 95.494 71.2657 64.2545C78.0264 64.1704 84.6889 64.1684 91.3518 64.1694C111.041 64.1719 130.73 64.1749 150.42 64.1778ZM116.645 68.4125C103.915 68.4125 91.1861 68.412 78.457 68.413C77.0912 68.413 76.8556 68.6424 76.7901 70.0055C76.7816 70.1835 76.7846 70.3619 76.7846 70.5404C76.7846 80.62 76.7836 90.6996 76.7851 100.779C76.7856 102.281 77.0575 102.551 78.5488 102.551C100.033 102.552 121.517 102.552 143.001 102.551C144.576 102.551 144.755 102.375 144.755 100.819C144.756 90.5904 144.756 80.3624 144.755 70.134C144.755 68.5588 144.605 68.4125 142.999 68.4125C134.274 68.412 125.549 68.4125 116.645 68.4125ZM110.547 131.101C99.8236 131.101 89.0999 131.1 78.3762 131.101C77.0327 131.102 76.7672 131.298 76.7658 132.417C76.7563 139.67 76.7573 146.922 76.7648 154.175C76.7658 155.176 76.9746 155.362 77.9882 155.362C91.012 155.364 104.036 155.357 117.059 155.378C117.922 155.379 118.198 155.101 118.195 154.248C118.169 146.935 118.181 139.623 118.179 132.311C118.178 131.239 118.032 131.104 116.91 131.102C114.849 131.098 112.788 131.101 110.547 131.101ZM102.053 110.415C101.988 111.986 102.527 112.703 103.837 112.703C116.865 112.709 129.893 112.709 142.921 112.703C144.054 112.703 144.691 112.047 144.711 110.93C144.733 109.731 143.914 108.961 142.592 108.961C129.832 108.959 117.073 108.963 104.314 108.953C103.282 108.952 102.525 109.321 102.053 110.415ZM78.3216 116.439C77.0406 116.96 76.5862 117.711 76.9429 118.719C77.1924 119.425 78.1589 120.02 79.1124 120.021C89.7409 120.024 100.37 120.026 110.999 120.012C111.404 120.011 111.837 119.916 112.208 119.753C112.893 119.453 113.357 118.998 113.35 118.131C113.343 117.259 112.861 116.812 112.171 116.536C111.743 116.364 111.247 116.287 110.781 116.286C100.332 116.273 89.8818 116.275 79.4319 116.281C79.1094 116.281 78.7865 116.356 78.3216 116.439ZM129.198 120.023C133.679 120.023 138.16 120.027 142.641 120.021C144.06 120.019 144.71 119.419 144.711 118.155C144.712 116.913 144.024 116.279 142.634 116.278C134.15 116.274 125.666 116.274 117.182 116.278C115.794 116.279 115.114 116.918 115.119 118.169C115.123 119.434 115.776 120.022 117.188 120.022C121.132 120.024 125.075 120.023 129.198 120.023ZM97.9939 127.339C105.163 127.339 112.331 127.341 119.5 127.338C120.7 127.337 121.569 126.547 121.576 125.479C121.582 124.407 120.716 123.595 119.528 123.594C110.955 123.59 102.383 123.59 93.8096 123.595C92.7067 123.595 91.8226 124.436 91.8127 125.452C91.8033 126.467 92.6869 127.326 93.7823 127.336C95.1263 127.349 96.4708 127.339 97.9939 127.339ZM144.52 147.161C145.036 145.665 144.547 144.732 143.032 144.367C142.747 144.299 142.441 144.296 142.145 144.296C135.488 144.292 128.832 144.29 122.175 144.299C121.794 144.299 121.4 144.348 121.035 144.455C120.107 144.726 119.503 145.602 119.611 146.448C119.718 147.29 120.625 148.036 121.59 148.037C128.635 148.042 135.68 148.057 142.724 148.007C143.3 148.002 143.872 147.535 144.52 147.161ZM143.221 134.634C144.44 134.102 144.896 133.39 144.702 132.325C144.56 131.541 143.573 130.909 142.482 130.909C135.639 130.908 128.795 130.899 121.952 130.927C121.417 130.929 120.801 131.07 120.367 131.36C119.67 131.824 119.432 132.557 119.753 133.401C120.05 134.179 120.793 134.653 121.82 134.653C128.903 134.656 135.985 134.652 143.221 134.634ZM120.555 137.763C119.448 138.765 119.228 139.766 120.156 140.559C120.662 140.991 121.501 141.223 122.192 141.228C128.645 141.277 135.098 141.257 141.552 141.257C141.91 141.257 142.27 141.277 142.627 141.25C143.964 141.152 144.752 140.361 144.71 139.182C144.672 138.09 143.919 137.512 142.516 137.511C135.614 137.509 128.713 137.507 121.811 137.518C121.434 137.519 121.057 137.632 120.555 137.763ZM99.7095 109.789C99.1672 109.513 98.6275 109.001 98.0832 108.996C91.6971 108.941 85.31 108.949 78.9239 108.976C78.1817 108.979 77.439 109.181 77.05 109.962C76.3287 111.411 77.2296 112.702 78.9953 112.704C85.2624 112.711 91.5299 112.708 97.7969 112.706C99.586 112.706 100.378 111.588 99.7095 109.789ZM140.495 127.339C141.271 127.339 142.048 127.356 142.824 127.335C144.058 127.302 144.714 126.634 144.711 125.451C144.708 124.277 144.044 123.6 142.795 123.598C136.972 123.586 131.15 123.587 125.327 123.606C124.963 123.607 124.546 123.723 124.247 123.924C123.519 124.414 123.174 125.118 123.438 126.006C123.663 126.762 124.494 127.336 125.357 127.337C130.343 127.342 135.33 127.339 140.495 127.339ZM140.321 151.482C139.809 150.829 139.148 150.531 138.306 150.533C132.815 150.544 127.323 150.535 121.831 150.541C120.511 150.542 119.622 151.329 119.606 152.471C119.591 153.491 120.551 154.284 121.813 154.285C127.335 154.286 132.857 154.287 138.378 154.284C140.099 154.283 140.881 153.232 140.321 151.482ZM89.3306 123.969C88.8786 123.843 88.4281 123.614 87.9757 123.609C84.9588 123.577 81.9418 123.586 78.9249 123.595C77.7084 123.599 76.8149 124.379 76.7762 125.427C76.737 126.483 77.6796 127.332 78.9373 127.336C81.9542 127.346 84.9707 127.342 87.9876 127.338C88.8533 127.336 89.5658 127.049 89.9463 126.207C90.3283 125.361 90.0758 124.658 89.3306 123.969Z" fill="white"/>
<path d="M150.433 64.0948C130.731 64.1749 111.041 64.1719 91.3518 64.1694C84.6894 64.1684 78.0264 64.1704 71.2806 64.1724C71.1973 63.3462 71.1973 62.5186 71.1973 61.6306C97.5886 61.6306 123.966 61.6306 150.445 61.6306C150.445 62.4301 150.445 63.2211 150.433 64.0948Z" fill="#CCCCCC"/>
<path d="M113.882 166.028C112.768 168.005 111.133 168.819 108.938 168.561C107.443 168.384 105.858 167.009 105.381 165.427C104.653 163.017 105.999 160.487 108.395 159.763C110.814 159.031 113.464 160.338 114.046 162.757C114.286 163.759 113.972 164.892 113.882 166.028Z" fill="#464646"/>
<path d="M111.682 56.5752C111.714 57.0973 111.853 57.654 111.646 58.0155C111.364 58.5084 110.697 58.6646 110.269 58.2172C109.991 57.9274 109.833 57.3292 109.921 56.9352C110.041 56.3967 110.522 56.067 111.163 56.2939C111.327 56.3518 111.478 56.4462 111.682 56.5752Z" fill="#454545"/>
<path d="M158.244 80.6675C158.16 80.6121 158.114 80.5266 158.068 80.4416C158.15 80.4524 158.232 80.4628 158.333 80.5226C158.329 80.5933 158.305 80.6156 158.244 80.6675Z" fill="black"/>
<path d="M116.734 68.4125C125.549 68.4125 134.274 68.412 143 68.4125C144.606 68.413 144.755 68.5588 144.755 70.134C144.756 80.3624 144.756 90.5909 144.755 100.819C144.755 102.375 144.576 102.551 143.002 102.551C121.518 102.552 100.033 102.552 78.5488 102.551C77.0575 102.551 76.7861 102.281 76.7856 100.779C76.7841 90.6996 76.7846 80.62 76.7851 70.5404C76.7851 70.362 76.7816 70.1835 76.7901 70.0055C76.8555 68.6424 77.0917 68.4135 78.4575 68.413C91.1866 68.412 103.916 68.4125 116.734 68.4125ZM103.105 81.2198C100.708 85.4243 102.262 90.7318 106.482 93.148C110.775 95.6047 116.232 93.8056 118.416 89.9056C120.827 85.6027 119.422 80.2146 115.22 77.8736C111.274 75.6744 105.577 76.6662 103.105 81.2198Z" fill="#969696"/>
<path d="M110.637 131.101C112.788 131.101 114.849 131.098 116.91 131.102C118.032 131.104 118.178 131.239 118.179 132.311C118.182 139.623 118.169 146.935 118.195 154.248C118.198 155.101 117.923 155.379 117.06 155.378C104.036 155.357 91.0125 155.364 77.9882 155.362C76.9746 155.362 76.7663 155.176 76.7653 154.175C76.7578 146.922 76.7563 139.67 76.7663 132.417C76.7677 131.298 77.0332 131.102 78.3762 131.101C89.0999 131.1 99.8236 131.101 110.637 131.101Z" fill="#C8C8C8"/>
<path d="M102.074 110.346C102.525 109.321 103.283 108.952 104.315 108.953C117.073 108.963 129.833 108.959 142.592 108.961C143.915 108.961 144.733 109.731 144.711 110.93C144.691 112.047 144.054 112.703 142.921 112.703C129.894 112.709 116.865 112.709 103.838 112.703C102.527 112.703 101.988 111.986 102.074 110.346Z" fill="#EFEFEF"/>
<path d="M78.3931 116.418C78.787 116.357 79.11 116.281 79.4324 116.281C89.8823 116.275 100.332 116.273 110.782 116.286C111.247 116.287 111.743 116.364 112.172 116.536C112.861 116.812 113.343 117.259 113.35 118.131C113.357 118.998 112.894 119.453 112.208 119.753C111.837 119.916 111.404 120.011 110.999 120.012C100.37 120.026 89.7414 120.024 79.1124 120.021C78.1594 120.02 77.1929 119.425 76.9434 118.719C76.5867 117.711 77.0411 116.96 78.3931 116.418Z" fill="#EFEFEF"/>
<path d="M129.108 120.023C125.075 120.023 121.132 120.024 117.189 120.022C115.776 120.022 115.124 119.434 115.119 118.169C115.115 116.918 115.795 116.279 117.182 116.278C125.666 116.274 134.15 116.274 142.634 116.278C144.024 116.279 144.712 116.913 144.711 118.155C144.71 119.419 144.06 120.019 142.641 120.021C138.16 120.027 133.679 120.023 129.108 120.023Z" fill="#EFEFEF"/>
<path d="M97.9046 127.339C96.4708 127.339 95.1263 127.349 93.7823 127.336C92.6874 127.326 91.8033 126.467 91.8132 125.452C91.8226 124.436 92.7067 123.595 93.8101 123.595C102.383 123.59 110.955 123.59 119.528 123.594C120.716 123.595 121.582 124.407 121.576 125.479C121.569 126.547 120.701 127.337 119.5 127.338C112.332 127.341 105.163 127.339 97.9046 127.339Z" fill="#EFEFEF"/>
<path d="M144.483 147.222C143.873 147.535 143.3 148.002 142.724 148.007C135.68 148.057 128.635 148.042 121.59 148.036C120.625 148.036 119.718 147.29 119.611 146.447C119.504 145.602 120.108 144.726 121.035 144.455C121.4 144.348 121.794 144.3 122.175 144.299C128.832 144.29 135.488 144.292 142.145 144.296C142.441 144.296 142.747 144.299 143.032 144.367C144.547 144.732 145.036 145.665 144.483 147.222Z" fill="#EFEFEF"/>
<path d="M143.145 134.642C135.986 134.652 128.903 134.655 121.82 134.654C120.793 134.653 120.05 134.179 119.753 133.401C119.432 132.557 119.671 131.824 120.367 131.36C120.801 131.07 121.417 130.929 121.952 130.927C128.795 130.899 135.639 130.908 142.482 130.909C143.574 130.909 144.56 131.541 144.702 132.324C144.897 133.39 144.44 134.102 143.145 134.642Z" fill="#EFEFEF"/>
<path d="M120.617 137.728C121.057 137.632 121.434 137.519 121.811 137.518C128.713 137.507 135.614 137.509 142.516 137.511C143.919 137.512 144.672 138.09 144.71 139.182C144.752 140.361 143.964 141.152 142.627 141.25C142.27 141.277 141.91 141.257 141.552 141.257C135.099 141.257 128.645 141.277 122.192 141.228C121.501 141.223 120.662 140.991 120.156 140.559C119.228 139.766 119.448 138.765 120.617 137.728Z" fill="#EFEFEF"/>
<path d="M99.7502 109.845C100.378 111.588 99.5865 112.706 97.7974 112.706C91.5304 112.708 85.2629 112.711 78.9953 112.704C77.2296 112.702 76.3287 111.411 77.05 109.962C77.439 109.181 78.1822 108.979 78.9239 108.976C85.3105 108.949 91.6976 108.941 98.0837 108.996C98.6279 109.001 99.1677 109.513 99.7502 109.845Z" fill="#EFEFEF"/>
<path d="M140.406 127.339C135.33 127.339 130.343 127.342 125.357 127.337C124.495 127.336 123.663 126.762 123.439 126.006C123.175 125.118 123.52 124.414 124.247 123.924C124.546 123.724 124.964 123.607 125.328 123.606C131.15 123.587 136.972 123.585 142.795 123.598C144.044 123.6 144.708 124.277 144.711 125.451C144.714 126.634 144.058 127.302 142.824 127.335C142.048 127.356 141.272 127.339 140.406 127.339Z" fill="#EFEFEF"/>
<path d="M140.351 151.545C140.882 153.232 140.1 154.284 138.378 154.284C132.857 154.287 127.335 154.286 121.813 154.285C120.551 154.284 119.592 153.491 119.606 152.471C119.623 151.329 120.511 150.542 121.831 150.541C127.323 150.535 132.815 150.544 138.307 150.533C139.148 150.531 139.81 150.829 140.351 151.545Z" fill="#EFEFEF"/>
<path d="M89.3891 124.005C90.0758 124.658 90.3283 125.361 89.9463 126.207C89.5658 127.049 88.8538 127.336 87.9881 127.338C84.9711 127.342 81.9542 127.346 78.9373 127.336C77.6796 127.332 76.737 126.483 76.7762 125.427C76.8149 124.379 77.7089 123.599 78.9254 123.595C81.9418 123.586 84.9592 123.577 87.9757 123.609C88.4286 123.614 88.8791 123.843 89.3891 124.005Z" fill="#EFEFEF"/>
<path d="M103.138 81.1629C105.577 76.6662 111.275 75.6744 115.22 77.8736C119.422 80.2146 120.827 85.6027 118.416 89.9056C116.232 93.8056 110.775 95.6047 106.483 93.148C102.262 90.7318 100.709 85.4243 103.138 81.1629ZM111.416 87.1636C112.196 86.6445 112.975 86.1258 113.775 85.5933C113.613 85.3595 113.568 85.2329 113.478 85.1726C111.868 84.0953 110.267 83.0036 108.632 81.9653C108.001 81.5649 107.949 82.0746 107.948 82.5329C107.946 84.5234 107.943 86.5144 107.954 88.5049C107.955 88.7161 108.041 88.9272 108.13 89.3232C109.28 88.5658 110.293 87.8983 111.416 87.1636Z" fill="#FEFEFE"/>
<path d="M111.361 87.1972C110.293 87.8983 109.28 88.5653 108.13 89.3227C108.041 88.9267 107.955 88.7161 107.954 88.5049C107.943 86.5139 107.946 84.5234 107.948 82.5324C107.949 82.0746 108.001 81.5644 108.632 81.9653C110.267 83.0036 111.868 84.0953 113.478 85.1726C113.568 85.2329 113.613 85.3595 113.775 85.5933C112.975 86.1258 112.196 86.6445 111.361 87.1972Z" fill="#979797"/>
</svg>
