<svg width="224" height="169" viewBox="0 0 224 169" fill="none" xmlns="http://www.w3.org/2000/svg">
<path d="M36.9012 25.5785H187.099C193.226 25.5785 198.199 30.5426 198.199 36.6591V132.569H25.8014V36.6591C25.8014 30.5426 30.7741 25.5785 36.9012 25.5785Z" fill="#28292D"/>
<path d="M25.5394 132.569L0.134188 162.056C0.072029 162.225 -0.141087 162.85 0.147508 163.506C0.467182 164.237 1.27081 164.702 2.17211 164.671H221.899C222.716 164.76 223.493 164.339 223.831 163.634C224.11 163.04 224.039 162.327 223.649 161.768C215.08 152.035 206.511 142.306 197.937 132.573H25.5394V132.569Z" fill="#EAEAEB"/>
<path d="M135.134 155.146H86.7792C85.5532 155.146 84.5593 156.139 84.5593 157.363V159.517C84.5593 160.741 85.5532 161.733 86.7792 161.733H135.134C136.36 161.733 137.354 160.741 137.354 159.517V157.363C137.354 156.139 136.36 155.146 135.134 155.146Z" fill="#C8CECC"/>
<path d="M32.8209 134.749L18.8263 152.713L205.174 152.749L191.668 134.749H32.8209Z" fill="#CACFCD"/>
<path d="M36.2929 135.946L35.3339 137.267H45.5546L46.4381 135.946H36.2929Z" fill="#28292D"/>
<path d="M34.81 137.825H45.195L44.0717 139.629H33.5668L34.81 137.825Z" fill="#28292D"/>
<path d="M32.5678 140.427H49.4839L48.3606 142.47L31.4845 142.231L32.5678 140.427Z" fill="#28292D"/>
<path d="M30.7208 143.148L29.3178 145.192L54.4566 145.351L56.0594 143.148H30.7208Z" fill="#28292D"/>
<path d="M28.7584 145.874H58.9853L57.8665 148.392L26.9113 148.232L28.7584 145.874Z" fill="#28292D"/>
<path d="M26.4718 148.915H37.7359L36.213 151.596H24.5493L26.4718 148.915Z" fill="#28292D"/>
<path d="M49.0044 137.426L47.7213 139.629H58.1462L59.3894 137.426H49.0044Z" fill="#28292D"/>
<path d="M53.1335 140.427H63.8781L62.9147 142.47H51.9303L53.1335 140.427Z" fill="#28292D"/>
<path d="M41.1457 148.915H52.5741L51.0468 151.596H39.3831L41.1457 148.915Z" fill="#28292D"/>
<path d="M64.0779 135.946H74.0234L72.7003 137.267H63.1944L64.0779 135.946Z" fill="#28292D"/>
<path d="M61.9157 137.825H72.2962L71.6569 139.629H60.9922L61.9157 137.825Z" fill="#28292D"/>
<path d="M66.4044 140.427H77.2689L76.5452 142.47L65.6408 142.191L66.4044 140.427Z" fill="#28292D"/>
<path d="M59.3894 143.148H70.8932L69.8498 145.351H58.386L59.3894 143.148Z" fill="#28292D"/>
<path d="M63.1944 145.67H74.0234L73.0599 148.392H61.7115L63.1944 145.67Z" fill="#28292D"/>
<path d="M55.8596 148.915H67.0438L65.8006 151.596H54.057L55.8596 148.915Z" fill="#28292D"/>
<path d="M76.9226 135.946H86.9213L86.1266 137.267H76.0702L76.9226 135.946Z" fill="#28292D"/>
<path d="M89.5941 135.946H99.8193L99.0245 137.426L88.8527 137.267L89.5941 135.946Z" fill="#28292D"/>
<path d="M107.66 135.946H118.116L117.663 137.267H107.323L107.66 135.946Z" fill="#28292D"/>
<path d="M130.961 135.946H120.505L120.221 137.267H130.446L130.961 135.946Z" fill="#28292D"/>
<path d="M133.825 135.866L133.483 137.267H143.535L143.739 135.866H133.825Z" fill="#28292D"/>
<path d="M152.002 135.866L162.071 135.946L161.778 137.267H151.531L152.002 135.866Z" fill="#28292D"/>
<path d="M165.135 135.866H175.085L174.672 137.267H164.544L165.135 135.866Z" fill="#28292D"/>
<path d="M178.028 135.866H187.801L188.156 137.267H177.673L178.028 135.866Z" fill="#28292D"/>
<path d="M167.537 150.222H176.887L177.167 151.8H167.959L167.537 150.222Z" fill="#28292D"/>
<path d="M178.286 150.222H187.636L188.156 151.8H178.748L178.286 150.222Z" fill="#28292D"/>
<path d="M189.448 150.222H198.568L198.94 151.477H189.914L189.448 150.222Z" fill="#28292D"/>
<path d="M177.673 148.689H186.566L186.891 149.987L178.144 149.899L177.673 148.689Z" fill="#28292D"/>
<path d="M196.441 148.272L194.918 145.657H176.972L178.286 148.272H196.441Z" fill="#28292D"/>
<path d="M194.194 145.267L192.884 143.042H171.187L172.354 145.267H194.194Z" fill="#28292D"/>
<path d="M192.023 142.302L190.851 140.272H175.085L176.27 142.302H192.023Z" fill="#28292D"/>
<path d="M189.954 139.532L188.897 137.737H167.746L168.607 139.532H189.954Z" fill="#28292D"/>
<path d="M153.751 137.737H164.544L165.166 139.532H154.417L153.751 137.737Z" fill="#28292D"/>
<path d="M160.939 140.387H171.728L172.354 142.187H161.601L160.939 140.387Z" fill="#28292D"/>
<path d="M162.547 146.069H173.34L173.962 147.864H163.212L162.547 146.069Z" fill="#28292D"/>
<path d="M156.526 143.228H167.319L167.941 145.023H157.192L156.526 143.228Z" fill="#28292D"/>
<path d="M140.422 137.737H151.211L151.837 139.532H141.088L140.422 137.737Z" fill="#28292D"/>
<path d="M147.34 140.507H158.133L158.755 142.302H148.006L147.34 140.507Z" fill="#28292D"/>
<path d="M148.357 146.069H159.15L159.772 147.864H149.022L148.357 146.069Z" fill="#28292D"/>
<path d="M153.049 149.323H163.839L164.465 151.118H153.715L153.049 149.323Z" fill="#28292D"/>
<path d="M142.807 143.286H153.6L154.222 145.081H143.473L142.807 143.286Z" fill="#28292D"/>
<path d="M70.1562 149.323L149.173 148.955L149.839 151.118H69.3259L70.1562 149.323Z" fill="#28292D"/>
<path d="M75.0578 137.825H85.3895L84.7458 139.629L74.3608 139.412L75.0578 137.825Z" fill="#28292D"/>
<path d="M79.8752 140.427H90.7974L90.1536 142.47H79.3912L79.8752 140.427Z" fill="#28292D"/>
<path d="M73.6637 143.148H84.5859L83.8889 145.351L72.8601 145.134L73.6637 143.148Z" fill="#28292D"/>
<path d="M77.2689 145.67H88.4398L87.6894 148.392H76.0702L77.2689 145.67Z" fill="#28292D"/>
<path d="M88.0135 137.737L98.4917 137.825L98.2387 139.629L87.6983 139.532L88.0135 137.737Z" fill="#28292D"/>
<path d="M101.462 137.737H111.812L111.558 139.629L101.08 139.532L101.462 137.737Z" fill="#28292D"/>
<path d="M114.462 137.737L124.878 137.825V139.629H114.462V137.737Z" fill="#28292D"/>
<path d="M138.069 137.825H127.653V139.625H138.069V137.825Z" fill="#28292D"/>
<path d="M144.631 140.427H134.029L134.344 142.302H145.138L144.631 140.427Z" fill="#28292D"/>
<path d="M139.836 143.148H129.043V145.081L140.422 145.351L139.836 143.148Z" fill="#28292D"/>
<path d="M133.776 146.069H145.138L145.453 148.392H134.029L133.776 146.069Z" fill="#28292D"/>
<path d="M120.647 140.427H130.961L131.316 142.302H120.9L120.647 140.427Z" fill="#28292D"/>
<path d="M115.284 143.148H125.984V145.081L115.284 145.351V143.148Z" fill="#28292D"/>
<path d="M130.961 146.069H119.67V148.396H130.961V146.069Z" fill="#28292D"/>
<path d="M106.95 140.427H117.81V142.302L106.95 142.47V140.427Z" fill="#28292D"/>
<path d="M112.242 143.148H101.08V145.351H112.242V143.148Z" fill="#28292D"/>
<path d="M116.669 146.069H105.245V148.396H116.669V146.069Z" fill="#28292D"/>
<path d="M93.0972 140.427H104.113V142.302L93.0972 142.47V140.427Z" fill="#28292D"/>
<path d="M87.4452 143.148H98.3053L97.99 145.351H86.9213L87.4452 143.148Z" fill="#28292D"/>
<path d="M91.1703 146.069L102.408 145.874L102.155 148.392H90.7974L91.1703 146.069Z" fill="#28292D"/>
<path d="M42.9572 31.8679H182.482C188.609 31.8679 193.582 36.832 193.582 42.9486V126.492H31.8574V42.9486C31.8574 36.832 36.8301 31.8679 42.9572 31.8679Z" fill="#5FC8D4"/>
<path d="M1.55496 164.68H222.552C221.429 165.465 220.061 166.276 218.45 166.985C214.325 168.789 210.52 169.051 208.038 168.993H15.4075C13.2897 168.754 10.7056 168.288 7.85965 167.366C5.37329 166.56 3.26433 165.598 1.55496 164.685V164.68Z" fill="#28292D"/>
<path d="M95.6502 65.9297C94.3893 64.2854 92.2759 63.6028 90.4288 64.2144C88.1068 64.9812 87.4541 67.3746 87.4097 67.5386C90.2734 73.2296 93.4968 79.1866 97.1198 85.3386C100.707 91.4285 104.326 97.084 107.878 102.301C110.071 103.892 112.966 104.109 115.288 102.855C117.881 101.459 119.315 98.4713 118.791 95.4707C116.913 92.6872 100.512 72.2767 95.6458 65.9297H95.6502Z" fill="#595A5C"/>
<path d="M113.108 103.63C110.231 103.923 107.469 102.363 106.253 99.7611C105.01 97.1062 105.636 93.9238 107.798 91.916C114.671 87.7763 121.548 83.6366 128.421 79.4969C128.732 79.457 132.146 79.0669 134.566 81.7085C136.768 84.1153 136.369 87.1026 136.311 87.4971C133.842 89.9924 130.828 92.7005 127.214 95.3687C122.121 99.1229 117.228 101.764 113.112 103.626L113.108 103.63Z" fill="#595A5C"/>
<path d="M131.498 90.2761C128.55 90.2362 126.086 88.1575 125.611 85.4671C125.207 83.1845 126.299 80.8 128.377 79.488C133.483 78.473 138.589 77.4581 143.699 76.4431C143.992 76.3854 144.179 76.4431 144.294 76.5051C144.862 76.8198 144.982 78.0077 144.503 79.4614C144.276 80.113 143.996 80.7645 143.655 81.4116C140.631 87.1647 134.473 89.4251 131.507 90.2761H131.498Z" fill="#595A5C"/>
<path d="M65.1657 70.5658C66.1159 68.722 65.8273 66.528 64.4864 65.123C62.7992 63.3546 60.3528 63.7889 60.1841 63.8244C56.2592 68.8417 52.2455 74.3022 48.2274 80.206C44.2492 86.0521 40.6795 91.7343 37.4739 97.1726C36.9767 99.832 38.0156 102.536 40.1423 104.096C42.5177 105.838 45.8343 105.851 48.3295 104.096C50.0433 101.21 61.5028 77.6752 65.1657 70.5703V70.5658Z" fill="#595A5C"/>
<path d="M59.5048 63.2704C60.193 62.3751 66.4089 54.5433 77.1846 54.5699C87.8937 54.5965 94.0607 62.3574 94.7578 63.266C97.959 72.4762 101.098 83.938 102.963 97.3012C104.486 108.222 104.828 118.08 104.614 126.488C94.8244 126.523 85.0343 126.541 75.2399 126.541C66.6398 126.541 58.0396 126.523 49.4439 126.488C49.1864 117.845 49.5283 107.469 51.2732 95.8785C53.209 83.0117 56.3569 72.0285 59.5092 63.266L59.5048 63.2704Z" fill="#595A5C"/>
<path d="M59.5048 63.2704C59.2517 63.1995 56.1971 72.3122 53.8128 82.5596C52.7295 87.2267 51.8992 91.6856 51.2688 95.8785C50.0789 103.781 49.7325 109.862 49.6304 111.972C49.2752 119.05 49.3907 126.488 49.6349 126.492C49.9634 126.501 49.5239 113.293 51.9658 96.3528C54.763 76.9616 59.8023 63.3502 59.5048 63.266V63.2704Z" fill="#818285"/>
<path d="M94.8333 63.4743C95.0863 63.4034 97.8924 72.1748 100.277 82.4222C101.36 87.0893 102.19 91.5482 102.821 95.7411C104.002 103.573 104.348 109.614 104.459 111.835C104.819 119.002 104.703 126.488 104.459 126.492C104.13 126.501 104.566 113.306 102.124 96.2153C99.3931 77.1168 94.5536 63.5496 94.8333 63.4698V63.4743Z" fill="#818285"/>
<path d="M57.973 79.0581H78.3789V108.914H57.973C56.7476 108.914 55.7531 107.921 55.7531 106.698V81.2742C55.7531 80.0509 56.7476 79.0581 57.973 79.0581Z" fill="#817DBB"/>
<path d="M59.2073 80.246V106.817" stroke="#5056A5" stroke-width="2" stroke-miterlimit="10"/>
<path d="M41.088 105.98C38.4019 104.907 36.6792 102.252 36.8035 99.3844C36.9322 96.4591 38.9613 93.9239 41.8073 93.1393C49.8213 92.6429 57.8354 92.151 65.845 91.6545C66.138 91.7609 69.3481 92.9931 70.2672 96.4547C71.1019 99.606 69.3659 102.07 69.1306 102.394C65.7873 103.466 61.858 104.477 57.418 105.168C51.1622 106.148 45.6034 106.228 41.088 105.975V105.98Z" fill="#595A5C"/>
<path d="M69.1306 102.394C66.1825 102.394 63.6872 100.355 63.1722 97.6735C62.7326 95.3954 63.7938 92.9975 65.8495 91.6545C70.942 90.5642 76.0302 89.4694 81.1228 88.3791C81.4158 88.317 81.6023 88.3702 81.7177 88.4323C82.2905 88.7381 82.4281 89.926 81.9708 91.3842C81.7533 92.0401 81.4824 92.6961 81.1539 93.3477C78.2191 99.145 72.092 101.499 69.1394 102.394H69.1306Z" fill="#595A5C"/>
<path d="M53.4798 92.4213C57.6001 92.1687 61.7248 91.9116 65.845 91.659C63.7716 91.5659 61.4539 91.5704 58.9365 91.7565C56.9696 91.9028 55.1448 92.1377 53.4798 92.4213Z" fill="#818285"/>
<path d="M55.7531 105.412C56.7077 105.266 58.0707 105.04 59.7002 104.725C62.6394 104.158 65.2723 103.653 68.3847 102.629C69.8765 102.137 71.9011 101.388 74.2454 100.258C72.0298 101.45 69.1528 102.753 65.663 103.759C61.8358 104.863 58.4215 105.279 55.7531 105.412Z" fill="#818285"/>
<path d="M79.1559 88.8046C79.551 88.7204 79.8752 88.6495 80.0883 88.6052C81.3048 88.3481 81.5002 88.3127 81.7088 88.4368C82.1262 88.6894 82.2017 89.3365 82.2283 89.5537C82.2549 89.7975 82.2327 90.0102 82.2061 90.2628C82.1928 90.4091 82.1573 90.6617 82.0596 91.0474C81.9708 91.3842 81.8287 91.8585 81.5712 92.4214C81.9175 91.9161 82.3571 91.0961 82.3659 90.059C82.3659 89.7709 82.3837 88.5254 81.7577 88.2462C81.5623 88.162 81.2826 88.2329 80.7187 88.3836C80.4257 88.4634 79.8929 88.6052 79.147 88.8046H79.1559Z" fill="#818285"/>
<path d="M77.0158 68.1415C95.8651 68.1415 111.146 52.8875 111.146 34.0707C111.146 15.254 95.8651 0 77.0158 0C58.1665 0 42.8862 15.254 42.8862 34.0707C42.8862 52.8875 58.1665 68.1415 77.0158 68.1415Z" fill="#595A5C"/>
<path d="M65.9294 66.2888C65.9294 66.2888 77.0647 71.3992 88.1955 66.2888C88.1955 66.2888 77.0602 70.433 65.9294 66.2888Z" fill="#818285"/>
<path d="M65.6541 51.1349C65.6541 51.1349 74.5295 54.1355 88.2266 51.1349C88.2266 51.1349 83.0142 59.2991 76.9404 59.1528C76.9404 59.1528 70.2805 59.3346 65.6541 51.1349Z" fill="white"/>
<path d="M63.7005 43.5955C63.7005 43.5955 64.8238 43.4005 66.0492 43.5955L65.3611 43.0282C65.3611 43.0282 63.9048 43.1966 63.7005 43.5955Z" fill="#60C8D4"/>
<path d="M57.8887 30.7022C57.8887 30.7022 58.2128 32.1515 61.7647 33.4856C61.7647 33.4856 63.9447 34.4917 64.8327 30.0196C64.8327 30.0196 61.5605 30.2634 58.0485 26.7131C58.0485 26.7131 57.9464 29.3149 62.7948 31.3094C62.7948 31.3094 63.0789 31.5532 62.7726 31.7304C62.7726 31.7304 59.9843 32.1116 57.8887 30.7022Z" fill="#60C8D4"/>
<path d="M66.178 43.5956C68.6546 43.5956 70.6623 40.4622 70.6623 36.597C70.6623 32.7319 68.6546 29.5985 66.178 29.5985C63.7014 29.5985 61.6937 32.7319 61.6937 36.597C61.6937 40.4622 63.7014 43.5956 66.178 43.5956Z" fill="white"/>
<path d="M96.3384 30.7022C96.3384 30.7022 96.0143 32.1515 92.4623 33.4856C92.4623 33.4856 90.2823 34.4917 89.3943 30.0196C89.3943 30.0196 92.6666 30.2634 96.1785 26.7131C96.1785 26.7131 96.2807 29.3149 91.4323 31.3094C91.4323 31.3094 91.1481 31.5532 91.4545 31.7304C91.4545 31.7304 94.2427 32.1116 96.3384 30.7022Z" fill="#60C8D4"/>
<path d="M90.713 43.5955C90.713 43.5955 89.5897 43.4005 88.3643 43.5955L89.0525 43.0282C89.0525 43.0282 90.5088 43.1966 90.713 43.5955Z" fill="#60C8D4"/>
<path d="M88.049 43.5956C90.5257 43.5956 92.5334 40.4622 92.5334 36.597C92.5334 32.7319 90.5257 29.5985 88.049 29.5985C85.5724 29.5985 83.5647 32.7319 83.5647 36.597C83.5647 40.4622 85.5724 43.5956 88.049 43.5956Z" fill="white"/>
<path d="M66.2712 43.5955C68.2133 43.5955 69.7877 41.0892 69.7877 37.9976C69.7877 34.9059 68.2133 32.3997 66.2712 32.3997C64.3292 32.3997 62.7548 34.9059 62.7548 37.9976C62.7548 41.0892 64.3292 43.5955 66.2712 43.5955Z" fill="#231F20"/>
<path d="M64.1578 35.1831C64.6507 35.1831 65.0503 34.56 65.0503 33.7914C65.0503 33.0228 64.6507 32.3997 64.1578 32.3997C63.665 32.3997 63.2654 33.0228 63.2654 33.7914C63.2654 34.56 63.665 35.1831 64.1578 35.1831Z" fill="white"/>
<path d="M88.0269 43.5955C89.9959 43.5955 91.5921 41.0892 91.5921 37.9976C91.5921 34.9059 89.9959 32.3997 88.0269 32.3997C86.0578 32.3997 84.4616 34.9059 84.4616 37.9976C84.4616 41.0892 86.0578 43.5955 88.0269 43.5955Z" fill="#231F20"/>
<path d="M86.1577 35.1831C86.6505 35.1831 87.0501 34.56 87.0501 33.7914C87.0501 33.0228 86.6505 32.3997 86.1577 32.3997C85.6648 32.3997 85.2652 33.0228 85.2652 33.7914C85.2652 34.56 85.6648 35.1831 86.1577 35.1831Z" fill="white"/>
<path opacity="0.57" d="M62.0311 49.1581C64.3189 49.1581 66.1736 48.6699 66.1736 48.0678C66.1736 47.4656 64.3189 46.9774 62.0311 46.9774C59.7433 46.9774 57.8887 47.4656 57.8887 48.0678C57.8887 48.6699 59.7433 49.1581 62.0311 49.1581Z" fill="#F7B1C4"/>
<path opacity="0.57" d="M93.2304 49.1581C95.5182 49.1581 97.3729 48.6699 97.3729 48.0678C97.3729 47.4656 95.5182 46.9774 93.2304 46.9774C90.9426 46.9774 89.088 47.4656 89.088 48.0678C89.088 48.6699 90.9426 49.1581 93.2304 49.1581Z" fill="#F7B1C4"/>
</svg>
