<svg width="185" height="168" viewBox="0 0 185 168" fill="none" xmlns="http://www.w3.org/2000/svg">
<g clip-path="url(#clip0_358_2286)">
<path d="M83.7851 167.816C130.058 167.816 167.57 130.249 167.57 83.9079C167.57 37.5668 130.058 0 83.7851 0C37.5119 0 0 37.5668 0 83.9079C0 130.249 37.5119 167.816 83.7851 167.816Z" fill="#6DEEBB"/>
<path d="M60.0968 89.9548C58.9983 78.971 61.3745 69.0093 68.6528 60.5323C81.8855 45.1196 106.019 44.4889 120.035 59.1831C120.649 59.8268 121.089 60.6396 121.727 61.5361C122.725 60.5883 123.284 60.0749 123.824 59.5416C133.894 49.5973 145.813 46.1038 159.331 50.0758C172.165 53.8469 180.471 62.7938 183.513 75.8606C186.277 87.7316 183.947 99.1472 177.274 109.724C171.168 109.775 165.516 109.787 159.864 109.75C156.053 109.724 151.795 110.947 149.892 105.833C148.072 107.245 146.611 108.378 145.054 109.586C143.105 106.697 141.345 104.089 139.276 101.022C137.286 106.555 135.48 111.577 133.45 117.218C131.205 103.99 129.074 91.425 126.941 78.8595C123.563 88.3743 120.675 97.8173 117.963 107.312C117.42 109.21 116.623 109.869 114.7 109.8C110.837 109.662 106.963 109.834 103.1 109.703C102.182 109.673 100.869 109.207 100.45 108.505C98.2909 104.896 95.1663 103.682 91.1611 103.792C86.0423 103.933 80.9166 103.826 75.5568 103.826C75.5568 99.9825 75.4727 96.488 75.5866 93.0003C75.6598 90.7503 74.7343 89.9852 72.5864 90.0218C68.4249 90.093 64.2603 89.9873 60.0968 89.9548Z" fill="#FF5E5E"/>
<path d="M59.8167 89.958C64.2603 89.9873 68.4249 90.093 72.5864 90.0218C74.7343 89.9852 75.6598 90.7503 75.5866 93.0003C75.4732 96.488 75.5568 99.9825 75.5568 103.826C80.9166 103.826 86.0423 103.933 91.1611 103.792C95.1668 103.682 98.2909 104.895 100.45 108.505C100.87 109.207 102.182 109.673 103.1 109.703C106.964 109.834 110.837 109.662 114.7 109.8C116.623 109.869 117.42 109.21 117.963 107.312C120.675 97.8173 123.563 88.3743 126.941 78.8595C129.074 91.425 131.206 103.99 133.45 117.218C135.48 111.577 137.286 106.555 139.276 101.022C141.345 104.089 143.105 106.697 145.054 109.586C146.611 108.378 148.072 107.245 149.892 105.833C151.795 110.947 156.053 109.724 159.864 109.75C165.516 109.787 171.169 109.775 177.098 109.83C177.367 109.988 177.36 110.1 177.065 110.377C169.438 110.54 162.097 110.596 154.759 110.495C153.092 110.472 151.433 109.905 149.154 109.472C148.174 110.408 146.629 111.884 145.004 113.436C143.299 111.471 141.807 109.75 140.163 107.855C137.748 115.511 135.404 122.939 133.06 130.368C132.81 130.353 132.559 130.338 132.308 130.323C130.233 118.39 128.159 106.456 126.084 94.5228C124.188 98.2606 122.882 102.086 121.596 105.918C120.047 110.535 120.055 110.538 115.143 110.538C110.522 110.538 105.902 110.538 101.202 110.538C101.202 122.034 101.202 133.07 101.202 144.105C101.188 145.61 101.162 147.116 101.161 148.622C101.156 156.271 98.1624 159.255 90.4776 159.255C73.4121 159.256 56.3471 159.255 39.2817 159.255C35.2138 159.255 31.1458 159.274 27.0781 159.25C22.1141 159.221 18.4153 155.54 18.4055 150.554C18.3808 137.903 18.5676 125.248 18.3041 112.603C18.213 108.233 22.7121 103.397 27.1916 103.741C31.9267 104.105 36.7119 103.748 41.4719 103.857C43.4211 103.902 44.1235 103.23 44.0307 101.259C43.9034 98.5548 44.0993 95.8348 43.9694 93.1301C43.8586 90.821 44.6549 89.8512 47.036 89.9276C51.1988 90.0616 55.3688 89.9627 59.8167 89.958ZM60.6377 94.1726C58.3639 94.1758 56.0895 94.148 53.8162 94.1883C46.0268 94.3254 46.9902 92.6339 47.0664 101.88C47.0717 102.53 48.2592 103.717 48.9144 103.729C53.7509 103.822 58.5917 103.68 63.9112 103.774C66.751 103.774 69.5908 103.774 72.6669 103.774C72.6669 101.467 72.5482 99.4712 72.6972 97.4955C72.8817 95.0529 72.045 93.9921 69.5098 94.1428C66.7443 94.3071 63.9609 94.1695 60.6377 94.1726ZM68.7871 125.599C67.7492 125.545 66.7113 125.491 65.5235 125.429C65.5235 121.967 65.4299 118.861 65.5569 115.763C65.6405 113.733 65.05 112.775 62.8948 112.917C60.8206 113.054 58.7208 113.07 56.6487 112.912C54.4872 112.747 53.9087 113.667 53.9965 115.712C54.1324 118.892 54.0326 122.082 54.0326 125.599C50.6635 125.599 47.6104 125.721 44.5721 125.559C42.3292 125.439 41.2212 125.986 41.4872 128.525C41.6953 130.511 41.6461 132.546 41.4978 134.543C41.3327 136.764 42.1177 137.624 44.3651 137.517C47.4942 137.366 50.6356 137.479 54.0326 137.479C54.0326 141.074 54.1444 144.273 53.9939 147.458C53.892 149.616 54.6968 150.308 56.7469 150.164C58.8206 150.018 60.9162 150.044 62.9941 150.156C64.9674 150.262 65.6144 149.418 65.5522 147.49C65.4466 144.217 65.5229 140.937 65.5229 137.479C67.0437 137.479 68.1265 137.48 69.2088 137.479C78.428 137.473 78.428 137.473 78.0272 127.95C78.023 127.85 78.0162 127.748 78.0261 127.649C78.1886 126.047 77.4032 125.532 75.9091 125.582C73.7288 125.655 71.5443 125.6 68.7871 125.599Z" fill="#FFFEFE"/>
<path d="M101.388 144.189C101.202 133.07 101.202 122.035 101.202 110.538C105.902 110.538 110.522 110.538 115.143 110.538C120.055 110.538 120.047 110.536 121.596 105.919C122.882 102.086 124.188 98.2607 126.084 94.5228C128.158 106.456 130.233 118.39 132.308 130.323C132.559 130.338 132.81 130.353 133.06 130.368C135.404 122.939 137.748 115.511 140.163 107.856C141.807 109.75 143.299 111.471 145.004 113.436C146.629 111.884 148.173 110.409 149.154 109.472C151.432 109.906 153.092 110.472 154.759 110.495C162.097 110.596 169.437 110.54 177.053 110.544C170.959 121.716 161.903 130.353 151.76 137.867C142.565 144.679 133.134 151.162 123.857 157.862C122.586 158.78 121.769 158.747 120.508 157.825C114.243 153.242 107.894 148.779 101.388 144.189Z" fill="#FF5E5E"/>
<path d="M69.0745 125.599C71.5448 125.6 73.7293 125.655 75.9096 125.582C77.4032 125.532 78.1886 126.047 78.0266 127.649C78.0167 127.748 78.023 127.85 78.0271 127.95C78.4285 137.473 78.4285 137.473 69.2093 137.479C68.1265 137.48 67.0437 137.479 65.5234 137.479C65.5234 140.937 65.4466 144.217 65.5522 147.49C65.6144 149.418 64.9679 150.262 62.9946 150.156C60.9167 150.044 58.8211 150.018 56.7474 150.164C54.6968 150.308 53.892 149.616 53.9939 147.458C54.1444 144.273 54.0331 141.074 54.0331 137.479C50.6359 137.479 47.4944 137.366 44.3653 137.517C42.1179 137.624 41.333 136.764 41.498 134.543C41.6464 132.546 41.6955 130.511 41.4874 128.525C41.2214 125.986 42.3295 125.439 44.5724 125.559C47.6107 125.72 50.6638 125.599 54.0325 125.599C54.0325 122.082 54.1329 118.892 53.9965 115.712C53.9092 113.667 54.4872 112.747 56.6492 112.912C58.7208 113.07 60.8206 113.054 62.8953 112.917C65.05 112.775 65.6405 113.733 65.5574 115.763C65.4299 118.861 65.524 121.967 65.524 125.429C66.7113 125.491 67.7492 125.545 69.0745 125.599Z" fill="#FF5F5F"/>
<path d="M63.431 103.612C58.5917 103.68 53.7509 103.822 48.9142 103.729C48.2591 103.717 47.0716 102.53 47.0662 101.879C46.99 92.6339 46.0266 94.3254 53.8162 94.1883C56.0895 94.148 58.3638 94.1757 60.8598 94.4212C61.8652 97.6509 62.6481 100.631 63.431 103.612Z" fill="#EFF3FC"/>
<path d="M63.6713 103.693C62.6481 100.631 61.8652 97.6509 61.1336 94.4165C63.9609 94.1695 66.7442 94.3071 69.5098 94.1428C72.0449 93.9921 72.8811 95.0529 72.6972 97.4955C72.5482 99.4712 72.6668 101.467 72.6668 103.774C69.5908 103.774 66.751 103.774 63.6713 103.693Z" fill="#FF5F5F"/>
</g>
<defs>
<clipPath id="clip0_358_2286">
<rect width="185" height="168" fill="white"/>
</clipPath>
</defs>
</svg>
