<svg width="200" height="156" viewBox="0 0 200 156" fill="none" xmlns="http://www.w3.org/2000/svg">
<g clip-path="url(#clip0_358_2259)">
<path d="M78.2068 155.829C121.399 155.829 156.414 120.945 156.414 77.9145C156.414 34.8835 121.399 0 78.2068 0C35.0144 0 0 34.8835 0 77.9145C0 120.945 35.0144 155.829 78.2068 155.829Z" fill="#47D8E0"/>
<path d="M57.661 78.5793C57.6859 71.6448 57.7117 64.7103 57.7337 57.7759C57.7498 52.8393 59.8698 50.718 64.7878 50.7121C68.6859 50.7083 72.5839 50.6942 76.8717 50.6825C94.278 50.6912 111.295 50.7024 128.312 50.7131C132.903 50.716 135.117 52.9613 135.133 57.6277C135.154 64.0888 135.18 70.5504 135.172 77.2049C135.155 83.1558 135.171 88.9132 135.124 94.8091C135.047 95.6688 135.033 96.39 134.985 97.2998C134.981 101.351 135.01 105.214 134.996 109.26C134.987 110.064 135.021 110.686 135.007 111.493C135.003 116.943 135.048 122.207 135.029 127.661C135.031 133.173 135.096 138.497 135.161 144.002C135.165 145.031 135.17 145.88 135.175 146.728C134.926 148.156 134.677 149.584 134.247 151.228C132.366 153.316 130.297 153.877 127.741 153.865C107.05 153.772 86.359 153.778 65.6688 153.855C62.8819 153.865 60.4112 153.562 58.5444 151.296C58.2522 148.146 57.8712 145.002 57.6946 141.846C57.5517 139.285 57.6537 136.711 57.6551 133.772C57.7746 132.79 57.9824 132.178 57.9815 131.567C57.9727 124.477 57.9317 117.387 57.9415 110.113C57.9951 107.117 58.0576 104.304 57.9863 101.494C57.9668 100.729 57.5463 99.9736 57.3098 99.2136C57.4502 96.9674 57.5907 94.7211 57.7405 92.0881C57.7205 87.3274 57.6907 82.9531 57.661 78.5793ZM63.1619 124.802C63.1619 128.42 63.158 132.037 63.1629 135.654C63.1688 139.814 64.9366 141.565 69.18 141.567C87.3312 141.574 105.482 141.574 123.633 141.567C128.033 141.565 129.716 139.882 129.716 135.529C129.718 111.949 129.717 88.3674 129.716 64.7862C129.716 60.3015 128.062 58.6725 123.501 58.672C105.49 58.6701 87.479 58.6706 69.4678 58.6715C64.7893 58.672 63.1629 60.2806 63.1624 64.9101C63.161 84.7352 63.1619 104.56 63.1619 124.802ZM96.7537 151.719C98.7278 151.502 99.9541 150.391 100.344 148.492C100.787 146.33 99.2849 144.2 97.1902 143.834C94.9307 143.439 92.7424 144.979 92.458 147.165C92.1381 149.623 93.64 151.353 96.7537 151.719ZM98.0839 51.1257C95.6493 51.1277 93.2102 51.0567 90.7819 51.1865C90.2185 51.2166 89.6917 51.9305 89.1483 52.33C89.6595 52.7615 90.1605 53.5522 90.6834 53.5668C94.5063 53.6732 98.3356 53.6732 102.159 53.5658C102.679 53.5512 103.178 52.7557 103.686 52.3217C103.14 51.9251 102.633 51.2793 102.038 51.1845C100.884 51.0013 99.681 51.1277 98.0839 51.1257Z" fill="#2F2F2F"/>
<path d="M57.9 110.297C57.9322 117.387 57.9727 124.477 57.982 131.567C57.9829 132.178 57.7751 132.79 57.642 133.574C54.4132 136.746 51.5278 140.149 47.0553 141.991C41.4204 144.264 35.8836 145.386 30.1055 144.178C27.5432 143.642 25.046 142.796 22.5193 142.092C18.357 139.482 14.3662 136.71 11.5666 132.517C7.91952 127.055 6.20567 121.101 6.57162 114.214C6.98469 113.152 7.36625 112.424 7.77064 111.707C8.96874 109.586 10.1045 107.458 8.97289 104.803C10.0363 103.099 11.0287 101.531 12.0492 100.129C11.9385 100.827 11.6569 101.366 11.6834 101.889C11.8854 105.883 12.0896 109.879 12.4322 113.862C12.5161 114.837 13.1755 115.751 13.4626 116.724C14.0731 118.794 16.2952 118.372 17.577 119.435C19.7037 121.2 21.6396 123.814 25.0393 121.717C25.4977 121.435 26.2697 121.652 26.8966 121.646C28.7752 121.626 30.6539 121.611 32.6806 121.54C34.5837 120.786 34.5032 122.014 34.7483 123.154C35.03 124.463 35.6029 125.708 35.9961 126.998C36.0808 127.276 35.9378 127.623 35.8518 127.964C35.8274 127.965 35.8509 127.94 36.0486 127.932C36.9622 128.087 37.6983 128.322 38.4419 128.349C42.4683 128.493 42.4101 128.631 43.9373 132.34C44.7352 134.278 46.2662 135.916 47.5279 137.739C47.6536 137.783 47.7175 137.78 47.7815 137.775C47.7503 137.673 47.719 137.57 47.6743 137.302C46.2809 133.247 48.9429 130.078 50.3898 127.191C51.6439 124.688 52.0668 122.221 52.6961 119.7C52.7829 119.354 51.9444 118.393 51.5005 118.37C49.9317 118.29 48.3477 118.493 47.3575 118.553C46.3099 117.848 45.7075 117.144 45.0092 117.031C43.4458 116.779 41.7723 116.515 40.2591 116.822C38.4492 117.189 36.6991 118.03 35.041 118.89C34.0738 119.392 33.3371 120.336 32.3386 121.097C31.3338 120.63 30.487 120.147 29.2557 119.444C29.1277 119.472 28.4252 119.625 27.6721 119.79C27.535 118.982 27.4312 118.372 27.2263 117.166C26.5972 118.38 26.3736 119.148 25.8804 119.656C25.4832 120.066 24.6936 120.455 24.1941 120.343C22.7273 120.012 21.7893 117.82 22.3682 116.449C23.4157 113.968 26.8058 112.711 28.778 113.857C28.6426 108.783 29.7399 104.17 33.5767 101.495C33.4187 101.089 33.0095 100.514 33.0401 99.963C33.0629 99.5504 33.6431 99.1606 33.9925 98.7767C34.6226 98.0837 35.2659 97.4028 36.064 96.6709C38.4285 96.0479 40.686 95.6183 42.8231 94.8543C45.4642 93.9106 45.9627 92.8778 45.6418 90.1641C48.2262 91.729 50.8107 93.2938 53.4302 95.0633C53.6634 96.0873 53.6185 97.1593 54.1327 97.6516C54.5834 98.0832 55.6615 97.864 56.4624 97.9325C56.5732 98.106 56.6834 98.2795 56.6615 98.6183C56.2946 99.1664 55.9083 99.5309 55.861 99.9353C55.7824 100.606 56.1151 101.357 55.9376 101.979C55.0342 105.142 56.1942 107.772 57.9 110.297ZM37.4704 104.681C37.6813 105.073 37.8186 105.542 38.1267 105.83C38.3704 106.058 38.8722 106.218 39.1704 106.125C39.4655 106.033 39.7563 105.617 39.8539 105.286C39.9709 104.889 39.8816 104.432 39.8816 103.778C39.5256 103.588 38.7727 103.14 37.9823 102.771C35.9713 101.835 33.8433 102.691 34.0567 103.916C35.1777 104.147 36.1547 104.348 36.8793 104.638C36.6264 104.962 36.3734 105.286 36.1204 105.611C36.2865 105.701 36.4525 105.792 36.6185 105.883C36.8061 105.452 36.9937 105.021 37.4704 104.681Z" fill="#4B86E7"/>
<path d="M151.522 94.6352C162.088 94.6201 172.654 94.5642 183.22 94.6109C186.986 94.6279 188.89 96.4766 189.246 100.226C188.976 103.634 189.824 107.029 187.792 110.245C186.009 110.702 184.392 111.168 182.766 111.199C177.228 111.306 171.688 111.261 165.954 111.26C160.862 111.225 155.964 111.202 151.099 111.022C151.394 109.03 151.864 107.199 151.874 105.365C151.894 101.789 151.655 98.212 151.522 94.6352ZM156.116 98.7752C156.068 98.525 156.021 98.2747 155.974 98.0249C155.926 98.0327 155.879 98.0404 155.832 98.0482C155.832 101.527 155.832 105.006 155.832 108.485C155.932 108.484 156.033 108.484 156.133 108.483C156.133 105.352 156.133 102.221 156.116 98.7752ZM182.336 106.499C182.336 103.699 182.336 100.899 182.336 98.0988C182.139 98.1017 181.942 98.1046 181.745 98.1075C181.745 101.453 181.745 104.798 181.745 108.143C181.807 108.151 181.87 108.159 181.933 108.167C182.032 107.718 182.132 107.269 182.336 106.499Z" fill="#FFA3A3"/>
<path d="M8.19376 80.0217C13.2769 77.9883 18.2425 76.0186 23.2585 74.186C24.658 73.6747 26.218 73.2685 27.6845 73.3253C35.6747 73.6339 43.66 74.0801 51.642 74.5607C52.2473 74.5971 52.8137 75.2688 53.3981 75.6454C52.9688 76.1916 52.6537 76.9639 52.0912 77.2448C49.6054 78.4845 47.049 79.5828 44.2231 80.7963C40.0528 82.5988 36.1417 84.2633 32.3146 86.1018C29.5463 87.4314 26.841 88.0491 23.6774 87.601C19.2858 86.9785 14.8092 86.9513 10.1958 86.6539C9.13288 86.4881 8.24327 86.3375 7.45332 86.0702C13.882 83.8386 20.2148 81.7348 26.5343 79.5916C27.2202 79.3593 27.829 78.9005 28.4735 78.5472C28.3981 78.3339 28.3227 78.12 28.2473 77.9067C27.5475 77.9718 26.8021 77.9038 26.155 78.1229C19.702 80.3094 13.2579 82.523 6.8339 84.7926C6.10571 85.0496 5.51639 85.6974 4.86266 86.164C3.76547 86.0308 2.63015 86.026 1.58538 85.7169C0.957815 85.5312 0.258506 84.9617 0.0129616 84.3863C-0.107073 84.1049 0.632517 83.1869 1.16039 82.9507C3.4362 81.9335 5.77766 81.0622 8.19376 80.0217Z" fill="#788F9B"/>
<path d="M192.065 129.637C191.806 131.031 191.656 132.456 191.265 133.813C190.504 136.464 191.354 138.889 191.896 141.518C181.91 141.695 172.138 141.681 162.366 141.731C161.044 141.737 160.415 141.444 160.137 140.002C159.562 137.019 159.543 134.109 160.173 131.135C160.434 129.902 160.946 129.578 162.121 129.584C172.102 129.629 182.084 129.626 192.065 129.637Z" fill="white"/>
<path d="M199.598 113.366C198.299 117.268 197.793 121.17 199.412 125.238C189.379 125.414 179.542 125.402 169.706 125.454C168.444 125.46 167.584 125.099 167.55 123.823C167.47 120.872 167.463 117.915 167.542 114.963C167.576 113.726 168.378 113.289 169.67 113.297C179.646 113.359 189.622 113.352 199.598 113.366ZM174.125 124.024C175.721 122.666 177.361 122.457 179.043 124.259C179.043 122.213 179.043 120.594 179.043 118.988C177.182 118.988 175.497 118.988 173.805 118.988C173.805 120.758 173.805 122.342 174.125 124.024Z" fill="#FFFEFE"/>
<path d="M135.37 146.724C135.17 145.88 135.165 145.031 135.357 143.992C143.24 143.78 150.927 143.758 158.81 143.762C169.418 143.789 179.83 143.781 190.242 143.806C191.464 143.809 192.499 143.74 192.465 142.151C193.97 142.557 195.475 142.962 196.98 143.367C196.989 143.682 196.998 143.997 197.007 144.312C194.917 144.695 192.839 145.309 190.734 145.423C181.307 145.934 171.875 146.342 162.442 146.707C156.816 146.925 151.184 147.071 145.555 147.104C142.226 147.123 138.895 146.857 135.37 146.724Z" fill="#434343"/>
<path d="M199.628 113.188C189.622 113.352 179.646 113.359 169.67 113.297C168.378 113.289 167.576 113.726 167.542 114.963C167.463 117.915 167.47 120.871 167.55 123.823C167.584 125.099 168.444 125.46 169.706 125.454C179.542 125.402 189.379 125.414 199.407 125.396C199.982 127.089 199.21 127.626 197.58 127.536C195.916 127.445 194.242 127.521 192.18 127.527C183.24 127.513 174.689 127.494 166.145 127.304C165.876 124.037 165.428 120.944 165.386 117.847C165.356 115.659 165.875 113.465 166.148 111.273C171.688 111.261 177.228 111.306 182.766 111.199C184.392 111.168 186.009 110.702 187.791 110.402C189.3 110.523 190.644 110.755 191.996 110.81C193.866 110.886 195.747 110.91 197.615 110.805C199.308 110.71 199.907 111.418 199.628 113.188Z" fill="#E6D8AF"/>
<path d="M166.14 127.476C174.689 127.494 183.239 127.513 191.988 127.541C192.188 128.159 192.189 128.768 192.128 129.507C182.084 129.626 172.102 129.629 162.121 129.584C160.946 129.578 160.434 129.902 160.173 131.135C159.543 134.109 159.562 137.019 160.137 140.002C160.415 141.444 161.044 141.737 162.366 141.731C172.138 141.681 181.91 141.696 191.874 141.681C192.135 141.797 192.204 141.924 192.37 142.1C192.499 143.74 191.464 143.809 190.242 143.806C179.83 143.781 169.418 143.789 158.814 143.583C158.483 139.479 158.295 135.58 158.233 131.679C158.211 130.313 158.503 128.941 158.845 127.556C161.406 127.519 163.773 127.498 166.14 127.476Z" fill="#E6B08D"/>
<path d="M22.3478 142.108C25.0456 142.796 27.5428 143.642 30.1051 144.178C35.8832 145.386 41.4201 144.264 46.9608 142.104C49.2298 142.448 51.3664 142.729 53.4522 143.222C54.1649 143.39 54.7503 144.092 55.3942 144.55C54.7995 145.042 54.2717 145.821 53.599 145.976C50.9054 146.598 48.1863 147.252 45.4416 147.484C36.839 148.209 28.2386 148.127 19.6954 146.694C18.6748 146.523 17.6628 146.197 16.7053 145.802C16.2463 145.613 15.5585 145.014 15.6187 144.743C15.7293 144.247 16.2424 143.609 16.7202 143.464C18.51 142.922 20.3535 142.556 22.3478 142.108Z" fill="#434343"/>
<path d="M58.3693 151.302C60.4112 153.562 62.882 153.865 65.6688 153.855C86.3595 153.778 107.051 153.772 127.741 153.865C130.298 153.877 132.366 153.316 134.188 151.375C135.5 151.56 136.691 151.813 137.882 152.066C137.915 152.293 137.948 152.519 137.98 152.746C137.156 153.098 136.357 153.669 135.503 153.764C131.028 154.264 126.546 154.86 122.052 155.021C110.652 155.427 99.2371 155.986 87.8405 155.789C77.5893 155.611 67.3527 154.526 57.1137 153.79C56.2112 153.725 55.3371 153.28 54.4493 153.011C54.4346 152.743 54.42 152.474 54.4054 152.205C55.6683 151.906 56.9312 151.607 58.3693 151.302Z" fill="#434343"/>
<path d="M4.87009 86.3618C5.51649 85.6974 6.1058 85.0496 6.834 84.7925C13.258 82.523 19.7021 80.3094 26.1551 78.1229C26.8023 77.9038 27.5476 77.9718 28.2474 77.9067C28.3228 78.12 28.3982 78.3339 28.4736 78.5472C27.8291 78.901 27.2203 79.3593 26.5344 79.5916C20.2149 81.7347 13.882 83.8386 7.30029 86.1266C6.89224 86.5907 6.60376 86.8818 6.60176 87.1743C6.57195 91.6206 6.56537 96.0673 6.60107 100.513C6.60459 100.951 6.8779 101.41 7.10166 101.818C7.67898 102.871 8.29873 103.9 8.90156 104.939C10.1043 107.458 8.96854 109.586 7.77044 111.707C7.366 112.423 6.98449 113.152 6.55322 114.021C4.202 112.798 1.91883 108.054 3.05005 105.953C5.14556 102.061 4.90054 97.9631 4.88727 93.8337C4.87946 91.4092 4.88039 88.9846 4.87009 86.3618Z" fill="#394951"/>
<path d="M10.3692 86.6689C14.8094 86.9513 19.286 86.9785 23.6776 87.601C26.8411 88.0491 29.5465 87.4314 32.3148 86.1018C36.1419 84.2633 40.053 82.5988 44.0722 80.8308C44.6603 83.7929 45.1045 86.7841 45.5951 89.9697C45.9625 92.8778 45.464 93.911 42.823 94.8543C40.6858 95.6183 38.4283 96.0479 35.8932 96.6675C32.8086 97.2395 30.055 97.7697 27.1035 98.2843C25.3095 98.5366 23.7132 98.8043 21.9265 99.0677C18.921 99.1528 16.0667 100.135 13.2645 98.6158C13.114 98.4301 12.9978 98.399 12.8039 98.2892C12.4975 97.2832 12.1791 96.4459 12.0109 95.5799C11.4352 92.6149 10.9122 89.6402 10.3692 86.6689Z" fill="#384850"/>
<path d="M57.9415 110.113C56.1937 107.772 55.0342 105.142 55.9376 101.979C56.1151 101.357 55.7825 100.606 55.8605 99.9352C55.9078 99.5309 56.2946 99.1664 56.6785 98.7718C56.9322 98.8646 57.0356 98.9691 57.2244 99.1436C57.5464 99.9736 57.9668 100.729 57.9864 101.494C58.0576 104.304 57.9956 107.117 57.9415 110.113Z" fill="#9BCFA4"/>
<path d="M56.4195 97.8222C55.6615 97.864 54.5834 98.0831 54.1322 97.6516C53.6185 97.1593 53.6634 96.0872 53.5571 95.1469C54.558 95.9215 55.4673 96.8167 56.4195 97.8222Z" fill="#99D0B3"/>
<path d="M63.1619 124.593C63.1619 104.56 63.1615 84.7352 63.1624 64.9101C63.1629 60.2807 64.7893 58.6721 69.4678 58.6716C87.479 58.6706 105.49 58.6701 123.501 58.6721C128.062 58.6725 129.716 60.3015 129.716 64.7862C129.717 88.3675 129.718 111.949 129.716 135.53C129.716 139.882 128.033 141.566 123.633 141.567C105.482 141.574 87.3312 141.574 69.1805 141.567C64.9366 141.565 63.1693 139.814 63.1629 135.654C63.158 132.037 63.1619 128.42 63.1619 124.593ZM81.6107 94.8587C77.7146 102.686 80.238 111.63 87.799 116.282C93.7849 119.964 99.8537 119.836 105.669 115.907C111.549 111.934 114.044 106.214 112.786 99.3137C111.563 92.6042 107.276 88.1565 100.698 86.267C93.6005 84.2284 85.7044 87.3513 81.6107 94.8587Z" fill="#FEFEFE"/>
<path d="M166.145 127.304C163.773 127.498 161.406 127.519 158.647 127.538C150.534 127.515 142.813 127.493 135.093 127.472C135.048 122.207 135.004 116.943 135.181 111.471C140.624 111.237 145.845 111.208 151.066 111.18C155.964 111.202 160.861 111.225 165.954 111.26C165.875 113.464 165.356 115.659 165.386 117.847C165.428 120.944 165.876 124.037 166.145 127.304ZM161.559 115.579C161.536 115.311 161.512 115.043 161.488 114.776C161.352 114.778 161.216 114.78 161.08 114.782C161.08 117.974 161.08 121.166 161.08 124.359C161.24 124.359 161.4 124.359 161.56 124.36C161.56 121.544 161.56 118.729 161.559 115.579Z" fill="#FFF0C2"/>
<path d="M135.03 127.661C142.813 127.493 150.534 127.515 158.453 127.554C158.503 128.941 158.211 130.312 158.233 131.678C158.295 135.58 158.483 139.479 158.619 143.557C150.927 143.758 143.24 143.78 135.357 143.811C135.096 138.497 135.031 133.173 135.03 127.661ZM154.434 139.944C154.434 136.717 154.434 133.489 154.434 130.261C153.505 133.885 153.189 137.495 154.38 141.086C154.398 140.814 154.416 140.542 154.434 139.944Z" fill="#FBC19A"/>
<path d="M135.039 109.077C135.01 105.214 134.981 101.351 135.16 97.2662C139.474 97.0286 143.58 97.0524 147.683 96.9741C148.941 96.9498 149.783 97.3168 149.797 98.6104C149.831 101.698 149.831 104.791 149.654 107.871C149.627 108.326 148.57 109.077 147.978 109.088C143.667 109.171 139.353 109.1 135.039 109.077Z" fill="white"/>
<path d="M134.996 109.26C139.353 109.1 143.667 109.171 147.978 109.088C148.57 109.077 149.627 108.326 149.654 107.871C149.831 104.791 149.831 101.698 149.797 98.6105C149.783 97.3168 148.94 96.9499 147.683 96.9737C143.58 97.0524 139.474 97.0281 135.194 97.0777C135.033 96.39 135.047 95.6688 135.124 94.8091C136.84 94.6303 138.494 94.5899 140.329 94.52C144.05 94.5204 147.59 94.5515 151.326 94.6089C151.655 98.212 151.893 101.789 151.874 105.365C151.864 107.199 151.394 109.03 151.099 111.021C145.845 111.208 140.625 111.236 135.23 111.286C135.021 110.686 134.987 110.064 134.996 109.26Z" fill="#DE9796"/>
<path d="M96.5854 151.72C93.64 151.353 92.1381 149.623 92.4581 147.165C92.7425 144.979 94.9307 143.439 97.1907 143.834C99.2849 144.2 100.787 146.33 100.344 148.492C99.9547 150.391 98.7278 151.502 96.5854 151.72Z" fill="#181818"/>
<path d="M98.2912 51.1257C99.681 51.1277 100.884 51.0013 102.038 51.1846C102.633 51.2793 103.14 51.9247 103.686 52.3217C103.178 52.7557 102.68 53.5513 102.159 53.5659C98.3361 53.6733 94.5068 53.6733 90.6834 53.5668C90.1605 53.5523 89.6595 52.7616 89.1483 52.33C89.6922 51.9305 90.219 51.2166 90.7824 51.1865C93.2102 51.0567 95.6493 51.1277 98.2912 51.1257Z" fill="#181818"/>
<path d="M27.3013 98.3004C30.0549 97.7697 32.8085 97.2395 35.7327 96.7127C35.2656 97.4028 34.6224 98.0837 33.9922 98.7767C33.6428 99.1606 33.0627 99.5503 33.0398 99.9629C33.0093 100.514 33.4184 101.089 33.5765 101.495C29.7396 104.17 28.6424 108.783 28.7777 113.857C26.8056 112.711 23.4154 113.968 22.3679 116.449C21.789 117.82 22.727 120.012 24.1938 120.343C24.6933 120.455 25.4829 120.066 25.8802 119.656C26.3733 119.148 26.5969 118.38 27.226 117.166C27.431 118.372 27.5347 118.982 27.6718 119.79C28.4249 119.625 29.1274 119.472 29.2554 119.444C30.4868 120.147 31.3335 120.63 32.348 121.226C32.5213 121.423 32.5268 121.508 32.5323 121.593C30.6537 121.61 28.775 121.626 26.8963 121.645C26.2694 121.652 25.4975 121.435 25.039 121.717C21.6394 123.814 19.7035 121.2 17.5767 119.435C16.2949 118.372 14.0728 118.794 13.4623 116.724C13.1752 115.751 12.5158 114.837 12.4319 113.862C12.0893 109.879 11.8851 105.883 11.6831 101.889C11.6566 101.366 11.9382 100.827 12.0401 100.131C12.0032 99.9668 12.0097 99.9843 12.1487 99.9435C12.3407 99.6451 12.3938 99.388 12.4355 99.13C12.4241 99.1295 12.4296 99.1514 12.5655 99.1946C12.9074 99.0561 13.1134 98.8748 13.3193 98.6936C16.0665 100.135 18.9209 99.1528 22.0639 99.1489C23.8141 99.6228 25.2362 100.011 26.6748 100.467C26.7387 100.554 26.7861 100.572 26.8335 100.591C26.7828 100.519 26.7322 100.447 26.6928 100.22C26.9032 99.4765 27.1022 98.8884 27.3013 98.3004Z" fill="#A6DDA9"/>
<path d="M32.6804 121.54C32.5269 121.508 32.5214 121.423 32.5062 121.209C33.3369 120.336 34.0736 119.392 35.0408 118.89C36.6989 118.03 38.449 117.189 40.2589 116.822C41.7721 116.515 43.4456 116.779 45.009 117.031C45.7073 117.144 46.3097 117.848 47.3573 118.553C48.3475 118.493 49.9312 118.29 51.5005 118.37C51.9444 118.393 52.7824 119.354 52.6961 119.7C52.0668 122.221 51.6434 124.688 50.3898 127.191C48.9429 130.078 46.2806 133.247 47.618 137.357C47.5756 137.577 47.4659 137.69 47.4659 137.69C46.266 135.916 44.735 134.278 43.9371 132.34C42.4099 128.63 42.4681 128.493 38.4417 128.349C37.698 128.322 36.962 128.087 36.0539 127.938C35.8853 127.928 35.8995 127.937 35.8995 127.937C35.9376 127.623 36.0806 127.276 35.9958 126.998C35.6027 125.708 35.0298 124.463 34.748 123.153C34.503 122.014 34.5835 120.786 32.6804 121.54Z" fill="#A6DDAA"/>
<path d="M37.1316 104.55C36.1545 104.348 35.1775 104.147 34.0566 103.916C33.8432 102.691 35.9712 101.835 37.9822 102.771C38.7726 103.14 39.5255 103.588 39.8814 103.778C39.8814 104.432 39.9708 104.889 39.8538 105.286C39.7562 105.617 39.4654 106.033 39.1703 106.125C38.8722 106.218 38.3703 106.059 38.1265 105.83C37.8185 105.542 37.6812 105.073 37.3133 104.625C37.1563 104.57 37.1316 104.55 37.1316 104.55Z" fill="#99D1B2"/>
<path d="M37.1686 104.58C36.9934 105.021 36.8059 105.452 36.6183 105.883C36.4523 105.792 36.2862 105.701 36.1202 105.611C36.3732 105.286 36.6261 104.962 37.0053 104.594C37.1315 104.55 37.1561 104.57 37.1686 104.58Z" fill="#99D1B2"/>
<path d="M35.8814 127.922C35.8512 127.941 35.8267 127.967 35.8521 127.965C35.902 127.938 35.8872 127.928 35.8814 127.922Z" fill="#A6DDAA"/>
<path d="M47.6314 137.522C47.7187 137.57 47.7499 137.673 47.7812 137.775C47.7172 137.78 47.6533 137.783 47.5276 137.739C47.4658 137.69 47.5754 137.577 47.6314 137.522Z" fill="#A6DDAA"/>
<path d="M156.124 98.9327C156.133 102.221 156.133 105.352 156.133 108.483C156.033 108.484 155.932 108.484 155.832 108.485C155.832 105.006 155.832 101.527 155.832 98.0482C155.879 98.0404 155.926 98.0326 155.974 98.0248C156.021 98.2746 156.068 98.5249 156.124 98.9327Z" fill="#E79494"/>
<path d="M182.283 106.659C182.132 107.269 182.032 107.718 181.933 108.167C181.87 108.159 181.807 108.151 181.744 108.143C181.744 104.797 181.744 101.452 181.744 98.1074C181.941 98.1045 182.139 98.1016 182.336 98.0987C182.336 100.899 182.336 103.699 182.283 106.659Z" fill="#E89494"/>
<path d="M173.965 123.976C173.805 122.342 173.805 120.758 173.805 118.988C175.497 118.988 177.182 118.988 179.044 118.988C179.044 120.594 179.044 122.213 179.044 124.259C177.361 122.457 175.721 122.666 173.965 123.976Z" fill="#FF7878"/>
<path d="M26.6584 100.398C25.2363 100.011 23.8143 99.6228 22.2547 99.1538C23.7133 98.8044 25.3095 98.5366 27.1035 98.2844C27.1024 98.8884 26.9034 99.4765 26.6869 100.225C26.6694 100.386 26.6584 100.398 26.6584 100.398Z" fill="#528AD7"/>
<path d="M12.5655 99.1946C12.5379 98.9764 12.6463 98.8009 12.8076 98.5351C12.9976 98.399 13.1138 98.4301 13.2643 98.6158C13.1133 98.8748 12.9074 99.0561 12.5655 99.1946Z" fill="#4B86E7"/>
<path d="M81.6898 94.7245C85.7049 87.3512 93.6005 84.2283 100.698 86.267C107.276 88.1565 111.564 92.6042 112.787 99.3137C114.044 106.214 111.549 111.934 105.669 115.907C99.8541 119.836 93.7849 119.964 87.7995 116.282C80.2381 111.63 77.7146 102.686 81.6898 94.7245ZM92.4537 108.247C92.8824 108.475 93.5068 109.013 93.7107 108.885C96.9873 106.829 100.211 104.689 103.805 102.332C100.007 99.6087 96.4937 97.3488 92.4395 94.8271C92.4395 99.717 92.4395 103.8 92.4537 108.247Z" fill="#FF7373"/>
<path d="M161.56 115.746C161.561 118.729 161.561 121.544 161.561 124.36C161.401 124.359 161.24 124.359 161.08 124.358C161.08 121.166 161.08 117.974 161.08 114.782C161.216 114.78 161.352 114.778 161.488 114.776C161.512 115.043 161.536 115.311 161.56 115.746Z" fill="#E8DBB1"/>
<path d="M154.434 140.107C154.416 140.542 154.398 140.814 154.38 141.086C153.189 137.495 153.505 133.885 154.434 130.261C154.434 133.489 154.434 136.717 154.434 140.107Z" fill="#E9B28D"/>
<path d="M12.1488 99.9435C12.0751 99.7355 12.1404 99.4867 12.3263 99.1844C12.3939 99.388 12.3408 99.6451 12.1488 99.9435Z" fill="#4B86E7"/>
<path d="M26.6754 100.38C26.7322 100.447 26.7829 100.519 26.8335 100.591C26.7861 100.572 26.7387 100.554 26.6748 100.467C26.6583 100.398 26.6693 100.386 26.6754 100.38Z" fill="#528AD7"/>
<path d="M92.4463 108.065C92.439 103.8 92.439 99.717 92.439 94.8271C96.4932 97.3488 100.006 99.6087 103.805 102.332C100.21 104.689 96.9868 106.829 93.7102 108.885C93.5063 109.013 92.882 108.475 92.4463 108.065Z" fill="#FFFDFD"/>
</g>
<defs>
<clipPath id="clip0_358_2259">
<rect width="200" height="156" fill="white"/>
</clipPath>
</defs>
</svg>
