<svg width="169" height="172" viewBox="0 0 169 172" fill="none" xmlns="http://www.w3.org/2000/svg">
<path d="M84.4073 167.634C131.024 167.634 168.815 130.108 168.815 83.8168C168.815 37.5261 131.024 0 84.4073 0C37.7905 0 0 37.5261 0 83.8168C0 130.108 37.7905 167.634 84.4073 167.634Z" fill="#47D8E0"/>
<path d="M120.712 12.1604C126.063 14.4062 131.092 16.7437 134.858 21.0425C142.173 29.3941 146.025 38.8668 144.393 50.1144C143.985 52.9268 143.583 55.74 143.063 58.9672C141.816 61.4134 140.685 63.4445 139.553 65.4755C139.196 65.3584 138.84 65.2408 138.483 65.1232C138.026 61.6272 137.694 58.1093 137.085 54.6395C135.822 47.4492 134.063 40.402 128.159 35.3743C127.098 34.4704 125.22 33.7739 123.91 34.0139C113.721 35.8812 103.645 34.7296 93.586 33.1889C91.4079 32.8554 89.6963 33.1631 88.138 34.6803C82.9727 39.7099 78.973 45.442 77.8853 52.6926C77.3441 56.3015 77.3793 59.9961 77.1387 63.8993C75.9436 62.0063 74.8538 60.28 73.764 58.5537C73.3255 56.141 72.7821 53.7414 72.4673 51.3129C71.3706 42.8561 73.486 34.9648 77.1398 27.2237C71.6233 22.6085 67.5431 17.1481 66.2127 9.73749C66.2564 9.44588 66.4496 9.30493 66.4496 9.30493C71.3311 13.6354 77.1982 14.0244 83.2475 13.2318C88.5365 12.5388 93.7855 11.543 99.2667 10.566C103.754 10.4686 108.039 10.2978 112.295 10.571C115.045 10.7476 117.754 11.5744 120.712 12.1604Z" fill="#FEC670"/>
<path d="M137.008 134.861C142.042 134.661 147.078 134.255 152.107 134.342C155.014 134.392 157.506 135.934 158.562 138.837C159.632 141.779 158.573 144.507 156.306 146.307C153.001 148.933 149.362 151.157 145.785 153.428C144.119 154.485 142.265 155.251 140.331 156.278C138.111 157.163 136.056 157.918 133.554 158.718C131.505 159.27 129.912 159.81 128.297 160.277C124.042 161.506 119.777 162.703 115.448 163.714C114.719 161.773 113.942 160.063 113.427 158.278C112.904 156.462 111.918 156.2 110.342 156.906C109.717 157.186 109.037 157.341 108.192 157.499C106.808 157.303 105.614 157.161 104.166 156.959C100.211 156.446 96.4964 156.082 92.8142 155.514C89.1794 154.953 85.9652 155.539 83.3128 158.225C77.2609 155.297 71.1706 152.442 65.185 149.385C63.7335 148.643 62.5274 147.328 61.3833 146.113C59.4496 144.06 58.3703 141.61 59.4022 138.805C60.423 136.031 62.798 134.451 65.5794 134.38C70.4998 134.256 75.434 134.659 80.7862 134.925C82.005 135.532 82.801 136.057 83.6371 136.858C83.9093 141.081 84.1967 145.025 84.3515 148.973C84.44 151.219 85.495 152.127 87.7173 152.122C101.86 152.091 116.004 152.085 130.146 152.131C132.551 152.138 133.538 151.107 133.625 148.769C133.784 144.524 134.097 140.285 134.532 136.039C135.482 135.643 136.246 135.252 137.008 134.861Z" fill="#99BB98"/>
<path d="M115.515 163.913C119.777 162.703 124.042 161.506 128.298 160.277C129.912 159.81 131.505 159.27 133.332 158.758C134.275 163.487 133.191 165.409 128.357 167.634C123.507 167.444 118.871 167.263 114.243 166.943C113.228 166.873 112.249 166.303 111.218 165.684C112.628 164.908 114.071 164.41 115.515 163.913Z" fill="#8C6C41"/>
<path d="M73.5376 58.6212C74.8538 60.28 75.9437 62.0063 77.1388 63.8993C77.3794 59.9961 77.3441 56.3015 77.8853 52.6927C78.973 45.4419 82.9727 39.71 88.138 34.6803C89.6964 33.1631 91.4079 32.8555 93.5855 33.189C103.645 34.7296 113.721 35.8812 123.91 34.0139C125.219 33.7739 127.098 34.4704 128.159 35.3744C134.063 40.402 135.822 47.4492 137.085 54.6396C137.694 58.1094 138.026 61.6273 138.483 65.1232C138.84 65.2408 139.197 65.3584 139.553 65.4756C140.685 63.4445 141.816 61.4134 143.071 59.1926C146.186 61.7025 145.591 66.7282 141.783 69.5732C140.47 70.555 138.819 71.0873 137.34 71.8589C136.391 72.3535 135.276 72.7247 134.578 73.4686C129.18 79.2261 122.544 82.686 114.325 84.2643C110.189 84.292 106.568 84.302 102.947 84.3119C94.8058 82.4863 87.7321 78.8032 82.0456 72.6222C81.6312 72.1721 80.6793 72.0633 79.9728 72.0492C75.5398 71.9619 71.0753 67.9839 70.602 63.6322C70.3551 61.3585 70.8621 59.501 73.5376 58.6212ZM99.4726 58.2641C99.502 58.2019 99.5321 58.1402 99.5615 58.078C99.4899 58.1078 99.4183 58.1376 99.4378 57.734C95.8377 54.8225 91.8997 54.9883 90.1976 57.5693C93.0474 57.7319 96.2226 57.9133 99.4726 58.2641ZM124.955 56.0396C122.353 55.4473 119.984 55.5958 117.796 57.9049C121.106 57.6754 123.861 57.4841 127.091 57.2598C126.329 56.7579 125.878 56.4615 124.955 56.0396Z" fill="#FED9A0"/>
<path d="M114.279 86.5913C122.258 87.5731 128.05 92.2668 132.544 98.2952C136.157 103.142 138.756 108.734 141.999 114.33C139.94 115.442 138.5 116.22 136.676 117.069C136.049 117.18 135.808 117.218 135.43 117.036C134.48 116.532 133.67 116.003 132.857 116.001C116.956 115.952 101.054 115.936 85.1534 116.036C84.2399 116.041 83.3338 117.092 82.2409 117.623C81.6891 117.532 81.3206 117.476 80.9526 117.419C75.8026 114.671 75.6625 114.61 78.0017 109.34C81.856 100.659 87.3098 93.2334 96.0194 88.7505C97.9989 87.7315 100.305 87.3394 102.93 86.7455C107.025 86.7518 110.652 86.6713 114.279 86.5913Z" fill="#FE847D"/>
<path d="M83.2633 158.435C85.9657 155.54 89.1799 154.953 92.8147 155.514C96.4969 156.082 100.211 156.446 104.032 157.107C104.408 160.057 104.657 162.8 104.937 165.539C104.95 165.666 105.241 165.765 105.402 165.876C104.413 166.421 103.444 167.388 102.431 167.436C98.5786 167.617 94.699 167.701 90.8541 167.45C85.0654 167.071 82.1345 163.531 83.2633 158.435Z" fill="#8C6C42"/>
<path d="M80.8715 117.651C81.3211 117.476 81.6891 117.533 82.2893 117.889C82.88 124.319 83.238 130.45 83.5966 136.581C82.8011 136.057 82.0055 135.533 81.0442 134.932C77.2988 129.216 79.1799 123.549 80.8715 117.651Z" fill="#FAD79F"/>
<path d="M115.448 163.714C114.071 164.41 112.627 164.908 111.042 165.541C110.584 165.687 110.268 165.697 109.689 165.454C109.079 162.651 108.73 160.102 108.382 157.552C109.037 157.341 109.717 157.185 110.342 156.906C111.919 156.2 112.904 156.462 113.428 158.279C113.942 160.063 114.719 161.773 115.448 163.714Z" fill="#FCD8A0"/>
<path d="M108.191 157.499C108.73 160.102 109.079 162.652 109.453 165.428C108.289 165.71 107.1 165.764 105.657 165.847C105.241 165.765 104.95 165.666 104.937 165.539C104.657 162.8 104.407 160.057 104.287 157.167C105.614 157.161 106.808 157.304 108.191 157.499Z" fill="#FCF8F1"/>
<path d="M114.272 86.3623C110.652 86.6713 107.025 86.7518 103.168 86.7283C102.948 86.0079 102.959 85.391 102.959 84.543C106.568 84.302 110.189 84.2921 114.09 84.29C114.335 84.9095 114.3 85.5212 114.272 86.3623Z" fill="#E5C290"/>
<path d="M66.1564 9.51182C66.0879 9.23333 66.1195 8.88891 66.1516 8.54449C66.238 8.70416 66.3243 8.86387 66.4307 9.16427C66.4496 9.3049 66.2559 9.4459 66.1564 9.51182Z" fill="#FEC670"/>
<path d="M135.567 117.256C135.809 117.218 136.05 117.18 136.474 117.129C137.407 121.586 138.327 126.038 138.798 130.537C138.926 131.759 137.7 133.122 137.053 134.64C136.246 135.252 135.483 135.643 134.57 135.79C134.802 129.449 135.185 123.353 135.567 117.256Z" fill="#FAD79F"/>
<path d="M135.43 117.036C135.185 123.353 134.802 129.449 134.382 135.795C134.097 140.285 133.784 144.524 133.625 148.769C133.538 151.107 132.551 152.139 130.146 152.131C116.004 152.086 101.86 152.091 87.7173 152.123C85.495 152.127 84.44 151.219 84.3515 148.973C84.1968 145.025 83.9093 141.081 83.6371 136.858C83.238 130.45 82.8795 124.319 82.4725 117.922C83.3339 117.092 84.2405 116.041 85.1534 116.036C101.054 115.936 116.956 115.952 132.857 116.001C133.67 116.003 134.48 116.532 135.43 117.036Z" fill="#8C8B8B"/>
<path d="M99.3978 58.0947C96.2226 57.9133 93.0474 57.7319 90.1976 57.5693C91.8997 54.9883 95.8372 54.8225 99.4046 57.9321C99.372 58.1303 99.3978 58.0947 99.3978 58.0947Z" fill="#6C6459"/>
<path d="M125.192 56.1023C125.878 56.4615 126.328 56.7579 127.091 57.2598C123.861 57.4841 121.106 57.6754 117.796 57.9049C119.984 55.5957 122.353 55.4473 125.192 56.1023Z" fill="#676156"/>
<path d="M99.3593 58.1491C99.4183 58.1376 99.4899 58.1078 99.561 58.078C99.5315 58.1397 99.502 58.2019 99.4352 58.1794C99.3978 58.0947 99.3715 58.1303 99.3593 58.1491Z" fill="#6C6459"/>
</svg>
