<?xml version="1.0" encoding="UTF-8"?>
<svg id="Layer_2" data-name="Layer 2" xmlns="http://www.w3.org/2000/svg" viewBox="0 0 203.65 505.76">
  <defs>
    <style>
      .cls-1 {
        fill: #fff;
      }

      .cls-2 {
        fill: #818285;
      }

      .cls-3 {
        fill: #595a5c;
      }
    </style>
  </defs>
  <g id="verbs-caminar">
    <g>
      <path class="cls-3" d="M98.16,316.24c2.42-11.73,13.45-21.01,27.42-23.23,15.51-2.46,31.62,4.29,38.42,16.42-.07,5.69-.3,10.48-.52,14.08-.3,4.71-.65,8.28-1.09,12.82-.05,.52-.71,7.2-1.47,13.4-1.48,11.99-3.34,23.46-5.46,34.36-3.82,8.92-14.54,14.51-25.74,13.44-11.05-1.05-19.93-8.32-21.43-17.58-3.37-21.24-6.75-42.47-10.12-63.71Z"/>
      <path class="cls-3" d="M124.11,462.62c.45,1.16,1.57,2.02,2.9,2.22,1.73,.25,3.57-.66,4.24-2.22,6.86-15.85,13.37-33.85,18.58-53.86,2.96-11.36,5.2-22.22,6.89-32.49,.47-13.44-13.22-23.66-26.99-22.55-12.23,.98-22.64,10.74-22.05,22.55,5.48,28.78,10.95,57.56,16.43,86.34Z"/>
    </g>
    <path class="cls-3" d="M91.31,326.74c-4.46-13.56-16.7-22.95-30.46-23.52-15.29-.63-29.46,9.74-33.75,25.13,1.1,6.74,2.2,12.39,3.07,16.62,1.14,5.54,2.13,9.72,3.38,15.04,.14,.61,1.99,8.44,3.85,15.68,3.61,14.01,7.47,27.33,11.49,39.95,5.28,10.02,16.55,15.07,27.07,12.16,10.38-2.87,17.55-12.8,17.29-24-.64-25.69-1.29-51.37-1.93-77.06Z"/>
    <path class="cls-3" d="M92.95,502.53c-.22,1.44-1.13,2.63-2.37,3.05-1.61,.55-3.53-.26-4.46-2-9.45-17.79-18.96-38.19-27.59-61.15-4.9-13.04-9.03-25.59-12.51-37.52-2.9-15.87,8.33-30.01,21.7-30.72,11.88-.63,23.61,9.42,25.2,23.51,.01,34.94,.02,69.89,.03,104.83Z"/>
    <path class="cls-3" d="M65.73,176.24c1.34-4.71-.57-9.6-4.65-12.15-5.12-3.2-10.92-.96-11.32-.8-6.94,13.5-13.87,28.06-20.56,43.64-6.62,15.43-12.33,30.27-17.26,44.37,.22,6.36,4.26,12.03,10.36,14.54,6.81,2.8,15,1.15,20.19-4.15,2.65-7.49,18.08-67.29,23.23-85.45Z"/>
    <path class="cls-3" d="M11.95,251.3c4.57-5.3,12.27-7.35,19.11-5.11,6.99,2.29,11.64,8.57,11.44,15.5-4.69,18.32-9.38,36.65-14.07,54.97-.48,.59-5.81,6.95-14.86,6.64-8.24-.28-12.94-5.86-13.54-6.61-.14-8.24,.3-17.74,1.89-28.19,2.23-14.71,6.11-27.24,10.04-37.21Z"/>
    <path class="cls-3" d="M.02,316.69c2.16-6.62,8.93-10.83,15.8-10.15,5.84,.57,10.86,4.59,12.6,10.12-1.1,12.17-2.2,24.34-3.29,36.52-.07,.7-.33,1.08-.57,1.3-1.16,1.08-4.14,.57-7.33-1.45-1.42-.94-2.81-1.99-4.15-3.18C1.22,339.29,.01,323.93,.02,316.69Z"/>
    <path class="cls-3" d="M122.31,178.83c-1.81-5.22-.22-10.92,3.84-14.12,5.11-4.03,11.4-1.96,11.83-1.81,8.46,14.73,16.98,30.66,25.35,47.76,8.28,16.93,15.56,33.28,21.95,48.85,.31,7.21-3.45,13.96-9.65,17.28-6.92,3.71-15.67,2.49-21.58-3.09-3.43-8.27-24.77-74.73-31.75-94.87Z"/>
    <path class="cls-3" d="M185.28,259.51c-5.26-5.63-13.53-7.34-20.53-4.26-7.15,3.15-11.5,10.63-10.7,18.45,6.5,20.37,13,40.74,19.5,61.1,.55,.63,6.71,7.4,16.2,6.34,8.64-.97,13.1-7.67,13.67-8.56-.56-9.34-1.84-20.06-4.4-31.76-3.61-16.47-8.76-30.35-13.74-41.32Z"/>
    <path class="cls-3" d="M203.43,332.59c-2.83-7.32-10.32-11.55-17.49-10.23-6.09,1.12-11.03,6.06-12.38,12.46,2.2,13.69,4.39,27.38,6.59,41.07,.13,.78,.44,1.19,.71,1.42,1.31,1.13,4.4,.32,7.59-2.23,1.42-1.18,2.79-2.48,4.09-3.93,11.58-12.89,11.53-30.37,10.9-38.57Z"/>
    <g>
      <path class="cls-3" d="M49.66,163.89c1.74-2.27,17.44-22.08,44.65-22.01,27.05,.06,42.62,19.7,44.38,22.01,8.05,23.21,16.01,52.22,20.72,86.12,4.12,29.63,4.82,56.2,4.03,78.5-1.8,1.66-18.46,16.53-40.2,11.94-12.22-2.58-19.94-10.02-23-13.34-1.03,.54-3.28,1.53-6.27,1.43-2.58-.09-4.51-.95-5.51-1.49-3.34,3.38-11.31,10.5-23.63,12.98-21.61,4.36-38.16-9.27-40.41-11.19-.94-22.89-.29-50.91,4.44-82.44,4.9-32.63,12.87-60.43,20.8-82.51Z"/>
      <g>
        <path class="cls-2" d="M49.66,163.89c-.64-.18-8.36,22.88-14.37,48.81-2.74,11.81-4.84,23.08-6.43,33.7-1.61,10.68-3.62,24.05-4.14,40.71-.77,24.6,2.14,42.9,2.32,42.89,.18-.01-2.53-18.98-1.13-44.77,.73-13.38,2.33-24.28,4.71-37.64,8.76-49,19.67-83.53,19.04-83.71Z"/>
        <path class="cls-2" d="M138.9,164.4c.64-.18,7.73,22.02,13.74,47.94,2.74,11.81,4.84,23.08,6.43,33.7,1.12,7.44,3.1,21.97,4.14,40.71,1.16,20.75,.9,41.71,.3,41.72-.78,.02,.58-35.32-6.21-81.24-7.23-48.94-19.19-82.63-18.41-82.85Z"/>
      </g>
    </g>
    <g>
      <g>
        <circle class="cls-3" cx="92.95" cy="87.55" r="87.55"/>
        <path class="cls-2" d="M64.39,170.33s28.56,13.13,57.12,0c0,0-28.56,10.65-57.12,0Z"/>
      </g>
      <path class="cls-1" d="M63.43,131.93s22.95,7.77,58.36,0c0,0-13.48,21.14-29.18,20.77,0,0-17.22,.48-29.18-20.77Z"/>
      <g>
        <g>
          <rect x="25.25" y="79.77" width="85.69" height="5.78"/>
          <rect x="25.2" y="85.49" width="67.43" height="5.78"/>
          <rect x="31.13" y="91.04" width="61.49" height="5.78"/>
          <rect x="36.22" y="96.73" width="51.66" height="5.78"/>
          <rect x="40.52" y="102.53" width="41.44" height="5.78"/>
          <rect class="cls-1" x="37.83" y="86.52" width="6.02" height="5.78"/>
          <rect class="cls-1" x="44.15" y="92.41" width="6.02" height="5.78"/>
          <rect class="cls-1" x="50.48" y="98.09" width="6.02" height="5.78"/>
          <rect class="cls-1" x="50.05" y="86.2" width="6.02" height="5.78"/>
          <rect class="cls-1" x="56.37" y="92.09" width="6.02" height="5.78"/>
          <rect class="cls-1" x="62.7" y="97.76" width="6.02" height="5.78"/>
        </g>
        <g>
          <rect x="83.29" y="79.62" width="85.69" height="5.78" transform="translate(252.27 165.02) rotate(-180)"/>
          <rect x="101.6" y="85.35" width="67.43" height="5.78" transform="translate(270.63 176.47) rotate(-180)"/>
          <rect x="101.62" y="90.9" width="61.49" height="5.78" transform="translate(264.72 187.57) rotate(-180)"/>
          <rect x="106.35" y="96.58" width="51.66" height="5.78" transform="translate(264.36 198.94) rotate(-180)"/>
          <rect x="112.28" y="102.39" width="41.44" height="5.78" transform="translate(265.99 210.56) rotate(-180)"/>
          <rect class="cls-1" x="109.33" y="86.23" width="6.02" height="5.78"/>
          <rect class="cls-1" x="115.66" y="92.13" width="6.02" height="5.78"/>
          <rect class="cls-1" x="121.99" y="97.8" width="6.02" height="5.78"/>
          <rect class="cls-1" x="121.55" y="85.91" width="6.02" height="5.78"/>
          <rect class="cls-1" x="127.88" y="91.8" width="6.02" height="5.78"/>
          <rect class="cls-1" x="134.21" y="97.47" width="6.02" height="5.78"/>
        </g>
      </g>
    </g>
  </g>
</svg>