<?xml version="1.0" encoding="UTF-8"?>
<svg id="Layer_2" data-name="Layer 2" xmlns="http://www.w3.org/2000/svg" viewBox="0 0 219.75 495.69">
  <defs>
    <style>
      .cls-1 {
        fill: #fff;
      }

      .cls-2 {
        fill: #818285;
      }

      .cls-3 {
        fill: #231f20;
      }

      .cls-4 {
        fill: #595a5c;
      }
    </style>
  </defs>
  <g id="verbs-correr">
    <g>
      <g>
        <path class="cls-4" d="M117.62,319.41c2.32-13.91,12.86-24.92,26.22-27.55,14.84-2.91,30.24,5.09,36.75,19.48-.06,6.75-.28,12.44-.5,16.69-.29,5.59-.62,9.82-1.05,15.2-.05,.61-.68,8.54-1.41,15.89-1.42,14.23-3.2,27.82-5.23,40.75-3.65,10.58-13.91,17.2-24.61,15.95-10.57-1.24-19.06-9.87-20.49-20.85-3.23-25.19-6.45-50.38-9.68-75.56Z"/>
        <path class="cls-4" d="M142.43,493.02c.43,1.37,1.5,2.4,2.78,2.63,1.65,.3,3.41-.78,4.05-2.63,6.56-18.79,12.79-40.15,17.77-63.88,2.83-13.47,4.98-26.36,6.59-38.53,.45-15.94-12.64-28.06-25.82-26.75-11.7,1.17-21.65,12.74-21.09,26.75,5.24,34.14,10.47,68.27,15.71,102.41Z"/>
      </g>
      <path class="cls-4" d="M105.01,312.52c-1.09-1.98-9.15-16.05-26.13-19.22-13.42-2.51-27.34,2.73-36.35,13.55-.14,5.3,.05,9.2,.23,11.69,.2,2.79,.66,7.25,1.04,10.61,.05,.43,.67,5.96,1.4,11.09,1.41,9.93,3.19,19.42,5.21,28.44,3.64,7.38,13.86,12.01,24.53,11.13,10.53-.87,19-6.89,20.42-14.55,3.22-17.58,6.43-35.15,9.65-52.73Z"/>
      <path class="cls-4" d="M61.57,425.59c-.64,.71-1.81,1.03-3.03,.82-1.58-.27-3.01-1.4-3.27-2.68-2.71-13.06-4.67-27.58-5.05-43.17-.22-8.86,.09-17.17,.76-24.92,2.42-9.69,16.63-13.39,28.55-9.01,10.58,3.89,17.7,13.55,14.69,21.8-10.89,19.05-21.77,38.11-32.66,57.16Z"/>
      <path class="cls-4" d="M99.89,171.28c4.47-2.62,6.8-7.65,5.85-12.41-1.19-5.99-6.94-8.34-7.33-8.49-14.99,5.36-30.76,11.52-47.14,18.62-16.21,7.03-31.34,14.26-45.38,21.47-4.61,4.95-6.04,12.05-3.64,18.19,2.68,6.85,9.65,11.31,17.26,10.93,7.48-3.81,63.14-38.2,80.38-48.32Z"/>
      <path class="cls-4" d="M1.78,196.88c3.2-6.47,10.17-10.23,17.29-9.35,7.27,.9,13.18,6.45,14.57,13.7-.36,20.04-.72,40.08-1.08,60.11-.33,.71-4.03,8.45-12.84,10.05-8.02,1.45-13.82-3.36-14.58-4.01-2.01-8.54-3.74-18.51-4.59-29.7-1.19-15.76-.29-29.61,1.23-40.8Z"/>
      <path class="cls-4" d="M4.56,260.85c2.13-7.04,8.83-11.52,15.62-10.8,5.77,.61,10.74,4.88,12.45,10.77-1.08,12.95-2.17,25.91-3.25,38.86-.07,.74-.33,1.15-.56,1.38-1.15,1.15-4.09,.61-7.25-1.54-1.41-1-2.78-2.12-4.1-3.38-11.73-11.23-12.92-27.57-12.91-35.28Z"/>
      <path class="cls-4" d="M142.41,181.54c-2.74-4.4-2.48-9.93,.57-13.71,3.83-4.75,10.01-4.17,10.44-4.12,10.8,11.7,21.91,24.47,33.13,38.36,11.1,13.75,21.15,27.17,30.24,40.07,1.79,6.53-.24,13.48-5.21,17.8-5.55,4.83-13.8,5.54-20.36,1.68-4.86-6.84-38.22-63.13-48.8-80.09Z"/>
      <g>
        <path class="cls-4" d="M67.58,164.14c1.72-2.24,17.24-21.82,44.13-21.75,26.73,.06,42.12,19.47,43.87,21.75,7.96,22.94,15.82,51.61,20.48,85.11,4.07,29.28,4.76,55.55,3.98,77.58-1.78,1.65-18.24,16.34-39.73,11.8-12.08-2.55-19.71-9.9-22.73-13.18-1.01,.53-3.24,1.52-6.2,1.41-2.55-.09-4.46-.94-5.45-1.47-3.25,3.29-11.13,10.36-23.35,12.83-20.69,4.18-36.55-8.3-38.89-10.2-1.38-22.46-1.23-50.51,3.34-82.33,4.68-32.57,12.7-60.08,20.56-81.55Z"/>
        <g>
          <path class="cls-2" d="M67.58,164.14c-.63-.18-8.26,22.61-14.2,48.24-2.71,11.67-4.78,22.82-6.36,33.31-1.23,8.17-3.27,22.02-4.09,40.24-.97,21.32,.02,42.09,.75,42.1,.95,0-1.39-35.1,5.08-81.15,6.78-48.26,19.57-82.52,18.82-82.73Z"/>
          <path class="cls-2" d="M155.77,164.64c.63-.18,7.64,21.76,13.58,47.38,2.71,11.67,4.78,22.82,6.36,33.31,1.1,7.35,3.06,21.71,4.09,40.24,1.15,20.5,.89,41.22,.3,41.24-.77,.02,.57-34.91-6.13-80.29-7.15-48.37-18.97-81.66-18.2-81.88Z"/>
        </g>
      </g>
      <path class="cls-4" d="M208.81,265.71c6.74-2.58,11.14-9.16,10.94-16.33-.21-7.32-5.18-13.73-12.26-15.79-19.98-1.53-39.97-3.07-59.95-4.6-.74,.26-8.8,3.22-11.21,11.83-2.2,7.85,2.04,14.08,2.62,14.89,8.31,2.8,18.07,5.47,29.13,7.37,15.58,2.68,29.45,3.09,40.73,2.63Z"/>
      <path class="cls-4" d="M143.05,257.24c7.35-.61,13.19-6.32,13.97-13.24,.66-5.88-2.42-11.74-7.79-14.71-12.89-1.7-25.78-3.4-38.67-5.09-.74-.09-1.19,.08-1.47,.26-1.37,.89-1.49,3.94-.08,7.55,.67,1.62,1.46,3.22,2.41,4.81,8.4,14.09,24.1,18.78,31.63,20.43Z"/>
      <g>
        <g>
          <circle class="cls-4" cx="114.53" cy="88.45" r="88.45"/>
          <path class="cls-2" d="M85.68,172.08s28.85,13.27,57.7,0c0,0-28.85,10.76-57.7,0Z"/>
        </g>
        <path class="cls-1" d="M89.07,154.04c-1.36-1.97,3.09-7.38,6.57-10.33,7.72-6.55,17.2-6.56,20.42-6.43,3.49,.15,12.25,1.03,19.25,7.58,.79,.74,6.16,5.76,4.93,7.8-1.56,2.6-11.21-3.91-25.35-3.67-14.73,.25-24.01,7.66-25.82,5.05Z"/>
        <g>
          <ellipse class="cls-1" cx="85.4" cy="95.55" rx="12.01" ry="18.78"/>
          <ellipse class="cls-1" cx="143.98" cy="95.55" rx="12.01" ry="18.78"/>
          <ellipse class="cls-3" cx="85.65" cy="99.31" rx="9.42" ry="15.02"/>
          <ellipse class="cls-1" cx="79.99" cy="88.02" rx="2.38" ry="3.73"/>
          <ellipse class="cls-3" cx="143.91" cy="99.31" rx="9.55" ry="15.02"/>
          <ellipse class="cls-1" cx="138.9" cy="88.02" rx="2.38" ry="3.73"/>
        </g>
      </g>
      <path class="cls-2" d="M124.69,250.04c5.8,2.59,12.46,5.18,19.93,7.49,7.31,2.26,14.12,3.85,20.26,4.98-5.38-.06-12.99-.73-21.64-3.5-8.04-2.57-14.26-6.09-18.55-8.97Z"/>
      <path class="cls-2" d="M133.21,227.17c4.62,.67,9.4,1.28,14.33,1.81,7.64,.81,14.99,1.36,22,1.69-7.06-1.31-14.84-2.38-23.26-2.98-4.54-.32-8.91-.48-13.07-.52Z"/>
      <path class="cls-2" d="M114.53,224.71c-1.17-.03-2.11-.14-2.79-.26-1.26-.21-2.08-.47-2.64,0-.27,.22-.37,.51-.45,.79-.64,2.13-.4,4.01-.4,4.01,.2,1.61,.74,2.91,1.24,3.83-.47-.86-2.59-4.92-1.68-7.75,.14-.42,.41-1.28,1.16-1.64,.55-.27,1.08-.14,2.44,.21,1.32,.34,2.4,.63,3.13,.83Z"/>
    </g>
  </g>
</svg>