<?xml version="1.0" encoding="UTF-8"?>
<svg id="Layer_2" data-name="Layer 2" xmlns="http://www.w3.org/2000/svg" viewBox="0 0 266.63 503.05">
  <defs>
    <style>
      .cls-1 {
        fill: #fff;
      }

      .cls-2 {
        fill: #e72b5c;
      }

      .cls-3 {
        fill: #818285;
      }

      .cls-4 {
        fill: #231f20;
      }

      .cls-5 {
        fill: #595a5c;
      }
    </style>
  </defs>
  <g id="verbs-amar">
    <g>
      <g>
        <path class="cls-5" d="M146.48,322.44c2.41-14.13,13.4-25.3,27.3-27.97,15.45-2.96,31.49,5.17,38.26,19.77-.07,6.86-.3,12.62-.52,16.95-.3,5.67-.65,9.97-1.09,15.43-.05,.62-.7,8.67-1.47,16.14-1.48,14.44-3.33,28.25-5.44,41.37-3.8,10.74-14.48,17.47-25.63,16.19-11-1.26-19.85-10.02-21.34-21.17-3.36-25.57-6.72-51.14-10.08-76.71Z"/>
        <path class="cls-5" d="M172.31,498.69c.45,1.39,1.56,2.43,2.89,2.67,1.72,.3,3.55-.79,4.22-2.67,6.83-19.08,13.32-40.76,18.51-64.85,2.95-13.68,5.18-26.76,6.86-39.12,.47-16.18-13.16-28.49-26.88-27.16-12.18,1.18-22.54,12.94-21.96,27.16,5.45,34.66,10.91,69.31,16.36,103.97Z"/>
      </g>
      <path class="cls-5" d="M136.95,324.08c-2.41-14.13-13.39-25.3-27.3-27.97-15.45-2.96-31.48,5.17-38.25,19.77,.07,6.86,.3,12.62,.52,16.95,.3,5.67,.65,9.97,1.09,15.43,.05,.62,.7,8.67,1.47,16.14,1.48,14.44,3.33,28.25,5.44,41.37,3.8,10.74,14.48,17.47,25.63,16.19,11-1.26,19.84-10.02,21.33-21.17,3.36-25.57,6.72-51.14,10.08-76.71Z"/>
      <path class="cls-5" d="M111.1,500.33c-.45,1.39-1.57,2.43-2.91,2.67-1.73,.3-3.57-.79-4.24-2.67-6.86-19.08-13.38-40.76-18.6-64.85-2.96-13.68-5.21-26.76-6.89-39.12-.47-16.18,13.23-28.49,27.01-27.16,12.24,1.18,22.66,12.94,22.07,27.16-5.48,34.66-10.96,69.31-16.44,103.97Z"/>
      <g>
        <path class="cls-5" d="M97.32,164.8c1.74-2.28,17.5-22.15,44.8-22.09,27.14,.06,42.77,19.77,44.53,22.08,8.08,23.29,16.06,52.39,20.79,86.41,4.13,29.73,4.84,56.39,4.04,78.76-1.81,1.67-18.52,16.59-40.34,11.98-12.26-2.59-20.01-10.05-23.08-13.38-1.03,.54-3.29,1.54-6.3,1.44-2.59-.09-4.53-.96-5.53-1.49-3.35,3.39-11.35,10.53-23.71,13.02-21.69,4.37-38.29-9.3-40.55-11.22-.95-22.97-.29-51.08,4.46-82.72,4.91-32.74,12.91-60.63,20.87-82.79Z"/>
        <g>
          <path class="cls-3" d="M97.32,164.8c-.64-.18-8.39,22.96-14.42,48.97-2.75,11.85-4.85,23.16-6.45,33.82-1.12,7.46-3.11,22.05-4.16,40.85-1.16,20.82-.9,41.85-.3,41.86,.78,.02-.58-35.44,6.23-81.51,7.26-49.11,19.89-83.77,19.1-83.99Z"/>
          <path class="cls-3" d="M186.85,165.32c.64-.18,7.76,22.09,13.79,48.11,2.75,11.85,4.85,23.16,6.45,33.82,1.12,7.46,3.11,22.05,4.16,40.85,1.16,20.82,.9,41.85,.3,41.86-.78,.02,.58-35.44-6.23-81.51-7.26-49.11-19.26-82.91-18.47-83.13Z"/>
        </g>
      </g>
      <path class="cls-5" d="M106.89,181.57c4.73-2.3,7.5-7.19,6.92-12.09-.73-6.15-6.35-9-6.74-9.18-15.6,4.22-32.06,9.19-49.2,15.07-16.97,5.82-32.87,11.92-47.65,18.09-5.07,4.64-7.08,11.71-5.14,18.12,2.16,7.15,8.86,12.22,16.59,12.45,7.88-3.25,66.97-33.6,85.22-42.45Z"/>
      <path class="cls-5" d="M179.5,178.96c-3.46-3.96-4.1-9.55-1.67-13.83,3.06-5.39,9.35-5.81,9.79-5.83,12.73,9.96,25.95,20.95,39.45,33.03,13.37,11.97,25.63,23.78,36.84,35.22,2.86,6.25,1.96,13.54-2.32,18.69-4.77,5.75-12.92,7.81-20.13,5-5.99-6.06-48.6-57.02-61.97-72.29Z"/>
      <g>
        <ellipse class="cls-5" cx="142.19" cy="88.76" rx="88.22" ry="88.76"/>
        <path class="cls-3" d="M141.9,177.38c-2.8,.05-5.83-.05-9.06-.36-7.89-.77-14.61-2.6-19.95-4.55,7.62,1.74,17.46,3.27,28.98,3.3,11.75,.03,21.78-1.51,29.5-3.26-4.51,1.69-10.29,3.38-17.14,4.27-4.58,.59-8.74,.71-12.33,.6Z"/>
      </g>
      <g>
        <path class="cls-2" d="M141.85,236.22c-2.5,27.95-5,55.89-7.5,83.84-17.35-13.59-34.71-27.18-52.06-40.77-27.43-25.07-27.9-57.47-11.03-71.53,10.33-8.61,29.93-12.65,46.76-5.38,14.35,6.2,23.58,19.29,23.82,33.84Z"/>
        <path class="cls-2" d="M126.84,236.22c2.5,27.95,5,55.89,7.5,83.84,17.35-13.59,34.71-27.18,52.06-40.77,27.43-25.07,27.9-57.47,11.03-71.53-10.33-8.61-29.93-12.65-46.76-5.38-14.35,6.2-23.58,19.29-23.82,33.84Z"/>
      </g>
      <path class="cls-5" d="M53.95,263.22c-5.87-4.62-7.62-12.61-4.42-18.77,2.72-5.23,8.59-8.34,14.79-7.78,11.84,5.82,23.68,11.65,35.53,17.47,.68,.34,.96,.73,1.1,1.04,.66,1.51-.94,4.09-4.14,6.28-1.47,.96-3.03,1.84-4.72,2.62-14.96,6.93-30.85,2-38.13-.86Z"/>
      <path class="cls-5" d="M208.95,287.79c6.98-2.67,11.03-9.78,9.8-16.6-1.04-5.8-5.73-10.52-11.81-11.83-13.04,2.04-26.07,4.09-39.11,6.13-.75,.12-1.14,.41-1.36,.67-1.08,1.24-.32,4.18,2.09,7.23,1.11,1.35,2.35,2.66,3.72,3.9,12.22,11.06,28.86,11.08,36.66,10.5Z"/>
      <path class="cls-5" d="M265.32,243.22c2.8-6.78,1.01-14.61-4.42-19.46-5.55-4.95-13.75-5.75-20.2-1.97-15.07,13.68-30.13,27.35-45.2,41.03-.33,.72-3.76,8.73,.91,16.53,4.25,7.1,11.81,8.31,12.81,8.45,7.86-4.18,16.64-9.52,25.76-16.36,12.84-9.63,22.82-19.58,30.34-28.22Z"/>
      <path class="cls-5" d="M.87,214.35c-2.3-6.96,.05-14.65,5.83-19.09,5.89-4.53,14.13-4.74,20.29-.5,14.03,14.73,28.06,29.47,42.1,44.2,.27,.75,3.11,8.98-2.11,16.42-4.76,6.77-12.38,7.43-13.39,7.5-7.54-4.74-15.91-10.7-24.5-18.18-12.11-10.54-21.33-21.18-28.21-30.35Z"/>
      <path class="cls-3" d="M183.07,283.64c3.14,1.13,6.75,2.19,10.76,2.94,4.07,.77,7.81,1.09,11.1,1.16-3.4,.31-6.26,.2-8.39,0-1.65-.15-3.46-.32-5.78-.93-3.23-.85-5.84-2.11-7.69-3.18Z"/>
      <g>
        <g>
          <ellipse class="cls-1" cx="112.79" cy="94.57" rx="12.05" ry="18.85"/>
          <ellipse class="cls-4" cx="112.79" cy="94.57" rx="7.49" ry="11.71"/>
          <ellipse class="cls-1" cx="107.69" cy="86.6" rx="2.39" ry="3.74"/>
        </g>
        <g>
          <ellipse class="cls-1" cx="171.6" cy="94.57" rx="12.05" ry="18.85"/>
          <ellipse class="cls-4" cx="171.93" cy="94.57" rx="7.49" ry="11.71"/>
          <ellipse class="cls-1" cx="166.84" cy="86.6" rx="2.39" ry="3.74"/>
        </g>
        <path class="cls-1" d="M112.79,132.56s23.13,7.83,58.81,0c0,0-13.58,21.31-29.41,20.93,0,0-17.35,.48-29.41-20.93Z"/>
      </g>
    </g>
  </g>
</svg>