<?xml version="1.0" encoding="UTF-8"?>
<svg id="Layer_2" data-name="Layer 2" xmlns="http://www.w3.org/2000/svg" viewBox="0 0 493.27 491.05">
  <defs>
    <style>
      .cls-1 {
        fill: #e9c61d;
      }

      .cls-2 {
        fill: #fff;
      }

      .cls-3 {
        fill: #ef509c;
      }

      .cls-4 {
        fill: #818285;
      }

      .cls-5 {
        fill: #85602c;
      }

      .cls-6 {
        fill: #856a3f;
      }

      .cls-7 {
        fill: #b5509e;
      }

      .cls-8 {
        fill: #a5469a;
      }

      .cls-9 {
        fill: #afdfe4;
      }

      .cls-10 {
        fill: #e41c43;
      }

      .cls-11 {
        fill: #105d66;
      }

      .cls-12 {
        fill: #167c91;
      }

      .cls-13 {
        fill: #231f20;
      }

      .cls-14 {
        fill: #422f13;
      }

      .cls-15 {
        fill: #595a5c;
      }

      .cls-16 {
        fill: #60c8d4;
      }

      .cls-17 {
        fill: #755227;
      }

      .cls-18 {
        fill: none;
        stroke: #818285;
        stroke-miterlimit: 10;
        stroke-width: 2px;
      }

      .cls-19 {
        fill: #f7b1c4;
        opacity: .57;
      }
    </style>
  </defs>
  <g id="verbs-abrir">
    <g>
      <path class="cls-6" d="M133.39,455.3h236.64c109.31-147.45,82.11-310.33-9.76-367.54-58.96-36.72-148.09-32.12-206.09,5.46-94.66,61.33-122,220.57-20.8,362.08Z"/>
      <path class="cls-9" d="M143.28,455.3h217.44c100.44-142.8,75.45-300.55-8.97-355.97-54.17-35.56-136.07-31.11-189.36,5.29-86.98,59.39-112.1,213.62-19.11,350.68Z"/>
    </g>
    <g>
      <path class="cls-15" d="M1.29,361.78c2.58-4.4,7.83-6.33,12.29-4.74,3.79,1.35,6.44,5.04,6.64,9.28-2.84,8.56-5.68,17.11-8.52,25.67-.17,.49-.41,.72-.6,.84-.96,.59-2.85-.26-4.63-2.22-.79-.9-1.53-1.88-2.21-2.95-6.08-9.48-4.23-20.69-2.97-25.88Z"/>
      <path class="cls-15" d="M209.26,321.06c-4.04-3.12-9.62-2.96-13.17,.17-3.01,2.66-4.11,7.07-2.71,11.09,5.82,6.88,11.64,13.77,17.46,20.65,.34,.39,.65,.52,.87,.56,1.11,.19,2.55-1.3,3.48-3.79,.39-1.13,.72-2.32,.96-3.56,2.12-11.06-3.78-20.77-6.88-25.13Z"/>
      <g>
        <path class="cls-15" d="M105.48,365.05c.59-9.76,7.07-18.12,16.09-20.9,10.02-3.08,21.23,1.32,26.75,10.77,.45,4.66,.7,8.6,.86,11.55,.21,3.87,.28,6.82,.38,10.56,.01,.43,.15,5.94,.18,11.06,.05,9.91-.19,19.42-.66,28.48-1.75,7.56-8.35,12.87-15.82,12.78-7.38-.09-13.86-5.43-15.64-12.9-4.05-17.14-8.1-34.28-12.14-51.42Z"/>
        <path class="cls-15" d="M135.15,483c.39,.91,1.21,1.55,2.1,1.61,1.16,.09,2.3-.78,2.61-2.11,3.16-13.44,5.92-28.62,7.64-45.34,.98-9.5,1.53-18.54,1.76-27.05-.84-11.03-10.75-18.44-19.74-16.58-7.98,1.65-14.01,10.35-12.61,19.98,6.08,23.17,12.16,46.33,18.24,69.5Z"/>
      </g>
      <path class="cls-15" d="M96.9,367.08c-2.6-9.43-10.68-16.26-20.08-17.1-10.44-.94-20.49,5.7-23.93,16.09,.53,4.65,1.1,8.56,1.55,11.48,.6,3.83,1.14,6.73,1.82,10.41,.08,.42,1.08,5.84,2.12,10.86,2.01,9.71,4.22,18.96,6.55,27.73,3.28,7.03,10.84,10.86,18.13,9.22,7.2-1.62,12.43-8.19,12.62-15.86,.4-17.61,.81-35.21,1.21-52.82Z"/>
      <path class="cls-15" d="M92.28,487.93c-.2,.97-.86,1.75-1.73,2-1.12,.32-2.41-.29-2.98-1.51-5.87-12.39-11.7-26.55-16.84-42.43-2.92-9.02-5.32-17.68-7.31-25.89-1.45-10.88,6.7-20.12,15.88-20.18,8.15-.05,15.85,7.15,16.46,16.78-1.16,23.74-2.32,47.48-3.48,71.23Z"/>
      <path class="cls-15" d="M69.61,271.59c1.71-3.16,1.28-6.98-.99-9.46-2.86-3.12-7.11-2.45-7.4-2.4-6.96,8.57-14.1,17.9-21.25,28-7.08,10-13.45,19.73-19.18,29.06-.95,4.6,.76,9.32,4.39,12.09,4.05,3.1,9.79,3.23,14.17,.27,3.07-4.95,23.7-45.36,30.27-57.56Z"/>
      <path class="cls-15" d="M20.78,316.79c3.96-3.07,9.44-3.3,13.62-.59,4.26,2.76,6.27,8.02,4.94,12.96-6.3,12.39-12.59,24.78-18.89,37.17-.42,.35-5.08,4.05-11.05,2.38-5.44-1.52-7.6-6.29-7.88-6.92,1.33-5.93,3.27-12.68,6.14-19.92,4.03-10.19,8.79-18.56,13.13-25.08Z"/>
      <path class="cls-15" d="M112.49,262.7c-2.76-2.3-3.79-6-2.6-9.15,1.49-3.96,5.69-4.92,5.98-4.98,9.65,5.36,19.75,11.36,30.15,18.08,10.3,6.65,19.83,13.3,28.62,19.83,2.6,3.91,2.77,8.93,.43,12.86-2.61,4.39-7.88,6.65-13.05,5.53-4.69-3.45-38.88-33.28-49.52-42.15Z"/>
      <path class="cls-15" d="M174.63,286.48c-4.82-1.37-9.99,.45-12.86,4.52-2.93,4.15-2.83,9.78,.24,13.86,10.46,9.16,20.91,18.31,31.37,27.47,.52,.16,6.22,1.87,11.14-1.91,4.48-3.44,4.72-8.66,4.74-9.35-3.45-5.01-7.76-10.55-13.11-16.2-7.54-7.96-15.07-13.95-21.52-18.39Z"/>
      <g>
        <path class="cls-15" d="M59.73,261.58c1.02-1.67,10.31-16.29,28.86-18.2,18.44-1.89,30.46,10.38,31.83,11.83,7.15,15.25,14.64,34.45,20.28,57.22,4.93,19.9,7.3,37.97,8.36,53.22-1.11,1.26-11.4,12.59-26.55,11.01-8.51-.88-14.31-5.4-16.63-7.45-.66,.44-2.13,1.28-4.17,1.42-1.76,.12-3.15-.33-3.87-.62-2.03,2.54-6.96,7.96-15.18,10.54-14.42,4.52-26.67-3.59-28.35-4.74-2.28-15.54-3.84-34.68-2.87-56.51,1-22.59,4.45-42.11,8.28-57.73Z"/>
        <g>
          <path class="cls-4" d="M59.73,261.58c-.45-.08-4.06,16.19-6.31,34.3-1.02,8.25-1.65,16.08-1.97,23.43-.23,5.15-.54,15.2,.09,28.05,.69,14.22,2.37,28.49,2.78,28.46,.53-.04-2.92-24.04-1.58-55.82,1.43-33.88,7.54-58.33,6.99-58.42Z"/>
          <path class="cls-4" d="M120.6,255.55c.42-.17,6.84,14.46,12.8,31.7,2.71,7.86,4.95,15.39,6.79,22.51,1.29,4.99,3.68,14.76,5.73,27.46,2.27,14.06,3.59,28.36,3.19,28.42-.53,.07-2.13-24.12-10.04-54.93-8.43-32.84-18.99-54.95-18.47-55.16Z"/>
        </g>
      </g>
      <g>
        <g>
          <circle class="cls-15" cx="84.4" cy="206.11" r="60.88"/>
          <path class="cls-4" d="M70.65,265.44s20.7,7.01,39.5-4.14c0,0-18.98,9.44-39.5,4.14Z"/>
        </g>
        <path class="cls-18" d="M61.94,237.76c2.98,1.84,12.69,7.33,25.95,6.02,13.56-1.34,22.13-8.94,24.63-11.33"/>
        <path class="cls-4" d="M92.21,242.99c-.71,7.86,3.87,14.13,9.33,15.04,3.27,.55,6.99-.8,9.04-3.47,3.35-4.34,2.32-12.21-3.9-17.5-4.83,1.98-9.65,3.95-14.48,5.93Z"/>
      </g>
      <g>
        <path class="cls-16" d="M62.31,225.64s2.01-.57,4.28-.45l-1.37-.9s-2.62,.58-2.92,1.35Z"/>
        <path class="cls-16" d="M49.23,203.21s.87,2.59,7.6,4.34c0,0,4.17,1.42,4.93-6.92,0,0-5.92,1.07-13-4.74,0,0,.31,4.77,9.53,7.48,0,0,.56,.39,.04,.78,0,0-5.01,1.23-9.1-.94Z"/>
        <ellipse class="cls-2" cx="65.47" cy="212.39" rx="8.22" ry="12.85" transform="translate(-21.8 7.99) rotate(-5.99)"/>
        <path class="cls-16" d="M119.33,195.85s-.31,2.71-6.53,5.82c0,0-3.78,2.26-6.26-5.74,0,0,6.01-.18,11.73-7.33,0,0,.68,4.73-7.77,9.3,0,0-.47,.5,.12,.77,0,0,5.15,.17,8.71-2.81Z"/>
        <path class="cls-16" d="M111.54,220.48s-2.09-.14-4.28,.45l1.15-1.17s2.68,.03,3.13,.72Z"/>
        <ellipse class="cls-2" cx="105.35" cy="208.21" rx="8.22" ry="12.85" transform="translate(-21.14 12.13) rotate(-5.99)"/>
        <ellipse class="cls-13" cx="65.92" cy="214.93" rx="6.45" ry="10.28" transform="translate(-22.06 8.05) rotate(-5.99)"/>
        <ellipse class="cls-2" cx="61.25" cy="207.65" rx="1.63" ry="2.55" transform="translate(-21.33 7.52) rotate(-5.99)"/>
        <ellipse class="cls-13" cx="105.57" cy="210.77" rx="6.54" ry="10.28" transform="translate(-21.41 12.16) rotate(-5.99)"/>
        <ellipse class="cls-2" cx="101.36" cy="203.44" rx="1.63" ry="2.55" transform="translate(-20.67 11.68) rotate(-5.99)"/>
        <ellipse class="cls-19" cx="60.12" cy="234.13" rx="7.6" ry="2" transform="translate(-24.1 7.55) rotate(-5.99)"/>
        <ellipse class="cls-19" cx="116.99" cy="228.16" rx="7.6" ry="2" transform="translate(-23.16 13.45) rotate(-5.99)"/>
      </g>
    </g>
    <g>
      <g>
        <path class="cls-6" d="M227.81,484.79c57.47-10.55,114.93-21.1,172.4-31.65,43.8-80.78,51.12-150.27,51.35-191.92,.29-53.26,.67-121.75-55.02-166.12-8.78-7-43.17-34.4-89.87-32.6,0,0-41.52,1.6-82.53,35.71-62.17,51.71-58.57,203.29,3.67,386.59Z"/>
        <path class="cls-12" d="M237.55,480.57c51.03-9.26,102.06-18.52,153.09-27.79,41.21-80.21,46.07-149.39,45.79-186.19-.38-48.61-.24-117.24-48.9-158.99-7.81-6.7-38.37-32.93-79.88-31.2,0,0-36.91,1.53-73.36,34.18-55.25,49.49-52.06,194.57,3.26,369.99Z"/>
      </g>
      <path class="cls-17" d="M475.43,241.55c-31.4-31.44-69.63-65.62-115.3-99.43-37.36-27.65-73.35-50.35-106.36-68.95-11.94-5.79-15.79-20.06-10.08-29.35,4.61-7.51,15.06-11.1,24.81-7.63,33.38,14.85,76.3,37.85,120.89,73.33,46.34,36.87,79.25,75.08,101.47,105.14,.47,.83,4.49,8.24,.95,16.22-2.79,6.31-9.2,10.48-16.4,10.67Z"/>
      <path class="cls-5" d="M390.64,452.78c55.24-130.95,53.1-187.11,39.51-213.83-2.53-4.97-15.1-27.91-28.98-61.59-9.01-21.86-15.2-40.09-18.91-51.63,.37-1.6,1.85-7.18,7.13-10.87,5.47-3.82,12.89-4.13,19.29-.91,11.38,35.62,22.77,71.25,34.15,106.87,7.87-20.74,8.26-37,7.19-47.98-1.24-12.64-4.51-19.09-8.09-38.06-3.11-16.47-4.14-30.12-4.53-38.95-2.59-9.39,3.57-18.09,10.87-19.02,5.69-.73,12,3.26,14.49,9.96,3.02,9.14,8.08,26.17,10.87,48,6.51,51.09-6.66,71.9-8.15,148.54-.51,25.97-.76,38.96,.91,57.06,2.7,29.32,7.51,43.35,5.43,67.93-1.49,17.61-5.75,31.72-9.06,40.76-24.04,1.24-48.08,2.47-72.12,3.71Z"/>
      <path class="cls-5" d="M215.06,491.05l41.99-11.45c-1.52-14.05-4.73-35.3-12.41-60.13-11.58-37.45-21.32-44.25-30.54-69.67-24.61-67.87,2.68-135.64,7.63-147.93,7.04-17.49,17.21-42.74,41.04-65.85,20.3-19.69,38.3-25.98,71.58-56.31,11.93-10.87,21.02-20.46,26.72-26.72,1.85-6.54-1.33-13.11-6.68-15.27-4.01-1.62-8.84-.61-12.41,2.49-.46,4.97-1.91,12.62-6.68,20.41-11.22,18.33-31.51,22.24-35.31,22.9,8.91-21.95,17.81-43.9,26.72-65.85-3.59-12.4-16.09-19.72-27.68-17.18-12.77,2.79-21.28,16.85-17.18,30.54-11.13,20.37-21.07,36.51-28.1,47.49-17.46,27.27-27,38.45-43.48,65.13-10.83,17.52-18.83,32.32-23.86,41.99-10.18-5.09-20.36-10.18-30.54-15.27-3.68,3.33-12.47,12.17-16.22,26.72-4.41,17.09,.99,31,2.86,35.31,.88-.84,9.59-8.92,20.04-6.68,10.66,2.28,18.99,14.43,17.18,28.63-2.58,12.83-5.48,32.91-3.92,57.26,2.45,38.34,14.1,58.26,25.87,104.98,4.32,17.13,9.82,42.53,13.36,74.44Z"/>
      <g>
        <ellipse class="cls-7" cx="441.62" cy="193.04" rx="7.9" ry="9.98"/>
        <ellipse class="cls-7" cx="441.62" cy="213" rx="7.9" ry="9.98"/>
        <ellipse class="cls-7" cx="431.65" cy="203.02" rx="9.98" ry="7.9"/>
        <ellipse class="cls-7" cx="451.6" cy="203.02" rx="9.98" ry="7.9"/>
        <ellipse class="cls-8" cx="434.57" cy="195.96" rx="7.9" ry="9.98" transform="translate(-11.28 364.68) rotate(-45)"/>
        <ellipse class="cls-8" cx="448.68" cy="210.07" rx="7.9" ry="9.98" transform="translate(-17.13 378.79) rotate(-45)"/>
        <ellipse class="cls-8" cx="434.57" cy="210.07" rx="9.98" ry="7.9" transform="translate(-21.26 368.81) rotate(-45)"/>
        <ellipse class="cls-8" cx="448.68" cy="195.96" rx="9.98" ry="7.9" transform="translate(-7.15 374.66) rotate(-45)"/>
        <circle class="cls-1" cx="441.62" cy="203.02" r="8.04"/>
      </g>
      <g>
        <ellipse class="cls-7" cx="188.82" cy="165.04" rx="7.9" ry="9.98"/>
        <ellipse class="cls-7" cx="188.82" cy="185" rx="7.9" ry="9.98"/>
        <ellipse class="cls-7" cx="178.84" cy="175.02" rx="9.98" ry="7.9"/>
        <ellipse class="cls-7" cx="198.8" cy="175.02" rx="9.98" ry="7.9"/>
        <ellipse class="cls-8" cx="181.76" cy="167.96" rx="7.9" ry="9.98" transform="translate(-65.53 177.72) rotate(-45)"/>
        <ellipse class="cls-8" cx="195.88" cy="182.07" rx="7.9" ry="9.98" transform="translate(-71.38 191.83) rotate(-45)"/>
        <ellipse class="cls-8" cx="181.76" cy="182.07" rx="9.98" ry="7.9" transform="translate(-75.51 181.85) rotate(-45)"/>
        <ellipse class="cls-8" cx="195.88" cy="167.96" rx="9.98" ry="7.9" transform="translate(-61.4 187.7) rotate(-45)"/>
        <circle class="cls-1" cx="188.82" cy="175.02" r="8.04"/>
      </g>
      <g>
        <ellipse class="cls-7" cx="179.75" cy="244.38" rx="7.9" ry="9.98"/>
        <ellipse class="cls-7" cx="179.75" cy="264.34" rx="7.9" ry="9.98"/>
        <ellipse class="cls-7" cx="169.77" cy="254.36" rx="9.98" ry="7.9"/>
        <ellipse class="cls-7" cx="189.73" cy="254.36" rx="9.98" ry="7.9"/>
        <ellipse class="cls-8" cx="172.69" cy="247.31" rx="7.9" ry="9.98" transform="translate(-124.29 194.55) rotate(-45)"/>
        <ellipse class="cls-8" cx="186.81" cy="261.42" rx="7.9" ry="9.98" transform="translate(-130.14 208.66) rotate(-45)"/>
        <ellipse class="cls-8" cx="172.69" cy="261.42" rx="9.98" ry="7.9" transform="translate(-134.27 198.68) rotate(-45)"/>
        <ellipse class="cls-8" cx="186.81" cy="247.31" rx="9.98" ry="7.9" transform="translate(-120.16 204.53) rotate(-45)"/>
        <circle class="cls-1" cx="179.75" cy="254.36" r="8.04"/>
      </g>
      <g>
        <ellipse class="cls-7" cx="241.1" cy="80.92" rx="7.9" ry="9.98"/>
        <ellipse class="cls-7" cx="241.1" cy="100.87" rx="7.9" ry="9.98"/>
        <ellipse class="cls-7" cx="231.12" cy="90.9" rx="9.98" ry="7.9"/>
        <ellipse class="cls-7" cx="251.07" cy="90.9" rx="9.98" ry="7.9"/>
        <ellipse class="cls-8" cx="234.04" cy="83.84" rx="7.9" ry="9.98" transform="translate(9.27 190.05) rotate(-45)"/>
        <ellipse class="cls-8" cx="248.15" cy="97.95" rx="7.9" ry="9.98" transform="translate(3.42 204.16) rotate(-45)"/>
        <ellipse class="cls-8" cx="234.04" cy="97.95" rx="9.98" ry="7.9" transform="translate(-.71 194.18) rotate(-45)"/>
        <ellipse class="cls-8" cx="248.15" cy="83.84" rx="9.98" ry="7.9" transform="translate(13.4 200.03) rotate(-45)"/>
        <circle class="cls-1" cx="241.1" cy="90.9" r="8.04"/>
      </g>
      <g>
        <ellipse class="cls-7" cx="367.18" cy="87.97" rx="7.9" ry="9.98"/>
        <ellipse class="cls-7" cx="367.18" cy="107.93" rx="7.9" ry="9.98"/>
        <ellipse class="cls-7" cx="357.2" cy="97.95" rx="9.98" ry="7.9"/>
        <ellipse class="cls-7" cx="377.16" cy="97.95" rx="9.98" ry="7.9"/>
        <ellipse class="cls-8" cx="360.13" cy="90.9" rx="7.9" ry="9.98" transform="translate(41.21 281.27) rotate(-45)"/>
        <ellipse class="cls-8" cx="374.24" cy="105.01" rx="7.9" ry="9.98" transform="translate(35.36 295.38) rotate(-45)"/>
        <ellipse class="cls-8" cx="360.13" cy="105.01" rx="9.98" ry="7.9" transform="translate(31.23 285.4) rotate(-45)"/>
        <ellipse class="cls-8" cx="374.24" cy="90.9" rx="9.98" ry="7.9" transform="translate(45.34 291.25) rotate(-45)"/>
        <circle class="cls-1" cx="367.18" cy="97.95" r="8.04"/>
      </g>
      <g>
        <ellipse class="cls-10" cx="208.78" cy="203.38" rx="7.9" ry="9.98"/>
        <ellipse class="cls-10" cx="208.78" cy="223.34" rx="7.9" ry="9.98"/>
        <ellipse class="cls-10" cx="198.8" cy="213.36" rx="9.98" ry="7.9"/>
        <ellipse class="cls-10" cx="218.76" cy="213.36" rx="9.98" ry="7.9"/>
        <ellipse class="cls-3" cx="201.72" cy="206.31" rx="7.9" ry="9.98" transform="translate(-86.8 203.07) rotate(-45)"/>
        <ellipse class="cls-3" cx="215.84" cy="220.42" rx="7.9" ry="9.98" transform="translate(-92.64 217.18) rotate(-45)"/>
        <ellipse class="cls-3" cx="201.72" cy="220.42" rx="9.98" ry="7.9" transform="translate(-96.78 207.2) rotate(-45)"/>
        <ellipse class="cls-3" cx="215.84" cy="206.31" rx="9.98" ry="7.9" transform="translate(-82.66 213.04) rotate(-45)"/>
        <circle class="cls-1" cx="208.78" cy="213.36" r="8.04"/>
      </g>
      <g>
        <ellipse class="cls-10" cx="307.35" cy="72.88" rx="7.9" ry="9.98"/>
        <ellipse class="cls-10" cx="307.35" cy="92.84" rx="7.9" ry="9.98"/>
        <ellipse class="cls-10" cx="297.37" cy="82.86" rx="9.98" ry="7.9"/>
        <ellipse class="cls-10" cx="317.33" cy="82.86" rx="9.98" ry="7.9"/>
        <ellipse class="cls-3" cx="300.3" cy="75.8" rx="7.9" ry="9.98" transform="translate(34.36 234.54) rotate(-45)"/>
        <ellipse class="cls-3" cx="314.41" cy="89.91" rx="7.9" ry="9.98" transform="translate(28.51 248.66) rotate(-45)"/>
        <ellipse class="cls-3" cx="300.3" cy="89.91" rx="9.98" ry="7.9" transform="translate(24.38 238.68) rotate(-45)"/>
        <ellipse class="cls-3" cx="314.41" cy="75.8" rx="9.98" ry="7.9" transform="translate(38.49 244.52) rotate(-45)"/>
        <circle class="cls-1" cx="307.35" cy="82.86" r="8.04"/>
      </g>
      <g>
        <ellipse class="cls-10" cx="441.62" cy="145.08" rx="7.9" ry="9.98"/>
        <ellipse class="cls-10" cx="441.62" cy="165.04" rx="7.9" ry="9.98"/>
        <ellipse class="cls-10" cx="431.65" cy="155.06" rx="9.98" ry="7.9"/>
        <ellipse class="cls-10" cx="451.6" cy="155.06" rx="9.98" ry="7.9"/>
        <ellipse class="cls-3" cx="434.57" cy="148" rx="7.9" ry="9.98" transform="translate(22.63 350.64) rotate(-45)"/>
        <ellipse class="cls-3" cx="448.68" cy="162.12" rx="7.9" ry="9.98" transform="translate(16.78 364.75) rotate(-45)"/>
        <ellipse class="cls-3" cx="434.57" cy="162.12" rx="9.98" ry="7.9" transform="translate(12.65 354.77) rotate(-45)"/>
        <ellipse class="cls-3" cx="448.68" cy="148" rx="9.98" ry="7.9" transform="translate(26.76 360.61) rotate(-45)"/>
        <circle class="cls-1" cx="441.62" cy="155.06" r="8.04"/>
      </g>
      <line class="cls-11" x1="314.41" y1="155.06" x2="317.33" y2="278.44"/>
      <line class="cls-11" x1="251.07" y1="273.6" x2="268.11" y2="423.33"/>
      <line class="cls-11" x1="382.27" y1="254.36" x2="367.18" y2="400.84"/>
      <line class="cls-11" x1="291.24" y1="288.02" x2="296.82" y2="431.83"/>
      <line class="cls-11" x1="268.11" y1="167.96" x2="271.4" y2="278.44"/>
      <line class="cls-11" x1="348.89" y1="171.48" x2="346.41" y2="290.5"/>
      <line class="cls-11" x1="402.82" y1="230.99" x2="407.78" y2="294.22"/>
      <line class="cls-11" x1="395.38" y1="356.21" x2="378.02" y2="449.19"/>
      <line class="cls-11" x1="226.72" y1="254.36" x2="229.65" y2="353.73"/>
      <line class="cls-11" x1="288.07" y1="143.56" x2="291.24" y2="203.02"/>
      <line class="cls-11" x1="248.15" y1="195.96" x2="249.79" y2="247.31"/>
      <line class="cls-14" x1="184.42" y1="307.64" x2="194.42" y2="359.93"/>
      <line class="cls-14" x1="211.77" y1="391.31" x2="248.15" y2="472.53"/>
      <line class="cls-14" x1="199.71" y1="369.5" x2="219.67" y2="449.19"/>
      <line class="cls-14" x1="153.12" y1="185" x2="178.84" y2="203.02"/>
      <line class="cls-14" x1="145.6" y1="211.05" x2="181.76" y2="223.34"/>
      <line class="cls-14" x1="455.52" y1="369.5" x2="449.53" y2="441.71"/>
      <line class="cls-14" x1="436.44" y1="365.15" x2="414.14" y2="441.71"/>
      <line class="cls-14" x1="449.53" y1="244.38" x2="444.99" y2="347.56"/>
      <line class="cls-14" x1="395.38" y1="127.28" x2="414.14" y2="185"/>
      <line class="cls-14" x1="469.06" y1="143.56" x2="452.52" y2="92.84"/>
      <line class="cls-14" x1="469.06" y1="171.48" x2="460.79" y2="234.4"/>
      <line class="cls-14" x1="271.4" y1="97.95" x2="228.74" y2="162.96"/>
      <line class="cls-14" x1="236.62" y1="127.28" x2="212.61" y2="162.12"/>
      <line class="cls-14" x1="300.3" y1="17.46" x2="270.81" y2="70.94"/>
      <line class="cls-14" x1="348.89" y1="44.2" x2="335.25" y2="72.88"/>
      <line class="cls-14" x1="327.31" y1="105.85" x2="378.02" y2="148"/>
      <g>
        <ellipse class="cls-10" cx="249.79" cy="317.62" rx="7.9" ry="9.98"/>
        <ellipse class="cls-10" cx="249.79" cy="337.58" rx="7.9" ry="9.98"/>
        <ellipse class="cls-10" cx="239.81" cy="327.6" rx="9.98" ry="7.9"/>
        <ellipse class="cls-10" cx="259.77" cy="327.6" rx="9.98" ry="7.9"/>
        <ellipse class="cls-3" cx="242.74" cy="320.54" rx="7.9" ry="9.98" transform="translate(-155.56 265.53) rotate(-45)"/>
        <ellipse class="cls-3" cx="256.85" cy="334.66" rx="7.9" ry="9.98" transform="translate(-161.41 279.64) rotate(-45)"/>
        <ellipse class="cls-3" cx="242.74" cy="334.66" rx="9.98" ry="7.9" transform="translate(-165.54 269.66) rotate(-45)"/>
        <ellipse class="cls-3" cx="256.85" cy="320.54" rx="9.98" ry="7.9" transform="translate(-151.43 275.51) rotate(-45)"/>
        <circle class="cls-1" cx="249.79" cy="327.6" r="8.04"/>
      </g>
    </g>
  </g>
</svg>