<?xml version="1.0" encoding="UTF-8"?>
<svg id="Layer_2" data-name="Layer 2" xmlns="http://www.w3.org/2000/svg" viewBox="0 0 301.23 493.28">
  <defs>
    <style>
      .cls-1 {
        fill: #fff;
      }

      .cls-2 {
        fill: #818285;
      }

      .cls-3 {
        fill: #231f20;
      }

      .cls-4 {
        fill: #595a5c;
      }
    </style>
  </defs>
  <g id="verb-celebrar">
    <g>
      <path class="cls-4" d="M190.89,195.66c-5.11,1.55-8.65,6.02-8.85,11.01-.25,6.28,4.94,10.02,5.3,10.27,16.31-1.75,33.58-4.12,51.7-7.29,17.93-3.14,34.83-6.73,50.62-10.57,5.81-3.85,8.95-10.62,8.03-17.34-1.03-7.51-6.94-13.65-14.65-15.11-8.41,2.01-72.44,23.04-92.13,29.02Z"/>
      <path class="cls-4" d="M114.08,318.5c-.1-14.53,8.67-27.56,21.76-32.57,14.54-5.57,31.59-.15,40.72,13.3,1.13,6.86,1.9,12.67,2.43,17.03,.69,5.72,1.1,10.07,1.61,15.61,.06,.63,.82,8.79,1.37,16.38,1.06,14.69,1.65,28.8,1.87,42.28-1.84,11.38-11.08,19.91-22.17,20.51-10.94,.6-21.08-6.66-24.47-17.56-7.71-24.99-15.42-49.99-23.12-74.98Z"/>
      <path class="cls-4" d="M151.67,490.52c.44,1.41,1.54,2.47,2.86,2.71,1.7,.31,3.51-.8,4.18-2.71,6.75-19.36,13.17-41.36,18.31-65.8,2.92-13.88,5.13-27.15,6.79-39.69,.46-16.42-13.02-28.91-26.59-27.55-12.05,1.2-22.3,13.12-21.72,27.55,5.39,35.16,10.79,70.32,16.18,105.48Z"/>
      <path class="cls-4" d="M106.09,300.84c-2.39-14.33-13.25-25.67-27.01-28.37-15.28-3-31.15,5.25-37.85,20.06,.06,6.96,.29,12.81,.52,17.2,.29,5.76,.64,10.11,1.08,15.66,.05,.63,.7,8.8,1.45,16.37,1.46,14.65,3.29,28.66,5.38,41.97,3.76,10.89,14.32,17.72,25.35,16.42,10.88-1.28,19.63-10.17,21.11-21.48,3.32-25.94,6.65-51.89,9.97-77.83Z"/>
      <path class="cls-4" d="M47.75,481.18c-.83,1.21-2.2,1.89-3.53,1.72-1.72-.21-3.12-1.8-3.2-3.8-.78-20.35-.47-43.1,1.79-67.78,1.28-14.02,3.06-27.25,5.15-39.63,4.37-15.7,20.91-23.56,33.48-18.27,11.16,4.7,17.46,19.03,12.68,32.54-15.46,31.74-30.91,63.48-46.37,95.23Z"/>
      <path class="cls-4" d="M155.4,150.71c4.12,3.39,5.69,8.88,3.95,13.57-2.18,5.9-8.4,7.36-8.83,7.46-14.39-7.87-29.44-16.68-44.95-26.55-15.36-9.77-29.59-19.56-42.7-29.17-3.89-5.78-4.2-13.24-.77-19.09,3.83-6.54,11.64-9.95,19.33-8.34,6.99,5.08,58.07,49.05,73.97,62.12Z"/>
      <path class="cls-4" d="M62.87,116.02c7.17,1.99,14.84-.77,19.05-6.84,4.3-6.19,4.11-14.55-.49-20.59-15.62-13.5-31.24-26.99-46.86-40.49-.77-.24-9.26-2.72-16.53,2.95-6.63,5.16-6.92,12.91-6.94,13.94,5.17,7.41,11.63,15.59,19.63,23.93,11.27,11.75,22.52,20.58,32.14,27.1Z"/>
      <path class="cls-4" d="M11.09,64.99c6.02,4.6,14.32,4.31,19.56-.39,4.45-3.99,6.03-10.55,3.92-16.5-8.71-10.17-17.42-20.33-26.13-30.5-.5-.58-.96-.76-1.3-.82-1.65-.27-3.78,1.96-5.12,5.66-.57,1.68-1.05,3.45-1.39,5.3-3.04,16.45,5.82,30.82,10.47,37.25Z"/>
      <g>
        <path class="cls-4" d="M127.81,144.26c2.5-1.49,24.84-14.25,50.53-3.88,25.53,10.31,32.81,34.76,33.6,37.61-1.18,24.98-4.65,55.4-13.04,89.22-7.33,29.56-16.73,54.93-25.93,75.7-2.33,.89-23.7,8.63-42.51-3.94-10.57-7.07-15.05-17.02-16.68-21.32-1.17,.12-3.68,.21-6.47-1.02-2.4-1.06-3.9-2.61-4.65-3.5-4.44,1.93-14.67,5.63-27.24,3.31-22.07-4.07-32.55-23.21-33.95-25.88,7.78-21.99,19.01-48.21,35.42-76.21,16.99-28.98,35.05-52.22,50.91-70.08Z"/>
        <g>
          <path class="cls-2" d="M127.81,144.26c-.53-.41-16.56,18.45-32.07,40.67-7.06,10.12-13.31,19.98-18.84,29.41-3.87,6.61-11.25,19.59-19.34,36.9-8.95,19.16-16.65,39.07-16.09,39.31,.73,.32,12.83-33.6,36.64-74.41,25.37-43.5,50.36-71.38,49.7-71.89Z"/>
          <path class="cls-2" d="M211.94,178.54c.67,.07-1.04,23.73-5.17,50.51-1.89,12.2-4.18,23.64-6.69,34.28-1.76,7.45-5.4,21.93-11.51,40.04-6.76,20.04-14.95,39.75-15.52,39.54-.74-.27,13.93-33.16,24.91-79.11,11.7-48.99,13.16-85.34,13.99-85.26Z"/>
        </g>
      </g>
      <g>
        <g>
          <circle class="cls-4" cx="199.34" cy="89.94" r="89.91"/>
          <path class="cls-2" d="M140.61,157.99s22.21,23.43,54.45,21.83c0,0-31.29-.76-54.45-21.83Z"/>
        </g>
        <ellipse class="cls-1" cx="169.1" cy="84.95" rx="19.06" ry="12.19" transform="translate(27.33 210.3) rotate(-68.16)"/>
        <ellipse class="cls-3" cx="169.1" cy="84.95" rx="11.84" ry="7.57" transform="translate(27.33 210.3) rotate(-68.16)"/>
        <ellipse class="cls-1" cx="167.32" cy="75.56" rx="3.79" ry="2.42" transform="translate(34.93 202.75) rotate(-68.16)"/>
        <ellipse class="cls-1" cx="224.29" cy="107.08" rx="19.06" ry="12.19" transform="translate(41.44 275.42) rotate(-68.16)"/>
        <ellipse class="cls-3" cx="224.61" cy="107.2" rx="11.84" ry="7.57" transform="translate(41.52 275.79) rotate(-68.16)"/>
        <ellipse class="cls-1" cx="222.82" cy="97.81" rx="3.79" ry="2.42" transform="translate(49.13 268.24) rotate(-68.16)"/>
        <path class="cls-1" d="M154.81,120.6s18.76,16.05,55.19,22.13c0,0-20.76,14.88-35.47,8.58,0,0-16.47-6.08-19.72-30.7Z"/>
      </g>
      <path class="cls-4" d="M280.21,199.32c9.46,1.8,17.58-2.36,20.17-10.3,2.64-8.11-1.02-18.48-9.06-25.56-24.39-15.31-48.78-30.63-73.16-45.94-1.03-.23-12.28-2.5-18.73,5.22-5.87,7.04-3.04,16.71-2.64,17.99,9.28,8.72,20.43,18.3,33.52,27.92,18.43,13.55,35.61,23.47,49.91,30.67Z"/>
      <path class="cls-4" d="M196.79,140.74c9.16,5.15,19.04,4.01,23.43-2.32,3.73-5.38,2.94-13.68-2.06-20.89-14.69-11.82-29.37-23.65-44.06-35.47-.84-.67-1.48-.86-1.9-.89-2.1-.18-3.76,2.79-3.86,7.52,0,2.15,.16,4.39,.5,6.72,3.1,20.74,19.68,37.78,27.94,45.34Z"/>
      <path class="cls-2" d="M170.85,103.86c2.72,5.45,6.13,11.49,10.4,17.81,4.21,6.23,8.46,11.58,12.44,16.09-2.01-1.77-4.68-4.3-7.53-7.59-1.89-2.18-6.25-7.44-10.37-15.18-1.49-2.79-3.28-6.54-4.94-11.14Z"/>
      <path class="cls-2" d="M267.45,148.55c-4.76-4.08-10.63-8.49-17.69-12.66-4.59-2.71-8.99-4.92-13.06-6.72,4.46,2.87,8.92,5.74,13.38,8.62,5.79,3.59,11.58,7.18,17.36,10.77Z"/>
      <path class="cls-2" d="M232.82,170.55c-4.21-3.05-8.53-6.31-12.92-9.79-4.34-3.44-8.46-6.85-12.37-10.21,2.65,3.01,5.89,6.3,9.8,9.57,5.53,4.63,10.91,8,15.48,10.43Z"/>
    </g>
  </g>
</svg>