<svg width="38" height="42" viewBox="0 0 38 42" fill="none" xmlns="http://www.w3.org/2000/svg">
<path d="M34.0355 0.161936C7.63762 8.63788 12.3155 2.19542 11.9993 30.0061C8.19662 27.7138 -0.392444 31.925 0.0139319 36.9181C0.0139319 40.388 3.49111 42.5084 7.77369 41.8946C12.0563 41.2809 15.2006 38.0865 15.2006 34.6184V18.2526C15.2006 16.7201 17.0394 16.0564 17.0394 16.0564L33.0168 11.0171C33.0168 11.0171 34.7839 10.4236 34.7839 12.0652V25.2145C24.4425 20.8573 15.4765 37.2398 30.2402 36.9884C34.5228 36.4708 38 33.2338 38 29.764V3.00327C38 0.805256 36.22 -0.470293 34.0337 0.161936H34.0355Z" fill="#FFD600"/>
</svg>
