<svg width="268" height="98" viewBox="0 0 268 98" fill="none" xmlns="http://www.w3.org/2000/svg">
<g filter="url(#filter0_d_149_839)">
<path d="M102.327 42.7086L102 18.639C102 16.8797 105.556 16 112.668 16C116.018 16 118.823 16.6318 121.084 17.8955C123.376 19.1591 124.509 20.9715 124.483 23.3326C124.443 24.9788 123.799 26.5527 122.674 27.7554C121.627 29.0532 120.199 29.9898 118.591 30.4331C120.376 30.9514 122.048 31.8031 123.516 32.9432C124.181 33.4364 124.718 34.0808 125.083 34.823C125.449 35.5653 125.632 36.384 125.618 37.2112C125.605 38.1082 125.394 38.9912 125 39.7968C124.605 40.6024 124.037 41.3106 123.336 41.8704C120.428 44.4235 115.953 45.7 109.913 45.7C104.858 45.6886 102.33 44.6914 102.327 42.7086ZM104.987 30.562C106.789 29.8829 108.701 29.5475 110.626 29.5735H113.515C114.967 29.5735 116.731 28.9202 118.806 27.6135C120.88 26.3098 121.916 25.0676 121.913 23.8871C121.913 22.1277 120.816 20.7351 118.621 19.7093C116.332 18.6489 113.836 18.1129 111.314 18.1405C109.129 18.0675 106.948 18.3729 104.867 19.0431V21.1921C104.867 22.1406 104.887 23.7065 104.927 25.89C104.961 28.0734 104.974 29.6165 104.974 30.5234L104.987 30.562ZM122.61 37.2112C122.61 34.8215 120.031 33.0779 114.873 31.9804C112.441 32.7163 109.917 33.1012 107.377 33.1237C106.613 33.1275 105.849 33.0858 105.09 32.9991C105.176 36.2657 105.218 39.5867 105.215 42.9621C106.803 43.3235 108.426 43.5037 110.055 43.4994C111.516 43.5118 112.976 43.4098 114.422 43.1942C115.722 42.9801 117.001 42.6566 118.247 42.2272C119.441 41.8417 120.518 41.1617 121.38 40.25C122.169 39.4352 122.61 38.3454 122.61 37.2112ZM130.845 28.3012C131.471 27.2786 132.359 26.4413 133.417 25.8755C134.474 25.3096 135.664 25.0358 136.862 25.0819C138.1 25.0531 139.325 25.3322 140.428 25.8941C141.53 26.456 142.476 27.2832 143.18 28.3012C144.748 30.4117 145.579 32.9791 145.544 35.608C145.615 38.1671 144.691 40.654 142.965 42.5452C142.138 43.4697 141.118 44.2021 139.978 44.6914C138.837 45.1807 137.604 45.4149 136.364 45.3777C133.699 45.3777 131.763 44.6298 130.557 43.1341C129.35 41.6355 128.747 39.5279 128.747 36.8115C128.747 33.2613 129.435 30.4159 130.81 28.2754L130.845 28.3012ZM132.654 30.4503C132.293 31.5034 132.018 32.5844 131.833 33.6825C131.659 34.6674 131.569 35.6652 131.563 36.6654C131.558 37.5079 131.627 38.3492 131.769 39.1798C131.912 39.9455 132.146 40.6915 132.465 41.4019C132.785 42.1059 133.302 42.7028 133.952 43.1212C134.656 43.56 135.474 43.7826 136.303 43.7616C137.199 43.7656 138.083 43.5611 138.886 43.1642C139.688 42.7673 140.388 42.189 140.928 41.475C142.196 39.9366 142.864 37.9918 142.811 35.9992C142.796 33.8052 142.203 31.6539 141.091 29.7626C139.945 27.7568 138.553 26.7539 136.914 26.7539C135.953 26.7496 135.029 27.1179 134.335 27.7812C133.555 28.5223 132.977 29.4497 132.654 30.4761V30.4503ZM163.145 29.9904C162.948 30.2162 162.709 30.4009 162.44 30.5336C162.172 30.6664 161.88 30.7447 161.581 30.7641C161.33 30.7675 161.083 30.7069 160.863 30.5881C160.642 30.4692 160.456 30.296 160.321 30.085C160.009 29.6298 159.757 29.1356 159.573 28.615C159.352 28.0389 158.99 27.5275 158.52 27.1278C157.986 26.6727 157.3 26.4363 156.599 26.4659C155.525 26.5734 154.553 27.3256 153.672 28.7525C152.781 30.1965 152.126 31.7738 151.734 33.4246C151.34 34.9952 151.134 36.6067 151.119 38.2256C151.085 39.6203 151.528 40.9849 152.374 42.0939C152.771 42.6247 153.292 43.0505 153.891 43.3344C154.491 43.6183 155.15 43.7516 155.813 43.7229C156.559 43.7527 157.302 43.6136 157.986 43.3159C158.671 43.0182 159.28 42.5696 159.767 42.0037C160.197 41.5137 160.562 41.0151 160.91 40.5251C161.79 39.3789 162.585 38.8059 163.296 38.8059C163.661 38.8267 164.023 38.8961 164.37 39.0122C164.37 40.0265 163.446 41.3632 161.589 43.0094C159.972 44.5737 157.821 45.4648 155.572 45.5023C154.612 45.5564 153.652 45.398 152.761 45.0384C151.869 44.6788 151.068 44.1269 150.414 43.422C149.126 41.9362 148.454 40.0143 148.536 38.0494C148.566 35.1013 149.271 32.1992 150.595 29.5649C151.253 28.2285 152.214 27.0643 153.401 26.1651C154.532 25.2892 155.925 24.8185 157.356 24.8284C158.013 24.8053 158.667 24.9239 159.275 25.176C159.882 25.4282 160.428 25.808 160.876 26.2897C161.834 27.3894 162.598 28.6436 163.137 29.999L163.145 29.9904ZM181.378 33.3687L181.176 38.0967C181.176 40.4864 181.449 42.0925 181.997 42.9149C182.126 43.1644 182.321 43.3733 182.562 43.5182C182.802 43.6631 183.078 43.7385 183.359 43.7358C183.595 43.7237 183.829 43.6833 184.056 43.6155C184.296 43.5273 184.555 43.5035 184.808 43.5465C185.061 43.5894 185.298 43.6977 185.495 43.8604C185.306 44.8232 184.356 45.3003 182.637 45.3003C182.138 45.3466 181.637 45.2267 181.213 44.9594C180.788 44.6921 180.464 44.2922 180.29 43.8218C179.95 42.9277 179.729 41.9927 179.633 41.0409C179.495 39.932 179.383 39.1669 179.302 38.7543C177.517 42.1584 175.787 44.233 174.114 44.978C173.176 45.377 172.163 45.5719 171.144 45.5496C170.599 45.5527 170.064 45.4014 169.602 45.1131C169.139 44.8248 168.768 44.4113 168.531 43.9206C167.912 42.8332 167.602 41.2515 167.602 39.1583C167.624 36.932 167.972 34.7208 168.634 32.5951C169.228 30.4738 170.253 28.4974 171.643 26.7883C172.958 25.2037 174.39 24.4129 175.941 24.4157C178.193 24.4157 179.69 25.3499 180.432 27.2181C181.112 29.1918 181.421 31.2741 181.343 33.3601L181.378 33.3687ZM171.29 32.0535C170.927 33.4494 170.64 34.8642 170.43 36.2915C170.249 37.465 170.152 38.65 170.138 39.8374C170.112 40.764 170.333 41.6809 170.779 42.4936C170.92 42.8222 171.152 43.1039 171.447 43.3062C171.742 43.5086 172.089 43.6232 172.446 43.6369C173.925 43.6369 175.358 42.2343 176.744 39.4291C178.023 37.0143 178.729 34.3377 178.808 31.6065C178.863 30.2116 178.424 28.8419 177.57 27.7382C177.311 27.4206 176.982 27.1667 176.61 26.9961C176.237 26.8254 175.83 26.7426 175.421 26.7539C174.531 26.7539 173.701 27.2697 172.992 28.2969C172.194 29.4331 171.611 30.7065 171.273 32.0535H171.29ZM204.704 16.6662C203.659 26.1221 203.139 28.9202 203.139 32.9432C203.144 36.9801 203.515 41.0082 204.248 44.978C203.888 45.4227 203.374 45.7158 202.808 45.7989C202.459 45.8109 202.11 45.757 201.781 45.6399C201.183 43.4749 200.837 41.248 200.749 39.0036C200.088 40.0523 199.606 40.7873 199.288 41.23C198.779 41.9028 198.236 42.5484 197.659 43.1642C197.071 43.9274 196.317 44.5469 195.454 44.9758C194.59 45.4047 193.641 45.6318 192.678 45.6399C192.006 45.6648 191.344 45.4822 190.78 45.1169C190.216 44.7515 189.778 44.2212 189.527 43.5983C188.822 41.9459 188.491 40.1584 188.556 38.3631C188.548 36.3109 188.792 34.2655 189.282 32.2727C189.712 30.442 190.549 28.7318 191.732 27.2697C192.253 26.6094 192.918 26.0773 193.676 25.7144C194.435 25.3515 195.267 25.1675 196.107 25.1765C197.099 25.1716 198.078 25.3998 198.966 25.8427C199.763 26.1963 200.407 26.8248 200.78 27.6135C200.835 26.87 200.887 25.7267 200.943 24.175C201.049 22.8921 201.228 21.6163 201.48 20.354C201.785 17.7192 202.451 16.3997 203.496 16.3997C203.91 16.3993 204.319 16.4934 204.691 16.6748L204.704 16.6662ZM199.924 29.0448C199.61 28.4699 199.129 28.0038 198.544 27.7081C197.826 27.3905 197.043 27.2434 196.258 27.2783C195.312 27.2783 194.427 27.8127 193.602 28.8815C191.983 30.9962 191.172 34.0593 191.169 38.0709C191.171 39.3848 191.379 40.6903 191.788 41.9392C192.218 43.2286 192.802 43.8519 193.602 43.8519C194.748 43.8519 195.874 43.0897 196.98 41.5652C198.12 39.9826 198.987 38.2204 199.546 36.3516C200.105 34.6418 200.409 32.859 200.449 31.0606C200.45 30.3526 200.263 29.657 199.907 29.0448H199.924ZM210.747 16.5802C210.747 17.2164 210.7 17.9127 210.7 18.682C210.7 19.4471 210.747 20.2465 210.824 21.0718C210.63 21.2927 210.388 21.4672 210.118 21.5825C209.847 21.6978 209.554 21.751 209.26 21.738C208.434 21.738 208.026 21.0804 208.026 19.7609V19.1591V18.1877C208.044 17.8475 208.091 17.5095 208.168 17.1777C208.226 16.8842 208.389 16.622 208.626 16.44C208.863 16.258 209.159 16.1688 209.457 16.1891C210.124 16.1891 210.545 16.3267 210.747 16.6189V16.5802ZM208.104 35.5565C208.104 30.0463 208.38 26.8657 208.933 26.0146C208.997 25.8822 209.096 25.7693 209.218 25.6877C209.34 25.6061 209.482 25.5587 209.629 25.5504C210.111 25.6222 210.574 25.7872 210.992 26.0361C210.854 28.4287 210.786 31.032 210.786 33.8458C210.786 33.8458 210.786 36.962 210.867 43.1856C210.899 43.5135 210.865 43.8445 210.767 44.159C210.668 44.4734 210.508 44.7651 210.296 45.0166C210.032 45.3186 209.663 45.5092 209.264 45.5496C208.924 45.544 208.591 45.4555 208.293 45.2917C208.155 41.6355 208.086 38.3975 208.086 35.578L208.104 35.5565ZM216.627 28.6795C215.389 28.6795 214.555 28.3743 214.117 27.7769C214.11 27.5694 214.16 27.364 214.26 27.1824C214.361 27.0008 214.509 26.8498 214.688 26.7453C215.054 26.4996 215.469 26.3381 215.905 26.2725C216.334 26.2038 217.057 26.1393 218.054 26.0834C218.131 25.3484 218.178 24.3642 218.196 23.2251C218.196 22.0818 218.23 21.0761 218.26 20.2422C218.337 18.0717 218.69 17.3023 219.249 16.8037C219.354 16.6988 219.478 16.6155 219.615 16.5588C219.753 16.502 219.9 16.4728 220.048 16.4728C220.302 16.4685 220.556 16.4945 220.805 16.5502C220.89 18.5273 220.933 19.1634 220.933 19.5588L220.684 25.7396C220.832 25.7737 220.984 25.7868 221.135 25.7782L224.101 25.6536C226.25 25.6536 227.32 25.9845 227.316 26.6422C227.316 27.5792 226.935 28.1279 226.173 28.2883C225.762 28.3791 225.342 28.421 224.922 28.413C224.299 28.4004 223.679 28.34 223.065 28.2325C222.529 28.1287 221.986 28.0655 221.441 28.0433C221.219 28.0368 220.998 28.0498 220.779 28.082C220.698 28.8703 220.658 29.6622 220.658 30.4546C220.658 31.2369 220.658 32.2082 220.714 33.3773C220.762 34.5464 220.869 35.9562 221.045 37.5551C221.176 39.0112 221.576 40.4305 222.223 41.7415C222.795 42.8805 223.594 43.4865 224.509 43.4865C225.1 43.4471 225.668 43.2496 226.156 42.9149C226.591 42.6111 227.091 42.4152 227.617 42.3432C227.934 42.3395 228.247 42.4195 228.524 42.5753C228.79 42.7214 228.915 42.8977 228.915 43.0868C228.915 43.6584 228.343 44.2301 227.166 44.7545C226.231 45.2341 225.206 45.5095 224.157 45.5625C221.14 45.5625 219.26 42.7057 218.518 36.992C218.3 35.3444 218.135 32.5177 218.024 28.5118C217.552 28.6034 217.073 28.6523 216.592 28.658L216.627 28.6795ZM234.103 28.4001C234.731 27.3794 235.62 26.544 236.677 25.9791C237.734 25.4143 238.922 25.1403 240.12 25.1851C241.358 25.1566 242.584 25.4354 243.688 25.9964C244.792 26.5574 245.74 27.3833 246.447 28.4001C248.015 30.5107 248.845 33.078 248.811 35.7069C248.882 38.266 247.958 40.7528 246.232 42.6441C245.408 43.5715 244.392 44.3078 243.254 44.8015C242.116 45.2952 240.883 45.5344 239.643 45.5023C236.975 45.5023 235.038 44.7545 233.832 43.2587C232.629 41.7572 232.025 39.6483 232.023 36.9319C232.023 33.3902 232.709 30.5477 234.081 28.4044L234.103 28.4001ZM235.917 30.5492C235.552 31.603 235.276 32.6857 235.091 33.7856C234.923 34.7712 234.834 35.7687 234.825 36.7685C234.816 37.6112 234.885 38.4529 235.031 39.2829C235.172 40.0498 235.407 40.7963 235.732 41.5051C236.05 42.2089 236.565 42.8059 237.215 43.2243C237.919 43.6593 238.734 43.8817 239.562 43.8647C240.458 43.8671 241.343 43.6619 242.147 43.2652C242.95 42.8685 243.651 42.2911 244.195 41.5781C245.456 40.0369 246.121 38.0933 246.069 36.1023C246.052 33.9088 245.459 31.7583 244.35 29.8658C243.206 27.8413 241.818 26.8571 240.168 26.8571C239.207 26.8523 238.283 27.2206 237.589 27.8843C236.808 28.6283 236.23 29.5586 235.908 30.5878L235.917 30.5492ZM263.691 28.6924C263.419 28.0614 262.923 27.5532 262.299 27.2654C261.494 26.883 260.61 26.7002 259.72 26.7324C258.699 26.7361 257.703 27.0509 256.866 27.635C256.452 27.8896 256.11 28.247 255.875 28.6726C255.64 29.0982 255.52 29.5773 255.525 30.0635C255.512 30.5424 255.623 31.0166 255.847 31.4403C256.07 31.8641 256.399 32.2233 256.801 32.4833C257.725 33.1144 258.759 33.5677 259.849 33.82C261.039 34.1252 262.243 34.4476 263.45 34.7914C264.597 35.1099 265.649 35.6996 266.519 36.5107C266.936 36.9027 267.264 37.3794 267.481 37.9088C267.698 38.4381 267.8 39.0078 267.779 39.5795C267.812 40.4207 267.617 41.2552 267.215 41.9945C266.812 42.7338 266.217 43.3504 265.492 43.7788C263.836 44.7811 261.925 45.2827 259.991 45.223C258.293 45.1412 256.62 44.7931 255.03 44.1914C252.985 43.5037 251.962 42.6813 251.962 41.7243C251.962 41.0065 252.568 40.654 253.771 40.654C254.294 40.7246 254.784 40.9542 255.172 41.3117C256.718 42.5217 258.616 43.1946 260.579 43.2286C261.456 43.2529 262.328 43.0842 263.132 42.7343C263.735 42.491 264.248 42.068 264.602 41.5227C264.956 40.9775 265.133 40.3365 265.11 39.687C265.106 39.2618 264.988 38.8456 264.767 38.4823C264.546 38.1191 264.23 37.8225 263.855 37.6239C262.908 37.0597 261.88 36.6437 260.807 36.3903C259.612 36.0894 258.413 35.7628 257.201 35.4017C256.044 35.0752 254.989 34.4616 254.132 33.618C253.717 33.1988 253.392 32.6994 253.176 32.1504C252.96 31.6013 252.859 31.0141 252.877 30.4245C252.875 29.6059 253.085 28.8007 253.485 28.0869C253.886 27.373 254.464 26.7747 255.164 26.3499C256.82 25.2649 258.772 24.7185 260.751 24.7854C262.199 24.7586 263.623 25.156 264.847 25.9287C265.436 26.2819 265.918 26.7884 266.241 27.394C266.564 27.9996 266.717 28.6816 266.683 29.3672C266.683 30.3557 266.11 30.85 264.963 30.85C264.632 30.8908 264.298 30.8015 264.031 30.6007C263.85 30.3422 263.764 30.0298 263.786 29.7153C263.786 29.398 263.747 29.0818 263.67 28.774L263.691 28.6924Z" fill="#464646"/>
</g>
<g filter="url(#filter1_d_149_839)">
<path d="M110.037 52.7533C109.536 57.338 109.285 60.6017 109.285 62.5444C109.286 64.5009 109.466 66.4533 109.823 68.377C109.651 68.5952 109.401 68.7384 109.126 68.7767C108.957 68.7815 108.788 68.7553 108.628 68.6993C108.338 67.6503 108.169 66.5717 108.125 65.4843C107.802 65.9872 107.553 66.344 107.416 66.5675C107.171 66.8898 106.908 67.2036 106.629 67.5045C106.343 67.8725 105.978 68.1712 105.56 68.3781C105.143 68.5851 104.684 68.6949 104.218 68.6993C103.892 68.7128 103.571 68.6249 103.298 68.4478C103.024 68.2707 102.813 68.0132 102.692 67.7108C102.349 66.9125 102.189 66.0474 102.223 65.1792C102.217 64.1829 102.334 63.1896 102.572 62.2221C102.779 61.3288 103.191 60.4959 103.775 59.7893C104.025 59.4668 104.345 59.2063 104.712 59.0281C105.079 58.8499 105.482 58.7589 105.89 58.7621C106.375 58.7569 106.855 58.8658 107.291 59.0801C107.67 59.256 107.975 59.5605 108.151 59.9398C108.151 59.5787 108.202 59.0286 108.232 58.2807C108.258 57.5371 108.288 56.8752 108.322 56.2993C108.357 55.7233 108.413 55.1345 108.494 54.5327C108.635 53.2576 108.96 52.6201 109.47 52.6201C109.667 52.6232 109.86 52.6686 110.037 52.7533ZM107.751 60.6575C107.601 60.3789 107.368 60.1537 107.085 60.0128C106.736 59.8574 106.357 59.7853 105.976 59.8022C105.715 59.8205 105.462 59.9001 105.238 60.0346C105.014 60.169 104.825 60.3545 104.686 60.5759C103.901 61.5988 103.509 63.0831 103.509 65.0287C103.508 65.6609 103.608 66.2891 103.805 66.8898C104.007 67.5088 104.295 67.8225 104.686 67.8225C105.258 67.8225 105.791 67.4572 106.32 66.7265C106.869 65.9592 107.286 65.1048 107.553 64.1992C107.826 63.3662 107.971 62.4967 107.983 61.6203C107.987 61.2788 107.901 60.9423 107.734 60.6447L107.751 60.6575ZM112.629 64.7666C112.629 65.0287 112.586 65.1964 112.586 65.3038C112.567 65.6477 112.622 65.9918 112.748 66.3123C112.874 66.6328 113.068 66.9222 113.317 67.1606C113.785 67.5911 114.4 67.8264 115.036 67.8182C115.591 67.8379 116.144 67.7428 116.661 67.5388C117.005 67.4093 117.315 67.2036 117.568 66.9371C118.049 66.3655 118.488 66.0388 118.887 66.0388C119.066 66.0481 119.242 66.0889 119.407 66.1592C119.291 66.5445 119.098 66.9019 118.838 67.2094C118.579 67.517 118.259 67.768 117.899 67.9472C116.903 68.5183 115.766 68.7983 114.619 68.7552C113.732 68.7673 112.873 68.445 112.212 67.8526C111.875 67.5486 111.609 67.1735 111.434 66.7542C111.26 66.335 111.18 65.8821 111.202 65.4285C111.204 64.4033 111.411 63.3889 111.813 62.4456C112.211 61.5051 112.817 60.6663 113.583 59.9913C114.203 59.3652 115.037 58.9967 115.917 58.9598C116.59 58.9287 117.257 59.0977 117.834 59.4455C118.069 59.6007 118.259 59.8143 118.386 60.0652C118.514 60.316 118.574 60.5957 118.561 60.8768C118.558 61.4427 118.416 61.9993 118.147 62.4972C117.878 62.995 117.49 63.4187 117.018 63.7307C116.076 64.4604 114.921 64.862 113.729 64.874C113.362 64.874 112.996 64.8439 112.633 64.7837L112.629 64.7666ZM114.146 64.1089C114.759 64.1138 115.353 63.9005 115.823 63.5072C116.26 63.1723 116.617 62.7434 116.867 62.2521C117.057 61.8799 117.162 61.4705 117.177 61.053C117.174 60.8742 117.135 60.6978 117.061 60.535C116.987 60.3722 116.88 60.2266 116.747 60.1074C116.621 59.9729 116.47 59.8655 116.301 59.7916C116.133 59.7177 115.951 59.6789 115.767 59.6776C115.105 59.6776 114.477 60.1332 113.923 61.053C113.373 61.9362 112.967 62.9009 112.719 63.9112C113.181 64.0153 113.652 64.0744 114.125 64.0875L114.146 64.1089Z" fill="#464646"/>
</g>
<g filter="url(#filter2_d_149_839)">
<path d="M137.335 52.3321L144.238 52.4653C146.53 52.4653 148.114 52.7333 148.991 53.2691C148.993 53.6043 148.907 53.9341 148.742 54.2258C148.576 54.5175 148.338 54.7611 148.05 54.9325C147.312 55.2382 146.514 55.3748 145.716 55.3322L136.002 55.1989C133.552 55.1989 131.491 55.2734 129.817 55.4224C129.436 57.8082 129.27 60.2235 129.323 62.639L129.37 64.6591C129.37 65.5187 129.37 66.4514 129.323 67.44C131.105 67.7107 132.906 67.8315 134.709 67.801L140.038 67.7538C142.071 67.7538 143.236 67.8612 143.537 68.0675C143.661 68.1337 143.768 68.2295 143.846 68.3464C143.925 68.4634 143.974 68.5978 143.988 68.738C143.988 69.8842 142.538 70.4573 139.639 70.4573L129.486 70.1392C129.456 70.8527 129.426 72.082 129.396 73.8098C129.33 77.4288 129.196 80.1639 128.992 82.0149C130.898 82.141 132.273 82.2012 133.118 82.1955C133.978 82.1955 134.838 82.1955 135.719 82.1482C136.613 82.1167 138.286 82.0278 140.739 81.8817C143.189 81.7327 145.02 81.6582 146.232 81.6582C147.069 81.6147 147.908 81.6973 148.72 81.9032C148.939 81.9838 149.125 82.1358 149.246 82.3347C149.368 82.5336 149.419 82.7677 149.391 82.9992C149.406 83.1376 149.387 83.2775 149.336 83.407C149.286 83.5365 149.204 83.6518 149.099 83.7428C148.935 83.858 148.764 83.9628 148.587 84.0566C148.404 84.141 148.21 84.2003 148.011 84.2328L147.444 84.3488C147.22 84.3832 146.993 84.4047 146.769 84.4176L146.099 84.4563H144.809C138.955 84.7285 135.206 84.8718 133.561 84.8861C128.627 84.8861 126.16 84.1984 126.16 82.823C126.105 80.0464 126.075 77.4002 126.069 74.8844C126.069 66.6033 126.34 59.7134 126.882 54.2147C127.501 53.2347 129.323 52.6616 132.349 52.4954C134.236 52.388 135.899 52.3321 137.335 52.3321ZM165.333 66.6191C165.049 65.9069 164.507 65.3281 163.815 64.9987C162.946 64.5884 161.991 64.3924 161.03 64.427C159.917 64.4349 158.832 64.7795 157.918 65.4156C157.466 65.6921 157.094 66.0818 156.839 66.5461C156.583 67.0104 156.453 67.5333 156.461 68.0632C156.448 68.5798 156.566 69.0913 156.805 69.5498C157.043 70.0083 157.394 70.3989 157.824 70.6851C158.834 71.3686 159.96 71.8623 161.146 72.1422C162.444 72.4688 163.751 72.8198 165.066 73.1952C166.312 73.5317 167.459 74.1626 168.41 75.0348C168.861 75.4622 169.216 75.9806 169.451 76.5557C169.686 77.1308 169.795 77.7493 169.773 78.3701C169.813 79.2836 169.605 80.1909 169.171 80.9959C168.738 81.801 168.094 82.4739 167.31 82.9433C165.494 84.0256 163.405 84.5627 161.292 84.4907C159.443 84.391 157.621 84.0054 155.89 83.3474C153.663 82.588 152.55 81.6912 152.55 80.6567C152.55 79.8945 153.206 79.5134 154.519 79.5134C155.089 79.5929 155.621 79.8449 156.044 80.2355C157.724 81.5536 159.785 82.2925 161.92 82.3416C162.875 82.3644 163.823 82.1812 164.701 81.8043C165.357 81.5395 165.915 81.0788 166.3 80.485C166.685 79.8912 166.877 79.1932 166.85 78.4862C166.844 78.0252 166.714 77.5743 166.474 77.1805C166.235 76.7867 165.894 76.4643 165.487 76.2469C164.456 75.6281 163.336 75.1729 162.165 74.8972C160.876 74.5749 159.565 74.2138 158.245 73.8227C156.985 73.4643 155.835 72.7948 154.901 71.8757C154.455 71.4195 154.106 70.8779 153.875 70.2832C153.644 69.6886 153.535 69.0533 153.556 68.4157C153.551 67.5265 153.775 66.6511 154.206 65.8735C154.638 65.096 155.262 64.4424 156.019 63.9757C157.824 62.7865 159.953 62.1859 162.113 62.2565C163.696 62.2401 165.249 62.6885 166.579 63.5459C167.213 63.9285 167.732 64.474 168.083 65.1258C168.434 65.7775 168.603 66.5114 168.573 67.2509C168.573 68.3254 167.959 68.8627 166.738 68.8627C166.379 68.9053 166.018 68.8083 165.728 68.5919C165.531 68.3095 165.436 67.9685 165.457 67.6248C165.457 67.2787 165.415 66.9338 165.333 66.5976V66.6191ZM175.799 83.3818C175.89 85.8059 176.188 89.2344 176.693 93.6672C176.434 93.9413 176.121 94.1592 175.774 94.3071C175.428 94.455 175.054 94.5298 174.677 94.5268C174.513 94.5253 174.349 94.5109 174.187 94.4838C174.155 93.3147 173.938 90.6685 173.534 86.5452C173.13 82.4276 172.928 79.2598 172.928 77.0893C172.909 75.1759 173.045 73.2641 173.336 71.3728C173.588 69.8061 174.056 68.2817 174.724 66.8426C176.065 63.9428 178.541 62.4929 182.151 62.4929C184.399 62.4929 186.23 63.7178 187.67 66.1678C189.145 68.7791 189.887 71.74 189.819 74.7382C189.843 77.2188 188.949 79.6207 187.309 81.482C185.636 83.4305 183.32 84.4033 180.363 84.4004C178.775 84.4351 177.203 84.0778 175.786 83.3603L175.799 83.3818ZM181.816 64.8697C179.274 64.8697 177.585 66.1835 176.749 68.8111C176.035 71.0547 175.677 74.1479 175.674 78.0908C175.674 79.5263 175.674 80.588 175.721 81.2757C177.5 81.7184 179.313 82.0061 181.141 82.1353C181.948 82.1589 182.747 81.9811 183.468 81.6178C184.188 81.2546 184.807 80.7174 185.267 80.055C186.315 78.5676 186.85 76.78 186.793 74.9617C186.793 72.0046 186.352 69.5848 185.469 67.7022C184.575 65.7852 183.359 64.8482 181.807 64.8482L181.816 64.8697ZM208.142 71.6393L207.919 76.797C207.919 79.3931 208.217 81.141 208.813 82.0407C208.953 82.3114 209.166 82.5382 209.426 82.6966C209.687 82.855 209.986 82.9389 210.291 82.939C210.551 82.9261 210.808 82.8799 211.056 82.8015C211.318 82.7047 211.601 82.6783 211.876 82.7251C212.152 82.7718 212.41 82.8901 212.625 83.068C212.419 84.1167 211.37 84.6411 209.487 84.6411C208.939 84.6981 208.387 84.57 207.92 84.2771C207.452 83.9842 207.096 83.5435 206.908 83.025C206.542 82.0567 206.301 81.0456 206.191 80.0163C206.039 78.8042 205.921 77.9733 205.838 77.5234C203.895 81.2284 202.011 83.4849 200.186 84.293C199.17 84.728 198.072 84.9419 196.967 84.9205C196.371 84.9265 195.786 84.7628 195.28 84.4484C194.774 84.1341 194.367 83.6821 194.109 83.1454C193.432 81.9677 193.096 80.2484 193.099 77.9876C193.13 75.5596 193.514 73.149 194.238 70.8312C194.891 68.5252 196.005 66.3757 197.513 64.513C198.945 62.7937 200.521 61.9341 202.241 61.9341C204.691 61.9341 206.318 62.9499 207.123 64.9815C207.866 67.1052 208.211 69.3475 208.142 71.5963V71.6393ZM197.147 70.1392C196.748 71.6607 196.434 73.2032 196.206 74.7597C196.009 76.0399 195.904 77.3327 195.892 78.628C195.863 79.6379 196.102 80.6374 196.584 81.525C196.744 81.8765 196.999 82.1761 197.32 82.3896C197.642 82.6032 198.017 82.7221 198.402 82.7327C200.016 82.7327 201.569 81.2083 203.062 78.1595C204.453 75.5296 205.221 72.6148 205.305 69.6406C205.365 68.1223 204.889 66.6313 203.96 65.4285C203.678 65.0784 203.318 64.7988 202.909 64.6116C202.501 64.4243 202.054 64.3347 201.605 64.3497C200.633 64.3497 199.752 64.9113 198.961 66.0345C198.111 67.287 197.497 68.6837 197.147 70.1564V70.1392ZM234.111 83.5881C233.883 83.853 233.601 84.0666 233.284 84.2148C232.966 84.3629 232.622 84.4423 232.272 84.4477C230.982 84.4477 230.032 83.7557 229.413 82.3846C228.737 80.7944 228.366 79.0916 228.317 77.3644C228.214 75.3901 228.147 73.4158 228.115 71.4416C228.111 69.7573 227.953 68.0769 227.643 66.4214C227.363 65.0503 226.83 64.3583 226.052 64.3583C225.009 64.3583 224.12 65.301 223.383 67.1864C222.618 69.2116 222.098 71.3213 221.836 73.4703C221.002 79.9003 220.197 83.5021 219.42 84.2758C218.993 84.5228 218.516 84.6698 218.023 84.7056C217.691 84.7136 217.36 84.6671 217.043 84.568C216.413 81.8201 216.009 77.0821 215.831 70.3541C215.767 67.0059 215.711 64.8396 215.647 63.8511C216.115 63.4939 216.676 63.2763 217.263 63.2235C217.626 63.213 217.988 63.2595 218.337 63.3611C218.486 64.6505 218.569 67.281 218.586 71.2524C218.586 75.2296 218.609 77.522 218.655 78.1294C218.801 77.5048 218.991 76.489 219.223 75.0821C219.446 73.6766 219.652 72.5032 219.829 71.6092C220.057 70.5256 220.344 69.4553 220.688 68.4028C220.982 67.3685 221.415 66.3793 221.978 65.4629C222.486 64.697 223.159 64.054 223.946 63.5803C224.794 63.0561 225.774 62.7847 226.77 62.798C227.415 62.7711 228.052 62.9386 228.601 63.279C229.149 63.6193 229.582 64.1167 229.843 64.7064C230.535 66.1868 230.894 67.8004 230.896 69.4343C230.962 71.3226 230.999 73.2367 231.008 75.1766C231.003 76.979 231.245 78.7736 231.726 80.5106C232.173 82.1238 232.965 83.1711 234.103 83.6525L234.111 83.5881ZM219.068 59.1489C218.827 59.3663 218.543 59.5298 218.233 59.6284C217.924 59.727 217.598 59.7584 217.276 59.7206C216.416 59.7206 215.986 59.5315 215.986 59.1489C215.996 58.9712 216.059 58.8005 216.167 58.6589C218.072 56.3666 219.864 55.2204 221.544 55.2204C222.747 55.2935 223.91 55.6884 224.909 56.3637C226.198 57.1417 226.985 57.507 227.286 57.507C227.558 57.5167 227.823 57.4195 228.025 57.2363C228.204 57.0763 228.361 56.8943 228.494 56.6947C228.81 56.2051 229.097 55.697 229.353 55.1732C229.624 54.6961 230.187 54.4554 231.073 54.4554H231.249C232.108 54.4855 232.478 54.7691 232.392 55.315L232.263 55.719C230.942 58.4096 229.133 59.755 226.835 59.755C225.75 59.6375 224.714 59.2439 223.826 58.6117C222.584 57.8638 221.771 57.4684 221.38 57.4684C220.736 57.593 219.97 58.1389 219.107 59.1618L219.068 59.1489ZM239.518 65.9056C240.203 64.7901 241.173 63.8776 242.328 63.2625C243.484 62.6475 244.782 62.3521 246.09 62.4069C247.437 62.3735 248.771 62.6758 249.971 63.2866C251.172 63.8974 252.201 64.7974 252.967 65.9056C254.676 68.2028 255.583 70.9984 255.546 73.8614C255.616 76.6503 254.604 79.358 252.722 81.4175C251.82 82.4214 250.709 83.2164 249.468 83.7472C248.227 84.278 246.885 84.5317 245.536 84.4907C242.63 84.4907 240.521 83.6783 239.209 82.0536C237.894 80.4146 237.236 78.1223 237.236 75.1766C237.253 71.3083 238.015 68.2094 239.523 65.8798L239.518 65.9056ZM241.495 68.2566C241.1 69.4034 240.8 70.5808 240.597 71.7768C240.411 72.8515 240.315 73.9398 240.309 75.0305C240.3 75.945 240.374 76.8584 240.528 77.7598C240.678 78.5985 240.931 79.4155 241.281 80.1925C241.625 80.9648 242.186 81.6204 242.897 82.0794C243.662 82.5573 244.552 82.7967 245.454 82.7671C246.428 82.773 247.39 82.5538 248.265 82.1266C249.141 81.6994 249.905 81.0757 250.5 80.3043C251.871 78.6235 252.594 76.5068 252.537 74.3385C252.52 71.9512 251.879 69.6099 250.676 67.5475C249.438 65.3497 247.914 64.2522 246.103 64.2551C245.037 64.2431 244.009 64.6542 243.245 65.3984C242.42 66.1939 241.808 67.1842 241.465 68.2781L241.495 68.2566ZM259.913 58.0228C259.913 55.0657 259.513 54.2448 258.701 53.2304C258.938 52.9295 259.247 52.693 259.599 52.5428C259.951 52.3926 260.336 52.3334 260.717 52.3708C260.908 52.3721 261.099 52.3865 261.288 52.4138C262.036 53.1616 262.432 54.1588 262.432 57.7477C262.432 59.6905 262.343 61.947 262.165 64.5173C261.804 68.9959 261.614 72.284 261.594 74.3815C261.594 80.0235 262.685 82.8474 264.869 82.8531L266.523 82.5393C266.657 82.5393 266.788 82.5718 266.905 82.634C267.023 82.6962 267.123 82.7861 267.198 82.8961C267.108 83.9706 266.231 84.5122 264.576 84.5122C263.866 84.555 263.156 84.4426 262.494 84.1828C261.831 83.923 261.234 83.522 260.742 83.0078C259.818 81.9492 259.233 80.6376 259.062 79.2427C258.861 78.0043 258.747 76.7533 258.722 75.499C258.722 74.5104 258.722 73.4316 258.77 72.2496C258.77 71.0676 258.937 69.3914 259.174 67.1649C259.664 62.6863 259.91 59.6403 259.913 58.0271V58.0228Z" fill="#464646"/>
</g>
<g filter="url(#filter3_d_149_839)">
<path fill-rule="evenodd" clip-rule="evenodd" d="M67.6483 9.77876C67.558 13.6927 66.0174 17.4335 63.3253 20.2759C60.6332 23.1183 56.9813 24.8597 53.0781 25.1622V25.4365C53.0756 28.1055 52.3968 30.7304 51.105 33.066C49.8133 35.4016 47.9508 37.3717 45.6914 38.7926C43.432 40.2134 40.8494 41.0385 38.1848 41.1908C35.5201 41.3432 32.8603 40.8178 30.4537 39.6638C28.997 41.7419 27.061 43.4384 24.8096 44.6097C22.5582 45.781 20.0577 46.3925 17.5199 46.3925C14.982 46.3925 12.4815 45.781 10.2302 44.6097C7.97876 43.4384 6.04273 41.7419 4.58602 39.6638C4.23187 41.8867 4.0582 44.1345 4.0667 46.3854C4.06758 53.8161 6.02357 61.1157 9.73826 67.5512C13.4529 73.9866 18.7956 79.3314 25.2295 83.0487C31.6635 86.7661 38.9622 88.7251 46.3929 88.729C53.8235 88.7329 61.1244 86.7816 67.5623 83.0711C74.0001 79.3606 79.3484 74.0214 83.0699 67.5899C86.7913 61.1583 88.755 53.8608 88.7637 46.4302C88.7725 38.9995 86.8259 31.6974 83.1195 25.2571C79.4131 18.8169 74.0775 13.4652 67.6483 9.73956V9.77876ZM46.4152 80.2682C29.3955 80.2682 17.4023 70.6168 15.5896 55.8801C15.5896 55.4293 21.5176 55.4293 21.5176 55.8801C24.1044 66.6583 32.6779 74.2814 46.425 74.2814C53.0683 74.2373 59.4226 71.5587 64.0925 66.8336C68.7625 62.1086 71.3664 55.7233 71.3325 49.08C71.3325 48.6293 77.2115 48.6293 77.2115 49.08C77.2506 57.2958 74.0311 65.192 68.2584 71.0382C62.4858 76.8843 54.6309 80.2034 46.4152 80.2682Z" fill="#464646"/>
</g>
<defs>
<filter id="filter0_d_149_839" x="98" y="15" width="169.782" height="33.8005" filterUnits="userSpaceOnUse" color-interpolation-filters="sRGB">
<feFlood flood-opacity="0" result="BackgroundImageFix"/>
<feColorMatrix in="SourceAlpha" type="matrix" values="0 0 0 0 0 0 0 0 0 0 0 0 0 0 0 0 0 0 127 0" result="hardAlpha"/>
<feOffset dx="-2" dy="1"/>
<feGaussianBlur stdDeviation="1"/>
<feComposite in2="hardAlpha" operator="out"/>
<feColorMatrix type="matrix" values="0 0 0 0 1 0 0 0 0 1 0 0 0 0 1 0 0 0 0.7 0"/>
<feBlend mode="normal" in2="BackgroundImageFix" result="effect1_dropShadow_149_839"/>
<feBlend mode="normal" in="SourceGraphic" in2="effect1_dropShadow_149_839" result="shape"/>
</filter>
<filter id="filter1_d_149_839" x="99.2188" y="52.6201" width="20.1885" height="18.1572" filterUnits="userSpaceOnUse" color-interpolation-filters="sRGB">
<feFlood flood-opacity="0" result="BackgroundImageFix"/>
<feColorMatrix in="SourceAlpha" type="matrix" values="0 0 0 0 0 0 0 0 0 0 0 0 0 0 0 0 0 0 127 0" result="hardAlpha"/>
<feOffset dx="-2" dy="1"/>
<feGaussianBlur stdDeviation="0.5"/>
<feComposite in2="hardAlpha" operator="out"/>
<feColorMatrix type="matrix" values="0 0 0 0 1 0 0 0 0 1 0 0 0 0 1 0 0 0 0.7 0"/>
<feBlend mode="normal" in2="BackgroundImageFix" result="effect1_dropShadow_149_839"/>
<feBlend mode="normal" in="SourceGraphic" in2="effect1_dropShadow_149_839" result="shape"/>
</filter>
<filter id="filter2_d_149_839" x="122.069" y="51.3321" width="145.129" height="46.1948" filterUnits="userSpaceOnUse" color-interpolation-filters="sRGB">
<feFlood flood-opacity="0" result="BackgroundImageFix"/>
<feColorMatrix in="SourceAlpha" type="matrix" values="0 0 0 0 0 0 0 0 0 0 0 0 0 0 0 0 0 0 127 0" result="hardAlpha"/>
<feOffset dx="-2" dy="1"/>
<feGaussianBlur stdDeviation="1"/>
<feComposite in2="hardAlpha" operator="out"/>
<feColorMatrix type="matrix" values="0 0 0 0 1 0 0 0 0 1 0 0 0 0 1 0 0 0 0.7 0"/>
<feBlend mode="normal" in2="BackgroundImageFix" result="effect1_dropShadow_149_839"/>
<feBlend mode="normal" in="SourceGraphic" in2="effect1_dropShadow_149_839" result="shape"/>
</filter>
<filter id="filter3_d_149_839" x="0.0664062" y="8.73956" width="88.6973" height="82.9894" filterUnits="userSpaceOnUse" color-interpolation-filters="sRGB">
<feFlood flood-opacity="0" result="BackgroundImageFix"/>
<feColorMatrix in="SourceAlpha" type="matrix" values="0 0 0 0 0 0 0 0 0 0 0 0 0 0 0 0 0 0 127 0" result="hardAlpha"/>
<feOffset dx="-2" dy="1"/>
<feGaussianBlur stdDeviation="1"/>
<feComposite in2="hardAlpha" operator="out"/>
<feColorMatrix type="matrix" values="0 0 0 0 1 0 0 0 0 1 0 0 0 0 1 0 0 0 0.7 0"/>
<feBlend mode="normal" in2="BackgroundImageFix" result="effect1_dropShadow_149_839"/>
<feBlend mode="normal" in="SourceGraphic" in2="effect1_dropShadow_149_839" result="shape"/>
</filter>
</defs>
</svg>
