<svg width="13" height="15" viewBox="0 0 13 15" fill="none" xmlns="http://www.w3.org/2000/svg">
<path d="M0.592979 13.2085L2.26947 14.8525C2.35256 14.9339 2.48329 14.9298 2.56146 14.8432L6.09732 10.9251C6.17549 10.8385 6.17149 10.7022 6.0884 10.6207L4.41191 8.97679C4.32882 8.89531 4.19809 8.89947 4.11992 8.98609L0.584058 12.9042C0.50589 12.9908 0.509884 13.127 0.592979 13.2085Z" fill="#4FABAF"/>
<path d="M2.31931 6.75115C2.69504 9.81292 5.38096 11.9777 8.31822 11.5857C11.2555 11.1941 13.3322 8.39428 12.9562 5.3325C12.5804 2.27073 9.89481 0.106275 6.95727 0.497932C4.02001 0.889589 1.94358 3.68908 2.31931 6.75115ZM3.63153 6.57629C3.34846 4.27007 4.91258 2.16114 7.1253 1.86607C9.33773 1.571 11.3609 3.20143 11.644 5.50795C11.927 7.81418 10.3629 9.9231 8.15019 10.2182C5.93776 10.5132 3.9146 8.88281 3.63153 6.57629Z" fill="#4FABAF"/>
<path d="M0.14962 12.7564L1.82611 14.4003C1.9092 14.4818 2.03993 14.4776 2.1181 14.391L5.65396 10.4729C5.73213 10.3863 5.72813 10.2501 5.64504 10.1686L3.96855 8.52464C3.88546 8.44316 3.75473 8.44732 3.67656 8.53394L0.140698 12.452C0.0625302 12.5386 0.0665246 12.6749 0.14962 12.7564Z" fill="#42C2C9"/>
<path d="M1.87595 6.299C2.25168 9.36078 4.9376 11.5255 7.87486 11.1336C10.8121 10.7419 12.8888 7.94213 12.5128 4.88035C12.1371 1.81858 9.45117 -0.345873 6.51391 0.0457836C3.57665 0.43744 1.50022 3.23722 1.87595 6.299ZM3.18817 6.12414C2.9051 3.81792 4.46922 1.709 6.68194 1.41392C8.89438 1.11885 10.9175 2.74928 11.2006 5.0558C11.4837 7.36203 9.91955 9.47095 7.70683 9.76602C5.4944 10.0611 3.47124 8.43066 3.18817 6.12414Z" fill="#42C2C9"/>
<path d="M9.24537 3.41113C9.34029 3.4962 10.3 4.38909 10.1742 5.78086C10.0643 6.99837 9.2074 7.66796 9.07422 7.76839C10.0229 7.26095 10.5672 6.23189 10.4431 5.22026C10.302 4.06951 9.36239 3.48173 9.24537 3.41113Z" fill="#4FABAF"/>
</svg>
