<svg width="170" height="183" viewBox="0 0 170 183" fill="none" xmlns="http://www.w3.org/2000/svg">
<g filter="url(#filter0_d_161_1162)">
<path fill-rule="evenodd" clip-rule="evenodd" d="M108.648 9.77882C108.558 13.6927 107.017 17.4336 104.325 20.276C101.633 23.1184 97.9813 24.8597 94.0781 25.1623V25.4366C94.0756 28.1056 93.3968 30.7304 92.105 33.066C90.8133 35.4016 88.9508 37.3718 86.6914 38.7926C84.432 40.2134 81.8494 41.0385 79.1848 41.1909C76.5201 41.3432 73.8603 40.8179 71.4537 39.6638C69.997 41.742 68.061 43.4385 65.8096 44.6098C63.5582 45.781 61.0577 46.3926 58.5199 46.3926C55.982 46.3926 53.4815 45.781 51.2302 44.6098C48.9788 43.4385 47.0427 41.742 45.586 39.6638C45.2319 41.8867 45.0582 44.1346 45.0667 46.3855C45.0676 53.8161 47.0236 61.1157 50.7383 67.5512C54.4529 73.9867 59.7956 79.3315 66.2295 83.0488C72.6635 86.7661 79.9622 88.7251 87.3929 88.729C94.8235 88.733 102.124 86.7817 108.562 83.0712C115 79.3606 120.348 74.0215 124.07 67.5899C127.791 61.1584 129.755 53.8608 129.764 46.4302C129.772 38.9996 127.826 31.6975 124.12 25.2572C120.413 18.8169 115.077 13.4653 108.648 9.73962V9.77882ZM87.4152 80.2682C70.3955 80.2682 58.4023 70.6169 56.5896 55.8801C56.5896 55.4294 62.5176 55.4294 62.5176 55.8801C65.1044 66.6583 73.6779 74.2814 87.425 74.2814C94.0683 74.2374 100.423 71.5588 105.093 66.8337C109.762 62.1086 112.366 55.7234 112.332 49.0801C112.332 48.6293 118.211 48.6293 118.211 49.0801C118.251 57.2959 115.031 65.1921 109.258 71.0382C103.486 76.8844 95.6309 80.2035 87.4152 80.2682Z" fill="#464646"/>
</g>
<g filter="url(#filter1_d_161_1162)">
<path d="M4.32666 127.709L4 103.639C4 101.88 7.55599 101 14.668 101C18.0176 101 20.8229 101.632 23.0837 102.895C25.376 104.159 26.5093 105.971 26.4835 108.333C26.4428 109.979 25.7988 111.553 24.674 112.755C23.6267 114.053 22.1985 114.99 20.5908 115.433C22.3764 115.951 24.0477 116.803 25.5164 117.943C26.1807 118.436 26.718 119.081 27.0835 119.823C27.449 120.565 27.6323 121.384 27.6182 122.211C27.6055 123.108 27.3942 123.991 26.9996 124.797C26.605 125.602 26.0368 126.311 25.3359 126.87C22.4275 129.424 17.9531 130.7 11.9129 130.7C6.85825 130.689 4.32953 129.691 4.32666 127.709ZM6.9872 115.562C8.78858 114.883 10.7014 114.548 12.6263 114.573H15.5147C16.9674 114.573 18.7311 113.92 20.8057 112.614C22.8802 111.31 23.9161 110.068 23.9132 108.887C23.9132 107.128 22.8158 105.735 20.6209 104.709C18.3324 103.649 15.8361 103.113 13.314 103.14C11.129 103.068 8.94784 103.373 6.86686 104.043V106.192C6.86686 107.141 6.88691 108.707 6.92702 110.89C6.96141 113.073 6.97431 114.616 6.97431 115.523L6.9872 115.562ZM24.6095 122.211C24.6095 119.821 22.0306 118.078 16.8729 116.98C14.4414 117.716 11.9173 118.101 9.37696 118.124C8.61296 118.127 7.84942 118.086 7.09035 117.999C7.17632 121.266 7.21787 124.587 7.215 127.962C8.80276 128.323 10.4264 128.504 12.0547 128.499C13.5161 128.512 14.9762 128.41 16.4216 128.194C17.7216 127.98 19.0013 127.657 20.2469 127.227C21.4408 126.842 22.5184 126.162 23.3803 125.25C24.1691 124.435 24.6099 123.345 24.6095 122.211ZM32.8447 113.301C33.4714 112.279 34.3592 111.441 35.4168 110.875C36.4744 110.31 37.6636 110.036 38.8621 110.082C40.0995 110.053 41.3247 110.332 42.4276 110.894C43.5304 111.456 44.4763 112.283 45.1803 113.301C46.7483 115.412 47.5789 117.979 47.5443 120.608C47.6154 123.167 46.6909 125.654 44.9654 127.545C44.1377 128.47 43.118 129.202 41.9777 129.691C40.8373 130.181 39.6038 130.415 38.3635 130.378C35.6987 130.378 33.7631 129.63 32.5567 128.134C31.3504 126.635 30.7472 124.528 30.7472 121.812C30.7472 118.261 31.4349 115.416 32.8103 113.275L32.8447 113.301ZM34.6542 115.45C34.2926 116.503 34.0181 117.584 33.8333 118.682C33.6593 119.667 33.5687 120.665 33.5625 121.665C33.558 122.508 33.6271 123.349 33.7688 124.18C33.9119 124.946 34.1456 125.691 34.4651 126.402C34.7855 127.106 35.3018 127.703 35.9523 128.121C36.6565 128.56 37.4739 128.783 38.3033 128.762C39.1988 128.766 40.0829 128.561 40.8856 128.164C41.6884 127.767 42.3876 127.189 42.9281 126.475C44.1957 124.937 44.8644 122.992 44.8107 120.999C44.7965 118.805 44.2034 116.654 43.0915 114.763C41.9453 112.757 40.5527 111.754 38.9137 111.754C37.9535 111.75 37.0291 112.118 36.3348 112.781C35.555 113.522 34.9767 114.45 34.6542 115.476V115.45ZM65.1451 114.99C64.9483 115.216 64.7087 115.401 64.4402 115.534C64.1717 115.666 63.8796 115.745 63.5806 115.764C63.3302 115.767 63.0831 115.707 62.8627 115.588C62.6423 115.469 62.456 115.296 62.3213 115.085C62.0088 114.63 61.7574 114.136 61.5734 113.615C61.3525 113.039 60.9904 112.528 60.5204 112.128C59.9864 111.673 59.3001 111.436 58.5991 111.466C57.5246 111.573 56.5532 112.326 55.6721 113.753C54.7808 115.197 54.1264 116.774 53.7336 118.425C53.3404 119.995 53.1341 121.607 53.119 123.226C53.0849 124.62 53.5276 125.985 54.374 127.094C54.7714 127.625 55.2923 128.051 55.8915 128.334C56.4907 128.618 57.1501 128.752 57.8125 128.723C58.5586 128.753 59.3017 128.614 59.9865 128.316C60.6712 128.018 61.2798 127.57 61.7668 127.004C62.1966 126.514 62.562 126.015 62.9101 125.525C63.7898 124.379 64.5849 123.806 65.2956 123.806C65.6613 123.827 66.0226 123.896 66.3701 124.012C66.3701 125.027 65.446 126.363 63.5892 128.009C61.9723 129.574 59.8213 130.465 57.5718 130.502C56.612 130.556 55.6521 130.398 54.7606 130.038C53.869 129.679 53.0678 129.127 52.4141 128.422C51.1258 126.936 50.4539 125.014 50.5358 123.049C50.5665 120.101 51.2707 117.199 52.5946 114.565C53.2526 113.228 54.2137 112.064 55.4013 111.165C56.5325 110.289 57.925 109.818 59.3556 109.828C60.0128 109.805 60.6673 109.924 61.2746 110.176C61.882 110.428 62.4281 110.808 62.8757 111.29C63.8337 112.389 64.5981 113.644 65.1365 114.999L65.1451 114.99ZM83.3778 118.369L83.1758 123.097C83.1758 125.486 83.4494 127.092 83.9967 127.915C84.1256 128.164 84.3212 128.373 84.5618 128.518C84.8023 128.663 85.0784 128.738 85.3592 128.736C85.5953 128.724 85.8291 128.683 86.0555 128.615C86.2961 128.527 86.5555 128.503 86.808 128.546C87.0606 128.589 87.2975 128.698 87.4954 128.86C87.3063 129.823 86.3564 130.3 84.6371 130.3C84.1378 130.347 83.6371 130.227 83.2128 129.959C82.7885 129.692 82.4642 129.292 82.2904 128.822C81.9498 127.928 81.7287 126.993 81.6327 126.041C81.4952 124.932 81.3835 124.167 81.3018 123.754C79.5166 127.158 77.7874 129.233 76.114 129.978C75.1757 130.377 74.1633 130.572 73.144 130.55C72.599 130.553 72.0642 130.401 71.6017 130.113C71.1392 129.825 70.7679 129.411 70.5307 128.921C69.9118 127.833 69.6023 126.251 69.6023 124.158C69.6242 121.932 69.9718 119.721 70.6338 117.595C71.2285 115.474 72.2525 113.497 73.6425 111.788C74.9578 110.204 76.3905 109.413 77.9407 109.416C80.1929 109.416 81.6901 110.35 82.4322 112.218C83.1119 114.192 83.4208 116.274 83.3434 118.36L83.3778 118.369ZM73.2901 117.053C72.9266 118.449 72.6396 119.864 72.4305 121.291C72.2494 122.465 72.1517 123.65 72.1382 124.837C72.1117 125.764 72.3328 126.681 72.7786 127.494C72.9203 127.822 73.1521 128.104 73.4473 128.306C73.7424 128.509 74.0887 128.623 74.4463 128.637C75.9248 128.637 77.3576 127.234 78.7444 124.429C80.0229 122.014 80.7288 119.338 80.8075 116.606C80.8626 115.212 80.4243 113.842 79.5696 112.738C79.3106 112.421 78.9822 112.167 78.6096 111.996C78.237 111.825 77.8302 111.743 77.4206 111.754C76.5309 111.754 75.7013 112.27 74.9921 113.297C74.1936 114.433 73.6108 115.706 73.2729 117.053H73.2901ZM106.704 101.666C105.659 111.122 105.139 113.92 105.139 117.943C105.144 121.98 105.515 126.008 106.248 129.978C105.888 130.423 105.374 130.716 104.808 130.799C104.459 130.811 104.11 130.757 103.781 130.64C103.183 128.475 102.837 126.248 102.749 124.004C102.088 125.052 101.606 125.787 101.288 126.23C100.779 126.903 100.236 127.548 99.6591 128.164C99.0707 128.927 98.3165 129.547 97.4535 129.976C96.5905 130.405 95.6413 130.632 94.6776 130.64C94.0062 130.665 93.3435 130.482 92.7797 130.117C92.2159 129.752 91.7785 129.221 91.527 128.598C90.8222 126.946 90.4906 125.158 90.5557 123.363C90.5478 121.311 90.7917 119.266 91.282 117.273C91.7119 115.442 92.5494 113.732 93.732 112.27C94.2526 111.609 94.9178 111.077 95.6764 110.714C96.4349 110.352 97.2666 110.168 98.1075 110.176C99.0992 110.172 100.078 110.4 100.966 110.843C101.763 111.196 102.407 111.825 102.78 112.614C102.835 111.87 102.887 110.727 102.943 109.175C103.049 107.892 103.228 106.616 103.48 105.354C103.785 102.719 104.451 101.4 105.496 101.4C105.91 101.399 106.319 101.493 106.691 101.675L106.704 101.666ZM101.924 114.045C101.61 113.47 101.129 113.004 100.544 112.708C99.8256 112.39 99.043 112.243 98.2579 112.278C97.3123 112.278 96.4269 112.813 95.6016 113.881C93.9827 115.996 93.1718 119.059 93.1689 123.071C93.1705 124.385 93.3794 125.69 93.7878 126.939C94.2177 128.229 94.8022 128.852 95.6016 128.852C96.7478 128.852 97.8739 128.09 98.98 126.565C100.12 124.983 100.987 123.22 101.546 121.352C102.105 119.642 102.409 117.859 102.449 116.061C102.45 115.353 102.263 114.657 101.907 114.045H101.924ZM112.747 101.58C112.747 102.216 112.7 102.913 112.7 103.682C112.7 104.447 112.747 105.247 112.824 106.072C112.63 106.293 112.388 106.467 112.118 106.583C111.847 106.698 111.554 106.751 111.26 106.738C110.434 106.738 110.026 106.08 110.026 104.761V104.159V103.188C110.044 102.848 110.091 102.51 110.168 102.178C110.226 101.884 110.389 101.622 110.626 101.44C110.863 101.258 111.159 101.169 111.457 101.189C112.124 101.189 112.545 101.327 112.747 101.619V101.58ZM110.104 120.556C110.104 115.046 110.38 111.866 110.933 111.015C110.997 110.882 111.096 110.769 111.218 110.688C111.34 110.606 111.482 110.559 111.629 110.55C112.111 110.622 112.574 110.787 112.992 111.036C112.854 113.429 112.786 116.032 112.786 118.846C112.786 118.846 112.786 121.962 112.867 128.186C112.899 128.514 112.865 128.845 112.767 129.159C112.668 129.473 112.508 129.765 112.296 130.017C112.032 130.319 111.663 130.509 111.264 130.55C110.924 130.544 110.591 130.455 110.293 130.292C110.155 126.635 110.086 123.398 110.086 120.578L110.104 120.556ZM118.627 113.679C117.389 113.679 116.555 113.374 116.117 112.777C116.11 112.569 116.16 112.364 116.26 112.182C116.361 112.001 116.509 111.85 116.688 111.745C117.054 111.5 117.469 111.338 117.905 111.273C118.334 111.204 119.057 111.139 120.054 111.083C120.131 110.348 120.178 109.364 120.196 108.225C120.196 107.082 120.23 106.076 120.26 105.242C120.337 103.072 120.69 102.302 121.249 101.804C121.354 101.699 121.478 101.616 121.615 101.559C121.753 101.502 121.9 101.473 122.048 101.473C122.302 101.468 122.556 101.494 122.805 101.55C122.89 103.527 122.933 104.163 122.933 104.559L122.684 110.74C122.832 110.774 122.984 110.787 123.135 110.778L126.101 110.654C128.25 110.654 129.32 110.985 129.316 111.642C129.316 112.579 128.935 113.128 128.173 113.288C127.762 113.379 127.342 113.421 126.922 113.413C126.299 113.4 125.679 113.34 125.065 113.232C124.529 113.129 123.986 113.066 123.441 113.043C123.219 113.037 122.998 113.05 122.779 113.082C122.698 113.87 122.658 114.662 122.658 115.455C122.658 116.237 122.658 117.208 122.714 118.377C122.762 119.546 122.869 120.956 123.045 122.555C123.176 124.011 123.576 125.431 124.223 126.741C124.795 127.88 125.594 128.487 126.509 128.487C127.1 128.447 127.668 128.25 128.156 127.915C128.591 127.611 129.091 127.415 129.617 127.343C129.934 127.339 130.247 127.42 130.524 127.575C130.79 127.721 130.915 127.898 130.915 128.087C130.915 128.658 130.343 129.23 129.166 129.754C128.231 130.234 127.206 130.51 126.157 130.563C123.14 130.563 121.26 127.706 120.518 121.992C120.3 120.344 120.135 117.518 120.024 113.512C119.552 113.603 119.073 113.652 118.592 113.658L118.627 113.679ZM136.103 113.4C136.731 112.379 137.62 111.544 138.677 110.979C139.734 110.414 140.922 110.14 142.12 110.185C143.358 110.157 144.584 110.435 145.688 110.996C146.792 111.557 147.74 112.383 148.447 113.4C150.015 115.511 150.845 118.078 150.811 120.707C150.882 123.266 149.958 125.753 148.232 127.644C147.408 128.572 146.392 129.308 145.254 129.802C144.116 130.295 142.883 130.534 141.643 130.502C138.975 130.502 137.038 129.754 135.832 128.259C134.629 126.757 134.025 124.648 134.023 121.932C134.023 118.39 134.709 115.548 136.081 113.404L136.103 113.4ZM137.917 115.549C137.552 116.603 137.276 117.686 137.091 118.786C136.923 119.771 136.834 120.769 136.825 121.769C136.816 122.611 136.885 123.453 137.031 124.283C137.172 125.05 137.407 125.796 137.732 126.505C138.05 127.209 138.565 127.806 139.215 128.224C139.919 128.659 140.734 128.882 141.562 128.865C142.458 128.867 143.343 128.662 144.147 128.265C144.95 127.868 145.651 127.291 146.195 126.578C147.456 125.037 148.121 123.093 148.069 121.102C148.052 118.909 147.459 116.758 146.35 114.866C145.206 112.841 143.818 111.857 142.168 111.857C141.207 111.852 140.283 112.221 139.589 112.884C138.808 113.628 138.23 114.559 137.908 115.588L137.917 115.549ZM165.691 113.692C165.419 113.061 164.923 112.553 164.299 112.265C163.494 111.883 162.61 111.7 161.72 111.732C160.699 111.736 159.703 112.051 158.866 112.635C158.452 112.89 158.11 113.247 157.875 113.673C157.64 114.098 157.52 114.577 157.525 115.063C157.512 115.542 157.623 116.017 157.847 116.44C158.07 116.864 158.399 117.223 158.801 117.483C159.725 118.114 160.759 118.568 161.849 118.82C163.039 119.125 164.243 119.448 165.45 119.791C166.597 120.11 167.649 120.7 168.519 121.511C168.936 121.903 169.264 122.379 169.481 122.909C169.698 123.438 169.8 124.008 169.779 124.58C169.812 125.421 169.617 126.255 169.215 126.995C168.812 127.734 168.217 128.35 167.492 128.779C165.836 129.781 163.925 130.283 161.991 130.223C160.293 130.141 158.62 129.793 157.03 129.191C154.985 128.504 153.962 127.681 153.962 126.724C153.962 126.006 154.568 125.654 155.771 125.654C156.294 125.725 156.784 125.954 157.172 126.312C158.718 127.522 160.616 128.195 162.579 128.229C163.456 128.253 164.328 128.084 165.132 127.734C165.735 127.491 166.248 127.068 166.602 126.523C166.956 125.977 167.133 125.337 167.11 124.687C167.106 124.262 166.988 123.846 166.767 123.482C166.546 123.119 166.23 122.822 165.855 122.624C164.908 122.06 163.88 121.644 162.807 121.39C161.612 121.089 160.413 120.763 159.201 120.402C158.044 120.075 156.989 119.462 156.132 118.618C155.717 118.199 155.392 117.699 155.176 117.15C154.96 116.601 154.859 116.014 154.877 115.425C154.875 114.606 155.085 113.801 155.485 113.087C155.886 112.373 156.464 111.775 157.164 111.35C158.82 110.265 160.772 109.718 162.751 109.785C164.199 109.759 165.623 110.156 166.847 110.929C167.436 111.282 167.918 111.788 168.241 112.394C168.564 113 168.717 113.682 168.683 114.367C168.683 115.356 168.11 115.85 166.963 115.85C166.632 115.891 166.298 115.801 166.031 115.601C165.85 115.342 165.764 115.03 165.786 114.715C165.786 114.398 165.747 114.082 165.67 113.774L165.691 113.692Z" fill="#464646"/>
</g>
<g filter="url(#filter2_d_161_1162)">
<path d="M12.0374 137.753C11.536 142.338 11.2852 145.602 11.2852 147.544C11.2857 149.501 11.4656 151.453 11.8225 153.377C11.6508 153.595 11.4012 153.738 11.1262 153.777C10.9567 153.781 10.7877 153.755 10.6276 153.699C10.338 152.65 10.1693 151.572 10.1247 150.484C9.80238 150.987 9.55309 151.344 9.41555 151.567C9.17055 151.89 8.90837 152.204 8.629 152.504C8.34318 152.872 7.97783 153.171 7.56026 153.378C7.1427 153.585 6.68374 153.695 6.21774 153.699C5.89237 153.713 5.57086 153.625 5.29756 153.448C5.02425 153.271 4.81264 153.013 4.69191 152.711C4.3487 151.912 4.18862 151.047 4.22342 150.179C4.21661 149.183 4.33356 148.189 4.57156 147.222C4.77856 146.329 5.19058 145.496 5.77503 144.789C6.0246 144.467 6.34529 144.206 6.7121 144.028C7.07891 143.85 7.48193 143.759 7.88972 143.762C8.37525 143.757 8.8552 143.866 9.2909 144.08C9.67012 144.256 9.97471 144.56 10.1505 144.94C10.1505 144.579 10.2021 144.028 10.2322 143.281C10.258 142.537 10.2881 141.875 10.3225 141.299C10.3568 140.723 10.4127 140.134 10.4944 139.533C10.6348 138.258 10.96 137.62 11.4701 137.62C11.6665 137.623 11.8601 137.669 12.0374 137.753ZM9.7508 145.657C9.60074 145.379 9.36799 145.154 9.0846 145.013C8.73634 144.857 8.35665 144.785 7.97567 144.802C7.715 144.82 7.46234 144.9 7.23827 145.035C7.0142 145.169 6.82505 145.354 6.68624 145.576C5.90111 146.599 5.50855 148.083 5.50855 150.029C5.50804 150.661 5.60815 151.289 5.80512 151.89C6.00714 152.509 6.29511 152.822 6.68624 152.822C7.25789 152.822 7.79086 152.457 8.31953 151.726C8.86949 150.959 9.28649 150.105 9.55309 149.199C9.8259 148.366 9.97082 147.497 9.9829 146.62C9.987 146.279 9.90102 145.942 9.73362 145.645L9.7508 145.657ZM14.6292 149.766C14.6292 150.029 14.5862 150.196 14.5862 150.304C14.5667 150.648 14.6219 150.992 14.7481 151.312C14.8742 151.633 15.0683 151.922 15.3169 152.161C15.7851 152.591 16.4001 152.826 17.0361 152.818C17.5911 152.838 18.1442 152.743 18.6608 152.539C19.0047 152.409 19.3147 152.204 19.5677 151.937C20.0491 151.365 20.4875 151.039 20.8872 151.039C21.0663 151.048 21.2423 151.089 21.4073 151.159C21.2914 151.544 21.0977 151.902 20.8382 152.209C20.5787 152.517 20.259 152.768 19.8987 152.947C18.9028 153.518 17.7665 153.798 16.6192 153.755C15.732 153.767 14.8728 153.445 14.2123 152.853C13.8748 152.549 13.6091 152.173 13.4344 151.754C13.2597 151.335 13.1804 150.882 13.2022 150.428C13.2037 149.403 13.4113 148.389 13.8125 147.446C14.2113 146.505 14.8165 145.666 15.5834 144.991C16.2032 144.365 17.037 143.997 17.9172 143.96C18.5902 143.929 19.2573 144.098 19.8342 144.445C20.0689 144.601 20.2592 144.814 20.3865 145.065C20.5138 145.316 20.5738 145.596 20.5606 145.877C20.5581 146.443 20.416 146.999 20.1468 147.497C19.8777 147.995 19.4898 148.419 19.0176 148.731C18.0757 149.46 16.9209 149.862 15.7295 149.874C15.3623 149.874 14.9957 149.844 14.6335 149.784L14.6292 149.766ZM16.1464 149.109C16.7589 149.114 17.3531 148.9 17.8227 148.507C18.2603 148.172 18.6173 147.743 18.8671 147.252C19.0568 146.88 19.1624 146.47 19.1766 146.053C19.1744 145.874 19.1351 145.698 19.0611 145.535C18.9871 145.372 18.8801 145.227 18.7468 145.107C18.6212 144.973 18.4696 144.865 18.3011 144.791C18.1326 144.718 17.9508 144.679 17.7668 144.678C17.1049 144.678 16.4774 145.133 15.9229 146.053C15.3734 146.936 14.9672 147.901 14.7194 148.911C15.1811 149.015 15.6518 149.074 16.1249 149.087L16.1464 149.109Z" fill="#464646"/>
</g>
<g filter="url(#filter3_d_161_1162)">
<path d="M39.3347 137.332L46.2375 137.465C48.5299 137.465 50.1144 137.733 50.9912 138.269C50.9927 138.604 50.9066 138.934 50.7415 139.226C50.5764 139.517 50.3381 139.761 50.05 139.932C49.3116 140.238 48.5141 140.375 47.7161 140.332L38.0023 140.199C35.5524 140.199 33.4907 140.273 31.8173 140.422C31.4358 142.808 31.2704 145.223 31.323 147.639L31.3703 149.659C31.3703 150.519 31.3703 151.451 31.323 152.44C33.105 152.711 34.9064 152.831 36.7086 152.801L42.0382 152.754C44.0713 152.754 45.2361 152.861 45.5369 153.067C45.6614 153.134 45.7676 153.229 45.8463 153.346C45.925 153.463 45.9737 153.598 45.9882 153.738C45.9882 154.884 44.5383 155.457 41.6385 155.457L31.4864 155.139C31.4563 155.853 31.4262 157.082 31.3961 158.81C31.3302 162.429 31.1955 165.164 30.9921 167.015C32.8976 167.141 34.273 167.201 35.1183 167.195C35.9779 167.195 36.8375 167.195 37.7186 167.148C38.6126 167.117 40.286 167.028 42.7388 166.882C45.1888 166.733 47.0198 166.658 48.2318 166.658C49.069 166.615 49.9079 166.697 50.7205 166.903C50.9393 166.984 51.1245 167.136 51.2462 167.335C51.3679 167.534 51.4189 167.768 51.391 167.999C51.4061 168.138 51.3874 168.277 51.3365 168.407C51.2856 168.536 51.204 168.652 51.0987 168.743C50.9349 168.858 50.7641 168.963 50.5872 169.056C50.4041 169.141 50.2103 169.2 50.0113 169.233L49.4439 169.349C49.2204 169.383 48.9926 169.405 48.7691 169.418L48.0986 169.456H46.8092C40.9551 169.728 37.2057 169.872 35.561 169.886C30.6267 169.886 28.1596 169.198 28.1596 167.823C28.1052 165.046 28.0751 162.4 28.0693 159.884C28.0693 151.603 28.3401 144.713 28.8817 139.215C29.5006 138.235 31.323 137.662 34.3489 137.495C36.2358 137.388 37.8992 137.332 39.3347 137.332ZM67.3327 151.619C67.0494 150.907 66.5075 150.328 65.8155 149.999C64.9461 149.588 63.991 149.392 63.0303 149.427C61.917 149.435 60.8322 149.779 59.9184 150.416C59.4663 150.692 59.0941 151.082 58.8386 151.546C58.5831 152.01 58.4531 152.533 58.4614 153.063C58.4483 153.58 58.5664 154.091 58.8047 154.55C59.043 155.008 59.3936 155.399 59.8239 155.685C60.8337 156.369 61.9595 156.862 63.1463 157.142C64.4444 157.469 65.751 157.82 67.0662 158.195C68.3122 158.532 69.459 159.162 70.4102 160.035C70.861 160.462 71.2157 160.981 71.4506 161.556C71.6856 162.131 71.7954 162.749 71.7727 163.37C71.8125 164.284 71.6047 165.191 71.1711 165.996C70.7376 166.801 70.0945 167.474 69.3098 167.943C67.494 169.025 65.4052 169.563 63.2925 169.491C61.4433 169.391 59.6207 169.005 57.8897 168.347C55.6633 167.588 54.5501 166.691 54.5501 165.657C54.5501 164.894 55.2063 164.513 56.5186 164.513C57.089 164.593 57.6214 164.845 58.0445 165.235C59.7242 166.554 61.7854 167.292 63.92 167.342C64.8748 167.364 65.8233 167.181 66.7009 166.804C67.3569 166.539 67.9154 166.079 68.3 165.485C68.6846 164.891 68.8766 164.193 68.8499 163.486C68.8437 163.025 68.7141 162.574 68.4744 162.18C68.2348 161.787 67.894 161.464 67.4874 161.247C66.4563 160.628 65.3355 160.173 64.165 159.897C62.8756 159.575 61.5646 159.214 60.2451 158.823C58.9848 158.464 57.8349 157.795 56.9012 156.876C56.4551 156.419 56.1059 155.878 55.8747 155.283C55.6435 154.689 55.535 154.053 55.5558 153.416C55.5511 152.526 55.7751 151.651 56.2064 150.873C56.6377 150.096 57.2618 149.442 58.0187 148.976C59.8237 147.786 61.953 147.186 64.1134 147.256C65.6961 147.24 67.2488 147.688 68.5792 148.546C69.2127 148.928 69.7321 149.474 70.0829 150.126C70.4337 150.777 70.6031 151.511 70.5735 152.251C70.5735 153.325 69.9589 153.863 68.7382 153.863C68.3793 153.905 68.0177 153.808 67.7281 153.592C67.531 153.309 67.4356 152.968 67.4574 152.625C67.4567 152.279 67.4149 151.934 67.3327 151.598V151.619ZM77.7986 168.382C77.8903 170.806 78.1884 174.234 78.6927 178.667C78.4338 178.941 78.1212 179.159 77.7744 179.307C77.4275 179.455 77.0539 179.53 76.6768 179.527C76.5126 179.525 76.3488 179.511 76.1868 179.484C76.1553 178.315 75.9375 175.668 75.5335 171.545C75.1295 167.428 74.9275 164.26 74.9275 162.089C74.9087 160.176 75.0452 158.264 75.3358 156.373C75.5884 154.806 76.0555 153.282 76.7241 151.843C78.0651 148.943 80.5409 147.493 84.1513 147.493C86.3992 147.493 88.2302 148.718 89.6701 151.168C91.1448 153.779 91.8872 156.74 91.8191 159.738C91.8431 162.219 90.9491 164.621 89.309 166.482C87.6356 168.43 85.3204 169.403 82.3633 169.4C80.7751 169.435 79.2029 169.078 77.7857 168.36L77.7986 168.382ZM83.816 149.87C81.2744 149.87 79.5852 151.183 78.7485 153.811C78.0351 156.055 77.6769 159.148 77.674 163.091C77.674 164.526 77.674 165.588 77.7213 166.276C79.4997 166.718 81.3131 167.006 83.1412 167.135C83.9477 167.159 84.7474 166.981 85.4678 166.618C86.1883 166.255 86.8068 165.717 87.2674 165.055C88.3148 163.567 88.8503 161.78 88.7933 159.962C88.7933 157.005 88.352 154.585 87.4694 152.702C86.5754 150.785 85.359 149.848 83.8074 149.848L83.816 149.87ZM110.142 156.639L109.919 161.797C109.919 164.393 110.217 166.141 110.813 167.041C110.953 167.311 111.166 167.538 111.426 167.697C111.687 167.855 111.986 167.939 112.291 167.939C112.551 167.926 112.808 167.88 113.056 167.801C113.318 167.705 113.601 167.678 113.876 167.725C114.152 167.772 114.41 167.89 114.625 168.068C114.419 169.117 113.37 169.641 111.487 169.641C110.939 169.698 110.387 169.57 109.92 169.277C109.452 168.984 109.096 168.543 108.908 168.025C108.542 167.057 108.301 166.046 108.191 165.016C108.039 163.804 107.921 162.973 107.838 162.523C105.895 166.228 104.011 168.485 102.186 169.293C101.17 169.728 100.072 169.942 98.9669 169.92C98.3711 169.926 97.7859 169.763 97.2797 169.448C96.7736 169.134 96.3674 168.682 96.1087 168.145C95.4324 166.968 95.0957 165.248 95.0986 162.988C95.1301 160.56 95.5138 158.149 96.2376 155.831C96.8905 153.525 98.0047 151.376 99.5128 149.513C100.945 147.794 102.521 146.934 104.241 146.934C106.691 146.934 108.318 147.95 109.123 149.981C109.866 152.105 110.211 154.347 110.142 156.596V156.639ZM99.1474 155.139C98.748 156.661 98.4338 158.203 98.2061 159.76C98.0085 161.04 97.9037 162.333 97.8924 163.628C97.863 164.638 98.1018 165.637 98.5844 166.525C98.7438 166.876 98.9987 167.176 99.3202 167.39C99.6417 167.603 100.017 167.722 100.402 167.733C102.016 167.733 103.569 166.208 105.062 163.159C106.453 160.529 107.221 157.615 107.305 154.641C107.365 153.122 106.889 151.631 105.96 150.428C105.678 150.078 105.318 149.799 104.909 149.612C104.501 149.424 104.054 149.335 103.605 149.35C102.633 149.35 101.752 149.911 100.961 151.034C100.111 152.287 99.4968 153.684 99.1474 155.156V155.139ZM136.111 168.588C135.883 168.853 135.601 169.067 135.284 169.215C134.966 169.363 134.622 169.442 134.272 169.448C132.982 169.448 132.032 168.756 131.413 167.385C130.737 165.794 130.366 164.092 130.317 162.364C130.214 160.39 130.147 158.416 130.115 156.441C130.111 154.757 129.953 153.077 129.643 151.421C129.363 150.05 128.83 149.358 128.052 149.358C127.009 149.358 126.12 150.301 125.383 152.186C124.618 154.211 124.098 156.321 123.836 158.47C123.002 164.9 122.197 168.502 121.42 169.276C120.993 169.523 120.516 169.67 120.023 169.706C119.691 169.714 119.36 169.667 119.043 169.568C118.413 166.82 118.009 162.082 117.831 155.354C117.767 152.006 117.711 149.84 117.647 148.851C118.115 148.494 118.676 148.276 119.263 148.223C119.626 148.213 119.988 148.259 120.337 148.361C120.486 149.65 120.569 152.281 120.586 156.252C120.586 160.23 120.609 162.522 120.655 163.129C120.801 162.505 120.991 161.489 121.223 160.082C121.446 158.677 121.652 157.503 121.829 156.609C122.057 155.526 122.344 154.455 122.688 153.403C122.982 152.368 123.415 151.379 123.978 150.463C124.486 149.697 125.159 149.054 125.946 148.58C126.794 148.056 127.774 147.785 128.77 147.798C129.415 147.771 130.052 147.939 130.601 148.279C131.149 148.619 131.582 149.117 131.843 149.706C132.535 151.187 132.894 152.8 132.896 154.434C132.962 156.323 132.999 158.237 133.008 160.177C133.003 161.979 133.245 163.774 133.726 165.511C134.173 167.124 134.965 168.171 136.103 168.652L136.111 168.588ZM121.068 144.149C120.827 144.366 120.543 144.53 120.233 144.628C119.924 144.727 119.598 144.758 119.276 144.721C118.416 144.721 117.986 144.531 117.986 144.149C117.996 143.971 118.059 143.8 118.167 143.659C120.072 141.367 121.864 140.22 123.544 140.22C124.747 140.293 125.91 140.688 126.909 141.364C128.198 142.142 128.985 142.507 129.286 142.507C129.558 142.517 129.823 142.419 130.025 142.236C130.204 142.076 130.361 141.894 130.494 141.695C130.81 141.205 131.097 140.697 131.353 140.173C131.624 139.696 132.187 139.455 133.073 139.455H133.249C134.108 139.485 134.478 139.769 134.392 140.315L134.263 140.719C132.942 143.41 131.133 144.755 128.835 144.755C127.75 144.637 126.714 144.244 125.826 143.612C124.584 142.864 123.771 142.468 123.38 142.468C122.736 142.593 121.97 143.139 121.107 144.162L121.068 144.149ZM141.518 150.906C142.203 149.79 143.173 148.878 144.328 148.262C145.484 147.647 146.782 147.352 148.09 147.407C149.437 147.373 150.771 147.676 151.971 148.287C153.172 148.897 154.201 149.797 154.967 150.906C156.676 153.203 157.583 155.998 157.546 158.861C157.616 161.65 156.604 164.358 154.722 166.417C153.82 167.421 152.709 168.216 151.468 168.747C150.227 169.278 148.885 169.532 147.536 169.491C144.63 169.491 142.521 168.678 141.209 167.054C139.894 165.415 139.236 163.122 139.236 160.177C139.253 156.308 140.015 153.209 141.523 150.88L141.518 150.906ZM143.495 153.257C143.1 154.403 142.8 155.581 142.597 156.777C142.411 157.851 142.315 158.94 142.309 160.03C142.3 160.945 142.374 161.858 142.528 162.76C142.678 163.598 142.931 164.415 143.281 165.192C143.625 165.965 144.186 166.62 144.897 167.079C145.662 167.557 146.552 167.797 147.454 167.767C148.428 167.773 149.39 167.554 150.265 167.127C151.141 166.699 151.905 166.076 152.5 165.304C153.871 163.623 154.594 161.507 154.537 159.338C154.52 156.951 153.879 154.61 152.676 152.547C151.438 150.35 149.914 149.252 148.103 149.255C147.037 149.243 146.009 149.654 145.245 150.398C144.42 151.194 143.808 152.184 143.465 153.278L143.495 153.257ZM161.913 143.023C161.913 140.066 161.513 139.245 160.701 138.23C160.938 137.929 161.247 137.693 161.599 137.543C161.951 137.393 162.336 137.333 162.717 137.371C162.908 137.372 163.099 137.386 163.288 137.414C164.036 138.162 164.432 139.159 164.432 142.748C164.432 144.69 164.343 146.947 164.165 149.517C163.804 153.996 163.614 157.284 163.594 159.381C163.594 165.023 164.685 167.847 166.869 167.853L168.523 167.539C168.657 167.539 168.788 167.572 168.905 167.634C169.023 167.696 169.123 167.786 169.198 167.896C169.108 168.971 168.231 169.512 166.576 169.512C165.866 169.555 165.156 169.443 164.494 169.183C163.831 168.923 163.234 168.522 162.742 168.008C161.818 166.949 161.233 165.638 161.062 164.243C160.861 163.004 160.747 161.753 160.722 160.499C160.722 159.51 160.722 158.432 160.77 157.25C160.77 156.068 160.937 154.391 161.174 152.165C161.664 147.686 161.91 144.64 161.913 143.027V143.023Z" fill="#464646"/>
</g>
<defs>
<filter id="filter0_d_161_1162" x="41.0664" y="8.73962" width="88.6973" height="82.9894" filterUnits="userSpaceOnUse" color-interpolation-filters="sRGB">
<feFlood flood-opacity="0" result="BackgroundImageFix"/>
<feColorMatrix in="SourceAlpha" type="matrix" values="0 0 0 0 0 0 0 0 0 0 0 0 0 0 0 0 0 0 127 0" result="hardAlpha"/>
<feOffset dx="-2" dy="1"/>
<feGaussianBlur stdDeviation="1"/>
<feComposite in2="hardAlpha" operator="out"/>
<feColorMatrix type="matrix" values="0 0 0 0 1 0 0 0 0 1 0 0 0 0 1 0 0 0 0.7 0"/>
<feBlend mode="normal" in2="BackgroundImageFix" result="effect1_dropShadow_161_1162"/>
<feBlend mode="normal" in="SourceGraphic" in2="effect1_dropShadow_161_1162" result="shape"/>
</filter>
<filter id="filter1_d_161_1162" x="0" y="100" width="169.782" height="33.8005" filterUnits="userSpaceOnUse" color-interpolation-filters="sRGB">
<feFlood flood-opacity="0" result="BackgroundImageFix"/>
<feColorMatrix in="SourceAlpha" type="matrix" values="0 0 0 0 0 0 0 0 0 0 0 0 0 0 0 0 0 0 127 0" result="hardAlpha"/>
<feOffset dx="-2" dy="1"/>
<feGaussianBlur stdDeviation="1"/>
<feComposite in2="hardAlpha" operator="out"/>
<feColorMatrix type="matrix" values="0 0 0 0 1 0 0 0 0 1 0 0 0 0 1 0 0 0 0.7 0"/>
<feBlend mode="normal" in2="BackgroundImageFix" result="effect1_dropShadow_161_1162"/>
<feBlend mode="normal" in="SourceGraphic" in2="effect1_dropShadow_161_1162" result="shape"/>
</filter>
<filter id="filter2_d_161_1162" x="1.21875" y="137.62" width="20.1885" height="18.1572" filterUnits="userSpaceOnUse" color-interpolation-filters="sRGB">
<feFlood flood-opacity="0" result="BackgroundImageFix"/>
<feColorMatrix in="SourceAlpha" type="matrix" values="0 0 0 0 0 0 0 0 0 0 0 0 0 0 0 0 0 0 127 0" result="hardAlpha"/>
<feOffset dx="-2" dy="1"/>
<feGaussianBlur stdDeviation="0.5"/>
<feComposite in2="hardAlpha" operator="out"/>
<feColorMatrix type="matrix" values="0 0 0 0 1 0 0 0 0 1 0 0 0 0 1 0 0 0 0.7 0"/>
<feBlend mode="normal" in2="BackgroundImageFix" result="effect1_dropShadow_161_1162"/>
<feBlend mode="normal" in="SourceGraphic" in2="effect1_dropShadow_161_1162" result="shape"/>
</filter>
<filter id="filter3_d_161_1162" x="24.0693" y="136.332" width="145.129" height="46.1948" filterUnits="userSpaceOnUse" color-interpolation-filters="sRGB">
<feFlood flood-opacity="0" result="BackgroundImageFix"/>
<feColorMatrix in="SourceAlpha" type="matrix" values="0 0 0 0 0 0 0 0 0 0 0 0 0 0 0 0 0 0 127 0" result="hardAlpha"/>
<feOffset dx="-2" dy="1"/>
<feGaussianBlur stdDeviation="1"/>
<feComposite in2="hardAlpha" operator="out"/>
<feColorMatrix type="matrix" values="0 0 0 0 1 0 0 0 0 1 0 0 0 0 1 0 0 0 0.7 0"/>
<feBlend mode="normal" in2="BackgroundImageFix" result="effect1_dropShadow_161_1162"/>
<feBlend mode="normal" in="SourceGraphic" in2="effect1_dropShadow_161_1162" result="shape"/>
</filter>
</defs>
</svg>
