<?xml version="1.0" encoding="UTF-8"?>
<svg id="Layer_2" data-name="Layer 2" xmlns="http://www.w3.org/2000/svg" viewBox="0 0 1920 1080">
  <defs>
    <style>
      .cls-1 {
        fill: #d3d3d3;
      }

      .cls-2 {
        fill: #e5e5e5;
        opacity: .15;
      }
    </style>
  </defs>
  <g id="broke">
    <g>
      <path class="cls-1" d="M1667.29,133.29l-243.91,98.24,25.23,60.08-86.63,53.58,15.14,17.05-9.25-.81-5.05,8.93-11.82-5.59-3.32,21.83h13.46l-1.68,8.93,8.41,11.37-2.52,4.87,5.89-3.25-8.41-12.99,1.68-11.37h-13.5l1.73-15.43,11.19,4.87,4.79-8.93,12.62-.81-15.16-15.82,88.33-53.18-25.23-58.45,241.38-97.42c13.46-13.8,26.91-27.6,40.37-41.41,24.95-26.52,49.9-53.04,74.85-79.56"/>
      <polygon class="cls-1" points="1221.19 18 1283.77 163.33 1245.08 201.48 1349.41 375.32 1351.01 364.76 1253.49 203.11 1289.66 164.95 1221.19 18"/>
      <polygon class="cls-1" points="1004.54 159.27 1195.46 303.78 1221.19 305.52 1364.51 413.38 1365.35 411.76 1223.21 302.16 1196.3 299.72 1004.54 159.27"/>
      <polygon class="cls-1" points="1694.21 446.67 1602.53 336.25 1505.81 363.05 1524.31 304.59 1517.58 285.11 1510.01 294.85 1447.78 320.02 1408.07 322.81 1413.96 319.26 1446.09 317.58 1507.49 292.41 1520.11 278.61 1527.68 304.59 1510.01 359.8 1603.37 332.2 1694.21 446.67"/>
      <polygon class="cls-1" points="759 625.53 879.93 566.82 879.93 503.79 941.28 497.62 1006.13 435.76 1088.5 409.55 1146.34 400.11 1162.11 426.32 1260.26 424.23 1288.31 414.79 1356.66 433.66 1363.67 430.52 1291.81 411.64 1316.35 402.21 1300.29 400.11 1288.31 396.96 1283.05 390.67 1296.97 389.15 1292.3 386.97 1274.29 389.63 1281.3 396.96 1297.07 402.21 1305.83 403.26 1259.96 421.08 1165.84 421.08 1148.09 394.87 1085 406.4 1002.9 432.61 939.53 493.42 874.68 500.76 874.68 564.72 759 625.53"/>
      <polygon class="cls-1" points="813.32 127.42 842 196.02 915.96 246.49 994.46 277.56 1014.08 300.85 1101.74 300.85 1118.24 373.33 1221.1 404.55 1229.94 400.51 1122.77 369.45 1112.2 290.5 1017.1 295.68 998.99 273.67 918.98 242.61 846.53 193.43 813.32 127.42"/>
      <polygon class="cls-1" points="907.78 988 992.28 747.18 1123.16 792.43 1163.35 679.29 1198.9 532.92 1376.66 420.69 1193.23 520.9 1159.22 676.06 1122.13 785.97 990.22 739.09 907.78 988"/>
      <polygon class="cls-1" points="1316.57 656.13 1298.07 625.28 1314.89 613.92 1295.55 577.38 1295.55 546.1 1345.17 538.41 1351.9 521.36 1381.33 525.42 1408.07 501.14 1439.37 419.07 1422.06 411.76 1420.86 424.75 1360.31 423.13 1414.59 420.69 1420.02 404.45 1446.09 416.63 1413.29 502.69 1385.54 529.48 1354.42 524.61 1351.06 540.04 1300.59 548.97 1302.27 575.76 1319.1 613.1 1303.96 623.66 1316.57 656.13"/>
      <polygon class="cls-1" points="1191.25 835.56 1239.2 807.14 1239.2 789.31 1257.7 777.91 1277.04 761.68 1327.51 747.06 1337.6 719.46 1361.99 692.67 1344.33 669.12 1379.65 660.19 1379.65 623.51 1430.11 594.43 1402.36 546.35 1430.11 528.29 1471.33 599.3 1462.92 609.04 1468.8 624.47 1460.39 625.28 1461.23 635.02 1454.51 636.65 1451.14 652.89 1430.11 669.12 1455.34 656.13 1457.03 639.9 1463.76 639.08 1464.6 627.72 1473.85 625.28 1465.44 609.86 1473.85 603.41 1481.44 681.92 1472.17 789.28 1484.66 681.92 1478.05 601.74 1461.23 575.76 1433.48 524.61 1423.39 522.99 1423.39 517.3 1405.23 510.47 1420.02 518.93 1418.34 524.61 1427.59 526.23 1399 544.91 1425.07 592 1377.97 620.41 1377.13 656.95 1337.96 668.5 1358.62 691.86 1335.08 716.21 1325.82 743 1273.68 759.24 1256.02 775.48 1234.99 787.66 1235.83 805.52 1191.25 835.56"/>
      <polygon class="cls-1" points="1621.27 358.82 1612.62 360.61 1614.31 376.04 1605.9 378.47 1608.42 388.21 1590.76 402.02 1610.94 389.84 1608.19 380.42 1617.67 376.85 1616.11 362.64 1623.19 361.13 1621.27 358.82"/>
      <polygon class="cls-1" points="1803.54 701.6 1727.85 654.51 1711.03 622.85 1598.33 570.07 1658.88 553.84 1678.23 531.92 1697.22 531.92 1696.73 524.61 1700.93 522.09 1697.57 518.11 1711.87 521.36 1736.26 547.34 1760.65 553.03 1792.61 570.07 1817 594.43 1794.29 569.26 1761.49 551.4 1737.1 544.91 1713.32 518.11 1694.21 515.36 1696.73 520.55 1692.52 522.99 1694.21 529.28 1677.38 529.48 1657.2 551.4 1592.44 569.26 1535.25 550.59 1520.95 535.98 1518.88 515.36 1523.47 497.82 1496.56 484.02 1535.25 475.9 1529.36 468.59 1548.7 458.04 1558.8 439.36 1575.4 439.36 1585.71 426.37 1611.78 431.24 1636.17 453.16 1648.47 446.67 1656.78 459.41 1677.38 464.53 1698.41 451.54 1677.38 462.91 1658.04 457.22 1648.79 443.42 1636.17 450.73 1612.62 428.81 1584.87 423.13 1574.78 437.74 1555.43 435.3 1547.86 456.41 1510.86 438.55 1496.56 427.06 1509.17 418.25 1508.33 398.77 1531.04 383.34 1512.12 361.3 1525.99 381.72 1504.97 397.96 1504.97 415.01 1490.67 427.18 1507.49 440.17 1541.97 457.22 1523.47 466.15 1527.68 472.65 1486.47 482.39 1475.53 490.51 1475.53 503.08 1454.51 504.31 1433.48 524.61 1436.56 530.29 1455.35 505.94 1476.37 505.94 1478.9 491.32 1488.15 484.83 1520.11 498.63 1516.74 514.87 1517.58 539.22 1533.56 551.4 1591.6 570.89 1621.88 583.88 1658.04 600.93 1708.5 624.47 1725.32 654.51 1803.54 701.6"/>
      <polygon class="cls-1" points="1646.62 160.42 1629.91 175.4 1622.69 173.34 1616.07 179.08 1607.39 184.57 1595.99 202.1 1583.72 202.76 1570.22 208.96 1562.61 199.51 1555.15 211.93 1540.3 207.69 1523.05 223.56 1506.6 207.43 1496.28 215.91 1520.54 239.82 1525.39 237.74 1531 241.77 1532.24 238.66 1536.09 240.1 1537.48 237.73 1544.42 238.32 1553.28 232.19 1545.28 240.3 1538.52 239.06 1537.46 241.53 1532.77 240.54 1530.78 243.78 1525.45 238.8 1521.93 241.26 1552.88 253.22 1597.34 262.09 1552.53 254.45 1520.79 242.66 1512.1 233.25 1494.42 216.77 1494.86 212.74 1492.56 212.08 1491.77 204.37 1493.58 210.99 1496.07 211 1495.72 214.71 1506.39 205.98 1522.61 221.35 1539.23 206.69 1554.11 210.59 1563.05 197.01 1570.26 207.58 1582.68 201.42 1594.53 200.99 1606.77 183.01 1615.26 178.15 1622.48 171.55 1629.62 173.93 1646.62 160.42"/>
      <path class="cls-2" d="M0,0V1080H1920V0H0ZM1526.68,471.65l-41.21,9.74-10.47,8.61-.76,12.1-20.74,1.21-21.03,20.3-10.09-1.62v-5.68l-18.15-6.83,8.06-7.78,32.8-86.06-26.18-12.18-5.32,16.24-31.92,1.43-21.98,.99,3.82-9.73,.84-1.62,5.89-3.25-8.41-12.99,1.68-11.37h-13.5l1.73-15.43,11.19,4.87,4.79-8.93,12.62-.81-15.16-15.82,41.9-25.23,39.7-2.79,62.24-25.17,7.57-9.74,6.73,19.48-18.31,59.41,6.12-2.7,13.87,20.42-20.99,16.28-.03,17.01-14.97,11.99,17,14,34.97,16.22-18.97,7.78,4.68,7.65Z"/>
    </g>
  </g>
</svg>