<?xml version="1.0" encoding="UTF-8"?>
<svg id="Layer_2" data-name="Layer 2" xmlns="http://www.w3.org/2000/svg" viewBox="0 0 415.59 505.92">
  <defs>
    <style>
      .cls-1 {
        fill: #fff;
      }

      .cls-2 {
        fill: #818285;
      }

      .cls-3 {
        fill: #231f20;
      }

      .cls-4 {
        fill: #464646;
      }

      .cls-5 {
        fill: #60c8d4;
      }

      .cls-6 {
        fill: #f7b1c4;
        opacity: .57;
      }
    </style>
  </defs>
  <g id="koala">
    <g>
      <path class="cls-4" d="M109.27,250.36c35.98-35.19,86.65-34.41,103.96-34.14,17.56,.27,62.47,.96,96.12,32.31,50.24,46.81,54.08,142.1,4.92,194.49-36.11,38.49-87.47,39.59-98.9,39.84-16.72,.36-71.09-1.28-108.56-42.53-47.4-52.19-45.39-143.18,2.46-189.98Z"/>
      <g>
        <path class="cls-4" d="M102,7.61C68.51-5.45,24.72,13.67,14.24,41.61c-1.77,4.71-2.34,9.02-2.51,12.25,1.28-1.27,3.23-3,5.89-4.67,1.45-.91,2.74-1.72,4.33-2.25,1.37-.45,4.94-1.35,10.04,.69-4.98,2.39-10.87,6.06-16.27,11.77C-2.75,78.9-.14,105.83,.49,111.15c.38-4.52,2.2-19.18,14.19-30.64,5.58-5.33,11.47-8.17,15.58-9.69-2.54,2.04-24.94,20.54-22.33,46.57,.77,7.73,3.54,14.01,6.23,18.54-1.19-4.22-3.8-15.64,1.21-28.24,2.52-6.34,6.12-10.85,8.83-13.68-2.99,5.4-9.86,19.61-7.17,37.68,.69,4.66,3.91,26.34,21.51,36.29,12.52,7.08,25.93,4.74,30.21,3.77,45.77-10.36,89.62-78.69,69.43-127.97-1.06-2.6-11.35-26.49-36.17-36.17Z"/>
        <path class="cls-6" d="M116.15,86.31c-.44,6.63-3.11,5.77-13.92,26.14-9.19,17.32-10.92,24.83-19.11,28.07-6.48,2.56-12.74,.75-14.13,.34-17.12-4.95-31.1-31.42-25-54.55,5.21-19.75,25.88-40.23,46.6-34.95,15.34,3.91,26.5,20.89,25.57,34.95Z"/>
        <path class="cls-4" d="M313.58,4.2c33.49-13.06,77.29,6.06,87.76,34,1.77,4.71,2.34,9.02,2.51,12.25-1.28-1.27-3.23-3-5.89-4.67-1.45-.91-2.74-1.72-4.33-2.25-1.37-.45-4.94-1.35-10.04,.69,4.98,2.39,10.87,6.06,16.27,11.77,18.47,19.51,15.86,46.44,15.23,51.76-.38-4.52-2.2-19.18-14.19-30.64-5.58-5.33-11.47-8.17-15.58-9.69,2.54,2.04,24.94,20.54,22.33,46.57-.77,7.73-3.54,14.01-6.23,18.54,1.19-4.22,3.8-15.64-1.21-28.24-2.52-6.34-6.12-10.85-8.83-13.68,2.99,5.4,9.86,19.61,7.17,37.68-.69,4.66-3.91,26.34-21.51,36.29-12.52,7.08-25.93,4.74-30.21,3.77-45.77-10.36-89.62-78.69-69.43-127.97,1.06-2.6,11.35-26.49,36.17-36.17Z"/>
        <path class="cls-6" d="M299.43,82.89c.44,6.63,3.11,5.77,13.92,26.14,9.19,17.32,10.92,24.83,19.11,28.07,6.48,2.56,12.74,.75,14.13,.34,17.12-4.95,31.1-31.42,25-54.55-5.21-19.75-25.88-40.23-46.6-34.95-15.34,3.91-26.5,20.89-25.57,34.95Z"/>
        <g>
          <g>
            <path class="cls-4" d="M72.56,159.5c.33-5.31,6.1-76.96,70.55-113.55,4.42-2.51,70.08-38.26,135.59-1.1,43.45,24.65,69.91,71.77,68.9,122.36-2.06,15.86-9.11,52.48-38.58,81.03-51.18,49.57-145.39,51.02-197.33,.55-32.21-31.3-37.85-72.56-39.13-89.29Z"/>
            <path class="cls-2" d="M163.36,279.06c11.94,2.76,27.26,5.15,45.11,5.16,22.07,.01,40.55-3.62,54.03-7.36-11.06,4.02-27.88,8.71-48.79,9.26-21.51,.56-38.97-3.48-50.35-7.05Z"/>
          </g>
          <g>
            <path class="cls-5" d="M137.05,167.75s4.49-.79,9.39,0l-2.75-2.27s-5.82,.67-6.63,2.27Z"/>
            <path class="cls-5" d="M113.8,116.12s1.29,5.81,15.49,11.14c0,0,8.71,4.03,12.26-13.88,0,0-13.07,.97-27.11-13.23,0,0-.4,10.41,18.96,18.4,0,0,1.13,.97-.08,1.69,0,0-11.14,1.53-19.53-4.12Z"/>
            <ellipse class="cls-1" cx="146.93" cy="139.72" rx="17.92" ry="28.02"/>
            <ellipse class="cls-3" cx="147.31" cy="145.33" rx="14.06" ry="22.41"/>
            <ellipse class="cls-1" cx="138.86" cy="128.49" rx="3.56" ry="5.57"/>
            <ellipse class="cls-6" cx="130.37" cy="185.64" rx="16.56" ry="4.37"/>
          </g>
          <g>
            <path class="cls-5" d="M303.32,116.12s-1.29,5.81-15.49,11.14c0,0-8.71,4.03-12.26-13.88,0,0,13.07,.97,27.11-13.23,0,0,.4,10.41-18.96,18.4,0,0-1.13,.97,.08,1.69,0,0,11.14,1.53,19.53-4.12Z"/>
            <path class="cls-5" d="M280.82,167.75s-4.49-.79-9.39,0l2.75-2.27s5.82,.67,6.63,2.27Z"/>
            <ellipse class="cls-1" cx="270.19" cy="139.72" rx="17.92" ry="28.02"/>
            <ellipse class="cls-3" cx="270.09" cy="145.33" rx="14.26" ry="22.41"/>
            <ellipse class="cls-1" cx="262.62" cy="128.49" rx="3.56" ry="5.57"/>
            <ellipse class="cls-6" cx="290.9" cy="185.64" rx="16.56" ry="4.37"/>
          </g>
          <g>
            <path class="cls-2" d="M226.54,195.48c13.38-12.45,3.73-35.99-4.71-46.28-2.45-2.98-6.8-8.13-13.31-8.6-7.93-.57-13.97,6.16-15.97,8.4-9.58,10.68-16.66,34.2-2.66,46.48,10,8.78,27.26,8.73,36.65,0Z"/>
            <path class="cls-2" d="M182.01,206.52c.55,.72,4.05,5.13,8.97,5.06,5.72-.09,11.58-6.21,11.76-14.89-.43-3.29,2.16-6.1,5.06-6.1s5.49,2.81,5.06,6.1c-1.4,7.02,2.81,13.46,8.49,14.74,4.2,.95,8.89-1.01,11.81-4.91,1.51-1.21,3.52-1.51,5.16-.74,2.07,.97,3.21,3.49,2.53,5.95-3.26,5.93-9.4,9.7-16.08,9.82-7.22,.14-13.93-3.99-17.19-10.57-3.61,7.14-11.05,11.34-18.54,10.57-9.31-.96-13.9-9.1-14.29-9.82-.49-1.9,.22-3.91,1.79-5.06,1.6-1.18,3.79-1.24,5.47-.15Z"/>
          </g>
        </g>
      </g>
      <path class="cls-2" d="M74.83,143.8c.1,.02-1.08,4.69-1.55,11.44-.48,6.97,.1,11.7,0,11.71-.1,0-.98-5.68-.35-12.88,.51-5.82,1.8-10.28,1.89-10.26Z"/>
      <path class="cls-2" d="M117.94,64.39l15.94-12.71c-2.44,1.65-4.99,3.5-7.61,5.56-3.07,2.42-5.85,4.83-8.34,7.15Z"/>
      <path class="cls-2" d="M345.78,141.76l1.85,24.01c-.12-4.03-.34-8.23-.69-12.6-.31-3.96-.71-7.76-1.16-11.41Z"/>
      <path class="cls-2" d="M281.24,46.33l16.93,11.97c-2.54-2.15-5.4-4.39-8.58-6.62-2.89-2.03-5.7-3.8-8.35-5.35Z"/>
      <path class="cls-4" d="M127.78,504.7c-5.97-1.58-10.15-5.25-22.97-20.1-7.14-8.27-15.73-19.06-24.65-32.42-12.45-2.9-22.17-11.05-24.85-21.61-.49-1.93-3.5-13.75,4.2-21.25,5.01-4.88,11.66-5.12,13.72-5.12-2.94-6.23-2.77-13.31,.82-18,5.25-6.85,17.58-8.34,26.85-.75,1.11-1.17,8.67-8.89,20.14-8.2,7.77,.47,13.03,4.54,14.85,6.09,21.55,18.4,30,49.29,30,49.29,2.71,12.04,11,48.86-9.25,65.31-7.43,6.03-18.8,9.42-28.85,6.76Z"/>
      <path class="cls-6" d="M125.44,481.27c7.99-.25,15.17-5.26,19.06-11.21,10.54-16.14,1.27-46.06-19.41-51.28-12.13-3.06-27.05,2.65-32.49,13.22-9.69,18.81,12.27,49.91,32.84,49.28Z"/>
      <path class="cls-2" d="M169.23,471.94c.5-8.36,.28-19.59-2.54-32.42-3.82-17.39-10.84-30.52-16.17-38.8,4.84,6.09,12.14,16.86,16.42,32.04,4.76,16.88,3.55,31.24,2.29,39.18Z"/>
      <path class="cls-2" d="M100.9,385.45c-9.1-6.94-20.9-5.47-26.2,1.26-3.61,4.59-4,11.39-1.47,17.49-3.14-6.63-2.5-14.19,1.64-18.96,5.71-6.58,17.7-7.38,26.03,.21Z"/>
      <path class="cls-2" d="M137.5,384.9c-.1,.17-7.28-7.09-17.5-7.26-11.03-.18-18.98,8.02-19.11,7.82-.13-.2,7.69-8.95,18.72-8.87,10.53,.07,17.99,8.15,17.88,8.32Z"/>
      <g>
        <path class="cls-4" d="M144.02,271.08c-5.74-2.98-43.91-21.96-63.81-3.75-12.75,11.67-14.4,35.34-6.46,51.45,11.45,23.23,36.96,18.85,48.61,43.96,7.74,16.68-.53,25.07,8.02,35.17,14.14,16.7,55.88,16.34,70.04-4.45,9.9-14.54,2.6-33.61-6.27-56.76-7.27-19-18.93-49.44-50.13-65.62Z"/>
        <path class="cls-2" d="M145.4,406.34c1.38-1.61,4.63-5.86,5.2-12.13,.88-9.74-5.42-16.43-6.42-17.46,5.79,3.43,9.23,9.67,8.87,16.15-.45,8.27-6.85,12.87-7.65,13.44Z"/>
        <path class="cls-2" d="M170.1,408.89c1.38-1.61,4.63-5.86,5.2-12.13,.88-9.74-5.42-16.43-6.42-17.46,5.79,3.43,9.23,9.67,8.87,16.15-.45,8.27-6.85,12.87-7.65,13.44Z"/>
        <path class="cls-2" d="M189.52,402.72c1.38-1.61,4.63-5.86,5.2-12.13,.88-9.74-5.42-16.43-6.42-17.46,5.79,3.43,9.23,9.67,8.87,16.15-.45,8.27-6.85,12.87-7.65,13.44Z"/>
        <path class="cls-2" d="M165.45,286.94c3.94,4.45,8.18,9.8,12.31,16.11,5.17,7.88,8.94,15.37,11.7,21.85-2.11-6.52-5.7-15.16-12.02-24.15-4.04-5.75-8.26-10.3-11.99-13.81Z"/>
        <path class="cls-2" d="M84.57,331.95c4.33,2.06,7.96,3.89,10.73,5.33,5.94,3.08,7.83,4.28,9.56,5.53,2.87,2.08,5.01,4.12,6.43,5.6-4.16-3.11-7.75-5.28-10.3-6.7-3.59-2-6.06-3.05-10.37-5.71-2.62-1.62-4.7-3.07-6.05-4.06Z"/>
      </g>
      <path class="cls-2" d="M124.94,369.99c.41,2.15,.66,4.02,.82,5.52,.16,1.54,.3,2.8,.31,4.5,.02,2.75-.29,3.32-.24,5.42,.03,1.18,.18,2.94,.78,5.1-.14-1.2-.32-3.15-.35-5.55-.05-3.9,.35-5.4,.13-8.26-.12-1.56-.44-3.89-1.46-6.73Z"/>
      <path class="cls-2" d="M194.54,337.71c1.83,4.75,3.63,9.8,5.35,15.14,1.63,5.08,3.05,9.98,4.29,14.69-.95-4.69-2.25-9.9-4.06-15.46-1.74-5.35-3.66-10.15-5.58-14.38Z"/>
      <path class="cls-4" d="M289.34,505.01c5.97-1.58,10.15-5.25,22.97-20.1,7.14-8.27,15.73-19.06,24.65-32.42,1.27-.36,20.7-6.14,24.58-22.6,.58-2.45,3.11-13.22-3.92-20.26-4.98-4.99-11.79-5.14-13.72-5.12,2.94-6.23,2.77-13.31-.82-18-5.25-6.85-17.58-8.34-26.85-.75-1.11-1.17-8.67-8.89-20.14-8.2-7.77,.47-13.03,4.54-14.85,6.09-21.55,18.4-30,49.29-30,49.29-2.71,12.04-11,48.86,9.25,65.31,7.43,6.03,18.8,9.42,28.85,6.76Z"/>
      <path class="cls-6" d="M291.68,481.59c-.81,.05-14.34,.75-21.24-8.57-12.19-16.47,3.88-53.95,25.05-55.34,11.18-.73,22.75,8.66,26.59,19.66,6.82,19.52-11.13,42.96-30.41,44.25Z"/>
      <path class="cls-2" d="M247.89,472.25c-.5-8.36-.28-19.59,2.54-32.42,3.82-17.39,10.84-30.52,16.17-38.8-4.84,6.09-12.14,16.86-16.42,32.04-4.76,16.88-3.55,31.24-2.29,39.18Z"/>
      <path class="cls-2" d="M316.23,385.76c9.1-6.94,20.9-5.47,26.2,1.26,3.61,4.59,4,11.39,1.47,17.49,3.14-6.63,2.5-14.19-1.64-18.96-5.71-6.58-17.7-7.38-26.03,.21Z"/>
      <path class="cls-2" d="M279.62,385.21c.1,.17,7.28-7.09,17.5-7.26,11.03-.18,18.98,8.02,19.11,7.82,.13-.2-7.69-8.95-18.72-8.87-10.53,.07-17.99,8.15-17.88,8.32Z"/>
      <g>
        <path class="cls-4" d="M281.31,268.36c5.74-2.98,43.91-21.96,63.81-3.75,12.75,11.67,14.4,35.34,6.46,51.45-11.45,23.23-36.96,18.85-48.61,43.96-7.74,16.68,.53,25.07-8.02,35.17-14.14,16.7-55.88,16.34-70.04-4.45-9.9-14.54-2.6-33.61,6.27-56.76,7.27-19,18.93-49.44,50.13-65.62Z"/>
        <path class="cls-2" d="M279.93,403.62c-1.38-1.61-4.63-5.86-5.2-12.13-.88-9.74,5.42-16.43,6.42-17.46-5.79,3.43-9.23,9.67-8.87,16.15,.45,8.27,6.85,12.87,7.65,13.44Z"/>
        <path class="cls-2" d="M255.23,406.17c-1.38-1.61-4.63-5.86-5.2-12.13-.88-9.74,5.42-16.43,6.42-17.46-5.79,3.43-9.23,9.67-8.87,16.15,.45,8.27,6.85,12.87,7.65,13.44Z"/>
        <path class="cls-2" d="M235.82,400c-1.38-1.61-4.63-5.86-5.2-12.13-.88-9.74,5.42-16.43,6.42-17.46-5.79,3.43-9.23,9.67-8.87,16.15,.45,8.27,6.85,12.87,7.65,13.44Z"/>
        <path class="cls-2" d="M259.88,284.22c-3.94,4.45-8.18,9.8-12.31,16.11-5.17,7.88-8.94,15.37-11.7,21.85,2.11-6.52,5.7-15.16,12.02-24.15,4.04-5.75,8.26-10.3,11.99-13.81Z"/>
        <path class="cls-2" d="M340.76,329.22c-4.33,2.06-7.96,3.89-10.73,5.33-5.94,3.08-7.83,4.28-9.56,5.53-2.87,2.08-5.01,4.12-6.43,5.6,4.16-3.11,7.75-5.28,10.3-6.7,3.59-2,6.06-3.05,10.37-5.71,2.62-1.62,4.7-3.07,6.05-4.06Z"/>
      </g>
      <path class="cls-2" d="M300.39,367.26c-.41,2.15-.66,4.02-.82,5.52-.16,1.54-.3,2.8-.31,4.5-.02,2.75,.29,3.32,.24,5.42-.03,1.18-.18,2.94-.78,5.1,.14-1.2,.32-3.15,.35-5.55,.05-3.9-.35-5.4-.13-8.26,.12-1.56,.44-3.89,1.46-6.73Z"/>
      <path class="cls-2" d="M230.8,334.99c-1.83,4.75-3.63,9.8-5.35,15.14-1.63,5.08-3.05,9.98-4.29,14.69,.95-4.69,2.25-9.9,4.06-15.46,1.74-5.35,3.66-10.15,5.58-14.38Z"/>
    </g>
  </g>
</svg>