<?xml version="1.0" encoding="UTF-8"?>
<svg id="Layer_2" data-name="Layer 2" xmlns="http://www.w3.org/2000/svg" viewBox="0 0 377.26 495.63">
  <defs>
    <style>
      .cls-1 {
        fill: #fff;
      }

      .cls-2 {
        fill: #6b75b8;
      }

      .cls-3 {
        fill: #818285;
      }

      .cls-4 {
        fill: #63c088;
      }

      .cls-5 {
        fill: #86ccae;
      }

      .cls-6 {
        fill: #905a24;
      }

      .cls-7 {
        fill: #8ec5df;
      }

      .cls-8 {
        fill: #231f20;
      }

      .cls-9 {
        fill: #966a28;
      }

      .cls-10 {
        fill: #595a5c;
      }

      .cls-11 {
        fill: #60c8d4;
      }

      .cls-12 {
        fill: #44b1da;
      }

      .cls-13 {
        fill: #5060ac;
      }

      .cls-14 {
        fill: #f7b1c4;
        opacity: .57;
      }
    </style>
  </defs>
  <g id="verbs-escribir">
    <g>
      <g>
        <rect class="cls-7" x="249.48" y="275.24" width="28.75" height="153.71"/>
        <polygon class="cls-7" points="264.8 401.66 275.75 412.31 213.76 472.65 202.81 462 264.8 401.66"/>
        <polygon class="cls-7" points="260.54 410.75 257.13 425.44 349.56 445.77 352.97 431.08 260.54 410.75"/>
        <polygon class="cls-7" points="269.73 385.13 254.4 387.21 267.49 478.55 282.81 476.47 269.73 385.13"/>
        <polygon class="cls-7" points="173.54 434.79 178.15 449.17 268.61 421.73 264 407.34 173.54 434.79"/>
        <ellipse class="cls-12" cx="177.62" cy="441.45" rx="11.16" ry="10.86"/>
        <ellipse class="cls-12" cx="206.96" cy="469.58" rx="11.16" ry="10.86"/>
        <ellipse class="cls-12" cx="344.69" cy="438.04" rx="11.16" ry="10.86"/>
        <ellipse class="cls-12" cx="274.85" cy="475.4" rx="11.16" ry="10.86"/>
        <rect class="cls-5" x="150.08" y="79.33" width="226.81" height="195.92" rx="10" ry="10"/>
        <rect class="cls-4" x="150.45" y="250.84" width="226.81" height="93.96" rx="10" ry="10"/>
      </g>
      <g>
        <path class="cls-10" d="M251.34,166.4c2.89-4.28,2.82-9.8-.08-13.67-3.65-4.87-9.82-4.51-10.25-4.48-11.17,11.27-22.69,23.6-34.35,37.04-11.54,13.3-22.03,26.31-31.54,38.84-2.01,6.44-.23,13.43,4.56,17.92,5.36,5.01,13.55,6.01,20.22,2.39,5.08-6.64,40.3-61.53,51.43-78.04Z"/>
        <path class="cls-10" d="M285.44,163.18c-2.4-4.57-1.72-10.05,1.59-13.58,4.16-4.43,10.26-3.39,10.68-3.31,9.85,12.44,19.94,25.97,30.04,40.61,10,14.5,18.98,28.59,27.05,42.09,1.29,6.62-1.25,13.38-6.52,17.3-5.88,4.38-14.13,4.47-20.36,.14-4.32-7.16-33.25-65.61-42.49-83.25Z"/>
        <g>
          <path class="cls-10" d="M222.27,162.74c1.71-2.24,17.18-21.74,43.98-21.68,26.64,.06,41.98,19.41,43.72,21.68,5.84,23.42,12.81,52.04,20.41,84.82,11.2,48.33,14.42,65.31,3.97,77.32-8.41,9.66-24.68,14.96-39.59,11.76-11.94-2.56-19.56-9.81-22.66-13.14-1.01,.53-3.23,1.51-6.18,1.41-2.54-.09-4.45-.94-5.43-1.47-3.37,3.39-11.24,10.32-23.27,12.78-14.46,2.96-31.03-1.34-39.8-11.02-9.83-10.84-8.3-26.65,4.37-81.2,5.05-21.74,11.81-49.33,20.49-81.27Z"/>
          <path class="cls-3" d="M222.27,162.74c-.34-.1-7.88,20.83-14.16,48.07-4.31,18.69-2.36,15.77-6.33,33.2-6.99,30.6-16.89,56.57-9.8,72,.33,.72,3.21,6.88,3.56,6.73,.35-.15-1.98-6.45-2.44-7.76-5.59-15.94,3.71-41.26,10.41-69.79,4.47-19.05,2.37-16.49,7.92-40.81,5.81-25.48,11.14-41.55,10.84-41.64Z"/>
          <path class="cls-3" d="M309.99,162.48c.61-.17,9.28,27.2,13.61,47.79,.33,1.58,2.25,10.79,4.58,22.17,1.21,5.91,1.93,9.64,2.31,11.31,6.99,30.6,16.89,56.57,9.8,72-.33,.72-3.21,6.88-3.56,6.73-.24-.1,1.38-3.79,2.44-7.76,.49-1.86,1.82-7.39,1.14-16.29-1.36-17.86-8.14-39.79-8.14-39.79-3.2-10.37,.24-1.06-12.49-55.11-7.27-30.86-10.05-40.94-9.68-41.04Z"/>
        </g>
        <path class="cls-10" d="M264.35,306.57c-6.32-12.56-19.61-19.92-33.1-18.47-14.98,1.61-27.28,13.78-29.22,29.39,2.05,6.41,3.94,11.75,5.41,15.74,1.92,5.23,3.49,9.16,5.49,14.16,.23,.57,3.17,7.93,6.04,14.71,5.55,13.12,11.26,25.54,17.01,37.24,6.6,8.99,18.32,12.27,28.14,7.9,9.69-4.3,15.23-15.03,13.34-25.9-4.37-24.93-8.74-49.85-13.11-74.78Z"/>
        <path class="cls-10" d="M296.17,479.47c.05,1.43-.62,2.75-1.74,3.39-1.46,.83-3.46,.39-4.68-1.13-12.38-15.5-25.29-33.52-37.82-54.18-7.11-11.73-13.39-23.13-18.93-34.05-5.69-14.84,2.61-30.56,15.43-33.68,11.38-2.77,24.57,4.82,28.67,18.18,6.36,33.83,12.72,67.65,19.08,101.48Z"/>
        <path class="cls-3" d="M202.04,317.49c2.36-13.45,12.37-24.21,25.29-27.28,14.26-3.38,29.43,3.24,37.02,16.35-6.92-13.9-22.39-21.26-37.02-17.9-13.46,3.09-23.7,14.68-25.29,28.82Z"/>
        <path class="cls-10" d="M313.55,281.16c-5.69-10.55-18.49-16.32-31.86-14.49-14.85,2.03-27.51,13.05-30.09,26.58,1.75,5.43,3.39,9.96,4.66,13.33,1.67,4.43,3.05,7.74,4.8,11.96,.2,.48,2.78,6.7,5.32,12.42,4.91,11.07,10.01,21.52,15.19,31.35,6.12,7.46,17.55,9.78,27.42,5.6,9.75-4.13,15.67-13.6,14.28-22.89-3.24-21.29-6.48-42.57-9.72-63.86Z"/>
        <path class="cls-10" d="M337.6,442.51c0,1.43-.72,2.72-1.87,3.32-1.49,.77-3.48,.26-4.63-1.31-11.76-15.98-23.96-34.49-35.68-55.62-6.65-12-12.47-23.64-17.58-34.76-5.11-15.05,3.8-30.44,16.74-33.05,11.48-2.32,24.36,5.78,27.93,19.29,5.03,34.05,10.06,68.1,15.1,102.15Z"/>
        <path class="cls-3" d="M251.6,293.25c.34,.14,2.04-6.03,6.38-11.66,7.3-9.47,18.07-12.29,19.81-12.71,2.6-.64,14.61-3.3,25.16,2.87,6.57,3.85,10.22,9.75,10.6,9.42,.3-.26-2-3.91-5.27-6.99-.96-.9-4.15-3.77-9.23-5.8-9.77-3.91-18.88-1.67-21.91-.89-7.91,2.05-12.92,6.08-14.12,7.08-1.91,1.59-5.63,5.03-8.49,10.48-2.12,4.04-3.2,8.09-2.93,8.2Z"/>
        <path class="cls-3" d="M251.6,293.25c4.96,12.64,10.38,25.65,16.3,39,6.73,15.16,13.58,29.56,20.45,43.21-7.23-12.3-14.67-26.42-21.67-42.34-6.22-14.14-11.15-27.54-15.09-39.87Z"/>
        <path class="cls-10" d="M125.92,228.8c7.27,.93,14.08-3.34,16.18-9.81,1.79-5.5-.07-11.75-4.73-15.71-12.22-4.28-24.45-8.57-36.67-12.85-.7-.24-1.18-.17-1.48-.05-1.51,.57-2.22,3.47-1.54,7.22,.34,1.69,.8,3.39,1.41,5.11,5.44,15.24,19.82,22.98,26.84,26.1Z"/>
        <path class="cls-10" d="M190.19,248.87c7.05-1.43,12.46-7.17,13.43-14.26,.99-7.23-2.84-14.35-9.46-17.54-19.39-4.79-38.78-9.58-58.17-14.36-.77,.13-9.17,1.72-12.97,9.79-3.45,7.35-.3,14.17,.13,15.07,7.71,4.12,16.87,8.35,27.43,12.03,14.88,5.19,28.44,7.87,39.61,9.27Z"/>
        <path class="cls-3" d="M99.22,190.37c-.09,.62-.19,1.5-.24,2.57-.42,9.04,3.69,16.03,5.35,18.53,3.07,4.64,6.43,7.01,11.93,10.89,5.04,3.55,9.78,5.86,16.03,8.9,2.35,1.14,5.13,2.44,8.36,3.82,5.97,2.56,14.91,6.05,26.75,9.51-6.81-1.81-12.5-3.57-16.82-4.99-4.89-1.61-7.74-2.55-11.65-4.24-1.06-.46-.45-.22-9.47-4.45-4.43-2.08-5.62-2.63-7.46-3.66-3.1-1.73-5.5-3.41-7.08-4.59-4.67-3.19-7.81-6.5-9.78-8.89-1-1.21-2.41-2.94-3.84-5.53-2.08-3.76-2.73-6.66-3.47-10.01,0,0-1.01-4.52,.36-6.94,.19-.34,.47-.58,.47-.58,.22-.19,.43-.29,.57-.35Z"/>
        <path class="cls-3" d="M184.92,214.74c-2.89-.18-6.24-.59-9.9-1.4-4.72-1.05-8.72-2.52-11.92-3.94,3.88,.96,7.77,1.92,11.68,2.88,3.39,.83,6.76,1.65,10.13,2.46Z"/>
        <path class="cls-10" d="M277.29,246.4c7.28-.9,12.81-6.72,13.26-13.51,.38-5.77-2.97-11.37-8.46-14.06-12.9-1.13-25.81-2.26-38.71-3.39-.74-.06-1.18,.13-1.45,.31-1.32,.93-1.29,3.91,.29,7.38,.74,1.55,1.61,3.09,2.63,4.6,9.04,13.43,24.89,17.36,32.46,18.66Z"/>
        <path class="cls-10" d="M344.52,249.96c6.48-3.13,10.3-10.03,9.49-17.13-.82-7.25-6.29-13.2-13.5-14.66-19.97,.15-39.94,.31-59.92,.46-.71,.32-8.46,3.93-10.14,12.69-1.53,7.98,3.21,13.81,3.85,14.57,8.49,2.09,18.41,3.92,29.55,4.88,15.7,1.35,29.51,.6,40.67-.81Z"/>
        <path class="cls-3" d="M241.92,215.76c.07,.62,.19,1.5,.4,2.55,1.82,8.86,7.54,14.62,9.76,16.63,4.13,3.74,7.96,5.2,14.26,7.6,5.76,2.2,10.93,3.26,17.73,4.66,2.55,.52,5.57,1.09,9.04,1.64,6.42,1.01,15.94,2.18,28.27,2.61-7.05-.07-12.99-.37-17.53-.67-5.13-.35-8.13-.56-12.34-1.23-1.14-.18-.49-.1-10.27-1.97-4.81-.92-6.1-1.16-8.13-1.7-3.43-.91-6.17-1.94-8-2.7-5.31-1.94-9.18-4.37-11.67-6.2-1.26-.92-3.06-2.26-5.09-4.4-2.95-3.13-4.29-5.78-5.84-8.84,0,0-2.09-4.13-1.37-6.81,.1-.38,.31-.68,.31-.68,.16-.23,.35-.39,.47-.48Z"/>
        <path class="cls-3" d="M290.62,218.53c-2.87,.39-6.23,.64-9.98,.56-4.83-.11-9.04-.76-12.46-1.53,3.99,.23,7.97,.46,11.96,.69,3.49,.09,6.99,.19,10.48,.28Z"/>
        <g>
          <g>
            <circle class="cls-10" cx="265.86" cy="86.96" r="86.96"/>
            <path class="cls-3" d="M237.49,169.19s28.37,13.04,56.73,0c0,0-28.37,10.58-56.73,0Z"/>
          </g>
          <ellipse class="cls-3" cx="271.03" cy="140.36" rx="4.54" ry="6.55"/>
          <path class="cls-11" d="M230.67,112.6s2.96-.52,6.19,0l-1.82-1.5s-3.84,.44-4.37,1.5Z"/>
          <path class="cls-11" d="M215.34,78.54s.85,3.83,10.22,7.34c0,0,5.75,2.66,8.09-9.15,0,0-8.62,.64-17.88-8.73,0,0-.27,6.87,12.51,12.13,0,0,.75,.64-.05,1.12,0,0-7.34,1.01-12.88-2.71Z"/>
          <ellipse class="cls-1" cx="237.19" cy="94.11" rx="11.82" ry="18.48"/>
          <path class="cls-11" d="M316.71,78.54s-.85,3.83-10.22,7.34c0,0-5.75,2.66-8.09-9.15,0,0,8.62,.64,17.88-8.73,0,0,.27,6.87-12.51,12.13,0,0-.75,.64,.05,1.12,0,0,7.34,1.01,12.88-2.71Z"/>
          <path class="cls-11" d="M301.87,112.6s-2.96-.52-6.19,0l1.82-1.5s3.84,.44,4.37,1.5Z"/>
          <ellipse class="cls-1" cx="294.86" cy="94.11" rx="11.82" ry="18.48"/>
          <ellipse class="cls-8" cx="239.94" cy="91.86" rx="9.27" ry="14.78"/>
          <ellipse class="cls-1" cx="234.51" cy="82.32" rx="2.35" ry="3.67"/>
          <ellipse class="cls-8" cx="297.29" cy="91.86" rx="9.4" ry="14.78"/>
          <ellipse class="cls-1" cx="292.51" cy="82.32" rx="2.35" ry="3.67"/>
          <ellipse class="cls-14" cx="226.27" cy="124.4" rx="10.93" ry="2.88"/>
          <ellipse class="cls-14" cx="308.51" cy="124.4" rx="10.93" ry="2.88"/>
        </g>
      </g>
      <path class="cls-13" d="M67.54,230.62h103.08c-.71-1.27-17.37-29.7-50.53-30.27-21.65-.37-41.87,11.29-52.55,30.27Z"/>
      <rect class="cls-2" x="11.02" y="42.79" width="217.76" height="139.53" rx="10" ry="10"/>
      <rect class="cls-13" x="109.62" y="182.14" width="20.56" height="28.92"/>
      <path class="cls-9" d="M11.02,244.59h28.11v225.8c0,5.52-4.48,10-10,10h-8.11c-5.52,0-10-4.48-10-10V244.59h0Z"/>
      <path class="cls-9" d="M75.77,244.59h28.11v241.04c0,5.52-4.48,10-10,10h-8.11c-5.52,0-10-4.48-10-10V244.59h0Z"/>
      <path class="cls-9" d="M152.09,244.59h28.11v225.8c0,5.52-4.48,10-10,10h-8.11c-5.52,0-10-4.48-10-10V244.59h0Z"/>
      <path class="cls-9" d="M210.91,244.59h28.11v241.04c0,5.52-4.48,10-10,10h-8.11c-5.52,0-10-4.48-10-10V244.59h0Z"/>
      <rect class="cls-6" y="230.62" width="249.92" height="27.93" rx="5" ry="5"/>
    </g>
  </g>
</svg>