<?xml version="1.0" encoding="UTF-8"?>
<svg id="Layer_2" data-name="Layer 2" xmlns="http://www.w3.org/2000/svg" viewBox="0 0 414.57 502.91">
  <defs>
    <style>
      .cls-1 {
        fill: #fff;
      }

      .cls-2 {
        fill: #818285;
      }

      .cls-3 {
        fill: #231f20;
      }

      .cls-4 {
        fill: #595a5c;
      }

      .cls-5 {
        fill: #60c8d4;
      }

      .cls-6 {
        fill: #f7b1c4;
        opacity: .57;
      }
    </style>
  </defs>
  <g id="verbs-bailar">
    <g>
      <path class="cls-4" d="M214.04,322.81c2.37-14.21,13.14-25.46,26.79-28.14,15.16-2.98,30.9,5.2,37.54,19.9-.06,6.9-.29,12.7-.51,17.06-.29,5.71-.63,10.03-1.07,15.53-.05,.63-.69,8.73-1.44,16.24-1.45,14.53-3.27,28.43-5.34,41.63-3.73,10.81-14.21,17.58-25.15,16.29-10.79-1.27-19.47-10.08-20.93-21.3-3.3-25.73-6.59-51.46-9.89-77.2Z"/>
      <path class="cls-4" d="M239.39,500.18c.44,1.4,1.53,2.45,2.84,2.68,1.69,.3,3.48-.8,4.14-2.68,6.7-19.2,13.06-41.02,18.16-65.26,2.89-13.76,5.08-26.93,6.73-39.36,.46-16.28-12.91-28.67-26.37-27.33-11.95,1.19-22.12,13.02-21.54,27.33,5.35,34.88,10.7,69.75,16.05,104.63Z"/>
    </g>
    <g>
      <path class="cls-4" d="M202.11,328.08c-.34-14.41-9.43-27.06-22.56-31.64-14.59-5.08-31.32,.8-39.97,14.41-.91,6.84-1.5,12.62-1.9,16.96-.52,5.69-.79,10.02-1.13,15.52-.04,.63-.55,8.74-.86,16.28-.61,14.59-.77,28.6-.58,41.97,2.17,11.22,11.59,19.4,22.6,19.67,10.87,.26,20.7-7.24,23.73-18.14,6.89-25.01,13.78-50.02,20.66-75.03Z"/>
      <path class="cls-4" d="M56.4,359.46c-1.08-.99-1.57-2.43-1.22-3.71,.44-1.66,2.2-2.81,4.19-2.61,20.23,2.11,42.68,5.63,66.78,11.34,13.69,3.24,26.53,6.86,38.49,10.66,14.93,6.52,20.45,23.89,13.51,35.5-6.16,10.31-21.19,14.47-33.9,7.86-29.28-19.68-58.56-39.37-87.85-59.05Z"/>
    </g>
    <g>
      <path class="cls-4" d="M244.83,151.47c-4.61,2.6-7.09,7.69-6.2,12.57,1.11,6.14,6.93,8.64,7.34,8.81,15.41-5.2,31.63-11.21,48.49-18.17,16.69-6.89,32.27-14,46.74-21.12,4.8-4.98,6.38-12.2,4.04-18.52-2.61-7.05-9.66-11.73-17.44-11.48-7.71,3.75-65.19,37.88-82.97,47.9Z"/>
      <path class="cls-4" d="M341.2,133.56c-7.34,.71-14.36-3.32-17.43-9.97-3.13-6.79-1.5-14.92,4.04-20.02,17.59-10.48,35.17-20.97,52.76-31.45,.79-.1,9.51-1.05,15.64,5.73,5.58,6.18,4.53,13.81,4.37,14.81-6.33,6.34-14.05,13.22-23.31,19.99-13.04,9.53-25.54,16.21-36.07,20.91Z"/>
      <path class="cls-4" d="M401.17,91.92c-6.31,4.09-14.49,3.17-19.31-1.87-4.1-4.28-5.16-10.89-2.62-16.61,9.39-9.39,18.78-18.78,28.17-28.17,.54-.54,1.01-.68,1.35-.71,1.65-.14,3.59,2.22,4.64,5.98,.44,1.71,.77,3.49,.97,5.34,1.75,16.5-8.1,30.03-13.19,36.04Z"/>
    </g>
    <g>
      <path class="cls-4" d="M185.64,160.12c4.88-2.05,10.42-.88,13.73,2.81,4.16,4.64,2.57,10.78,2.45,11.2-13.57,8.98-28.26,18.1-44.1,27.13-15.68,8.95-30.86,16.89-45.36,23.95-6.88,.74-13.55-2.45-17.1-8.17-3.96-6.39-3.33-14.82,1.64-20.81,7.69-3.78,69.92-28.22,88.74-36.11Z"/>
      <path class="cls-4" d="M112.36,225.21c5.06-5.37,6.19-13.37,2.82-19.88-3.44-6.64-10.86-10.34-18.29-9.1-19.07,7.45-38.14,14.9-57.21,22.35-.57,.56-6.67,6.86-5.07,15.87,1.45,8.2,8.12,12.05,9.01,12.54,8.89-1.1,19.06-2.98,30.08-6.14,15.53-4.45,28.48-10.22,38.65-15.65Z"/>
      <path class="cls-4" d="M41.97,247.05c7.17-2.27,11.65-9.17,10.82-16.1-.7-5.89-5.13-10.9-11.17-12.58-13.22,1.28-26.43,2.57-39.65,3.85-.76,.08-1.17,.35-1.4,.59-1.16,1.19-.56,4.18,1.68,7.38,1.04,1.42,2.2,2.81,3.51,4.14,11.63,11.84,28.34,12.83,36.21,12.71Z"/>
    </g>
    <g>
      <path class="cls-4" d="M162.92,164.19c1.75-2.29,17.61-22.29,45.09-22.22,27.31,.06,43.04,19.89,44.81,22.22,8.13,23.44,16.16,52.72,20.92,86.95,4.16,29.92,4.87,56.75,4.07,79.26-1.82,1.68-18.63,16.69-40.59,12.06-12.34-2.6-20.14-10.11-23.22-13.47-1.04,.54-3.31,1.55-6.33,1.45-2.6-.09-4.56-.96-5.57-1.5-3.37,3.42-11.42,10.6-23.86,13.1-21.82,4.4-38.53-9.36-40.8-11.29-.95-23.11-.29-51.4,4.48-83.24,4.94-32.95,12.99-61.02,21-83.31Z"/>
      <g>
        <path class="cls-2" d="M162.92,164.19c-.64-.18-8.44,23.1-14.51,49.28-2.77,11.93-4.88,23.31-6.49,34.03-1.13,7.51-3.13,22.18-4.18,41.11-1.17,20.95-.91,42.11-.3,42.13,.79,.02-.59-35.67,6.27-82.02,7.3-49.42,20.02-84.3,19.22-84.52Z"/>
        <path class="cls-2" d="M253.02,164.7c.64-.18,7.8,22.23,13.88,48.41,2.77,11.93,4.88,23.31,6.49,34.03,1.13,7.51,3.13,22.18,4.18,41.11,1.17,20.95,.91,42.11,.3,42.13-.79,.02,.59-35.67-6.27-82.02-7.3-49.42-19.38-83.43-18.59-83.65Z"/>
      </g>
    </g>
    <g>
      <g>
        <circle class="cls-4" cx="207.57" cy="90.73" r="90.7"/>
        <path class="cls-2" d="M205,181.37s32.3,4.17,56.49-17.63c0,0-24.96,19.35-56.49,17.63Z"/>
      </g>
      <path class="cls-1" d="M192.29,143.08s24.9,.6,57.26-17.87c0,0-6.75,24.87-22.27,29.31,0,0-16.75,5.74-34.99-11.44Z"/>
      <g>
        <path class="cls-5" d="M181.36,125.47s2.69-1.39,5.96-1.86l-2.2-.9s-3.56,1.58-3.76,2.76Z"/>
        <path class="cls-5" d="M156.38,97.3s1.97,3.43,12.04,4c0,0,6.33,.83,5.04-11.24,0,0-8.11,3.2-19.83-3.03,0,0,1.81,6.69,15.68,7.92,0,0,.91,.39,.28,1.09,0,0-6.76,3.18-13.21,1.26Z"/>
        <ellipse class="cls-1" cx="182.08" cy="105.73" rx="11.91" ry="18.63" transform="translate(-23.23 59.03) rotate(-17.33)"/>
        <path class="cls-5" d="M253.93,66.86s.33,3.94-7.63,10.14c0,0-4.73,4.29-10.53-6.38,0,0,8.49-1.97,14.59-13.77,0,0,2.32,6.53-8.39,15.43,0,0-.53,.84,.39,1.06,0,0,7.37-1.23,11.58-6.48Z"/>
        <path class="cls-5" d="M249.88,104.09s-3.01,.39-5.96,1.86l1.3-1.99s3.82-.73,4.66,.13Z"/>
        <ellipse class="cls-1" cx="237.58" cy="88.41" rx="11.91" ry="18.63" transform="translate(-15.55 74.78) rotate(-17.33)"/>
        <ellipse class="cls-3" cx="183.43" cy="109.21" rx="9.35" ry="14.9" transform="translate(-24.2 59.6) rotate(-17.33)"/>
        <ellipse class="cls-1" cx="174.73" cy="100.19" rx="2.37" ry="3.7" transform="translate(-21.91 56.59) rotate(-17.33)"/>
        <ellipse class="cls-3" cx="238.62" cy="91.99" rx="9.48" ry="14.9" transform="translate(-16.57 75.25) rotate(-17.33)"/>
        <ellipse class="cls-1" cx="230.54" cy="82.78" rx="2.37" ry="3.7" transform="translate(-14.19 72.43) rotate(-17.33)"/>
        <ellipse class="cls-6" cx="180.66" cy="138.15" rx="11.01" ry="2.9" transform="translate(-32.95 60.08) rotate(-17.33)"/>
        <ellipse class="cls-6" cx="259.81" cy="113.46" rx="11.01" ry="2.9" transform="translate(-22 82.54) rotate(-17.33)"/>
      </g>
    </g>
  </g>
</svg>