<?xml version="1.0" encoding="UTF-8"?>
<svg id="Layer_2" data-name="Layer 2" xmlns="http://www.w3.org/2000/svg" viewBox="0 0 457.14 507.46">
  <defs>
    <style>
      .cls-1 {
        fill: #e9c61d;
      }

      .cls-2 {
        fill: #fff;
      }

      .cls-3 {
        fill: #ef509c;
      }

      .cls-4 {
        fill: #818285;
      }

      .cls-5 {
        fill: #85602c;
      }

      .cls-6 {
        fill: #856a3f;
      }

      .cls-7 {
        fill: #b5509e;
      }

      .cls-8 {
        fill: #a5469a;
      }

      .cls-9 {
        fill: #e41c43;
      }

      .cls-10 {
        fill: #105d66;
      }

      .cls-11 {
        fill: #167c91;
      }

      .cls-12 {
        fill: #231f20;
      }

      .cls-13 {
        fill: #422f13;
      }

      .cls-14 {
        fill: #595a5c;
      }

      .cls-15 {
        fill: #60c8d4;
      }

      .cls-16 {
        fill: #755227;
      }

      .cls-17 {
        fill: none;
        stroke: #818285;
        stroke-miterlimit: 10;
        stroke-width: 2px;
      }

      .cls-18 {
        fill: #f7b1c4;
        opacity: .57;
      }
    </style>
  </defs>
  <g id="verbs-cerrar">
    <g>
      <g>
        <g>
          <path class="cls-6" d="M106.48,484.64c77.54-4.41,155.09-8.81,232.63-13.22,25.87-41.47,60.21-110.74,64.36-198.17,3.22-67.86-14.13-112.59-28.22-133.11-10.15-14.78-23.92-28.58-42.58-40.67-11.3-7.32-55.54-35.99-115.63-34.11,0,0-58.75,1.66-106.19,37.35-71.17,53.54-80.49,211.77-4.38,381.92Z"/>
          <path class="cls-11" d="M106.48,484.64c72.87-3.67,145.74-7.34,218.61-11.01,53.02-83.9,59.28-156.27,58.91-194.76-.49-50.85-.31-122.64-62.92-166.32-10.04-7.01-49.37-34.44-102.77-32.64,0,0-50.27,2.03-94.38,35.75-69.21,52.9-78.55,202.68-17.44,368.97Z"/>
        </g>
        <path class="cls-16" d="M434.19,252.67c-40.41-32.89-89.58-68.64-148.36-104.01-48.07-28.92-94.38-52.66-136.84-72.12-15.36-6.05-20.31-20.99-12.97-30.71,5.93-7.85,19.37-11.61,31.93-7.99,42.95,15.53,98.17,39.59,155.55,76.71,59.63,38.57,101.97,78.54,130.56,109.98,.6,.87,5.77,8.62,1.23,16.97-3.59,6.6-11.84,10.96-21.1,11.16Z"/>
        <path class="cls-5" d="M325.09,473.63c71.08-136.98,68.32-195.73,50.84-223.68-3.25-5.2-19.43-29.19-37.29-64.42-11.59-22.87-19.56-41.93-24.33-54,.47-1.67,2.38-7.51,9.18-11.37,7.04-4,16.59-4.32,24.82-.95,14.65,37.27,29.29,74.53,43.94,111.8,10.12-21.7,10.63-38.7,9.25-50.19-1.59-13.22-5.8-19.97-10.41-39.82-4-17.23-5.33-31.51-5.83-40.74-3.34-9.83,4.59-18.92,13.98-19.9,7.32-.76,15.44,3.41,18.65,10.42,3.89,9.57,10.4,27.37,13.98,50.21,8.38,53.44-8.56,75.22-10.49,155.38-.65,27.17-.98,40.75,1.17,59.69,3.47,30.67,9.66,45.34,6.99,71.06-1.91,18.43-7.4,33.18-11.65,42.63-30.93,1.29-61.86,2.58-92.79,3.88Z"/>
        <path class="cls-5" d="M101.99,485.42c18.93-1.06,37.87-2.12,56.8-3.19-5.09-9.51-12.83-24.45-21.55-43.44-5.75-12.54-7.25-17.75-12-26.5-9.87-18.19-18.76-27.24-27.3-46.38-31.66-70.99,3.45-141.88,9.82-154.74,9.06-18.29,22.15-44.71,52.8-68.88,26.12-20.6,49.28-27.17,92.1-58.9,15.34-11.37,27.04-21.4,34.38-27.95,2.38-6.84-1.71-13.71-8.6-15.97-5.16-1.69-11.37-.64-15.96,2.61-.6,5.2-2.46,13.2-8.6,21.35-14.44,19.17-40.55,23.27-45.43,23.96,11.46-22.96,22.92-45.92,34.38-68.88-4.62-12.97-20.7-20.62-35.61-17.97-16.42,2.92-27.38,17.62-22.1,31.95-14.32,21.31-27.12,38.2-36.15,49.67-22.46,28.53-34.74,40.23-55.94,68.13-13.93,18.33-24.23,33.81-30.7,43.93-13.1-5.32-26.2-10.65-39.29-15.97-4.74,3.48-16.05,12.73-20.88,27.95-5.67,17.88,1.27,32.43,3.68,36.94,1.13-.88,12.34-9.33,25.79-6.99,13.72,2.39,24.44,15.09,22.1,29.95-3.31,13.42-7.05,34.43-5.04,59.9,.31,3.9,.6,7.3,1.19,11.15,5.1,32.83,15.67,58.64,32.09,98.67,4.21,10.26,11.25,27.52,20,49.63Z"/>
        <g>
          <ellipse class="cls-7" cx="390.69" cy="201.93" rx="10.17" ry="10.44"/>
          <ellipse class="cls-7" cx="390.69" cy="222.8" rx="10.17" ry="10.44"/>
          <ellipse class="cls-7" cx="377.85" cy="212.36" rx="12.84" ry="8.27"/>
          <ellipse class="cls-7" cx="403.53" cy="212.36" rx="12.84" ry="8.27"/>
          <ellipse class="cls-8" cx="381.61" cy="204.98" rx="8.81" ry="12.05" transform="translate(39.83 471.13) rotate(-66.15)"/>
          <ellipse class="cls-8" cx="399.77" cy="219.75" rx="8.81" ry="12.05" transform="translate(37.15 496.53) rotate(-66.15)"/>
          <ellipse class="cls-8" cx="381.61" cy="219.75" rx="12.05" ry="8.81" transform="translate(-56.27 173.06) rotate(-23.85)"/>
          <ellipse class="cls-8" cx="399.77" cy="204.98" rx="12.05" ry="8.81" transform="translate(-48.75 179.14) rotate(-23.85)"/>
          <ellipse class="cls-1" cx="390.69" cy="212.36" rx="10.34" ry="8.41"/>
        </g>
        <g>
          <ellipse class="cls-7" cx="65.42" cy="172.64" rx="10.17" ry="10.44"/>
          <ellipse class="cls-7" cx="65.42" cy="193.52" rx="10.17" ry="10.44"/>
          <ellipse class="cls-7" cx="52.58" cy="183.08" rx="12.84" ry="8.27"/>
          <ellipse class="cls-7" cx="78.26" cy="183.08" rx="12.84" ry="8.27"/>
          <ellipse class="cls-8" cx="56.34" cy="175.7" rx="8.81" ry="12.05" transform="translate(-127.14 156.18) rotate(-66.15)"/>
          <ellipse class="cls-8" cx="74.5" cy="190.46" rx="8.81" ry="12.05" transform="translate(-129.82 181.58) rotate(-66.15)"/>
          <ellipse class="cls-8" cx="56.34" cy="190.46" rx="12.05" ry="8.81" transform="translate(-72.2 39.04) rotate(-23.85)"/>
          <ellipse class="cls-8" cx="74.5" cy="175.7" rx="12.05" ry="8.81" transform="translate(-64.68 45.12) rotate(-23.85)"/>
          <ellipse class="cls-1" cx="65.42" cy="183.08" rx="10.34" ry="8.41"/>
        </g>
        <g>
          <ellipse class="cls-7" cx="53.75" cy="255.64" rx="10.17" ry="10.44"/>
          <ellipse class="cls-7" cx="53.75" cy="276.52" rx="10.17" ry="10.44"/>
          <ellipse class="cls-7" cx="40.91" cy="266.08" rx="12.84" ry="8.27"/>
          <ellipse class="cls-7" cx="66.59" cy="266.08" rx="12.84" ry="8.27"/>
          <ellipse class="cls-8" cx="44.67" cy="258.7" rx="8.81" ry="12.05" transform="translate(-210 194.95) rotate(-66.15)"/>
          <ellipse class="cls-8" cx="62.83" cy="273.46" rx="8.81" ry="12.05" transform="translate(-212.69 220.35) rotate(-66.15)"/>
          <ellipse class="cls-8" cx="44.67" cy="273.46" rx="12.05" ry="8.81" transform="translate(-106.75 41.41) rotate(-23.85)"/>
          <ellipse class="cls-8" cx="62.83" cy="258.7" rx="12.05" ry="8.81" transform="translate(-99.23 47.49) rotate(-23.85)"/>
          <ellipse class="cls-1" cx="53.75" cy="266.08" rx="10.34" ry="8.41"/>
        </g>
        <g>
          <ellipse class="cls-7" cx="132.68" cy="84.64" rx="10.17" ry="10.44"/>
          <ellipse class="cls-7" cx="132.68" cy="105.52" rx="10.17" ry="10.44"/>
          <ellipse class="cls-7" cx="119.84" cy="95.08" rx="12.84" ry="8.27"/>
          <ellipse class="cls-7" cx="145.52" cy="95.08" rx="12.84" ry="8.27"/>
          <ellipse class="cls-8" cx="123.6" cy="87.7" rx="8.81" ry="12.05" transform="translate(-6.59 165.28) rotate(-66.15)"/>
          <ellipse class="cls-8" cx="141.76" cy="102.46" rx="8.81" ry="12.05" transform="translate(-9.27 190.69) rotate(-66.15)"/>
          <ellipse class="cls-8" cx="123.6" cy="102.46" rx="12.05" ry="8.81" transform="translate(-30.88 58.72) rotate(-23.85)"/>
          <ellipse class="cls-8" cx="141.76" cy="87.7" rx="12.05" ry="8.81" transform="translate(-23.36 64.8) rotate(-23.85)"/>
          <ellipse class="cls-1" cx="132.68" cy="95.08" rx="10.34" ry="8.41"/>
        </g>
        <g>
          <ellipse class="cls-7" cx="294.91" cy="92.02" rx="10.17" ry="10.44"/>
          <ellipse class="cls-7" cx="294.91" cy="112.9" rx="10.17" ry="10.44"/>
          <ellipse class="cls-7" cx="282.07" cy="102.46" rx="12.84" ry="8.27"/>
          <ellipse class="cls-7" cx="307.75" cy="102.46" rx="12.84" ry="8.27"/>
          <ellipse class="cls-8" cx="285.83" cy="95.08" rx="8.81" ry="12.05" transform="translate(83.3 318.06) rotate(-66.15)"/>
          <ellipse class="cls-8" cx="303.99" cy="109.84" rx="8.81" ry="12.05" transform="translate(80.61 343.46) rotate(-66.15)"/>
          <ellipse class="cls-8" cx="285.83" cy="109.84" rx="12.05" ry="8.81" transform="translate(-20.01 124.95) rotate(-23.85)"/>
          <ellipse class="cls-8" cx="303.99" cy="95.08" rx="12.05" ry="8.81" transform="translate(-12.49 131.03) rotate(-23.85)"/>
          <ellipse class="cls-1" cx="294.91" cy="102.46" rx="10.34" ry="8.41"/>
        </g>
        <g>
          <ellipse class="cls-9" cx="91.1" cy="212.75" rx="10.17" ry="10.44"/>
          <ellipse class="cls-9" cx="91.1" cy="233.63" rx="10.17" ry="10.44"/>
          <ellipse class="cls-9" cx="78.26" cy="223.19" rx="12.84" ry="8.27"/>
          <ellipse class="cls-9" cx="103.94" cy="223.19" rx="12.84" ry="8.27"/>
          <ellipse class="cls-3" cx="82.02" cy="215.81" rx="8.81" ry="12.05" transform="translate(-148.53 203.56) rotate(-66.15)"/>
          <ellipse class="cls-3" cx="100.18" cy="230.57" rx="8.81" ry="12.05" transform="translate(-151.21 228.97) rotate(-66.15)"/>
          <ellipse class="cls-3" cx="82.02" cy="230.57" rx="12.05" ry="8.81" transform="translate(-86.22 52.85) rotate(-23.85)"/>
          <ellipse class="cls-3" cx="100.18" cy="215.81" rx="12.05" ry="8.81" transform="translate(-78.7 58.93) rotate(-23.85)"/>
          <ellipse class="cls-1" cx="91.1" cy="223.19" rx="10.34" ry="8.41"/>
        </g>
        <g>
          <ellipse class="cls-9" cx="217.93" cy="76.23" rx="10.17" ry="10.44"/>
          <ellipse class="cls-9" cx="217.93" cy="97.11" rx="10.17" ry="10.44"/>
          <ellipse class="cls-9" cx="205.09" cy="86.67" rx="12.84" ry="8.27"/>
          <ellipse class="cls-9" cx="230.77" cy="86.67" rx="12.84" ry="8.27"/>
          <ellipse class="cls-3" cx="208.85" cy="79.29" rx="8.81" ry="12.05" transform="translate(51.88 238.25) rotate(-66.15)"/>
          <ellipse class="cls-3" cx="227.01" cy="94.05" rx="8.81" ry="12.05" transform="translate(49.2 263.65) rotate(-66.15)"/>
          <ellipse class="cls-3" cx="208.85" cy="94.05" rx="12.05" ry="8.81" transform="translate(-20.2 92.47) rotate(-23.85)"/>
          <ellipse class="cls-3" cx="227.01" cy="79.29" rx="12.05" ry="8.81" transform="translate(-12.68 98.56) rotate(-23.85)"/>
          <ellipse class="cls-1" cx="217.93" cy="86.67" rx="10.34" ry="8.41"/>
        </g>
        <g>
          <ellipse class="cls-9" cx="390.69" cy="151.76" rx="10.17" ry="10.44"/>
          <ellipse class="cls-9" cx="390.69" cy="172.64" rx="10.17" ry="10.44"/>
          <ellipse class="cls-9" cx="377.85" cy="162.2" rx="12.84" ry="8.27"/>
          <ellipse class="cls-9" cx="403.53" cy="162.2" rx="12.84" ry="8.27"/>
          <ellipse class="cls-3" cx="381.61" cy="154.82" rx="8.81" ry="12.05" transform="translate(85.71 441.25) rotate(-66.15)"/>
          <ellipse class="cls-3" cx="399.77" cy="169.58" rx="8.81" ry="12.05" transform="translate(83.03 466.65) rotate(-66.15)"/>
          <ellipse class="cls-3" cx="381.61" cy="169.58" rx="12.05" ry="8.81" transform="translate(-35.98 168.78) rotate(-23.85)"/>
          <ellipse class="cls-3" cx="399.77" cy="154.82" rx="12.05" ry="8.81" transform="translate(-28.46 174.86) rotate(-23.85)"/>
          <ellipse class="cls-1" cx="390.69" cy="162.2" rx="10.34" ry="8.41"/>
        </g>
        <line class="cls-10" x1="227.01" y1="162.2" x2="230.77" y2="291.27"/>
        <line class="cls-10" x1="145.52" y1="286.2" x2="167.44" y2="442.82"/>
        <line class="cls-10" x1="314.32" y1="266.08" x2="294.91" y2="419.3"/>
        <line class="cls-10" x1="197.19" y1="301.28" x2="204.37" y2="451.72"/>
        <line class="cls-10" x1="167.44" y1="175.7" x2="171.67" y2="291.27"/>
        <line class="cls-10" x1="271.37" y1="179.38" x2="268.18" y2="303.88"/>
        <line class="cls-10" x1="340.76" y1="241.63" x2="347.14" y2="307.77"/>
        <line class="cls-10" x1="331.19" y1="372.61" x2="308.86" y2="469.88"/>
        <line class="cls-10" x1="114.19" y1="266.08" x2="117.95" y2="370.02"/>
        <line class="cls-10" x1="193.12" y1="150.17" x2="197.19" y2="212.36"/>
        <line class="cls-10" x1="141.76" y1="204.98" x2="143.87" y2="258.7"/>
        <line class="cls-13" x1="59.75" y1="321.81" x2="72.63" y2="376.5"/>
        <line class="cls-13" x1="89.36" y1="383.43" x2="136.18" y2="468.38"/>
        <line class="cls-13" x1="79.43" y1="386.51" x2="105.11" y2="469.88"/>
        <line class="cls-13" x1="19.49" y1="193.52" x2="52.58" y2="212.36"/>
        <line class="cls-13" x1="9.81" y1="220.77" x2="56.34" y2="233.63"/>
        <line class="cls-13" x1="408.56" y1="386.51" x2="400.86" y2="462.05"/>
        <line class="cls-13" x1="384.02" y1="381.96" x2="355.33" y2="462.05"/>
        <line class="cls-13" x1="400.86" y1="255.64" x2="395.01" y2="363.57"/>
        <line class="cls-13" x1="331.19" y1="133.14" x2="355.33" y2="193.52"/>
        <line class="cls-13" x1="425.98" y1="150.17" x2="404.71" y2="97.11"/>
        <line class="cls-13" x1="425.98" y1="179.38" x2="415.35" y2="245.2"/>
        <line class="cls-13" x1="171.67" y1="102.46" x2="116.78" y2="170.47"/>
        <line class="cls-13" x1="126.92" y1="133.14" x2="96.03" y2="169.58"/>
        <line class="cls-13" x1="208.85" y1="18.26" x2="170.91" y2="74.2"/>
        <line class="cls-13" x1="271.37" y1="46.23" x2="253.82" y2="76.23"/>
        <line class="cls-13" x1="243.61" y1="110.73" x2="308.86" y2="154.82"/>
        <g>
          <ellipse class="cls-9" cx="143.87" cy="332.25" rx="10.17" ry="10.44"/>
          <ellipse class="cls-9" cx="143.87" cy="353.13" rx="10.17" ry="10.44"/>
          <ellipse class="cls-9" cx="131.03" cy="342.69" rx="12.84" ry="8.27"/>
          <ellipse class="cls-9" cx="156.71" cy="342.69" rx="12.84" ry="8.27"/>
          <ellipse class="cls-3" cx="134.79" cy="335.31" rx="8.81" ry="12.05" transform="translate(-226.38 323.01) rotate(-66.15)"/>
          <ellipse class="cls-3" cx="152.95" cy="350.07" rx="8.81" ry="12.05" transform="translate(-229.07 348.41) rotate(-66.15)"/>
          <ellipse class="cls-3" cx="134.79" cy="350.07" rx="12.05" ry="8.81" transform="translate(-130.03 84.39) rotate(-23.85)"/>
          <ellipse class="cls-3" cx="152.95" cy="335.31" rx="12.05" ry="8.81" transform="translate(-122.52 90.47) rotate(-23.85)"/>
          <ellipse class="cls-1" cx="143.87" cy="342.69" rx="10.34" ry="8.41"/>
        </g>
      </g>
      <path class="cls-14" d="M331.89,388.95c-1.6-4.85-6.31-7.84-11.01-7.23-3.99,.52-7.36,3.56-8.45,7.67,.97,8.96,1.94,17.92,2.91,26.89,.06,.51,.25,.79,.41,.95,.81,.78,2.84,.35,5-1.19,.96-.72,1.89-1.52,2.79-2.41,7.95-7.98,8.5-19.33,8.36-24.67Z"/>
      <path class="cls-14" d="M284.15,286.37c-1-3.45,.22-7.09,2.97-9.04,3.45-2.45,7.47-.89,7.74-.78,5,9.85,10,20.47,14.86,31.85,4.81,11.27,8.99,22.13,12.62,32.45-.04,4.69-2.71,8.95-6.84,10.9-4.62,2.18-10.25,1.09-13.91-2.72-1.95-5.48-13.59-49.34-17.44-62.65Z"/>
      <path class="cls-14" d="M322.34,340.85c-3.22-3.83-8.54-5.22-13.19-3.45-4.75,1.8-7.82,6.52-7.56,11.62,3.54,13.44,7.08,26.88,10.62,40.32,.34,.43,4.11,5.03,10.3,4.66,5.64-.34,8.76-4.54,9.16-5.1-.05-6.08-.52-13.09-1.79-20.76-1.79-10.82-4.67-20-7.54-27.28Z"/>
      <path class="cls-14" d="M166.12,336.32c4.68-2.04,7.22-7.01,6.17-11.63-.89-3.92-4.23-7-8.43-7.7-8.83,1.8-17.67,3.6-26.5,5.4-.51,.11-.76,.32-.9,.5-.7,.88-.09,2.86,1.65,4.87,.8,.89,1.69,1.74,2.66,2.55,8.68,7.17,20.04,6.66,25.34,6.03Z"/>
      <g>
        <path class="cls-14" d="M270.92,384.15c1.37-9.68,8.5-17.49,17.72-19.54,10.24-2.27,21.05,3.02,25.8,12.89,.07,4.68,.01,8.63-.07,11.58-.1,3.88-.27,6.82-.47,10.56-.02,.43-.33,5.93-.71,11.04-.75,9.89-1.75,19.34-2.94,28.34-2.35,7.39-9.35,12.16-16.8,11.47-7.35-.68-13.38-6.52-14.56-14.11-2.66-17.41-5.32-34.82-7.98-52.22Z"/>
        <path class="cls-14" d="M291.03,504.09c.32,.94,1.08,1.64,1.97,1.78,1.15,.18,2.35-.6,2.77-1.89,4.23-13.14,8.19-28.05,11.25-44.58,1.74-9.39,3.01-18.36,3.92-26.82,.04-11.06-9.23-19.24-18.34-18.11-8.09,1-14.8,9.2-14.17,18.9,4.2,23.58,8.4,47.16,12.61,70.74Z"/>
      </g>
      <path class="cls-14" d="M262.21,385.48c-1.84-9.61-9.34-17.06-18.64-18.66-10.33-1.77-20.88,4.04-25.15,14.12,.16,4.68,.4,8.62,.63,11.57,.29,3.87,.59,6.8,.98,10.52,.04,.42,.61,5.91,1.24,11,1.22,9.84,2.68,19.24,4.3,28.16,2.71,7.27,9.93,11.7,17.33,10.64,7.3-1.04,13.05-7.16,13.86-14.8,1.82-17.52,3.63-35.03,5.45-52.55Z"/>
      <path class="cls-14" d="M247.9,505.56c-.27,.95-1,1.67-1.88,1.85-1.14,.23-2.38-.48-2.85-1.74-4.86-12.82-9.53-27.41-13.38-43.65-2.19-9.22-3.89-18.05-5.21-26.4-.58-10.96,8.3-19.52,17.45-18.83,8.13,.61,15.22,8.4,15.06,18.05-3.06,23.57-6.13,47.14-9.19,70.72Z"/>
      <path class="cls-14" d="M263.78,279.46c3.34-1.32,7.08-.44,9.28,2.11,2.76,3.21,1.58,7.35,1.5,7.64-9.34,5.89-19.45,11.86-30.33,17.76-10.77,5.84-21.19,11.01-31.13,15.58-4.68,.4-9.16-1.86-11.48-5.8-2.6-4.39-2.04-10.11,1.42-14.1,5.28-2.45,47.87-18.12,60.76-23.2Z"/>
      <path class="cls-14" d="M213.09,322.56c3.52-3.57,4.4-8.98,2.21-13.45-2.24-4.56-7.22-7.18-12.28-6.45-13.05,4.77-26.1,9.55-39.16,14.32-.39,.37-4.63,4.56-3.68,10.69,.87,5.59,5.33,8.3,5.93,8.65,6.05-.62,12.98-1.74,20.51-3.72,10.6-2.79,19.48-6.51,26.46-10.05Z"/>
      <g>
        <path class="cls-14" d="M233.63,277.34c1.15-1.58,11.58-15.41,30.23-15.82,18.53-.4,29.53,12.8,30.78,14.34,5.9,15.77,11.83,35.51,15.62,58.66,3.31,20.23,4.23,38.43,4.06,53.72-1.21,1.17-12.37,11.63-27.35,8.85-8.42-1.57-13.83-6.53-15.98-8.76-.69,.38-2.22,1.11-4.28,1.08-1.77-.02-3.11-.58-3.8-.93-2.23,2.37-7.58,7.38-15.98,9.28-14.74,3.34-26.3-5.72-27.87-7-1.03-15.67-1.04-34.87,1.68-56.56,2.82-22.44,7.82-41.62,12.89-56.88Z"/>
        <g>
          <path class="cls-4" d="M233.63,277.34c-.44-.11-5.35,15.82-9.04,33.68-1.68,8.14-2.93,15.9-3.85,23.2-.64,5.12-1.76,15.11-2.16,27.97-.45,14.23,.07,28.59,.48,28.59,.53,0-.98-24.19,2.91-55.77,4.15-33.65,12.2-57.53,11.66-57.67Z"/>
          <path class="cls-4" d="M294.79,276.21c.43-.13,5.66,14.96,10.21,32.62,2.07,8.05,3.7,15.74,4.96,22.99,.89,5.08,2.48,15,3.51,27.83,1.14,14.2,1.31,28.56,.9,28.58-.53,.03-.19-24.21-5.6-55.56-5.77-33.41-14.52-56.3-13.99-56.46Z"/>
        </g>
      </g>
      <g>
        <g>
          <circle class="cls-14" cx="262.67" cy="224.03" r="60.88"/>
          <path class="cls-4" d="M244.2,282.06s20.07,8.65,39.71-.96c0,0-19.67,7.88-39.71,.96Z"/>
        </g>
        <path class="cls-17" d="M237.75,253.77c2.82,2.08,12.06,8.33,25.38,8.08,13.63-.25,22.78-7.13,25.46-9.31"/>
        <path class="cls-4" d="M267.5,261.41c-1.34,7.78,2.72,14.4,8.09,15.74,3.21,.81,7.03-.24,9.29-2.73,3.69-4.06,3.29-11.99-2.48-17.76-4.97,1.58-9.94,3.16-14.91,4.75Z"/>
      </g>
      <g>
        <path class="cls-15" d="M239.08,241.72s2.05-.41,4.3-.1l-1.29-1.01s-2.66,.37-3.02,1.12Z"/>
        <path class="cls-15" d="M227.85,218.31s.66,2.65,7.23,4.93c0,0,4.04,1.75,5.47-6.5,0,0-5.98,.59-12.58-5.77,0,0-.07,4.78,8.9,8.22,0,0,.53,.43-.02,.78,0,0-5.09,.83-9-1.67Z"/>
        <ellipse class="cls-2" cx="243.3" cy="228.76" rx="8.22" ry="12.85" transform="translate(-5.45 5.94) rotate(-1.38)"/>
        <path class="cls-15" d="M298.31,216.61s-.53,2.68-6.98,5.28c0,0-3.95,1.95-5.78-6.23,0,0,6,.3,12.28-6.37,0,0,.3,4.77-8.49,8.64,0,0-.51,.46,.06,.78,0,0,5.12,.58,8.91-2.1Z"/>
        <path class="cls-15" d="M288.57,240.53s-2.07-.31-4.3,.1l1.24-1.07s2.67,.24,3.07,.97Z"/>
        <ellipse class="cls-2" cx="283.39" cy="227.8" rx="8.22" ry="12.85" transform="translate(-5.42 6.91) rotate(-1.38)"/>
        <ellipse class="cls-12" cx="243.54" cy="231.33" rx="6.45" ry="10.28" transform="translate(-5.51 5.95) rotate(-1.38)"/>
        <ellipse class="cls-2" cx="239.48" cy="223.7" rx="1.63" ry="2.55" transform="translate(-5.33 5.85) rotate(-1.38)"/>
        <ellipse class="cls-12" cx="283.4" cy="230.37" rx="6.54" ry="10.28" transform="translate(-5.48 6.91) rotate(-1.38)"/>
        <ellipse class="cls-2" cx="279.79" cy="222.73" rx="1.63" ry="2.55" transform="translate(-5.29 6.82) rotate(-1.38)"/>
        <ellipse class="cls-18" cx="236.22" cy="250" rx="7.6" ry="2" transform="translate(-5.97 5.77) rotate(-1.38)"/>
        <ellipse class="cls-18" cx="293.39" cy="248.62" rx="7.6" ry="2" transform="translate(-5.92 7.15) rotate(-1.38)"/>
      </g>
    </g>
  </g>
</svg>