<?xml version="1.0" encoding="UTF-8"?>
<svg id="Layer_2" data-name="Layer 2" xmlns="http://www.w3.org/2000/svg" xmlns:xlink="http://www.w3.org/1999/xlink" viewBox="0 0 439.08 504.84">
  <defs>
    <style>
      .cls-1 {
        fill: #fff;
      }

      .cls-2 {
        fill: #818285;
      }

      .cls-3 {
        fill: #83c480;
      }

      .cls-4 {
        fill: #8fcc8e;
      }

      .cls-5 {
        fill: #b5dbad;
      }

      .cls-6 {
        fill: #1e6d37;
      }

      .cls-7 {
        fill: #231f20;
      }

      .cls-8 {
        fill: #3db54a;
      }

      .cls-9 {
        fill: #6ec061;
      }

      .cls-10 {
        fill: #62af60;
      }

      .cls-11 {
        fill: #595a5c;
      }

      .cls-12 {
        fill: #2f4930;
      }

      .cls-13 {
        stroke: #818285;
        stroke-width: 2px;
      }

      .cls-13, .cls-14 {
        fill: none;
        stroke-miterlimit: 10;
      }

      .cls-15 {
        fill: url(#radial-gradient);
      }

      .cls-16 {
        fill: #de519d;
        opacity: .5;
      }

      .cls-14 {
        stroke: #1e6734;
        stroke-width: .5px;
      }
    </style>
    <radialGradient id="radial-gradient" cx="290.95" cy="180.93" fx="290.95" fy="61.02" r="148.25" gradientUnits="userSpaceOnUse">
      <stop offset="0" stop-color="#f26b22"/>
      <stop offset=".23" stop-color="#fcee34"/>
      <stop offset=".51" stop-color="#fff8a3" stop-opacity=".7"/>
      <stop offset=".74" stop-color="#fff9b9" stop-opacity=".2"/>
      <stop offset=".94" stop-color="#fff9b6" stop-opacity=".1"/>
    </radialGradient>
  </defs>
  <g id="verbs-encender">
    <g>
      <g>
        <path class="cls-8" d="M231.67,210.77c-4.73-12.47-14.61-18.79-18.26-20.88-17.46,13.41-24.74,32.02-19.14,45.01,2.84,6.6,10.53,15.27,20.23,14.82,11.02-.51,16.97-12.44,17.68-13.94,5.02-10.46,1.08-20.83-.5-25Z"/>
        <path class="cls-14" d="M213.33,196.66c1.51,5.45,2.91,12.47,3.22,20.72,.42,11.31-1.39,20.72-3.22,27.31"/>
        <path class="cls-14" d="M205.43,207.77c1.08,1.12,2.36,2.64,3.55,4.62,1.18,1.96,1.93,3.79,2.42,5.26"/>
        <path class="cls-14" d="M228.23,226.03c-.65,2.21-1.72,5.04-3.52,8.08-1.94,3.28-4.08,5.71-5.81,7.39"/>
        <path class="cls-14" d="M199.12,217.85c1.81,1.26,4.01,3.06,6.17,5.55,2.87,3.3,4.58,6.56,5.6,8.96"/>
        <path class="cls-14" d="M224.89,206.4c-.12,2.78-.5,6.19-1.45,9.98-1.11,4.42-2.65,8.05-4.07,10.79"/>
        <path class="cls-14" d="M202.8,232.92c1.05,.98,2.52,2.6,3.71,4.93,.99,1.96,1.44,3.75,1.66,5.05"/>
      </g>
      <g>
        <rect class="cls-5" x="208.05" y="208.39" width="11.32" height="24.53"/>
        <rect class="cls-6" x="209.63" y="210.36" width="8.17" height="20.59"/>
        <g>
          <polygon class="cls-4" points="207.13 204.96 213.67 205.35 212.98 211.2 206.35 211.2 207.13 204.96"/>
          <polygon class="cls-9" points="213.67 205.35 216.78 211.68 216.78 221.3 212.98 211.2 213.67 205.35"/>
          <polygon class="cls-10" points="206.35 211.2 212.98 211.2 216.78 221.3 210.83 221.09 206.35 211.2"/>
          <path class="cls-3" d="M210.83,221.09l5.95,.21c.1,1.57,.18,3.17,.25,4.8,.05,1.2,.09,2.38,.12,3.55-1.06,.02-2.14,.03-3.23,.03-.89,0-1.76-.01-2.63-.03-.42-.6-1.42-2.2-1.47-4.47-.04-1.97,.66-3.43,1.02-4.08Z"/>
        </g>
      </g>
    </g>
    <path class="cls-15" d="M424.73,307.73c-18.17,21.42-57.21,21.46-135.29,21.55-75.4,.08-113.1,.12-131.1-20.35C106.41,249.86,193.75,33.85,287.79,32.57c94.71-1.29,187.69,215.31,136.93,275.17Z"/>
    <g>
      <g>
        <path class="cls-11" d="M76.88,370.61c1.76-10.56,9.76-18.91,19.9-20.9,11.26-2.21,22.95,3.86,27.88,14.78-.05,5.12-.22,9.44-.38,12.67-.22,4.24-.47,7.45-.79,11.53-.04,.47-.51,6.48-1.07,12.06-1.08,10.8-2.43,21.11-3.97,30.92-2.77,8.03-10.55,13.06-18.68,12.1-8.02-.94-14.46-7.49-15.55-15.82-2.45-19.11-4.9-38.23-7.35-57.34Z"/>
        <path class="cls-11" d="M95.71,502.35c.32,1.04,1.14,1.82,2.11,1.99,1.26,.23,2.59-.59,3.08-1.99,4.98-14.26,9.7-30.47,13.49-48.47,2.15-10.22,3.78-20,5-29.24,.34-12.1-9.59-21.3-19.59-20.3-8.88,.89-16.43,9.67-16,20.3,3.97,25.9,7.95,51.81,11.92,77.71Z"/>
      </g>
      <path class="cls-11" d="M67.31,371.83c-1.76-10.56-9.76-18.91-19.9-20.9-11.26-2.21-22.95,3.86-27.88,14.78,.05,5.12,.22,9.44,.38,12.67,.22,4.24,.47,7.45,.79,11.53,.04,.47,.51,6.48,1.07,12.06,1.08,10.8,2.43,21.11,3.97,30.92,2.77,8.03,10.55,13.06,18.68,12.1,8.02-.94,14.46-7.49,15.55-15.82,2.45-19.11,4.9-38.23,7.35-57.34Z"/>
      <path class="cls-11" d="M48.49,502.82c-.32,1.03-1.14,1.81-2.11,1.98-1.26,.22-2.59-.59-3.08-1.98-4.98-14.15-9.7-30.23-13.49-48.1-2.15-10.14-3.78-19.85-5-29.01-.34-12,9.59-21.13,19.59-20.14,8.88,.88,16.43,9.6,16,20.14-3.97,25.71-7.95,51.41-11.92,77.12Z"/>
      <path class="cls-11" d="M68.54,270.62c-3.59,1.6-5.77,5.2-5.46,8.86,.4,4.61,4.53,6.87,4.82,7.02,11.76-2.78,24.17-6.1,37.12-10.08,12.82-3.94,24.84-8.12,36.03-12.38,3.9-3.35,5.57-8.58,4.27-13.41-1.44-5.39-6.33-9.34-12.1-9.7-5.96,2.24-50.83,23.5-64.68,29.68Z"/>
      <path class="cls-11" d="M141.04,264.05c-5.48,.01-10.39-3.45-12.2-8.58-1.85-5.24-.08-11.14,4.37-14.53,13.73-6.54,27.46-13.07,41.2-19.61,.59-.02,7.11-.12,11.17,5.32,3.7,4.96,2.39,10.53,2.21,11.26-5.12,4.25-11.31,8.81-18.62,13.17-10.3,6.14-20.01,10.22-28.13,12.97Z"/>
      <path class="cls-11" d="M187.79,237.92c-5.18,2.09-11.01,.26-13.82-4.1-2.38-3.7-2.22-8.67,.44-12.48,8.17-5.52,16.35-11.04,24.52-16.56,.47-.31,.83-.35,1.08-.33,1.22,.13,2.3,2.13,2.54,5.02,.08,1.31,.07,2.65-.05,4.03-1.05,12.28-10.15,20.76-14.71,24.42Z"/>
      <path class="cls-11" d="M49.3,262.71c1-3.8-.43-7.75-3.48-9.81-3.84-2.58-8.19-.78-8.49-.65-5.21,10.9-10.4,22.66-15.42,35.24-4.97,12.46-9.25,24.44-12.94,35.83,.17,5.13,3.2,9.72,7.77,11.74,5.11,2.26,11.25,.93,15.14-3.35,1.99-6.05,13.56-54.34,17.43-69Z"/>
      <path class="cls-11" d="M8.96,323.32c3.43-4.28,9.2-5.93,14.33-4.12,5.24,1.85,8.73,6.92,8.58,12.51-3.52,14.8-7.03,29.59-10.55,44.39-.36,.47-4.36,5.61-11.15,5.37-6.18-.22-9.7-4.73-10.16-5.34-.1-6.65,.23-14.33,1.41-22.76,1.67-11.88,4.58-22,7.53-30.04Z"/>
      <path class="cls-11" d="M.02,376.12c1.62-5.34,6.7-8.74,11.85-8.2,4.38,.46,8.15,3.7,9.45,8.17-.82,9.83-1.65,19.66-2.47,29.49-.05,.56-.25,.87-.42,1.05-.87,.87-3.1,.46-5.5-1.17-1.07-.76-2.11-1.61-3.11-2.57C.91,394.38,.01,381.97,.02,376.12Z"/>
      <g>
        <path class="cls-11" d="M38.91,252.78c1.3-1.7,13.08-16.56,33.49-16.51,20.29,.05,31.97,14.78,33.29,16.5,6.04,17.41,12.01,39.16,15.54,64.58,3.09,22.22,3.62,42.15,3.02,58.87-1.35,1.25-13.84,12.4-30.15,8.96-9.17-1.93-14.96-7.51-17.25-10-.77,.4-2.46,1.15-4.71,1.07-1.93-.07-3.39-.71-4.14-1.12-2.5,2.54-8.49,7.87-17.72,9.73-16.21,3.27-28.62-6.95-30.31-8.39-.71-17.17-.22-38.18,3.33-61.83,3.67-24.47,9.65-45.32,15.6-61.88Z"/>
        <g>
          <path class="cls-2" d="M38.91,252.78c-.48-.14-6.27,17.16-10.78,36.6-2.06,8.86-3.63,17.31-4.82,25.28-.84,5.58-2.32,16.48-3.11,30.53-.87,15.56-.67,31.28-.22,31.29,.58,.02-.44-26.49,4.65-60.93,5.43-36.71,14.87-62.62,14.28-62.78Z"/>
          <path class="cls-2" d="M105.83,253.17c.48-.14,5.8,16.51,10.31,35.96,2.06,8.86,3.63,17.31,4.82,25.28,.84,5.58,2.32,16.48,3.11,30.53,.87,15.56,.67,31.28,.22,31.29-.58,.02,.44-26.49-4.65-60.93-5.43-36.71-14.4-61.97-13.81-62.13Z"/>
        </g>
      </g>
      <g>
        <g>
          <circle class="cls-11" cx="71.5" cy="195.3" r="66.24"/>
          <path class="cls-2" d="M49.89,257.93s21.61,9.93,43.22,0c0,0-21.61,8.06-43.22,0Z"/>
        </g>
        <g>
          <ellipse class="cls-1" cx="49.65" cy="200.9" rx="8.95" ry="14.01"/>
          <ellipse class="cls-7" cx="49.65" cy="198.04" rx="5.56" ry="8.7"/>
          <ellipse class="cls-1" cx="45.86" cy="192.12" rx="1.78" ry="2.78"/>
          <ellipse class="cls-1" cx="93.34" cy="200.9" rx="8.95" ry="14.01"/>
          <ellipse class="cls-7" cx="93.59" cy="198.04" rx="5.56" ry="8.7"/>
          <ellipse class="cls-1" cx="89.81" cy="192.12" rx="1.78" ry="2.78"/>
          <path class="cls-13" d="M62.42,231.04c-.05,9.06,5.25,15.04,8.94,14.92,3.68-.12,8.57-6.37,8.01-15.36"/>
        </g>
      </g>
    </g>
    <g>
      <path class="cls-16" d="M291.73,34.87c-5.07,1.11-27.71,6.65-40.81,27.84-13.49,21.82-11.41,51.42,5.5,74.45,.23,1.19,1.83,8.65,8.49,11.99,2.22,1.11,4.36,1.44,5.94,1.52,2.19,.15,5.23,.73,7.05,3,1.97,2.45,.93,4.89,2.82,6.21,2.53,1.77,5.66-1.68,9.04,0,2.84,1.41,2.86,4.97,4.8,5.08,1.4,.08,2.66-1.71,3.49-3.23,1.11,1.99,2.18,2.56,3.01,2.66,2.77,.35,5.02-4.21,10.03-11.02,3.89-5.28,6.1-7.38,7.49-9.18,6.72-8.77,29.06-56.54,4.16-88.77-3.85-4.98-12.93-14.91-31.01-20.57Z"/>
      <path class="cls-16" d="M277.9,36.39c.87-.79,2.18-1.8,3.96-2.58,2.9-1.28,5.53-1.31,6.96-1.22,1.08,.34,3.28,1.22,5.13,3.36,3,3.47,2.77,7.62,2.7,8.5,.03,1.11-.06,2.77-.65,4.66-.67,2.13-1.7,3.67-2.43,4.59,.83,1.78,1.92,4.57,2.34,8.08,.77,6.51-1.23,11.3-2.44,15.41-2.78,9.47-1.42,15.6-1.66,21.74-.36,9.37-4.64,24.41-21.49,49.44-.82,.76-2.16,2.19-3.08,4.38-.74,1.77-.92,3.36-.96,4.4,.43,.22,1.08,.63,1.64,1.36,1.14,1.49,1.02,3.18,.97,3.63-.49,.01-1.24,0-2.14-.12-1.2-.16-1.67-.39-2.73-.59-1.8-.33-2.18,.02-3.12-.2-1.47-.33-2.36-1.59-3.71-3.8-1.2-1.97-2.66-4.53-4.2-7.64-3.24-4.67-6.49-9.33-9.73-14-.35-1.82-1.03-4.32-2.45-7.03-1.21-2.3-2.58-4.06-3.72-5.31-1.39-1.36-3.3-3.56-4.86-6.68-1.7-3.4-2.28-6.49-2.49-8.5-1.04-2.85-2.12-6.84-2.29-11.68-.09-2.57,.1-4.87,.39-6.83,1.98-5.54,3.95-11.07,5.93-16.61,.86-1.85,2.18-4.23,4.21-6.69,2.03-2.46,4.11-4.22,5.75-5.41,.9-1.12,2.41-2.71,4.68-4.05,1.74-1.03,3.36-1.57,4.58-1.88,1.04-1.22,2.36-3.02,3.42-5.43,.88-2,1.33-3.83,1.56-5.25,.46-.93,1.24-2.25,2.53-3.53,1.61-1.6,3.29-2.44,4.35-2.88,4.35-.55,8.7-1.11,13.05-1.66Z"/>
      <path class="cls-16" d="M293.06,34.3c-1.16,.85-1.46,2.28-1.66,3.17-.89,4.17,2.18,7.5,2.59,7.94,1.25,5.66,3.56,13.25,8.03,21.44,3.67,6.73,7.75,11.94,11.21,15.75-.37,3.91-.44,9.64,1.2,16.25,2.39,9.58,7.19,16.2,10.12,19.66-.74,4.47-1.28,9.9-1.16,16.06,.1,5.27,.66,9.96,1.38,13.93-2.51,7.06-2.29,9.35-1.38,9.93,3.39,2.16,24.16-14.52,27.31-35.58,1.09-7.27-.73-9.69,1.24-21.24,1.59-9.34,3.63-12.74,1.79-17.79-1.97-5.42-5.5-4.74-12.28-11.72-9.79-10.09-7.04-16.27-16.14-22.21-3.71-2.42-5.28-2.12-11.17-6.07-4.14-2.78-5.31-4.23-9.65-6.62-4-2.2-8.84-4.8-11.45-2.9Z"/>
    </g>
    <ellipse class="cls-12" cx="291.24" cy="36.76" rx="17.05" ry="4.18"/>
    <rect class="cls-12" x="288.16" width="6.52" height="35.76"/>
  </g>
</svg>