<?xml version="1.0" encoding="UTF-8"?>
<svg id="Layer_2" data-name="Layer 2" xmlns="http://www.w3.org/2000/svg" viewBox="0 0 256.63 497.01">
  <defs>
    <style>
      .cls-1 {
        stroke: #818285;
        stroke-miterlimit: 10;
        stroke-width: 5px;
      }

      .cls-1, .cls-2 {
        fill: #818285;
      }

      .cls-3 {
        fill: #68bee2;
      }

      .cls-4 {
        fill: #fff;
      }

      .cls-5 {
        fill: #b2e0e4;
      }

      .cls-6 {
        fill: #e1eae1;
      }

      .cls-7 {
        fill: #231f20;
      }

      .cls-8 {
        fill: #595a5c;
      }
    </style>
  </defs>
  <g id="verbs-beber">
    <g>
      <g>
        <path class="cls-8" d="M115.5,318.66c2.32-13.95,12.9-24.99,26.29-27.62,14.87-2.92,30.32,5.11,36.84,19.53-.06,6.77-.28,12.47-.5,16.74-.29,5.6-.62,9.84-1.05,15.24-.05,.61-.68,8.56-1.41,15.93-1.42,14.26-3.2,27.89-5.24,40.85-3.66,10.6-13.94,17.25-24.68,15.98-10.59-1.25-19.11-9.89-20.54-20.9-3.23-25.25-6.47-50.5-9.7-75.75Z"/>
        <path class="cls-8" d="M140.38,492.71c.43,1.37,1.5,2.4,2.78,2.63,1.66,.3,3.42-.78,4.06-2.63,6.57-18.84,12.82-40.25,17.82-64.04,2.84-13.51,4.99-26.42,6.6-38.63,.45-15.98-12.67-28.13-25.88-26.82-11.73,1.17-21.7,12.77-21.14,26.82,5.25,34.22,10.5,68.44,15.75,102.67Z"/>
      </g>
      <g>
        <path class="cls-8" d="M102.87,320.28c-2.32-13.95-12.9-24.99-26.29-27.62-14.87-2.92-30.32,5.11-36.84,19.53,.06,6.77,.28,12.47,.5,16.74,.29,5.6,.62,9.84,1.05,15.24,.05,.61,.68,8.56,1.41,15.93,1.42,14.26,3.2,27.89,5.24,40.85,3.66,10.6,13.94,17.25,24.68,15.98,10.59-1.25,19.11-9.89,20.54-20.9,3.23-25.25,6.47-50.5,9.7-75.75Z"/>
        <path class="cls-8" d="M77.99,494.32c-.43,1.37-1.5,2.4-2.78,2.63-1.66,.3-3.42-.78-4.06-2.63-6.57-18.84-12.82-40.25-17.82-64.04-2.84-13.51-4.99-26.42-6.6-38.63-.45-15.98,12.67-28.13,25.88-26.82,11.73,1.17,21.7,12.77,21.14,26.82-5.25,34.22-10.5,68.44-15.75,102.67Z"/>
      </g>
      <g>
        <path class="cls-8" d="M79.06,177.06c1.79-4.88,.39-10.25-3.38-13.33-4.74-3.87-10.68-2.03-11.09-1.9-8.19,13.7-16.46,28.52-24.6,44.46-8.06,15.77-15.16,31.01-21.42,45.54-.41,6.77,3.01,13.17,8.78,16.39,6.44,3.6,14.68,2.6,20.33-2.55,3.36-7.71,24.5-69.81,31.39-88.62Z"/>
        <path class="cls-8" d="M18.56,251.84c5.03-5.21,12.83-6.68,19.36-3.67,6.67,3.07,10.63,10.18,9.75,17.51-6.44,19.03-12.88,38.06-19.33,57.09-.53,.58-6.42,6.85-15.32,5.69-8.1-1.05-12.18-7.42-12.7-8.27,.68-8.76,2.06-18.82,4.66-29.77,3.66-15.42,8.73-28.37,13.59-38.59Z"/>
        <path class="cls-8" d="M.31,320.2c2.78-6.83,9.88-10.68,16.6-9.33,5.7,1.15,10.26,5.87,11.43,11.91-2.29,12.83-4.58,25.66-6.87,38.48-.13,.73-.43,1.11-.69,1.32-1.25,1.04-4.14,.23-7.09-2.22-1.31-1.13-2.58-2.38-3.78-3.76C-.75,344.31-.42,327.89,.31,320.2Z"/>
      </g>
      <g>
        <path class="cls-8" d="M65.34,163.01c1.72-2.25,17.28-21.87,44.24-21.81,26.8,.06,42.23,19.52,43.98,21.8,7.98,23,15.86,51.74,20.53,85.32,4.08,29.36,4.78,55.69,3.99,77.78-1.79,1.65-18.29,16.38-39.83,11.83-12.11-2.56-19.76-9.92-22.79-13.22-1.02,.53-3.25,1.52-6.22,1.42-2.56-.09-4.47-.94-5.46-1.48-3.31,3.35-11.21,10.4-23.41,12.86-21.41,4.32-37.81-9.18-40.04-11.08-.94-22.68-.29-50.44,4.4-81.68,4.85-32.33,12.75-59.87,20.61-81.75Z"/>
        <g>
          <path class="cls-2" d="M65.34,163.01c-.63-.18-8.28,22.67-14.24,48.36-2.71,11.7-4.79,22.87-6.37,33.39-1.11,7.37-3.07,21.77-4.1,40.34-1.15,20.55-.89,41.32-.3,41.34,.77,.02-.58-35,6.15-80.49,7.17-48.49,19.64-82.72,18.86-82.94Z"/>
          <path class="cls-2" d="M153.75,163.51c.63-.18,7.66,21.81,13.62,47.5,2.71,11.7,4.79,22.87,6.37,33.39,1.11,7.37,3.07,21.77,4.1,40.34,1.15,20.55,.89,41.32,.3,41.34-.77,.02,.58-35-6.15-80.49-7.17-48.49-19.02-81.86-18.24-82.08Z"/>
        </g>
      </g>
      <path class="cls-8" d="M151.86,167.61c-5.09,1.02-8.95,5.01-9.62,9.83-.83,6.06,3.83,10.17,4.16,10.45,15.96-.16,32.92-.82,50.77-2.18,17.66-1.34,34.37-3.23,50.03-5.45,6-3.18,9.67-9.44,9.41-16.04-.29-7.37-5.43-13.88-12.77-16.02-8.33,1.15-72.35,15.47-91.99,19.4Z"/>
      <path class="cls-8" d="M256.63,164.43c-.91,7.18-6.27,13.03-13.3,14.54-7.18,1.54-14.61-1.77-18.3-8.18-6.25-19.09-12.5-38.19-18.76-57.28,.07-.78,1.04-9.33,8.85-13.74,7.12-4.01,14.19-1.36,15.12-1,4.71,7.42,9.63,16.3,14.12,26.62,6.32,14.54,10.02,27.94,12.26,39.04Z"/>
      <path class="cls-8" d="M229.86,102.11c1.87,7.14-1.51,14.47-7.69,17.42-5.25,2.5-11.73,1.45-16.29-2.68-5.86-11.64-11.72-23.28-17.57-34.92-.33-.67-.32-1.15-.25-1.47,.38-1.58,3.18-2.66,7-2.48,1.73,.12,3.49,.36,5.28,.74,15.91,3.45,25.49,16.8,29.52,23.39Z"/>
      <g>
        <g>
          <circle class="cls-8" cx="106.09" cy="87.69" r="87.67"/>
          <path class="cls-2" d="M107.6,175.37s31.37,2.56,53.74-19.58c0,0-23.22,19.81-53.74,19.58Z"/>
        </g>
        <ellipse class="cls-4" cx="81.17" cy="104.31" rx="11.98" ry="18.73" transform="translate(-30.81 34.1) rotate(-20.02)"/>
        <ellipse class="cls-7" cx="84.06" cy="106.56" rx="7.44" ry="11.64" transform="translate(-31.41 35.22) rotate(-20.02)"/>
        <ellipse class="cls-4" cx="76.59" cy="100.86" rx="2.38" ry="3.72" transform="translate(-29.9 32.32) rotate(-20.02)"/>
        <ellipse class="cls-4" cx="136" cy="84.32" rx="11.98" ry="18.73" transform="translate(-20.65 51.67) rotate(-20.02)"/>
        <ellipse class="cls-7" cx="139.21" cy="86.47" rx="7.44" ry="11.64" transform="translate(-21.19 52.89) rotate(-20.02)"/>
        <ellipse class="cls-4" cx="131.74" cy="80.76" rx="2.38" ry="3.72" transform="translate(-19.69 49.99) rotate(-20.02)"/>
        <ellipse class="cls-1" cx="131.97" cy="138.47" rx="4.58" ry="6.6" transform="translate(-39.43 53.55) rotate(-20.02)"/>
      </g>
      <g>
        <path class="cls-5" d="M248.16,92.71l-83.19-12.85c-2.42,4.36-5.55,11.29-6.79,20.28-1.83,13.24,1.4,23.84,3.41,29.09h86.57c1.61-3.27,4.12-9.42,4.26-17.51,.16-8.91-2.62-15.67-4.26-19.01Z"/>
        <path class="cls-3" d="M245.79,94.91c-13.59-2.1-27.17-4.2-40.76-6.3-6.49,5.7-13.4,12.35-20.39,20.03-5.81,6.38-10.9,12.62-15.34,18.53h76.49c1.43-2.89,3.64-8.32,3.77-15.48,.14-7.88-2.31-13.85-3.77-16.79Z"/>
        <rect class="cls-6" x="177.54" y="93.61" width="63.78" height="6.63" transform="translate(12.38 -23.19) rotate(6.53)"/>
      </g>
    </g>
  </g>
</svg>