<?xml version="1.0" encoding="UTF-8"?>
<svg id="Layer_2" data-name="Layer 2" xmlns="http://www.w3.org/2000/svg" viewBox="0 0 277.69 508.03">
  <defs>
    <style>
      .cls-1 {
        fill: #fff;
      }

      .cls-2 {
        fill: #f0bf55;
      }

      .cls-3 {
        fill: #818285;
      }

      .cls-4 {
        fill: #231f20;
      }

      .cls-5 {
        fill: #595a5c;
      }

      .cls-6 {
        fill: #60c8d4;
      }

      .cls-7 {
        fill: none;
        stroke: #dd9c27;
        stroke-miterlimit: 10;
        stroke-width: 2px;
      }

      .cls-8 {
        fill: #f7b1c4;
        opacity: .57;
      }
    </style>
  </defs>
  <g id="verbs-enseñar">
    <g>
      <path class="cls-5" d="M109.93,325.83c2.39-14.33,13.25-25.67,27.01-28.37,15.28-3,31.15,5.25,37.85,20.06-.06,6.96-.29,12.81-.52,17.2-.29,5.76-.64,10.11-1.08,15.66-.05,.63-.7,8.8-1.45,16.37-1.46,14.65-3.29,28.66-5.38,41.97-3.76,10.89-14.32,17.72-25.35,16.42-10.88-1.28-19.63-10.17-21.11-21.48-3.32-25.94-6.65-51.89-9.97-77.83Z"/>
      <path class="cls-5" d="M135.49,504.65c.44,1.41,1.54,2.47,2.86,2.71,1.7,.31,3.51-.8,4.18-2.71,6.75-19.36,13.17-41.36,18.31-65.8,2.92-13.88,5.13-27.15,6.79-39.69,.46-16.42-13.02-28.91-26.59-27.55-12.05,1.2-22.3,13.12-21.72,27.55,5.39,35.16,10.79,70.32,16.18,105.48Z"/>
    </g>
    <path class="cls-5" d="M96.94,327.49c-2.39-14.33-13.25-25.67-27.01-28.37-15.28-3-31.15,5.25-37.85,20.06,.06,6.96,.29,12.81,.52,17.2,.29,5.76,.64,10.11,1.08,15.66,.05,.63,.7,8.8,1.45,16.37,1.46,14.65,3.29,28.66,5.38,41.97,3.76,10.89,14.32,17.72,25.35,16.42,10.88-1.28,19.63-10.17,21.11-21.48,3.32-25.94,6.65-51.89,9.97-77.83Z"/>
    <path class="cls-5" d="M71.39,505.29c-.44,1.4-1.54,2.45-2.86,2.69-1.7,.3-3.51-.8-4.18-2.69-6.75-19.21-13.17-41.04-18.31-65.29-2.92-13.77-5.13-26.94-6.79-39.38-.46-16.29,13.02-28.68,26.59-27.34,12.05,1.19,22.3,13.02,21.72,27.34-5.39,34.89-10.79,69.78-16.18,104.67Z"/>
    <path class="cls-5" d="M151.32,172.75c-3.24-4.24-8.67-5.99-13.42-4.42-5.97,1.97-7.65,8.14-7.76,8.57,7.36,14.65,15.65,30,24.97,45.85,9.23,15.69,18.52,30.25,27.66,43.69,5.64,4.09,13.08,4.65,19.05,1.43,6.67-3.6,10.35-11.29,9-19.02-4.83-7.17-47-59.74-59.51-76.09Z"/>
    <path class="cls-5" d="M196.22,269.85c-7.4,.75-14.49-3.27-17.62-9.96-3.19-6.83-1.59-15.03,3.97-20.21,17.68-10.66,35.35-21.32,53.03-31.98,.8-.11,9.58-1.11,15.8,5.7,5.66,6.2,4.64,13.9,4.49,14.91-6.35,6.43-14.1,13.4-23.39,20.27-13.1,9.67-25.67,16.48-36.26,21.27Z"/>
    <path class="cls-5" d="M243.5,235.46c-7.58-.1-13.92-5.46-15.14-12.38-1.04-5.88,1.77-12.02,7.11-15.39,13.13-2.62,26.26-5.23,39.39-7.85,.75-.15,1.23,0,1.52,.16,1.46,.81,1.76,3.87,.54,7.61-.59,1.68-1.31,3.36-2.18,5.02-7.77,14.81-23.61,20.65-31.24,22.83Z"/>
    <path class="cls-5" d="M72.94,184.69c2.44-4.74,1.7-10.4-1.75-14.02-4.34-4.55-10.63-3.43-11.06-3.35-10.09,12.93-20.42,26.98-30.75,42.19-10.23,15.06-19.41,29.69-27.64,43.7-1.28,6.85,1.39,13.81,6.86,17.83,6.11,4.49,14.63,4.52,21.05,0,4.41-7.44,33.88-68.05,43.29-86.35Z"/>
    <g>
      <path class="cls-5" d="M58.39,165.9c1.77-2.31,17.75-22.47,45.46-22.41,27.54,.07,43.39,20.06,45.18,22.4,8.2,23.63,16.3,53.16,21.09,87.66,4.19,30.16,4.91,57.21,4.1,79.91-1.84,1.69-18.79,16.83-40.92,12.16-12.44-2.63-20.3-10.2-23.42-13.58-1.05,.55-3.34,1.56-6.39,1.46-2.63-.09-4.6-.97-5.61-1.52-3.4,3.44-11.52,10.68-24.05,13.21-22,4.44-38.84-9.43-41.14-11.39-.96-23.3-.29-51.82,4.52-83.92,4.98-33.22,13.1-61.52,21.18-84Z"/>
      <g>
        <path class="cls-3" d="M58.39,165.9c-.65-.18-8.51,23.29-14.63,49.69-2.79,12.02-4.92,23.5-6.55,34.31-1.14,7.57-3.15,22.37-4.22,41.45-1.18,21.12-.92,42.46-.31,42.47,.79,.02-.59-35.96,6.32-82.7,7.36-49.82,20.18-84.99,19.38-85.22Z"/>
        <path class="cls-3" d="M149.23,166.42c.65-.18,7.87,22.41,13.99,48.81,2.79,12.02,4.92,23.5,6.55,34.31,1.14,7.57,3.15,22.37,4.22,41.45,1.18,21.12,.92,42.46,.31,42.47-.79,.02,.59-35.96-6.32-82.7-7.36-49.82-19.54-84.11-18.74-84.34Z"/>
      </g>
    </g>
    <g>
      <path class="cls-2" d="M53.74,206.56h53.18v76.9H53.74c-2.76,0-5-2.24-5-5v-66.9c0-2.76,2.24-5,5-5Z"/>
      <line class="cls-7" x1="57.62" y1="209.63" x2="57.62" y2="278.07"/>
    </g>
    <path class="cls-5" d="M11.03,275.9c-6.91-2.76-11.34-9.6-11.02-16.99,.33-7.54,5.54-14.07,12.87-16.08,20.6-1.27,41.21-2.55,61.81-3.82,.76,.28,9.01,3.45,11.37,12.36,2.15,8.12-2.32,14.47-2.92,15.3-8.6,2.76-18.7,5.36-30.12,7.15-16.09,2.52-30.38,2.73-41.99,2.08Z"/>
    <path class="cls-5" d="M83.14,266.67c-7.58,0-14-5.25-15.33-12.16-1.13-5.87,1.59-12.04,6.88-15.5,13.09-2.81,26.18-5.62,39.27-8.43,.75-.16,1.23-.02,1.53,.14,1.48,.79,1.82,3.85,.65,7.61-.56,1.69-1.26,3.38-2.1,5.05-7.55,14.93-23.3,21-30.9,23.29Z"/>
    <path class="cls-3" d="M42.9,240.98c10.6-.66,21.19-1.31,31.79-1.97-5.33-.24-11.29-.23-17.76,.25-5.06,.37-9.75,.98-14.03,1.71Z"/>
    <path class="cls-3" d="M48.74,274.44c2.46-.38,5.96-.96,10.15-1.77,7.55-1.46,14.33-2.76,22.33-5.4,3.83-1.26,9.04-3.19,15.06-6.11-5.7,3.07-13.1,6.43-22.07,9.02-9.84,2.84-18.61,3.91-25.48,4.26Z"/>
    <path class="cls-3" d="M108.92,231.66c1.02-.22,1.85-.4,2.4-.52,3.13-.67,3.63-.76,4.17-.43,1.07,.65,1.27,2.31,1.33,2.88,.07,.63,.01,1.18-.05,1.83-.04,.37-.13,1.03-.38,2.02-.22,.87-.6,2.09-1.25,3.54,.9-1.3,2.02-3.41,2.05-6.09,0-.74,.05-3.95-1.56-4.67-.5-.22-1.23-.03-2.67,.35-.75,.2-2.12,.57-4.04,1.09Z"/>
    <g>
      <g>
        <circle class="cls-5" cx="103.1" cy="89.91" r="89.91"/>
        <path class="cls-3" d="M73.9,174.93s29.33,13.48,58.66,0c0,0-29.33,10.94-58.66,0Z"/>
      </g>
      <path class="cls-1" d="M73.18,134.94s23.38,7.92,59.46,0c0,0-13.74,21.54-29.73,21.16,0,0-17.55,.49-29.73-21.16Z"/>
      <g>
        <path class="cls-6" d="M68.03,115.05s2.96-.52,6.19,0l-1.82-1.5s-3.83,.44-4.37,1.5Z"/>
        <path class="cls-6" d="M52.71,81.02s.85,3.83,10.21,7.34c0,0,5.74,2.66,8.08-9.15,0,0-8.62,.64-17.87-8.72,0,0-.27,6.86,12.5,12.13,0,0,.74,.64-.05,1.12,0,0-7.34,1.01-12.87-2.71Z"/>
        <ellipse class="cls-1" cx="74.55" cy="96.58" rx="11.81" ry="18.47"/>
        <path class="cls-6" d="M154.01,81.02s-.85,3.83-10.21,7.34c0,0-5.74,2.66-8.08-9.15,0,0,8.62,.64,17.87-8.72,0,0,.27,6.86-12.5,12.13,0,0-.74,.64,.05,1.12,0,0,7.34,1.01,12.87-2.71Z"/>
        <path class="cls-6" d="M139.19,115.05s-2.96-.52-6.19,0l1.82-1.5s3.83,.44,4.37,1.5Z"/>
        <ellipse class="cls-1" cx="132.18" cy="96.58" rx="11.81" ry="18.47"/>
        <ellipse class="cls-4" cx="74.8" cy="100.28" rx="9.26" ry="14.77"/>
        <ellipse class="cls-1" cx="69.23" cy="89.17" rx="2.35" ry="3.67"/>
        <ellipse class="cls-4" cx="132.11" cy="100.28" rx="9.4" ry="14.77"/>
        <ellipse class="cls-1" cx="127.19" cy="89.17" rx="2.35" ry="3.67"/>
        <ellipse class="cls-8" cx="63.63" cy="126.85" rx="10.92" ry="2.88"/>
        <ellipse class="cls-8" cx="145.82" cy="126.85" rx="10.92" ry="2.88"/>
      </g>
    </g>
  </g>
</svg>