<svg width="29" height="29" viewBox="0 0 29 29" fill="none" xmlns="http://www.w3.org/2000/svg">
<g filter="url(#filter0_d_1137_1561)">
<circle cx="14.5" cy="13.5" r="12.5" fill="url(#paint0_radial_1137_1561)"/>
</g>
<path d="M16.7792 8.86893C15.5081 9.74341 15.2104 11.4304 15.9286 12.5189C16.7245 13.7254 18.6585 14.0298 19.941 12.8742C19.9862 13.5227 20.0296 15.3982 18.7855 16.8313C16.7513 19.1741 12.2038 19.2642 10.1654 16.6062C9.00684 15.0958 8.70722 12.7606 9.77151 10.9307C11.0569 8.72046 14.0495 7.7333 16.7792 8.86893Z" fill="white"/>
<path d="M11.4646 9.2146C11.1077 9.42914 9.72376 10.318 9.21811 12.0927C8.46394 14.7387 10.3731 16.8598 10.4808 16.9754C10.9084 17.3737 11.9435 18.2275 13.5207 18.5127C15.7591 18.9175 17.4763 17.8849 17.8939 17.6173C17.4111 17.8833 16.566 18.2652 15.4616 18.3383C15.4449 18.3395 15.2348 18.3546 15.0369 18.3546C12.8827 18.3544 11.4047 17.0282 11.4047 17.0282C9.98709 15.7564 9.43489 13.7079 9.86271 11.9072C10.2022 10.4773 11.071 9.57713 11.4646 9.2146Z" fill="#C6C2C2"/>
<path d="M10.9413 11.7096C11.2463 11.7096 11.4935 11.4608 11.4935 11.1539C11.4935 10.8471 11.2463 10.5983 10.9413 10.5983C10.6364 10.5983 10.3891 10.8471 10.3891 11.1539C10.3891 11.4608 10.6364 11.7096 10.9413 11.7096Z" fill="#C6C2C2"/>
<path d="M11.8927 10.4128C12.0712 10.4128 12.216 10.2671 12.216 10.0875C12.216 9.90784 12.0712 9.76221 11.8927 9.76221C11.7142 9.76221 11.5695 9.90784 11.5695 10.0875C11.5695 10.2671 11.7142 10.4128 11.8927 10.4128Z" fill="#C6C2C2"/>
<path d="M12.1761 11.5696C12.4341 11.5696 12.6433 11.3591 12.6433 11.0994C12.6433 10.8398 12.4341 10.6293 12.1761 10.6293C11.918 10.6293 11.7089 10.8398 11.7089 11.0994C11.7089 11.3591 11.918 11.5696 12.1761 11.5696Z" fill="#C6C2C2"/>
<path d="M14.7729 17.603C14.9594 17.3775 14.8642 16.9884 14.5603 16.7338C14.2563 16.4793 13.8588 16.4557 13.6723 16.6812C13.4858 16.9067 13.581 17.2958 13.8849 17.5504C14.1889 17.8049 14.5864 17.8285 14.7729 17.603Z" fill="#C6C2C2"/>
<path d="M15.3854 18.155C15.564 18.155 15.7087 18.0093 15.7087 17.8297C15.7087 17.65 15.564 17.5044 15.3854 17.5044C15.2069 17.5044 15.0622 17.65 15.0622 17.8297C15.0622 18.0093 15.2069 18.155 15.3854 18.155Z" fill="#C6C2C2"/>
<path d="M17.1719 10.4904L17.1876 9.99621C17.1805 9.95297 17.2005 9.90997 17.2373 9.88979C17.2784 9.86696 17.3316 9.87705 17.3634 9.91477C17.4655 10.0387 17.5675 10.1627 17.6697 10.2864L18.0707 10.1867C18.1228 10.1665 18.1784 10.1834 18.2037 10.223C18.2295 10.2634 18.2126 10.3102 18.2104 10.316C18.1187 10.4505 18.0273 10.585 17.9356 10.7196L18.224 11.0619C18.2264 11.0684 18.251 11.1393 18.2083 11.2003C18.1724 11.2515 18.1042 11.2741 18.0392 11.2546C17.9146 11.1986 17.79 11.1429 17.6654 11.0869L17.3409 11.4768C17.3197 11.5148 17.275 11.529 17.2418 11.5131C17.2163 11.5009 17.2003 11.472 17.2013 11.4405C17.202 11.2652 17.2027 11.09 17.2034 10.9147L16.7281 10.7921C16.6837 10.778 16.6553 10.7369 16.6581 10.6946C16.6619 10.6434 16.7102 10.6187 16.7121 10.6175C16.8654 10.5752 17.0184 10.5329 17.1717 10.4906L17.1719 10.4904Z" fill="#C6C2C2"/>
<path d="M17.1719 10.4903C17.1762 10.4 17.1786 10.3267 17.18 10.278C17.1865 10.0639 17.1838 9.96733 17.2461 9.93009C17.2504 9.92745 17.2655 9.91904 17.2865 9.91688C17.3617 9.90943 17.4154 9.9928 17.5596 10.1612C17.5875 10.1939 17.6248 10.2366 17.6699 10.2864C17.6529 10.2604 17.4455 9.94571 17.3359 9.89141C17.3209 9.88397 17.287 9.86715 17.2526 9.87868C17.2182 9.89021 17.201 9.92409 17.1936 9.9385C17.1377 10.0481 17.1697 10.4603 17.1721 10.4903H17.1719Z" fill="#C6C2C2"/>
<path d="M17.9356 10.7193C17.9342 10.7205 17.9471 10.7366 18.017 10.8228C18.1744 11.0162 18.2114 11.06 18.2037 11.12C18.2028 11.1277 18.1956 11.1798 18.1541 11.2128C18.1414 11.2229 18.119 11.2363 18.0777 11.2399C17.9991 11.2469 17.9511 11.2092 17.8184 11.1484C17.7434 11.114 17.6656 11.083 17.6639 11.0864C17.6625 11.0895 17.7291 11.1232 17.8115 11.165C17.97 11.2452 18.0056 11.2584 18.055 11.2599C18.0922 11.2611 18.1469 11.262 18.188 11.2231C18.2314 11.182 18.2333 11.1217 18.2333 11.1171C18.2338 11.0931 18.2281 11.0744 18.2235 11.0617C18.1961 10.9848 18.1366 10.9276 18.0937 10.8846C17.9881 10.7791 17.938 10.7169 17.9354 10.7193H17.9356Z" fill="#C6C2C2"/>
<path d="M17.6697 10.2859C17.7473 10.2751 17.8081 10.2602 17.849 10.2486C17.859 10.2458 17.9175 10.2292 17.992 10.2097C18.0579 10.1927 18.0846 10.1867 18.1173 10.197C18.1271 10.2001 18.1736 10.2148 18.1896 10.251C18.2145 10.3075 18.1476 10.3753 18.055 10.516C18.0161 10.5751 17.9755 10.6429 17.9354 10.7193C17.9776 10.6542 18.0154 10.6042 18.0414 10.571C18.1309 10.4579 18.2013 10.3952 18.2145 10.3008C18.2204 10.2573 18.2109 10.2333 18.2006 10.2189C18.1899 10.2037 18.1715 10.1886 18.1335 10.1795C18.0555 10.1605 17.9819 10.1883 17.9318 10.2061C17.87 10.228 17.7821 10.2568 17.6694 10.2859H17.6697Z" fill="#C6C2C2"/>
<path d="M17.2034 10.9141C17.2039 10.9122 17.1311 10.8882 17.0461 10.8673C16.9551 10.8449 16.9145 10.8421 16.8312 10.8137C16.7579 10.7887 16.7254 10.7695 16.7109 10.7356C16.708 10.7287 16.6966 10.7001 16.7059 10.6698C16.7219 10.6184 16.8188 10.5905 17.0122 10.5367C17.1299 10.504 17.1726 10.4923 17.1721 10.4899C17.1716 10.4882 17.1514 10.4913 17.006 10.5199C16.9305 10.5346 16.8026 10.5605 16.7126 10.617C16.6963 10.627 16.672 10.6441 16.6624 10.6739C16.6519 10.707 16.6653 10.738 16.6679 10.7443C16.6951 10.8077 16.7894 10.8149 16.9971 10.863C17.1239 10.892 17.2032 10.9158 17.2036 10.9139L17.2034 10.9141Z" fill="#C6C2C2"/>
<path d="M17.6651 11.0867C17.6608 11.0831 17.5925 11.158 17.545 11.2142C17.5061 11.2601 17.4918 11.2808 17.4409 11.3399C17.3736 11.418 17.3474 11.4415 17.3092 11.4461C17.3006 11.447 17.2662 11.4514 17.2392 11.4317C17.1946 11.3992 17.2027 11.3252 17.2072 11.2275C17.2153 11.0456 17.2048 10.9142 17.2034 10.9142C17.2022 10.9142 17.2036 11.0026 17.1919 11.1225C17.1843 11.1984 17.1681 11.3224 17.1881 11.429C17.1922 11.4504 17.2008 11.4869 17.2306 11.5064C17.2538 11.5215 17.2798 11.5196 17.2884 11.5189C17.3638 11.5133 17.4252 11.4194 17.5386 11.2633C17.6274 11.141 17.6689 11.0893 17.6654 11.0864L17.6651 11.0867Z" fill="#C6C2C2"/>
<path d="M16.7618 11.7634L17.0091 11.719C17.0299 11.7108 17.0533 11.7163 17.0673 11.7327C17.0831 11.7509 17.0836 11.7788 17.0683 11.7987C17.0174 11.8631 16.9668 11.9277 16.916 11.9921L17.0079 12.1833C17.0234 12.2074 17.021 12.2372 17.0038 12.254C16.9864 12.2713 16.9613 12.2677 16.9585 12.2672C16.8818 12.2352 16.8054 12.2035 16.7288 12.1716L16.5891 12.353C16.586 12.3549 16.5536 12.3746 16.5187 12.3597C16.4894 12.347 16.471 12.315 16.4738 12.2804C16.4884 12.2117 16.503 12.1432 16.5175 12.0745L16.2895 11.9525C16.2685 11.9457 16.2566 11.9248 16.2611 11.9063C16.2645 11.8922 16.2771 11.8811 16.2929 11.8782C16.38 11.86 16.4672 11.842 16.5545 11.8237L16.565 11.5717C16.5674 11.5479 16.5848 11.5292 16.6061 11.5263C16.6319 11.5227 16.6493 11.5443 16.65 11.5453C16.6873 11.6178 16.7245 11.6904 16.7618 11.7632V11.7634Z" fill="#C6C2C2"/>
<path d="M16.7617 11.7633C16.8071 11.7559 16.8436 11.7494 16.8682 11.7449C16.9752 11.7254 17.0229 11.7139 17.048 11.7412C17.0497 11.7432 17.0556 11.7499 17.0587 11.7602C17.0704 11.7972 17.0346 11.833 16.9661 11.9234C16.953 11.9409 16.9355 11.9642 16.9155 11.9921C16.9267 11.9808 17.0611 11.8431 17.0764 11.7821C17.0785 11.7737 17.0833 11.7549 17.074 11.7388C17.0647 11.7227 17.0461 11.7177 17.038 11.7155C16.9776 11.699 16.7761 11.7588 16.7615 11.7631L16.7617 11.7633Z" fill="#C6C2C2"/>
<path d="M16.7288 12.1718C16.7288 12.1718 16.7214 12.1794 16.6858 12.2237C16.6063 12.3231 16.5887 12.3464 16.5579 12.3491C16.554 12.3493 16.5273 12.3512 16.5065 12.3339C16.5003 12.3286 16.491 12.3188 16.485 12.2984C16.4734 12.2597 16.487 12.2313 16.5032 12.1583C16.5123 12.117 16.5194 12.0745 16.5178 12.074C16.5161 12.0735 16.5063 12.1107 16.4944 12.1566C16.4712 12.245 16.4686 12.264 16.4729 12.2892C16.4762 12.3082 16.4815 12.3358 16.5053 12.3524C16.5304 12.37 16.5605 12.3644 16.5626 12.3642C16.5746 12.3618 16.5834 12.357 16.5891 12.3534C16.6245 12.3315 16.6467 12.2955 16.6634 12.2693C16.7047 12.2052 16.7302 12.1732 16.7288 12.1722V12.1718Z" fill="#C6C2C2"/>
<path d="M16.916 11.9923C16.9296 12.0303 16.9434 12.0593 16.9535 12.0786C16.9559 12.0834 16.9704 12.111 16.9878 12.1463C17.0034 12.1775 17.0091 12.1905 17.0074 12.208C17.0069 12.2133 17.0046 12.2383 16.9881 12.2501C16.9625 12.2686 16.922 12.2422 16.8422 12.2104C16.8088 12.197 16.7708 12.1838 16.7286 12.1718C16.7653 12.1862 16.7942 12.1999 16.8133 12.2095C16.879 12.2426 16.9177 12.2715 16.9659 12.2681C16.9881 12.2667 16.9991 12.2592 17.0053 12.2525C17.0117 12.2455 17.0172 12.2345 17.0177 12.2145C17.0189 12.1732 16.9972 12.1391 16.9831 12.1158C16.9656 12.087 16.942 12.0459 16.9157 11.9921L16.916 11.9923Z" fill="#C6C2C2"/>
<path d="M16.5545 11.8242C16.5545 11.8242 16.5598 11.7851 16.5612 11.7401C16.5626 11.6921 16.5598 11.6712 16.565 11.6263C16.5696 11.5866 16.5758 11.5684 16.591 11.5573C16.5941 11.5551 16.6073 11.5463 16.6233 11.5479C16.6505 11.5506 16.6746 11.5965 16.7216 11.688C16.7503 11.7437 16.7605 11.7642 16.7617 11.7634C16.7625 11.763 16.7589 11.7531 16.7293 11.683C16.714 11.6464 16.6875 11.5849 16.65 11.5455C16.6433 11.5386 16.6321 11.528 16.6163 11.5263C16.5989 11.5246 16.5848 11.5345 16.582 11.5366C16.5533 11.5571 16.5598 11.6051 16.5579 11.7149C16.5567 11.7817 16.5533 11.8242 16.5545 11.8242Z" fill="#C6C2C2"/>
<path d="M16.5178 12.0747C16.5189 12.0721 16.4745 12.0459 16.4416 12.0279C16.4146 12.0132 16.4029 12.0082 16.3681 11.9887C16.3222 11.963 16.3077 11.9524 16.3012 11.9337C16.2998 11.9294 16.2941 11.9125 16.301 11.8969C16.3124 11.871 16.3499 11.8674 16.3991 11.8592C16.4903 11.8441 16.5545 11.8249 16.5543 11.8241C16.5543 11.8234 16.5104 11.8337 16.4497 11.8405C16.4113 11.8448 16.3478 11.8496 16.2969 11.871C16.2867 11.8753 16.2695 11.8835 16.263 11.9005C16.258 11.9137 16.2616 11.9267 16.263 11.931C16.2738 11.9683 16.327 11.9894 16.4165 12.0298C16.4867 12.0615 16.5168 12.0769 16.5178 12.0749V12.0747Z" fill="#C6C2C2"/>
<path d="M18.2097 12.1819L18.4291 12.4065C18.452 12.4221 18.4628 12.4505 18.4561 12.4764C18.4485 12.5055 18.4205 12.5257 18.3892 12.524C18.2875 12.5168 18.1861 12.5098 18.0844 12.5026L17.9538 12.7323C17.9402 12.7652 17.908 12.7837 17.8788 12.7779C17.849 12.7722 17.8349 12.7436 17.8332 12.7402C17.812 12.6386 17.7905 12.537 17.7692 12.4353L17.4859 12.4185C17.4818 12.4168 17.4386 12.3969 17.4295 12.3505C17.4219 12.3114 17.4415 12.2698 17.4789 12.2482C17.5594 12.215 17.6398 12.1816 17.7201 12.1485L17.6843 11.8266C17.6761 11.8001 17.6893 11.773 17.7112 11.7646C17.7279 11.7581 17.7482 11.7634 17.7623 11.7776C17.8423 11.8549 17.9223 11.9323 18.0023 12.0099L18.2673 11.8434C18.2933 11.829 18.3246 11.834 18.3427 11.854C18.3644 11.8782 18.3546 11.9114 18.3542 11.9128C18.3062 12.0024 18.2582 12.092 18.2102 12.1816L18.2097 12.1819Z" fill="#C6C2C2"/>
<path d="M18.2097 12.1819C18.2491 12.2234 18.2816 12.2568 18.3035 12.2789C18.3988 12.376 18.4441 12.4173 18.4339 12.4625C18.4332 12.4656 18.4305 12.4762 18.4222 12.487C18.3926 12.5252 18.3307 12.5134 18.1904 12.5062C18.1631 12.5048 18.1271 12.5033 18.0846 12.5024C18.1039 12.506 18.3393 12.548 18.4124 12.5211C18.4224 12.5175 18.4449 12.5091 18.4549 12.4882C18.4647 12.4673 18.4568 12.4442 18.4534 12.4344C18.4277 12.3604 18.225 12.1939 18.2102 12.1819H18.2097Z" fill="#C6C2C2"/>
<path d="M17.769 12.4353C17.769 12.4341 17.7561 12.4329 17.6857 12.4276C17.5281 12.4156 17.4918 12.4135 17.4675 12.3837C17.4644 12.3798 17.4436 12.3536 17.4467 12.32C17.4477 12.3097 17.4512 12.2933 17.4677 12.2727C17.499 12.2333 17.5374 12.2275 17.6236 12.1927C17.6723 12.173 17.7208 12.1504 17.7198 12.1482C17.7191 12.1463 17.6742 12.1622 17.6191 12.1821C17.5126 12.2203 17.4911 12.2311 17.4687 12.2532C17.4517 12.27 17.4274 12.295 17.4271 12.3311C17.4269 12.3693 17.4536 12.3966 17.4555 12.3986C17.4663 12.4094 17.4775 12.4149 17.4854 12.4185C17.5326 12.4394 17.5849 12.4372 17.6236 12.436C17.7181 12.4334 17.7688 12.4377 17.769 12.4353Z" fill="#C6C2C2"/>
<path d="M18.0844 12.5028C18.0553 12.5434 18.0352 12.5782 18.0226 12.6023C18.0194 12.6083 18.0013 12.6426 17.9774 12.6856C17.9564 12.7236 17.9471 12.7387 17.9283 12.7493C17.9225 12.7524 17.8953 12.7676 17.8717 12.7589C17.8349 12.7455 17.8332 12.6849 17.8096 12.5802C17.7996 12.5362 17.7864 12.4877 17.769 12.4353C17.7802 12.4834 17.7867 12.523 17.7903 12.5497C17.8027 12.641 17.8005 12.701 17.838 12.7488C17.8552 12.7707 17.8705 12.7767 17.8817 12.7784C17.8934 12.7801 17.9084 12.7784 17.9292 12.7647C17.9722 12.7368 17.9918 12.6904 18.0056 12.6594C18.0228 12.6213 18.0481 12.5677 18.0844 12.5026V12.5028Z" fill="#C6C2C2"/>
<path d="M18.0015 12.0103C18.0015 12.0103 18.0452 11.9882 18.0922 11.958C18.1424 11.9255 18.1617 11.908 18.2111 11.8818C18.2548 11.8587 18.278 11.8523 18.2997 11.8602C18.3042 11.8619 18.3224 11.8691 18.3319 11.8868C18.3484 11.9169 18.3186 11.9741 18.2582 12.0872C18.2214 12.1562 18.2078 12.1811 18.2092 12.1819C18.2102 12.1823 18.2176 12.1715 18.2687 12.0915C18.2952 12.05 18.3396 11.9793 18.3532 11.9128C18.3556 11.9008 18.3587 11.882 18.3491 11.8645C18.3386 11.845 18.3186 11.8376 18.3143 11.8362C18.2732 11.821 18.2286 11.8614 18.1152 11.9366C18.0462 11.9825 18.0006 12.0089 18.001 12.0099L18.0015 12.0103Z" fill="#C6C2C2"/>
<path d="M17.7198 12.1487C17.7234 12.1482 17.7189 12.0836 17.7141 12.037C17.71 11.9988 17.7069 11.9829 17.7024 11.9334C17.6962 11.8679 17.6969 11.8455 17.7117 11.8256C17.715 11.821 17.7282 11.8032 17.7489 11.7994C17.7833 11.7929 17.8136 11.8292 17.8566 11.8744C17.9364 11.9582 18.0011 12.011 18.0018 12.0103C18.0022 12.0098 17.9612 11.9716 17.9115 11.9135C17.88 11.8768 17.8306 11.8145 17.7728 11.7771C17.7611 11.7696 17.7408 11.7574 17.7186 11.7626C17.7014 11.7667 17.6909 11.7797 17.6876 11.7838C17.657 11.8213 17.673 11.8909 17.6948 12.0122C17.7117 12.1071 17.7172 12.1492 17.7201 12.1487H17.7198Z" fill="#C6C2C2"/>
<defs>
<filter id="filter0_d_1137_1561" x="0" y="0" width="29" height="29" filterUnits="userSpaceOnUse" color-interpolation-filters="sRGB">
<feFlood flood-opacity="0" result="BackgroundImageFix"/>
<feColorMatrix in="SourceAlpha" type="matrix" values="0 0 0 0 0 0 0 0 0 0 0 0 0 0 0 0 0 0 127 0" result="hardAlpha"/>
<feOffset dy="1"/>
<feGaussianBlur stdDeviation="1"/>
<feComposite in2="hardAlpha" operator="out"/>
<feColorMatrix type="matrix" values="0 0 0 0 0 0 0 0 0 0 0 0 0 0 0 0 0 0 0.25 0"/>
<feBlend mode="normal" in2="BackgroundImageFix" result="effect1_dropShadow_1137_1561"/>
<feBlend mode="normal" in="SourceGraphic" in2="effect1_dropShadow_1137_1561" result="shape"/>
</filter>
<radialGradient id="paint0_radial_1137_1561" cx="0" cy="0" r="1" gradientUnits="userSpaceOnUse" gradientTransform="translate(13.4437 17.9014) rotate(-54.5079) scale(16.4597)">
<stop offset="0.927083" stop-color="#464646"/>
<stop offset="1" stop-color="#352929"/>
</radialGradient>
</defs>
</svg>
