<svg width="29" height="29" viewBox="0 0 29 29" fill="none" xmlns="http://www.w3.org/2000/svg">
<g filter="url(#filter0_d_1137_7119)">
<circle cx="14.5" cy="13.5" r="12.5" fill="url(#paint0_radial_1137_7119)"/>
</g>
<path d="M14.7404 9.98257C14.8051 9.78842 14.9427 9.46809 15.2363 9.2057C15.8227 8.6817 16.6071 8.76925 16.7673 8.78727C17.4328 8.86169 17.5974 9.18922 18.1396 9.12176C18.4922 9.07799 18.7637 8.89722 18.9362 8.75354C18.9734 8.94306 19.0339 9.39007 18.825 9.85846C18.4073 10.7952 17.3227 10.8975 17.2745 10.9011C17.0508 10.694 16.6477 10.3737 16.0647 10.1685C15.5129 9.97433 15.033 9.96506 14.7404 9.98257Z" fill="#C6C2C2"/>
<path d="M14.7404 9.98258C14.8671 9.77942 15.1125 9.45369 15.5249 9.22606C16.0755 8.92221 16.613 8.96444 16.803 8.98916C17.272 9.05045 17.3688 9.23224 17.8615 9.27473C18.2139 9.30511 18.5082 9.24177 18.7002 9.18409C18.7167 9.36099 18.709 9.57728 18.6337 9.80388C18.35 10.6572 17.3638 10.882 17.2745 10.9008C17.3341 10.8975 18.3394 10.8243 18.7843 9.94293C19.0435 9.42974 18.9694 8.92608 18.9362 8.7533C18.7996 8.872 18.5833 9.02521 18.2943 9.08701C17.8907 9.17327 17.7143 8.96625 17.0614 8.84316C16.6516 8.76591 16.2987 8.69948 15.8771 8.83132C15.7354 8.87561 15.3246 9.01054 15.0138 9.42613C14.857 9.63574 14.78 9.84431 14.7404 9.98233V9.98258Z" fill="#464646"/>
<path d="M16.7717 10.5838C17.0658 10.8161 17.5541 11.2662 17.92 11.9962C18.1952 12.5449 18.301 13.0514 18.3453 13.3944C18.5633 13.4791 19.1998 13.6918 19.9538 13.4554C20.483 13.2896 20.8302 12.9778 20.9998 12.8019C20.8142 12.7628 20.546 12.6806 20.2799 12.4875C19.8047 12.1425 19.8227 11.7959 19.3831 11.3169C19.2825 11.2072 18.8301 10.7337 18.1093 10.5493C17.5287 10.4007 17.0336 10.5058 16.7715 10.5841L16.7717 10.5838Z" fill="#C6C2C2"/>
<path d="M16.7717 10.5838C17.0085 10.5511 17.3766 10.5307 17.8056 10.6363C18.033 10.6922 18.6143 10.8663 19.1225 11.3717C19.4619 11.7093 19.4473 11.8751 19.8921 12.3402C20.1401 12.5997 20.3705 12.7841 20.5277 12.9002C20.3796 13.0161 20.1933 13.1376 19.9661 13.237C19.2891 13.5339 18.6596 13.458 18.3453 13.3941C18.5599 13.4791 19.0597 13.6423 19.6848 13.5223C20.3941 13.3864 20.84 12.9677 21 12.8016C20.7566 12.7578 20.5814 12.6726 20.4731 12.609C20.0843 12.3803 19.8569 12.0165 19.769 11.8756C19.6679 11.7137 19.6393 11.6274 19.5062 11.4608C19.3659 11.2855 19.2337 11.1763 19.1658 11.1209C18.9106 10.9129 18.3694 10.4715 17.5967 10.4473C17.416 10.4417 17.1234 10.4558 16.772 10.5833L16.7717 10.5838Z" fill="#464646"/>
<path d="M18.2641 12.5846C18.3246 12.9523 18.3758 13.5278 18.2577 14.2127C18.1447 14.8673 17.9205 15.3686 17.7485 15.6872C17.8363 15.8834 18.1366 16.4898 18.8242 16.8575C19.4038 17.1673 19.943 17.1389 20.1608 17.115C20.003 16.9311 19.802 16.6409 19.7249 16.2495C19.6179 15.7052 19.8566 15.502 19.8266 14.8817C19.7916 14.1587 19.4289 13.6336 19.3093 13.4652C18.9477 12.9559 18.5057 12.7005 18.2643 12.5849L18.2641 12.5846Z" fill="#C6C2C2"/>
<path d="M18.2641 12.5846C18.5584 12.7808 19.1306 13.2291 19.4212 14.0083C19.4978 14.2138 19.6194 14.5398 19.6127 14.9729C19.6051 15.4683 19.4355 15.7096 19.4919 16.2011C19.5239 16.4798 19.6125 16.7002 19.6833 16.8441C19.4835 16.8521 19.1643 16.8361 18.8119 16.686C18.1673 16.4115 17.8494 15.8757 17.7485 15.6869C17.8319 15.8947 18.0566 16.3734 18.5616 16.7324C19.2517 17.2226 19.976 17.1413 20.1608 17.1147C20.0038 16.9291 19.8059 16.6391 19.7249 16.2493C19.6093 15.6928 19.8512 15.5082 19.8266 14.8815C19.7921 14.0001 19.2751 13.3769 19.1621 13.2466C18.8377 12.8725 18.4792 12.6796 18.2641 12.5844V12.5846Z" fill="#464646"/>
<path d="M18.1265 14.9584C18.0061 15.256 17.7396 15.8045 17.1952 16.2925C16.5878 16.8371 15.9546 17.0191 15.6475 17.0853C15.5879 17.3405 15.4651 18.0128 15.7395 18.784C15.9718 19.4368 16.3713 19.83 16.5677 19.9999C16.5785 19.8248 16.6152 19.5531 16.7508 19.2653C17.0473 18.6357 17.5093 18.5806 17.933 17.9631C18.2463 17.5071 18.3303 17.0474 18.3689 16.8232C18.5131 15.9855 18.2707 15.2911 18.1265 14.9584Z" fill="#C6C2C2"/>
<path d="M15.6475 17.0853C15.613 17.3799 15.5837 17.9775 15.8522 18.6383C16.0169 19.0433 16.2374 19.3335 16.4035 19.5179C16.4102 19.343 16.4461 19.0982 16.5942 18.8739C16.7264 18.6735 16.8682 18.6112 17.1576 18.3751C17.3773 18.1959 17.5959 17.9871 17.7224 17.839C18.1029 17.3938 18.1937 16.8649 18.2456 16.5616C18.3672 15.8519 18.2254 15.2664 18.1262 14.9581C18.3303 15.4018 18.3834 15.7795 18.3984 16.0131C18.4486 16.7936 18.1892 17.7826 17.5452 18.3988C17.2676 18.6643 17.0281 18.7557 16.8106 19.1491C16.6353 19.4661 16.5837 19.7813 16.5674 19.9997C16.3745 19.832 15.8961 19.3711 15.6768 18.5852C15.4888 17.9119 15.5867 17.3431 15.6472 17.0851L15.6475 17.0853Z" fill="#464646"/>
<path d="M16.434 16.7872C16.1491 16.9314 15.5188 17.2 14.6961 17.1351C14.0331 17.0828 13.5379 16.8372 13.2719 16.6788C13.0666 16.8503 12.5769 17.3069 12.3303 18.0935C12.1184 18.7689 12.192 19.3486 12.2434 19.62C12.3706 19.4513 12.5926 19.2069 12.9293 19.0723C13.4614 18.8593 13.7623 19.1271 14.3968 19.0205C15.0736 18.9067 15.5257 18.4682 15.6645 18.3299C16.2344 17.7626 16.3875 17.0697 16.4338 16.7872H16.434Z" fill="#C6C2C2"/>
<path d="M16.434 16.7872C16.3536 17.0064 16.2212 17.3084 16.0036 17.6321C15.8429 17.871 15.6524 18.1545 15.314 18.3987C15.1883 18.4893 14.7539 18.7947 14.1568 18.8227C13.577 18.85 13.3688 18.5913 12.9399 18.738C12.6687 18.831 12.4873 19.0249 12.3832 19.1596C12.3635 18.8701 12.364 18.3232 12.6084 17.7098C12.8072 17.2106 13.0865 16.8714 13.2719 16.6788C13.0764 16.8331 12.5929 17.2572 12.3354 18.0106C12.0861 18.7401 12.1888 19.3689 12.2431 19.62C12.3787 19.4461 12.601 19.2129 12.929 19.0723C13.4936 18.8302 13.7589 19.1248 14.3965 19.0205C15.4868 18.8418 16.1003 17.7523 16.135 17.6885C16.3262 17.3373 16.4011 17.0059 16.4338 16.7875L16.434 16.7872Z" fill="#464646"/>
<path d="M11.7652 14.8606C11.8991 15.1753 12.1637 15.6872 12.6595 16.1646C13.2519 16.7344 13.8748 16.9667 14.207 17.0638C13.9924 17.2304 13.4599 17.596 12.6957 17.6473C12.4673 17.6624 11.5415 17.7245 10.9016 17.1222C10.595 16.8336 10.5564 16.583 10.2032 16.41C9.85717 16.2406 9.49417 16.2851 9.24561 16.3469C9.37727 16.1085 9.60762 15.7655 9.98638 15.4652C10.7038 14.8969 11.4775 14.8593 11.765 14.8606H11.7652Z" fill="#C6C2C2"/>
<path d="M11.7652 14.8606C11.7861 14.8606 11.0734 14.9242 10.3516 15.43C10.0447 15.645 9.82393 15.8801 9.67577 16.0619C9.86946 16.0763 10.1535 16.1262 10.4316 16.3065C10.7941 16.5418 10.8536 16.8086 11.1873 17.0782C11.5139 17.3421 11.8516 17.4052 12.1553 17.4619C13.1163 17.6414 13.9179 17.2309 14.2075 17.0635C14.0082 17.2376 13.6708 17.4812 13.2005 17.6071C12.63 17.7598 12.1619 17.6596 11.9138 17.6035C11.6887 17.5525 11.4371 17.4959 11.1566 17.3197C10.6275 16.9878 10.6235 16.6253 10.2037 16.4095C10.0196 16.315 9.71934 16.23 9.24608 16.3464C9.38316 16.1044 9.64993 15.7083 10.1114 15.381C10.7943 14.8967 11.4864 14.8591 11.7654 14.8599L11.7652 14.8606Z" fill="#464646"/>
<path d="M14.9833 17.1534C16.8773 17.1534 18.4127 15.5469 18.4127 13.5651C18.4127 11.5834 16.8773 9.97693 14.9833 9.97693C13.0892 9.97693 11.5538 11.5834 11.5538 13.5651C11.5538 15.5469 13.0892 17.1534 14.9833 17.1534Z" fill="#464646"/>
<path d="M12.6505 10.9407C12.6522 10.0552 12.9783 9.54484 13.1269 9.34554C13.5598 8.76488 14.2307 8.48601 14.465 8.38868C15.0098 8.16208 15.297 8.19839 15.5845 7.88733C15.8355 7.61567 15.9157 7.26445 15.9431 7C16.0797 7.24102 16.3282 7.75421 16.3506 8.45383C16.3769 9.27163 16.0792 9.87263 15.9431 10.1136C15.6495 10.0256 15.2274 9.94164 14.7251 9.98438C13.6491 10.0758 12.9207 10.6873 12.6505 10.9407Z" fill="#C6C2C2"/>
<path d="M12.6504 10.9407C12.6891 10.7334 12.7627 10.4427 12.9135 10.1227C13.0144 9.90817 13.372 9.17276 14.1256 8.74068C14.684 8.42035 14.9345 8.5679 15.4521 8.1747C15.7299 7.96355 15.9128 7.72717 16.0225 7.56289C16.0875 7.747 16.1454 7.96072 16.1813 8.20122C16.3056 9.03422 16.0964 9.72843 15.9428 10.1139C16.0792 9.87289 16.3767 9.27189 16.3504 8.45408C16.328 7.75421 16.0794 7.24102 15.9428 7C15.9101 7.22479 15.833 7.50701 15.6411 7.75858C15.1715 8.374 14.5115 8.1541 13.659 8.81793C13.4906 8.94899 13.1946 9.18434 12.963 9.602C12.6701 10.1301 12.6433 10.6559 12.6502 10.9407H12.6504Z" fill="#464646"/>
<path d="M12.2643 15.751C12.064 15.4523 11.7285 14.8655 11.6168 14.0448C11.5329 13.4271 11.608 12.9137 11.681 12.5897C11.5605 12.3969 11.2991 12.0395 10.8413 11.8072C9.97974 11.37 9.13708 11.7374 9 11.8C9.20304 11.9645 9.47276 12.2328 9.6411 12.635C9.8557 13.1472 9.69426 13.371 9.85053 13.9081C10.0939 14.7457 10.7778 15.2064 10.9235 15.3045C11.4605 15.6663 11.9899 15.7363 12.2646 15.7513L12.2643 15.751Z" fill="#C6C2C2"/>
<path d="M12.2643 15.7511C12.0544 15.7212 11.7477 15.6529 11.4106 15.483C11.213 15.3834 10.7454 15.1403 10.39 14.6093C10.0814 14.1484 9.99032 13.6695 9.95144 13.4532C9.87933 13.053 9.91624 12.8334 9.77424 12.4206C9.6854 12.1618 9.57342 11.9646 9.49294 11.8389C9.66472 11.7854 9.88203 11.7431 10.1318 11.7542C10.9811 11.7918 11.5378 12.4178 11.681 12.5898C11.5688 12.4108 11.2659 11.9818 10.7055 11.7449C9.88056 11.3958 9.13708 11.7341 9 11.7998C9.22051 11.9749 9.50771 12.2604 9.66251 12.6881C9.8087 13.0924 9.71124 13.2778 9.80402 13.7119C9.96989 14.4888 10.5138 14.9786 10.66 15.1068C11.2998 15.6679 12.0111 15.7387 12.2643 15.7513V15.7511Z" fill="#464646"/>
<path d="M11.5715 13.2149C11.3983 13.0576 11.1335 12.7733 10.9691 12.3425C10.6597 11.5335 10.9112 10.751 10.975 10.5617C11.2162 9.84483 11.5873 9.71839 11.6916 9.00848C11.7391 8.68455 11.7061 8.40928 11.6732 8.23315C11.9033 8.32791 12.2741 8.5182 12.618 8.89209C13.1569 9.47866 13.2925 10.1512 13.3321 10.4193C13.055 10.6032 12.6591 10.9163 12.3029 11.4122C11.7942 12.1203 11.6313 12.8333 11.5715 13.2149Z" fill="#C6C2C2"/>
<path d="M11.5716 13.2149C11.2772 12.9312 11.1276 12.6438 11.0474 12.4363C10.658 11.4276 11.1655 10.3807 11.2137 10.2849C11.3764 9.9612 11.547 9.81211 11.7291 9.32235C11.8351 9.0373 11.8898 8.78908 11.9196 8.62016C12.1113 8.72213 12.3517 8.87894 12.5882 9.11816C13.0578 9.59298 13.251 10.1296 13.3319 10.4195C13.2975 10.1718 13.1867 9.611 12.7664 9.06923C12.3667 8.55398 11.8954 8.32481 11.6727 8.2334C11.715 8.45819 11.7485 8.79294 11.6611 9.16914C11.5445 9.67074 11.3225 9.774 11.0971 10.2383C11.0609 10.3129 10.5451 11.4143 10.9846 12.4334C11.1461 12.8076 11.3885 13.0599 11.5713 13.2152L11.5716 13.2149Z" fill="#464646"/>
<defs>
<filter id="filter0_d_1137_7119" x="0" y="0" width="29" height="29" filterUnits="userSpaceOnUse" color-interpolation-filters="sRGB">
<feFlood flood-opacity="0" result="BackgroundImageFix"/>
<feColorMatrix in="SourceAlpha" type="matrix" values="0 0 0 0 0 0 0 0 0 0 0 0 0 0 0 0 0 0 127 0" result="hardAlpha"/>
<feOffset dy="1"/>
<feGaussianBlur stdDeviation="1"/>
<feComposite in2="hardAlpha" operator="out"/>
<feColorMatrix type="matrix" values="0 0 0 0 1 0 0 0 0 1 0 0 0 0 1 0 0 0 0.25 0"/>
<feBlend mode="normal" in2="BackgroundImageFix" result="effect1_dropShadow_1137_7119"/>
<feBlend mode="normal" in="SourceGraphic" in2="effect1_dropShadow_1137_7119" result="shape"/>
</filter>
<radialGradient id="paint0_radial_1137_7119" cx="0" cy="0" r="1" gradientUnits="userSpaceOnUse" gradientTransform="translate(13.4437 17.9014) rotate(-54.5079) scale(16.4597)">
<stop offset="0.921875" stop-color="#E9E9E9"/>
<stop offset="1" stop-color="white"/>
</radialGradient>
</defs>
</svg>
