<svg width="25" height="25" viewBox="0 0 25 25" fill="none" xmlns="http://www.w3.org/2000/svg">
<path fill-rule="evenodd" clip-rule="evenodd" d="M18.768 0.5C18.7422 1.6891 18.288 2.82591 17.4937 3.68969C16.6994 4.55347 15.6216 5.0826 14.4695 5.17433V5.25641C14.4692 6.06734 14.2691 6.86494 13.888 7.57467C13.507 8.28441 12.9573 8.88311 12.2904 9.31484C11.6236 9.74656 10.8613 9.99722 10.0747 10.0434C9.28823 10.0895 8.50319 9.92969 7.79297 9.57879C7.36455 10.2116 6.79413 10.7287 6.13013 11.0862C5.46612 11.4437 4.72814 11.6309 3.97881 11.6322C3.22948 11.6334 2.49092 11.4485 1.82583 11.0932C1.16074 10.7378 0.588737 10.2226 0.158384 9.59116C-0.203059 11.9061 0.0568635 14.2787 0.910062 16.4526C1.76326 18.6266 3.1773 20.5192 4.99944 21.9261C6.82157 23.333 8.98252 24.2007 11.2488 24.4354C13.5152 24.6701 15.8007 24.2628 17.8586 23.2577C19.9164 22.2526 21.6684 20.6878 22.9251 18.7323C24.1819 16.7769 24.8957 14.5051 24.9894 12.1624C25.0831 9.81978 24.5533 7.49528 23.457 5.44006C22.3607 3.38484 20.7397 1.67703 18.7691 0.501124L18.768 0.5ZM12.5011 21.914C7.47618 21.914 3.9369 18.9837 3.40382 14.5061C3.40382 14.3689 5.15161 14.3689 5.15161 14.5061C5.91627 17.767 8.44512 20.0946 12.5022 20.0946C16.5592 20.0946 19.8527 16.6651 19.8527 12.4394C19.8527 12.3022 21.6005 12.3022 21.6005 12.4394C21.5983 17.6681 17.5216 21.914 12.5011 21.914Z" fill="white"/>
</svg>
