<svg width="26" height="25" viewBox="0 0 26 25" fill="none" xmlns="http://www.w3.org/2000/svg">
<path fill-rule="evenodd" clip-rule="evenodd" d="M19.5187 0C19.4919 1.23865 19.0196 2.42282 18.1935 3.32259C17.3674 4.22237 16.2464 4.77354 15.0483 4.86909V4.9546C15.048 5.79931 14.8399 6.63014 14.4436 7.36945C14.0472 8.10876 13.4756 8.73241 12.7821 9.18212C12.0885 9.63184 11.2957 9.89293 10.4777 9.94102C9.65976 9.9891 8.84332 9.8226 8.10469 9.45707C7.65913 10.1163 7.06589 10.6549 6.37533 11.0273C5.68477 11.3996 4.91726 11.5947 4.13796 11.596C3.35866 11.5973 2.59056 11.4047 1.89886 11.0345C1.20717 10.6644 0.612286 10.1277 0.16472 9.46996C-0.211181 11.8814 0.0591381 14.3528 0.946465 16.6173C1.83379 18.8819 3.3044 20.8534 5.19942 22.3189C7.09444 23.7844 9.34182 24.6882 11.6988 24.9327C14.0558 25.1771 16.4327 24.753 18.5729 23.706C20.7131 22.659 22.5351 21.029 23.8421 18.992C25.1492 16.9551 25.8915 14.5887 25.989 12.1484C26.0865 9.70811 25.5354 7.28675 24.3952 5.1459C23.2551 3.00504 21.5693 1.22608 19.5199 0.00117133L19.5187 0ZM13.0011 22.3062C7.77523 22.3062 4.09437 19.2538 3.53997 14.5897C3.53997 14.4468 5.35768 14.4468 5.35768 14.5897C6.15292 17.9865 8.78292 20.4111 13.0023 20.4111C17.2216 20.4111 20.6468 16.8386 20.6468 12.4369C20.6468 12.294 22.4645 12.294 22.4645 12.4369C22.4623 17.8834 18.2225 22.3062 13.0011 22.3062Z" fill="#464646"/>
</svg>
