<svg width="193" height="180" viewBox="0 0 193 180" fill="none" xmlns="http://www.w3.org/2000/svg">
<g clip-path="url(#clip0_358_2276)">
<path d="M83.8551 167.781C130.167 167.781 167.71 130.222 167.71 83.8905C167.71 37.559 130.167 0 83.8551 0C37.5432 0 0 37.559 0 83.8905C0 130.222 37.5432 167.781 83.8551 167.781Z" fill="#FFD600"/>
<path d="M124.066 171.558C122.848 171.74 121.63 172.076 120.412 172.079C106.075 172.12 91.7388 172.11 77.1304 172.125C67.7252 172.12 58.5925 172.11 49.4592 172.075C48.4006 172.071 47.3425 171.922 45.992 171.555C45.3921 171.152 45.0846 171.034 44.777 170.916C44.777 170.916 44.764 170.92 44.7698 170.644C44.5805 163.701 44.3386 157.034 44.2229 150.365C44.1935 148.671 44.5654 146.97 44.9367 145.37C56.128 150.798 68.0437 151.46 80.1986 152.206C83.6851 152.041 86.9117 151.898 90.415 151.748C96.715 151.115 102.824 150.919 108.737 149.741C114.541 148.585 120.145 146.432 125.835 144.985C125.638 151.887 125.523 158.524 125.203 165.152C125.099 167.301 124.46 169.423 124.066 171.558Z" fill="#92614B"/>
<path d="M44.7521 145.272C44.5645 146.969 44.1926 148.671 44.222 150.365C44.3377 157.034 44.5796 163.701 44.7772 170.637C44.377 169.328 43.9744 167.748 43.5606 165.909C43.57 158.851 43.5905 152.051 43.8046 145.009C44.2495 144.935 44.5008 145.103 44.7521 145.272Z" fill="#715548"/>
<path d="M44.8776 171.05C45.084 171.034 45.3916 171.152 45.8029 171.402C45.5973 171.418 45.288 171.3 44.8776 171.05Z" fill="#715548"/>
<path d="M131.569 129.569C130.018 130.548 128.466 131.527 126.688 132.282C126.446 128.178 126.367 124.297 126.438 120.418C126.485 117.842 125.411 116.691 122.795 116.734C118.037 116.812 113.277 116.755 108.518 116.755C103.081 116.755 103.081 116.755 103.026 111.444C102.986 107.674 102.177 106.866 98.3693 106.85C89.824 106.814 81.2786 106.788 72.7333 106.758C68.9742 101.389 64.6038 96.3424 61.5675 90.5918C51.3704 71.2784 63.5242 49.2713 83.9665 45.7152C96.2605 43.5765 106.159 48.0724 114.229 57.2034C114.544 57.5597 114.835 57.938 115.427 58.6585C122.934 49.3616 132.505 44.5867 144.765 45.3523C145.034 46.3983 145.001 47.2071 144.721 48.0131C142.414 47.8321 140.354 47.6538 138.296 47.4755C138.253 47.6402 138.211 47.8049 138.169 47.9696C140.442 48.9434 142.716 49.9171 145.027 51.1632C145.038 60.6569 145.012 69.8787 144.732 79.0891C135.148 79.0053 131.427 82.7042 131.763 91.9256C131.71 93.5 131.695 94.8265 131.466 96.3146C131.134 99.6462 130.928 102.817 130.94 105.986C130.944 107.254 131.428 108.521 131.691 110.059C131.648 116.743 131.609 123.156 131.569 129.569Z" fill="#F06262"/>
<path d="M131.607 129.839C131.61 123.156 131.65 116.743 131.914 109.998C132.531 109.21 133.248 108.762 133.262 108.295C133.366 104.753 133.4 101.206 133.267 97.6667C133.248 97.143 132.235 96.6563 131.681 96.153C131.696 94.826 131.711 93.4995 131.88 91.7655C133.438 89.3543 134.423 86.5214 136.348 85.5549C138.841 84.3033 142.083 84.5409 145.132 84.3488C146.716 84.4383 148.17 84.3159 149.865 84.1683C158.48 84.162 166.853 84.1814 175.49 84.2065C176.971 84.1683 178.189 84.1244 179.68 84.0877C186.157 83.3813 190.806 85.2928 192.807 91.6812C192.839 114.291 192.909 136.9 192.868 159.51C192.861 163.314 190.626 165.968 187.009 167.92C184.622 168.241 182.644 168.479 180.691 168.715C179.852 163.722 179.852 163.722 174.86 163.722C166.42 163.721 157.981 163.722 149.542 163.722C144.652 163.722 144.652 163.722 143.706 168.67C141.855 168.489 139.966 168.305 138.077 168.121C133.709 166.411 131.644 163.198 131.657 158.527C131.684 149.055 131.652 139.582 131.607 129.839ZM162.874 95.2074C158.603 95.2074 154.329 95.2802 150.06 95.1776C147.883 95.1253 146.82 95.7888 146.876 98.1424C146.981 102.601 146.962 107.064 146.882 111.524C146.844 113.645 147.687 114.453 149.819 114.434C158.07 114.364 166.323 114.365 174.574 114.435C176.636 114.452 177.638 113.805 177.603 111.619C177.53 107.063 177.546 102.504 177.597 97.9467C177.619 95.986 176.828 95.1389 174.816 95.1839C171.031 95.2687 167.244 95.2074 162.874 95.2074ZM146.248 143.846C146.249 136.572 146.273 129.299 146.225 122.026C146.218 120.923 145.875 119.823 145.688 118.722C145.333 118.718 144.979 118.714 144.623 118.711C144.391 119.536 143.959 120.361 143.956 121.188C143.912 132.631 143.905 144.075 143.964 155.518C143.97 156.509 144.51 157.497 144.802 158.486C145.218 158.446 145.633 158.406 146.048 158.366C146.489 153.745 146.137 149.071 146.248 143.846ZM167.831 122.444C167.831 126.523 167.831 130.601 167.831 134.679C167.831 138.66 167.704 142.646 167.867 146.62C168.027 150.516 167.12 154.527 168.95 158.347C169.653 156.819 170.113 155.267 170.123 153.712C170.189 143.614 170.189 133.516 170.122 123.418C170.112 121.877 169.642 120.34 169.385 118.801C169.049 118.807 168.713 118.814 168.377 118.82C168.195 119.851 168.013 120.88 167.831 122.444ZM180.107 119.855C180.107 132.655 180.107 145.454 180.107 158.253C180.481 158.296 180.855 158.339 181.229 158.382C181.43 157.384 181.798 156.387 181.804 155.387C181.854 147.829 181.832 140.271 181.831 132.713C181.831 128.837 181.862 124.961 181.811 121.086C181.788 119.331 181.713 119.332 180.107 119.855ZM157.916 138.602C157.805 131.998 158.142 125.372 157.343 118.803C155.624 121.532 155.877 156.252 157.916 157.826C157.916 151.612 157.916 145.398 157.916 138.602Z" fill="#73D4CA"/>
<path d="M72.4801 106.79C81.2792 106.788 89.8245 106.813 98.3698 106.849C102.178 106.865 102.987 107.673 103.026 111.444C103.082 116.755 103.082 116.754 108.519 116.755C113.277 116.755 118.038 116.812 122.795 116.733C125.412 116.69 126.486 117.842 126.439 120.418C126.368 124.297 126.446 128.178 126.499 132.343C126.492 134.359 126.449 136.089 126.246 138.261C126.005 139.741 125.923 140.778 125.74 141.99C124.643 142.876 123.745 143.873 122.636 144.256C112.18 147.864 101.348 149.439 90.2958 149.706C90.2539 147.939 90.2539 146.434 90.2539 144.872C86.5058 144.872 83.1961 144.872 79.6452 144.872C79.6452 146.718 79.6452 148.345 79.3811 149.97C74.0037 149.571 68.8633 149.385 63.7847 148.727C56.8539 147.829 50.017 146.415 43.8904 142.751C43.8904 142.751 43.9991 142.614 44.0216 142.504C43.9196 142.209 43.7951 142.025 43.6706 141.84C43.6426 134.395 43.664 126.949 43.5567 119.505C43.5243 117.258 44.5698 116.705 46.5791 116.731C52.1939 116.801 57.81 116.755 63.4259 116.754C64.4657 116.754 65.5049 116.754 66.9197 116.754C66.9197 115.024 66.9192 113.606 66.9197 112.188C66.9208 106.899 66.9208 106.899 72.4801 106.79ZM83.2228 116.735C87.4803 116.744 91.7414 116.648 95.9937 116.802C98.2323 116.883 99.1 116.239 99.0079 113.886C98.9138 111.463 98.0513 110.267 95.5491 110.381C94.0041 110.451 92.4522 110.358 90.9051 110.398C86.1904 110.519 81.4769 110.669 76.2523 110.834C70.8969 110.92 70.241 111.692 71.4848 116.683C75.1832 116.683 78.9318 116.683 83.2228 116.735Z" fill="#815542"/>
<path d="M149.623 84.194C148.17 84.3164 146.717 84.4388 145.167 84.139C144.563 83.081 144.054 82.4447 143.766 82.0837C144.214 80.9895 144.601 80.0445 144.988 79.1001C145.014 69.8782 145.039 60.6569 145.066 50.9251C145.036 49.6152 145.003 48.8155 144.97 48.0157C145.003 47.2069 145.035 46.3982 145.03 45.3505C145.023 43.2689 145.071 41.4263 145.081 39.5836C145.101 36.0263 145.833 34.8359 149.297 34.7603C157.942 34.5717 166.598 34.5543 175.242 34.7824C178.799 34.8763 179.487 36.0345 179.491 39.6195C179.502 52.5312 179.504 65.4425 179.499 78.8499C179.461 80.9236 179.434 82.5023 179.406 84.0804C178.189 84.1244 176.971 84.1688 175.464 83.981C174.467 83.3217 173.808 82.7419 173.042 82.497C171.268 81.9303 169.357 81.7294 167.655 81.0136C163.695 79.3476 159.848 79.3878 155.907 81.0214C154.364 81.6609 152.65 81.8895 151.105 82.5232C150.487 82.777 150.11 83.6194 149.623 84.194ZM149.486 54.2412C149.486 62.5725 149.486 70.9038 149.486 79.8143C151.049 79.1048 151.939 78.7924 152.737 78.3241C158.303 75.0574 163.919 75.1568 169.614 77.9604C170.715 78.5025 171.87 78.9358 173.399 79.5862C173.885 78.7238 174.787 77.8652 174.795 76.9992C174.889 65.5535 174.812 54.1073 174.892 42.6616C174.91 40.0962 173.774 39.2026 171.394 39.2225C166.442 39.2639 161.489 39.2339 156.536 39.2337C149.563 39.2336 149.563 39.2338 149.569 46.6567C149.584 47.8878 149.6 49.1189 149.488 50.7659C149.546 51.7768 149.605 52.7876 149.486 54.2412Z" fill="#2D2D2D"/>
<path d="M138.079 168.342C139.967 168.305 141.856 168.489 143.707 168.67C144.653 163.722 144.653 163.722 149.543 163.722C157.982 163.722 166.421 163.721 174.861 163.722C179.853 163.722 179.853 163.722 180.692 168.715C182.645 168.479 184.623 168.241 186.843 168.025C187.343 168.814 187.405 169.743 187.887 170.322C190.441 173.391 190.673 176.17 188.422 178.516C186.89 180.111 183.472 180.376 181.572 179.045C179.141 177.343 178.732 174.449 180.668 170.892C181.153 170.417 181.429 170.237 181.706 170.056C181.642 169.925 181.579 169.794 181.515 169.663C181.019 169.873 180.522 170.083 180.026 170.293C168.324 170.293 156.622 170.293 145.725 170.293C145.725 172.516 145.954 174.526 145.671 176.46C145.28 179.127 142.85 180.14 140.77 179.983C139.158 179.861 137.326 178.381 136.211 177.004C134.723 175.166 135.482 173.039 136.744 171.153C137.281 170.351 137.639 169.43 138.079 168.342ZM182.276 173.398C182.656 174.608 182.799 176.003 183.528 176.943C183.84 177.343 185.758 177.14 186.261 176.588C186.886 175.903 187.3 174.332 186.929 173.567C185.904 171.455 184.196 171.492 182.276 173.398ZM138.332 175.562C139.32 176.142 140.528 177.376 141.243 177.138C142.185 176.825 143.239 175.381 143.295 174.37C143.336 173.63 141.929 172.265 141.024 172.128C139.061 171.832 138.095 173.142 138.332 175.562Z" fill="#323230"/>
<path d="M43.7882 142.926C50.0184 146.415 56.855 147.829 63.7863 148.727C68.8649 149.385 74.0053 149.571 79.4234 150.194C79.799 151.023 79.8691 151.625 79.9391 152.228C68.0443 151.46 56.1285 150.798 44.937 145.37C44.502 145.103 44.2507 144.935 43.8468 144.738C43.6909 144.174 43.6877 143.637 43.7882 142.926Z" fill="#654C42"/>
<path d="M90.3376 149.968C101.348 149.439 112.18 147.865 122.636 144.256C123.745 143.873 124.643 142.877 125.859 141.991C126.078 141.817 126.316 141.82 126.316 141.82C126.333 142.622 126.35 143.425 126.219 144.469C126.07 144.71 125.837 144.717 125.837 144.717C120.144 146.432 114.54 148.585 108.736 149.741C102.823 150.919 96.7139 151.116 90.403 151.522C90.1896 150.858 90.2633 150.413 90.3376 149.968Z" fill="#654C42"/>
<path d="M179.679 84.0877C179.432 82.5017 179.459 80.9236 179.538 79.121C182.541 79.4616 185.828 79.3952 188.367 80.7378C192.284 82.8099 193.315 86.8406 192.842 91.4238C190.805 85.2928 186.156 83.3813 179.679 84.0877Z" fill="#6AC0B5"/>
<path d="M125.836 144.985C125.839 144.716 126.072 144.71 126.189 144.707C126.344 152.566 126.456 160.427 126.336 168.284C126.319 169.364 125.148 170.427 124.288 171.527C124.461 169.423 125.1 167.3 125.204 165.151C125.523 158.524 125.639 151.887 125.836 144.985Z" fill="#745647"/>
<path d="M126.355 141.573C126.316 141.819 126.079 141.816 125.96 141.817C125.923 140.779 126.005 139.741 126.212 138.524C126.355 139.339 126.375 140.333 126.355 141.573Z" fill="#745647"/>
<path d="M43.663 142.035C43.7958 142.025 43.9203 142.209 44.0932 142.555C43.9793 142.554 43.817 142.392 43.663 142.035Z" fill="#654C42"/>
<path d="M90.2973 149.706C90.2649 150.413 90.1906 150.858 90.1273 151.529C86.9117 151.898 83.6851 152.041 80.1986 152.206C79.8691 151.625 79.799 151.023 79.6876 150.196C79.6462 148.345 79.6462 146.718 79.6462 144.872C83.1971 144.872 86.5074 144.872 90.2555 144.872C90.2555 146.434 90.2555 147.939 90.2973 149.706Z" fill="#F6F6F6"/>
<path d="M144.733 79.0891C144.6 80.0445 144.213 80.9895 143.766 82.0837C144.054 82.4447 144.563 83.081 145.036 83.9271C142.082 84.5409 138.841 84.3038 136.348 85.5549C134.423 86.5214 133.438 89.3548 131.918 91.518C131.428 82.7037 135.149 79.0053 144.733 79.0891Z" fill="#6EBCB3"/>
<path d="M131.466 96.3141C132.234 96.6563 133.247 97.143 133.266 97.6662C133.399 101.206 133.365 104.753 133.261 108.295C133.246 108.762 132.53 109.21 131.916 109.727C131.428 108.52 130.945 107.254 130.94 105.985C130.928 102.816 131.134 99.6457 131.466 96.3141Z" fill="#343C3B"/>
<path d="M144.721 48.0127C145.002 48.8151 145.035 49.6149 145.029 50.6526C142.717 49.9167 140.443 48.9429 138.169 47.9691C138.212 47.8045 138.254 47.6398 138.297 47.475C140.355 47.6534 142.414 47.8316 144.721 48.0127Z" fill="#FD6F6F"/>
<path d="M163.166 95.2074C167.244 95.208 171.031 95.2687 174.816 95.1844C176.828 95.1394 177.619 95.9866 177.597 97.9472C177.547 102.504 177.531 107.063 177.603 111.62C177.638 113.805 176.636 114.453 174.575 114.435C166.323 114.365 158.07 114.365 149.819 114.435C147.687 114.453 146.844 113.645 146.882 111.524C146.962 107.064 146.981 102.601 146.876 98.1429C146.82 95.7888 147.883 95.1253 150.06 95.1776C154.329 95.2802 158.603 95.208 163.166 95.2074ZM149.006 105.962C149.006 107.608 149.055 109.256 148.994 110.9C148.936 112.481 149.543 113.171 151.2 113.16C158.568 113.11 165.937 113.113 173.305 113.158C174.937 113.168 175.535 112.533 175.506 110.916C175.434 107.043 175.377 103.164 175.525 99.2962C175.606 97.1519 174.937 96.3759 172.735 96.4355C167.794 96.5684 162.846 96.4366 157.902 96.4926C155.117 96.524 151.179 95.6611 149.854 97.1105C148.351 98.7562 149.187 102.535 149.006 105.962Z" fill="#3D4746"/>
<path d="M146.247 144.137C146.136 149.071 146.488 153.745 146.048 158.366C145.632 158.406 145.217 158.446 144.801 158.486C144.509 157.497 143.969 156.509 143.964 155.518C143.904 144.075 143.911 132.631 143.955 121.188C143.959 120.361 144.391 119.536 144.623 118.711C144.978 118.714 145.333 118.718 145.687 118.722C145.875 119.823 146.217 120.923 146.224 122.026C146.273 129.299 146.249 136.572 146.247 144.137Z" fill="#6AC3BA"/>
<path d="M167.83 122.178C168.012 120.88 168.194 119.851 168.376 118.82C168.712 118.814 169.049 118.807 169.385 118.801C169.642 120.34 170.111 121.877 170.122 123.418C170.189 133.516 170.188 143.614 170.123 153.712C170.113 155.267 169.653 156.819 168.95 158.347C167.12 154.527 168.026 150.516 167.867 146.62C167.703 142.646 167.831 138.66 167.831 134.679C167.831 130.601 167.83 126.523 167.83 122.178Z" fill="#6AC3BA"/>
<path d="M149.865 84.1683C150.111 83.6194 150.487 82.777 151.105 82.5232C152.652 81.889 154.364 81.6603 155.907 81.0209C159.848 79.3878 163.696 79.3476 167.656 81.0136C169.357 81.7289 171.269 81.9298 173.043 82.497C173.809 82.7419 174.467 83.3217 175.201 83.9747C166.854 84.1814 158.48 84.162 149.865 84.1683Z" fill="#66BAB1"/>
<path d="M180.152 119.628C181.713 119.332 181.788 119.331 181.811 121.086C181.861 124.961 181.83 128.837 181.831 132.713C181.831 140.271 181.853 147.829 181.804 155.387C181.798 156.387 181.429 157.384 181.229 158.382C180.855 158.339 180.481 158.296 180.107 158.254C180.107 145.454 180.107 132.655 180.152 119.628Z" fill="#68C1B8"/>
<path d="M157.915 138.894C157.915 145.398 157.915 151.612 157.915 157.825C155.875 156.252 155.623 121.532 157.341 118.803C158.141 125.372 157.804 131.998 157.915 138.894Z" fill="#68C0B7"/>
<path d="M76.7638 110.808C81.4779 110.67 86.1915 110.52 90.9061 110.399C92.4533 110.359 94.0051 110.451 95.5502 110.381C98.0524 110.268 98.9149 111.463 99.0095 113.886C99.1011 116.239 98.2333 116.884 95.9947 116.803C91.7425 116.648 87.4813 116.744 82.8608 116.542C80.5861 114.501 78.675 112.655 76.7638 110.808Z" fill="#EC6261"/>
<path d="M149.613 50.3501C149.598 49.119 149.583 47.888 149.886 46.497C165.123 50.6418 174.119 64.3401 172.999 79.4193C171.869 78.9358 170.714 78.5025 169.612 77.9604C163.918 75.1573 158.301 75.0574 152.736 78.3241C151.938 78.7924 151.048 79.1048 149.485 79.8143C149.485 70.9038 149.485 62.5725 149.78 54.0591C157.705 58.073 163.683 63.8864 167.689 71.7593C167.177 69.4612 166.518 67.2583 165.481 65.25C161.96 58.4388 157.102 52.9786 149.613 50.3501Z" fill="#EC6261"/>
<path d="M149.551 50.558C157.104 52.9786 161.962 58.4383 165.482 65.25C166.52 67.2583 167.179 69.4612 167.691 71.7593C163.685 63.8864 157.706 58.073 149.87 53.8378C149.605 52.7882 149.546 51.777 149.551 50.558Z" fill="#FE7070"/>
<path d="M182.381 173.193C184.196 171.492 185.903 171.454 186.928 173.567C187.299 174.332 186.885 175.903 186.26 176.588C185.757 177.14 183.839 177.343 183.527 176.943C182.798 176.003 182.655 174.608 182.381 173.193Z" fill="#F8F8F8"/>
<path d="M138.255 175.347C138.094 173.142 139.06 171.832 141.023 172.128C141.928 172.265 143.335 173.63 143.294 174.371C143.238 175.381 142.183 176.825 141.241 177.138C140.526 177.377 139.319 176.142 138.255 175.347Z" fill="#F8F8F8"/>
<path d="M180.159 170.423C180.521 170.083 181.018 169.873 181.514 169.664C181.578 169.794 181.641 169.925 181.705 170.056C181.428 170.237 181.152 170.417 180.729 170.695C180.486 170.712 180.39 170.633 180.159 170.423Z" fill="#FFBC4E"/>
<path d="M149.005 105.673C149.186 102.534 148.35 98.7556 149.854 97.11C151.178 95.6606 155.116 96.5234 157.901 96.492C162.845 96.4366 167.793 96.5684 172.734 96.435C174.937 96.3753 175.606 97.1513 175.524 99.2956C175.377 103.164 175.433 107.042 175.505 110.915C175.535 112.533 174.937 113.168 173.304 113.157C165.936 113.112 158.567 113.11 151.199 113.16C149.542 113.171 148.936 112.48 148.994 110.9C149.054 109.256 149.006 107.608 149.005 105.673ZM167.475 105.733C168.52 105.733 169.564 105.733 170.789 105.733C170.727 104.637 170.681 103.83 170.634 103.012C164.909 103.012 159.413 103.012 153.733 103.012C153.786 103.989 153.831 104.795 153.883 105.733C158.375 105.733 162.641 105.733 167.475 105.733ZM165.479 107.538C162.999 107.538 160.518 107.538 158.037 107.538C158.042 107.871 158.047 108.203 158.051 108.536C160.748 108.536 163.444 108.536 166.141 108.536C166.093 108.218 166.046 107.9 165.479 107.538Z" fill="#FAFAFA"/>
<path d="M167.19 105.734C162.64 105.734 158.375 105.734 153.882 105.734C153.83 104.795 153.786 103.989 153.732 103.012C159.412 103.012 164.909 103.012 170.634 103.012C170.681 103.831 170.727 104.638 170.789 105.734C169.564 105.734 168.519 105.734 167.19 105.734Z" fill="#383838"/>
<path d="M165.739 107.56C166.046 107.9 166.093 108.218 166.14 108.536C163.444 108.536 160.747 108.536 158.051 108.536C158.046 108.204 158.041 107.871 158.037 107.538C160.517 107.538 162.998 107.538 165.739 107.56Z" fill="#595959"/>
</g>
<defs>
<clipPath id="clip0_358_2276">
<rect width="193" height="180" fill="white"/>
</clipPath>
</defs>
</svg>
