<svg width="170" height="155" viewBox="0 0 170 155" fill="none" xmlns="http://www.w3.org/2000/svg">
<g clip-path="url(#clip0_358_2271)">
<path d="M77.4292 154.83C120.192 154.83 154.858 120.17 154.858 77.415C154.858 34.6599 120.192 0 77.4292 0C34.6662 0 0 34.6599 0 77.415C0 120.17 34.6662 154.83 77.4292 154.83Z" fill="#A82F62"/>
<path d="M54.0069 87.7512C53.7494 88.9425 53.5398 90.0328 53.323 91.1627C52.502 91.4712 52.2407 91.028 52.4368 90.3109C52.5778 89.7972 53.0366 89.3727 53.1945 88.8594C53.28 88.5827 52.899 88.1786 52.9555 87.8739C53.1506 86.8251 53.3843 85.7734 53.7345 84.7686C53.8615 84.405 54.3584 84.1708 54.6869 83.8777C54.8202 83.9834 54.953 84.0887 55.0863 84.1945C54.7661 84.9762 54.4454 85.7585 54.0547 86.7126C54.0547 86.8348 54.0547 87.2423 54.0069 87.7512Z" fill="white"/>
<path d="M55.3731 114.037C54.7511 114.267 54.3672 114.19 54.1851 113.419C53.9451 112.407 53.3496 111.442 53.2911 110.434C53.2399 109.543 52.912 108.81 52.6995 108.003C52.558 107.465 52.4542 106.681 53.6664 107.022C53.4954 108.557 54.5937 110.029 54.3672 111.467C54.683 112.331 54.966 113.103 55.3065 113.961C55.3645 114.046 55.3731 114.037 55.3731 114.037Z" fill="white"/>
<path d="M56.6993 119.123C57.8183 119.127 58.4621 120.135 58.0144 121.367C57.9613 121.467 57.9777 121.453 57.9826 121.447C57.5638 120.711 57.1403 119.981 56.7187 119.177C56.7206 119.104 56.6993 119.123 56.6993 119.123Z" fill="white"/>
<path d="M56.4941 79.1041C55.8783 78.485 56.3569 77.2388 57.4745 76.8245C57.5759 76.8341 57.5561 76.8153 57.546 76.8066C57.9845 77.8578 57.3364 78.4995 56.5612 79.1041C56.4743 79.0828 56.4941 79.1041 56.4941 79.1041Z" fill="white"/>
<path d="M56.4641 79.0732C57.1277 79.9462 56.1879 80.5392 56.0126 81.2639C55.9947 81.3388 55.4021 81.2741 55.0761 81.2741C55.01 81.1669 54.9438 81.0597 54.8776 80.9525C55.3538 80.345 55.8305 79.7376 56.4004 79.1171C56.4941 79.1041 56.4748 79.0828 56.4641 79.0732Z" fill="white"/>
<path d="M54.2189 83.5117C54.4126 82.7772 54.6125 82.151 54.9472 81.1065C55.2775 81.7 55.7185 82.1495 55.6248 82.391C55.3963 82.9786 55.5461 84.2205 54.2189 83.5117Z" fill="white"/>
<path d="M54.9153 98.1932C55.121 98.4863 55.208 98.7741 55.3234 99.1561C54.4768 99.1561 53.7755 99.1561 52.9753 99.1561C52.9627 98.8673 52.9492 98.5679 52.9328 98.1879C53.6273 98.1879 54.2121 98.1879 54.9153 98.1932Z" fill="white"/>
<path d="M52.8381 96.2743C52.1562 96.4815 51.794 96.3472 51.8838 95.6094C51.9394 95.155 51.894 94.6881 51.894 94.1338C52.2335 94.1135 52.5334 94.0956 52.9115 94.0729C52.9115 94.8431 52.9115 95.5114 52.8381 96.2743Z" fill="white"/>
<path d="M53.0902 104.462C53.2752 105.196 53.3829 105.85 53.5061 106.6C53.1211 106.629 52.814 106.653 52.5136 106.675C52.3904 105.899 52.2808 105.21 52.1591 104.442C52.4479 104.422 52.7299 104.402 53.0902 104.462Z" fill="white"/>
<path d="M52.883 104.103C51.7244 103.847 52.0224 102.93 51.9355 102.249C51.9152 102.086 52.4068 101.858 52.6628 101.661C52.7739 101.724 52.885 101.787 52.9961 101.85C52.9961 102.599 52.9961 103.348 52.883 104.103Z" fill="white"/>
<path d="M51.894 100.505C51.894 100.015 51.894 99.6418 51.894 99.1715C53.5606 99.3936 52.6305 100.63 52.9845 101.358C52.0934 101.78 51.807 101.47 51.894 100.505Z" fill="white"/>
<path d="M55.3616 114.046C55.6422 114.702 55.9445 115.352 56.1879 116.024C56.2256 116.127 55.9928 116.329 55.8633 116.564C55.8421 116.643 55.86 116.628 55.86 116.628C54.727 116.816 55.3065 115.6 54.7859 115.251C54.7356 115.217 55.0829 114.589 55.3094 114.137C55.3731 114.037 55.3645 114.046 55.3616 114.046Z" fill="white"/>
<path d="M56.7302 119.094C55.9367 118.533 55.5827 117.788 55.8097 116.721C55.86 116.628 55.8421 116.643 55.8373 116.65C56.3062 117.23 56.7925 117.795 57.2296 118.396C57.2625 118.441 56.9442 118.742 56.7443 119.024C56.6993 119.123 56.7206 119.104 56.7302 119.094Z" fill="white"/>
<path d="M53.1805 92.2849C53.1298 93.0179 53.4409 93.8667 52.1562 93.7885C52.1562 93.2154 52.091 92.6287 52.1885 92.0705C52.2277 91.8469 52.6251 91.6856 52.8594 91.4964C52.9666 91.7209 53.0738 91.9459 53.1805 92.2849Z" fill="white"/>
<path d="M57.4213 98.1812C57.5416 98.4516 57.5479 98.7278 57.5368 99.1068C56.8858 99.2101 56.2516 99.2101 55.5586 99.2101C55.5586 98.8692 55.5586 98.5921 55.5586 98.1865C56.1377 98.1865 56.7225 98.1865 57.4213 98.1812Z" fill="white"/>
<path d="M52.1403 96.6524C52.3822 96.6452 52.5488 96.5954 52.6276 96.6572C53.111 97.0382 52.7092 98.6693 51.8756 99.031C51.9287 98.1797 51.9765 97.4202 52.1403 96.6524Z" fill="white"/>
<path d="M133.259 72.7273C136.128 75.8331 138.15 79.556 139.559 83.5503C140.618 86.5499 141.196 89.7194 141.996 92.9208C141.629 92.6345 141.254 92.24 140.797 91.759C139.991 92.1772 139.117 92.6919 138.191 93.0811C137.806 93.2429 137.081 93.3332 136.898 93.1212C135.128 91.0753 132.663 89.4393 132.671 86.2771C132.673 85.8753 132.516 85.3963 132.269 85.0829C130.862 83.3011 130.939 81.2866 131.615 79.3672C132.101 77.9882 132.113 76.7573 131.731 75.4184C131.558 74.8124 131.519 74.1682 131.458 73.7926C132.14 73.4232 132.687 73.1267 133.259 72.7273Z" fill="#C6F2F5"/>
<path d="M140.388 110.853C139.624 113.065 138.776 115.317 137.883 117.643C137.797 117.491 137.658 117.226 137.73 117.048C138.57 114.989 139.441 112.943 140.388 110.853Z" fill="#A4E1E5"/>
<path d="M131.724 130.953C131.811 130.819 131.888 130.721 131.942 130.732C132.81 130.911 133.676 131.104 134.668 131.322C134.371 131.601 133.819 132.411 133.541 132.326C132.861 132.117 132.308 131.495 131.724 130.953Z" fill="#B1B1B1"/>
<path d="M146.908 99.8833C146.53 99.3767 146.176 98.9692 145.618 98.3275C146.307 98.2676 146.999 98.2077 147.714 98.1459C147.767 99.8538 147.674 100.05 146.908 99.8833Z" fill="#B0B0B0"/>
<path d="M133.32 63.8083C133.528 64.2487 133.66 64.6239 133.826 65.0942C133.053 65.0942 132.463 65.0942 131.627 65.0942C131.99 64.3322 132.004 63.4259 133.32 63.8083Z" fill="#B1B1B1"/>
<path d="M136.317 128.834C136.65 128.219 136.965 127.594 137.333 127.001C137.388 126.914 137.713 126.926 137.868 126.995C137.961 127.036 138.052 127.359 138 127.411C137.517 127.895 137.004 128.347 136.407 128.819C136.314 128.831 136.317 128.834 136.317 128.834Z" fill="#AEAEAE"/>
<path d="M145.454 112.738C145.22 112.596 144.89 112.343 144.932 112.199C145.08 111.693 145.357 111.223 145.585 110.74C145.76 110.817 145.935 110.895 146.11 110.972C145.916 111.541 145.722 112.109 145.454 112.738Z" fill="#AFAFAF"/>
<path d="M145.265 113.674C145.089 114.282 144.893 114.798 144.698 115.312C144.564 115.321 144.43 115.331 144.296 115.34C144.281 114.965 144.197 114.576 144.266 114.217C144.361 113.724 144.49 113.123 145.265 113.674Z" fill="#AEAEAE"/>
<path d="M131.202 133.765C131.679 133.299 132.139 132.925 132.6 132.552C132.395 133.994 131.918 134.301 131.202 133.765Z" fill="#AFAFAF"/>
<path d="M136.313 128.83C136.407 129.821 135.943 130.384 134.876 130.664C134.786 129.602 135.496 129.249 136.227 128.842C136.317 128.834 136.314 128.831 136.313 128.83Z" fill="#AEAEAE"/>
<path d="M146.731 107.808C145.892 107.412 145.925 106.853 147.101 105.988C147.001 106.571 146.902 107.155 146.731 107.808Z" fill="#AFAFAF"/>
<path d="M147.337 91.773C147.323 92.423 147.05 92.8218 146.658 92.2177C146.378 91.7841 146.487 91.098 146.422 90.5248C146.579 90.5016 146.736 90.4789 146.893 90.4558C147.035 90.8619 147.177 91.2675 147.337 91.773Z" fill="#AEAEAE"/>
<path d="M134.197 66.2898C133.889 65.5085 134.132 65.3434 134.769 65.6567C135.221 65.8793 135.659 66.1299 136.103 66.368C135.911 66.6085 135.718 66.8489 135.526 67.0899C135.103 66.848 134.68 66.6061 134.197 66.2898Z" fill="#AEAEAE"/>
<path d="M142.649 77.641C141.682 77.373 141.446 76.7322 141.541 75.9432C141.71 75.8713 141.879 75.7989 142.049 75.7269C142.268 76.3411 142.488 76.9553 142.649 77.641Z" fill="#AEAEAE"/>
<path d="M147.606 93.9092C147.562 94.3704 147.504 94.7287 147.447 95.0869C147.307 95.0855 147.168 95.084 147.029 95.0826C146.878 94.4568 146.727 93.8315 146.577 93.2057C146.704 93.1395 146.832 93.0734 146.959 93.0077C147.17 93.2738 147.381 93.5398 147.606 93.9092Z" fill="#AEAEAE"/>
<path d="M139.884 73.2059C139.447 72.7109 139.103 72.217 138.759 71.7225C138.906 71.6341 139.054 71.5453 139.201 71.4569C139.597 71.9673 140.605 72.1542 139.884 73.2059Z" fill="#AEAEAE"/>
<path d="M146.862 89.3935C146.687 89.6195 146.516 89.7431 146.344 89.8672C146.183 89.2443 146.022 88.6214 145.861 87.9985C146.042 87.9521 146.222 87.9058 146.402 87.8594C146.556 88.337 146.71 88.814 146.862 89.3935Z" fill="#B1B1B1"/>
<path d="M144.633 83.8965C144.673 83.5522 144.749 83.3007 144.825 83.0496C145.009 83.2249 145.283 83.3692 145.357 83.5827C145.497 83.9883 145.521 84.4335 145.594 84.8618C145.476 84.9096 145.359 84.9579 145.241 85.0057C145.05 84.6667 144.859 84.3282 144.633 83.8965Z" fill="#AFAFAF"/>
<path d="M145.406 86.4866C145.37 86.0762 145.37 85.7618 145.37 85.447C145.516 85.4151 145.662 85.3833 145.807 85.3514C145.997 85.9738 146.187 86.5962 146.378 87.2186C146.222 87.2843 146.066 87.35 145.91 87.4157C145.753 87.1375 145.597 86.8599 145.406 86.4866Z" fill="#B0B0B0"/>
<path d="M142.166 119.201C142.406 118.759 142.606 118.402 142.806 118.045C142.956 118.096 143.105 118.146 143.254 118.196C143.079 118.805 142.903 119.415 142.727 120.025C142.587 120.028 142.447 120.031 142.307 120.034C142.247 119.784 142.187 119.534 142.166 119.201Z" fill="#AFAFAF"/>
<path d="M139.453 125.378C139.099 125.839 138.782 126.221 138.465 126.603C138.318 126.496 138.172 126.391 138.025 126.285C138.352 125.791 138.68 125.297 139.007 124.804C139.168 124.969 139.329 125.133 139.453 125.378Z" fill="#AFAFAF"/>
<path d="M70.6654 129.117C70.451 128.916 69.7961 129.654 69.969 128.664C69.6063 128.124 69.1803 127.68 68.7539 127.236C68.7539 127.236 68.7244 127.19 68.75 127.089C68.6882 126.977 68.6013 126.967 68.5143 126.957C68.5143 126.957 68.4709 126.93 68.4931 126.825C67.7358 125.86 66.9563 125 66.1764 124.141C66.1764 124.141 66.13 124.102 66.1706 123.994C65.7707 123.37 65.3297 122.854 64.8888 122.337C64.8888 122.337 64.8434 122.298 64.8844 122.189C63.8847 120.04 62.772 118.031 61.8172 115.95C59.8429 111.647 58.5775 107.14 58.3433 102.389C58.2829 101.159 58.4621 99.918 58.4626 98.6819C58.4636 97.5254 58.2298 96.353 58.3501 95.2144C58.7673 91.2631 58.9832 87.2529 61.3531 83.7913C61.8727 83.0327 62.092 82.0679 62.4552 81.1109C62.4586 80.9066 62.4562 80.7902 62.4494 80.6744C62.445 80.6748 62.4465 80.6835 62.5296 80.6536C63.2443 79.7255 63.876 78.8274 64.6043 77.7921C64.9728 78.7424 65.6156 79.5647 65.5152 80.2823C65.0279 83.7521 66.327 87.1361 65.833 90.6069C65.5992 92.2453 65.7798 93.9464 65.8074 95.6181C65.8402 97.6162 66.256 99.4487 67.8111 100.913C69.0234 102.055 70.097 103.344 71.229 104.57C71.4604 104.821 71.7294 105.056 71.8902 105.348C72.5441 106.534 73.8577 106.973 74.7469 107.895C74.8951 108.049 75.3404 107.917 75.8393 107.917C74.2654 106.039 71.9109 105.196 71.1199 102.859C71.8699 103.166 72.5272 103.586 73.0903 104.108C74.2417 105.176 75.1868 106.509 76.9163 106.766C77.1042 106.794 77.2336 107.215 77.2882 107.453C75.9026 108.205 77.0554 108.795 77.0699 109.461C77.251 109.45 77.4321 109.438 77.6127 109.427C77.5345 108.765 77.4558 108.104 77.4698 107.45C78.2174 108.792 79.1282 109.765 80.7708 109.499C81.4348 109.392 82.1095 109.195 82.7156 108.905C84.2944 108.15 85.9123 107.841 87.6746 107.955C90.313 108.127 92.961 108.161 95.6057 108.214C95.9973 108.222 96.5102 108.136 96.7667 107.888C97.8147 106.871 98.9554 107.144 99.4997 108.528C99.9609 109.7 99.5669 110.826 99.3867 111.929C99.1694 113.256 99.9044 115.36 101.301 115.812C102.015 116.043 102.661 116.484 103.295 116.809C103.04 117.364 102.829 117.826 102.525 118.295C101.897 118.604 101.363 118.906 100.672 119.296C102.884 120.048 102.947 120.024 103.222 118.537C104.147 118.318 104.984 117.944 105.812 117.964C106.858 117.99 107.893 118.348 108.937 118.542C110.205 118.778 111.638 118.735 112.009 120.422C111.724 120.57 111.471 120.702 111.547 120.662C112.084 121.387 112.665 121.985 113.018 122.697C113.374 123.414 113.374 124.314 113.755 125.01C115.039 127.353 116.424 129.639 117.781 132.005C117.79 132.063 117.819 132.177 117.739 132.227C117.436 132.882 117.213 133.487 116.989 134.093C117.133 134.157 117.278 134.22 117.422 134.284C117.806 133.734 118.191 133.185 118.677 132.652C119.038 132.593 119.296 132.515 119.553 132.438C119.251 131.554 118.947 130.67 118.643 129.701C119.387 129.187 119.861 128.616 119.693 127.449C119.351 127.878 119.14 128.143 118.929 128.409C118.801 128.359 118.672 128.309 118.543 128.259C118.808 127.511 119.072 126.762 119.409 126.071C119.6 126.436 119.718 126.744 119.836 127.051C119.946 127.029 120.056 127.008 120.165 126.987C120.219 126.317 121.399 125.646 120.014 124.891C120.044 124.684 120.061 124.566 120.173 124.457C121.002 124.737 121.734 125.009 122.538 125.307C121.971 124.258 121.536 123.454 121.114 122.556C121.565 121.016 122.181 119.595 122.385 118.118C122.552 116.912 122.961 116.085 123.895 115.328C124.553 114.795 125.267 114.033 125.446 113.255C126.098 110.43 126.542 107.557 127.049 104.7C127.225 103.707 126.794 103.054 125.776 103.053C123.959 103.051 122.138 103.119 120.324 103.237C119.424 103.296 118.534 103.529 117.615 103.688C117.488 101.447 117.402 101.268 115.304 100.954C113.662 100.708 111.989 100.66 110.329 100.552C108.69 100.445 107.079 100.446 105.655 101.505C105.352 101.731 104.803 101.854 104.452 101.746C103.085 101.323 102.343 101.94 101.843 103.104C101.805 103.194 101.738 103.272 101.679 103.363C101.577 102.988 101.488 102.657 101.398 102.326C101.273 102.26 101.148 102.194 101.022 102.128C100.806 102.538 100.589 102.948 100.338 103.423C100.064 102.933 99.9218 102.68 99.7803 102.426C99.5471 102.899 99.5089 103.315 99.5538 103.723C99.7412 105.413 99.3906 105.991 97.7983 106.503C97.0256 106.752 96.235 106.95 95.4733 107.228C94.3205 107.648 93.7154 107.185 93.3372 106.102C92.6254 104.066 92.6017 104.074 90.6119 104.979C90.495 105.032 90.3811 105.092 90.2623 105.141C89.1225 105.606 88.7183 105.393 88.7236 104.172C88.7274 103.397 88.9501 102.623 89.0742 101.849C88.9873 101.773 88.9003 101.698 88.8139 101.623C88.3594 101.997 87.8069 102.301 87.4761 102.765C87.0859 103.311 86.8661 103.985 86.6097 104.619C85.6872 106.901 84.4504 107.161 82.6606 105.414C82.2336 104.997 81.6845 104.586 81.5005 104.063C81.1286 103.008 80.7741 101.879 80.7688 100.779C80.7621 99.3086 81.8535 98.7306 83.5888 98.8581C83.0687 98.3811 82.859 98.1884 82.4437 97.8079C84.0114 96.9354 85.4269 96.0691 86.911 95.3419C88.7424 94.4438 88.6545 94.0319 89.9372 96.0271C90.0729 96.2381 90.2371 96.5066 90.4467 96.5785C90.8148 96.7045 91.2277 96.6992 91.6223 96.7485C91.6025 96.3878 91.6498 96.0054 91.545 95.6712C91.4325 95.3129 91.2175 94.9662 90.9765 94.6722C89.6334 93.0352 89.7672 91.4065 90.8785 89.7078C91.3914 88.9241 91.8787 88.0912 92.1902 87.2143C92.9325 85.123 93.5343 82.9825 94.25 80.882C94.7204 79.5015 95.6482 78.4894 97.0178 77.7834C97.1613 78.1915 97.2656 78.4879 97.4071 78.8911C98.1697 78.2383 98.8371 77.6671 99.5021 77.2001C99.5702 77.656 99.6408 78.0075 99.7108 78.359C99.8851 78.3465 100.06 78.3339 100.234 78.3214C100.234 77.6468 100.234 76.9722 100.272 76.2117C100.179 75.4459 100.046 74.766 99.9146 74.0866C99.2872 76.2904 99.2872 76.2904 97.6244 76.2943C97.3419 76.1967 97.1386 76.1185 96.9352 75.9297C96.5566 74.2614 97.6012 73.4676 98.7661 73.2662C100.035 73.047 100.417 72.0591 101.131 71.3628C101.712 70.7964 101.816 70.186 100.821 69.805C100.422 69.6525 100.105 69.2879 99.8441 69.0899C99.3775 69.1633 98.9405 69.3159 98.5188 69.2821C97.4361 69.1957 96.7937 68.5216 96.2934 67.5819C95.6916 66.4511 95.2212 66.4559 94.478 67.5129C94.1607 67.9639 93.9197 68.4694 93.6439 68.9499C93.4773 68.8644 93.3102 68.7789 93.1436 68.6935C92.3182 67.1753 91.0026 66.7287 89.4461 66.7668C88.4695 66.7905 88.0334 67.3733 88.0146 68.2343C87.9996 68.9074 88.017 69.6742 88.3155 70.2444C89.2495 72.0291 88.3184 73.2334 87.1569 74.5989C85.9509 74.2044 84.7416 73.8085 83.4144 73.3739C83.4719 73.7182 83.5134 73.9683 83.6047 74.5154C82.5567 74.2286 81.6212 73.9722 80.6925 73.6202C80.6911 73.3304 80.6838 73.1373 80.7756 72.9524C81.4744 73.1204 82.0738 73.2802 82.6736 73.4396C82.7161 73.2952 82.7591 73.1508 82.8016 73.0064C82.0202 72.5583 81.2387 72.1107 80.4699 71.5733C81.6541 70.2358 82.8252 68.988 83.9969 67.7398C84.0288 67.8258 84.0602 67.9117 84.092 67.9977C84.9444 67.5771 85.7964 67.156 86.968 66.5776C86.0866 66.2985 85.6331 66.1551 85.1352 65.9972C86.6985 63.93 86.6985 63.93 85.9615 62.6953C85.6177 63.029 85.3603 63.4558 85.1275 63.8957C84.6972 64.7065 84.2741 64.5505 83.8337 63.8103C83.9273 63.1473 84.0292 62.5775 84.1316 62.0072C84.0104 61.9831 83.8892 61.959 83.768 61.9343C83.5246 62.2578 83.2811 62.5818 83.0271 62.8025C82.8648 61.8571 83.315 61.4669 84.1104 61.3742C84.2311 61.464 84.3644 61.5191 84.377 61.4983C84.9609 60.5702 85.3511 59.4495 86.6575 59.2568C86.5546 59.0154 86.4517 58.774 86.3865 58.45C86.7502 58.2418 87.0762 58.1163 87.5056 58.025C89.3446 57.7126 91.0799 57.3654 92.834 57.1052C93.8376 57.6629 94.6538 58.449 95.9201 58.3862C96.3335 58.3655 96.8329 59.1916 97.2163 59.6895C97.635 60.2327 97.9127 60.886 98.3426 61.4177C99.3611 62.677 100.879 62.9049 102.339 63.2052C102.979 63.337 103.637 63.3781 104.287 63.4602C104.402 63.3457 104.518 63.2308 104.633 63.1164C104.184 62.0401 103.736 60.9633 103.275 59.8556C103.887 59.4543 105.503 59.5287 104.418 58.3317C104.819 57.802 105.141 57.377 105.572 56.9584C106.891 57.1491 108.101 57.3331 109.256 57.5924C108.91 57.7628 108.619 57.858 108.328 57.9531C108.318 58.0772 108.31 58.2013 108.301 58.3254C109.291 58.5687 110.272 58.871 111.276 59.0111C111.516 59.0449 111.831 58.5359 112.205 58.2993C115.162 59.5074 118.025 60.6934 120.852 61.9561C120.574 62.9382 121.206 63.2714 121.83 63.6461C122.146 63.8359 122.396 64.1357 122.676 64.3853C122.832 63.9923 122.988 63.5992 123.229 63.2279C124.67 64.3177 126.036 65.3747 127.38 66.4583C127.992 66.9518 128.562 67.4984 129.093 68.1097C128.277 68.3526 127.518 68.5071 126.839 68.6452C127.525 69.6669 128.079 70.8012 128.923 71.6472C129.513 72.2392 130.477 72.5303 131.326 72.7264C131.481 72.7621 131.891 71.6926 132.261 71.1711C132.653 71.6805 132.968 72.1527 133.258 72.7273C132.686 73.1267 132.139 73.4232 131.458 73.7926C131.518 74.1682 131.558 74.8124 131.731 75.4184C132.112 76.7573 132.101 77.9882 131.615 79.3672C130.939 81.2866 130.862 83.3011 132.269 85.0829C132.516 85.3963 132.672 85.8753 132.671 86.2771C132.662 89.4393 135.127 91.0753 136.897 93.1212C137.081 93.3332 137.806 93.2429 138.191 93.0811C139.116 92.6919 139.99 92.1772 140.796 91.759C141.254 92.24 141.629 92.6345 142.071 93.1101C142.162 96.8233 142.399 100.47 142.134 104.081C141.968 106.354 141.051 108.571 140.387 110.853C139.441 112.943 138.569 114.989 137.73 117.048C137.657 117.226 137.796 117.491 137.839 117.811C135.473 122.6 132.341 126.69 128.421 130.214C124.27 133.947 119.585 136.758 114.339 138.582C111.861 139.443 109.26 139.955 106.602 140.639C103.353 140.9 100.216 141.457 97.0719 140.936C94.0076 140.429 90.9664 139.783 87.8798 139.127C87.5292 138.994 87.2138 138.934 86.8483 138.801C86.4059 138.449 86.035 138.129 85.6129 137.905C85.4033 137.793 85.0995 137.859 84.744 137.835C82.0453 136.453 79.4455 135.074 76.8313 133.722C76.4981 133.549 76.0904 133.522 75.7171 133.428C75.7171 133.428 75.664 133.391 75.6867 133.28C75.026 132.741 74.3421 132.313 73.6583 131.884C73.6583 131.884 73.6018 131.847 73.6264 131.736C73.0488 131.194 72.447 130.761 71.8453 130.327C71.8453 130.327 71.7999 130.282 71.8269 130.185C71.7733 130.081 71.6931 130.074 71.613 130.067C71.613 130.067 71.5458 130.04 71.569 129.938C71.2831 129.596 70.974 129.356 70.6654 129.117ZM100.477 86.5899C101.719 86.3094 102.927 84.8936 104.201 86.4982C103.154 87.4292 102.264 88.463 102.418 89.9053C103.31 89.5325 104.038 89.0642 104.818 88.9473C105.608 88.8295 106.45 89.0588 107.571 89.1641C107.182 88.6866 107.023 88.491 106.86 88.2906C107.426 88.2428 107.927 88.2008 108.428 88.1583C108.43 88.0347 108.431 87.9111 108.432 87.7874C107.852 87.5059 107.273 87.2244 106.693 86.9429C107.503 86.5436 108.703 87.2732 108.722 85.6986C107.614 85.2239 106.125 85.7029 105.399 84.3335C105.329 84.1998 105.008 84.1462 104.803 84.1442C103.075 84.1297 101.347 84.136 99.3529 84.136C99.5591 85.2109 99.6915 85.8985 99.648 86.7126C99.648 87.3485 99.648 87.9845 99.648 88.6199C99.8605 88.6199 100.073 88.6199 100.286 88.6194C100.286 87.9478 100.286 87.2761 100.477 86.5899ZM121.946 71.6462C122.147 71.4197 122.348 71.1938 122.549 70.9678C122.216 70.9572 121.842 70.8422 121.559 70.9557C120.615 71.3352 119.697 71.7829 118.787 72.2387C118.607 72.328 118.504 72.5685 118.167 72.9818C118.949 72.9065 119.434 72.8597 119.787 72.8254C120.163 73.174 120.48 73.4685 120.797 73.7631C120.848 72.8027 120.578 71.9408 121.946 71.6462ZM105.558 95.1222C104.802 94.8074 104.045 94.492 103.159 94.1231C102.942 94.8286 102.73 95.521 102.49 96.3004C103.675 96.1328 104.627 96.0165 105.567 95.8368C105.663 95.8185 105.687 95.4182 105.558 95.1222ZM98.7159 119.53C99.2892 119.492 99.8619 119.455 100.435 119.417C100.332 118.781 100.228 118.145 100.144 117.626C99.4519 118.141 98.9231 118.513 98.4319 118.93C98.3682 118.983 98.5 119.268 98.7159 119.53ZM124.414 97.3825C123.75 97.7538 123.085 98.1256 122.421 98.4969C122.425 98.6143 122.428 98.7311 122.431 98.8485C123.085 98.9301 123.738 99.0112 124.392 99.0923C124.417 98.5863 124.443 98.0797 124.414 97.3825ZM99.3012 98.5805C99.9803 99.2888 100.619 98.9817 101.276 98.7422C100.73 98.0377 100.316 97.5027 99.762 96.7876C99.592 97.3892 99.4538 97.8803 99.3012 98.5805ZM79.3948 123.457C79.0896 123.714 78.7844 123.971 78.4791 124.227C78.498 124.347 78.5163 124.465 78.5352 124.585C79.1591 124.516 79.7831 124.448 80.5988 124.358C80.3984 123.619 80.2429 123.045 80.0874 122.472C79.9768 122.464 79.8667 122.455 79.7561 122.446C79.6474 122.72 79.5383 122.995 79.3948 123.457ZM123.53 92.2318C123.639 92.8421 123.748 93.4524 123.857 94.0628C124.709 92.7021 124.591 92.2723 123.53 92.2318ZM105.197 76.048C104.82 76.0519 104.428 75.9944 104.071 76.0813C103.843 76.1373 103.667 76.4068 103.467 76.5801C103.687 76.7013 103.902 76.909 104.13 76.9244C104.496 76.949 104.895 76.9051 105.231 76.7685C105.358 76.7168 105.348 76.3271 105.197 76.048ZM77.1636 110.027C77.1636 110.697 77.1636 111.366 77.1636 112.365C78.1135 111.246 78.0735 110.557 77.1636 110.027ZM107.022 119.316C106.671 119.38 106.32 119.445 105.968 119.509C105.984 119.625 106 119.741 106.015 119.857C106.718 120.085 107.418 120.654 108.404 119.793C107.843 119.579 107.534 119.462 107.022 119.316ZM106.009 76.1837C106.613 76.2803 107.214 76.401 107.822 76.4507C107.921 76.4589 108.048 76.1567 108.162 75.9983C107.976 75.8727 107.777 75.6255 107.609 75.6448C107.084 75.7057 106.57 75.8674 106.009 76.1837ZM78.1879 113.393C78.0913 113.051 77.9952 112.709 77.8986 112.367C77.7199 112.405 77.5412 112.444 77.363 112.483C77.4606 113.189 77.5586 113.895 77.6562 114.601C77.8373 114.589 78.0179 114.577 78.1985 114.565C78.2159 114.237 78.2333 113.91 78.1879 113.393ZM102.393 77.0664C102.602 76.9679 102.811 76.8689 103.02 76.7704C102.914 76.6212 102.816 76.3508 102.701 76.3426C102.087 76.2996 101.47 76.3223 100.853 76.3223C100.847 76.5121 100.839 76.7023 100.833 76.8921C101.279 76.951 101.726 77.0104 102.393 77.0664ZM96.0142 119.652C96.6353 119.7 97.2569 119.748 98.0277 119.807C97.4737 118.718 96.9183 118.698 96.0142 119.652ZM79.2142 118.803C79.0244 118.357 78.8346 117.911 78.6448 117.464C78.4844 117.527 78.3241 117.59 78.1638 117.653C78.2777 118.164 78.3507 118.689 78.5289 119.177C78.5873 119.337 78.9181 119.398 79.1248 119.505C79.1746 119.332 79.2248 119.159 79.2142 118.803ZM79.0877 120.107C78.6274 120.977 78.9148 121.601 79.5257 122.117C79.6836 122.063 79.8411 122.009 79.999 121.956C79.7575 121.351 79.5165 120.745 79.0877 120.107ZM82.3123 129.947C82.1554 130.226 81.8159 130.56 81.8796 130.772C82.011 131.206 82.3587 131.576 82.6171 131.972C82.7465 131.888 82.876 131.805 83.0049 131.721C82.8199 131.174 82.6354 130.628 82.3123 129.947ZM119.524 68.229C119.26 67.7331 118.998 67.2372 118.734 66.7413C118.581 66.8195 118.427 66.8972 118.273 66.975C118.439 67.4713 118.569 67.9861 118.801 68.4487C118.848 68.5409 119.291 68.4337 119.524 68.229ZM123.57 85.305C123.449 84.9583 123.33 84.6112 123.209 84.2645C123.059 84.2823 122.91 84.2997 122.76 84.3176C122.76 84.7734 122.699 85.2403 122.784 85.6797C122.829 85.911 123.126 86.0936 123.309 86.2978C123.42 86.0308 123.531 85.7642 123.57 85.305ZM123.462 89.4886C123.488 90.1463 123.513 90.8044 123.539 91.4625C123.706 91.4466 123.873 91.4302 124.04 91.4138C124.133 90.7358 124.72 90.0101 123.462 89.4886ZM123.906 88.6426C123.924 87.9463 124.204 87.11 123.352 86.8782C123.162 86.9801 122.972 87.082 122.782 87.1839C123.115 87.7237 123.448 88.2636 123.906 88.6426ZM84.2369 136.691C85.0536 136.117 84.8749 135.393 83.4965 134.685C83.7462 135.441 83.9302 135.999 84.2369 136.691ZM85.9244 121.756C86.6937 121.788 87.4365 121.778 87.6451 120.938C87.5485 120.789 87.4515 120.641 87.3549 120.492C86.8343 120.87 86.3136 121.248 85.9244 121.756ZM95.0083 119.974C94.9817 119.694 94.9551 119.414 94.9291 119.133C94.3935 119.251 93.8583 119.369 93.3232 119.488C93.3314 119.635 93.3396 119.782 93.3479 119.929C93.8381 119.966 94.3287 120.003 95.0083 119.974ZM118.665 65.7065C118.481 65.2193 118.297 64.7325 118.113 64.2453C117.946 64.2888 117.78 64.3322 117.613 64.3752C117.741 64.9305 117.862 65.4882 118.028 66.0319C118.034 66.0512 118.484 65.9354 118.665 65.7065ZM124.071 69.6148C123.703 69.8562 123.335 70.0981 122.967 70.3396C122.993 70.4511 123.018 70.5627 123.043 70.6742C123.369 70.6476 123.743 70.7119 124.01 70.5718C124.352 70.3927 124.607 70.0494 124.9 69.777C124.672 69.6882 124.445 69.5989 124.071 69.6148ZM78.6588 115.899C78.4864 115.605 78.3135 115.312 78.1411 115.019C78.0121 115.111 77.7639 115.219 77.7735 115.293C77.8479 115.864 77.972 116.428 78.0812 116.995C78.2145 116.989 78.3483 116.984 78.4816 116.979C78.5424 116.689 78.6033 116.399 78.6588 115.899ZM120.667 75.0779C120.82 75.484 120.974 75.8901 121.127 76.2962C121.288 76.2663 121.449 76.2358 121.61 76.2054C121.505 75.6168 121.399 75.0282 121.294 74.4396C121.073 74.5854 120.851 74.7317 120.667 75.0779ZM111.746 75.5241C112.221 75.3599 112.697 75.1962 113.173 75.0325C113.13 74.8539 113.087 74.6752 113.044 74.4966C112.45 74.6289 111.857 74.7607 111.263 74.893C111.356 75.1016 111.449 75.3107 111.746 75.5241ZM110.518 75.6163C110.116 74.9572 109.38 75.0683 108.688 76.2305C109.265 76.0799 109.842 75.9297 110.518 75.6163ZM123.181 83.3079C123.03 82.7637 122.878 82.2195 122.726 81.6753C122.55 81.7227 122.374 81.7705 122.198 81.8183C122.305 82.3982 122.403 82.9805 122.546 83.5518C122.555 83.5841 122.933 83.5242 123.181 83.3079ZM73.1555 127.857C73.4178 127.742 73.68 127.627 73.9423 127.511C73.793 127.321 73.6438 127.129 73.4946 126.938C72.902 127.257 72.3089 127.576 71.7163 127.895C71.7844 128.044 71.853 128.194 71.9216 128.343C72.2809 128.216 72.6402 128.088 73.1555 127.857ZM123.387 125.225C123.327 125.429 123.193 125.802 123.218 125.814C123.731 126.04 124.264 126.225 124.792 126.418C124.856 126.255 124.92 126.093 124.984 125.93C124.513 125.697 124.042 125.464 123.387 125.225ZM119.834 69.5023C119.609 69.5549 119.386 69.6071 119.162 69.6597C119.401 70.1754 119.64 70.6911 119.878 71.2063C120.037 71.1373 120.197 71.0682 120.356 70.9987C120.224 70.5482 120.091 70.0977 119.834 69.5023ZM77.039 124.753C76.8018 124.991 76.5647 125.229 76.3276 125.466C76.4039 125.573 76.4802 125.679 76.5565 125.786C76.9206 125.642 77.3128 125.543 77.6378 125.338C77.8397 125.211 77.9392 124.922 78.085 124.705C77.7953 124.695 77.5055 124.685 77.039 124.753Z" fill="#59CCD2"/>
<path d="M92.8161 57.0178C91.0809 57.3655 89.3452 57.7126 87.5099 57.9092C87.409 56.9782 87.408 56.1974 87.409 55.3302C87.3283 55.0453 87.2462 54.8468 87.1641 54.6484C87.1641 54.6484 87.1636 54.6749 87.2414 54.659C87.6857 53.8811 88.0532 53.1196 88.4304 52.3379C88.0943 52.2451 87.749 52.1495 87.4032 52.0544C87.4051 50.1292 87.3786 48.2011 88.4937 46.4924C89.7648 44.544 91.589 43.6021 93.8825 43.6C106.236 43.5886 118.588 43.5946 130.941 43.5946C141.664 43.5946 152.387 43.5938 163.11 43.5951C166.716 43.5956 169.513 46.3867 169.514 50.0186C169.518 82.4615 169.515 114.905 169.518 147.348C169.518 149.766 168.388 151.578 166.237 153.166C167.44 153.272 168.365 153.354 169.289 153.436C169.292 153.574 169.296 153.711 169.299 153.849C167.782 154.007 166.268 154.277 164.749 154.305C157.771 154.434 150.791 154.517 143.812 154.577C131.43 154.682 119.048 154.797 106.665 154.83C101.188 154.844 95.71 154.709 90.2348 154.564C86.7401 154.472 83.2493 154.243 79.7575 154.054C79.3866 154.034 79.0234 153.87 78.6569 153.773C78.6521 153.639 78.6472 153.505 78.6424 153.371C82.4254 153.173 86.2084 152.975 90.2314 152.765C87.4573 150.688 87.2955 147.899 87.4182 144.794C87.4211 144.304 87.4167 144.037 87.4119 143.77C87.3235 143.236 87.2351 142.702 87.155 141.956C87.0743 140.969 86.985 140.194 86.9999 139.405C87.3742 139.327 87.6452 139.263 87.9156 139.199C90.9669 139.783 94.0086 140.429 97.0724 140.936C100.217 141.457 103.354 140.9 106.722 140.654C108.841 140.646 110.729 140.597 112.615 140.652C113.206 140.669 113.79 140.964 114.501 141.166C115.418 140.263 119.913 140.32 120.586 141.072C122.623 140.909 124.373 140.653 126.124 140.647C136.589 140.609 147.055 140.63 157.52 140.627C161.887 140.626 163.837 138.691 163.837 134.372C163.837 108.924 163.813 83.4764 163.867 58.0289C163.874 54.8246 161.712 52.2186 158.152 52.2495C143.956 52.3712 129.758 52.2983 115.561 52.3031C115.093 52.3036 114.625 52.3625 114.045 52.3799C113.327 52.3572 112.721 52.349 112.026 52.3292C111.136 52.2635 110.403 51.278 109.46 52.0829C108.744 51.6551 108.106 51.2862 107.174 50.7487C107.174 51.6 107.174 51.9598 107.058 52.3103C105.14 52.3012 103.338 52.3306 101.539 52.277C101.115 52.264 100.7 51.9699 100.281 51.8057C100.641 51.6073 101.006 51.4136 101.361 51.206C101.423 51.1698 101.449 51.0727 101.699 50.6696C100.865 50.6295 100.212 50.5981 99.5456 50.5662C99.4891 51.236 99.45 51.6947 99.3983 52.305C98.8879 52.305 98.4286 52.3045 97.9693 52.305C96.389 52.3069 95.116 53.0057 94.252 54.2592C93.7086 55.0482 93.4517 56.0342 93.0035 56.9531C92.8997 56.9888 92.8577 57.0033 92.8161 57.0178ZM129.354 142.999C128.926 142.997 128.496 142.975 128.069 142.998C126.207 143.098 124.489 144.693 124.23 146.545C123.964 148.45 125.349 150.692 127.112 151.21C129.228 151.831 131.221 151.071 132.146 149.29C133.507 146.667 132.528 144.286 129.354 142.999ZM114.042 144.281C114.508 144.083 114.974 143.886 115.439 143.689C115.407 143.556 115.374 143.422 115.342 143.289C114.809 143.312 114.276 143.336 113.885 143.353C113.846 142.816 113.81 142.301 113.773 141.785C113.368 142.271 112.964 142.756 112.475 143.343C113.043 143.74 113.445 144.02 114.042 144.281ZM104.442 146.277C104.775 146.132 105.107 145.986 105.44 145.841C105.396 145.672 105.351 145.504 105.307 145.336C104.612 145.422 103.918 145.509 103.223 145.595C103.214 145.746 103.204 145.897 103.195 146.047C103.544 146.133 103.893 146.219 104.442 146.277ZM103.397 50.5836C102.949 50.6377 102.5 50.6922 102.052 50.7463C102.059 50.911 102.067 51.0752 102.074 51.2398C102.502 51.3393 102.927 51.4914 103.359 51.5184C103.595 51.5329 103.844 51.3359 104.087 51.2345C103.927 51.0259 103.767 50.8178 103.397 50.5836ZM92.5732 51.8729C93.67 51.769 93.67 51.769 93.6802 50.9501C93.1784 51.0032 92.6722 51.0143 92.1912 51.1302C92.0275 51.1698 91.9275 51.474 91.7986 51.6575C91.9917 51.7449 92.1854 51.8323 92.5732 51.8729ZM106.703 145.077C106.381 145.204 106.06 145.331 105.738 145.458C105.77 145.625 105.802 145.793 105.834 145.96C106.537 145.893 107.24 145.825 107.943 145.757C107.95 145.59 107.958 145.422 107.965 145.254C107.614 145.19 107.262 145.125 106.703 145.077ZM92.1419 145.042C91.6117 144.964 91.0819 144.886 90.5516 144.808C90.5153 145.007 90.4791 145.206 90.4429 145.405C91.0297 145.533 91.6165 145.662 92.2033 145.79C92.2467 145.562 92.2897 145.334 92.1419 145.042ZM89.5775 144.531C89.053 144.448 88.5285 144.365 88.0045 144.282C87.9673 144.481 87.9301 144.681 87.8929 144.88C88.4821 145.012 89.0718 145.144 89.6615 145.277C89.6982 145.049 89.7349 144.821 89.5775 144.531ZM97.624 145.953C96.9338 145.21 96.2326 145.539 95.5328 145.711C95.5333 145.896 95.5342 146.081 95.5347 146.265C96.2152 146.228 96.8957 146.191 97.624 145.953ZM105.514 50.8183C105.215 50.9279 104.915 51.0375 104.615 51.1476C104.644 51.2756 104.673 51.404 104.702 51.5324C105.343 51.615 105.983 51.6981 106.624 51.7806C106.666 51.6145 106.707 51.4489 106.749 51.2828C106.407 51.1336 106.066 50.9839 105.514 50.8183ZM89.3036 52.1944C90.1019 52.4861 90.7882 52.4354 91.2673 51.7492C91.2084 51.5793 91.1495 51.4093 91.0905 51.2393C90.4762 51.4919 89.8619 51.7449 89.3036 52.1944ZM93.9719 145.297C93.6623 145.357 93.3532 145.417 93.0436 145.477C93.0591 145.62 93.074 145.763 93.0895 145.906C93.742 145.906 94.394 145.906 95.0459 145.906C95.0686 145.787 95.0909 145.668 95.1136 145.548C94.8069 145.466 94.5002 145.384 93.9719 145.297Z" fill="#2F2F2F"/>
<path d="M83.8424 63.903C84.2746 64.5505 84.6972 64.7065 85.1275 63.8952C85.3608 63.4558 85.6177 63.029 85.962 62.6953C86.6986 63.93 86.6986 63.93 85.1357 65.9972C85.6336 66.1551 86.0871 66.2985 86.968 66.5776C85.7969 67.156 84.9445 67.5771 84.0925 67.9977C84.0607 67.9117 84.0288 67.8258 83.9974 67.7398C82.8257 68.9876 81.6541 70.2358 80.4085 71.5733C80.3351 71.6626 80.212 71.6646 80.1197 71.6549C79.616 71.5014 79.2055 71.357 78.7945 71.2126C78.6033 71.4371 78.4125 71.6617 78.2217 71.8862C78.6144 72.0209 79.0466 72.0948 79.3871 72.3121C79.617 72.4594 79.8947 72.851 79.8454 73.061C79.6247 73.9954 80.3095 73.6337 80.6862 73.7163C81.6212 73.9722 82.5567 74.2286 83.6047 74.5149C83.5139 73.9683 83.4719 73.7182 83.4149 73.3739C84.7421 73.8085 85.9514 74.2044 87.1574 74.5989C88.3184 73.2329 89.2495 72.0291 88.316 70.2445C88.0175 69.6742 88.0001 68.9074 88.0146 68.2338C88.0339 67.3733 88.47 66.7905 89.4466 66.7664C91.0026 66.7287 92.3182 67.1754 93.1441 68.6935C93.3107 68.779 93.4773 68.8644 93.6439 68.9499C93.9197 68.4694 94.1607 67.9639 94.4785 67.5129C95.2217 66.4559 95.6921 66.4506 96.2939 67.5819C96.7937 68.5216 97.4366 69.1957 98.5189 69.2821C98.941 69.3159 99.378 69.1633 99.8441 69.0899C100.105 69.2879 100.423 69.652 100.821 69.8046C101.816 70.186 101.712 70.7964 101.131 71.3628C100.417 72.0591 100.035 73.047 98.7661 73.2662C97.6017 73.4676 96.5571 74.2614 96.8338 75.9307C96.4803 76.1354 96.2128 76.2049 95.9901 76.3455C95.951 76.3706 96.0466 76.7458 96.1703 76.8679C96.6498 77.3431 97.4481 77.0432 97.7041 76.3136C99.2877 76.2904 99.2877 76.2904 99.9146 74.0866C100.047 74.766 100.179 75.4459 100.206 76.2508C99.9025 76.6159 99.7036 76.8559 99.5046 77.0958C98.8371 77.6671 98.1697 78.2383 97.4071 78.8911C97.2656 78.4879 97.1618 78.1915 97.0178 77.7834C95.6482 78.4894 94.7209 79.5015 94.2505 80.8815C93.5343 82.9825 92.933 85.123 92.1902 87.2143C91.8787 88.0912 91.3919 88.9241 90.879 89.7078C89.7672 91.4065 89.6339 93.0352 90.9766 94.6722C91.2176 94.9662 91.4329 95.3129 91.5455 95.6712C91.6503 96.0054 91.603 96.3878 91.6223 96.7485C91.2282 96.6992 90.8148 96.7045 90.4468 96.5785C90.2376 96.5066 90.073 96.2381 89.9372 96.0271C88.6545 94.0319 88.7429 94.4438 86.911 95.3419C85.4274 96.0691 84.0114 96.9354 82.4442 97.8079C82.8591 98.1884 83.0691 98.3811 83.5893 98.8581C81.8535 98.7302 80.7626 99.3086 80.7693 100.779C80.7741 101.879 81.1291 103.008 81.501 104.063C81.685 104.586 82.2336 104.997 82.661 105.414C84.4509 107.161 85.6877 106.901 86.6102 104.619C86.8661 103.985 87.0864 103.311 87.4766 102.765C87.8074 102.301 88.3599 101.997 88.8139 101.623C88.9008 101.698 88.9878 101.773 89.0747 101.849C88.9501 102.623 88.7274 103.397 88.7241 104.172C88.7187 105.393 89.123 105.606 90.2623 105.141C90.3811 105.092 90.4951 105.032 90.6119 104.978C92.6017 104.074 92.6259 104.066 93.3372 106.102C93.7159 107.185 94.321 107.648 95.4734 107.228C96.235 106.95 97.0256 106.753 97.7983 106.503C99.3906 105.991 99.7412 105.413 99.5543 103.723C99.5089 103.315 99.5476 102.899 99.7803 102.426C99.9223 102.68 100.064 102.933 100.338 103.423C100.589 102.948 100.806 102.538 101.022 102.128C101.148 102.194 101.273 102.26 101.398 102.326C101.488 102.657 101.577 102.988 101.679 103.363C101.738 103.272 101.805 103.194 101.844 103.104C102.343 101.94 103.085 101.323 104.452 101.745C104.803 101.854 105.353 101.731 105.655 101.505C107.079 100.446 108.69 100.445 110.329 100.552C111.989 100.66 113.662 100.708 115.304 100.954C117.403 101.268 117.489 101.447 117.615 103.688C118.534 103.529 119.424 103.296 120.325 103.237C122.139 103.119 123.959 103.051 125.777 103.053C126.794 103.054 127.225 103.707 127.049 104.7C126.542 107.557 126.098 110.431 125.446 113.255C125.267 114.033 124.553 114.795 123.895 115.328C122.962 116.085 122.553 116.912 122.386 118.118C122.182 119.595 121.565 121.016 121.035 122.592C120.455 122.954 119.967 123.186 119.471 123.421C119.701 123.81 119.889 124.129 120.077 124.448C120.061 124.566 120.045 124.684 119.953 124.931C119.697 125.379 119.517 125.697 119.337 126.015C119.072 126.762 118.808 127.511 118.544 128.259C118.672 128.309 118.801 128.358 118.929 128.409C119.14 128.143 119.351 127.878 119.694 127.449C119.862 128.616 119.387 129.186 118.561 129.762C118.244 130.589 118.008 131.268 117.771 131.948C116.425 129.639 115.04 127.352 113.755 125.01C113.374 124.314 113.374 123.414 113.018 122.697C112.665 121.985 112.084 121.387 111.547 120.662C111.471 120.702 111.725 120.57 112.009 120.422C111.638 118.735 110.205 118.778 108.937 118.542C107.893 118.348 106.858 117.99 105.812 117.964C104.985 117.944 104.148 118.318 103.146 118.523C102.858 118.449 102.738 118.368 102.618 118.287C102.829 117.826 103.041 117.364 103.295 116.809C102.661 116.484 102.015 116.043 101.302 115.812C99.9049 115.36 99.1694 113.256 99.3867 111.929C99.5674 110.826 99.9614 109.7 99.5002 108.528C98.9559 107.144 97.8152 106.871 96.7672 107.888C96.5103 108.136 95.9974 108.222 95.6057 108.214C92.961 108.161 90.313 108.127 87.6746 107.955C85.9123 107.841 84.2949 108.15 82.7156 108.905C82.1095 109.195 81.4353 109.392 80.7708 109.499C79.1287 109.765 78.2174 108.792 77.4683 107.458C77.3746 107.458 77.3906 107.454 77.3906 107.454C77.2336 107.215 77.1042 106.794 76.9163 106.766C75.1873 106.509 74.2422 105.176 73.0903 104.108C72.5272 103.586 71.8704 103.166 71.1204 102.859C71.9114 105.196 74.2654 106.039 75.8393 107.917C75.3409 107.917 74.8956 108.049 74.7469 107.895C73.8578 106.973 72.5441 106.534 71.8907 105.348C71.7299 105.056 71.4604 104.821 71.2295 104.57C70.0975 103.344 69.0234 102.055 67.8112 100.913C66.256 99.4482 65.8407 97.6162 65.8074 95.6181C65.7799 93.9459 65.5997 92.2453 65.833 90.6069C66.3275 87.1361 65.0284 83.7521 65.5152 80.2823C65.6161 79.5647 64.9728 78.7424 64.6043 77.7921C63.8761 78.8274 63.2443 79.7255 62.5272 80.5527C62.6141 79.7651 62.786 79.0476 62.9584 78.3305C62.9584 78.3305 62.9768 78.2233 63.0623 78.1577C63.1849 77.9225 63.2226 77.753 63.2603 77.5835C64.3006 75.9708 65.3404 74.3585 66.5463 72.7013C66.8312 72.4907 66.9505 72.3251 67.0703 72.159C67.0703 72.159 67.0747 72.1769 67.1403 72.1426C67.2524 71.9615 67.2987 71.8147 67.3446 71.6679C67.3446 71.6679 67.3369 71.6631 67.4093 71.6564C67.5214 71.5709 67.5605 71.4912 67.5996 71.4115C67.5996 71.4115 67.5938 71.4057 67.6668 71.399C67.7778 71.3116 67.817 71.2314 67.8556 71.1513C67.8556 71.1513 67.8512 71.1484 67.9227 71.1392C68.0328 71.0494 68.0715 70.9683 68.1101 70.8871C68.1101 70.8871 68.1096 70.8925 68.1743 70.8756C68.2811 70.779 68.3226 70.6998 68.3641 70.6201C68.3641 70.6201 68.367 70.6341 68.4264 70.6134C68.5303 70.5149 68.5752 70.4371 68.6201 70.3594C68.6201 70.3594 68.6225 70.3758 68.6887 70.342C68.8003 70.1614 68.8457 70.0146 68.8915 69.8678C68.8915 69.8678 68.8809 69.8606 68.9548 69.8543C69.0668 69.7688 69.1055 69.6892 69.1441 69.61C69.1441 69.61 69.1383 69.6032 69.2112 69.5969C69.3233 69.511 69.3619 69.4313 69.4011 69.3521C69.4011 69.3521 69.3953 69.3454 69.4682 69.3391C69.5802 69.2531 69.6193 69.1735 69.6585 69.0943C69.6585 69.0943 69.6527 69.088 69.7256 69.0817C69.8372 68.9958 69.8763 68.9161 69.9154 68.8364C69.9154 68.8364 69.9101 68.8306 69.983 68.8239C70.0946 68.7374 70.1337 68.6578 70.1723 68.5781C70.1723 68.5781 70.1675 68.5728 70.2399 68.566C70.3515 68.4796 70.3901 68.3994 70.4293 68.3193C70.4293 68.3193 70.4249 68.3154 70.4969 68.3086C70.6084 68.2222 70.6476 68.1421 70.6867 68.0624C70.6867 68.0624 70.6823 68.0585 70.7654 68.0691C70.9658 67.9803 71.0832 67.8799 71.2252 67.7138C71.3884 67.5274 71.5275 67.4066 71.7598 67.2898C71.9781 67.2908 72.1022 67.2883 72.2466 67.3395C72.3442 67.3613 72.4215 67.3294 72.4934 67.2912C72.4881 67.285 72.4871 67.3009 72.5712 67.3019C72.7948 67.2145 72.9348 67.1271 73.1164 67.0252C73.2135 66.9808 73.2507 66.9363 73.3618 66.8296C74.2021 66.847 75.2366 66.6297 75.6389 67.0373C76.3778 67.7862 76.9052 67.933 77.7518 67.3782C79.0606 66.5201 80.2506 65.3815 81.9917 65.5351C82.1689 65.8248 82.3365 66.0145 82.5036 66.2043C82.7514 65.7905 83.031 65.3897 83.2126 64.9489C83.2382 64.8856 82.7919 64.6278 82.5089 64.3815C82.2307 63.8508 82.0076 63.3989 81.7526 62.8822C81.5367 62.8136 81.1663 62.6963 80.8128 62.5843C81.0876 62.1135 81.3011 61.7479 81.6072 61.3631C82.4882 61.0883 83.2759 60.8324 84.0645 60.6678C84.066 60.9411 84.066 61.1226 84.0664 61.3037C83.315 61.4669 82.8649 61.8571 83.0257 62.9044C83.3039 63.3737 83.5729 63.6384 83.8424 63.903ZM76.145 98.7471C76.8965 99.6515 77.4727 98.9108 77.605 99.0175C77.2182 98.495 76.8313 97.9725 76.3937 97.3815C76.6067 97.2574 76.4923 97.284 76.4734 97.3414C76.344 97.7398 76.2349 98.1449 76.145 98.7471ZM77.1945 92.1183C76.2242 92.4896 76.09 93.0208 76.9453 94.382C77.1051 93.4766 77.2114 92.8759 77.1945 92.1183ZM123.454 105.626C123.519 106.058 123.585 106.49 123.65 106.922C123.789 106.916 123.929 106.911 124.068 106.906C124.19 106.271 124.312 105.637 124.435 105.003C124.334 104.945 124.232 104.887 124.131 104.828C123.915 105.025 123.699 105.222 123.454 105.626ZM82.4481 66.9986C81.0716 66.9523 81.5971 68.0479 81.3025 68.651C81.4401 68.7307 81.5778 68.8099 81.7149 68.8895C81.9724 68.3207 82.2293 67.7524 82.4481 66.9986ZM77.4166 90.4394C77.4142 90.1318 77.4118 89.8242 77.4094 89.5166C77.2162 89.5601 76.868 89.576 76.854 89.6518C76.7502 90.2341 76.7106 90.8281 76.6512 91.4186C76.8173 91.4413 76.9834 91.464 77.1496 91.4862C77.2283 91.2052 77.3065 90.9237 77.4166 90.4394ZM116.926 122.081C116.655 122.067 116.385 122.052 116.115 122.038C116.111 122.19 116.061 122.458 116.11 122.478C116.677 122.704 117.259 122.893 117.837 123.092C117.897 122.926 117.958 122.761 118.018 122.595C117.716 122.44 117.413 122.284 116.926 122.081ZM77.6166 88.4707C77.675 87.9623 77.7335 87.4543 77.7919 86.9458C77.6306 86.9028 77.4693 86.8604 77.308 86.8174C77.1626 87.3534 77.0042 87.8869 76.9037 88.4311C76.897 88.4673 77.335 88.5852 77.6166 88.4707ZM93.755 76.5603C94.2747 76.6024 94.7943 76.6444 95.314 76.6864C95.3265 76.5319 95.3391 76.3778 95.3516 76.2238C94.8827 76.0837 94.4195 75.9032 93.9404 75.8385C93.8477 75.8259 93.6937 76.2634 93.755 76.5603ZM123.922 110.466C123.712 110.378 123.345 110.177 123.315 110.22C122.88 110.821 122.68 111.446 123.446 112.228C123.625 111.596 123.757 111.129 123.922 110.466ZM123.25 109.257C123.459 109.268 123.842 109.32 123.85 109.284C123.986 108.713 124.072 108.132 124.17 107.552C123.978 107.514 123.787 107.475 123.595 107.436C123.464 107.978 123.334 108.52 123.25 109.257ZM77.8165 83.6536C78.1309 83.0863 78.4453 82.5194 78.7602 81.952C78.6153 81.8839 78.47 81.8154 78.3251 81.7473C77.4674 82.052 77.6263 82.7946 77.8165 83.6536Z" fill="#C7F3F6"/>
<path d="M62.8725 78.3653C62.7865 79.0476 62.6141 79.7651 62.4446 80.5831C62.447 80.6835 62.4451 80.6748 62.3842 80.7067C62.3654 80.8921 62.4074 81.0452 62.4499 81.1983C62.0925 82.0679 61.8732 83.0327 61.3536 83.7913C58.9837 87.2524 58.7678 91.2631 58.3506 95.2144C58.2298 96.353 58.4641 97.5254 58.4631 98.6819C58.4626 99.918 58.2829 101.158 58.3438 102.389C58.578 107.14 59.8434 111.647 61.8177 115.95C62.7725 118.031 63.8847 120.04 64.8666 122.166C60.052 115.391 57.8439 107.723 57.5571 99.2227C57.5474 98.7278 57.5411 98.4516 57.5349 98.1758C57.7353 91.3911 59.2865 84.9506 62.4388 78.9187C62.5344 78.7357 62.6696 78.5729 62.8725 78.3653Z" fill="#79D7DC"/>
<path d="M71.6666 67.2859C71.5275 67.4067 71.3884 67.5274 71.159 67.7205C71.0243 67.7857 70.9808 67.7789 70.9369 67.7717C69.6512 66.8518 68.3661 65.932 66.9462 64.9165C65.9986 65.8972 64.8318 67.1049 63.5737 68.3091C63.4829 68.3062 63.4989 68.3212 63.4718 68.2372C63.2762 68.1155 63.1077 68.0778 62.9488 68.0489C62.9585 68.0576 62.9768 68.0754 62.9768 68.0754C63.383 67.312 63.5597 66.4665 64.6628 66.1638C65.1911 66.0189 65.4524 65.0237 65.9146 64.481C66.443 63.8605 67.0085 63.2487 67.6479 62.7489C69.7502 61.1053 71.8902 59.5099 74.0287 57.9135C74.1442 57.8271 74.3798 57.9024 74.6368 57.9135C74.7136 57.9246 74.6981 57.9072 74.6981 57.9072C74.5639 58.2848 74.5412 58.8575 74.2775 59.0082C72.6736 59.9242 71.3058 61.1352 69.8468 62.2371C69.0079 62.8706 68.3386 63.5954 67.6817 64.284C68.9698 65.1884 70.253 66.0899 71.6149 67.0856C71.6932 67.1797 71.6666 67.2859 71.6666 67.2859Z" fill="white"/>
<path d="M67.264 131.07C67.2157 133.701 69.6169 134.367 71.1006 135.71C72.348 136.839 73.8882 137.641 75.2699 138.628C75.5259 138.811 75.6461 139.185 75.8297 139.559C75.8306 139.648 75.8495 139.629 75.8495 139.629C75.5935 139.635 75.2665 139.748 75.0932 139.631C73.8626 138.805 72.6557 137.941 71.456 137.068C70.6582 136.487 69.8541 135.908 69.1069 135.265C67.9247 134.249 66.7854 133.183 65.6417 132.124C65.5944 132.08 65.6837 131.89 65.6243 131.709C65.5393 131.651 65.5118 131.669 65.5857 131.746C65.7968 131.678 65.9344 131.533 66.0634 131.398C66.0547 131.406 66.0392 131.426 66.0392 131.426C66.398 131.332 66.7564 131.239 67.1993 131.118C67.2838 131.091 67.264 131.07 67.264 131.07Z" fill="white"/>
<path d="M65.5509 131.64C64.7879 130.99 63.8505 130.473 63.2685 129.691C61.3855 127.16 59.6314 124.534 57.8401 121.935C57.8015 121.878 57.9125 121.718 57.9661 121.53C57.9777 121.452 57.9613 121.467 57.9613 121.467C58.8813 120.996 59.0359 121.911 59.3261 122.327C60.9759 124.694 62.5219 127.134 64.1823 129.493C64.6599 130.172 65.3993 130.666 66.0291 131.335C66.0392 131.426 66.0547 131.406 65.975 131.406C65.7678 131.494 65.6398 131.581 65.5118 131.669C65.5118 131.669 65.5394 131.651 65.5509 131.64Z" fill="white"/>
<path d="M71.7603 67.2898C71.6666 67.2859 71.6936 67.1797 71.6975 67.1251C74.9125 64.1565 78.4946 61.8083 82.4413 60.0154C82.9305 59.7928 83.4222 59.5755 83.9964 59.4611C84.0751 59.9029 84.0698 60.2395 84.064 60.5765C83.2763 60.8324 82.4886 61.0883 81.5541 61.3066C80.3356 61.8445 79.3074 62.536 78.1788 62.9604C77.1114 63.3617 76.812 64.6398 75.4626 64.8388C74.6493 64.9585 73.9959 66.1609 73.2705 66.8769C73.2512 66.9363 73.214 66.9808 73.0285 67.0237C72.7615 67.1242 72.6243 67.2125 72.4876 67.3009C72.4876 67.3009 72.4886 67.285 72.4258 67.2859C72.3181 67.2864 72.2727 67.2859 72.2273 67.2854C72.1027 67.2883 71.9781 67.2908 71.7603 67.2898Z" fill="#7FDADF"/>
<path d="M81.7415 54.9458C80.3917 55.6228 79.0379 56.2925 77.6934 56.9801C77.0028 57.3331 76.3406 57.746 75.6375 58.0704C75.4399 58.1617 75.1424 58.0366 74.7947 57.9589C74.6981 57.9072 74.7136 57.9246 74.7198 57.9294C74.9903 57.6194 75.1922 57.1892 75.5278 57.0086C77.4041 56.0009 79.3127 55.0535 81.316 54.0318C81.4271 54.3857 81.5063 54.6382 81.6734 54.9231C81.7613 54.9555 81.7415 54.9458 81.7415 54.9458Z" fill="white"/>
<path d="M61.9056 70.3459C61.0933 71.6457 60.2959 72.9557 59.4469 74.231C59.3585 74.3633 58.9625 74.2904 58.6389 74.3976C58.5684 74.4821 58.5916 74.5048 58.5916 74.5048C58.9692 72.7375 60.039 71.3888 61.3275 70.1189C61.414 70.1179 61.3951 70.1006 61.428 70.1991C61.6255 70.3256 61.7902 70.3531 61.9418 70.3734C61.9288 70.3657 61.9056 70.3459 61.9056 70.3459Z" fill="white"/>
<path d="M75.7659 133.492C76.0909 133.522 76.499 133.549 76.8318 133.722C79.446 135.074 82.0462 136.453 84.7445 137.834C84.8387 137.844 84.8387 137.844 84.7928 137.909C84.5972 138.021 84.4475 138.068 84.2973 138.115C81.4696 136.595 78.6419 135.076 75.7659 133.492Z" fill="#70D4DA"/>
<path d="M84.0645 60.6678C84.0693 60.2395 84.0751 59.9029 84.0925 59.4654C84.1046 59.3645 84.2007 59.3225 84.3412 59.3196C84.6861 59.2303 84.8899 59.1438 85.1439 58.9927C85.4187 58.7875 85.6438 58.6465 85.9471 58.5296C86.133 58.547 86.2412 58.5398 86.3494 58.5325C86.4522 58.774 86.5551 59.0154 86.658 59.2564C85.3516 59.4495 84.9614 60.5702 84.3775 61.4983C84.3644 61.5191 84.2316 61.464 84.1104 61.3737C84.0664 61.1221 84.066 60.9411 84.0645 60.6678Z" fill="#B2EAED"/>
<path d="M87.3042 52.0684C87.7485 52.1495 88.0943 52.2451 88.4299 52.3379C88.0528 53.1196 87.6857 53.8811 87.2279 54.6604C86.6701 53.4185 86.6937 52.5271 87.3042 52.0684Z" fill="#EDEDED"/>
<path d="M86.8956 139.419C86.9844 140.194 87.0738 140.969 87.1588 141.853C86.572 141.246 85.9896 140.529 85.4076 139.813C85.6278 139.648 85.8485 139.484 86.1509 139.236C86.2774 139.154 86.3218 139.157 86.4044 139.224C86.5875 139.327 86.7323 139.364 86.8806 139.407C86.8845 139.412 86.8956 139.419 86.8956 139.419Z" fill="white"/>
<path d="M63.48 68.2956C63.0135 68.9726 62.5499 69.6602 61.9954 70.3468C61.9051 70.3459 61.9283 70.3657 61.9143 70.2894C61.7317 70.1759 61.5632 70.1382 61.3951 70.1006C61.3951 70.1006 61.4135 70.1184 61.4222 70.1276C61.8824 69.4448 62.334 68.7524 62.8812 68.0677C62.9768 68.0754 62.9584 68.0576 62.9816 68.1474C63.1695 68.2657 63.3342 68.2932 63.4989 68.3212C63.4989 68.3212 63.4829 68.3062 63.48 68.2956Z" fill="white"/>
<path d="M57.5759 76.8341C56.8959 75.7177 57.8304 75.1721 58.4959 74.5014C58.5911 74.5048 58.5679 74.4821 58.5553 74.4715C59.2315 75.0973 58.9687 75.8534 57.6416 76.8134C57.5561 76.8153 57.5759 76.8341 57.5759 76.8341Z" fill="white"/>
<path d="M78.1237 140.704C76.9907 141.367 76.4527 140.486 75.8403 139.725C75.849 139.629 75.8301 139.648 75.8214 139.659C76.3908 139.111 77.4673 139.519 78.1217 140.639C78.1024 140.724 78.1237 140.704 78.1237 140.704Z" fill="white"/>
<path d="M80.4496 141.718C81.4285 141.691 82.4012 141.678 82.7489 142.964C82.7243 143.055 82.7455 143.036 82.7455 143.036C81.8057 143.255 80.721 142.706 80.4665 141.79C80.4679 141.698 80.4496 141.718 80.4496 141.718Z" fill="white"/>
<path d="M82.7147 143.066C83.0353 142.951 83.384 142.687 83.6917 142.729C84.3538 142.819 85.1434 142.896 85.0671 144.247C84.2234 143.868 83.5024 143.544 82.7634 143.128C82.7456 143.036 82.7243 143.055 82.7147 143.066Z" fill="white"/>
<path d="M81.7637 54.9661C81.7661 54.6778 81.7661 54.3794 81.7661 53.8183C82.4423 53.7314 83.144 53.6416 83.9288 53.5648C84.0119 53.5779 83.9926 53.5566 83.9926 53.5566C83.8612 54.9738 82.6644 54.518 81.8048 54.856C81.7415 54.9458 81.7613 54.9555 81.7637 54.9661Z" fill="white"/>
<path d="M67.2944 131.101C67.8213 130.61 68.3163 130.082 68.8814 129.644C68.9543 129.587 69.3909 129.999 69.6136 130.327C68.7269 130.326 68.58 131.996 67.3625 131.112C67.2645 131.07 67.2838 131.091 67.2944 131.101Z" fill="white"/>
<path d="M87.0612 54.6571C87.2457 54.8468 87.3278 55.0453 87.3196 55.3664C86.8545 55.982 86.4793 56.4746 86.1137 56.9758C86.1233 56.9845 86.1417 57.0023 86.1417 57.0023C85.5457 56.3519 85.9818 55.1066 87.0612 54.6571Z" fill="white"/>
<path d="M78.0933 140.734C78.8761 141.004 79.6687 141.263 80.4554 141.62C80.4496 141.718 80.4684 141.698 80.4776 141.688C79.8734 142.343 78.6221 141.923 78.1353 140.798C78.1242 140.704 78.1029 140.724 78.0933 140.734Z" fill="white"/>
<path d="M84.023 53.5875C84.6769 53.1974 85.3149 52.7884 85.976 52.4199C86.0209 52.3953 86.3397 52.6734 86.3513 52.8251C86.3682 53.0414 86.2499 53.4455 86.1359 53.4649C85.4989 53.5759 84.8464 53.5952 84.0959 53.601C83.993 53.5566 84.0123 53.5779 84.023 53.5875Z" fill="white"/>
<path d="M87.309 143.768C87.4167 144.037 87.4211 144.304 87.4167 144.672C86.671 144.394 85.1111 145.085 85.4047 143.265C86.0466 143.444 86.6261 143.605 87.309 143.768Z" fill="white"/>
<path d="M85.8688 58.5055C85.6438 58.6465 85.4187 58.7875 85.0594 58.985C84.8126 59.0313 84.7006 59.0212 84.588 59.0111C84.7605 58.5659 84.8764 58.0849 85.1246 57.6866C85.3047 57.3968 85.6597 57.2158 86.0393 56.9941C86.1417 57.0023 86.1229 56.9845 86.1369 57.0637C86.0567 57.5967 85.963 58.0511 85.8688 58.5055Z" fill="white"/>
<path d="M66.2222 124.209C66.9568 125.001 67.7363 125.86 68.4738 126.809C67.7102 126.024 66.9887 125.151 66.2222 124.209Z" fill="#79D7DC"/>
<path d="M86.3663 139.159C86.3218 139.157 86.2779 139.155 86.1673 139.148C85.7645 138.954 85.4284 138.764 85.0864 138.401C84.9995 138.101 84.9189 137.972 84.8387 137.844V137.844C85.1 137.859 85.4037 137.793 85.6133 137.905C86.0359 138.129 86.4068 138.45 86.8483 138.802C86.8975 138.875 86.8961 138.876 86.8159 138.882C86.6126 138.979 86.4894 139.069 86.3663 139.159Z" fill="#70D4DA"/>
<path d="M73.7061 131.947C74.3422 132.313 75.026 132.741 75.6669 133.255C75.0004 132.897 74.3774 132.454 73.7061 131.947Z" fill="#70D4DA"/>
<path d="M71.8936 130.39C72.4475 130.761 73.0493 131.193 73.6061 131.71C73.0213 131.346 72.4808 130.9 71.8936 130.39Z" fill="#70D4DA"/>
<path d="M68.7979 127.301C69.1808 127.68 69.6073 128.124 69.9579 128.576C69.5358 128.177 69.1886 127.771 68.7979 127.301Z" fill="#79D7DC"/>
<path d="M64.9342 122.405C65.3302 122.853 65.7712 123.37 66.1532 123.97C65.7224 123.526 65.3505 123 64.9342 122.405Z" fill="#79D7DC"/>
<path d="M70.6736 129.204C70.975 129.356 71.2836 129.596 71.5454 129.911C71.2261 129.754 70.9538 129.523 70.6736 129.204Z" fill="#70D4DA"/>
<path d="M84.7933 137.909C84.9193 137.972 84.9995 138.101 85.0811 138.309C84.8493 138.35 84.6165 138.311 84.3403 138.193C84.4475 138.068 84.5977 138.021 84.7933 137.909Z" fill="#59CCD2"/>
<path d="M63.2279 77.6555C63.2231 77.7525 63.1854 77.922 63.0777 78.105C63.07 77.9887 63.1323 77.8583 63.2279 77.6555Z" fill="#79D7DC"/>
<path d="M66.9955 72.1783C66.951 72.3251 66.8312 72.4908 66.6274 72.6622C66.6685 72.511 66.7945 72.3541 66.9955 72.1783Z" fill="#70D4DA"/>
<path d="M84.5214 59.0391C84.7006 59.0212 84.8131 59.0313 85.0097 59.0497C84.8904 59.1438 84.6861 59.2303 84.3934 59.3119C84.3548 59.2274 84.4045 59.1472 84.5214 59.0391Z" fill="#7FDADF"/>
<path d="M68.8123 69.8891C68.8457 70.0146 68.7998 70.1614 68.68 70.3415C68.6486 70.2198 68.6911 70.0653 68.8123 69.8891Z" fill="#70D4DA"/>
<path d="M67.2659 71.6882C67.2988 71.8147 67.2529 71.9615 67.1321 72.1397C67.1003 72.0175 67.1432 71.863 67.2659 71.6882Z" fill="#70D4DA"/>
<path d="M70.8712 67.7968C70.9808 67.7789 71.0248 67.7857 71.1349 67.7867C71.0837 67.8799 70.9663 67.9803 70.7673 68.072C70.7258 67.9832 70.7654 67.9026 70.8712 67.7968Z" fill="#70D4DA"/>
<path d="M69.0746 69.6191C69.1055 69.6892 69.0674 69.7688 68.9597 69.8582C68.9287 69.7886 68.9669 69.7085 69.0746 69.6191Z" fill="#70D4DA"/>
<path d="M69.332 69.3613C69.3624 69.4313 69.3233 69.511 69.2146 69.5993C69.1842 69.5293 69.2233 69.4497 69.332 69.3613Z" fill="#70D4DA"/>
<path d="M69.5889 69.1034C69.6193 69.1739 69.5802 69.2531 69.4716 69.342C69.4411 69.272 69.4803 69.1923 69.5889 69.1034Z" fill="#70D4DA"/>
<path d="M69.8463 68.8456C69.8768 68.9161 69.8376 68.9958 69.729 69.0841C69.6986 69.0141 69.7377 68.9344 69.8463 68.8456Z" fill="#70D4DA"/>
<path d="M70.1033 68.5877C70.1337 68.6578 70.0951 68.7374 69.9864 68.8263C69.956 68.7563 69.9946 68.6766 70.1033 68.5877Z" fill="#70D4DA"/>
<path d="M71.6313 130.101C71.6937 130.074 71.7738 130.081 71.8139 130.156C71.7231 130.207 71.6821 130.177 71.6313 130.101Z" fill="#70D4DA"/>
<path d="M70.3602 68.3289C70.3906 68.3994 70.352 68.4791 70.2428 68.5684C70.2124 68.4979 70.2515 68.4183 70.3602 68.3289Z" fill="#70D4DA"/>
<path d="M67.5301 71.4212C67.5605 71.4912 67.5214 71.5709 67.4132 71.6597C67.3828 71.5897 67.4214 71.51 67.5301 71.4212Z" fill="#70D4DA"/>
<path d="M68.5346 127C68.6018 126.967 68.6887 126.977 68.7428 127.063C68.6428 127.131 68.5911 127.099 68.5346 127Z" fill="#79D7DC"/>
<path d="M70.6171 68.0716C70.6476 68.1421 70.6084 68.2222 70.4988 68.3111C70.4684 68.2401 70.508 68.1609 70.6171 68.0716Z" fill="#70D4DA"/>
<path d="M67.7865 71.1619C67.817 71.2314 67.7783 71.3116 67.6702 71.4014C67.6392 71.3319 67.6784 71.2522 67.7865 71.1619Z" fill="#70D4DA"/>
<path d="M68.042 70.9012C68.0715 70.9683 68.0328 71.0494 67.9242 71.1416C67.8938 71.0735 67.9338 70.9948 68.042 70.9012Z" fill="#70D4DA"/>
<path d="M68.2956 70.637C68.3226 70.6998 68.2811 70.779 68.1719 70.876C68.1454 70.8138 68.1859 70.7336 68.2956 70.637Z" fill="#70D4DA"/>
<path d="M68.5515 70.3763C68.5757 70.4371 68.5308 70.5149 68.4192 70.6124C68.396 70.5525 68.4395 70.4724 68.5515 70.3763Z" fill="#70D4DA"/>
<path d="M93.0663 56.9318C93.4517 56.0342 93.7081 55.0482 94.2519 54.2592C95.1155 53.0057 96.389 52.3069 97.9692 52.305C98.4285 52.3045 98.8878 52.305 99.3983 52.305C99.45 51.6947 99.4886 51.236 99.5451 50.5662C100.212 50.5981 100.865 50.6295 101.699 50.6695C101.449 51.0723 101.423 51.1698 101.361 51.206C101.005 51.4136 100.641 51.6073 100.28 51.8053C100.699 51.9699 101.115 52.264 101.539 52.277C103.338 52.3306 105.14 52.3012 107.175 52.3238C108.119 52.278 108.827 52.2099 109.536 52.1418C110.403 51.278 111.136 52.2635 112.031 52.4243C112.565 53.1974 113.003 53.8637 113.441 54.5296C113.541 54.4673 113.64 54.4045 113.739 54.3422C113.878 53.6928 114.017 53.0433 114.156 52.3943C114.625 52.3625 115.093 52.3036 115.561 52.3031C129.758 52.2983 143.956 52.3712 158.152 52.249C161.712 52.2186 163.874 54.8246 163.867 58.0289C163.812 83.4764 163.837 108.924 163.837 134.372C163.837 138.691 161.886 140.626 157.52 140.627C147.054 140.629 136.589 140.609 126.124 140.647C124.373 140.653 122.623 140.909 120.586 141.072C119.913 140.32 115.417 140.263 114.501 141.166C113.79 140.964 113.206 140.669 112.614 140.652C110.729 140.597 108.841 140.646 106.835 140.64C109.261 139.954 111.861 139.443 114.34 138.582C119.585 136.758 124.27 133.947 128.422 130.214C132.341 126.689 135.474 122.599 137.885 117.737C138.776 115.317 139.624 113.065 140.471 110.813C141.051 108.571 141.968 106.354 142.135 104.081C142.399 100.47 142.163 96.8233 142.063 93.0024C141.196 89.7194 140.618 86.5499 139.559 83.5503C138.15 79.556 136.128 75.8331 133.283 72.6245C132.968 72.1523 132.654 71.6805 132.216 71.102C131.112 70.004 130.131 69.0127 129.151 68.0209C128.562 67.4984 127.992 66.9518 127.38 66.4583C126.036 65.3743 124.671 64.3173 123.183 63.2086C123.051 63.1681 122.954 63.141 122.903 63.126C122.853 63.1111 122.747 63.1043 122.74 63.112C122.734 63.1193 122.727 63.1005 122.712 63.0309C122.594 62.8735 122.49 62.7866 122.311 62.6567C121.787 62.3694 121.337 62.1241 120.888 61.8793C118.025 60.6934 115.163 59.5074 112.121 58.2568C111.064 57.9671 110.188 57.7421 109.311 57.5171C108.102 57.3331 106.892 57.1486 105.508 56.8816C103.458 56.5571 101.578 56.096 99.7079 56.1322C97.4897 56.1752 95.2797 56.6465 93.0663 56.9318ZM136.499 128.808C137.004 128.347 137.518 127.895 138 127.411C138.052 127.359 137.961 127.036 137.868 126.995C137.713 126.926 137.388 126.914 137.333 127.001C136.965 127.594 136.65 128.219 136.136 128.849C135.496 129.249 134.786 129.602 134.876 130.664C135.943 130.384 136.407 129.82 136.499 128.808ZM131.704 131.04C132.308 131.495 132.861 132.117 133.541 132.326C133.819 132.411 134.371 131.601 134.668 131.321C133.676 131.104 132.81 130.911 131.942 130.732C131.888 130.721 131.811 130.819 131.704 131.04ZM146.932 99.9822C147.674 100.05 147.768 99.8538 147.714 98.1459C146.999 98.2077 146.307 98.2676 145.618 98.3275C146.176 98.9692 146.53 99.3767 146.932 99.9822ZM133.244 63.7427C132.005 63.4259 131.991 64.3322 131.627 65.0942C132.463 65.0942 133.053 65.0942 133.826 65.0942C133.66 64.6239 133.528 64.2487 133.244 63.7427ZM145.528 112.677C145.722 112.108 145.916 111.54 146.11 110.972C145.935 110.895 145.76 110.817 145.585 110.74C145.357 111.223 145.08 111.692 144.932 112.199C144.89 112.343 145.22 112.596 145.528 112.677ZM145.247 113.58C144.49 113.123 144.361 113.724 144.266 114.217C144.197 114.576 144.281 114.965 144.296 115.34C144.43 115.331 144.564 115.321 144.698 115.312C144.893 114.798 145.089 114.282 145.247 113.58ZM131.186 133.858C131.919 134.301 132.395 133.994 132.599 132.552C132.139 132.925 131.679 133.299 131.186 133.858ZM146.802 107.739C146.902 107.155 147.001 106.571 147.101 105.988C145.925 106.853 145.892 107.412 146.802 107.739ZM147.319 91.6736C147.177 91.2675 147.035 90.8619 146.893 90.4558C146.736 90.479 146.579 90.5016 146.423 90.5248C146.487 91.098 146.378 91.7841 146.658 92.2173C147.05 92.8218 147.323 92.423 147.319 91.6736ZM115.869 54.1414C116.138 54.0897 116.407 54.038 116.676 53.9864C116.681 53.8734 116.686 53.7604 116.691 53.6474C116.099 53.3997 115.507 53.152 114.916 52.9043C114.82 53.0303 114.725 53.1558 114.629 53.2819C114.977 53.5547 115.326 53.8275 115.869 54.1414ZM117.92 54.9304C118.273 54.9864 118.626 55.0429 118.979 55.0989C119.025 54.9347 119.071 54.7705 119.117 54.6064C118.48 54.3509 117.843 54.096 117.205 53.8405C117.125 53.9868 117.044 54.1336 116.964 54.2799C117.22 54.4794 117.475 54.6788 117.92 54.9304ZM134.257 66.3646C134.681 66.6061 135.103 66.848 135.526 67.0894C135.718 66.8489 135.911 66.6085 136.104 66.368C135.66 66.13 135.221 65.8793 134.769 65.6567C134.132 65.3434 133.889 65.5085 134.257 66.3646ZM142.707 77.57C142.488 76.9553 142.268 76.3411 142.049 75.7264C141.879 75.7989 141.71 75.8713 141.541 75.9432C141.446 76.7322 141.682 77.3725 142.707 77.57ZM147.591 93.8059C147.381 93.5398 147.17 93.2738 146.959 93.0077C146.832 93.0734 146.704 93.1395 146.577 93.2057C146.727 93.831 146.878 94.4568 147.029 95.0826C147.168 95.084 147.307 95.0855 147.446 95.0869C147.504 94.7287 147.562 94.3704 147.591 93.8059ZM123.445 140.167C123.897 139.882 124.349 139.598 124.8 139.313C124.71 139.146 124.619 138.978 124.529 138.811C123.986 139.074 123.442 139.336 122.899 139.598C123.03 139.81 123.16 140.023 123.445 140.167ZM123.545 57.2423C123.043 56.857 122.544 56.4673 122.029 56.1018C122.011 56.0892 121.824 56.3162 121.716 56.4316C122.125 56.7459 122.524 57.0757 122.952 57.363C123.06 57.4355 123.261 57.3703 123.545 57.2423ZM139.977 73.2059C140.605 72.1542 139.597 71.9673 139.201 71.4569C139.054 71.5453 138.906 71.6337 138.759 71.7225C139.103 72.217 139.447 72.7109 139.977 73.2059ZM146.864 89.2911C146.71 88.814 146.556 88.337 146.402 87.8594C146.222 87.9058 146.042 87.9521 145.861 87.998C146.022 88.6209 146.183 89.2438 146.344 89.8667C146.516 89.7431 146.687 89.6195 146.864 89.2911ZM144.669 83.9892C144.859 84.3282 145.05 84.6667 145.241 85.0057C145.359 84.9579 145.476 84.9096 145.594 84.8618C145.521 84.433 145.497 83.9883 145.357 83.5827C145.283 83.3692 145.009 83.2249 144.825 83.0496C144.749 83.3007 144.673 83.5522 144.669 83.9892ZM126.197 59.3298C126.735 59.6962 127.137 60.4993 128.314 59.8609C127.389 59.5818 127.167 58.3346 126.197 59.3298ZM120.959 55.4721C120.466 55.3398 119.972 55.2075 119.479 55.0752C119.443 55.2394 119.407 55.4036 119.37 55.5677C119.817 55.7763 120.255 56.01 120.72 56.1617C120.78 56.1819 120.979 55.7792 120.959 55.4721ZM145.441 86.5817C145.597 86.8599 145.753 87.1375 145.91 87.4157C146.066 87.35 146.222 87.2843 146.378 87.2182C146.187 86.5962 145.998 85.9738 145.807 85.3514C145.661 85.3833 145.516 85.4151 145.37 85.447C145.37 85.7613 145.37 86.0762 145.441 86.5817ZM142.126 119.285C142.187 119.534 142.247 119.784 142.307 120.034C142.447 120.031 142.587 120.028 142.727 120.025C142.903 119.415 143.079 118.805 143.254 118.195C143.105 118.145 142.956 118.095 142.806 118.045C142.606 118.402 142.407 118.759 142.126 119.285ZM126.452 137.421C125.951 137.783 125.45 138.145 124.949 138.507C125.039 138.618 125.129 138.729 125.219 138.841C125.903 138.628 126.822 138.69 126.452 137.421ZM139.49 125.298C139.329 125.133 139.168 124.969 139.007 124.804C138.68 125.297 138.352 125.791 138.025 126.284C138.172 126.391 138.318 126.496 138.465 126.602C138.782 126.22 139.099 125.839 139.49 125.298Z" fill="#848484"/>
<path d="M93.0035 56.9531C95.2797 56.6465 97.4897 56.1752 99.7079 56.1322C101.578 56.096 103.458 56.5571 105.398 56.8753C105.142 57.377 104.82 57.8015 104.419 58.3317C105.503 59.5287 103.888 59.4543 103.275 59.8556C103.736 60.9633 104.185 62.0396 104.633 63.1164C104.518 63.2308 104.403 63.3457 104.288 63.4602C103.638 63.3781 102.979 63.3366 102.34 63.2052C100.879 62.9049 99.3616 62.677 98.3431 61.4177C97.9132 60.886 97.6355 60.2327 97.2168 59.6895C96.8333 59.1917 96.334 58.3655 95.9206 58.3862C94.6542 58.449 93.8385 57.6629 92.8345 57.1047C92.8577 57.0033 92.8992 56.9888 93.0035 56.9531Z" fill="#C5F2F5"/>
<path d="M99.8243 86.5861C99.692 85.8985 99.5596 85.2109 99.3534 84.136C101.348 84.136 103.076 84.1297 104.803 84.1442C105.009 84.1462 105.329 84.1998 105.4 84.3335C106.125 85.7029 107.614 85.2239 108.722 85.6986C108.704 87.2732 107.504 86.5436 106.693 86.9429C107.273 87.2244 107.853 87.5059 108.433 87.7875C108.432 87.9111 108.43 88.0347 108.429 88.1583C107.928 88.2003 107.427 88.2428 106.86 88.2906C107.023 88.4905 107.183 88.6866 107.571 89.1641C106.451 89.0584 105.609 88.829 104.819 88.9473C104.039 89.0642 103.311 89.5321 102.419 89.9053C102.265 88.463 103.155 87.4292 104.201 86.4982C102.927 84.8936 101.719 86.3089 100.305 86.589C100.03 86.5875 99.9267 86.5871 99.8243 86.5861Z" fill="#C0F0F3"/>
<path d="M129.094 68.1097C130.131 69.0127 131.112 70.004 132.138 71.0644C131.891 71.6926 131.482 72.7621 131.327 72.7264C130.477 72.5299 129.513 72.2392 128.923 71.6472C128.08 70.8012 127.525 69.6669 126.84 68.6452C127.518 68.5071 128.278 68.3526 129.094 68.1097Z" fill="#C1F0F3"/>
<path d="M121.86 71.6849C120.579 71.9408 120.848 72.8027 120.798 73.7631C120.481 73.4686 120.163 73.174 119.788 72.8254C119.434 72.8597 118.95 72.9065 118.168 72.9818C118.504 72.5685 118.608 72.328 118.787 72.2387C119.698 71.7829 120.615 71.3353 121.56 70.9557C121.842 70.8423 122.217 70.9572 122.549 70.9678C122.348 71.1938 122.147 71.4198 121.86 71.6849Z" fill="#95DEE2"/>
<path d="M105.652 95.1589C105.687 95.4182 105.664 95.818 105.568 95.8368C104.628 96.0165 103.676 96.1324 102.491 96.3004C102.73 95.521 102.943 94.8286 103.16 94.1231C104.045 94.4921 104.802 94.8069 105.652 95.1589Z" fill="#BDEFF3"/>
<path d="M109.256 57.5924C110.188 57.7421 111.064 57.9671 112.026 58.2341C111.831 58.5359 111.516 59.0444 111.277 59.0111C110.273 58.871 109.291 58.5683 108.302 58.3254C108.31 58.2013 108.319 58.0772 108.328 57.9526C108.619 57.8575 108.911 57.7624 109.256 57.5924Z" fill="#BDEFF3"/>
<path d="M120.174 124.457C119.889 124.129 119.701 123.81 119.471 123.421C119.967 123.186 120.456 122.954 121.023 122.687C121.537 123.454 121.972 124.258 122.538 125.307C121.735 125.009 121.002 124.737 120.174 124.457Z" fill="#96DFE3"/>
<path d="M117.781 132.005C118.008 131.268 118.245 130.589 118.563 129.848C118.948 130.67 119.251 131.554 119.554 132.438C119.296 132.515 119.038 132.593 118.629 132.597C118.258 132.409 118.039 132.293 117.82 132.177C117.82 132.177 117.791 132.063 117.781 132.005Z" fill="#D0F5F7"/>
<path d="M122.954 63.141C122.954 63.141 123.051 63.168 123.098 63.1874C122.988 63.5992 122.832 63.9923 122.676 64.3854C122.397 64.1357 122.147 63.8359 121.831 63.6461C121.206 63.2714 120.575 62.9382 120.853 61.9561C121.337 62.1241 121.787 62.3694 122.328 62.7277C122.522 62.9271 122.625 63.014 122.727 63.1005C122.727 63.1005 122.734 63.1193 122.739 63.1661C122.813 63.1888 122.884 63.1647 122.954 63.141Z" fill="#B6ECEF"/>
<path d="M98.6285 119.488C98.5 119.268 98.3687 118.983 98.4324 118.929C98.9231 118.513 99.4524 118.141 100.144 117.626C100.229 118.145 100.332 118.781 100.436 119.417C99.8624 119.455 99.2892 119.492 98.6285 119.488Z" fill="#90DDE1"/>
<path d="M124.441 97.4781C124.443 98.0797 124.418 98.5863 124.393 99.0923C123.739 99.0112 123.085 98.9301 122.431 98.8485C122.428 98.7311 122.425 98.6143 122.422 98.4969C123.086 98.1256 123.75 97.7538 124.441 97.4781Z" fill="#94DEE2"/>
<path d="M99.309 98.4762C99.4548 97.8803 99.5929 97.3893 99.7625 96.7871C100.317 97.5027 100.731 98.0378 101.277 98.7423C100.62 98.9818 99.9808 99.2888 99.309 98.4762Z" fill="#95DEE2"/>
<path d="M79.4122 123.363C79.5387 122.995 79.6474 122.72 79.7566 122.446C79.8671 122.455 79.9773 122.464 80.0879 122.472C80.2429 123.045 80.3984 123.619 80.5993 124.358C79.7836 124.448 79.1596 124.516 78.5356 124.585C78.5168 124.465 78.4984 124.347 78.4796 124.227C78.7848 123.971 79.0901 123.714 79.4122 123.363Z" fill="#96DFE3"/>
<path d="M80.212 71.6646C80.212 71.6646 80.3351 71.6626 80.3965 71.6631C81.2392 72.1107 82.0206 72.5583 82.8016 73.0064C82.7591 73.1508 82.7166 73.2952 82.6741 73.4396C82.0743 73.2797 81.4744 73.1204 80.7123 72.8949C80.4375 72.4405 80.325 72.0528 80.212 71.6646Z" fill="#95DEE2"/>
<path d="M102.525 118.295C102.738 118.368 102.858 118.449 103.055 118.544C102.947 120.024 102.884 120.048 100.673 119.296C101.363 118.906 101.898 118.604 102.525 118.295Z" fill="#8CDCE0"/>
<path d="M85.9471 58.5296C85.963 58.0511 86.0572 57.5967 86.1277 57.055C86.4793 56.4746 86.8546 55.982 87.3182 55.4533C87.4075 56.1974 87.4085 56.9782 87.4061 57.8749C87.0767 58.1163 86.7507 58.2419 86.3871 58.45C86.2412 58.5398 86.133 58.547 85.9471 58.5296Z" fill="black"/>
<path d="M80.1198 71.6549C80.325 72.0528 80.4375 72.441 80.6133 72.8867C80.6843 73.1373 80.6916 73.3304 80.693 73.6202C80.31 73.6337 79.6252 73.9954 79.8454 73.0605C79.8952 72.851 79.617 72.4594 79.3871 72.3121C79.0471 72.0948 78.6149 72.0209 78.2217 71.8862C78.413 71.6617 78.6038 71.4371 78.7945 71.2126C79.2055 71.357 79.6165 71.5014 80.1198 71.6549Z" fill="#DCF8FA"/>
<path d="M123.602 92.1569C124.591 92.2723 124.709 92.7016 123.858 94.0628C123.748 93.4524 123.639 92.8421 123.602 92.1569Z" fill="#8FDCE1"/>
<path d="M119.409 126.071C119.517 125.697 119.697 125.379 119.939 125.02C121.4 125.646 120.219 126.317 120.165 126.987C120.056 127.008 119.946 127.029 119.837 127.051C119.719 126.743 119.6 126.436 119.409 126.071Z" fill="#8FDCE1"/>
<path d="M105.3 76.0698C105.349 76.3271 105.359 76.7168 105.232 76.7685C104.896 76.9051 104.497 76.9491 104.13 76.9239C103.903 76.909 103.688 76.7013 103.468 76.5801C103.668 76.4063 103.844 76.1374 104.072 76.0813C104.429 75.9944 104.821 76.0519 105.3 76.0698Z" fill="#8FDCE1"/>
<path d="M77.2505 109.99C78.0739 110.557 78.114 111.246 77.1641 112.365C77.1641 111.366 77.1641 110.697 77.2505 109.99Z" fill="#8FDCE1"/>
<path d="M107.125 119.33C107.535 119.462 107.844 119.579 108.405 119.793C107.419 120.654 106.718 120.085 106.016 119.857C106 119.741 105.984 119.625 105.968 119.509C106.32 119.445 106.672 119.38 107.125 119.33Z" fill="#90DDE1"/>
<path d="M106.031 76.0866C106.571 75.8674 107.084 75.7057 107.609 75.6448C107.778 75.6255 107.977 75.8727 108.162 75.9983C108.048 76.1567 107.922 76.4589 107.822 76.4507C107.214 76.401 106.613 76.2803 106.031 76.0866Z" fill="#90DDE1"/>
<path d="M78.2198 113.488C78.2338 113.91 78.2164 114.237 78.199 114.565C78.0184 114.577 77.8378 114.589 77.6567 114.601C77.5591 113.895 77.4611 113.189 77.3635 112.483C77.5417 112.444 77.7204 112.405 77.8991 112.367C77.9957 112.709 78.0918 113.051 78.2198 113.488Z" fill="#90DDE1"/>
<path d="M102.283 77.0678C101.726 77.0104 101.28 76.951 100.833 76.8921C100.84 76.7023 100.847 76.5121 100.853 76.3223C101.47 76.3223 102.087 76.2996 102.701 76.3426C102.817 76.3508 102.914 76.6212 103.02 76.7704C102.811 76.8689 102.602 76.9679 102.283 77.0678Z" fill="#92DDE2"/>
<path d="M95.9805 119.555C96.9188 118.698 97.4742 118.718 98.0282 119.807C97.2574 119.748 96.6358 119.7 95.9805 119.555Z" fill="#90DDE1"/>
<path d="M79.2446 118.894C79.2253 119.159 79.1751 119.332 79.1249 119.505C78.9186 119.398 78.5878 119.337 78.5289 119.177C78.3507 118.689 78.2777 118.164 78.1642 117.653C78.3246 117.59 78.4849 117.527 78.6453 117.464C78.8351 117.911 79.0249 118.357 79.2446 118.894Z" fill="#92DDE2"/>
<path d="M79.1818 120.124C79.5165 120.745 79.758 121.351 79.999 121.956C79.8416 122.009 79.6836 122.063 79.5262 122.117C78.9153 121.601 78.6274 120.977 79.1818 120.124Z" fill="#92DDE2"/>
<path d="M117.739 132.227C118.038 132.293 118.258 132.409 118.526 132.58C118.191 133.185 117.806 133.734 117.422 134.284C117.278 134.22 117.134 134.157 116.989 134.093C117.213 133.487 117.437 132.882 117.739 132.227Z" fill="#95DEE2"/>
<path d="M82.3819 130.015C82.6355 130.628 82.8204 131.174 83.0054 131.721C82.876 131.805 82.747 131.888 82.6176 131.972C82.3587 131.576 82.0115 131.206 81.8801 130.772C81.8159 130.56 82.1559 130.226 82.3819 130.015Z" fill="#94DEE2"/>
<path d="M77.3761 107.45C77.4558 108.104 77.5345 108.765 77.6132 109.427C77.4321 109.438 77.2515 109.45 77.0704 109.461C77.0559 108.795 75.9031 108.205 77.2887 107.453C77.3906 107.454 77.3746 107.458 77.3761 107.45Z" fill="#8FDCE1"/>
<path d="M119.538 68.3236C119.291 68.4337 118.849 68.5409 118.802 68.4487C118.569 67.9861 118.44 67.4714 118.274 66.975C118.427 66.8972 118.581 66.8195 118.735 66.7413C118.998 67.2372 119.261 67.7331 119.538 68.3236Z" fill="#93DEE2"/>
<path d="M123.606 85.4011C123.531 85.7643 123.42 86.0308 123.31 86.2978C123.127 86.0936 122.829 85.911 122.785 85.6798C122.7 85.2403 122.76 84.7734 122.76 84.3176C122.91 84.2997 123.06 84.2823 123.21 84.2645C123.33 84.6112 123.45 84.9584 123.606 85.4011Z" fill="#93DEE2"/>
<path d="M123.561 89.4669C124.721 90.0101 124.133 90.7358 124.04 91.4138C123.873 91.4302 123.706 91.4461 123.539 91.4625C123.514 90.8044 123.488 90.1463 123.561 89.4669Z" fill="#92DDE2"/>
<path d="M123.844 88.7232C123.448 88.2636 123.115 87.7237 122.782 87.1839C122.972 87.082 123.163 86.9801 123.353 86.8782C124.205 87.1105 123.925 87.9463 123.844 88.7232Z" fill="#92DDE2"/>
<path d="M84.1761 136.624C83.9307 135.999 83.7462 135.441 83.4966 134.685C84.8754 135.393 85.0541 136.117 84.1761 136.624Z" fill="#93DEE2"/>
<path d="M85.8587 121.691C86.3136 121.248 86.8348 120.87 87.3554 120.492C87.452 120.641 87.5486 120.789 87.6452 120.938C87.4365 121.778 86.6942 121.788 85.8587 121.691Z" fill="#93DEE2"/>
<path d="M94.9136 120.007C94.3288 120.003 93.8386 119.966 93.3479 119.929C93.3397 119.782 93.3315 119.635 93.3232 119.488C93.8584 119.369 94.394 119.251 94.9291 119.133C94.9556 119.414 94.9817 119.694 94.9136 120.007Z" fill="#92DDE2"/>
<path d="M118.696 65.7944C118.484 65.9354 118.035 66.0512 118.029 66.0319C117.863 65.4882 117.742 64.9305 117.613 64.3757C117.78 64.3322 117.947 64.2888 118.114 64.2453C118.298 64.7325 118.482 65.2193 118.696 65.7944Z" fill="#93DEE2"/>
<path d="M124.145 69.5622C124.445 69.5989 124.673 69.6877 124.901 69.777C124.608 70.0494 124.352 70.3927 124.01 70.5718C123.744 70.7119 123.37 70.6476 123.044 70.6742C123.018 70.5627 122.993 70.4511 122.968 70.3396C123.335 70.0981 123.704 69.8562 124.145 69.5622Z" fill="#94DEE2"/>
<path d="M78.6617 116.004C78.6033 116.399 78.5429 116.689 78.4821 116.979C78.3483 116.984 78.2145 116.989 78.0812 116.995C77.9725 116.428 77.8479 115.864 77.7736 115.293C77.7639 115.219 78.0121 115.111 78.1411 115.019C78.314 115.312 78.4864 115.605 78.6617 116.004Z" fill="#90DDE1"/>
<path d="M120.649 74.978C120.852 74.7317 121.073 74.5854 121.295 74.4396C121.4 75.0282 121.505 75.6168 121.61 76.2054C121.45 76.2359 121.288 76.2663 121.127 76.2962C120.974 75.8901 120.821 75.484 120.649 74.978Z" fill="#93DEE2"/>
<path d="M111.645 75.5217C111.449 75.3107 111.356 75.1016 111.263 74.893C111.857 74.7607 112.451 74.6289 113.045 74.4966C113.088 74.6752 113.131 74.8539 113.173 75.0326C112.697 75.1962 112.222 75.3599 111.645 75.5217Z" fill="#94DEE2"/>
<path d="M110.469 75.6975C109.842 75.9292 109.265 76.0799 108.688 76.2301C109.381 75.0683 110.116 74.9572 110.469 75.6975Z" fill="#92DDE2"/>
<path d="M97.6249 76.2943C97.4482 77.0432 96.6498 77.3431 96.1703 76.8679C96.0466 76.7458 95.951 76.3706 95.9901 76.3455C96.2128 76.205 96.4803 76.1354 96.8343 76.0413C97.1391 76.1185 97.3424 76.1968 97.6249 76.2943Z" fill="#DAF7F9"/>
<path d="M123.16 83.4074C122.933 83.5242 122.555 83.5841 122.546 83.5518C122.403 82.9805 122.306 82.3982 122.198 81.8183C122.374 81.7705 122.551 81.7227 122.726 81.6753C122.878 82.2195 123.03 82.7637 123.16 83.4074Z" fill="#94DEE2"/>
<path d="M73.0783 127.909C72.6407 128.088 72.2814 128.216 71.9221 128.343C71.8535 128.194 71.7849 128.044 71.7168 127.895C72.3094 127.576 72.9025 127.257 73.4951 126.938C73.6443 127.129 73.7935 127.321 73.9428 127.511C73.6805 127.627 73.4183 127.742 73.0783 127.909Z" fill="#93DEE2"/>
<path d="M123.479 125.228C124.042 125.464 124.513 125.697 124.984 125.93C124.921 126.093 124.856 126.255 124.792 126.418C124.264 126.225 123.732 126.04 123.219 125.813C123.193 125.802 123.327 125.429 123.479 125.228Z" fill="#93DEE2"/>
<path d="M99.7364 86.6493C99.9267 86.5871 100.03 86.5875 100.209 86.5962C100.286 87.2761 100.286 87.9478 100.286 88.6194C100.073 88.6194 99.861 88.6199 99.6485 88.6199C99.6485 87.9845 99.6485 87.3485 99.7364 86.6493Z" fill="#92DDE2"/>
<path d="M83.8342 63.8103C83.5734 63.6384 83.3044 63.3738 83.0368 63.0068C83.2821 62.5814 83.5256 62.2579 83.769 61.9343C83.8897 61.9585 84.0109 61.9831 84.1321 62.0072C84.0298 62.5775 83.9279 63.1473 83.8342 63.8103Z" fill="#99E0E4"/>
<path d="M99.5027 77.2001C99.7036 76.8559 99.903 76.6154 100.168 76.3363C100.235 76.9722 100.235 77.6468 100.235 78.3209C100.06 78.3334 99.8856 78.3465 99.7113 78.359C99.6413 78.0075 99.5708 77.656 99.5027 77.2001Z" fill="#94DEE2"/>
<path d="M119.897 69.5747C120.092 70.0977 120.224 70.5482 120.356 70.9987C120.197 71.0677 120.038 71.1373 119.879 71.2063C119.64 70.6906 119.401 70.1754 119.163 69.6597C119.386 69.6071 119.61 69.5544 119.897 69.5747Z" fill="#93DEE2"/>
<path d="M77.1278 124.714C77.506 124.685 77.7958 124.695 78.0855 124.705C77.9397 124.922 77.8402 125.211 77.6383 125.339C77.3133 125.544 76.9206 125.642 76.557 125.786C76.4807 125.679 76.4044 125.573 76.3276 125.466C76.5652 125.229 76.8023 124.991 77.1278 124.714Z" fill="#94DEE2"/>
<path d="M87.8799 139.127C87.6447 139.263 87.3737 139.327 86.9994 139.405C86.8956 139.419 86.8845 139.412 86.8864 139.319C86.8908 139.11 86.8932 138.993 86.8956 138.876C86.8956 138.876 86.897 138.874 86.898 138.873C87.2143 138.934 87.5297 138.994 87.8799 139.127Z" fill="#70D4DA"/>
<path d="M62.4557 81.1109C62.4079 81.0452 62.3654 80.8921 62.389 80.7062C62.4571 80.7902 62.4591 80.9066 62.4557 81.1109Z" fill="#C7F3F6"/>
<path d="M129.461 143.01C132.528 144.286 133.507 146.667 132.146 149.29C131.221 151.071 129.228 151.831 127.112 151.21C125.349 150.692 123.964 148.45 124.23 146.545C124.489 144.693 126.207 143.098 128.069 142.998C128.496 142.975 128.926 142.997 129.461 143.01Z" fill="#171717"/>
<path d="M113.943 144.291C113.444 144.02 113.042 143.74 112.475 143.343C112.964 142.756 113.368 142.271 113.772 141.785C113.809 142.3 113.846 142.816 113.885 143.353C114.276 143.336 114.809 143.312 115.342 143.289C115.374 143.422 115.406 143.556 115.439 143.688C114.973 143.886 114.507 144.083 113.943 144.291Z" fill="#797979"/>
<path d="M114.044 52.3799C114.017 53.0433 113.878 53.6928 113.739 54.3422C113.64 54.4045 113.541 54.4673 113.441 54.5296C113.003 53.8637 112.565 53.1974 112.121 52.4359C112.721 52.349 113.327 52.3572 114.044 52.3799Z" fill="#B1B1B1"/>
<path d="M109.459 52.0834C108.827 52.2099 108.118 52.278 107.292 52.3325C107.174 51.9598 107.174 51.6005 107.174 50.7487C108.105 51.2866 108.744 51.6551 109.459 52.0834Z" fill="#767676"/>
<path d="M104.342 146.291C103.893 146.219 103.544 146.133 103.195 146.048C103.204 145.897 103.214 145.746 103.223 145.595C103.917 145.509 104.612 145.422 105.306 145.336C105.351 145.504 105.395 145.673 105.44 145.841C105.107 145.986 104.775 146.132 104.342 146.291Z" fill="#737373"/>
<path d="M103.501 50.5966C103.766 50.8178 103.926 51.0259 104.087 51.2345C103.844 51.3359 103.595 51.5329 103.359 51.5184C102.926 51.4914 102.501 51.3393 102.073 51.2398C102.066 51.0752 102.059 50.911 102.052 50.7463C102.5 50.6922 102.949 50.6377 103.501 50.5966Z" fill="#737373"/>
<path d="M92.4757 51.8965C92.1849 51.8323 91.9917 51.7449 91.7981 51.6575C91.927 51.4745 92.027 51.1703 92.1907 51.1307C92.6717 51.0143 93.1783 51.0032 93.6797 50.9501C93.67 51.769 93.67 51.769 92.4757 51.8965Z" fill="#777777"/>
<path d="M106.806 145.069C107.261 145.125 107.613 145.19 107.965 145.254C107.958 145.422 107.95 145.59 107.942 145.758C107.239 145.825 106.536 145.893 105.834 145.96C105.801 145.793 105.769 145.625 105.738 145.458C106.059 145.331 106.381 145.204 106.806 145.069Z" fill="#737373"/>
<path d="M92.2366 145.074C92.2892 145.334 92.2458 145.562 92.2028 145.79C91.616 145.662 91.0292 145.533 90.4424 145.405C90.4786 145.206 90.5149 145.007 90.5511 144.808C91.0814 144.886 91.6112 144.964 92.2366 145.074Z" fill="#777777"/>
<path d="M89.674 144.562C89.7344 144.821 89.6977 145.049 89.661 145.277C89.0713 145.144 88.4816 145.012 87.8924 144.88C87.9296 144.681 87.9668 144.481 88.004 144.282C88.528 144.365 89.0525 144.448 89.674 144.562Z" fill="#797979"/>
<path d="M97.5993 146.053C96.8952 146.191 96.2147 146.228 95.5342 146.265C95.5337 146.081 95.5328 145.896 95.5323 145.711C96.2321 145.539 96.9333 145.21 97.5993 146.053Z" fill="#797979"/>
<path d="M105.619 50.8265C106.066 50.9839 106.407 51.1336 106.748 51.2828C106.707 51.4489 106.665 51.6145 106.624 51.7806C105.983 51.6981 105.343 51.615 104.702 51.5324C104.673 51.404 104.644 51.2755 104.615 51.1476C104.915 51.0375 105.214 50.9279 105.619 50.8265Z" fill="#767676"/>
<path d="M89.2751 52.0959C89.8614 51.7449 90.4757 51.4919 91.0901 51.2393C91.149 51.4093 91.2079 51.5793 91.2668 51.7492C90.7877 52.4354 90.1015 52.4861 89.2751 52.0959Z" fill="#797979"/>
<path d="M94.0824 145.3C94.5002 145.384 94.8064 145.466 95.1131 145.548C95.0909 145.668 95.0686 145.787 95.0459 145.906C94.3939 145.906 93.7415 145.906 93.0895 145.906C93.074 145.763 93.0591 145.62 93.0436 145.477C93.3527 145.418 93.6623 145.357 94.0824 145.3Z" fill="#767676"/>
<path d="M73.3618 66.8296C73.9959 66.1608 74.6493 64.9585 75.4621 64.8388C76.812 64.6398 77.1114 63.3617 78.1787 62.9604C79.3074 62.536 80.3356 61.8445 81.4614 61.3259C81.3015 61.7479 81.0881 62.1135 80.8133 62.5843C81.1663 62.6963 81.5372 62.8136 81.7531 62.8822C82.0081 63.3989 82.2307 63.8508 82.4679 64.4539C82.3153 64.8817 82.1486 65.1584 81.9815 65.4351C80.2511 65.3815 79.0611 66.5201 77.7518 67.3782C76.9057 67.933 76.3778 67.7862 75.6389 67.0373C75.2371 66.6297 74.2026 66.847 73.3618 66.8296Z" fill="#5BCDD3"/>
<path d="M76.1325 98.6471C76.2353 98.1449 76.3445 97.7398 76.4739 97.3414C76.4928 97.284 76.6072 97.2574 76.3937 97.3815C76.8318 97.9725 77.2186 98.495 77.605 99.0175C77.4732 98.9108 76.8965 99.6515 76.1325 98.6471Z" fill="#DCF8FA"/>
<path d="M77.2563 92.1965C77.2119 92.8759 77.1056 93.4766 76.9458 94.382C76.09 93.0208 76.2247 92.4901 77.2563 92.1965Z" fill="#DAF7F9"/>
<path d="M81.9917 65.5351C82.1481 65.1584 82.3153 64.8817 82.5229 64.5326C82.7919 64.6278 83.2382 64.8856 83.2126 64.9489C83.031 65.3897 82.7514 65.7905 82.5036 66.2043C82.3365 66.0145 82.1689 65.8248 81.9917 65.5351Z" fill="#DAF7F9"/>
<path d="M123.468 105.523C123.699 105.222 123.916 105.025 124.131 104.828C124.233 104.887 124.334 104.945 124.436 105.003C124.313 105.637 124.19 106.272 124.068 106.906C123.929 106.911 123.79 106.916 123.651 106.922C123.585 106.49 123.519 106.058 123.468 105.523Z" fill="#DAF7F9"/>
<path d="M82.4679 67.0909C82.2298 67.7524 81.9728 68.3207 81.7154 68.8895C81.5783 68.8099 81.4406 68.7302 81.303 68.651C81.5976 68.0479 81.0721 66.9523 82.4679 67.0909Z" fill="#DBF7F9"/>
<path d="M77.4012 90.5408C77.307 90.9237 77.2283 91.2052 77.1496 91.4862C76.9834 91.464 76.8173 91.4413 76.6512 91.4186C76.7106 90.8281 76.7502 90.2341 76.8545 89.6518C76.868 89.576 77.2162 89.5601 77.4094 89.5166C77.4118 89.8242 77.4142 90.1318 77.4012 90.5408Z" fill="#DBF7F9"/>
<path d="M117.018 122.105C117.413 122.284 117.716 122.44 118.019 122.595C117.958 122.761 117.898 122.926 117.838 123.092C117.259 122.893 116.677 122.704 116.11 122.478C116.061 122.458 116.111 122.19 116.115 122.038C116.385 122.052 116.656 122.067 117.018 122.105Z" fill="#DCF8FA"/>
<path d="M77.5915 88.5683C77.335 88.5852 76.8975 88.4673 76.9038 88.4311C77.0042 87.8869 77.1631 87.3534 77.308 86.8174C77.4693 86.8604 77.6306 86.9029 77.7919 86.9458C77.7335 87.4543 77.675 87.9627 77.5915 88.5683Z" fill="#DCF8FA"/>
<path d="M93.6618 76.5265C93.6937 76.2629 93.8477 75.8254 93.9405 75.838C94.4196 75.9032 94.8827 76.0833 95.3517 76.2233C95.3391 76.3778 95.3265 76.5318 95.314 76.6859C94.7943 76.6439 94.2747 76.6023 93.6618 76.5265Z" fill="#DBF7F9"/>
<path d="M123.905 110.564C123.757 111.129 123.625 111.596 123.446 112.228C122.68 111.446 122.881 110.821 123.315 110.22C123.346 110.177 123.712 110.378 123.905 110.564Z" fill="#DBF7F9"/>
<path d="M123.226 109.159C123.334 108.52 123.464 107.978 123.595 107.436C123.787 107.475 123.978 107.514 124.17 107.552C124.072 108.132 123.986 108.713 123.851 109.284C123.842 109.32 123.459 109.268 123.226 109.159Z" fill="#DBF7F9"/>
<path d="M77.7537 83.5749C77.6267 82.7946 77.4678 82.052 78.3255 81.7473C78.4704 81.8154 78.6153 81.8839 78.7607 81.952C78.4458 82.5194 78.1314 83.0863 77.7537 83.5749Z" fill="#DCF8FA"/>
<path d="M72.5717 67.3014C72.6248 67.2125 72.7615 67.1242 72.9865 67.0377C72.9353 67.1271 72.7953 67.2145 72.5717 67.3014Z" fill="#5BCDD3"/>
<path d="M72.2471 67.3395C72.2722 67.2859 72.3176 67.2864 72.4311 67.2922C72.4215 67.3294 72.3442 67.3613 72.2471 67.3395Z" fill="#5BCDD3"/>
<path d="M63.4718 68.2372C63.3347 68.2932 63.17 68.2657 62.9724 68.1392C63.1077 68.0778 63.2762 68.1155 63.4718 68.2372Z" fill="black"/>
<path d="M65.5857 131.746C65.6403 131.581 65.7683 131.494 65.9841 131.397C65.9344 131.533 65.7967 131.678 65.5857 131.746Z" fill="black"/>
<path d="M61.4279 70.1991C61.5632 70.1382 61.7317 70.1759 61.9273 70.2971C61.7902 70.3536 61.6255 70.3256 61.4279 70.1991Z" fill="black"/>
<path d="M86.8154 138.882C86.8932 138.993 86.8908 139.11 86.8825 139.314C86.7319 139.364 86.5875 139.327 86.4044 139.224C86.4889 139.069 86.6126 138.979 86.8154 138.882Z" fill="#59CCD2"/>
<path d="M115.771 54.1211C115.326 53.8275 114.977 53.5547 114.629 53.2819C114.724 53.1563 114.82 53.0303 114.916 52.9043C115.507 53.152 116.099 53.3997 116.691 53.6474C116.686 53.7604 116.681 53.8734 116.676 53.9864C116.407 54.038 116.138 54.0897 115.771 54.1211Z" fill="#AEAEAE"/>
<path d="M117.825 54.9043C117.475 54.6788 117.219 54.4794 116.964 54.2799C117.045 54.1336 117.125 53.9868 117.205 53.8405C117.842 54.096 118.479 54.3509 119.117 54.6064C119.071 54.7705 119.025 54.9347 118.979 55.0989C118.626 55.0429 118.273 54.9869 117.825 54.9043Z" fill="#B0B0B0"/>
<path d="M123.368 140.201C123.16 140.023 123.029 139.811 122.899 139.599C123.442 139.336 123.986 139.074 124.529 138.811C124.619 138.979 124.709 139.146 124.8 139.313C124.348 139.598 123.897 139.882 123.368 140.201Z" fill="#AFAFAF"/>
<path d="M123.481 57.3056C123.26 57.3703 123.059 57.4355 122.951 57.363C122.524 57.0757 122.125 56.7459 121.715 56.4316C121.823 56.3162 122.011 56.0892 122.028 56.1018C122.544 56.4673 123.043 56.857 123.481 57.3056Z" fill="#B0B0B0"/>
<path d="M126.169 59.2491C127.166 58.3346 127.389 59.5818 128.314 59.8609C127.137 60.4993 126.735 59.6962 126.169 59.2491Z" fill="#B0B0B0"/>
<path d="M121.037 55.5223C120.979 55.7797 120.781 56.1819 120.72 56.1621C120.255 56.01 119.817 55.7763 119.37 55.5677C119.407 55.4036 119.443 55.2394 119.479 55.0752C119.973 55.2075 120.466 55.3398 121.037 55.5223Z" fill="#AFAFAF"/>
<path d="M126.538 137.434C126.822 138.69 125.903 138.628 125.219 138.841C125.129 138.729 125.039 138.618 124.949 138.507C125.45 138.145 125.951 137.783 126.538 137.434Z" fill="#AFAFAF"/>
<path d="M122.712 63.0309C122.625 63.014 122.522 62.9271 122.403 62.7702C122.49 62.7866 122.594 62.874 122.712 63.0309Z" fill="#59CCD2"/>
<path d="M122.904 63.1262C122.884 63.1659 122.814 63.19 122.745 63.1591C122.747 63.1041 122.853 63.1115 122.904 63.1262Z" fill="#59CCD2"/>
</g>
<defs>
<clipPath id="clip0_358_2271">
<rect width="170" height="155" fill="white"/>
</clipPath>
</defs>
</svg>
