<svg width="50" height="39" viewBox="0 0 50 39" fill="none" xmlns="http://www.w3.org/2000/svg">
<path fill-rule="evenodd" clip-rule="evenodd" d="M1.07083 4.23733H9.95565V7.71934H1.07083V4.23733ZM1.07083 8.51919H9.95565V10.1275H1.07083V8.52261V8.51919ZM1.26926 0H9.75723C9.92368 0 10.0885 0.032828 10.2423 0.0966084C10.3961 0.160389 10.5358 0.253872 10.6535 0.371723C10.7712 0.489574 10.8646 0.629483 10.9283 0.783462C10.992 0.937442 11.0248 1.10248 11.0248 1.26914V37.4851C11.0248 37.6518 10.992 37.8168 10.9283 37.9708C10.8646 38.1248 10.7712 38.2647 10.6535 38.3825C10.5358 38.5004 10.3961 38.5939 10.2423 38.6577C10.0885 38.7214 9.92368 38.7543 9.75723 38.7543H1.26926C0.932925 38.7543 0.610343 38.6206 0.37236 38.3826C0.134377 38.1447 0.000453278 37.8219 0 37.4851V1.27257C0.000453278 0.935815 0.134377 0.613006 0.37236 0.375044C0.610343 0.137083 0.932925 0.00342591 1.26926 0.00342622V0ZM1.07083 31.0212H9.95565V34.5049H1.07083V31.0212Z" fill="#A82F62"/>
<path fill-rule="evenodd" clip-rule="evenodd" d="M13.3785 4.23732H22.2633V7.71933H13.3785V4.23732ZM13.3785 8.86173H22.2633V10.0058H13.3785V8.86173ZM13.5752 0.00341797H22.0649C22.4011 0.00341797 22.7235 0.13713 22.9612 0.375141C23.1989 0.613151 23.3325 0.935964 23.3325 1.27256V37.4851C23.3325 37.8217 23.1989 38.1445 22.9612 38.3825C22.7235 38.6205 22.4011 38.7543 22.0649 38.7543H13.5752C13.2391 38.7543 12.9166 38.6205 12.6789 38.3825C12.4412 38.1445 12.3077 37.8217 12.3077 37.4851V1.27256C12.3077 0.935964 12.4412 0.613151 12.6789 0.375141C12.9166 0.13713 13.2391 0.00341797 13.5752 0.00341797V0.00341797ZM13.3785 31.0246H22.2633V34.5084H13.3785V31.0246Z" fill="#A82F62"/>
<path fill-rule="evenodd" clip-rule="evenodd" d="M27.2138 13.4964H33.2351V16.045H27.2138V13.4964ZM27.2138 16.9784H33.2351V17.8982H27.2138V16.9784ZM27.3849 10.3981H33.0709C33.3077 10.3981 33.5348 10.4923 33.7023 10.6599C33.8697 10.8276 33.9638 11.055 33.9638 11.2921V37.8517C33.9638 38.0888 33.8697 38.3162 33.7023 38.4838C33.5348 38.6515 33.3077 38.7457 33.0709 38.7457H27.3815C27.2642 38.7457 27.1481 38.7226 27.0397 38.6776C26.9314 38.6327 26.833 38.5669 26.7501 38.4838C26.6671 38.4008 26.6014 38.3023 26.5565 38.1938C26.5116 38.0853 26.4885 37.9691 26.4885 37.8517V11.2921C26.4885 11.1747 26.5116 11.0585 26.5565 10.95C26.6014 10.8415 26.6671 10.743 26.7501 10.6599C26.833 10.5769 26.9314 10.5111 27.0397 10.4661C27.1481 10.4212 27.2642 10.3981 27.3815 10.3981H27.3849ZM27.2138 33.0971H33.2351V35.6439H27.2138V33.0971Z" fill="#A82F62"/>
<path fill-rule="evenodd" clip-rule="evenodd" d="M36.4355 14.8513L42.1985 13.0974L42.9375 15.5364L37.1745 17.2885L36.4355 14.8513ZM35.6965 11.8368L41.1379 10.1823C41.3648 10.1135 41.6096 10.1376 41.8187 10.2493C42.0278 10.3611 42.1841 10.5513 42.2532 10.7784L49.9612 36.1904C49.9954 36.3027 50.0072 36.4207 49.9958 36.5376C49.9844 36.6545 49.9501 36.768 49.8948 36.8716C49.8394 36.9752 49.7643 37.0668 49.6735 37.1413C49.5827 37.2157 49.4782 37.2715 49.3659 37.3053L43.9245 38.9616C43.6979 39.0304 43.4532 39.0062 43.2444 38.8945C43.0356 38.7827 42.8796 38.5924 42.8109 38.3655L35.1012 12.9518C35.0325 12.7249 35.0566 12.48 35.1683 12.2709C35.2799 12.0618 35.4699 11.9057 35.6965 11.8368V11.8368ZM42.1249 33.6058L47.8862 31.852L48.6269 34.2909L42.8639 36.0431L42.1249 33.6058Z" fill="#A82F62"/>
</svg>
